M48
;Layer_Color=9474304
;FILE_FORMAT=2:5
INCH,TZ
;TYPE=PLATED
T1F00S00C0.01000
T2F00S00C0.01500
T3F00S00C0.03543
T4F00S00C0.03800
T5F00S00C0.04000
T6F00S00C0.04016
T7F00S00C0.04331
T8F00S00C0.05900
T9F00S00C0.06300
T10F00S00C0.07598
T11F00S00C0.08700
T12F00S00C0.11811
;TYPE=NON_PLATED
T13F00S00C0.02756
T14F00S00C0.04016
%
T01
X449874Y-57178
Y-52848
Y-48517
Y-44186
Y-39856
X454205
X458535
X462866
X467197
Y-44186
X462866
X458535
X454205
Y-48517
X458535
X462866
X467197
Y-52848
X462866
X458535
X454205
Y-57178
X458535
X462866
X467197
X531174
X535505
X539836
X544166
X548497
Y-52848
X544166
X539836
X535505
X531174
Y-48517
X535505
X539836
X544166
X548497
Y-44186
X544166
X539836
X535505
X531174
Y-39856
X535505
X539836
X544166
X548497
X385897
X381566
X377236
X372905
X368574
Y-44186
X372905
X377236
X381566
X385897
Y-48517
X381566
X377236
X372905
X368574
Y-52848
X372905
X377236
X381566
X385897
Y-57178
X381566
X377236
X372905
X368574
X303841Y-57476
X299511
X295180
X290849
X286519
Y-53145
X290849
X295180
X299511
X303841
Y-48815
X299511
X295180
X290849
X286519
Y-44484
X290849
X295180
X299511
X303841
Y-40153
X299511
X295180
X290849
X286519
X222314Y-39856
X217984
X213653
X209322
X204991
Y-44186
Y-48517
X209322
X213653
X217984
X222314
Y-44186
X217984
X213653
X209322
Y-52848
X204991
Y-57178
X209322
X213653
Y-52848
X217984
X222314
Y-57178
X217984
X177895Y-41373
X140259Y-39760
Y-44091
Y-48421
Y-52752
Y-57083
X135928
X131597
X127267
X122936
Y-52752
X127267
X131597
X135928
Y-48421
X131597
X127267
X122936
Y-44091
X127267
X131597
X135928
Y-39760
X131597
X127267
X122936
X58732Y-39856
X54401
X50070
X45739
X41409
Y-44186
X45739
X50070
X54401
X58732
Y-48517
X54401
X50070
X45739
X41409
Y-52848
X45739
X50070
X54401
X58732
Y-57178
X54401
X50070
X45739
X41409
X-23060
X-27391
X-31721
X-36052
X-40383
Y-52848
X-36052
X-31721
X-27391
X-23060
Y-48517
X-27391
X-31721
X-36052
X-40383
Y-44186
X-36052
X-31721
X-27391
X-23060
Y-39856
X-27391
X-31721
X-36052
X-40383
X-45300Y-21000
X-50200Y-15700
X-53300
X-63700Y-14500
X-41200Y-8100
X-38200Y-9400
X-35000
X-36600Y-2500
X-33200Y-1400
Y1764
X-29000Y-2000
X-41870Y-2500
X-45000Y-2600
X-46700Y14300
X-44100Y20000
X-41700Y26400
X-38400Y27300
X-34050Y28191
X-28317Y24800
X-23471Y22374
X-10800Y29900
X-7651Y30651
X-7160Y34148
X-2200Y21900
X700Y17800
X2200Y24800
X12400Y25200
X11553Y28773
X30744Y23464
X38477
X41800Y20100
X45471Y26171
X49200Y25900
X50200Y18500
X53477Y18464
X55500Y7400
X50537Y7674
X50741Y2664
X51565Y-550
X39423Y-5600
X36273Y-5400
X32834
X31100Y2100
X30900Y-16100
X28300Y-17900
X25800Y-16000
X20700
X17000Y-16400
X13400Y-16100
X14700Y-7000
X17800Y-6800
X13500Y-4100
X1000Y-6900
X0Y-1200
X-0Y1969
X-14600Y-2900
X-13500Y-16100
X-12300Y-19500
X-1300Y-21654
X1800Y-20400
Y-15900
X-1300Y-16900
X2007Y-26987
X25200Y-27300
X27600Y37800
X28000Y64500
X24100Y68400
X12237Y72400
X1700Y74300
X-60400Y67900
X-52998Y56380
X-51400Y9700
X-74400Y15000
X59900Y10000
X75700Y8800
X78760Y6520
X72900Y14400
X76826Y23495
X80000Y23500
X65700Y25400
X62600Y25720
X65300Y34324
X55600Y34500
X73200Y39335
X76336Y39452
X77636Y42939
X64281Y65569
X100000Y61000
X103000Y63200
X106100Y61200
X108800Y63100
X111900Y62800
X121900Y73000
X144900Y58500
X146800Y53400
Y49900
X137200Y48500
X146800Y37800
X144300Y26300
X141200Y27280
X142800Y23400
X147960Y22300
X150493Y20371
X152999Y17726
X168000Y15400
X168393Y2519
X152178Y-6592
Y-10923
X147848
Y-6592
X135333Y26557
X83200Y23400
X89131Y17400
X85700Y10300
X85500Y6800
X87200Y38100
X94100Y41900
X93961Y-26300
X105800Y-18600
X109136Y-20100
X196863Y-7552
X200100Y-9100
X213624Y-10822
X217954
Y-6491
X213624
X215900Y-2100
X221402Y-2060
X225800Y-4900
X225965Y-10172
X229300Y-11700
X231411Y-2930
X242439Y-16900
X246500Y-21900
X257099Y-17051
X266350Y-16450
X268179Y3521
X274079
X290400Y21700
X304100Y23800
X309700
X314600
Y30400
X314400Y35000
X309700Y34700
Y30400
X304100
X304700Y34700
X304000Y40900
X309700
X314900
X306045Y45241
X331115Y40849
X330500Y34400
Y30846
X330800Y24500
X337639Y50261
X315000Y66800
X304100Y74000
X304800Y77700
X304600Y83700
X312500Y83600
X325300Y77200
X277595Y79249
Y74919
X273265
Y79249
X266084Y62859
X274647Y50359
X266577Y32938
X249254Y69736
X296900Y-16300
X303100Y-21500
X373800Y-15200
X378092Y-15169
X381700Y-14700
X385600Y-14810
X380400Y-3562
X384800Y117700
X405899Y94523
Y90522
Y86523
Y82522
X409899
X413899
Y86523
Y90522
Y94523
X417899
X421899
Y90522
X417899
Y86523
X421899
Y82522
X417899
X409899Y86523
Y90522
Y94523
X448249Y94122
Y90122
Y86123
Y82122
X452249
X456249
Y86123
Y90122
Y94122
X460249
X464249
Y90122
X460249
Y86123
X464249
Y82122
X460249
X452249Y86123
Y90122
Y94122
X492248Y94123
X496248
Y90123
X492248
Y86123
X496248
Y82123
X492248
X500248
X504248
X508248
Y86123
X504248
Y90123
X508248
Y94123
X504248
X500248
Y90123
Y86123
X489700Y-1800
X488526Y-11757
X463500Y-15300
X455800
X536910Y-13700
X540800Y-13800
X544000Y-10200
X546924Y-16749
X566900Y-19900
X569826Y-21100
X583100Y177300
X583300Y184900
X583829Y201370
Y205370
Y209370
Y213370
X579829
X575829
Y209370
Y205370
Y201370
X579829
Y205370
Y209370
X571829
Y205370
Y201370
X567829
Y205370
Y209370
Y213370
X571829
X564900Y229000
X550796Y220681
X587637Y203838
X503989Y160083
X499658
X495328
Y155752
X499658
X503989
X488358Y150217
X485867Y142520
X478447Y182286
X447237Y174100
X443300
X363715Y146224
X360600Y146600
X326100Y147800
X298200Y148400
X262868Y152365
X259500Y152000
X241400Y168400
X236900Y167600
X237000Y170800
X237800Y176100
X245100Y188500
X247600
X243449Y193300
X240400Y210900
Y230500
X230300Y233000
X231100Y216873
X222100Y214200
X218900Y214500
X215600
X216300Y189500
X223343
X221000Y192000
X232319Y189611
X234354Y187576
X235200Y174299
X228600Y179100
X224900Y170900
X223400Y168000
X223100Y163500
X220000Y163400
X222500Y160400
X216500Y157711
X211200Y160700
X209400Y163300
X211500Y165600
X217900Y167900
X220500Y169900
X212200Y181000
X208200Y180700
X208500Y189500
X190027Y189600
X186300
X182700Y182500
X183450Y172533
X186600Y165839
X188920Y163300
X188800Y158500
X191900Y158400
X191300Y153900
X192350Y150800
X185000Y152800
X180500Y153700
X178000Y151800
X174351Y150451
X171100Y150300
X177000Y159900
X177300Y163000
X177600Y166100
X168600Y164500
X168349Y173299
X164400Y172900
X155100Y170900
X152000
X149300Y172700
X150800Y175600
X153900
X154800Y183400
X163500Y184100
X164300Y189000
X171300Y185200
X176300Y190600
X175500Y177100
X194900Y179900
X195658Y173327
X201600Y171000
X191800Y166800
X201400Y154300
X214700Y151000
X231600Y160700
X153125Y164261
X147800Y166000
X145209Y164261
X141200Y167000
X141684Y172900
X140000Y175600
Y178700
X142000Y189100
X135228Y190200
X127300Y189100
X124600Y191200
X120100Y189600
X115800Y181100
X123200Y176100
X128400Y175218
X127000Y172000
X115300Y168700
X105900Y170400
Y166500
X104787Y176763
X106800Y190400
X105240Y242990
X108900Y243200
X99200Y243000
X91700
X84500
X127700
X131200
X142300Y243200
X145900Y242700
X164610Y243400
X168400
X179200Y243000
X185300Y242900
X188600
X207339Y242851
X211027Y242800
X222039Y242751
X149200Y154600
X146200Y141900
X135608Y162523
X88500Y152400
X84600Y147104
X78900Y177200
X60600Y177100
X50500
X40900Y176400
X40800Y180900
X33100Y179800
X34800Y188900
X31082Y188953
X41900Y189000
X53000Y189500
X60273Y189200
X20190Y189490
X1164Y189764
X-3400Y189400
X-14473Y189428
X-45750Y181500
X-45400Y178400
X-45900Y173300
X-47700Y168800
X-52692Y168202
X-51763Y171173
X-57300Y164200
X-60500Y163600
X-66400Y159100
X-67363Y156073
X-65300Y153700
X-67953Y151939
X-68000Y166800
X-70610Y171326
X-61100Y177800
X-57800Y178300
X-59700Y180800
X-60554Y184777
X-50663Y186073
X-50400Y182900
X-52800Y197500
X-53400Y203400
X-52500Y212000
X-67700Y198051
X-71400Y193600
X-48222Y243379
X22160Y242868
X28500Y243300
X43800Y242900
X51000Y243600
X62100Y243100
X65800
X38500Y157500
X-81400Y195300
T02
X-86463Y-244027
X-78215Y-243830
X-80671Y-248871
X-78018Y-231723
X-86463Y-224027
Y-204027
X-77551Y-193725
X-71719Y-237826
X-65420Y-243830
X-72703Y-250621
X-41047Y-273753
X-46463Y-280527
X-26463
X-6463
X13537
X12828Y-264991
X12631Y-252294
X6628Y-246375
X3970Y-238023
X11525Y-225159
X18467Y-225237
X17843Y-228669
X21977Y-229293
X23163Y-247570
X19226Y-246487
X23069Y-261251
X29856Y-258003
X6529Y-258200
X-7250Y-226507
X-22618Y-222091
Y-216284
Y-209690
Y-203489
X-35607
Y-209690
Y-216284
Y-222291
X46324
Y-216284
Y-209690
Y-203489
X59313
Y-209690
Y-216284
Y-222091
X73852Y-225523
X73537Y-280527
X53537
X33537
X93537
X92454Y-264893
X86746Y-258298
X92511Y-251901
X99049Y-255346
X98852Y-245751
X105671Y-249243
Y-261546
X113537Y-280527
X133537
X153537
X173537
X174738Y-264597
Y-252294
X181431Y-255080
X181529Y-246290
X187336Y-249243
X187139Y-261153
X168537Y-258200
X168931Y-246297
X166372Y-236645
X175169Y-225237
X180019Y-225375
X179395Y-228807
X183529Y-229431
X154757Y-226015
X141282Y-222691
Y-216884
Y-210290
Y-204089
X128293
Y-210290
Y-216884
Y-222891
X97729Y-224230
X97105Y-227662
X101239Y-228286
X93425Y-223989
X84482Y-236940
X86450Y-245601
X193537Y-280527
X213537
X223261Y-273554
X233537Y-280527
X222567Y-222091
Y-216284
Y-209690
Y-203489
X209578
Y-209690
Y-216284
Y-222291
X256757Y-226251
X255643Y-240385
X249049Y-236448
X249738Y-246192
X261549Y-246487
X267356Y-242353
X274443Y-251605
X255840Y-252688
X273537Y-280527
X289699Y-273554
X303537Y-280527
X323537
X343537
X363537
X383537
X357218Y-257609
X350513Y-261743
X343931Y-255739
X343832Y-245503
X350513Y-248948
X337275Y-251999
X330939Y-257905
Y-245700
X328675Y-237866
X318340Y-225621
X304334Y-222091
Y-216284
Y-209690
Y-203489
X291345
Y-209690
Y-216284
Y-222291
X338813Y-221961
X342363Y-224440
X341739Y-227872
X345873Y-228496
X373191Y-222291
Y-216284
Y-209690
Y-203489
X386179
Y-209690
Y-216284
Y-222091
X337041Y-264204
X413222Y-258594
X413419Y-246782
X419029Y-252393
X425427Y-257708
X431555Y-262530
X437632Y-257215
X425328Y-246782
X423639Y-228730
X424263Y-225298
X420635Y-223053
X427773Y-229354
X410368Y-237727
X396096Y-230247
X419226Y-264597
X423537Y-280527
X403537
X443537
X463537
X483537
X503537
X500529Y-264597
X506136Y-257708
X511844Y-262530
X512041Y-250129
X506824Y-246684
X500525Y-251901
X494718Y-246220
X492061Y-237924
X482513Y-225621
X476706Y-231034
X467596Y-222091
Y-216284
Y-209690
Y-203489
X454607
Y-209690
Y-216284
Y-222291
X501677Y-224535
X505617Y-225220
X504993Y-228652
X509127Y-229276
X535758Y-222291
Y-216284
Y-209690
Y-203489
X548747
Y-209690
Y-216284
Y-222091
X543537Y-280527
X523537
X518636Y-256330
X582513Y-258200
X588419Y-251680
X582317Y-244322
X588813Y-237432
X582218Y-230641
X583163Y-213608
X597359Y-199568
X622838Y-199334
X635891Y-199361
X647537Y-194027
Y-214027
Y-234027
Y-254027
X623537Y-280527
X603537
X583537
X581627Y-273285
X563537Y-280527
X594731Y-259323
X598451Y-185294
X600557Y-176324
X597905Y-165716
X594395Y-163220
X594317Y-160412
Y-157760
X601415Y-157682
X601259Y-153860
X605003Y-154016
X597281Y-153392
X601493Y-161894
X594083Y-168836
X588701Y-168778
X583006Y-165779
X582461Y-147152
X583241Y-141458
X588857
X589973Y-129088
X583421Y-129946
X583109Y-117232
X589739Y-119416
X592703Y-107014
X599021Y-110056
X604169Y-107092
X615791Y-107560
X616259Y-115906
X616805Y-124330
X623669Y-126124
X625205Y-142160
X617249Y-142082
X613061Y-136732
X609239Y-130414
X603701Y-135406
X605939Y-142472
X612827Y-155608
X617561Y-153704
X617873Y-160178
X623489Y-165326
X628403Y-163610
X630977Y-169694
X632147Y-176324
X623408Y-184635
X626297Y-153938
X631835
X631289Y-147308
X644939Y-147776
Y-144578
X645017Y-141614
X647537Y-134027
X643169Y-129946
X647537Y-114027
Y-94027
Y-74027
Y-54027
X643247Y-52024
X647537Y-34027
X627725Y-37204
X613763Y-31354
X608069
X598865
X587633
X587477Y-39076
X588647Y-50230
X588881Y-54286
X588803Y-58264
X585137Y-51790
X595199Y-45004
X599021
X602687
X608771Y-50698
Y-54364
Y-58498
X602531Y-63880
X598943Y-63958
X595589
X599021Y-73422
X598943Y-77322
X589661Y-80130
X588023Y-86682
X587633Y-96354
X598865
X608069
X613763
X622109Y-96796
X613919Y-86682
X608459
X610331Y-80130
X607835Y-73422
X612905
X620003Y-70120
X586385Y-67936
X587165Y-73422
X575494Y-74874
Y-77974
X569994Y-81374
X569894Y-84674
X569994Y-87974
X574094Y-95374
X574205Y-99574
Y-102553
X568201Y-103538
X564854Y-103557
X565937Y-107592
Y-112119
X570795Y-109954
X569826Y-117219
X574752Y-116426
X576913Y-113479
X565791Y-119090
X562838Y-117219
X558850
X555898Y-119090
X551862Y-117219
X548794Y-114074
X550893Y-109954
X555751Y-112119
Y-107592
X556834Y-103557
X553487Y-103538
Y-131491
X555751Y-135730
Y-140257
X560869Y-140054
Y-135527
X565937Y-135545
X565791Y-147042
X560869Y-144779
Y-150684
X555898Y-147227
X551862Y-145357
X599021Y-128854
X608459Y-119260
X645017Y-152456
X644939Y-155732
X645095Y-158774
X645407Y-163376
X645485Y-166184
X644081Y-170396
X565794Y-76874
X562194Y-76974
X557494Y-67074
X555977Y-63419
X552294Y-69974
X562099Y-55151
X562257Y-50289
X567894Y-47574
X567217Y-43242
X563576Y-43143
X564462Y-38714
X560820Y-38616
X562444Y-30507
X566086
X570094Y-59474
X574698Y-67678
X548694Y-70574
X543370Y-72439
X546894Y-76074
X543194Y-84574
X545194Y-88974
X536294Y-84574
X532925Y-76374
X536058Y-72439
X530694Y-70874
X527158Y-69226
X522926Y-66765
X522564Y-63109
X510894Y-59474
X506292Y-54659
X507681Y-44117
X507867Y-39009
X503478Y-32511
X484786Y-30507
X481144
X479520Y-38616
X483161Y-38714
X482276Y-43143
X485917Y-43242
X486594Y-47574
X480957Y-50289
X480799Y-55151
X488794Y-59474
X493398Y-67678
X494194Y-74874
Y-77974
X488694Y-81374
X488594Y-84674
X488694Y-87974
X492794Y-95374
X492905Y-99574
Y-102553
X486901Y-103538
X483554Y-103557
X484637Y-107592
Y-112119
X489495Y-109954
X488526Y-117219
X493452Y-116426
X495613Y-113479
X506638Y-117213
X504767Y-120664
X501653Y-129056
X518502Y-135545
Y-140072
X523570Y-140054
Y-135527
X528688Y-135730
Y-140257
X528542Y-147227
X532577Y-145357
X535972Y-141924
X535755Y-153528
X535758Y-159729
Y-166323
Y-172330
X548747Y-172131
Y-166323
Y-159729
X548750Y-153528
X548468Y-141924
X546991Y-131491
X537838Y-131590
X530952Y-131676
X528586Y-118893
X525589Y-117404
X521602Y-117219
X518649Y-119090
X518502Y-112119
Y-107592
X519585Y-103557
X516239Y-103538
X513920Y-109936
X510426Y-108286
X507473
X507375Y-103675
X506794Y-100074
X503394Y-90774
X503194Y-87274
Y-83874
X503394Y-80474
X503294Y-77274
X513795Y-76793
X517414Y-76903
X511494Y-82174
X484494Y-76874
X480894Y-76974
X476194Y-67074
X474677Y-63419
X470994Y-69974
X467394Y-70574
X462070Y-72439
X465594Y-76074
X461894Y-84574
X463894Y-88974
X454994Y-84574
X451625Y-76374
X454758Y-72439
X449394Y-70874
X445858Y-69226
X441626Y-66765
X441263Y-63109
X429594Y-59474
X424992Y-54659
X426381Y-44117
X426567Y-39009
X422671Y-33101
X403486Y-30507
X399844
X398220Y-38616
X401861Y-38714
X400976Y-43143
X404617Y-43242
X405294Y-47574
X399657Y-50289
X399499Y-55151
X407494Y-59474
X412098Y-67678
X412894Y-74874
Y-77974
X407394Y-81374
X407294Y-84674
X407394Y-87974
X411494Y-95374
X411605Y-99574
Y-102553
X405601Y-103538
X402254Y-103557
X403337Y-107592
Y-112119
X408195Y-109954
X407226Y-117219
X412152Y-116426
X414313Y-113479
X425339Y-117213
X423467Y-120664
X420299Y-128900
X437202Y-135545
Y-140072
X442270Y-140054
Y-135527
X447388Y-135730
Y-140257
X447242Y-147227
X451277Y-145357
X454672Y-141924
X454604Y-153528
X454607Y-159729
Y-166323
Y-172330
X467596Y-172131
Y-166323
Y-159729
X467599Y-153528
X470562Y-145357
X474598Y-147227
X474451Y-140257
Y-135730
X479569Y-135527
Y-140054
Y-144779
Y-150684
X484491Y-147042
X484637Y-135545
X472187Y-131491
X465691
X456538Y-131590
X449652Y-131676
X447286Y-118893
X444289Y-117404
X440302Y-117219
X437349Y-119090
X437202Y-112119
Y-107592
X438285Y-103557
X434939Y-103538
X432620Y-109936
X429126Y-108286
X426173
X426075Y-103675
X425494Y-100074
X422094Y-90774
X421894Y-87274
Y-83874
X422094Y-80474
X421994Y-77274
X432495Y-76793
X436114Y-76903
X430194Y-82174
X403194Y-76874
X399594Y-76974
X394894Y-67074
X393377Y-63419
X394234Y-103557
X393151Y-107592
Y-112119
X393298Y-119090
X396250Y-117219
X400238
X403191Y-119090
X403337Y-135545
X398269Y-135527
Y-140054
Y-144779
Y-150684
X393298Y-147227
X393151Y-140257
Y-135730
X403191Y-147042
X437349
X442270Y-144779
Y-150684
X467168Y-141924
X462837Y-124897
X459392
X461094Y-118204
Y-115546
X460967Y-111425
Y-108657
X459294Y-106474
X465294Y-102274
X472187Y-103538
X475534Y-103557
X474451Y-107592
Y-112119
X469593Y-109954
X467494Y-114074
X466094Y-117474
X470562Y-117219
X474598Y-119090
X477550Y-117219
X481538
X484491Y-119090
X455594Y-117974
X451277Y-117404
X454394Y-113674
X452246Y-110139
X447388Y-112304
Y-107777
X446306Y-103742
X449652Y-103723
X437197Y-46785
X518497
X527606Y-103742
X530952Y-103723
X528688Y-107777
Y-112304
X533546Y-110139
X535694Y-113674
X536894Y-117974
X532577Y-117404
X542394Y-118204
Y-115546
X542267Y-111425
Y-108657
X540594Y-106474
X546594Y-102274
X547394Y-117474
X544137Y-124897
X540692
X523570Y-144779
Y-150684
X518649Y-147042
X389262Y-145357
X385868Y-141924
X384391Y-131491
X390887
X375238Y-131590
X368352Y-131676
X366088Y-135730
Y-140257
X360970Y-140054
Y-135527
X355902Y-135545
Y-140072
X356049Y-147042
X360970Y-144779
Y-150684
X365942Y-147227
X369977Y-145357
X373372Y-141924
X373187Y-153528
X373191Y-159729
Y-166323
Y-172330
X386179Y-172131
Y-166323
Y-159729
X386183Y-153528
X381537Y-124897
X378092
X379794Y-118204
Y-115546
X379667Y-111425
Y-108657
X377994Y-106474
X383994Y-102274
X390887Y-103538
X388293Y-109954
X386194Y-114074
X384794Y-117474
X389262Y-117219
X374294Y-117974
X369977Y-117404
X365986Y-118893
X362989Y-117404
X359002Y-117219
X356049Y-119090
X355902Y-112119
Y-107592
X356985Y-103557
X353639Y-103538
X351321Y-109936
X347826Y-108286
X344873
X344775Y-103675
X344194Y-100074
X340794Y-90774
X340594Y-87274
Y-83874
X340794Y-80474
X340694Y-77274
X330838Y-78272
Y-75172
X330042Y-67975
X325438Y-59772
X317444Y-55449
X317601Y-50586
X323238Y-47872
X322562Y-43539
X318920Y-43441
X319806Y-39012
X316164Y-38913
X345267Y-39009
X345081Y-44117
X343692Y-54659
X348294Y-59474
X359963Y-63109
X360326Y-66765
X364558Y-69226
X368094Y-70874
X373458Y-72439
X370325Y-76374
X373694Y-84574
X380594
X382594Y-88974
X384294Y-76074
X380770Y-72439
X386094Y-70574
X389694Y-69974
X354814Y-76903
X351195Y-76793
X348894Y-82174
X325338Y-81672
X325238Y-84971
X325338Y-88271
X329438Y-95671
X329549Y-99871
Y-102850
X323545Y-103836
X320199Y-103854
X321282Y-107890
Y-112417
X326139Y-110252
X325170Y-117517
X330096Y-116724
X332257Y-113777
X344039Y-117213
X342167Y-120664
X338711Y-129212
X321282Y-135842
X316214Y-135824
Y-140352
Y-145076
Y-150982
X311242Y-147525
X307207Y-145655
X303812Y-142222
X311096Y-140555
Y-136027
X308832Y-131789
X302336
X293182Y-131887
X286297Y-131974
X284033Y-136027
Y-140555
X278915Y-140352
Y-135824
X273847Y-135842
Y-140370
X273993Y-147340
X278915Y-145076
Y-150982
X283886Y-147525
X287922Y-145655
X291316Y-142222
X291342Y-153528
X291345Y-159729
Y-166323
Y-172330
X304334Y-172131
Y-166323
Y-159729
X304337Y-153528
X321135Y-147340
Y-119387
X318182Y-117517
X314195
X311242Y-119387
X307207Y-117517
X302738Y-117771
X304138Y-114372
X306238Y-110252
X311096Y-112417
Y-107890
X312178Y-103854
X308832Y-103836
X301938Y-102571
X295938Y-106772
X297611Y-108954
Y-111723
X297738Y-115844
Y-118501
X292238Y-118272
X287922Y-117702
X283930Y-119190
X280933Y-117702
X276946Y-117517
X273993Y-119387
X273847Y-112417
Y-107890
X274929Y-103854
X271583Y-103836
X269265Y-110234
X265770Y-108584
X262818
X262719Y-103972
X262138Y-100372
X258738Y-91071
X258538Y-87572
Y-84171
X258738Y-80771
X258638Y-77571
X249311Y-77974
Y-74874
X248515Y-67678
X243911Y-59474
X241711Y-47574
X241035Y-43242
X237393Y-43143
X238279Y-38714
X254659Y-41664
X263211Y-39307
X263025Y-44414
X261637Y-54957
X266238Y-59772
X277908Y-63407
X278270Y-67063
X282503Y-69524
X286038Y-71171
X291403Y-72737
X288269Y-76671
X291638Y-84872
X298538
X300538Y-89271
X302238Y-76372
X298714Y-72737
X304038Y-70872
X307638Y-70271
X312838Y-67371
X311322Y-63716
X317538Y-77271
X321138Y-77171
X272759Y-77201
X269139Y-77091
X266838Y-82472
X243811Y-81374
X243711Y-84674
X243811Y-87974
X247911Y-95374
X248022Y-99574
Y-102553
X242018Y-103538
X238672Y-103557
X239754Y-107592
Y-112119
X244612Y-109954
X243643Y-117219
X248569Y-116426
X250730Y-113479
X261983Y-117511
X260111Y-120962
X257147Y-130155
X256991Y-132963
X256913Y-135771
X239754Y-135545
X239608Y-147042
Y-119090
X236655Y-117219
X239611Y-76874
X273841Y-47082
X282950Y-104039
X286297Y-104021
X284033Y-108075
Y-112602
X288891Y-110437
X291038Y-113971
X296037Y-125194
X299482
X267833Y-163539
X265649Y-161667
X263446Y-159464
X366088Y-112304
Y-107777
X365006Y-103742
X368352Y-103723
X370946Y-110139
X373094Y-113674
X355897Y-46785
X341175Y-32609
X234637Y-38616
X236074Y-50289
X235917Y-55151
X229795Y-63419
X231311Y-67074
X226111Y-69974
X222511Y-70574
X217187Y-72439
X220711Y-76074
X217011Y-84574
X219011Y-88974
X210111Y-84574
X206742Y-76374
X209876Y-72439
X204511Y-70874
X200976Y-69226
X196743Y-66765
X196381Y-63109
X184711Y-59474
X180110Y-54659
X181498Y-44117
X181684Y-39009
X173950Y-40877
X158979Y-43146
X155337Y-43047
X156223Y-38618
X152582Y-38520
X154018Y-50193
X153861Y-55055
X161855Y-59378
X166460Y-67582
X167255Y-74778
Y-77878
X161756Y-81278
X161655Y-84578
X161756Y-87878
X165856Y-95278
X165967Y-99478
Y-102457
X159963Y-103443
X156616Y-103461
X157699Y-107496
Y-112024
X162557Y-109858
X161588Y-117124
X166514Y-116330
X168674Y-113383
X180456Y-117213
X178584Y-120664
X174911Y-129134
X157699Y-135449
X152631Y-135431
Y-139958
Y-144683
Y-150588
X147660Y-147131
X143624Y-145261
X140230Y-141828
X147513Y-140161
Y-135634
X145249Y-131395
X138753
X129600Y-131494
X122714Y-131580
X120450Y-135634
Y-140161
X115332Y-139958
Y-135431
X110264Y-135449
Y-139976
X110411Y-146946
X115332Y-144683
Y-150588
X120304Y-147131
X124339Y-145261
X127734Y-141828
X127690Y-153528
X127693Y-159729
Y-166323
Y-172330
X140682Y-172131
Y-166323
Y-159729
X140685Y-153528
X157552Y-146946
Y-118994
X154600Y-117124
X150612
X147660Y-118994
X143624Y-117124
X139155Y-117378
X140556Y-113978
X142655Y-109858
X147513Y-112024
Y-107496
X148596Y-103461
X145249Y-103443
X138356Y-102178
X132355Y-106378
X134029Y-108561
Y-111329
X134155Y-115450
Y-118108
X128656Y-117878
X124339Y-117308
X120348Y-118797
X117351Y-117308
X113363Y-117124
X110411Y-118994
X110264Y-112024
Y-107496
X111347Y-103461
X108000Y-103443
X105682Y-109840
X102188Y-108191
X99235
X99137Y-103579
X98555Y-99978
X95156Y-90678
X94955Y-87178
Y-83778
X95156Y-80378
X95056Y-77178
X85728Y-77974
Y-74874
X84932Y-67678
X80328Y-59474
X80228Y-81374
X80128Y-84674
X80228Y-87974
X84328Y-95374
X84439Y-99574
Y-102553
X81030Y-109954
X80061Y-117219
X84987Y-116426
X87147Y-113479
X98400Y-117117
X96529Y-120568
X93401Y-129056
X132454Y-124801
X135899
X127455Y-113578
X125308Y-110043
X120450Y-112208
Y-107681
X119367Y-103646
X122714Y-103627
X128056Y-84478
X134956
X136955Y-88878
X138655Y-75978
X135132Y-72343
X140455Y-70478
X144055Y-69878
X149256Y-66978
X147739Y-63323
X153955Y-76878
X157555Y-76778
X177111Y-77274
X177211Y-80474
X177011Y-83874
Y-87274
X177211Y-90774
X180611Y-100074
X181192Y-103675
X181291Y-108286
X184243
X187738Y-109936
X192320Y-112119
Y-107592
X193402Y-103557
X190056Y-103538
X201423Y-103742
X204769Y-103723
X202506Y-107777
Y-112304
X202403Y-118893
X199406Y-117404
X195419Y-117219
X192466Y-119090
X206395Y-117404
X210711Y-117974
X209511Y-113674
X207364Y-110139
X216084Y-111425
Y-108657
X214411Y-106474
X220411Y-102274
X227305Y-103538
X230651Y-103557
X229569Y-107592
Y-112119
X224711Y-109954
X222611Y-114074
X221211Y-117474
X225680Y-117219
X229715Y-119090
X232668Y-117219
X216211Y-118204
Y-115546
X214510Y-124897
X217954
X220809Y-131491
X227305
X229569Y-135730
Y-140257
X234687Y-140054
Y-135527
Y-144779
Y-150684
X229715Y-147227
X225680Y-145357
X222285Y-141924
X222570Y-153528
X222567Y-159729
Y-166323
Y-172131
X209578Y-172330
Y-166323
Y-159729
X209575Y-153528
X206395Y-145357
X202359Y-147227
X202506Y-140257
Y-135730
X197388Y-135527
Y-140054
Y-144779
Y-150684
X192466Y-147042
X192320Y-140072
Y-135545
X204769Y-131676
X211655Y-131590
X209789Y-141924
X191232Y-76903
X187612Y-76793
X185311Y-82174
X192314Y-46785
X159655Y-47478
X110259Y-46689
X99443Y-44021
X99629Y-38913
X92257Y-40680
X98054Y-54563
X102655Y-59378
X114325Y-63013
X114688Y-66669
X118920Y-69130
X122456Y-70778
X127820Y-72343
X124686Y-76278
X109176Y-76807
X105557Y-76697
X103255Y-82078
X236011Y-76974
X76028Y-76874
X72428Y-76974
X67728Y-67074
X66212Y-63419
X62528Y-69974
X58928Y-70574
X53604Y-72439
X57128Y-76074
X53428Y-84574
X55428Y-88974
X46528Y-84574
X43159Y-76374
X46293Y-72439
X40928Y-70874
X37393Y-69226
X33161Y-66765
X32798Y-63109
X21128Y-59474
X16527Y-54659
X17916Y-44117
X18102Y-39009
X12537Y-35727
X9312Y-42799
X-4339Y-43242
X-7981Y-43143
X-7095Y-38714
X-10737Y-38616
X-9300Y-50289
X-9457Y-55151
X-1463Y-59474
X3141Y-67678
X3937Y-74874
Y-77974
X-1563Y-81374
X-1663Y-84674
X-1563Y-87974
X2537Y-95374
X2648Y-99574
Y-102553
X-3356Y-103538
X-6702Y-103557
X-5620Y-107592
Y-112119
X-762Y-109954
X-1731Y-117219
X3195Y-116426
X5356Y-113479
X16873Y-117213
X15002Y-120664
X11813Y-129212
X28737Y-135545
Y-140072
X33805Y-140054
Y-135527
X38923Y-135730
Y-140257
X38776Y-147227
X42812Y-145357
X46206Y-141924
X46321Y-153528
X46324Y-159729
Y-166323
Y-172330
X59313Y-172131
Y-166323
Y-159729
X59316Y-153528
X62097Y-145357
X66132Y-147227
X65986Y-140257
Y-135730
X71104Y-135527
Y-140054
Y-144779
Y-150684
X76025Y-147042
X76172Y-135545
X63722Y-131491
X57226
X48072Y-131590
X41187Y-131676
X38820Y-118893
X35824Y-117404
X31836Y-117219
X28883Y-119090
X28737Y-112119
Y-107592
X29820Y-103557
X26473Y-103538
X24155Y-109936
X20661Y-108286
X17708
X17609Y-103675
X17028Y-100074
X13628Y-90774
X13428Y-87274
Y-83874
X13628Y-80474
X13528Y-77274
X24029Y-76793
X27649Y-76903
X21728Y-82174
X-5763Y-76874
X-9363Y-76974
X-14063Y-67074
X-15579Y-63419
X-19263Y-69974
X-22863Y-70574
X-28187Y-72439
X-24663Y-76074
X-28363Y-84574
X-26363Y-88974
X-35263Y-84574
X-38632Y-76374
X-35498Y-72439
X-40863Y-70874
X-44398Y-69226
X-48631Y-66765
X-48993Y-63109
X-60663Y-59474
X-65264Y-54659
X-71446Y-54508
X-74173Y-57743
X-69229Y-64316
X-68263Y-77274
X-68163Y-80474
X-68363Y-83874
Y-87274
X-68163Y-90774
X-64763Y-100074
X-64182Y-103675
X-64083Y-108286
X-61131
X-57636Y-109936
X-53054Y-112119
Y-107592
X-51972Y-103557
X-55318Y-103538
X-43951Y-103742
X-40605Y-103723
X-42869Y-107777
Y-112304
X-42971Y-118893
X-45968Y-117404
X-49955Y-117219
X-52908Y-119090
X-64918Y-117213
X-66790Y-120664
X-53054Y-135545
Y-140072
X-47987Y-140054
Y-135527
X-42869Y-135730
Y-140257
X-43015Y-147227
X-38980Y-145357
X-35585Y-141924
X-35611Y-153528
X-35607Y-159729
Y-166323
Y-172330
X-22618Y-172131
Y-166323
Y-159729
X-22615Y-153528
X-19694Y-145357
X-15659Y-147227
X-15805Y-140257
Y-135730
X-10687Y-135527
Y-140054
Y-144779
Y-150684
X-5766Y-147042
X-5620Y-135545
X-18069Y-131491
X-24565
X-33719Y-131590
X-40605Y-131676
X-38980Y-117404
X-34663Y-117974
X-35863Y-113674
X-38011Y-110139
X-29290Y-111425
Y-108657
X-30963Y-106474
X-24963Y-102274
X-18069Y-103538
X-14723Y-103557
X-15805Y-107592
Y-112119
X-20663Y-109954
X-22763Y-114074
X-24163Y-117474
X-19694Y-117219
X-15659Y-119090
X-12706Y-117219
X-8719
X-5766Y-119090
X-29163Y-118204
Y-115546
X-30865Y-124897
X-27420
X-23089Y-141924
X-47987Y-144779
Y-150684
X-52908Y-147042
X-54142Y-76903
X-57762Y-76793
X-60063Y-82174
X-63876Y-44117
X-63690Y-39009
X-73301Y-39913
X-75480Y-43481
X-53060Y-46785
X-56660Y-33889
X-3663Y-47574
X28732Y-46785
X72491Y-50289
X72334Y-55151
X78128Y-47574
X77452Y-43242
X73810Y-43143
X74696Y-38714
X71054Y-38616
X72679Y-30507
X76300Y-31000
X75089Y-103557
X78435Y-103538
X76172Y-107592
Y-112119
X76025Y-119090
X73072Y-117219
X69085
X66132Y-119090
X62097Y-117219
X57628Y-117474
X59028Y-114074
X61128Y-109954
X65986Y-112119
Y-107592
X67069Y-103557
X63722Y-103538
X56828Y-102274
X50828Y-106474
X52502Y-108657
Y-111425
X52628Y-115546
Y-118204
X47128Y-117974
X42812Y-117404
X45928Y-113674
X43781Y-110139
X38923Y-112304
Y-107777
X37840Y-103742
X41187Y-103723
X50927Y-124897
X54372
X58702Y-141924
X33805Y-144779
X28883Y-147042
X-86463Y-144027
Y-164027
Y-184027
Y-124027
Y-104027
Y-84027
Y-64027
X-81975Y-38088
X-77238Y-39224
X-78727Y-35332
X-86463Y-21627
X-83663Y13526
X-78163Y28374
X-79400Y75000
X-83663Y71126
X-83111Y84552
X-82997Y92978
X-83141Y102157
X-83214Y111553
Y120587
X-32599Y120146
X-33189Y115028
X-34335Y108557
X-12211Y110170
X-15100Y117429
X-15238Y125358
X-25163Y125126
X15834Y125885
X17600Y121100
X19061Y116128
X22837Y115874
X14126Y115523
X3700Y110000
X3287Y105970
X33300Y108200
X40867Y108526
X43748Y108492
X42937Y104874
X40137Y104726
X45337Y96426
X47737Y94974
X60337Y95326
X59637Y100126
X62837Y100015
X63010Y89492
X59874Y89480
X59355Y79141
X62937Y78974
X66900Y75800
X66706Y67219
X64124Y62219
X60437Y62226
X51545Y54419
X46230Y47333
X36712Y45000
X29400Y48400
X37700Y56900
X38975Y69936
X41812Y69958
X37337Y73526
X34297Y73521
X35197Y77069
X38237Y77074
X37172Y85526
X34132Y85521
X34337Y89326
X37437
X40537Y119326
X39437Y123226
X29885Y126329
X46037Y116974
X59637Y113374
X60235Y109739
X63918Y109744
X63700Y114400
X69337Y116226
X68428Y121102
X68437Y124874
X78288Y124672
X78437Y120426
X59537Y122948
X75631Y73627
X78593Y69410
X79864Y62385
X62557Y45384
X58800Y42000
X63862Y-23136
X67462Y-22436
X68348Y-27554
X64700Y-27500
X50319Y-25607
X46677Y-25706
X43686Y-23002
X41527Y-26411
X37300Y-26500
X-6516Y-28716
X-17085Y-27456
X-17363Y-23827
X-21263Y-22127
X-33424Y-22141
X-35115Y-25706
X-31473Y-25607
X-40264Y-26411
X-62100Y-17800
X-65845Y-20613
X-70164Y-21749
X-74789Y-19172
X-71200Y16700
X-69763Y22826
X-61900Y21971
Y29600
X-61637Y33600
X-52463Y32074
X-52063Y38174
X-60763Y44774
X-65963Y48474
X-63163Y57926
X-65500Y60800
X-61600Y64700
X-53673Y64124
X-50400Y68300
X-50603Y84214
X-58573Y84407
X-44034Y88610
X-42563Y53526
X-54091Y52874
X-74664Y70561
X-13200Y66800
X-27038Y35246
X82300Y38300
X113700Y39767
X122922Y39867
X123021Y42722
X126465Y37997
X133200Y37600
X136900Y37100
X123515Y31497
X122500Y57000
X122900Y60000
X118975Y59222
X115000Y59000
X116900Y62300
X125800Y64900
X129429Y64604
X129100Y73000
X129576Y79565
X125949Y79622
X122246Y79459
X118447Y79434
X122256Y87564
X125926Y87648
X129655Y87655
X126391Y99806
X126194Y104924
X119200Y104000
X116200Y101500
X118537Y97574
X116155Y94687
X106659Y98076
X105450Y85049
X98657Y90705
X89313Y81993
X88525Y71462
X92154Y71849
X96793
X84629Y71075
X82637Y74174
X110285Y56644
X126664Y57900
X148500Y69600
X149200Y76000
X144796Y75991
X145820Y86635
X152860Y87015
X149513Y94003
X144698Y94294
X143222Y107127
X146863Y108762
X146364Y114378
X142313Y113878
X144107Y119294
X147707Y119422
X150997Y117621
X150800Y111518
X151384Y106110
X152762Y102075
X160636Y100401
X178747Y98728
X184115Y95194
X181109Y91936
X178944Y85440
X184505Y85444
X183970Y76774
X193123Y83762
X194403Y94392
X201542Y91529
X204245Y85436
X216745Y84943
X221328Y87293
X229344Y84648
X230077Y93691
X232647Y100679
X216711Y94620
X214285Y57286
X200505Y48132
X193789Y48711
X189819Y51262
X185783Y48210
X181993Y39950
X187210Y35847
X201620Y37708
X201785Y34058
X199422Y26774
X204977Y41616
X188893Y61862
X174023Y48824
X168911Y48625
X164481
X164227Y38109
X165171Y-8757
Y-12793
X161037Y-8757
X156108Y-2064
X137837Y-2655
Y-8757
X136535Y-14552
X131846Y-25511
X128204Y-25610
X125269Y-23423
X123054Y-26315
X145958Y-27419
X149559Y-27429
X148930Y-23226
X145281Y-23325
X154829Y-22341
X154614Y-27458
X158260Y-27510
X181962Y-13088
X193320Y-14663
X197651
X192139Y-6986
X192161Y-1769
X180035Y1777
X207324Y-23519
X205110Y-26411
X210260Y-25706
X213901Y-25607
X228380Y-27688
X232100Y-27655
X235840Y-27655
X235490Y-21872
X227100Y-22000
X234900Y-12900
X173045Y82187
X169575Y84878
X116098Y121106
X112600Y119700
X113150Y123390
X107824Y124074
X107811Y120156
X107837Y116474
X100974Y116506
X100977Y120108
X100974Y123789
X88544Y124683
X88537Y121074
X243868Y93297
X255580Y95069
X258112Y86521
X264184Y85243
X268457Y82838
X269032Y76297
X266253Y66439
X260641Y71561
X254202Y69319
X254005Y73653
X254013Y50612
X261527Y50694
X277810Y58664
X277398Y67621
X281828Y76297
X292067Y73650
X290117Y71622
X294017
Y81622
X290117
X292067Y83650
X293222Y89766
X301981Y92227
X282000Y89869
X278949Y87802
X271499Y92276
X237470Y83061
X270190Y32778
X275100Y36300
X289870Y38507
X293770
X291820Y40535
X289870Y31267
X293770
X291820Y29239
X300505Y49021
X304344Y48526
X306608Y52660
X301391
X313104Y62109
X317927Y57486
X328094Y57551
X334757Y47936
X369796Y48526
X391205Y49876
X392420Y41341
X391949Y76823
Y91823
Y96823
X389786Y105422
X381349Y116923
X382592Y119423
X373376Y119500
X367400Y125000
X350210Y125691
X345190Y123821
X339186Y120081
X329245Y109943
X324816Y109943
X317828Y111026
X316450Y105810
X318911Y100691
X313117Y114584
X358576Y107089
X364383Y107286
X368714Y99018
X355229Y92915
X326964Y17300
X313351Y16884
X308223Y16775
X309029Y-23423
X312572Y-22734
X313387Y-27851
X309757Y-27813
X318487Y-27851
X322087Y-27901
X333970Y-22242
X368692Y-26411
X373842Y-25706
X377484Y-25607
X375533Y-22141
X391084Y-23125
X391872Y-27456
X295428Y-25905
X291787Y-26003
X288851Y-23816
X286637Y-26708
X236797Y-6670
X394628Y-22436
X395513Y-27554
X413900Y-21400
X414777Y13290
X411824
X408871
X405722
X417828Y18802
X422749Y19195
X425800
X431017
X434068
X437119
Y13192
X442237
X445289
X448340
X430700Y13300
X417069Y32052
X411949Y61823
X404879
X398635Y63880
X393615Y63782
X396650Y59348
X396949Y76823
X402030
X406949
X411949
X416949Y76623
X421949
X426949Y76423
Y81823
Y86823
X432717Y93248
X435769Y105748
X448772Y107126
X452796Y107028
X455749
X458702
X461654
X464490Y106996
X461249Y102623
X456349Y102523
X469107Y100396
Y94122
X469649Y87723
X473229Y90324
X473129Y103324
X476929Y103224
X483018Y107816
X492715Y107028
X496640Y107028
X499592
X502545
X505498
X508451
X505448Y102624
X500148Y102724
X513648Y94323
Y87724
Y78624
X509449Y76823
X504449
X499449
X494449
X489449
X484449
X479449
X469649Y78623
X464449Y76823
X459449
X454449
X449449
X444449
X439449
X434449
X426949Y69323
Y61823
X436135Y63093
X441155Y63191
X449054Y61823
X454449
Y68749
X446949
X461949Y68423
Y61538
X470879Y66439
X469349Y70123
X480623Y63487
X484659Y63388
X489449Y61823
Y69323
X496949
X504449
Y61823
X509449Y59323
X508303Y53276
X515672Y57251
X520865Y55460
X526247Y55382
X532721Y55304
X541576Y54395
X547187
X544031Y45008
X542003Y38378
X534983Y47192
X527261Y45788
X517901Y48050
X516756Y38450
Y33282
X520004
X523350
X526598
X531005Y26366
X531317Y12248
X532721Y6554
X522035Y5930
X512363Y6086
X512675Y12560
X506931Y17977
X498837Y13619
X497062Y8533
X482500Y11100
X486135Y-1945
X495144Y-18800
X515804Y-17729
X531292Y-26411
X536442Y-25706
X540084Y-25607
X538133Y-22141
X521801Y19502
X512051Y26054
X508619Y36350
X505889Y42834
X512648Y63624
X513548Y69924
X496949Y61823
X491656Y117325
Y121164
Y124904
X471380Y125002
Y121164
Y117424
X472947Y110340
X524141Y111152
X528587Y111464
X538727Y111854
X539195Y124256
X534827
X525077Y124412
X518897
X513221
X544889Y124256
X545747Y99452
X538571Y93056
X532409
X527807Y97346
X522737Y100700
X423840Y102982
X418849Y103023
Y107523
X422849
X423241Y112699
X414849Y107523
X410849
X406399Y107759
X413949Y103023
X399449Y96823
Y91823
X417187Y69323
X431196Y124689
X435195Y124610
X449992Y-26411
X455142Y-25706
X458784Y-25607
X456833Y-22141
X472384Y-23125
X475928Y-22436
X476813Y-27554
X473172Y-27456
X554472
X558113Y-27554
X557228Y-22436
X553600Y-23100
X565145Y-22976
X562768Y-12600
X565013Y12248
X565481Y19112
X565559Y26210
X566066Y38351
X574647
X573004Y33282
X576350
X579598
X583811Y38690
X589583Y43214
X585671Y52623
X574746
X564706Y52820
X552895Y54395
X549179Y45086
X550739Y38456
X556439Y38351
X560333Y67082
X564857Y67004
X572891Y67082
X578741Y67004
X584357Y71606
Y76926
Y82136
X589271Y75974
X591065Y64898
X599099
X599177Y52808
X605642Y52756
X608771Y43292
X618053Y38144
X618434Y52756
X614153Y64976
X619223Y68720
X619691Y76988
X619535Y87362
X614075Y89312
X606431Y89936
X608069Y98725
X613763
X613919Y108397
X608459
X610331Y114949
X607835Y121657
X612905
X599021
X598943Y117757
X589661Y114949
X588023Y108397
X587633Y98725
X598865
X599567Y86036
X590441Y90092
X577137Y87284
X572437
X565437
X560099
X553157Y81980
X553235Y77066
Y71840
X552221Y95396
X553469Y102494
X552143Y111932
X564467Y112478
X562253Y120660
X557603Y120824
X568650Y120758
X575639
X580769Y120902
X587165Y121657
X579131Y112400
X575699Y96176
X564233Y95786
X608693Y75974
X610097Y29720
X611657Y22622
X609083Y10688
X611345Y-1948
X612905Y-8422
X607835
X599021
X598943Y-12322
X589661Y-15130
X588023Y-21682
X587165Y-8422
X589115Y-2338
X599333Y548
X599099Y20516
X592235Y23792
X596213Y29252
X598943Y33776
X584224Y26097
Y19109
X584323Y12711
X588725Y10532
X578039Y5540
X575056Y5526
X571955
X610331Y-15130
X608459Y-21682
X613919
X647537Y-14027
Y5973
Y25973
Y45973
Y65973
Y85973
Y105973
Y125973
Y145973
Y165973
Y185973
Y205973
Y225973
X623537Y255973
X603537
X583537
X563537
X572047Y226469
X575098
X575778Y221970
X580978
X580807Y226469
X586515
X586578Y223570
Y220670
X592475Y220458
Y223458
Y226358
X591949Y203767
X597227Y203894
X591949Y196267
X585600Y196100
X576949Y188607
X576949Y181267
Y173767
X567782
Y181267
Y188767
X558615Y188900
Y181400
Y173767
Y166267
X567782
X574449
X576949Y158767
X564400Y158800
X556949Y158767
X549449
Y166267
Y173767
Y181400
Y188900
Y196334
Y203767
X550192Y224034
X552221Y148904
X558383Y139388
X562205
X575777Y139622
X579287Y139544
X582824Y131979
Y128632
X588569Y127532
X599099Y127220
Y131744
X610799Y127298
X614933Y129092
X614543Y135410
Y145316
Y151010
X610955Y154052
X602219Y153974
X599099Y150464
X594029Y153974
X591611Y160838
X599489Y164270
X611657Y162476
X612515Y175502
X608303Y173552
X599177Y182834
X590987Y184706
X589661Y173240
X588413Y149294
X589349Y140792
X609083
X573900Y148634
X555180Y131983
Y128735
X611891Y188920
X612883Y200554
X539901Y219916
X539952Y225905
X543537Y255973
X523537
X503537
X483537
X463537
X443537
X423537
X403537
X400558Y184620
X409136Y185120
X420835Y183299
X420135Y176043
X415017Y169097
X409899Y165849
X402025Y157188
X398377Y157392
X395801Y162352
X400793Y149950
X422792Y157483
X429100Y135700
X432595Y136010
X437893Y143414
X452655Y139193
X455805Y139390
X458856Y139488
X459939Y127185
X456691Y127284
X453443Y127185
X471380Y130514
Y134254
Y138093
X491656Y137995
Y134254
Y130416
X503861Y138439
X511833Y139620
X513299Y134162
X518897
X525155
X534437Y134396
X539039
X543875
X543600Y140500
X514294Y153695
X513703Y185684
X513900Y216884
X471085Y200593
X468166
X463564Y200606
X456715Y200593
X453565
X449865Y200393
X447808Y184933
X452008
X444165Y180624
X455928Y167609
X455830Y164558
X459373
Y167806
X471085Y197345
X383135Y183299
X382435Y176043
X377317Y169097
X372199Y165849
X364325Y157188
X360677Y157392
X358127Y162306
X359843Y149950
X351588Y143900
X351336Y139608
X354906Y135775
X353134Y131641
X345556Y131496
X341354Y131505
X341225Y135827
X345556
X343517Y145081
X338792Y144392
X331734Y137611
X331677Y132428
X331411Y128054
X322918Y126969
X323027Y149638
X322977Y157392
X326625Y157188
X320714Y162306
X309693Y157483
X307523Y152963
X291946Y150333
X288925Y157188
X285277Y157392
X283214Y162307
X275193Y157483
X273023Y152963
X271778Y145700
X279424Y149100
X251200Y151500
X250778Y157392
X254426Y157188
X262300Y165849
X267418Y169097
X272536Y176043
X273236Y183299
X261537Y185120
X252959Y184620
X287458
X296036Y185120
X307736Y183299
X307036Y176043
X301918Y169097
X296799Y165849
X334499
X339617Y169097
X344735Y176043
X345435Y183299
X333736Y185120
X325158Y184620
X362858
X371436Y185120
X385093Y157483
X382922Y152963
X380900Y137500
X377853Y136124
X377653Y139124
X368353Y139224
X368252Y136076
X367163Y129795
X370753Y129924
X378152Y129776
X345222Y152963
X347393Y157483
X343537Y255973
X323537
X303537
X283537
X263537
X253537
X363537
X383537
X233537
X223537
X203537
X183537
X163537
X143537
X123537
X103537
X83537
X82437Y173463
X87463Y173488
X92399Y173488
X97415Y173458
X96800Y177100
X102441Y173538
X108000Y157300
X112151
X112037Y147826
X115810Y147831
X107200Y148000
X108337Y143826
X102385Y141374
X91310Y150173
X92237Y158811
X88837Y128274
X113153Y126893
X133037Y135674
X136237Y133674
X147552Y128644
X153267Y134933
X137400Y150100
X134828Y153400
X235108Y133553
X78922Y139537
X71835Y145541
X71301Y154690
X68446
X64337Y154126
X70218Y159316
X69835Y164573
X76637Y159126
X52200Y158600
X56242Y163942
X46033Y164742
X46104Y173292
X44332Y175950
X38100Y180800
X25782Y179435
X25573Y166212
X29268Y166513
X29211Y157048
X25573Y157156
X22500Y154300
X36410Y154012
X42537Y154026
X44937Y152326
Y149426
X42637Y147626
X36511Y147612
X34111Y149312
X32700Y145300
X29618Y142348
X33700Y159200
X51800Y149300
X55465Y149281
X51814Y142253
X57667Y137077
X39437Y127026
X17917Y171722
X11664Y176106
X6799Y182938
X-4272
X-1334Y174216
X-16806Y172077
X-16764Y167904
X-25129Y174572
X-30615Y163972
X-30915Y160172
X-37900Y158800
X-38300Y150600
X-29616Y151425
X-45900Y152600
X-48265Y145074
X-51863Y141707
X-52063Y138007
X-51563Y134307
X-44263Y138007
X-37459Y127057
X-27723Y129099
X-59991Y145794
X-68305Y145730
X-74563Y142726
X-52300Y193800
X-38900Y186200
X-36301Y181299
X-44600Y243500
X-26000
X-22400Y238700
X-14900Y243700
X-16463Y255973
X3537
X3800Y243200
X7700Y238700
X23537Y255973
X43537
X63537
X-36463
X-56463
X-86463Y225973
X-88963Y191626
X-84385Y172908
X-82687Y151152
X-88663Y143926
X-83193Y137931
X-83129Y129359
T03
X-23163Y48026
X-13163
X-3163
X6837
X16837
Y58026
X6837
X-3163
X-13163
X-23163
Y85520
X-13163
X-3163
X6837
X16837
Y95520
X6837
X-3163
X-13163
X-23163
X221013Y33612
X231013
Y23612
X221013
X241013
X251013
X261013
Y33612
X251013
X241013
X401124Y29237
Y39237
Y49237
X411124
Y39237
Y29237
Y19237
X401124
X407900Y-1800
X417900
X427900
X437900
X447900
Y-11800
X437900
X427900
X417900
X407900
X505450Y-10249
X515213
X525213
T04
X-82200Y-14000
Y-4000
Y6000
X-72200
Y-4000
Y-14000
X-57763Y102726
X-49863
Y112647
X-57763
T05
X167837Y64026
X177837
X199537
X209537
X231037
X223287Y108626
X213287
X203287
X182237
X172237
X162237
X244337
X254337
X264337
X285573
X295572
X305573
X342561Y82446
Y72446
Y62446
Y40871
Y30871
Y20871
X366380
Y30871
Y40871
Y62348
Y72347
Y82348
X241037Y64026
X244337Y132626
X254337
X264337
X285573
X295572
X305573
X223287
X213287
X203287
X182237
X172237
X162237
X151333Y201400
X141333
X131333
X121333
X111333
X101333
Y225700
X111333
X121333
X131333
X141333
X151333
X173400
X183400
X193400
X203400
X213400
X223400
Y201400
X213400
X203400
X193400
X183400
X173400
X79267
X69267
X59267
X49267
X39267
X29267
X7200
X-2800
X-12800
X-22800
X-32800
X-42800
Y225700
X-32800
X-22800
X-12800
X-2800
X7200
X29267
X39267
X49267
X59267
X69267
X79267
X-84863Y200126
Y182326
T06
X-35230Y-250744
Y-238933
X-23419
Y-250744
X45023
X56834
Y-238933
X45023
X126550
Y-250744
X138361
Y-238933
X208606
X220416
Y-250744
X208606
X290133
Y-238933
X301944
Y-250744
X372188
X383999
Y-238933
X372188
X453488
Y-250744
X465299
Y-238933
X534788
X546599
Y-250744
X534788
X493446Y31855
Y43666
X462738
Y31855
X432029
Y43666
T07
X405097Y206885
X418876
Y226570
X405097
X381177
X367397
Y206885
X381177
X343477
X329697
Y226570
X343477
X305777
X291998
Y206885
X305777
X268077
X254298
Y226570
X268077
T08
X-75063Y177426
Y205026
T09
X522056Y12696
Y26096
X575056
Y12696
X575637Y76926
X562237
Y129926
X575637
T10
X599037Y-119274
Y-86774
Y-54274
Y-21774
Y10726
Y43226
Y75805
Y108305
Y140805
Y173305
T11
X-68463Y84026
Y131348
T12
X-73778Y-268341
X256931
X634883
X118110Y0
X634883Y243470
X-73778
T13
X5906Y-27756
Y27756
T14
X-47041Y-254445
X-11608
X33212
X68645
X114739
X150172
X196794
X232228
X278322
X313755
X360377
X395810
X441677
X477110
X522977
X558410
X505258Y28155
X481636
X474549
X450927
X443840
X420218
M30
