G04*
G04 #@! TF.GenerationSoftware,Altium Limited,Altium Designer,19.1.8 (144)*
G04*
G04 Layer_Color=32896*
%FSLAX25Y25*%
%MOIN*%
G70*
G01*
G75*
%ADD17C,0.00400*%
%ADD18C,0.00500*%
%ADD24C,0.00600*%
G54D17*
X-259944Y223514D02*
X-258611D01*
Y221514D01*
X-259944D01*
X-258611Y222514D02*
X-259278D01*
X-260611Y221514D02*
Y223514D01*
X-261610D01*
X-261943Y223180D01*
Y222514D01*
X-261610Y222181D01*
X-260611D01*
X-261277D02*
X-261943Y221514D01*
X-262610D02*
Y222847D01*
X-263276Y223514D01*
X-263943Y222847D01*
Y221514D01*
Y222514D01*
X-262610D01*
X-265942Y223180D02*
X-265609Y223514D01*
X-264942D01*
X-264609Y223180D01*
Y222847D01*
X-264942Y222514D01*
X-265609D01*
X-265942Y222181D01*
Y221847D01*
X-265609Y221514D01*
X-264942D01*
X-264609Y221847D01*
X-267941Y223514D02*
X-266609D01*
Y221514D01*
X-267941D01*
X-266609Y222514D02*
X-267275D01*
X-475409Y216516D02*
Y215183D01*
X-476076Y214517D01*
X-476742Y215183D01*
Y216516D01*
X-477409D02*
Y214517D01*
X-478408D01*
X-478742Y214850D01*
Y216183D01*
X-478408Y216516D01*
X-477409D01*
X-479408D02*
Y214517D01*
X-480408D01*
X-480741Y214850D01*
Y216183D01*
X-480408Y216516D01*
X-479408D01*
X-483407Y214517D02*
Y215850D01*
X-484073Y216516D01*
X-484740Y215850D01*
Y214517D01*
Y215516D01*
X-483407D01*
X-485406Y214517D02*
Y216516D01*
X-486739Y214517D01*
Y216516D01*
X-487405Y214517D02*
Y215850D01*
X-488072Y216516D01*
X-488738Y215850D01*
Y214517D01*
Y215516D01*
X-487405D01*
X-130793Y344900D02*
X-130460Y345233D01*
Y345900D01*
X-130793Y346233D01*
X-131126D01*
X-131459Y345900D01*
Y345567D01*
Y345900D01*
X-131793Y346233D01*
X-132126D01*
X-132459Y345900D01*
Y345233D01*
X-132126Y344900D01*
X-132459Y346900D02*
X-132126D01*
Y347233D01*
X-132459D01*
Y346900D01*
X-130793Y348566D02*
X-130460Y348899D01*
Y349565D01*
X-130793Y349899D01*
X-131126D01*
X-131459Y349565D01*
Y349232D01*
Y349565D01*
X-131793Y349899D01*
X-132126D01*
X-132459Y349565D01*
Y348899D01*
X-132126Y348566D01*
X-130460Y350565D02*
X-131793D01*
X-132459Y351232D01*
X-131793Y351898D01*
X-130460D01*
X-130793Y353897D02*
X-130460Y353564D01*
Y352898D01*
X-130793Y352564D01*
X-132126D01*
X-132459Y352898D01*
Y353564D01*
X-132126Y353897D01*
X-130793Y355897D02*
X-130460Y355563D01*
Y354897D01*
X-130793Y354564D01*
X-132126D01*
X-132459Y354897D01*
Y355563D01*
X-132126Y355897D01*
X-75691Y329626D02*
X-74358D01*
Y328626D01*
X-75024Y328959D01*
X-75358D01*
X-75691Y328626D01*
Y327959D01*
X-75358Y327626D01*
X-74691D01*
X-74358Y327959D01*
X-76357Y329626D02*
Y328293D01*
X-77024Y327626D01*
X-77690Y328293D01*
Y329626D01*
X-78357Y329292D02*
X-78690Y329626D01*
X-79356D01*
X-79690Y329292D01*
Y327959D01*
X-79356Y327626D01*
X-78690D01*
X-78357Y327959D01*
Y329292D01*
X-80356Y327293D02*
X-81689D01*
X-82355Y327626D02*
Y328959D01*
X-83022Y329626D01*
X-83688Y328959D01*
Y327626D01*
Y328626D01*
X-82355D01*
X-84355Y329626D02*
Y327959D01*
X-84688Y327626D01*
X-85355D01*
X-85688Y327959D01*
Y329626D01*
X-86354D02*
X-87687Y327626D01*
Y329626D02*
X-86354Y327626D01*
X-275902Y220847D02*
X-277234D01*
X-276568D01*
Y218847D01*
X-279234Y220514D02*
X-278901Y220847D01*
X-278234D01*
X-277901Y220514D01*
Y219181D01*
X-278234Y218847D01*
X-278901D01*
X-279234Y219181D01*
X-279900Y220514D02*
X-280233Y220847D01*
X-280900D01*
X-281233Y220514D01*
Y220180D01*
X-280900Y219847D01*
X-280567D01*
X-280900D01*
X-281233Y219514D01*
Y219181D01*
X-280900Y218847D01*
X-280233D01*
X-279900Y219181D01*
X-340813Y222880D02*
X-342146D01*
X-341480D01*
Y220880D01*
X-344145Y222546D02*
X-343812Y222880D01*
X-343146D01*
X-342812Y222546D01*
Y221213D01*
X-343146Y220880D01*
X-343812D01*
X-344145Y221213D01*
X-344812Y220880D02*
X-345478D01*
X-345145D01*
Y222880D01*
X-344812Y222546D01*
X-305527Y222225D02*
X-306860D01*
X-306194D01*
Y220226D01*
X-308860Y221892D02*
X-308526Y222225D01*
X-307860D01*
X-307527Y221892D01*
Y220559D01*
X-307860Y220226D01*
X-308526D01*
X-308860Y220559D01*
X-310859Y220226D02*
X-309526D01*
X-310859Y221558D01*
Y221892D01*
X-310526Y222225D01*
X-309859D01*
X-309526Y221892D01*
X-353371Y210088D02*
X-354704D01*
X-354038D01*
Y208088D01*
X-355370Y210088D02*
Y208088D01*
Y209088D01*
X-356703D01*
Y210088D01*
Y208088D01*
X-358703Y210088D02*
X-357370D01*
Y208088D01*
X-358703D01*
X-357370Y209088D02*
X-358036D01*
X-359369Y208088D02*
Y210088D01*
X-360369D01*
X-360702Y209754D01*
Y209088D01*
X-360369Y208755D01*
X-359369D01*
X-360036D02*
X-360702Y208088D01*
X-361369D02*
Y210088D01*
X-362035Y209421D01*
X-362702Y210088D01*
Y208088D01*
X-363368D02*
X-364034D01*
X-363701D01*
Y210088D01*
X-363368Y209754D01*
X-382299Y210315D02*
X-383632D01*
X-382966D01*
Y208316D01*
X-385631Y209982D02*
X-385298Y210315D01*
X-384632D01*
X-384298Y209982D01*
Y208649D01*
X-384632Y208316D01*
X-385298D01*
X-385631Y208649D01*
X-387631Y208316D02*
X-386298D01*
X-387631Y209649D01*
Y209982D01*
X-387298Y210315D01*
X-386631D01*
X-386298Y209982D01*
X-325915Y210556D02*
X-327248D01*
X-326582D01*
Y208556D01*
X-327915Y210556D02*
Y208556D01*
Y209556D01*
X-329247D01*
Y210556D01*
Y208556D01*
X-331247Y210556D02*
X-329914D01*
Y208556D01*
X-331247D01*
X-329914Y209556D02*
X-330580D01*
X-331913Y208556D02*
Y210556D01*
X-332913D01*
X-333246Y210222D01*
Y209556D01*
X-332913Y209223D01*
X-331913D01*
X-332580D02*
X-333246Y208556D01*
X-333913D02*
Y210556D01*
X-334579Y209889D01*
X-335245Y210556D01*
Y208556D01*
X-335912Y210222D02*
X-336245Y210556D01*
X-336912D01*
X-337245Y210222D01*
Y209889D01*
X-336912Y209556D01*
X-336578D01*
X-336912D01*
X-337245Y209223D01*
Y208889D01*
X-336912Y208556D01*
X-336245D01*
X-335912Y208889D01*
X-553390Y257540D02*
Y256207D01*
X-554056Y255540D01*
X-554723Y256207D01*
Y257540D01*
X-555389D02*
Y255874D01*
X-555722Y255540D01*
X-556389D01*
X-556722Y255874D01*
Y257540D01*
X-558721Y257207D02*
X-558388Y257540D01*
X-557722D01*
X-557388Y257207D01*
Y256873D01*
X-557722Y256540D01*
X-558388D01*
X-558721Y256207D01*
Y255874D01*
X-558388Y255540D01*
X-557722D01*
X-557388Y255874D01*
X-559388Y257540D02*
Y255540D01*
X-560387D01*
X-560721Y255874D01*
Y256207D01*
X-560387Y256540D01*
X-559388D01*
X-560387D01*
X-560721Y256873D01*
Y257207D01*
X-560387Y257540D01*
X-559388D01*
X-556610Y229182D02*
Y231182D01*
X-557277Y230515D01*
X-557943Y231182D01*
Y229182D01*
X-559942Y230848D02*
X-559609Y231182D01*
X-558943D01*
X-558609Y230848D01*
Y229515D01*
X-558943Y229182D01*
X-559609D01*
X-559942Y229515D01*
X-561942Y230848D02*
X-561609Y231182D01*
X-560942D01*
X-560609Y230848D01*
Y229515D01*
X-560942Y229182D01*
X-561609D01*
X-561942Y229515D01*
X-562608Y231182D02*
Y229182D01*
Y229849D01*
X-563941Y231182D01*
X-562941Y230182D01*
X-563941Y229182D01*
X-554740Y218454D02*
Y220453D01*
X-555407Y219787D01*
X-556073Y220453D01*
Y218454D01*
X-558072Y220120D02*
X-557739Y220453D01*
X-557073D01*
X-556739Y220120D01*
Y218787D01*
X-557073Y218454D01*
X-557739D01*
X-558072Y218787D01*
X-560072Y220120D02*
X-559738Y220453D01*
X-559072D01*
X-558739Y220120D01*
Y218787D01*
X-559072Y218454D01*
X-559738D01*
X-560072Y218787D01*
X-560738Y220453D02*
Y218454D01*
X-561738D01*
X-562071Y218787D01*
Y220120D01*
X-561738Y220453D01*
X-560738D01*
X-562738Y218454D02*
Y219787D01*
X-563404Y220453D01*
X-564070Y219787D01*
Y218454D01*
Y219454D01*
X-562738D01*
X-582791Y226328D02*
Y228327D01*
X-583458Y227661D01*
X-584124Y228327D01*
Y226328D01*
X-586124Y227994D02*
X-585790Y228327D01*
X-585124D01*
X-584791Y227994D01*
Y226661D01*
X-585124Y226328D01*
X-585790D01*
X-586124Y226661D01*
X-586790Y228327D02*
Y226328D01*
X-587790D01*
X-588123Y226661D01*
Y227994D01*
X-587790Y228327D01*
X-586790D01*
X-588789Y226328D02*
Y227661D01*
X-589456Y228327D01*
X-590122Y227661D01*
Y226328D01*
Y227327D01*
X-588789D01*
X-590789Y226328D02*
X-591455D01*
X-591122D01*
Y228327D01*
X-590789Y227994D01*
X-581315Y215993D02*
Y217993D01*
X-581981Y217326D01*
X-582648Y217993D01*
Y215993D01*
X-584647Y217659D02*
X-584314Y217993D01*
X-583647D01*
X-583314Y217659D01*
Y216326D01*
X-583647Y215993D01*
X-584314D01*
X-584647Y216326D01*
X-585314Y217993D02*
Y215993D01*
X-586313D01*
X-586647Y216326D01*
Y217659D01*
X-586313Y217993D01*
X-585314D01*
X-587313Y215993D02*
Y217326D01*
X-587979Y217993D01*
X-588646Y217326D01*
Y215993D01*
Y216993D01*
X-587313D01*
X-589312Y217659D02*
X-589645Y217993D01*
X-590312D01*
X-590645Y217659D01*
Y216326D01*
X-590312Y215993D01*
X-589645D01*
X-589312Y216326D01*
Y217659D01*
X-571965Y209005D02*
Y211004D01*
X-572631Y210338D01*
X-573297Y211004D01*
Y209005D01*
X-575297Y210671D02*
X-574964Y211004D01*
X-574297D01*
X-573964Y210671D01*
Y209338D01*
X-574297Y209005D01*
X-574964D01*
X-575297Y209338D01*
X-575963Y211004D02*
Y209005D01*
X-576963D01*
X-577296Y209338D01*
Y210671D01*
X-576963Y211004D01*
X-575963D01*
X-577963Y209005D02*
Y210338D01*
X-578629Y211004D01*
X-579295Y210338D01*
Y209005D01*
Y210005D01*
X-577963D01*
X-579962Y210671D02*
X-580295Y211004D01*
X-580962D01*
X-581295Y210671D01*
Y210338D01*
X-580962Y210005D01*
X-580628D01*
X-580962D01*
X-581295Y209671D01*
Y209338D01*
X-580962Y209005D01*
X-580295D01*
X-579962Y209338D01*
X-554346Y197489D02*
Y199489D01*
X-555013Y198822D01*
X-555679Y199489D01*
Y197489D01*
X-557679Y199155D02*
X-557345Y199489D01*
X-556679D01*
X-556346Y199155D01*
Y197822D01*
X-556679Y197489D01*
X-557345D01*
X-557679Y197822D01*
X-558345Y199489D02*
Y197489D01*
X-559345D01*
X-559678Y197822D01*
Y199155D01*
X-559345Y199489D01*
X-558345D01*
X-560344Y197489D02*
Y198822D01*
X-561011Y199489D01*
X-561677Y198822D01*
Y197489D01*
Y198489D01*
X-560344D01*
X-563677Y197489D02*
X-562344D01*
X-563677Y198822D01*
Y199155D01*
X-563343Y199489D01*
X-562677D01*
X-562344Y199155D01*
X-499067Y301202D02*
X-499400Y301535D01*
X-500067D01*
X-500400Y301202D01*
Y300869D01*
X-500067Y300535D01*
X-499733D01*
X-500067D01*
X-500400Y300202D01*
Y299869D01*
X-500067Y299536D01*
X-499400D01*
X-499067Y299869D01*
X-501066Y299536D02*
Y299869D01*
X-501399D01*
Y299536D01*
X-501066D01*
X-502732Y301202D02*
X-503066Y301535D01*
X-503732D01*
X-504065Y301202D01*
Y300869D01*
X-503732Y300535D01*
X-503399D01*
X-503732D01*
X-504065Y300202D01*
Y299869D01*
X-503732Y299536D01*
X-503066D01*
X-502732Y299869D01*
X-504732Y301535D02*
Y300202D01*
X-505398Y299536D01*
X-506065Y300202D01*
Y301535D01*
X-478882Y305336D02*
X-479215Y305670D01*
X-479881D01*
X-480215Y305336D01*
Y305003D01*
X-479881Y304670D01*
X-479548D01*
X-479881D01*
X-480215Y304337D01*
Y304004D01*
X-479881Y303670D01*
X-479215D01*
X-478882Y304004D01*
X-480881Y303670D02*
Y304004D01*
X-481214D01*
Y303670D01*
X-480881D01*
X-482547Y305336D02*
X-482880Y305670D01*
X-483547D01*
X-483880Y305336D01*
Y305003D01*
X-483547Y304670D01*
X-483214D01*
X-483547D01*
X-483880Y304337D01*
Y304004D01*
X-483547Y303670D01*
X-482880D01*
X-482547Y304004D01*
X-484547Y305670D02*
Y304337D01*
X-485213Y303670D01*
X-485880Y304337D01*
Y305670D01*
X-486546D02*
X-487212D01*
X-486879D01*
Y303670D01*
X-486546D01*
X-487212D01*
X-489212Y305670D02*
X-488545D01*
X-488212Y305336D01*
Y304004D01*
X-488545Y303670D01*
X-489212D01*
X-489545Y304004D01*
Y305336D01*
X-489212Y305670D01*
X-464284Y306820D02*
X-465617D01*
X-466283Y307486D01*
X-465617Y308153D01*
X-464284D01*
Y308819D02*
X-466283D01*
Y309819D01*
X-465950Y310152D01*
X-464617D01*
X-464284Y309819D01*
Y308819D01*
Y310819D02*
X-466283D01*
Y311818D01*
X-465950Y312152D01*
X-464617D01*
X-464284Y311818D01*
Y310819D01*
X-466283Y312818D02*
X-464284D01*
Y313818D01*
X-464617Y314151D01*
X-465284D01*
X-465617Y313818D01*
Y312818D01*
X-464284Y314817D02*
X-466283D01*
Y316150D01*
X-464284Y316817D02*
X-466283D01*
Y318150D01*
X-442603Y311644D02*
Y310311D01*
X-443270Y309644D01*
X-443936Y310311D01*
Y311644D01*
X-444602D02*
Y309644D01*
X-445602D01*
X-445935Y309977D01*
Y311310D01*
X-445602Y311644D01*
X-444602D01*
X-446602D02*
Y309644D01*
X-447602D01*
X-447935Y309977D01*
Y311310D01*
X-447602Y311644D01*
X-446602D01*
X-449601D02*
X-448934D01*
X-448601Y311310D01*
Y309977D01*
X-448934Y309644D01*
X-449601D01*
X-449934Y309977D01*
Y311310D01*
X-449601Y311644D01*
X-450601D02*
Y309977D01*
X-450934Y309644D01*
X-451600D01*
X-451933Y309977D01*
Y311644D01*
X-452600D02*
X-453933D01*
X-453266D01*
Y309644D01*
X-292472Y281653D02*
X-293805D01*
Y281320D01*
X-292472Y279987D01*
Y279654D01*
X-293805D01*
X-294472D02*
Y280987D01*
X-294805D01*
X-295138Y280654D01*
Y279654D01*
Y280654D01*
X-295471Y280987D01*
X-295805Y280654D01*
Y279654D01*
X-296804Y280987D02*
X-297471D01*
X-297804Y280654D01*
Y279654D01*
X-296804D01*
X-296471Y279987D01*
X-296804Y280320D01*
X-297804D01*
X-298470Y280987D02*
X-299803Y279654D01*
X-299137Y280320D01*
X-299803Y280987D01*
X-298470Y279654D01*
X-333283Y265237D02*
Y264903D01*
X-333950Y264237D01*
X-334616Y264903D01*
Y265237D01*
X-333950Y264237D02*
Y263237D01*
X-335283D02*
Y264570D01*
X-335616D01*
X-335949Y264237D01*
Y263237D01*
Y264237D01*
X-336282Y264570D01*
X-336616Y264237D01*
Y263237D01*
X-337615Y264570D02*
X-338282D01*
X-338615Y264237D01*
Y263237D01*
X-337615D01*
X-337282Y263570D01*
X-337615Y263904D01*
X-338615D01*
X-339281Y264570D02*
X-340614Y263237D01*
X-339948Y263904D01*
X-340614Y264570D01*
X-339281Y263237D01*
X-301197Y315138D02*
Y314805D01*
X-301863Y314139D01*
X-302530Y314805D01*
Y315138D01*
X-301863Y314139D02*
Y313139D01*
X-303196D02*
Y314472D01*
X-303529D01*
X-303863Y314139D01*
Y313139D01*
Y314139D01*
X-304196Y314472D01*
X-304529Y314139D01*
Y313139D01*
X-305195D02*
X-305862D01*
X-305529D01*
Y314472D01*
X-305195D01*
X-306862Y313139D02*
Y314472D01*
X-307861D01*
X-308194Y314139D01*
Y313139D01*
X-354992Y259685D02*
X-356325Y257686D01*
Y259685D02*
X-354992Y257686D01*
X-356992D02*
Y259019D01*
X-357325D01*
X-357658Y258685D01*
Y257686D01*
Y258685D01*
X-357992Y259019D01*
X-358325Y258685D01*
Y257686D01*
X-359324Y259019D02*
X-359991D01*
X-360324Y258685D01*
Y257686D01*
X-359324D01*
X-358991Y258019D01*
X-359324Y258352D01*
X-360324D01*
X-360991Y259019D02*
X-362323Y257686D01*
X-361657Y258352D01*
X-362323Y259019D01*
X-360991Y257686D01*
X-333775Y286693D02*
X-335108Y284694D01*
Y286693D02*
X-333775Y284694D01*
X-335775D02*
Y286027D01*
X-336108D01*
X-336441Y285694D01*
Y284694D01*
Y285694D01*
X-336774Y286027D01*
X-337108Y285694D01*
Y284694D01*
X-337774D02*
X-338441D01*
X-338107D01*
Y286027D01*
X-337774D01*
X-339440Y284694D02*
Y286027D01*
X-340440D01*
X-340773Y285694D01*
Y284694D01*
X-426876Y347240D02*
Y348573D01*
Y347907D01*
X-428875D01*
Y349240D02*
X-426876D01*
X-427542Y349906D01*
X-426876Y350572D01*
X-428875D01*
X-427209Y352572D02*
X-426876Y352239D01*
Y351572D01*
X-427209Y351239D01*
X-427542D01*
X-427876Y351572D01*
Y352239D01*
X-428209Y352572D01*
X-428542D01*
X-428875Y352239D01*
Y351572D01*
X-428542Y351239D01*
X-428875Y353238D02*
X-427542Y354571D01*
X-427209Y356571D02*
X-426876Y356237D01*
Y355571D01*
X-427209Y355238D01*
X-427542D01*
X-427876Y355571D01*
Y356237D01*
X-428209Y356571D01*
X-428542D01*
X-428875Y356237D01*
Y355571D01*
X-428542Y355238D01*
X-426876Y357237D02*
X-428875D01*
X-428209Y357903D01*
X-428875Y358570D01*
X-426876D01*
Y359236D02*
X-428875D01*
Y360236D01*
X-428542Y360569D01*
X-427209D01*
X-426876Y360236D01*
Y359236D01*
Y361236D02*
Y361902D01*
Y361569D01*
X-428875D01*
Y361236D01*
Y361902D01*
X-426876Y363901D02*
Y363235D01*
X-427209Y362902D01*
X-428542D01*
X-428875Y363235D01*
Y363901D01*
X-428542Y364235D01*
X-427209D01*
X-426876Y363901D01*
X109994Y-68919D02*
X111327D01*
Y-69918D01*
X110660D01*
X111327D01*
Y-70918D01*
X109327Y-68919D02*
Y-70918D01*
X108328D01*
X107995Y-70585D01*
Y-69252D01*
X108328Y-68919D01*
X109327D01*
X107328D02*
X105995D01*
Y-69252D01*
X107328Y-70585D01*
Y-70918D01*
X85394Y408581D02*
X86727D01*
Y407582D01*
X86060D01*
X86727D01*
Y406582D01*
X84728Y408581D02*
Y406582D01*
X83728D01*
X83395Y406915D01*
Y408248D01*
X83728Y408581D01*
X84728D01*
X81395D02*
X82062Y408248D01*
X82728Y407582D01*
Y406915D01*
X82395Y406582D01*
X81729D01*
X81395Y406915D01*
Y407249D01*
X81729Y407582D01*
X82728D01*
X-611406Y397081D02*
X-610073D01*
Y396082D01*
X-610740D01*
X-610073D01*
Y395082D01*
X-612073Y397081D02*
Y395082D01*
X-613072D01*
X-613405Y395415D01*
Y396748D01*
X-613072Y397081D01*
X-612073D01*
X-615405D02*
X-614072D01*
Y396082D01*
X-614738Y396415D01*
X-615071D01*
X-615405Y396082D01*
Y395415D01*
X-615071Y395082D01*
X-614405D01*
X-614072Y395415D01*
X-128425Y381922D02*
X-129758D01*
X-129092D01*
Y379922D01*
X-130424D02*
Y381922D01*
X-131424D01*
X-131757Y381588D01*
Y380922D01*
X-131424Y380589D01*
X-130424D01*
X-133757Y379922D02*
X-132424D01*
X-133757Y381255D01*
Y381588D01*
X-133423Y381922D01*
X-132757D01*
X-132424Y381588D01*
X-135423Y379922D02*
Y381922D01*
X-134423Y380922D01*
X-135756D01*
X-137756Y381922D02*
X-136423D01*
Y379922D01*
X-137756D01*
X-136423Y380922D02*
X-137089D01*
X-166099Y386602D02*
X-167432D01*
X-166766D01*
Y384602D01*
X-168098D02*
Y386602D01*
X-169098D01*
X-169431Y386268D01*
Y385602D01*
X-169098Y385269D01*
X-168098D01*
X-171431Y384602D02*
X-170098D01*
X-171431Y385935D01*
Y386268D01*
X-171098Y386602D01*
X-170431D01*
X-170098Y386268D01*
X-173097Y384602D02*
Y386602D01*
X-172097Y385602D01*
X-173430D01*
X-174097Y386602D02*
Y384602D01*
X-175096D01*
X-175429Y384935D01*
Y386268D01*
X-175096Y386602D01*
X-174097D01*
X-203539Y382468D02*
X-204872D01*
X-204206D01*
Y380468D01*
X-205539D02*
Y382468D01*
X-206538D01*
X-206871Y382134D01*
Y381468D01*
X-206538Y381135D01*
X-205539D01*
X-208871Y380468D02*
X-207538D01*
X-208871Y381801D01*
Y382134D01*
X-208538Y382468D01*
X-207871D01*
X-207538Y382134D01*
X-210537Y380468D02*
Y382468D01*
X-209537Y381468D01*
X-210870D01*
X-212870Y382134D02*
X-212536Y382468D01*
X-211870D01*
X-211537Y382134D01*
Y380801D01*
X-211870Y380468D01*
X-212536D01*
X-212870Y380801D01*
X-240901Y386134D02*
X-242234D01*
X-241568D01*
Y384134D01*
X-242900D02*
Y386134D01*
X-243900D01*
X-244233Y385800D01*
Y385134D01*
X-243900Y384801D01*
X-242900D01*
X-246233Y384134D02*
X-244900D01*
X-246233Y385467D01*
Y385800D01*
X-245900Y386134D01*
X-245233D01*
X-244900Y385800D01*
X-247899Y384134D02*
Y386134D01*
X-246899Y385134D01*
X-248232D01*
X-248899Y386134D02*
Y384134D01*
X-249898D01*
X-250232Y384467D01*
Y384801D01*
X-249898Y385134D01*
X-248899D01*
X-249898D01*
X-250232Y385467D01*
Y385800D01*
X-249898Y386134D01*
X-248899D01*
X-279433Y382000D02*
X-280766D01*
X-280100D01*
Y380000D01*
X-281433D02*
Y382000D01*
X-282432D01*
X-282765Y381666D01*
Y381000D01*
X-282432Y380667D01*
X-281433D01*
X-284765Y380000D02*
X-283432D01*
X-284765Y381333D01*
Y381666D01*
X-284432Y382000D01*
X-283765D01*
X-283432Y381666D01*
X-286431Y380000D02*
Y382000D01*
X-285431Y381000D01*
X-286764D01*
X-287431Y380000D02*
Y381333D01*
X-288097Y382000D01*
X-288763Y381333D01*
Y380000D01*
Y381000D01*
X-287431D01*
X-97381Y382312D02*
X-98714D01*
X-98048D01*
Y380312D01*
X-99380D02*
Y382312D01*
X-100380D01*
X-100713Y381978D01*
Y381312D01*
X-100380Y380979D01*
X-99380D01*
X-102713Y380312D02*
X-101380D01*
X-102713Y381645D01*
Y381978D01*
X-102380Y382312D01*
X-101713D01*
X-101380Y381978D01*
X-103379D02*
X-103712Y382312D01*
X-104379D01*
X-104712Y381978D01*
Y381645D01*
X-104379Y381312D01*
X-104046D01*
X-104379D01*
X-104712Y380979D01*
Y380645D01*
X-104379Y380312D01*
X-103712D01*
X-103379Y380645D01*
X-106711Y382312D02*
X-105379D01*
Y380312D01*
X-106711D01*
X-105379Y381312D02*
X-106045D01*
X-135991Y387226D02*
X-137324D01*
X-136658D01*
Y385226D01*
X-137990D02*
Y387226D01*
X-138990D01*
X-139323Y386892D01*
Y386226D01*
X-138990Y385893D01*
X-137990D01*
X-141323Y385226D02*
X-139990D01*
X-141323Y386559D01*
Y386892D01*
X-140989Y387226D01*
X-140323D01*
X-139990Y386892D01*
X-141989D02*
X-142322Y387226D01*
X-142989D01*
X-143322Y386892D01*
Y386559D01*
X-142989Y386226D01*
X-142656D01*
X-142989D01*
X-143322Y385893D01*
Y385559D01*
X-142989Y385226D01*
X-142322D01*
X-141989Y385559D01*
X-143989Y387226D02*
Y385226D01*
X-144988D01*
X-145322Y385559D01*
Y386892D01*
X-144988Y387226D01*
X-143989D01*
X-173197Y382390D02*
X-174530D01*
X-173864D01*
Y380390D01*
X-175197D02*
Y382390D01*
X-176196D01*
X-176529Y382056D01*
Y381390D01*
X-176196Y381057D01*
X-175197D01*
X-178529Y380390D02*
X-177196D01*
X-178529Y381723D01*
Y382056D01*
X-178196Y382390D01*
X-177529D01*
X-177196Y382056D01*
X-179195D02*
X-179528Y382390D01*
X-180195D01*
X-180528Y382056D01*
Y381723D01*
X-180195Y381390D01*
X-179862D01*
X-180195D01*
X-180528Y381057D01*
Y380723D01*
X-180195Y380390D01*
X-179528D01*
X-179195Y380723D01*
X-182527Y382056D02*
X-182194Y382390D01*
X-181528D01*
X-181195Y382056D01*
Y380723D01*
X-181528Y380390D01*
X-182194D01*
X-182527Y380723D01*
X-211027Y386446D02*
X-212360D01*
X-211694D01*
Y384446D01*
X-213026D02*
Y386446D01*
X-214026D01*
X-214359Y386112D01*
Y385446D01*
X-214026Y385113D01*
X-213026D01*
X-216359Y384446D02*
X-215026D01*
X-216359Y385779D01*
Y386112D01*
X-216025Y386446D01*
X-215359D01*
X-215026Y386112D01*
X-217025D02*
X-217358Y386446D01*
X-218025D01*
X-218358Y386112D01*
Y385779D01*
X-218025Y385446D01*
X-217692D01*
X-218025D01*
X-218358Y385113D01*
Y384779D01*
X-218025Y384446D01*
X-217358D01*
X-217025Y384779D01*
X-219025Y386446D02*
Y384446D01*
X-220024D01*
X-220357Y384779D01*
Y385113D01*
X-220024Y385446D01*
X-219025D01*
X-220024D01*
X-220357Y385779D01*
Y386112D01*
X-220024Y386446D01*
X-219025D01*
X-248623Y382156D02*
X-249956D01*
X-249290D01*
Y380156D01*
X-250623D02*
Y382156D01*
X-251622D01*
X-251955Y381822D01*
Y381156D01*
X-251622Y380823D01*
X-250623D01*
X-253955Y380156D02*
X-252622D01*
X-253955Y381489D01*
Y381822D01*
X-253622Y382156D01*
X-252955D01*
X-252622Y381822D01*
X-254621D02*
X-254954Y382156D01*
X-255621D01*
X-255954Y381822D01*
Y381489D01*
X-255621Y381156D01*
X-255288D01*
X-255621D01*
X-255954Y380823D01*
Y380489D01*
X-255621Y380156D01*
X-254954D01*
X-254621Y380489D01*
X-256621Y380156D02*
Y381489D01*
X-257287Y382156D01*
X-257954Y381489D01*
Y380156D01*
Y381156D01*
X-256621D01*
X-113527Y321004D02*
X-114860D01*
X-114194D01*
Y319004D01*
X-115526D02*
Y321004D01*
X-116526D01*
X-116859Y320670D01*
Y320004D01*
X-116526Y319671D01*
X-115526D01*
X-117526Y319004D02*
X-118192D01*
X-117859D01*
Y321004D01*
X-117526Y320670D01*
X-119192Y319004D02*
X-119858D01*
X-119525D01*
Y321004D01*
X-119192Y320670D01*
X-122191Y321004D02*
X-120858D01*
Y319004D01*
X-122191D01*
X-120858Y320004D02*
X-121525D01*
X-163525Y320302D02*
X-164858D01*
X-164192D01*
Y318302D01*
X-165524D02*
Y320302D01*
X-166524D01*
X-166857Y319968D01*
Y319302D01*
X-166524Y318969D01*
X-165524D01*
X-167524Y318302D02*
X-168190D01*
X-167857D01*
Y320302D01*
X-167524Y319968D01*
X-169190Y318302D02*
X-169856D01*
X-169523D01*
Y320302D01*
X-169190Y319968D01*
X-170856Y320302D02*
Y318302D01*
X-171856D01*
X-172189Y318635D01*
Y319968D01*
X-171856Y320302D01*
X-170856D01*
X-200185Y319912D02*
X-201518D01*
X-200852D01*
Y317912D01*
X-202185D02*
Y319912D01*
X-203184D01*
X-203517Y319578D01*
Y318912D01*
X-203184Y318579D01*
X-202185D01*
X-204184Y317912D02*
X-204850D01*
X-204517D01*
Y319912D01*
X-204184Y319578D01*
X-205850Y317912D02*
X-206516D01*
X-206183D01*
Y319912D01*
X-205850Y319578D01*
X-208849D02*
X-208516Y319912D01*
X-207849D01*
X-207516Y319578D01*
Y318245D01*
X-207849Y317912D01*
X-208516D01*
X-208849Y318245D01*
X-255062Y322734D02*
Y321401D01*
Y322068D01*
X-253062D01*
Y320735D02*
X-255062D01*
Y319735D01*
X-254728Y319402D01*
X-254062D01*
X-253729Y319735D01*
Y320735D01*
X-253062Y318735D02*
Y318069D01*
Y318402D01*
X-255062D01*
X-254728Y318735D01*
X-253062Y317069D02*
Y316403D01*
Y316736D01*
X-255062D01*
X-254728Y317069D01*
X-255062Y315403D02*
X-253062D01*
Y314403D01*
X-253395Y314070D01*
X-253729D01*
X-254062Y314403D01*
Y315403D01*
Y314403D01*
X-254395Y314070D01*
X-254728D01*
X-255062Y314403D01*
Y315403D01*
X-286826Y310059D02*
Y311392D01*
Y310725D01*
X-288826D01*
Y312058D02*
X-286826D01*
Y313058D01*
X-287159Y313391D01*
X-287826D01*
X-288159Y313058D01*
Y312058D01*
X-288826Y314058D02*
Y314724D01*
Y314391D01*
X-286826D01*
X-287159Y314058D01*
X-288826Y315724D02*
Y316390D01*
Y316057D01*
X-286826D01*
X-287159Y315724D01*
X-288826Y317390D02*
X-287493D01*
X-286826Y318056D01*
X-287493Y318723D01*
X-288826D01*
X-287826D01*
Y317390D01*
X-6173Y-64919D02*
X-7506D01*
X-6840D01*
Y-66918D01*
X-8173D02*
Y-64919D01*
X-9172D01*
X-9505Y-65252D01*
Y-65918D01*
X-9172Y-66251D01*
X-8173D01*
X-11171Y-66918D02*
Y-64919D01*
X-10172Y-65918D01*
X-11505D01*
X-12171Y-66918D02*
X-12838D01*
X-12504D01*
Y-64919D01*
X-12171Y-65252D01*
X-13837Y-64919D02*
Y-66918D01*
Y-65918D01*
X-15170D01*
Y-64919D01*
Y-66918D01*
X-88873Y-65819D02*
X-90206D01*
X-89540D01*
Y-67818D01*
X-90873D02*
Y-65819D01*
X-91872D01*
X-92205Y-66152D01*
Y-66818D01*
X-91872Y-67151D01*
X-90873D01*
X-93871Y-67818D02*
Y-65819D01*
X-92872Y-66818D01*
X-94205D01*
X-94871Y-67818D02*
X-95538D01*
X-95204D01*
Y-65819D01*
X-94871Y-66152D01*
X-97870D02*
X-97537Y-65819D01*
X-96871D01*
X-96537Y-66152D01*
Y-67485D01*
X-96871Y-67818D01*
X-97537D01*
X-97870Y-67485D01*
Y-66818D01*
X-97204D01*
X-171187Y-70929D02*
X-172520D01*
X-171854D01*
Y-72928D01*
X-173187D02*
Y-70929D01*
X-174186D01*
X-174519Y-71262D01*
Y-71928D01*
X-174186Y-72261D01*
X-173187D01*
X-176186Y-72928D02*
Y-70929D01*
X-175186Y-71928D01*
X-176519D01*
X-177185Y-72928D02*
X-177852D01*
X-177518D01*
Y-70929D01*
X-177185Y-71262D01*
X-180184Y-70929D02*
X-178851D01*
Y-71928D01*
X-179518D01*
X-178851D01*
Y-72928D01*
X-255403Y-59557D02*
X-256735D01*
X-256069D01*
Y-61557D01*
X-257402D02*
Y-59557D01*
X-258402D01*
X-258735Y-59891D01*
Y-60557D01*
X-258402Y-60890D01*
X-257402D01*
X-260401Y-61557D02*
Y-59557D01*
X-259401Y-60557D01*
X-260734D01*
X-261401Y-61557D02*
X-262067D01*
X-261734D01*
Y-59557D01*
X-261401Y-59891D01*
X-264400Y-59557D02*
X-263067D01*
Y-61557D01*
X-264400D01*
X-263067Y-60557D02*
X-263733D01*
X-330667Y-65561D02*
X-332000D01*
X-331334D01*
Y-67561D01*
X-332667D02*
Y-65561D01*
X-333666D01*
X-334000Y-65894D01*
Y-66561D01*
X-333666Y-66894D01*
X-332667D01*
X-335666Y-67561D02*
Y-65561D01*
X-334666Y-66561D01*
X-335999D01*
X-336666Y-67561D02*
X-337332D01*
X-336999D01*
Y-65561D01*
X-336666Y-65894D01*
X-338332Y-65561D02*
Y-67561D01*
X-339331D01*
X-339665Y-67227D01*
Y-65894D01*
X-339331Y-65561D01*
X-338332D01*
X-415242Y-66025D02*
X-416575D01*
X-415908D01*
Y-68024D01*
X-417241D02*
Y-66025D01*
X-418241D01*
X-418574Y-66358D01*
Y-67025D01*
X-418241Y-67358D01*
X-417241D01*
X-420240Y-68024D02*
Y-66025D01*
X-419241Y-67025D01*
X-420574D01*
X-421240Y-68024D02*
X-421906D01*
X-421573D01*
Y-66025D01*
X-421240Y-66358D01*
X-424239D02*
X-423906Y-66025D01*
X-423239D01*
X-422906Y-66358D01*
Y-67691D01*
X-423239Y-68024D01*
X-423906D01*
X-424239Y-67691D01*
X-493783Y-65639D02*
X-495116D01*
X-494449D01*
Y-67639D01*
X-495782D02*
Y-65639D01*
X-496782D01*
X-497115Y-65972D01*
Y-66639D01*
X-496782Y-66972D01*
X-495782D01*
X-498781Y-67639D02*
Y-65639D01*
X-497782Y-66639D01*
X-499114D01*
X-499781Y-67639D02*
X-500447D01*
X-500114D01*
Y-65639D01*
X-499781Y-65972D01*
X-501447Y-65639D02*
Y-67639D01*
X-502447D01*
X-502780Y-67305D01*
Y-66972D01*
X-502447Y-66639D01*
X-501447D01*
X-502447D01*
X-502780Y-66306D01*
Y-65972D01*
X-502447Y-65639D01*
X-501447D01*
X-575045Y-52925D02*
X-576378D01*
X-575712D01*
Y-54925D01*
X-577045D02*
Y-52925D01*
X-578045D01*
X-578378Y-53258D01*
Y-53925D01*
X-578045Y-54258D01*
X-577045D01*
X-580044Y-54925D02*
Y-52925D01*
X-579044Y-53925D01*
X-580377D01*
X-581043Y-54925D02*
X-581710D01*
X-581377D01*
Y-52925D01*
X-581043Y-53258D01*
X-582710Y-54925D02*
Y-53592D01*
X-583376Y-52925D01*
X-584043Y-53592D01*
Y-54925D01*
Y-53925D01*
X-582710D01*
X-22873Y-61019D02*
X-24206D01*
X-23540D01*
Y-63018D01*
X-24872D02*
Y-61019D01*
X-25872D01*
X-26205Y-61352D01*
Y-62018D01*
X-25872Y-62351D01*
X-24872D01*
X-26872Y-61352D02*
X-27205Y-61019D01*
X-27872D01*
X-28205Y-61352D01*
Y-61685D01*
X-27872Y-62018D01*
X-27538D01*
X-27872D01*
X-28205Y-62351D01*
Y-62685D01*
X-27872Y-63018D01*
X-27205D01*
X-26872Y-62685D01*
X-29871Y-63018D02*
Y-61019D01*
X-28871Y-62018D01*
X-30204D01*
X-30871Y-61019D02*
Y-63018D01*
Y-62018D01*
X-32204D01*
Y-61019D01*
Y-63018D01*
X-104273Y-60719D02*
X-105606D01*
X-104940D01*
Y-62718D01*
X-106272D02*
Y-60719D01*
X-107272D01*
X-107605Y-61052D01*
Y-61718D01*
X-107272Y-62051D01*
X-106272D01*
X-108272Y-61052D02*
X-108605Y-60719D01*
X-109272D01*
X-109605Y-61052D01*
Y-61385D01*
X-109272Y-61718D01*
X-108938D01*
X-109272D01*
X-109605Y-62051D01*
Y-62385D01*
X-109272Y-62718D01*
X-108605D01*
X-108272Y-62385D01*
X-111271Y-62718D02*
Y-60719D01*
X-110271Y-61718D01*
X-111604D01*
X-113603Y-61052D02*
X-113270Y-60719D01*
X-112604D01*
X-112271Y-61052D01*
Y-62385D01*
X-112604Y-62718D01*
X-113270D01*
X-113603Y-62385D01*
Y-61718D01*
X-112937D01*
X-185773Y-61519D02*
X-187106D01*
X-186440D01*
Y-63518D01*
X-187773D02*
Y-61519D01*
X-188772D01*
X-189105Y-61852D01*
Y-62518D01*
X-188772Y-62851D01*
X-187773D01*
X-189772Y-61852D02*
X-190105Y-61519D01*
X-190771D01*
X-191105Y-61852D01*
Y-62185D01*
X-190771Y-62518D01*
X-190438D01*
X-190771D01*
X-191105Y-62851D01*
Y-63185D01*
X-190771Y-63518D01*
X-190105D01*
X-189772Y-63185D01*
X-192771Y-63518D02*
Y-61519D01*
X-191771Y-62518D01*
X-193104D01*
X-195104Y-61519D02*
X-193771D01*
Y-62518D01*
X-194437D01*
X-193771D01*
Y-63518D01*
X-255421Y-73783D02*
X-256754D01*
X-256088D01*
Y-75783D01*
X-257421D02*
Y-73783D01*
X-258420D01*
X-258754Y-74117D01*
Y-74783D01*
X-258420Y-75116D01*
X-257421D01*
X-259420Y-74117D02*
X-259753Y-73783D01*
X-260420D01*
X-260753Y-74117D01*
Y-74450D01*
X-260420Y-74783D01*
X-260087D01*
X-260420D01*
X-260753Y-75116D01*
Y-75450D01*
X-260420Y-75783D01*
X-259753D01*
X-259420Y-75450D01*
X-262419Y-75783D02*
Y-73783D01*
X-261420Y-74783D01*
X-262752D01*
X-264752Y-73783D02*
X-263419D01*
Y-75783D01*
X-264752D01*
X-263419Y-74783D02*
X-264085D01*
X-347966Y-60443D02*
X-349299D01*
X-348633D01*
Y-62442D01*
X-349966D02*
Y-60443D01*
X-350965D01*
X-351299Y-60776D01*
Y-61443D01*
X-350965Y-61776D01*
X-349966D01*
X-351965Y-60776D02*
X-352298Y-60443D01*
X-352965D01*
X-353298Y-60776D01*
Y-61110D01*
X-352965Y-61443D01*
X-352631D01*
X-352965D01*
X-353298Y-61776D01*
Y-62109D01*
X-352965Y-62442D01*
X-352298D01*
X-351965Y-62109D01*
X-354964Y-62442D02*
Y-60443D01*
X-353964Y-61443D01*
X-355297D01*
X-355964Y-60443D02*
Y-62442D01*
X-356963D01*
X-357297Y-62109D01*
Y-60776D01*
X-356963Y-60443D01*
X-355964D01*
X-430783Y-59659D02*
X-432116D01*
X-431449D01*
Y-61658D01*
X-432782D02*
Y-59659D01*
X-433782D01*
X-434115Y-59992D01*
Y-60659D01*
X-433782Y-60992D01*
X-432782D01*
X-434782Y-59992D02*
X-435115Y-59659D01*
X-435781D01*
X-436114Y-59992D01*
Y-60325D01*
X-435781Y-60659D01*
X-435448D01*
X-435781D01*
X-436114Y-60992D01*
Y-61325D01*
X-435781Y-61658D01*
X-435115D01*
X-434782Y-61325D01*
X-437781Y-61658D02*
Y-59659D01*
X-436781Y-60659D01*
X-438114D01*
X-440113Y-59992D02*
X-439780Y-59659D01*
X-439113D01*
X-438780Y-59992D01*
Y-61325D01*
X-439113Y-61658D01*
X-439780D01*
X-440113Y-61325D01*
X-509770Y-60755D02*
X-511103D01*
X-510436D01*
Y-62754D01*
X-511769D02*
Y-60755D01*
X-512769D01*
X-513102Y-61088D01*
Y-61755D01*
X-512769Y-62088D01*
X-511769D01*
X-513768Y-61088D02*
X-514102Y-60755D01*
X-514768D01*
X-515101Y-61088D01*
Y-61422D01*
X-514768Y-61755D01*
X-514435D01*
X-514768D01*
X-515101Y-62088D01*
Y-62421D01*
X-514768Y-62754D01*
X-514102D01*
X-513768Y-62421D01*
X-516767Y-62754D02*
Y-60755D01*
X-515768Y-61755D01*
X-517101D01*
X-517767Y-60755D02*
Y-62754D01*
X-518767D01*
X-519100Y-62421D01*
Y-62088D01*
X-518767Y-61755D01*
X-517767D01*
X-518767D01*
X-519100Y-61422D01*
Y-61088D01*
X-518767Y-60755D01*
X-517767D01*
X-579510Y-72065D02*
X-580843D01*
X-580177D01*
Y-74064D01*
X-581510D02*
Y-72065D01*
X-582509D01*
X-582843Y-72398D01*
Y-73065D01*
X-582509Y-73398D01*
X-581510D01*
X-583509Y-72398D02*
X-583842Y-72065D01*
X-584509D01*
X-584842Y-72398D01*
Y-72732D01*
X-584509Y-73065D01*
X-584175D01*
X-584509D01*
X-584842Y-73398D01*
Y-73731D01*
X-584509Y-74064D01*
X-583842D01*
X-583509Y-73731D01*
X-586508Y-74064D02*
Y-72065D01*
X-585508Y-73065D01*
X-586841D01*
X-587508Y-74064D02*
Y-72732D01*
X-588174Y-72065D01*
X-588841Y-72732D01*
Y-74064D01*
Y-73065D01*
X-587508D01*
X38468Y-59741D02*
X37135D01*
X37802D01*
Y-61740D01*
X36469D02*
Y-59741D01*
X35469D01*
X35136Y-60074D01*
Y-60741D01*
X35469Y-61074D01*
X36469D01*
X34469Y-60074D02*
X34136Y-59741D01*
X33470D01*
X33136Y-60074D01*
Y-60408D01*
X33470Y-60741D01*
X33803D01*
X33470D01*
X33136Y-61074D01*
Y-61407D01*
X33470Y-61740D01*
X34136D01*
X34469Y-61407D01*
X32470Y-59741D02*
Y-61740D01*
Y-60741D01*
X31137D01*
Y-59741D01*
Y-61740D01*
X-46006Y-62705D02*
X-47339D01*
X-46672D01*
Y-64705D01*
X-48005D02*
Y-62705D01*
X-49005D01*
X-49338Y-63038D01*
Y-63705D01*
X-49005Y-64038D01*
X-48005D01*
X-50005Y-63038D02*
X-50338Y-62705D01*
X-51004D01*
X-51337Y-63038D01*
Y-63372D01*
X-51004Y-63705D01*
X-50671D01*
X-51004D01*
X-51337Y-64038D01*
Y-64371D01*
X-51004Y-64705D01*
X-50338D01*
X-50005Y-64371D01*
X-53337Y-63038D02*
X-53004Y-62705D01*
X-52337D01*
X-52004Y-63038D01*
Y-64371D01*
X-52337Y-64705D01*
X-53004D01*
X-53337Y-64371D01*
Y-63705D01*
X-52671D01*
X-129856Y-62315D02*
X-131189D01*
X-130522D01*
Y-64315D01*
X-131855D02*
Y-62315D01*
X-132855D01*
X-133188Y-62648D01*
Y-63315D01*
X-132855Y-63648D01*
X-131855D01*
X-133855Y-62648D02*
X-134188Y-62315D01*
X-134854D01*
X-135188Y-62648D01*
Y-62982D01*
X-134854Y-63315D01*
X-134521D01*
X-134854D01*
X-135188Y-63648D01*
Y-63981D01*
X-134854Y-64315D01*
X-134188D01*
X-133855Y-63981D01*
X-137187Y-62315D02*
X-135854D01*
Y-63315D01*
X-136521D01*
X-135854D01*
Y-64315D01*
X-208446Y-60367D02*
X-209779D01*
X-209113D01*
Y-62367D01*
X-210446D02*
Y-60367D01*
X-211445D01*
X-211779Y-60701D01*
Y-61367D01*
X-211445Y-61700D01*
X-210446D01*
X-212445Y-60701D02*
X-212778Y-60367D01*
X-213445D01*
X-213778Y-60701D01*
Y-61034D01*
X-213445Y-61367D01*
X-213111D01*
X-213445D01*
X-213778Y-61700D01*
Y-62034D01*
X-213445Y-62367D01*
X-212778D01*
X-212445Y-62034D01*
X-215777Y-60367D02*
X-214444D01*
Y-62367D01*
X-215777D01*
X-214444Y-61367D02*
X-215111D01*
X-287745Y-58961D02*
X-289078D01*
X-288412D01*
Y-60961D01*
X-289745D02*
Y-58961D01*
X-290744D01*
X-291077Y-59294D01*
Y-59961D01*
X-290744Y-60294D01*
X-289745D01*
X-291744Y-59294D02*
X-292077Y-58961D01*
X-292744D01*
X-293077Y-59294D01*
Y-59628D01*
X-292744Y-59961D01*
X-292410D01*
X-292744D01*
X-293077Y-60294D01*
Y-60627D01*
X-292744Y-60961D01*
X-292077D01*
X-291744Y-60627D01*
X-293743Y-58961D02*
Y-60961D01*
X-294743D01*
X-295076Y-60627D01*
Y-59294D01*
X-294743Y-58961D01*
X-293743D01*
X-376142Y-58567D02*
X-377475D01*
X-376808D01*
Y-60566D01*
X-378141D02*
Y-58567D01*
X-379141D01*
X-379474Y-58900D01*
Y-59567D01*
X-379141Y-59900D01*
X-378141D01*
X-380140Y-58900D02*
X-380474Y-58567D01*
X-381140D01*
X-381473Y-58900D01*
Y-59233D01*
X-381140Y-59567D01*
X-380807D01*
X-381140D01*
X-381473Y-59900D01*
Y-60233D01*
X-381140Y-60566D01*
X-380474D01*
X-380140Y-60233D01*
X-383473Y-58900D02*
X-383139Y-58567D01*
X-382473D01*
X-382140Y-58900D01*
Y-60233D01*
X-382473Y-60566D01*
X-383139D01*
X-383473Y-60233D01*
X-455463Y-59195D02*
X-456796D01*
X-456129D01*
Y-61194D01*
X-457462D02*
Y-59195D01*
X-458462D01*
X-458795Y-59528D01*
Y-60195D01*
X-458462Y-60528D01*
X-457462D01*
X-459461Y-59528D02*
X-459795Y-59195D01*
X-460461D01*
X-460794Y-59528D01*
Y-59862D01*
X-460461Y-60195D01*
X-460128D01*
X-460461D01*
X-460794Y-60528D01*
Y-60861D01*
X-460461Y-61194D01*
X-459795D01*
X-459461Y-60861D01*
X-461461Y-59195D02*
Y-61194D01*
X-462460D01*
X-462793Y-60861D01*
Y-60528D01*
X-462460Y-60195D01*
X-461461D01*
X-462460D01*
X-462793Y-59862D01*
Y-59528D01*
X-462460Y-59195D01*
X-461461D01*
X-538697Y-60443D02*
X-540030D01*
X-539364D01*
Y-62442D01*
X-540697D02*
Y-60443D01*
X-541696D01*
X-542029Y-60776D01*
Y-61443D01*
X-541696Y-61776D01*
X-540697D01*
X-542696Y-60776D02*
X-543029Y-60443D01*
X-543696D01*
X-544029Y-60776D01*
Y-61110D01*
X-543696Y-61443D01*
X-543362D01*
X-543696D01*
X-544029Y-61776D01*
Y-62109D01*
X-543696Y-62442D01*
X-543029D01*
X-542696Y-62109D01*
X-544695Y-62442D02*
Y-61110D01*
X-545362Y-60443D01*
X-546028Y-61110D01*
Y-62442D01*
Y-61443D01*
X-544695D01*
X63461Y32794D02*
X62128D01*
X62794D01*
Y30794D01*
X61462D02*
Y32794D01*
X60462D01*
X60129Y32460D01*
Y31794D01*
X60462Y31461D01*
X61462D01*
X59462Y32460D02*
X59129Y32794D01*
X58463D01*
X58129Y32460D01*
Y32127D01*
X58463Y31794D01*
X58796D01*
X58463D01*
X58129Y31461D01*
Y31127D01*
X58463Y30794D01*
X59129D01*
X59462Y31127D01*
X57463Y32460D02*
X57130Y32794D01*
X56463D01*
X56130Y32460D01*
Y32127D01*
X56463Y31794D01*
X56796D01*
X56463D01*
X56130Y31461D01*
Y31127D01*
X56463Y30794D01*
X57130D01*
X57463Y31127D01*
X88319Y206812D02*
X86987D01*
X87653D01*
Y204813D01*
X86320D02*
Y206812D01*
X85320D01*
X84987Y206479D01*
Y205813D01*
X85320Y205479D01*
X86320D01*
X82988Y206812D02*
X84321D01*
Y205813D01*
X83654Y206146D01*
X83321D01*
X82988Y205813D01*
Y205146D01*
X83321Y204813D01*
X83987D01*
X84321Y205146D01*
X82321Y204813D02*
X81655D01*
X81988D01*
Y206812D01*
X82321Y206479D01*
X38622Y-75313D02*
X37289D01*
X37955D01*
Y-77312D01*
X36622D02*
Y-75313D01*
X35623D01*
X35289Y-75646D01*
Y-76313D01*
X35623Y-76646D01*
X36622D01*
X34623Y-77312D02*
X33956D01*
X34290D01*
Y-75313D01*
X34623Y-75646D01*
X31624Y-77312D02*
X32957D01*
X31624Y-75979D01*
Y-75646D01*
X31957Y-75313D01*
X32623D01*
X32957Y-75646D01*
X30957Y-75313D02*
Y-77312D01*
Y-76313D01*
X29625D01*
Y-75313D01*
Y-77312D01*
X-44760Y-75859D02*
X-46093D01*
X-45427D01*
Y-77858D01*
X-46760D02*
Y-75859D01*
X-47760D01*
X-48093Y-76192D01*
Y-76859D01*
X-47760Y-77192D01*
X-46760D01*
X-48759Y-77858D02*
X-49426D01*
X-49092D01*
Y-75859D01*
X-48759Y-76192D01*
X-51758Y-77858D02*
X-50425D01*
X-51758Y-76525D01*
Y-76192D01*
X-51425Y-75859D01*
X-50758D01*
X-50425Y-76192D01*
X-53758D02*
X-53424Y-75859D01*
X-52758D01*
X-52425Y-76192D01*
Y-77525D01*
X-52758Y-77858D01*
X-53424D01*
X-53758Y-77525D01*
Y-76859D01*
X-53091D01*
X-126426Y-75469D02*
X-127759D01*
X-127093D01*
Y-77468D01*
X-128426D02*
Y-75469D01*
X-129426D01*
X-129759Y-75802D01*
Y-76468D01*
X-129426Y-76802D01*
X-128426D01*
X-130425Y-77468D02*
X-131092D01*
X-130758D01*
Y-75469D01*
X-130425Y-75802D01*
X-133424Y-77468D02*
X-132091D01*
X-133424Y-76135D01*
Y-75802D01*
X-133091Y-75469D01*
X-132424D01*
X-132091Y-75802D01*
X-135424Y-75469D02*
X-134091D01*
Y-76468D01*
X-134757D01*
X-134091D01*
Y-77468D01*
X-208371Y-74769D02*
X-209704D01*
X-209037D01*
Y-76768D01*
X-210370D02*
Y-74769D01*
X-211370D01*
X-211703Y-75102D01*
Y-75769D01*
X-211370Y-76102D01*
X-210370D01*
X-212370Y-76768D02*
X-213036D01*
X-212703D01*
Y-74769D01*
X-212370Y-75102D01*
X-215369Y-76768D02*
X-214036D01*
X-215369Y-75436D01*
Y-75102D01*
X-215035Y-74769D01*
X-214369D01*
X-214036Y-75102D01*
X-217368Y-74769D02*
X-216035D01*
Y-76768D01*
X-217368D01*
X-216035Y-75769D02*
X-216702D01*
X-285564Y-75079D02*
X-286897D01*
X-286230D01*
Y-77078D01*
X-287563D02*
Y-75079D01*
X-288563D01*
X-288896Y-75412D01*
Y-76078D01*
X-288563Y-76412D01*
X-287563D01*
X-289563Y-77078D02*
X-290229D01*
X-289896D01*
Y-75079D01*
X-289563Y-75412D01*
X-292562Y-77078D02*
X-291229D01*
X-292562Y-75745D01*
Y-75412D01*
X-292228Y-75079D01*
X-291562D01*
X-291229Y-75412D01*
X-293228Y-75079D02*
Y-77078D01*
X-294228D01*
X-294561Y-76745D01*
Y-75412D01*
X-294228Y-75079D01*
X-293228D01*
X-369124Y-74607D02*
X-370457D01*
X-369791D01*
Y-76606D01*
X-371124D02*
Y-74607D01*
X-372123D01*
X-372457Y-74940D01*
Y-75606D01*
X-372123Y-75940D01*
X-371124D01*
X-373123Y-76606D02*
X-373789D01*
X-373456D01*
Y-74607D01*
X-373123Y-74940D01*
X-376122Y-76606D02*
X-374789D01*
X-376122Y-75273D01*
Y-74940D01*
X-375789Y-74607D01*
X-375122D01*
X-374789Y-74940D01*
X-378121D02*
X-377788Y-74607D01*
X-377122D01*
X-376788Y-74940D01*
Y-76273D01*
X-377122Y-76606D01*
X-377788D01*
X-378121Y-76273D01*
X-451643Y-74689D02*
X-452976D01*
X-452310D01*
Y-76688D01*
X-453642D02*
Y-74689D01*
X-454642D01*
X-454975Y-75022D01*
Y-75688D01*
X-454642Y-76022D01*
X-453642D01*
X-455642Y-76688D02*
X-456308D01*
X-455975D01*
Y-74689D01*
X-455642Y-75022D01*
X-458641Y-76688D02*
X-457308D01*
X-458641Y-75355D01*
Y-75022D01*
X-458308Y-74689D01*
X-457641D01*
X-457308Y-75022D01*
X-459307Y-74689D02*
Y-76688D01*
X-460307D01*
X-460640Y-76355D01*
Y-76022D01*
X-460307Y-75688D01*
X-459307D01*
X-460307D01*
X-460640Y-75355D01*
Y-75022D01*
X-460307Y-74689D01*
X-459307D01*
X-532616Y-73987D02*
X-533949D01*
X-533282D01*
Y-75986D01*
X-534615D02*
Y-73987D01*
X-535615D01*
X-535948Y-74320D01*
Y-74986D01*
X-535615Y-75320D01*
X-534615D01*
X-536614Y-75986D02*
X-537281D01*
X-536948D01*
Y-73987D01*
X-536614Y-74320D01*
X-539613Y-75986D02*
X-538281D01*
X-539613Y-74653D01*
Y-74320D01*
X-539280Y-73987D01*
X-538614D01*
X-538281Y-74320D01*
X-540280Y-75986D02*
Y-74653D01*
X-540946Y-73987D01*
X-541613Y-74653D01*
Y-75986D01*
Y-74986D01*
X-540280D01*
X-211645Y305482D02*
X-212978D01*
X-212312D01*
Y303482D01*
X-213645D02*
Y305482D01*
X-214644D01*
X-214977Y305148D01*
Y304482D01*
X-214644Y304149D01*
X-213645D01*
X-215644Y305148D02*
X-215977Y305482D01*
X-216644D01*
X-216977Y305148D01*
Y304815D01*
X-216644Y304482D01*
X-216977Y304149D01*
Y303815D01*
X-216644Y303482D01*
X-215977D01*
X-215644Y303815D01*
Y304149D01*
X-215977Y304482D01*
X-215644Y304815D01*
Y305148D01*
X-215977Y304482D02*
X-216644D01*
X-218976Y303482D02*
X-217643D01*
X-218976Y304815D01*
Y305148D01*
X-218643Y305482D01*
X-217976D01*
X-217643Y305148D01*
X-239023Y258370D02*
X-240356D01*
X-239690D01*
Y256370D01*
X-241022D02*
Y258370D01*
X-242022D01*
X-242355Y258036D01*
Y257370D01*
X-242022Y257037D01*
X-241022D01*
X-243022Y256370D02*
X-243688D01*
X-243355D01*
Y258370D01*
X-243022Y258036D01*
X-244688Y256703D02*
X-245021Y256370D01*
X-245688D01*
X-246021Y256703D01*
Y258036D01*
X-245688Y258370D01*
X-245021D01*
X-244688Y258036D01*
Y257703D01*
X-245021Y257370D01*
X-246021D01*
X-196273Y214126D02*
X-197606D01*
X-196940D01*
Y212126D01*
X-198273D02*
Y214126D01*
X-199272D01*
X-199605Y213792D01*
Y213126D01*
X-199272Y212793D01*
X-198273D01*
X-200272Y212126D02*
X-200938D01*
X-200605D01*
Y214126D01*
X-200272Y213792D01*
X-201938D02*
X-202271Y214126D01*
X-202938D01*
X-203271Y213792D01*
Y213459D01*
X-202938Y213126D01*
X-203271Y212793D01*
Y212459D01*
X-202938Y212126D01*
X-202271D01*
X-201938Y212459D01*
Y212793D01*
X-202271Y213126D01*
X-201938Y213459D01*
Y213792D01*
X-202271Y213126D02*
X-202938D01*
X-151173Y194326D02*
X-152506D01*
X-151840D01*
Y192326D01*
X-153173D02*
Y194326D01*
X-154172D01*
X-154505Y193992D01*
Y193326D01*
X-154172Y192993D01*
X-153173D01*
X-155172Y192326D02*
X-155838D01*
X-155505D01*
Y194326D01*
X-155172Y193992D01*
X-156838Y194326D02*
X-158171D01*
Y193992D01*
X-156838Y192659D01*
Y192326D01*
X-184873Y264626D02*
X-186206D01*
X-185540D01*
Y262626D01*
X-186872D02*
Y264626D01*
X-187872D01*
X-188205Y264292D01*
Y263626D01*
X-187872Y263293D01*
X-186872D01*
X-188872Y264292D02*
X-189205Y264626D01*
X-189872D01*
X-190205Y264292D01*
Y263959D01*
X-189872Y263626D01*
X-190205Y263293D01*
Y262959D01*
X-189872Y262626D01*
X-189205D01*
X-188872Y262959D01*
Y263293D01*
X-189205Y263626D01*
X-188872Y263959D01*
Y264292D01*
X-189205Y263626D02*
X-189872D01*
X-172673Y235626D02*
X-174006D01*
X-173340D01*
Y233626D01*
X-174672D02*
Y235626D01*
X-175672D01*
X-176005Y235292D01*
Y234626D01*
X-175672Y234293D01*
X-174672D01*
X-178005Y233626D02*
X-176672D01*
X-178005Y234959D01*
Y235292D01*
X-177672Y235626D01*
X-177005D01*
X-176672Y235292D01*
X-139373Y210126D02*
X-140706D01*
X-140040D01*
Y208126D01*
X-141373D02*
Y210126D01*
X-142372D01*
X-142705Y209792D01*
Y209126D01*
X-142372Y208793D01*
X-141373D01*
X-143372Y208126D02*
X-144038D01*
X-143705D01*
Y210126D01*
X-143372Y209792D01*
X-86046Y310850D02*
X-87379D01*
X-86712D01*
Y308851D01*
X-88045D02*
Y310850D01*
X-89045D01*
X-89378Y310517D01*
Y309850D01*
X-89045Y309517D01*
X-88045D01*
X-90044Y310850D02*
X-91377D01*
Y310517D01*
X-90044Y309184D01*
Y308851D01*
X-575973Y302126D02*
X-577306D01*
X-576640D01*
Y300126D01*
X-577973D02*
Y302126D01*
X-578972D01*
X-579305Y301792D01*
Y301126D01*
X-578972Y300793D01*
X-577973D01*
X-581305Y302126D02*
X-580638Y301792D01*
X-579972Y301126D01*
Y300459D01*
X-580305Y300126D01*
X-580971D01*
X-581305Y300459D01*
Y300793D01*
X-580971Y301126D01*
X-579972D01*
X-582273Y294326D02*
X-583606D01*
X-582940D01*
Y292326D01*
X-584272D02*
Y294326D01*
X-585272D01*
X-585605Y293992D01*
Y293326D01*
X-585272Y292993D01*
X-584272D01*
X-587605Y294326D02*
X-586272D01*
Y293326D01*
X-586938Y293659D01*
X-587271D01*
X-587605Y293326D01*
Y292659D01*
X-587271Y292326D01*
X-586605D01*
X-586272Y292659D01*
X-24059Y308471D02*
X-25392D01*
X-24726D01*
Y306471D01*
X-26059D02*
Y308471D01*
X-27058D01*
X-27391Y308137D01*
Y307471D01*
X-27058Y307138D01*
X-26059D01*
X-29391Y308471D02*
X-28724Y308137D01*
X-28058Y307471D01*
Y306804D01*
X-28391Y306471D01*
X-29058D01*
X-29391Y306804D01*
Y307138D01*
X-29058Y307471D01*
X-28058D01*
X-30057Y306804D02*
X-30391Y306471D01*
X-31057D01*
X-31390Y306804D01*
Y308137D01*
X-31057Y308471D01*
X-30391D01*
X-30057Y308137D01*
Y307804D01*
X-30391Y307471D01*
X-31390D01*
X-282548Y213399D02*
X-283881D01*
X-283214D01*
Y211399D01*
X-284547D02*
Y213399D01*
X-285547D01*
X-285880Y213066D01*
Y212399D01*
X-285547Y212066D01*
X-284547D01*
X-287546Y211399D02*
Y213399D01*
X-286547Y212399D01*
X-287880D01*
X-337768Y207012D02*
X-339101D01*
X-338435D01*
Y205012D01*
X-339768D02*
Y207012D01*
X-340767D01*
X-341100Y206679D01*
Y206012D01*
X-340767Y205679D01*
X-339768D01*
X-341767Y205012D02*
X-342433D01*
X-342100D01*
Y207012D01*
X-341767Y206679D01*
X-343433D02*
X-343766Y207012D01*
X-344433D01*
X-344766Y206679D01*
Y205346D01*
X-344433Y205012D01*
X-343766D01*
X-343433Y205346D01*
Y206679D01*
X-382102Y214055D02*
X-383435D01*
X-382769D01*
Y212056D01*
X-384102D02*
Y214055D01*
X-385101D01*
X-385435Y213722D01*
Y213056D01*
X-385101Y212723D01*
X-384102D01*
X-386101Y212389D02*
X-386434Y212056D01*
X-387101D01*
X-387434Y212389D01*
Y213722D01*
X-387101Y214055D01*
X-386434D01*
X-386101Y213722D01*
Y213389D01*
X-386434Y213056D01*
X-387434D01*
X80916Y308460D02*
X79583D01*
X80250D01*
Y306461D01*
X78917D02*
Y308460D01*
X77917D01*
X77584Y308127D01*
Y307460D01*
X77917Y307127D01*
X78917D01*
X75918Y306461D02*
Y308460D01*
X76918Y307460D01*
X75585D01*
X74918Y308127D02*
X74585Y308460D01*
X73918D01*
X73585Y308127D01*
Y307794D01*
X73918Y307460D01*
X74252D01*
X73918D01*
X73585Y307127D01*
Y306794D01*
X73918Y306461D01*
X74585D01*
X74918Y306794D01*
X82571Y182866D02*
X81238D01*
X81904D01*
Y180866D01*
X80572D02*
Y182866D01*
X79572D01*
X79239Y182532D01*
Y181866D01*
X79572Y181533D01*
X80572D01*
X77573Y180866D02*
Y182866D01*
X78572Y181866D01*
X77239D01*
X76573Y182532D02*
X76240Y182866D01*
X75573D01*
X75240Y182532D01*
Y182199D01*
X75573Y181866D01*
X75240Y181533D01*
Y181199D01*
X75573Y180866D01*
X76240D01*
X76573Y181199D01*
Y181533D01*
X76240Y181866D01*
X76573Y182199D01*
Y182532D01*
X76240Y181866D02*
X75573D01*
X86627Y237778D02*
X85294D01*
X85960D01*
Y235778D01*
X84627D02*
Y237778D01*
X83628D01*
X83295Y237444D01*
Y236778D01*
X83628Y236445D01*
X84627D01*
X81629Y235778D02*
Y237778D01*
X82628Y236778D01*
X81295D01*
X79629Y235778D02*
Y237778D01*
X80629Y236778D01*
X79296D01*
X-574928Y261641D02*
X-576261D01*
X-575595D01*
Y259642D01*
X-576927D02*
Y261641D01*
X-577927D01*
X-578260Y261308D01*
Y260642D01*
X-577927Y260308D01*
X-576927D01*
X-580260Y261641D02*
X-579593Y261308D01*
X-578927Y260642D01*
Y259975D01*
X-579260Y259642D01*
X-579926D01*
X-580260Y259975D01*
Y260308D01*
X-579926Y260642D01*
X-578927D01*
X-580926Y261308D02*
X-581259Y261641D01*
X-581926D01*
X-582259Y261308D01*
Y259975D01*
X-581926Y259642D01*
X-581259D01*
X-580926Y259975D01*
Y261308D01*
X-566885Y282195D02*
X-568218D01*
X-567552D01*
Y280196D01*
X-568884D02*
Y282195D01*
X-569884D01*
X-570217Y281862D01*
Y281195D01*
X-569884Y280862D01*
X-568884D01*
X-572217Y282195D02*
X-571550Y281862D01*
X-570884Y281195D01*
Y280529D01*
X-571217Y280196D01*
X-571883D01*
X-572217Y280529D01*
Y280862D01*
X-571883Y281195D01*
X-570884D01*
X-572883Y280196D02*
X-573550D01*
X-573216D01*
Y282195D01*
X-572883Y281862D01*
X90995Y107128D02*
X89662D01*
X90328D01*
Y105128D01*
X88995D02*
Y107128D01*
X87996D01*
X87663Y106794D01*
Y106128D01*
X87996Y105795D01*
X88995D01*
X86996Y107128D02*
X85663D01*
Y106794D01*
X86996Y105461D01*
Y105128D01*
X84997Y105461D02*
X84664Y105128D01*
X83997D01*
X83664Y105461D01*
Y106794D01*
X83997Y107128D01*
X84664D01*
X84997Y106794D01*
Y106461D01*
X84664Y106128D01*
X83664D01*
X-659Y204974D02*
X-1992D01*
X-1326D01*
Y202975D01*
X-2658D02*
Y204974D01*
X-3658D01*
X-3991Y204641D01*
Y203975D01*
X-3658Y203641D01*
X-2658D01*
X-5658Y202975D02*
Y204974D01*
X-4658Y203975D01*
X-5991D01*
X-7990Y204974D02*
X-7324Y204641D01*
X-6657Y203975D01*
Y203308D01*
X-6990Y202975D01*
X-7657D01*
X-7990Y203308D01*
Y203641D01*
X-7657Y203975D01*
X-6657D01*
X-141068Y295535D02*
X-139735D01*
X-140401D01*
Y297534D01*
X-139068D02*
Y295535D01*
X-138068D01*
X-137735Y295868D01*
Y296535D01*
X-138068Y296868D01*
X-139068D01*
X-136069Y297534D02*
Y295535D01*
X-137069Y296535D01*
X-135736D01*
X-135069Y295535D02*
X-133737D01*
Y295868D01*
X-135069Y297201D01*
Y297534D01*
X-64228Y341265D02*
Y339932D01*
Y340599D01*
X-62228D01*
Y339266D02*
X-64228D01*
Y338266D01*
X-63894Y337933D01*
X-63228D01*
X-62895Y338266D01*
Y339266D01*
X-63894Y337266D02*
X-64228Y336933D01*
Y336267D01*
X-63894Y335934D01*
X-63561D01*
X-63228Y336267D01*
Y336600D01*
Y336267D01*
X-62895Y335934D01*
X-62562D01*
X-62228Y336267D01*
Y336933D01*
X-62562Y337266D01*
X-64228Y333934D02*
X-63894Y334601D01*
X-63228Y335267D01*
X-62562D01*
X-62228Y334934D01*
Y334267D01*
X-62562Y333934D01*
X-62895D01*
X-63228Y334267D01*
Y335267D01*
X-396585Y198433D02*
X-397918D01*
X-397252D01*
Y196434D01*
X-398585D02*
Y198433D01*
X-399584D01*
X-399918Y198100D01*
Y197434D01*
X-399584Y197100D01*
X-398585D01*
X-400584Y198433D02*
X-401917D01*
Y198100D01*
X-400584Y196767D01*
Y196434D01*
X-402583Y198100D02*
X-402916Y198433D01*
X-403583D01*
X-403916Y198100D01*
Y197767D01*
X-403583Y197434D01*
X-403916Y197100D01*
Y196767D01*
X-403583Y196434D01*
X-402916D01*
X-402583Y196767D01*
Y197100D01*
X-402916Y197434D01*
X-402583Y197767D01*
Y198100D01*
X-402916Y197434D02*
X-403583D01*
X-583584Y156189D02*
Y154856D01*
Y155523D01*
X-581584D01*
Y154190D02*
X-583584D01*
Y153190D01*
X-583250Y152857D01*
X-582584D01*
X-582251Y153190D01*
Y154190D01*
X-583584Y152190D02*
Y150857D01*
X-583250D01*
X-581917Y152190D01*
X-581584D01*
Y149191D02*
X-583584D01*
X-582584Y150191D01*
Y148858D01*
X-420587Y209880D02*
Y211213D01*
Y210547D01*
X-422586D01*
Y211880D02*
X-420587D01*
Y212880D01*
X-420920Y213213D01*
X-421587D01*
X-421920Y212880D01*
Y211880D01*
X-420587Y213879D02*
Y215212D01*
X-420920D01*
X-422253Y213879D01*
X-422586D01*
X-420587Y217212D02*
Y215879D01*
X-421587D01*
X-421253Y216545D01*
Y216878D01*
X-421587Y217212D01*
X-422253D01*
X-422586Y216878D01*
Y216212D01*
X-422253Y215879D01*
X-420772Y198122D02*
Y199455D01*
Y198788D01*
X-422772D01*
Y200121D02*
X-420772D01*
Y201121D01*
X-421105Y201454D01*
X-421772D01*
X-422105Y201121D01*
Y200121D01*
X-420772Y202121D02*
Y203454D01*
X-421105D01*
X-422438Y202121D01*
X-422772D01*
X-420772Y205453D02*
X-421105Y204786D01*
X-421772Y204120D01*
X-422438D01*
X-422772Y204453D01*
Y205120D01*
X-422438Y205453D01*
X-422105D01*
X-421772Y205120D01*
Y204120D01*
X-393104Y197719D02*
Y199052D01*
Y198386D01*
X-395103D01*
Y199719D02*
X-393104D01*
Y200718D01*
X-393437Y201051D01*
X-394104D01*
X-394437Y200718D01*
Y199719D01*
X-393104Y201718D02*
Y203051D01*
X-393437D01*
X-394770Y201718D01*
X-395103D01*
X-393104Y203717D02*
Y205050D01*
X-393437D01*
X-394770Y203717D01*
X-395103D01*
X-124570Y242556D02*
X-123237D01*
X-123904D01*
Y244556D01*
X-122571D02*
Y242556D01*
X-121571D01*
X-121238Y242889D01*
Y243556D01*
X-121571Y243889D01*
X-122571D01*
X-119572Y244556D02*
Y242556D01*
X-120572Y243556D01*
X-119239D01*
X-118572Y242889D02*
X-118239Y242556D01*
X-117573D01*
X-117239Y242889D01*
Y244222D01*
X-117573Y244556D01*
X-118239D01*
X-118572Y244222D01*
Y242889D01*
X-77259Y246275D02*
X-75926D01*
X-76592D01*
Y248274D01*
X-75259D02*
Y246275D01*
X-74260D01*
X-73926Y246608D01*
Y247274D01*
X-74260Y247608D01*
X-75259D01*
X-73260Y246608D02*
X-72927Y246275D01*
X-72260D01*
X-71927Y246608D01*
Y246941D01*
X-72260Y247274D01*
X-72593D01*
X-72260D01*
X-71927Y247608D01*
Y247941D01*
X-72260Y248274D01*
X-72927D01*
X-73260Y247941D01*
X-71261D02*
X-70927Y248274D01*
X-70261D01*
X-69928Y247941D01*
Y246608D01*
X-70261Y246275D01*
X-70927D01*
X-71261Y246608D01*
Y246941D01*
X-70927Y247274D01*
X-69928D01*
X-32167Y241054D02*
X-33500D01*
X-32834D01*
Y239054D01*
X-34166D02*
Y241054D01*
X-35166D01*
X-35499Y240720D01*
Y240054D01*
X-35166Y239721D01*
X-34166D01*
X-36166Y240720D02*
X-36499Y241054D01*
X-37165D01*
X-37499Y240720D01*
Y240387D01*
X-37165Y240054D01*
X-36832D01*
X-37165D01*
X-37499Y239721D01*
Y239387D01*
X-37165Y239054D01*
X-36499D01*
X-36166Y239387D01*
X-38165Y240720D02*
X-38498Y241054D01*
X-39165D01*
X-39498Y240720D01*
Y240387D01*
X-39165Y240054D01*
X-39498Y239721D01*
Y239387D01*
X-39165Y239054D01*
X-38498D01*
X-38165Y239387D01*
Y239721D01*
X-38498Y240054D01*
X-38165Y240387D01*
Y240720D01*
X-38498Y240054D02*
X-39165D01*
X86003Y353374D02*
X84670D01*
X85336D01*
Y351374D01*
X84004D02*
Y353374D01*
X83004D01*
X82671Y353040D01*
Y352374D01*
X83004Y352041D01*
X84004D01*
X82004Y353040D02*
X81671Y353374D01*
X81005D01*
X80671Y353040D01*
Y352707D01*
X81005Y352374D01*
X81338D01*
X81005D01*
X80671Y352041D01*
Y351707D01*
X81005Y351374D01*
X81671D01*
X82004Y351707D01*
X80005Y353374D02*
X78672D01*
Y353040D01*
X80005Y351707D01*
Y351374D01*
X93413Y266248D02*
X92080D01*
X92746D01*
Y264248D01*
X91413D02*
Y266248D01*
X90414D01*
X90081Y265914D01*
Y265248D01*
X90414Y264915D01*
X91413D01*
X88081Y266248D02*
X89414D01*
Y265248D01*
X88748Y265581D01*
X88415D01*
X88081Y265248D01*
Y264581D01*
X88415Y264248D01*
X89081D01*
X89414Y264581D01*
X86082Y266248D02*
X87415D01*
Y265248D01*
X86748Y265581D01*
X86415D01*
X86082Y265248D01*
Y264581D01*
X86415Y264248D01*
X87082D01*
X87415Y264581D01*
X-354385Y204550D02*
X-355718D01*
X-355052D01*
Y202550D01*
X-356384D02*
Y204550D01*
X-357384D01*
X-357717Y204216D01*
Y203550D01*
X-357384Y203217D01*
X-356384D01*
X-358384Y202550D02*
X-359050D01*
X-358717D01*
Y204550D01*
X-358384Y204216D01*
X-360050D02*
X-360383Y204550D01*
X-361050D01*
X-361383Y204216D01*
Y202883D01*
X-361050Y202550D01*
X-360383D01*
X-360050Y202883D01*
Y204216D01*
X-362049Y202550D02*
X-362716D01*
X-362383D01*
Y204550D01*
X-362049Y204216D01*
X-259147Y227248D02*
X-260480D01*
X-259814D01*
Y225248D01*
X-261146D02*
Y227248D01*
X-262146D01*
X-262479Y226914D01*
Y226248D01*
X-262146Y225915D01*
X-261146D01*
X-264479Y227248D02*
X-263146D01*
Y226248D01*
X-263812Y226581D01*
X-264145D01*
X-264479Y226248D01*
Y225581D01*
X-264145Y225248D01*
X-263479D01*
X-263146Y225581D01*
X-266145Y225248D02*
Y227248D01*
X-265145Y226248D01*
X-266478D01*
X-459152Y289095D02*
Y290428D01*
Y289761D01*
X-461151D01*
Y291094D02*
X-459152D01*
Y292094D01*
X-459485Y292427D01*
X-460151D01*
X-460485Y292094D01*
Y291094D01*
X-459152Y294426D02*
Y293093D01*
X-460151D01*
X-459818Y293760D01*
Y294093D01*
X-460151Y294426D01*
X-460818D01*
X-461151Y294093D01*
Y293427D01*
X-460818Y293093D01*
X-459152Y296426D02*
X-459485Y295759D01*
X-460151Y295093D01*
X-460818D01*
X-461151Y295426D01*
Y296093D01*
X-460818Y296426D01*
X-460485D01*
X-460151Y296093D01*
Y295093D01*
X-432562Y336564D02*
Y337896D01*
Y337230D01*
X-434561D01*
Y338563D02*
X-432562D01*
Y339563D01*
X-432895Y339896D01*
X-433562D01*
X-433895Y339563D01*
Y338563D01*
X-434561Y341562D02*
X-432562D01*
X-433562Y340562D01*
Y341895D01*
X-434228Y342562D02*
X-434561Y342895D01*
Y343561D01*
X-434228Y343895D01*
X-432895D01*
X-432562Y343561D01*
Y342895D01*
X-432895Y342562D01*
X-433228D01*
X-433562Y342895D01*
Y343895D01*
X-437401Y322213D02*
Y323546D01*
Y322879D01*
X-439400D01*
Y324212D02*
X-437401D01*
Y325212D01*
X-437734Y325545D01*
X-438400D01*
X-438733Y325212D01*
Y324212D01*
X-437401Y327544D02*
Y326212D01*
X-438400D01*
X-438067Y326878D01*
Y327211D01*
X-438400Y327544D01*
X-439067D01*
X-439400Y327211D01*
Y326545D01*
X-439067Y326212D01*
X-439400Y329544D02*
Y328211D01*
X-438067Y329544D01*
X-437734D01*
X-437401Y329211D01*
Y328544D01*
X-437734Y328211D01*
X-437265Y346230D02*
Y347563D01*
Y346896D01*
X-439264D01*
Y348229D02*
X-437265D01*
Y349229D01*
X-437598Y349562D01*
X-438265D01*
X-438598Y349229D01*
Y348229D01*
X-437265Y351561D02*
Y350228D01*
X-438265D01*
X-437931Y350895D01*
Y351228D01*
X-438265Y351561D01*
X-438931D01*
X-439264Y351228D01*
Y350562D01*
X-438931Y350228D01*
X-437598Y352228D02*
X-437265Y352561D01*
Y353227D01*
X-437598Y353561D01*
X-438931D01*
X-439264Y353227D01*
Y352561D01*
X-438931Y352228D01*
X-437598D01*
X-451377Y328512D02*
Y329845D01*
Y329179D01*
X-453376D01*
Y330511D02*
X-451377D01*
Y331511D01*
X-451710Y331844D01*
X-452377D01*
X-452710Y331511D01*
Y330511D01*
X-451377Y333844D02*
Y332511D01*
X-452377D01*
X-452043Y333177D01*
Y333510D01*
X-452377Y333844D01*
X-453043D01*
X-453376Y333510D01*
Y332844D01*
X-453043Y332511D01*
X-451710Y334510D02*
X-451377Y334843D01*
Y335510D01*
X-451710Y335843D01*
X-452043D01*
X-452377Y335510D01*
Y335177D01*
Y335510D01*
X-452710Y335843D01*
X-453043D01*
X-453376Y335510D01*
Y334843D01*
X-453043Y334510D01*
X-602002Y184394D02*
X-603335D01*
X-602669D01*
Y182395D01*
X-604002D02*
Y184394D01*
X-605001D01*
X-605335Y184061D01*
Y183394D01*
X-605001Y183061D01*
X-604002D01*
X-606001Y182395D02*
X-606667D01*
X-606334D01*
Y184394D01*
X-606001Y184061D01*
X-607667D02*
X-608000Y184394D01*
X-608667D01*
X-609000Y184061D01*
Y183728D01*
X-608667Y183394D01*
X-608333D01*
X-608667D01*
X-609000Y183061D01*
Y182728D01*
X-608667Y182395D01*
X-608000D01*
X-607667Y182728D01*
X-582988Y222619D02*
X-584321D01*
X-583655D01*
Y220619D01*
X-584987D02*
Y222619D01*
X-585987D01*
X-586320Y222285D01*
Y221619D01*
X-585987Y221286D01*
X-584987D01*
X-586987Y220619D02*
X-587653D01*
X-587320D01*
Y222619D01*
X-586987Y222285D01*
X-589653Y220619D02*
Y222619D01*
X-588653Y221619D01*
X-589986D01*
X-557496Y223800D02*
X-558829D01*
X-558162D01*
Y221800D01*
X-559495D02*
Y223800D01*
X-560495D01*
X-560828Y223466D01*
Y222800D01*
X-560495Y222467D01*
X-559495D01*
X-561495Y221800D02*
X-562161D01*
X-561828D01*
Y223800D01*
X-561495Y223466D01*
X-564494Y223800D02*
X-563161D01*
Y222800D01*
X-563827Y223133D01*
X-564160D01*
X-564494Y222800D01*
Y222133D01*
X-564160Y221800D01*
X-563494D01*
X-563161Y222133D01*
X-556413Y202638D02*
X-557746D01*
X-557080D01*
Y200639D01*
X-558413D02*
Y202638D01*
X-559412D01*
X-559746Y202305D01*
Y201639D01*
X-559412Y201305D01*
X-558413D01*
X-560412Y200639D02*
X-561079D01*
X-560745D01*
Y202638D01*
X-560412Y202305D01*
X-563411Y202638D02*
X-562745Y202305D01*
X-562078Y201639D01*
Y200972D01*
X-562411Y200639D01*
X-563078D01*
X-563411Y200972D01*
Y201305D01*
X-563078Y201639D01*
X-562078D01*
X-581008Y226647D02*
X-582341D01*
X-581674D01*
Y224647D01*
X-583007D02*
Y226647D01*
X-584007D01*
X-584340Y226314D01*
Y225647D01*
X-584007Y225314D01*
X-583007D01*
X-586339Y224647D02*
X-585007D01*
X-586339Y225980D01*
Y226314D01*
X-586006Y226647D01*
X-585340D01*
X-585007Y226314D01*
X-587006D02*
X-587339Y226647D01*
X-588005D01*
X-588339Y226314D01*
Y224981D01*
X-588005Y224647D01*
X-587339D01*
X-587006Y224981D01*
Y226314D01*
X-557102Y234134D02*
X-558435D01*
X-557769D01*
Y232135D01*
X-559102D02*
Y234134D01*
X-560101D01*
X-560434Y233801D01*
Y233135D01*
X-560101Y232801D01*
X-559102D01*
X-562434Y232135D02*
X-561101D01*
X-562434Y233468D01*
Y233801D01*
X-562101Y234134D01*
X-561434D01*
X-561101Y233801D01*
X-563100Y232135D02*
X-563767D01*
X-563434D01*
Y234134D01*
X-563100Y233801D01*
X-570921Y213937D02*
X-572254D01*
X-571588D01*
Y211938D01*
X-572921D02*
Y213937D01*
X-573920D01*
X-574253Y213604D01*
Y212938D01*
X-573920Y212604D01*
X-572921D01*
X-576253Y211938D02*
X-574920D01*
X-576253Y213271D01*
Y213604D01*
X-575920Y213937D01*
X-575253D01*
X-574920Y213604D01*
X-578252Y211938D02*
X-576919D01*
X-578252Y213271D01*
Y213604D01*
X-577919Y213937D01*
X-577252D01*
X-576919Y213604D01*
X-441220Y316085D02*
X-442553D01*
X-441887D01*
Y314085D01*
X-443220D02*
Y316085D01*
X-444219D01*
X-444553Y315752D01*
Y315085D01*
X-444219Y314752D01*
X-443220D01*
X-446552Y314085D02*
X-445219D01*
X-446552Y315418D01*
Y315752D01*
X-446219Y316085D01*
X-445552D01*
X-445219Y315752D01*
X-448551Y316085D02*
X-447885Y315752D01*
X-447218Y315085D01*
Y314419D01*
X-447552Y314085D01*
X-448218D01*
X-448551Y314419D01*
Y314752D01*
X-448218Y315085D01*
X-447218D01*
X-482791Y219469D02*
X-484124D01*
X-483458D01*
Y217470D01*
X-484791D02*
Y219469D01*
X-485790D01*
X-486124Y219136D01*
Y218469D01*
X-485790Y218136D01*
X-484791D01*
X-488123Y217470D02*
X-486790D01*
X-488123Y218802D01*
Y219136D01*
X-487790Y219469D01*
X-487123D01*
X-486790Y219136D01*
X-488789Y219469D02*
X-490122D01*
Y219136D01*
X-488789Y217803D01*
Y217470D01*
X-508654Y286619D02*
X-509987D01*
X-509321D01*
Y284620D01*
X-510654D02*
Y286619D01*
X-511653D01*
X-511986Y286286D01*
Y285619D01*
X-511653Y285286D01*
X-510654D01*
X-513986Y284620D02*
X-512653D01*
X-513986Y285952D01*
Y286286D01*
X-513653Y286619D01*
X-512986D01*
X-512653Y286286D01*
X-514652Y284953D02*
X-514986Y284620D01*
X-515652D01*
X-515985Y284953D01*
Y286286D01*
X-515652Y286619D01*
X-514986D01*
X-514652Y286286D01*
Y285952D01*
X-514986Y285619D01*
X-515985D01*
X-474797Y325533D02*
X-476130D01*
X-475464D01*
Y323534D01*
X-476796D02*
Y325533D01*
X-477796D01*
X-478129Y325200D01*
Y324534D01*
X-477796Y324200D01*
X-476796D01*
X-478796Y325200D02*
X-479129Y325533D01*
X-479796D01*
X-480129Y325200D01*
Y324867D01*
X-479796Y324534D01*
X-479462D01*
X-479796D01*
X-480129Y324200D01*
Y323867D01*
X-479796Y323534D01*
X-479129D01*
X-478796Y323867D01*
X-480795Y325200D02*
X-481128Y325533D01*
X-481795D01*
X-482128Y325200D01*
Y323867D01*
X-481795Y323534D01*
X-481128D01*
X-480795Y323867D01*
Y325200D01*
X-547617Y269405D02*
X-548950D01*
X-548283D01*
Y267405D01*
X-549616D02*
Y269405D01*
X-550616D01*
X-550949Y269072D01*
Y268405D01*
X-550616Y268072D01*
X-549616D01*
X-551615Y269072D02*
X-551949Y269405D01*
X-552615D01*
X-552948Y269072D01*
Y268738D01*
X-552615Y268405D01*
X-552282D01*
X-552615D01*
X-552948Y268072D01*
Y267739D01*
X-552615Y267405D01*
X-551949D01*
X-551615Y267739D01*
X-553615Y267405D02*
X-554281D01*
X-553948D01*
Y269405D01*
X-553615Y269072D01*
X-476886Y295552D02*
X-478219D01*
X-477552D01*
Y293552D01*
X-478885D02*
Y295552D01*
X-479885D01*
X-480218Y295218D01*
Y294552D01*
X-479885Y294219D01*
X-478885D01*
X-480885Y295218D02*
X-481218Y295552D01*
X-481884D01*
X-482217Y295218D01*
Y294885D01*
X-481884Y294552D01*
X-481551D01*
X-481884D01*
X-482217Y294219D01*
Y293885D01*
X-481884Y293552D01*
X-481218D01*
X-480885Y293885D01*
X-484217Y293552D02*
X-482884D01*
X-484217Y294885D01*
Y295218D01*
X-483883Y295552D01*
X-483217D01*
X-482884Y295218D01*
X-158904Y293168D02*
X-160237D01*
X-159571D01*
Y291168D01*
X-160903D02*
Y293168D01*
X-161903D01*
X-162236Y292835D01*
Y292168D01*
X-161903Y291835D01*
X-160903D01*
X-162903Y292835D02*
X-163236Y293168D01*
X-163902D01*
X-164236Y292835D01*
Y292501D01*
X-163902Y292168D01*
X-163569D01*
X-163902D01*
X-164236Y291835D01*
Y291502D01*
X-163902Y291168D01*
X-163236D01*
X-162903Y291502D01*
X-166235Y293168D02*
X-164902D01*
Y292168D01*
X-165568Y292501D01*
X-165902D01*
X-166235Y292168D01*
Y291502D01*
X-165902Y291168D01*
X-165235D01*
X-164902Y291502D01*
X-129851Y267149D02*
X-128518D01*
X-129185D01*
Y269148D01*
X-127852D02*
Y267149D01*
X-126852D01*
X-126519Y267482D01*
Y268148D01*
X-126852Y268481D01*
X-127852D01*
X-124519Y267149D02*
X-125852D01*
Y268148D01*
X-125186Y267815D01*
X-124853D01*
X-124519Y268148D01*
Y268815D01*
X-124853Y269148D01*
X-125519D01*
X-125852Y268815D01*
X-123853Y267482D02*
X-123520Y267149D01*
X-122853D01*
X-122520Y267482D01*
Y267815D01*
X-122853Y268148D01*
X-122520Y268481D01*
Y268815D01*
X-122853Y269148D01*
X-123520D01*
X-123853Y268815D01*
Y268481D01*
X-123520Y268148D01*
X-123853Y267815D01*
Y267482D01*
X-123520Y268148D02*
X-122853D01*
X-108103Y286151D02*
X-109436D01*
X-108769D01*
Y284151D01*
X-110102D02*
Y286151D01*
X-111102D01*
X-111435Y285817D01*
Y285151D01*
X-111102Y284818D01*
X-110102D01*
X-113434Y286151D02*
X-112101D01*
Y285151D01*
X-112768Y285484D01*
X-113101D01*
X-113434Y285151D01*
Y284485D01*
X-113101Y284151D01*
X-112435D01*
X-112101Y284485D01*
X-114101D02*
X-114434Y284151D01*
X-115101D01*
X-115434Y284485D01*
Y285817D01*
X-115101Y286151D01*
X-114434D01*
X-114101Y285817D01*
Y285484D01*
X-114434Y285151D01*
X-115434D01*
X-83803Y278962D02*
X-85136D01*
X-84470D01*
Y276962D01*
X-85803D02*
Y278962D01*
X-86802D01*
X-87135Y278628D01*
Y277962D01*
X-86802Y277629D01*
X-85803D01*
X-89135Y278962D02*
X-88468Y278628D01*
X-87802Y277962D01*
Y277295D01*
X-88135Y276962D01*
X-88801D01*
X-89135Y277295D01*
Y277629D01*
X-88801Y277962D01*
X-87802D01*
X-91134Y276962D02*
X-89801D01*
X-91134Y278295D01*
Y278628D01*
X-90801Y278962D01*
X-90134D01*
X-89801Y278628D01*
X-67353Y279962D02*
X-68686D01*
X-68019D01*
Y277963D01*
X-69352D02*
Y279962D01*
X-70352D01*
X-70685Y279629D01*
Y278962D01*
X-70352Y278629D01*
X-69352D01*
X-72685Y279962D02*
X-72018Y279629D01*
X-71352Y278962D01*
Y278296D01*
X-71685Y277963D01*
X-72351D01*
X-72685Y278296D01*
Y278629D01*
X-72351Y278962D01*
X-71352D01*
X-73351Y279629D02*
X-73684Y279962D01*
X-74351D01*
X-74684Y279629D01*
Y279296D01*
X-74351Y278962D01*
X-74017D01*
X-74351D01*
X-74684Y278629D01*
Y278296D01*
X-74351Y277963D01*
X-73684D01*
X-73351Y278296D01*
X-41683Y270460D02*
X-43016D01*
X-42350D01*
Y268460D01*
X-43683D02*
Y270460D01*
X-44682D01*
X-45015Y270126D01*
Y269460D01*
X-44682Y269127D01*
X-43683D01*
X-47015Y270460D02*
X-46348Y270126D01*
X-45682Y269460D01*
Y268793D01*
X-46015Y268460D01*
X-46681D01*
X-47015Y268793D01*
Y269127D01*
X-46681Y269460D01*
X-45682D01*
X-48681Y268460D02*
Y270460D01*
X-47681Y269460D01*
X-49014D01*
X21230Y375981D02*
Y377314D01*
Y376648D01*
X19231D01*
Y377981D02*
X21230D01*
Y378980D01*
X20897Y379314D01*
X20230D01*
X19897Y378980D01*
Y377981D01*
X21230Y381313D02*
X20897Y380646D01*
X20230Y379980D01*
X19564D01*
X19231Y380313D01*
Y380980D01*
X19564Y381313D01*
X19897D01*
X20230Y380980D01*
Y379980D01*
X21230Y383312D02*
Y381979D01*
X20230D01*
X20563Y382646D01*
Y382979D01*
X20230Y383312D01*
X19564D01*
X19231Y382979D01*
Y382313D01*
X19564Y381979D01*
X40429Y383279D02*
Y384612D01*
Y383946D01*
X38429D01*
Y385279D02*
X40429D01*
Y386278D01*
X40096Y386611D01*
X39429D01*
X39096Y386278D01*
Y385279D01*
X40429Y388611D02*
X40096Y387944D01*
X39429Y387278D01*
X38763D01*
X38429Y387611D01*
Y388278D01*
X38763Y388611D01*
X39096D01*
X39429Y388278D01*
Y387278D01*
X40429Y390610D02*
X40096Y389944D01*
X39429Y389277D01*
X38763D01*
X38429Y389610D01*
Y390277D01*
X38763Y390610D01*
X39096D01*
X39429Y390277D01*
Y389277D01*
X-339253Y225766D02*
X-340586D01*
X-339920D01*
Y223766D01*
X-341252D02*
Y225766D01*
X-342252D01*
X-342585Y225432D01*
Y224766D01*
X-342252Y224433D01*
X-341252D01*
X-343252Y223766D02*
X-343918D01*
X-343585D01*
Y225766D01*
X-343252Y225432D01*
X-344918D02*
X-345251Y225766D01*
X-345918D01*
X-346251Y225432D01*
Y224099D01*
X-345918Y223766D01*
X-345251D01*
X-344918Y224099D01*
Y225432D01*
X-348250Y225766D02*
X-347584Y225432D01*
X-346917Y224766D01*
Y224099D01*
X-347251Y223766D01*
X-347917D01*
X-348250Y224099D01*
Y224433D01*
X-347917Y224766D01*
X-346917D01*
X-305331Y225473D02*
X-306663D01*
X-305997D01*
Y223474D01*
X-307330D02*
Y225473D01*
X-308330D01*
X-308663Y225140D01*
Y224473D01*
X-308330Y224140D01*
X-307330D01*
X-309329Y223474D02*
X-309996D01*
X-309663D01*
Y225473D01*
X-309329Y225140D01*
X-310996D02*
X-311329Y225473D01*
X-311995D01*
X-312328Y225140D01*
Y223807D01*
X-311995Y223474D01*
X-311329D01*
X-310996Y223807D01*
Y225140D01*
X-312995Y225473D02*
X-314328D01*
Y225140D01*
X-312995Y223807D01*
Y223474D01*
X-276541Y224986D02*
X-277874D01*
X-277208D01*
Y222986D01*
X-278540D02*
Y224986D01*
X-279540D01*
X-279873Y224652D01*
Y223986D01*
X-279540Y223653D01*
X-278540D01*
X-280540Y222986D02*
X-281206D01*
X-280873D01*
Y224986D01*
X-280540Y224652D01*
X-282206D02*
X-282539Y224986D01*
X-283206D01*
X-283539Y224652D01*
Y223319D01*
X-283206Y222986D01*
X-282539D01*
X-282206Y223319D01*
Y224652D01*
X-284205D02*
X-284539Y224986D01*
X-285205D01*
X-285538Y224652D01*
Y224319D01*
X-285205Y223986D01*
X-285538Y223653D01*
Y223319D01*
X-285205Y222986D01*
X-284539D01*
X-284205Y223319D01*
Y223653D01*
X-284539Y223986D01*
X-284205Y224319D01*
Y224652D01*
X-284539Y223986D02*
X-285205D01*
X-473351Y308266D02*
X-474684D01*
X-474018D01*
Y306267D01*
X-475351D02*
Y308266D01*
X-476350D01*
X-476683Y307933D01*
Y307267D01*
X-476350Y306933D01*
X-475351D01*
X-477350Y306267D02*
X-478016D01*
X-477683D01*
Y308266D01*
X-477350Y307933D01*
X-480349Y306267D02*
X-479016D01*
X-480349Y307600D01*
Y307933D01*
X-480016Y308266D01*
X-479349D01*
X-479016Y307933D01*
X-481015D02*
X-481349Y308266D01*
X-482015D01*
X-482348Y307933D01*
Y307600D01*
X-482015Y307267D01*
X-482348Y306933D01*
Y306600D01*
X-482015Y306267D01*
X-481349D01*
X-481015Y306600D01*
Y306933D01*
X-481349Y307267D01*
X-481015Y307600D01*
Y307933D01*
X-481349Y307267D02*
X-482015D01*
X-484618Y302799D02*
X-485951D01*
X-485285D01*
Y300800D01*
X-486617D02*
Y302799D01*
X-487617D01*
X-487950Y302466D01*
Y301800D01*
X-487617Y301466D01*
X-486617D01*
X-488617Y300800D02*
X-489283D01*
X-488950D01*
Y302799D01*
X-488617Y302466D01*
X-491616Y300800D02*
X-490283D01*
X-491616Y302133D01*
Y302466D01*
X-491283Y302799D01*
X-490616D01*
X-490283Y302466D01*
X-492282Y301133D02*
X-492616Y300800D01*
X-493282D01*
X-493615Y301133D01*
Y302466D01*
X-493282Y302799D01*
X-492616D01*
X-492282Y302466D01*
Y302133D01*
X-492616Y301800D01*
X-493615D01*
X-550106Y293726D02*
X-549440D01*
X-549773D01*
Y292059D01*
X-549440Y291726D01*
X-549106D01*
X-548773Y292059D01*
X-550772Y291726D02*
Y293726D01*
X-551772D01*
X-552105Y293392D01*
Y292726D01*
X-551772Y292393D01*
X-550772D01*
X-554105Y291726D02*
X-552772D01*
X-554105Y293059D01*
Y293392D01*
X-553771Y293726D01*
X-553105D01*
X-552772Y293392D01*
G54D18*
X-572940Y266043D02*
Y266876D01*
Y266459D01*
X-570857D01*
X-570440Y266876D01*
Y267292D01*
X-570857Y267709D01*
X-570440Y265210D02*
X-572940D01*
Y263960D01*
X-572523Y263543D01*
X-571690D01*
X-571274Y263960D01*
Y265210D01*
X-570440Y262710D02*
Y261877D01*
Y262294D01*
X-572940D01*
X-572523Y262710D01*
G54D24*
X-568594Y266489D02*
X-569302Y266196D01*
X-569594Y265489D01*
Y254489D02*
X-569302Y253782D01*
X-568594Y253489D01*
X-562594D02*
X-561887Y253782D01*
X-561594Y254489D01*
Y265489D02*
X-561887Y266196D01*
X-562594Y266489D01*
X-560661Y288989D02*
X-561369Y288696D01*
X-561661Y287989D01*
X-548661D02*
X-548954Y288696D01*
X-549661Y288989D01*
Y280989D02*
X-548954Y281282D01*
X-548661Y281989D01*
X-561661D02*
X-561369Y281282D01*
X-560661Y280989D01*
X-561594Y254489D02*
Y265489D01*
X-568594Y253489D02*
X-562594D01*
X-568594Y266489D02*
X-562594D01*
X-569594Y254489D02*
Y265489D01*
X-560661Y280989D02*
X-549661D01*
X-561661Y281989D02*
Y287989D01*
X-548661Y281989D02*
Y287989D01*
X-560661Y288989D02*
X-549661D01*
X106714Y169150D02*
Y172150D01*
X105715Y171150D01*
X104715Y172150D01*
Y169150D01*
X102216Y172150D02*
X103216D01*
X103715Y171650D01*
Y169650D01*
X103216Y169150D01*
X102216D01*
X101716Y169650D01*
Y171650D01*
X102216Y172150D01*
X98717Y171650D02*
X99217Y172150D01*
X100216D01*
X100716Y171650D01*
Y171150D01*
X100216Y170650D01*
X99217D01*
X98717Y170150D01*
Y169650D01*
X99217Y169150D01*
X100216D01*
X100716Y169650D01*
X95718Y172150D02*
X97717D01*
Y170650D01*
X96718D01*
X97717D01*
Y169150D01*
X92719Y172150D02*
X94718D01*
Y169150D01*
X92719D01*
X94718Y170650D02*
X93718D01*
X91719Y172150D02*
X89720D01*
X90719D01*
Y169150D01*
X86721Y171650D02*
X87221Y172150D01*
X88220D01*
X88720Y171650D01*
Y171150D01*
X88220Y170650D01*
X87221D01*
X86721Y170150D01*
Y169650D01*
X87221Y169150D01*
X88220D01*
X88720Y169650D01*
X85221Y168651D02*
X84721Y169150D01*
Y169650D01*
X85221D01*
Y169150D01*
X84721D01*
X85221Y168651D01*
X85721Y168151D01*
X115462Y167111D02*
X117461D01*
Y165611D01*
X116461D01*
X117461D01*
Y164112D01*
X114462D02*
Y166111D01*
X113462Y167111D01*
X112462Y166111D01*
Y164112D01*
Y165611D01*
X114462D01*
X111463Y164112D02*
Y167111D01*
X109463Y164112D01*
Y167111D01*
X106464Y166611D02*
X106964Y167111D01*
X107964D01*
X108464Y166611D01*
Y166111D01*
X107964Y165611D01*
X106964D01*
X106464Y165111D01*
Y164611D01*
X106964Y164112D01*
X107964D01*
X108464Y164611D01*
X104965Y163612D02*
X104465Y164112D01*
Y164611D01*
X104965D01*
Y164112D01*
X104465D01*
X104965Y163612D01*
X105465Y163112D01*
X99467Y164112D02*
Y166111D01*
X98467Y167111D01*
X97467Y166111D01*
Y164112D01*
Y165611D01*
X99467D01*
X96468Y164112D02*
Y167111D01*
X94468Y164112D01*
Y167111D01*
X93469D02*
Y164112D01*
X91969D01*
X91469Y164611D01*
Y166611D01*
X91969Y167111D01*
X93469D01*
X87471D02*
Y164112D01*
X85471D01*
X82972Y167111D02*
X83972D01*
X84471Y166611D01*
Y164611D01*
X83972Y164112D01*
X82972D01*
X82472Y164611D01*
Y166611D01*
X82972Y167111D01*
X79473Y166611D02*
X79973Y167111D01*
X80973D01*
X81472Y166611D01*
Y164611D01*
X80973Y164112D01*
X79973D01*
X79473Y164611D01*
Y165611D01*
X80473D01*
X78474Y167111D02*
X77474D01*
X77974D01*
Y164112D01*
X78474D01*
X77474D01*
X73975Y166611D02*
X74475Y167111D01*
X75474D01*
X75974Y166611D01*
Y164611D01*
X75474Y164112D01*
X74475D01*
X73975Y164611D01*
X119567Y341425D02*
Y338426D01*
Y339926D01*
X117567D01*
Y341425D01*
Y338426D01*
X116568Y341425D02*
X114568D01*
X115568D01*
Y338426D01*
X113569Y341425D02*
Y338426D01*
X112069D01*
X111569Y338926D01*
Y339426D01*
X112069Y339926D01*
X113569D01*
X112069D01*
X111569Y340426D01*
Y340925D01*
X112069Y341425D01*
X113569D01*
X110570D02*
Y338426D01*
X109070D01*
X108570Y338926D01*
Y340925D01*
X109070Y341425D01*
X110570D01*
X103072D02*
X104072D01*
X104572Y340925D01*
Y338926D01*
X104072Y338426D01*
X103072D01*
X102572Y338926D01*
Y340925D01*
X103072Y341425D01*
X101573D02*
Y338926D01*
X101073Y338426D01*
X100073D01*
X99573Y338926D01*
Y341425D01*
X98573D02*
X96574D01*
X97574D01*
Y338426D01*
X92576Y339926D02*
X90576D01*
X119567Y308431D02*
Y305432D01*
Y306932D01*
X117567D01*
Y308431D01*
Y305432D01*
X116568Y308431D02*
X114568D01*
X115568D01*
Y305432D01*
X113569Y308431D02*
Y305432D01*
X112069D01*
X111569Y305932D01*
Y306432D01*
X112069Y306932D01*
X113569D01*
X112069D01*
X111569Y307432D01*
Y307931D01*
X112069Y308431D01*
X113569D01*
X110570D02*
Y305432D01*
X109070D01*
X108570Y305932D01*
Y307931D01*
X109070Y308431D01*
X110570D01*
X103072D02*
X104072D01*
X104572Y307931D01*
Y305932D01*
X104072Y305432D01*
X103072D01*
X102572Y305932D01*
Y307931D01*
X103072Y308431D01*
X101573D02*
Y305932D01*
X101073Y305432D01*
X100073D01*
X99573Y305932D01*
Y308431D01*
X98573D02*
X96574D01*
X97574D01*
Y305432D01*
X92576Y306932D02*
X90576D01*
X91576Y307931D02*
Y305932D01*
X96574Y275562D02*
X97074Y276062D01*
X98074D01*
X98573Y275562D01*
Y273563D01*
X98074Y273063D01*
X97074D01*
X96574Y273563D01*
Y274563D01*
X97574D01*
X95574Y273063D02*
Y276062D01*
X93575Y273063D01*
Y276062D01*
X92576D02*
Y273063D01*
X91076D01*
X90576Y273563D01*
Y275562D01*
X91076Y276062D01*
X92576D01*
X110070Y243458D02*
Y241459D01*
X109070Y240459D01*
X108071Y241459D01*
Y243458D01*
X107071D02*
X106071D01*
X106571D01*
Y240459D01*
X107071D01*
X106071D01*
X104572D02*
Y243458D01*
X102572Y240459D01*
Y243458D01*
X98573D02*
Y240459D01*
X97074D01*
X96574Y240959D01*
Y241459D01*
X97074Y241958D01*
X98573D01*
X97074D01*
X96574Y242458D01*
Y242958D01*
X97074Y243458D01*
X98573D01*
X93575D02*
X95574D01*
Y240459D01*
X93575D01*
X95574Y241958D02*
X94575D01*
X92576Y243458D02*
Y240459D01*
X91076D01*
X90576Y240959D01*
Y242958D01*
X91076Y243458D01*
X92576D01*
X96574Y210119D02*
X97074Y210619D01*
X98074D01*
X98573Y210119D01*
Y208120D01*
X98074Y207620D01*
X97074D01*
X96574Y208120D01*
Y209120D01*
X97574D01*
X95574Y207620D02*
Y210619D01*
X93575Y207620D01*
Y210619D01*
X92576D02*
Y207620D01*
X91076D01*
X90576Y208120D01*
Y210119D01*
X91076Y210619D01*
X92576D01*
X110070Y177703D02*
Y175704D01*
X109070Y174704D01*
X108071Y175704D01*
Y177703D01*
X107071D02*
X106071D01*
X106571D01*
Y174704D01*
X107071D01*
X106071D01*
X104572D02*
Y177703D01*
X102572Y174704D01*
Y177703D01*
X98573D02*
Y175704D01*
X97574Y174704D01*
X96574Y175704D01*
Y177703D01*
X95574Y174704D02*
Y177703D01*
X94075D01*
X93575Y177203D01*
Y176204D01*
X94075Y175704D01*
X95574D01*
X92576Y177703D02*
Y174704D01*
X91576Y175704D01*
X90576Y174704D01*
Y177703D01*
X89576Y174704D02*
Y177703D01*
X88077D01*
X87577Y177203D01*
Y176204D01*
X88077Y175704D01*
X89576D01*
X88577D02*
X87577Y174704D01*
X96574Y146003D02*
X97074Y146503D01*
X98074D01*
X98573Y146003D01*
Y144004D01*
X98074Y143504D01*
X97074D01*
X96574Y144004D01*
Y145004D01*
X97574D01*
X95574Y143504D02*
Y146503D01*
X93575Y143504D01*
Y146503D01*
X92576D02*
Y143504D01*
X91076D01*
X90576Y144004D01*
Y146003D01*
X91076Y146503D01*
X92576D01*
X113069Y113509D02*
Y111510D01*
X112069Y110510D01*
X111070Y111510D01*
Y113509D01*
X110070D02*
X109070D01*
X109570D01*
Y110510D01*
X110070D01*
X109070D01*
X107571D02*
Y113509D01*
X105571Y110510D01*
Y113509D01*
X101573Y110510D02*
Y113509D01*
X100573Y112510D01*
X99573Y113509D01*
Y110510D01*
X97074Y113509D02*
X98074D01*
X98573Y113009D01*
Y111010D01*
X98074Y110510D01*
X97074D01*
X96574Y111010D01*
Y113009D01*
X97074Y113509D01*
X95574D02*
X93575D01*
X94575D01*
Y110510D01*
X92576D02*
X91576D01*
X92076D01*
Y113509D01*
X92576Y113009D01*
X113069Y48379D02*
Y46380D01*
X112069Y45380D01*
X111070Y46380D01*
Y48379D01*
X110070D02*
X109070D01*
X109570D01*
Y45380D01*
X110070D01*
X109070D01*
X107571D02*
Y48379D01*
X105571Y45380D01*
Y48379D01*
X101573Y45380D02*
Y48379D01*
X100573Y47380D01*
X99573Y48379D01*
Y45380D01*
X97074Y48379D02*
X98074D01*
X98573Y47879D01*
Y45880D01*
X98074Y45380D01*
X97074D01*
X96574Y45880D01*
Y47879D01*
X97074Y48379D01*
X95574D02*
X93575D01*
X94575D01*
Y45380D01*
X90576D02*
X92576D01*
X90576Y47380D01*
Y47879D01*
X91076Y48379D01*
X92076D01*
X92576Y47879D01*
X-233017Y283408D02*
X-235683D01*
X-222955D02*
X-225621D01*
X-224288Y284740D02*
Y282075D01*
X-277135Y172717D02*
Y170718D01*
X-280134D01*
Y172717D01*
X-278634Y170718D02*
Y171717D01*
X-280134Y173717D02*
X-277135D01*
Y175216D01*
X-277635Y175716D01*
X-278634D01*
X-279134Y175216D01*
Y173717D01*
Y174716D02*
X-280134Y175716D01*
Y176716D02*
X-278134D01*
X-277135Y177715D01*
X-278134Y178715D01*
X-280134D01*
X-278634D01*
Y176716D01*
X-277635Y181714D02*
X-277135Y181214D01*
Y180215D01*
X-277635Y179715D01*
X-278134D01*
X-278634Y180215D01*
Y181214D01*
X-279134Y181714D01*
X-279634D01*
X-280134Y181214D01*
Y180215D01*
X-279634Y179715D01*
X-277135Y184713D02*
Y182714D01*
X-280134D01*
Y184713D01*
X-278634Y182714D02*
Y183713D01*
X-307654Y179311D02*
X-307154Y178812D01*
Y177812D01*
X-307654Y177312D01*
X-309654D01*
X-310154Y177812D01*
Y178812D01*
X-309654Y179311D01*
X-308654D01*
Y178312D01*
X-310154Y180311D02*
X-307154D01*
X-310154Y182310D01*
X-307154D01*
Y183310D02*
X-310154D01*
Y184810D01*
X-309654Y185310D01*
X-307654D01*
X-307154Y184810D01*
Y183310D01*
X-287871Y174950D02*
X-287371Y175450D01*
Y176449D01*
X-287871Y176949D01*
X-288371D01*
X-288871Y176449D01*
Y175950D01*
Y176449D01*
X-289370Y176949D01*
X-289870D01*
X-290370Y176449D01*
Y175450D01*
X-289870Y174950D01*
X-290370Y177949D02*
X-289870D01*
Y178449D01*
X-290370D01*
Y177949D01*
X-287871Y180448D02*
X-287371Y180948D01*
Y181948D01*
X-287871Y182448D01*
X-288371D01*
X-288871Y181948D01*
Y181448D01*
Y181948D01*
X-289370Y182448D01*
X-289870D01*
X-290370Y181948D01*
Y180948D01*
X-289870Y180448D01*
X-287371Y183447D02*
X-289370D01*
X-290370Y184447D01*
X-289370Y185447D01*
X-287371D01*
X-297410Y180591D02*
Y178592D01*
X-298910D01*
X-298410Y179591D01*
Y180091D01*
X-298910Y180591D01*
X-299909D01*
X-300409Y180091D01*
Y179092D01*
X-299909Y178592D01*
X-297410Y181591D02*
X-299410D01*
X-300409Y182590D01*
X-299410Y183590D01*
X-297410D01*
X-242767Y289882D02*
X-245433D01*
X-244100Y291214D02*
Y288549D01*
X-232861Y289960D02*
X-235527D01*
X-290370Y204379D02*
X-288371D01*
Y205878D01*
X-288871Y206378D01*
X-290370D01*
Y207378D02*
X-287371D01*
Y208878D01*
X-287871Y209377D01*
X-288871D01*
X-289370Y208878D01*
Y207378D01*
Y208378D02*
X-290370Y209377D01*
X-287871Y212376D02*
X-287371Y211877D01*
Y210877D01*
X-287871Y210377D01*
X-288371D01*
X-288871Y210877D01*
Y211877D01*
X-289370Y212376D01*
X-289870D01*
X-290370Y211877D01*
Y210877D01*
X-289870Y210377D01*
X-287371Y213376D02*
Y215375D01*
Y214376D01*
X-290370D01*
X-338598Y309839D02*
X-340598Y306840D01*
Y309839D02*
X-338598Y306840D01*
X-341597Y308339D02*
X-343597D01*
X-344596Y306840D02*
Y309839D01*
X-345596Y308839D01*
X-346596Y309839D01*
Y306840D01*
X-347595Y309839D02*
X-348595D01*
X-348095D01*
Y306840D01*
X-347595D01*
X-348595D01*
X-350095D02*
Y309839D01*
X-352094Y306840D01*
Y309839D01*
X-307450Y204379D02*
X-309949D01*
X-310449Y204879D01*
Y205878D01*
X-309949Y206378D01*
X-307450D01*
Y207378D02*
Y209377D01*
Y208378D01*
X-310449D01*
X-307450Y210377D02*
X-310449Y212376D01*
X-307450D02*
X-310449Y210377D01*
X-307450Y213376D02*
X-310449D01*
Y214876D01*
X-309949Y215375D01*
X-307950D01*
X-307450Y214876D01*
Y213376D01*
X96574Y80483D02*
X97074Y80983D01*
X98074D01*
X98573Y80483D01*
Y78484D01*
X98074Y77984D01*
X97074D01*
X96574Y78484D01*
Y79484D01*
X97574D01*
X95574Y77984D02*
Y80983D01*
X93575Y77984D01*
Y80983D01*
X92576D02*
Y77984D01*
X91076D01*
X90576Y78484D01*
Y80483D01*
X91076Y80983D01*
X92576D01*
X-277627Y206772D02*
Y204773D01*
X-279126D01*
X-278627Y205772D01*
Y206272D01*
X-279126Y206772D01*
X-280126D01*
X-280626Y206272D01*
Y205273D01*
X-280126Y204773D01*
X-277627Y207772D02*
X-279626D01*
X-280626Y208771D01*
X-279626Y209771D01*
X-277627D01*
X-310700Y309863D02*
Y309363D01*
X-311700Y308363D01*
X-312700Y309363D01*
Y309863D01*
X-311700Y308363D02*
Y306864D01*
X-313699Y308363D02*
X-315699D01*
X-316698Y306864D02*
Y309863D01*
X-317698Y308863D01*
X-318698Y309863D01*
Y306864D01*
X-319697Y309863D02*
X-320697D01*
X-320197D01*
Y306864D01*
X-319697D01*
X-320697D01*
X-322197D02*
Y309863D01*
X-324196Y306864D01*
Y309863D01*
X-308606Y267398D02*
Y266898D01*
X-309606Y265898D01*
X-310606Y266898D01*
Y267398D01*
X-309606Y265898D02*
Y264399D01*
X-311605Y265898D02*
X-313605D01*
X-314604Y264399D02*
Y267398D01*
X-315604Y266398D01*
X-316604Y267398D01*
Y264399D01*
X-317603D02*
Y266398D01*
X-318603Y267398D01*
X-319603Y266398D01*
Y264399D01*
Y265898D01*
X-317603D01*
X-320602Y267398D02*
X-322602Y264399D01*
Y267398D02*
X-320602Y264399D01*
X-271803Y310113D02*
X-273802D01*
Y309614D01*
X-271803Y307614D01*
Y307114D01*
X-273802D01*
X-274802Y308614D02*
X-276801D01*
X-277801Y307114D02*
Y310113D01*
X-278801Y309114D01*
X-279801Y310113D01*
Y307114D01*
X-280800Y310113D02*
X-281800D01*
X-281300D01*
Y307114D01*
X-280800D01*
X-281800D01*
X-283299D02*
Y310113D01*
X-285299Y307114D01*
Y310113D01*
X-362445Y266113D02*
X-364444Y263114D01*
Y266113D02*
X-362445Y263114D01*
X-365444Y264614D02*
X-367443D01*
X-368443Y263114D02*
Y266113D01*
X-369443Y265114D01*
X-370442Y266113D01*
Y263114D01*
X-371442D02*
Y265114D01*
X-372442Y266113D01*
X-373441Y265114D01*
Y263114D01*
Y264614D01*
X-371442D01*
X-374441Y266113D02*
X-376440Y263114D01*
Y266113D02*
X-374441Y263114D01*
X-267579Y266803D02*
X-269578D01*
Y266303D01*
X-267579Y264303D01*
Y263804D01*
X-269578D01*
X-270578Y265303D02*
X-272577D01*
X-273577Y263804D02*
Y266803D01*
X-274576Y265803D01*
X-275576Y266803D01*
Y263804D01*
X-276576D02*
Y265803D01*
X-277575Y266803D01*
X-278575Y265803D01*
Y263804D01*
Y265303D01*
X-276576D01*
X-279575Y266803D02*
X-281574Y263804D01*
Y266803D02*
X-279575Y263804D01*
X-297509Y203690D02*
X-300008D01*
X-300508Y204190D01*
Y205190D01*
X-300008Y205689D01*
X-297509D01*
X-300508Y206689D02*
X-297509D01*
Y208189D01*
X-298009Y208688D01*
X-299008D01*
X-299508Y208189D01*
Y206689D01*
Y207689D02*
X-300508Y208688D01*
X-297509Y209688D02*
X-300508Y211687D01*
X-297509D02*
X-300508Y209688D01*
X-297509Y212687D02*
X-300508D01*
Y214187D01*
X-300008Y214686D01*
X-298009D01*
X-297509Y214187D01*
Y212687D01*
X-267891Y206575D02*
X-267391Y206075D01*
Y205076D01*
X-267891Y204576D01*
X-269890D01*
X-270390Y205076D01*
Y206075D01*
X-269890Y206575D01*
X-268890D01*
Y205576D01*
X-270390Y207575D02*
X-267391D01*
X-270390Y209574D01*
X-267391D01*
Y210574D02*
X-270390D01*
Y212073D01*
X-269890Y212573D01*
X-267891D01*
X-267391Y212073D01*
Y210574D01*
X-453757Y286322D02*
X-450758D01*
Y287822D01*
X-451258Y288322D01*
X-452258D01*
X-452758Y287822D01*
Y286322D01*
Y287322D02*
X-453757Y288322D01*
X-450758Y291321D02*
Y289321D01*
X-453757D01*
Y291321D01*
X-452258Y289321D02*
Y290321D01*
X-451258Y294320D02*
X-450758Y293820D01*
Y292820D01*
X-451258Y292320D01*
X-451758D01*
X-452258Y292820D01*
Y293820D01*
X-452758Y294320D01*
X-453257D01*
X-453757Y293820D01*
Y292820D01*
X-453257Y292320D01*
X-450758Y297319D02*
Y295319D01*
X-453757D01*
Y297319D01*
X-452258Y295319D02*
Y296319D01*
X-450758Y298318D02*
Y300318D01*
Y299318D01*
X-453757D01*
X-441820Y345262D02*
X-441320Y344762D01*
Y343762D01*
X-441820Y343262D01*
X-442320D01*
X-442820Y343762D01*
Y344762D01*
X-443320Y345262D01*
X-443819D01*
X-444319Y344762D01*
Y343762D01*
X-443819Y343262D01*
X-441320Y346261D02*
X-444319D01*
X-443320Y347261D01*
X-444319Y348261D01*
X-441320D01*
Y350760D02*
Y349760D01*
X-441820Y349260D01*
X-443819D01*
X-444319Y349760D01*
Y350760D01*
X-443819Y351260D01*
X-441820D01*
X-441320Y350760D01*
X-444319Y352259D02*
X-442320Y354259D01*
X-441320Y355258D02*
Y357258D01*
Y356258D01*
X-444319D01*
X-441320Y358257D02*
X-444319D01*
Y359757D01*
X-443819Y360257D01*
X-441820D01*
X-441320Y359757D01*
Y358257D01*
Y362756D02*
Y361756D01*
X-441820Y361256D01*
X-443819D01*
X-444319Y361756D01*
Y362756D01*
X-443819Y363256D01*
X-441820D01*
X-441320Y362756D01*
X-455360Y330548D02*
Y332548D01*
Y331548D01*
X-458359D01*
X-455360Y333547D02*
X-458359D01*
Y335047D01*
X-457859Y335547D01*
X-455860D01*
X-455360Y335047D01*
Y333547D01*
Y336546D02*
Y337546D01*
Y337046D01*
X-458359D01*
Y336546D01*
Y337546D01*
X-430712Y309020D02*
Y311020D01*
Y310020D01*
X-433711D01*
X-431212Y314019D02*
X-430712Y313519D01*
Y312519D01*
X-431212Y312019D01*
X-433211D01*
X-433711Y312519D01*
Y313519D01*
X-433211Y314019D01*
X-430712Y315018D02*
X-433711D01*
X-432712D01*
X-430712Y317018D01*
X-432212Y315518D01*
X-433711Y317018D01*
Y318017D02*
X-431712Y320017D01*
X-431212Y323016D02*
X-430712Y322516D01*
Y321516D01*
X-431212Y321016D01*
X-431712D01*
X-432212Y321516D01*
Y322516D01*
X-432712Y323016D01*
X-433211D01*
X-433711Y322516D01*
Y321516D01*
X-433211Y321016D01*
X-430712Y324015D02*
X-433711D01*
X-432712Y325015D01*
X-433711Y326015D01*
X-430712D01*
X-431212Y329014D02*
X-430712Y328514D01*
Y327514D01*
X-431212Y327014D01*
X-433211D01*
X-433711Y327514D01*
Y328514D01*
X-433211Y329014D01*
X-430712Y330013D02*
X-433711D01*
Y332013D01*
X-430712Y333012D02*
X-433711D01*
X-432712D01*
X-430712Y335012D01*
X-432212Y333512D01*
X-433711Y335012D01*
M02*
