G04*
G04 #@! TF.GenerationSoftware,Altium Limited,Altium Designer,19.1.8 (144)*
G04*
G04 Layer_Color=16711935*
%FSLAX25Y25*%
%MOIN*%
G70*
G01*
G75*
%ADD12C,0.01000*%
%ADD15C,0.00800*%
%ADD303C,0.01500*%
%ADD386C,0.00100*%
G54D12*
X749127Y-117817D02*
Y-123815D01*
X753126D01*
X756125Y-119816D02*
X758124D01*
X759124Y-120816D01*
Y-123815D01*
X756125D01*
X755125Y-122815D01*
X756125Y-121816D01*
X759124D01*
X761123Y-119816D02*
Y-122815D01*
X762123Y-123815D01*
X765122D01*
Y-124815D01*
X764122Y-125814D01*
X763122D01*
X765122Y-123815D02*
Y-119816D01*
X770120Y-123815D02*
X768121D01*
X767121Y-122815D01*
Y-120816D01*
X768121Y-119816D01*
X770120D01*
X771120Y-120816D01*
Y-121816D01*
X767121D01*
X773119Y-119816D02*
Y-123815D01*
Y-121816D01*
X774119Y-120816D01*
X775118Y-119816D01*
X776118D01*
X753126Y-273817D02*
X751126Y-274817D01*
X749127Y-276816D01*
Y-278815D01*
X750127Y-279815D01*
X752126D01*
X753126Y-278815D01*
Y-277816D01*
X752126Y-276816D01*
X749127D01*
X753126Y-249817D02*
X749127D01*
Y-252816D01*
X751126Y-251816D01*
X752126D01*
X753126Y-252816D01*
Y-254815D01*
X752126Y-255815D01*
X750127D01*
X749127Y-254815D01*
X752126Y-231815D02*
Y-225817D01*
X749127Y-228816D01*
X753126D01*
X749127Y-202817D02*
X750127Y-201817D01*
X752126D01*
X753126Y-202817D01*
Y-203816D01*
X752126Y-204816D01*
X751126D01*
X752126D01*
X753126Y-205816D01*
Y-206815D01*
X752126Y-207815D01*
X750127D01*
X749127Y-206815D01*
X753126Y-183815D02*
X749127D01*
X753126Y-179816D01*
Y-178817D01*
X752126Y-177817D01*
X750127D01*
X749127Y-178817D01*
Y-159815D02*
X751126D01*
X750127D01*
Y-153817D01*
X749127Y-154817D01*
X790118Y-123815D02*
Y-117817D01*
X794117Y-123815D01*
Y-117817D01*
X797116Y-119816D02*
X799115D01*
X800115Y-120816D01*
Y-123815D01*
X797116D01*
X796116Y-122815D01*
X797116Y-121816D01*
X800115D01*
X802114Y-123815D02*
Y-119816D01*
X803114D01*
X804114Y-120816D01*
Y-123815D01*
Y-120816D01*
X805113Y-119816D01*
X806113Y-120816D01*
Y-123815D01*
X811111D02*
X809112D01*
X808112Y-122815D01*
Y-120816D01*
X809112Y-119816D01*
X811111D01*
X812111Y-120816D01*
Y-121816D01*
X808112D01*
X790118Y-297817D02*
Y-303815D01*
X793117D01*
X794117Y-302815D01*
Y-301816D01*
X793117Y-300816D01*
X790118D01*
X793117D01*
X794117Y-299816D01*
Y-298817D01*
X793117Y-297817D01*
X790118D01*
X797116Y-303815D02*
X799115D01*
X800115Y-302815D01*
Y-300816D01*
X799115Y-299816D01*
X797116D01*
X796116Y-300816D01*
Y-302815D01*
X797116Y-303815D01*
X803114Y-298817D02*
Y-299816D01*
X802114D01*
X804114D01*
X803114D01*
Y-302815D01*
X804114Y-303815D01*
X808112Y-298817D02*
Y-299816D01*
X807113D01*
X809112D01*
X808112D01*
Y-302815D01*
X809112Y-303815D01*
X813111D02*
X815110D01*
X816110Y-302815D01*
Y-300816D01*
X815110Y-299816D01*
X813111D01*
X812111Y-300816D01*
Y-302815D01*
X813111Y-303815D01*
X818109D02*
Y-299816D01*
X819109D01*
X820108Y-300816D01*
Y-303815D01*
Y-300816D01*
X821108Y-299816D01*
X822108Y-300816D01*
Y-303815D01*
X833104Y-297817D02*
X831105D01*
X830105Y-298817D01*
Y-302815D01*
X831105Y-303815D01*
X833104D01*
X834104Y-302815D01*
Y-298817D01*
X833104Y-297817D01*
X836103Y-299816D02*
X838103Y-303815D01*
X840102Y-299816D01*
X845100Y-303815D02*
X843101D01*
X842101Y-302815D01*
Y-300816D01*
X843101Y-299816D01*
X845100D01*
X846100Y-300816D01*
Y-301816D01*
X842101D01*
X848099Y-299816D02*
Y-303815D01*
Y-301816D01*
X849099Y-300816D01*
X850099Y-299816D01*
X851098D01*
X854097Y-303815D02*
X856097D01*
X855097D01*
Y-297817D01*
X854097D01*
X860096Y-299816D02*
X862095D01*
X863095Y-300816D01*
Y-303815D01*
X860096D01*
X859096Y-302815D01*
X860096Y-301816D01*
X863095D01*
X865094Y-299816D02*
Y-302815D01*
X866094Y-303815D01*
X869093D01*
Y-304815D01*
X868093Y-305814D01*
X867093D01*
X869093Y-303815D02*
Y-299816D01*
X790118Y-285817D02*
Y-291815D01*
X793117D01*
X794117Y-290815D01*
Y-289816D01*
X793117Y-288816D01*
X790118D01*
X793117D01*
X794117Y-287816D01*
Y-286817D01*
X793117Y-285817D01*
X790118D01*
X797116Y-291815D02*
X799115D01*
X800115Y-290815D01*
Y-288816D01*
X799115Y-287816D01*
X797116D01*
X796116Y-288816D01*
Y-290815D01*
X797116Y-291815D01*
X803114Y-286817D02*
Y-287816D01*
X802114D01*
X804114D01*
X803114D01*
Y-290815D01*
X804114Y-291815D01*
X808112Y-286817D02*
Y-287816D01*
X807113D01*
X809112D01*
X808112D01*
Y-290815D01*
X809112Y-291815D01*
X813111D02*
X815110D01*
X816110Y-290815D01*
Y-288816D01*
X815110Y-287816D01*
X813111D01*
X812111Y-288816D01*
Y-290815D01*
X813111Y-291815D01*
X818109D02*
Y-287816D01*
X819109D01*
X820108Y-288816D01*
Y-291815D01*
Y-288816D01*
X821108Y-287816D01*
X822108Y-288816D01*
Y-291815D01*
X834104Y-286817D02*
X833104Y-285817D01*
X831105D01*
X830105Y-286817D01*
Y-287816D01*
X831105Y-288816D01*
X833104D01*
X834104Y-289816D01*
Y-290815D01*
X833104Y-291815D01*
X831105D01*
X830105Y-290815D01*
X837103Y-291815D02*
X839102D01*
X840102Y-290815D01*
Y-288816D01*
X839102Y-287816D01*
X837103D01*
X836103Y-288816D01*
Y-290815D01*
X837103Y-291815D01*
X842101D02*
X844101D01*
X843101D01*
Y-285817D01*
X842101D01*
X851098D02*
Y-291815D01*
X848099D01*
X847100Y-290815D01*
Y-288816D01*
X848099Y-287816D01*
X851098D01*
X856097Y-291815D02*
X854097D01*
X853098Y-290815D01*
Y-288816D01*
X854097Y-287816D01*
X856097D01*
X857096Y-288816D01*
Y-289816D01*
X853098D01*
X859096Y-287816D02*
Y-291815D01*
Y-289816D01*
X860096Y-288816D01*
X861095Y-287816D01*
X862095D01*
X790118Y-273817D02*
Y-279815D01*
X793117D01*
X794117Y-278815D01*
Y-277816D01*
X793117Y-276816D01*
X790118D01*
X793117D01*
X794117Y-275816D01*
Y-274817D01*
X793117Y-273817D01*
X790118D01*
X797116Y-279815D02*
X799115D01*
X800115Y-278815D01*
Y-276816D01*
X799115Y-275816D01*
X797116D01*
X796116Y-276816D01*
Y-278815D01*
X797116Y-279815D01*
X803114Y-274817D02*
Y-275816D01*
X802114D01*
X804114D01*
X803114D01*
Y-278815D01*
X804114Y-279815D01*
X808112Y-274817D02*
Y-275816D01*
X807113D01*
X809112D01*
X808112D01*
Y-278815D01*
X809112Y-279815D01*
X813111D02*
X815110D01*
X816110Y-278815D01*
Y-276816D01*
X815110Y-275816D01*
X813111D01*
X812111Y-276816D01*
Y-278815D01*
X813111Y-279815D01*
X818109D02*
Y-275816D01*
X819109D01*
X820108Y-276816D01*
Y-279815D01*
Y-276816D01*
X821108Y-275816D01*
X822108Y-276816D01*
Y-279815D01*
X830105Y-273817D02*
Y-279815D01*
X834104D01*
X837103Y-275816D02*
X839102D01*
X840102Y-276816D01*
Y-279815D01*
X837103D01*
X836103Y-278815D01*
X837103Y-277816D01*
X840102D01*
X842101Y-275816D02*
Y-278815D01*
X843101Y-279815D01*
X846100D01*
Y-280815D01*
X845100Y-281814D01*
X844101D01*
X846100Y-279815D02*
Y-275816D01*
X851098Y-279815D02*
X849099D01*
X848099Y-278815D01*
Y-276816D01*
X849099Y-275816D01*
X851098D01*
X852098Y-276816D01*
Y-277816D01*
X848099D01*
X854097Y-275816D02*
Y-279815D01*
Y-277816D01*
X855097Y-276816D01*
X856097Y-275816D01*
X857096D01*
X790118Y-261817D02*
Y-267815D01*
X793117D01*
X794117Y-266815D01*
Y-262817D01*
X793117Y-261817D01*
X790118D01*
X796116Y-267815D02*
X798115D01*
X797116D01*
Y-263816D01*
X796116D01*
X804114Y-267815D02*
X802114D01*
X801114Y-266815D01*
Y-264816D01*
X802114Y-263816D01*
X804114D01*
X805113Y-264816D01*
Y-265816D01*
X801114D01*
X807113Y-267815D02*
X809112D01*
X808112D01*
Y-261817D01*
X807113D01*
X815110Y-267815D02*
X813111D01*
X812111Y-266815D01*
Y-264816D01*
X813111Y-263816D01*
X815110D01*
X816110Y-264816D01*
Y-265816D01*
X812111D01*
X822108Y-263816D02*
X819109D01*
X818109Y-264816D01*
Y-266815D01*
X819109Y-267815D01*
X822108D01*
X825107Y-262817D02*
Y-263816D01*
X824107D01*
X826106D01*
X825107D01*
Y-266815D01*
X826106Y-267815D01*
X829105Y-263816D02*
Y-267815D01*
Y-265816D01*
X830105Y-264816D01*
X831105Y-263816D01*
X832104D01*
X835104Y-267815D02*
X837103D01*
X836103D01*
Y-263816D01*
X835104D01*
X844101D02*
X841102D01*
X840102Y-264816D01*
Y-266815D01*
X841102Y-267815D01*
X844101D01*
X850099D02*
X846100D01*
X850099Y-263816D01*
Y-262817D01*
X849099Y-261817D01*
X847100D01*
X846100Y-262817D01*
X790118Y-249817D02*
Y-255815D01*
X793117D01*
X794117Y-254815D01*
Y-253816D01*
X793117Y-252816D01*
X790118D01*
X793117D01*
X794117Y-251816D01*
Y-250817D01*
X793117Y-249817D01*
X790118D01*
X797116Y-255815D02*
X799115D01*
X800115Y-254815D01*
Y-252816D01*
X799115Y-251816D01*
X797116D01*
X796116Y-252816D01*
Y-254815D01*
X797116Y-255815D01*
X803114Y-250817D02*
Y-251816D01*
X802114D01*
X804114D01*
X803114D01*
Y-254815D01*
X804114Y-255815D01*
X817109Y-250817D02*
X816110Y-249817D01*
X814110D01*
X813111Y-250817D01*
Y-254815D01*
X814110Y-255815D01*
X816110D01*
X817109Y-254815D01*
Y-252816D01*
X815110D01*
X819109Y-255815D02*
Y-249817D01*
X823107Y-255815D01*
Y-249817D01*
X825107D02*
Y-255815D01*
X828106D01*
X829105Y-254815D01*
Y-250817D01*
X828106Y-249817D01*
X825107D01*
X790118Y-237817D02*
Y-243815D01*
X793117D01*
X794117Y-242815D01*
Y-238817D01*
X793117Y-237817D01*
X790118D01*
X796116Y-243815D02*
X798115D01*
X797116D01*
Y-239816D01*
X796116D01*
X804114Y-243815D02*
X802114D01*
X801114Y-242815D01*
Y-240816D01*
X802114Y-239816D01*
X804114D01*
X805113Y-240816D01*
Y-241816D01*
X801114D01*
X807113Y-243815D02*
X809112D01*
X808112D01*
Y-237817D01*
X807113D01*
X815110Y-243815D02*
X813111D01*
X812111Y-242815D01*
Y-240816D01*
X813111Y-239816D01*
X815110D01*
X816110Y-240816D01*
Y-241816D01*
X812111D01*
X822108Y-239816D02*
X819109D01*
X818109Y-240816D01*
Y-242815D01*
X819109Y-243815D01*
X822108D01*
X825107Y-238817D02*
Y-239816D01*
X824107D01*
X826106D01*
X825107D01*
Y-242815D01*
X826106Y-243815D01*
X829105Y-239816D02*
Y-243815D01*
Y-241816D01*
X830105Y-240816D01*
X831105Y-239816D01*
X832104D01*
X835104Y-243815D02*
X837103D01*
X836103D01*
Y-239816D01*
X835104D01*
X844101D02*
X841102D01*
X840102Y-240816D01*
Y-242815D01*
X841102Y-243815D01*
X844101D01*
X855097D02*
Y-237817D01*
X852098Y-240816D01*
X856097D01*
X790118Y-231815D02*
Y-225817D01*
X792118Y-227816D01*
X794117Y-225817D01*
Y-231815D01*
X796116D02*
X798115D01*
X797116D01*
Y-227816D01*
X796116D01*
X805113Y-225817D02*
Y-231815D01*
X802114D01*
X801114Y-230815D01*
Y-228816D01*
X802114Y-227816D01*
X805113D01*
X807113Y-231815D02*
X809112D01*
X808112D01*
Y-225817D01*
X807113Y-226817D01*
X790118Y-213817D02*
Y-219815D01*
X793117D01*
X794117Y-218815D01*
Y-214817D01*
X793117Y-213817D01*
X790118D01*
X796116Y-219815D02*
X798115D01*
X797116D01*
Y-215816D01*
X796116D01*
X804114Y-219815D02*
X802114D01*
X801114Y-218815D01*
Y-216816D01*
X802114Y-215816D01*
X804114D01*
X805113Y-216816D01*
Y-217816D01*
X801114D01*
X807113Y-219815D02*
X809112D01*
X808112D01*
Y-213817D01*
X807113D01*
X815110Y-219815D02*
X813111D01*
X812111Y-218815D01*
Y-216816D01*
X813111Y-215816D01*
X815110D01*
X816110Y-216816D01*
Y-217816D01*
X812111D01*
X822108Y-215816D02*
X819109D01*
X818109Y-216816D01*
Y-218815D01*
X819109Y-219815D01*
X822108D01*
X825107Y-214817D02*
Y-215816D01*
X824107D01*
X826106D01*
X825107D01*
Y-218815D01*
X826106Y-219815D01*
X829105Y-215816D02*
Y-219815D01*
Y-217816D01*
X830105Y-216816D01*
X831105Y-215816D01*
X832104D01*
X835104Y-219815D02*
X837103D01*
X836103D01*
Y-215816D01*
X835104D01*
X844101D02*
X841102D01*
X840102Y-216816D01*
Y-218815D01*
X841102Y-219815D01*
X844101D01*
X856097Y-213817D02*
X852098D01*
Y-216816D01*
X854097Y-215816D01*
X855097D01*
X856097Y-216816D01*
Y-218815D01*
X855097Y-219815D01*
X853098D01*
X852098Y-218815D01*
X790118Y-207815D02*
Y-201817D01*
X793117D01*
X794117Y-202817D01*
Y-204816D01*
X793117Y-205816D01*
X790118D01*
X797116Y-207815D02*
X799115D01*
X800115Y-206815D01*
Y-204816D01*
X799115Y-203816D01*
X797116D01*
X796116Y-204816D01*
Y-206815D01*
X797116Y-207815D01*
X802114Y-203816D02*
Y-206815D01*
X803114Y-207815D01*
X804114Y-206815D01*
X805113Y-207815D01*
X806113Y-206815D01*
Y-203816D01*
X811111Y-207815D02*
X809112D01*
X808112Y-206815D01*
Y-204816D01*
X809112Y-203816D01*
X811111D01*
X812111Y-204816D01*
Y-205816D01*
X808112D01*
X814110Y-203816D02*
Y-207815D01*
Y-205816D01*
X815110Y-204816D01*
X816110Y-203816D01*
X817109D01*
X826106Y-207815D02*
Y-201817D01*
X829105D01*
X830105Y-202817D01*
Y-204816D01*
X829105Y-205816D01*
X826106D01*
X832104Y-207815D02*
X834104D01*
X833104D01*
Y-201817D01*
X832104D01*
X838103Y-203816D02*
X840102D01*
X841102Y-204816D01*
Y-207815D01*
X838103D01*
X837103Y-206815D01*
X838103Y-205816D01*
X841102D01*
X843101Y-207815D02*
Y-203816D01*
X846100D01*
X847100Y-204816D01*
Y-207815D01*
X852098D02*
X850099D01*
X849099Y-206815D01*
Y-204816D01*
X850099Y-203816D01*
X852098D01*
X853098Y-204816D01*
Y-205816D01*
X849099D01*
X790118Y-189817D02*
Y-195815D01*
X793117D01*
X794117Y-194815D01*
Y-190817D01*
X793117Y-189817D01*
X790118D01*
X796116Y-195815D02*
X798115D01*
X797116D01*
Y-191816D01*
X796116D01*
X804114Y-195815D02*
X802114D01*
X801114Y-194815D01*
Y-192816D01*
X802114Y-191816D01*
X804114D01*
X805113Y-192816D01*
Y-193816D01*
X801114D01*
X807113Y-195815D02*
X809112D01*
X808112D01*
Y-189817D01*
X807113D01*
X815110Y-195815D02*
X813111D01*
X812111Y-194815D01*
Y-192816D01*
X813111Y-191816D01*
X815110D01*
X816110Y-192816D01*
Y-193816D01*
X812111D01*
X822108Y-191816D02*
X819109D01*
X818109Y-192816D01*
Y-194815D01*
X819109Y-195815D01*
X822108D01*
X825107Y-190817D02*
Y-191816D01*
X824107D01*
X826106D01*
X825107D01*
Y-194815D01*
X826106Y-195815D01*
X829105Y-191816D02*
Y-195815D01*
Y-193816D01*
X830105Y-192816D01*
X831105Y-191816D01*
X832104D01*
X835104Y-195815D02*
X837103D01*
X836103D01*
Y-191816D01*
X835104D01*
X844101D02*
X841102D01*
X840102Y-192816D01*
Y-194815D01*
X841102Y-195815D01*
X844101D01*
X846100Y-190817D02*
X847100Y-189817D01*
X849099D01*
X850099Y-190817D01*
Y-191816D01*
X849099Y-192816D01*
X848099D01*
X849099D01*
X850099Y-193816D01*
Y-194815D01*
X849099Y-195815D01*
X847100D01*
X846100Y-194815D01*
X790118Y-177817D02*
X794117D01*
X792118D01*
Y-183815D01*
X797116D02*
X799115D01*
X800115Y-182815D01*
Y-180816D01*
X799115Y-179816D01*
X797116D01*
X796116Y-180816D01*
Y-182815D01*
X797116Y-183815D01*
X802114Y-185814D02*
Y-179816D01*
X805113D01*
X806113Y-180816D01*
Y-182815D01*
X805113Y-183815D01*
X802114D01*
X818109Y-178817D02*
X817109Y-177817D01*
X815110D01*
X814110Y-178817D01*
Y-182815D01*
X815110Y-183815D01*
X817109D01*
X818109Y-182815D01*
Y-180816D01*
X816110D01*
X820108Y-183815D02*
Y-177817D01*
X824107Y-183815D01*
Y-177817D01*
X826106D02*
Y-183815D01*
X829105D01*
X830105Y-182815D01*
Y-178817D01*
X829105Y-177817D01*
X826106D01*
X790118Y-165817D02*
Y-171815D01*
X793117D01*
X794117Y-170815D01*
Y-166817D01*
X793117Y-165817D01*
X790118D01*
X796116Y-171815D02*
X798115D01*
X797116D01*
Y-167816D01*
X796116D01*
X804114Y-171815D02*
X802114D01*
X801114Y-170815D01*
Y-168816D01*
X802114Y-167816D01*
X804114D01*
X805113Y-168816D01*
Y-169816D01*
X801114D01*
X807113Y-171815D02*
X809112D01*
X808112D01*
Y-165817D01*
X807113D01*
X815110Y-171815D02*
X813111D01*
X812111Y-170815D01*
Y-168816D01*
X813111Y-167816D01*
X815110D01*
X816110Y-168816D01*
Y-169816D01*
X812111D01*
X822108Y-167816D02*
X819109D01*
X818109Y-168816D01*
Y-170815D01*
X819109Y-171815D01*
X822108D01*
X825107Y-166817D02*
Y-167816D01*
X824107D01*
X826106D01*
X825107D01*
Y-170815D01*
X826106Y-171815D01*
X829105Y-167816D02*
Y-171815D01*
Y-169816D01*
X830105Y-168816D01*
X831105Y-167816D01*
X832104D01*
X835104Y-171815D02*
X837103D01*
X836103D01*
Y-167816D01*
X835104D01*
X844101D02*
X841102D01*
X840102Y-168816D01*
Y-170815D01*
X841102Y-171815D01*
X844101D01*
X846100D02*
X848099D01*
X847100D01*
Y-165817D01*
X846100Y-166817D01*
X790118Y-153817D02*
X794117D01*
X792118D01*
Y-159815D01*
X797116D02*
X799115D01*
X800115Y-158815D01*
Y-156816D01*
X799115Y-155816D01*
X797116D01*
X796116Y-156816D01*
Y-158815D01*
X797116Y-159815D01*
X802114Y-161814D02*
Y-155816D01*
X805113D01*
X806113Y-156816D01*
Y-158815D01*
X805113Y-159815D01*
X802114D01*
X814110Y-153817D02*
Y-159815D01*
X818109D01*
X821108Y-155816D02*
X823107D01*
X824107Y-156816D01*
Y-159815D01*
X821108D01*
X820108Y-158815D01*
X821108Y-157816D01*
X824107D01*
X826106Y-155816D02*
Y-158815D01*
X827106Y-159815D01*
X830105D01*
Y-160815D01*
X829105Y-161814D01*
X828106D01*
X830105Y-159815D02*
Y-155816D01*
X835104Y-159815D02*
X833104D01*
X832104Y-158815D01*
Y-156816D01*
X833104Y-155816D01*
X835104D01*
X836103Y-156816D01*
Y-157816D01*
X832104D01*
X838103Y-155816D02*
Y-159815D01*
Y-157816D01*
X839102Y-156816D01*
X840102Y-155816D01*
X841102D01*
X790118Y-141817D02*
X794117D01*
X792118D01*
Y-147815D01*
X797116D02*
X799115D01*
X800115Y-146815D01*
Y-144816D01*
X799115Y-143816D01*
X797116D01*
X796116Y-144816D01*
Y-146815D01*
X797116Y-147815D01*
X802114Y-149814D02*
Y-143816D01*
X805113D01*
X806113Y-144816D01*
Y-146815D01*
X805113Y-147815D01*
X802114D01*
X818109Y-142817D02*
X817109Y-141817D01*
X815110D01*
X814110Y-142817D01*
Y-143816D01*
X815110Y-144816D01*
X817109D01*
X818109Y-145816D01*
Y-146815D01*
X817109Y-147815D01*
X815110D01*
X814110Y-146815D01*
X821108Y-147815D02*
X823107D01*
X824107Y-146815D01*
Y-144816D01*
X823107Y-143816D01*
X821108D01*
X820108Y-144816D01*
Y-146815D01*
X821108Y-147815D01*
X826106D02*
X828106D01*
X827106D01*
Y-141817D01*
X826106D01*
X835104D02*
Y-147815D01*
X832104D01*
X831105Y-146815D01*
Y-144816D01*
X832104Y-143816D01*
X835104D01*
X840102Y-147815D02*
X838103D01*
X837103Y-146815D01*
Y-144816D01*
X838103Y-143816D01*
X840102D01*
X841102Y-144816D01*
Y-145816D01*
X837103D01*
X843101Y-143816D02*
Y-147815D01*
Y-145816D01*
X844101Y-144816D01*
X845100Y-143816D01*
X846100D01*
X790118Y-129817D02*
X794117D01*
X792118D01*
Y-135815D01*
X797116D02*
X799115D01*
X800115Y-134815D01*
Y-132816D01*
X799115Y-131816D01*
X797116D01*
X796116Y-132816D01*
Y-134815D01*
X797116Y-135815D01*
X802114Y-137814D02*
Y-131816D01*
X805113D01*
X806113Y-132816D01*
Y-134815D01*
X805113Y-135815D01*
X802114D01*
X817109Y-129817D02*
X815110D01*
X814110Y-130817D01*
Y-134815D01*
X815110Y-135815D01*
X817109D01*
X818109Y-134815D01*
Y-130817D01*
X817109Y-129817D01*
X820108Y-131816D02*
X822108Y-135815D01*
X824107Y-131816D01*
X829105Y-135815D02*
X827106D01*
X826106Y-134815D01*
Y-132816D01*
X827106Y-131816D01*
X829105D01*
X830105Y-132816D01*
Y-133816D01*
X826106D01*
X832104Y-131816D02*
Y-135815D01*
Y-133816D01*
X833104Y-132816D01*
X834104Y-131816D01*
X835104D01*
X838103Y-135815D02*
X840102D01*
X839102D01*
Y-129817D01*
X838103D01*
X844101Y-131816D02*
X846100D01*
X847100Y-132816D01*
Y-135815D01*
X844101D01*
X843101Y-134815D01*
X844101Y-133816D01*
X847100D01*
X849099Y-131816D02*
Y-134815D01*
X850099Y-135815D01*
X853098D01*
Y-136815D01*
X852098Y-137814D01*
X851098D01*
X853098Y-135815D02*
Y-131816D01*
X883093Y-123815D02*
Y-117817D01*
X885092Y-119816D01*
X887091Y-117817D01*
Y-123815D01*
X890090Y-119816D02*
X892090D01*
X893089Y-120816D01*
Y-123815D01*
X890090D01*
X889091Y-122815D01*
X890090Y-121816D01*
X893089D01*
X896088Y-118817D02*
Y-119816D01*
X895089D01*
X897088D01*
X896088D01*
Y-122815D01*
X897088Y-123815D01*
X903086D02*
X901087D01*
X900087Y-122815D01*
Y-120816D01*
X901087Y-119816D01*
X903086D01*
X904086Y-120816D01*
Y-121816D01*
X900087D01*
X906085Y-119816D02*
Y-123815D01*
Y-121816D01*
X907085Y-120816D01*
X908084Y-119816D01*
X909084D01*
X912083Y-123815D02*
X914083D01*
X913083D01*
Y-119816D01*
X912083D01*
X918081D02*
X920081D01*
X921080Y-120816D01*
Y-123815D01*
X918081D01*
X917082Y-122815D01*
X918081Y-121816D01*
X921080D01*
X923080Y-123815D02*
X925079D01*
X924079D01*
Y-117817D01*
X923080D01*
X887091Y-286817D02*
X886092Y-285817D01*
X884092D01*
X883093Y-286817D01*
Y-287816D01*
X884092Y-288816D01*
X886092D01*
X887091Y-289816D01*
Y-290815D01*
X886092Y-291815D01*
X884092D01*
X883093Y-290815D01*
X890090Y-291815D02*
X892090D01*
X893089Y-290815D01*
Y-288816D01*
X892090Y-287816D01*
X890090D01*
X889091Y-288816D01*
Y-290815D01*
X890090Y-291815D01*
X895089D02*
X897088D01*
X896088D01*
Y-285817D01*
X895089D01*
X904086D02*
Y-291815D01*
X901087D01*
X900087Y-290815D01*
Y-288816D01*
X901087Y-287816D01*
X904086D01*
X909084Y-291815D02*
X907085D01*
X906085Y-290815D01*
Y-288816D01*
X907085Y-287816D01*
X909084D01*
X910084Y-288816D01*
Y-289816D01*
X906085D01*
X912083Y-287816D02*
Y-291815D01*
Y-289816D01*
X913083Y-288816D01*
X914083Y-287816D01*
X915082D01*
X924079Y-291815D02*
Y-285817D01*
X927078D01*
X928078Y-286817D01*
Y-288816D01*
X927078Y-289816D01*
X924079D01*
X926079D02*
X928078Y-291815D01*
X933076D02*
X931077D01*
X930077Y-290815D01*
Y-288816D01*
X931077Y-287816D01*
X933076D01*
X934076Y-288816D01*
Y-289816D01*
X930077D01*
X936075Y-291815D02*
X939075D01*
X940074Y-290815D01*
X939075Y-289816D01*
X937075D01*
X936075Y-288816D01*
X937075Y-287816D01*
X940074D01*
X942074Y-291815D02*
X944073D01*
X943073D01*
Y-287816D01*
X942074D01*
X947072Y-291815D02*
X950071D01*
X951071Y-290815D01*
X950071Y-289816D01*
X948071D01*
X947072Y-288816D01*
X948071Y-287816D01*
X951071D01*
X954070Y-286817D02*
Y-287816D01*
X953070D01*
X955069D01*
X954070D01*
Y-290815D01*
X955069Y-291815D01*
X887091Y-274817D02*
X886092Y-273817D01*
X884092D01*
X883093Y-274817D01*
Y-278815D01*
X884092Y-279815D01*
X886092D01*
X887091Y-278815D01*
X890090Y-279815D02*
X892090D01*
X893089Y-278815D01*
Y-276816D01*
X892090Y-275816D01*
X890090D01*
X889091Y-276816D01*
Y-278815D01*
X890090Y-279815D01*
X895089Y-281814D02*
Y-275816D01*
X898088D01*
X899087Y-276816D01*
Y-278815D01*
X898088Y-279815D01*
X895089D01*
X901087Y-281814D02*
Y-275816D01*
X904086D01*
X905085Y-276816D01*
Y-278815D01*
X904086Y-279815D01*
X901087D01*
X910084D02*
X908084D01*
X907085Y-278815D01*
Y-276816D01*
X908084Y-275816D01*
X910084D01*
X911084Y-276816D01*
Y-277816D01*
X907085D01*
X913083Y-275816D02*
Y-279815D01*
Y-277816D01*
X914083Y-276816D01*
X915082Y-275816D01*
X916082D01*
X887091Y-261817D02*
X883093D01*
Y-264816D01*
X885092D01*
X883093D01*
Y-267815D01*
X889091D02*
Y-261817D01*
X892090D01*
X893089Y-262817D01*
Y-264816D01*
X892090Y-265816D01*
X889091D01*
X891090D02*
X893089Y-267815D01*
X895089Y-264816D02*
X899087D01*
X904086Y-267815D02*
Y-261817D01*
X901087Y-264816D01*
X905085D01*
X913083Y-261817D02*
X917082D01*
X915082D01*
Y-267815D01*
X923080Y-262817D02*
X922080Y-261817D01*
X920081D01*
X919081Y-262817D01*
Y-266815D01*
X920081Y-267815D01*
X922080D01*
X923080Y-266815D01*
Y-264816D01*
X921080D01*
X925079Y-267815D02*
X927078D01*
X926079D01*
Y-261817D01*
X925079Y-262817D01*
X930077Y-261817D02*
X934076D01*
Y-262817D01*
X930077Y-266815D01*
Y-267815D01*
X936075Y-262817D02*
X937075Y-261817D01*
X939075D01*
X940074Y-262817D01*
Y-266815D01*
X939075Y-267815D01*
X937075D01*
X936075Y-266815D01*
Y-262817D01*
X887091Y-250817D02*
X886092Y-249817D01*
X884092D01*
X883093Y-250817D01*
Y-254815D01*
X884092Y-255815D01*
X886092D01*
X887091Y-254815D01*
X890090Y-255815D02*
X892090D01*
X893089Y-254815D01*
Y-252816D01*
X892090Y-251816D01*
X890090D01*
X889091Y-252816D01*
Y-254815D01*
X890090Y-255815D01*
X895089Y-257814D02*
Y-251816D01*
X898088D01*
X899087Y-252816D01*
Y-254815D01*
X898088Y-255815D01*
X895089D01*
X901087Y-257814D02*
Y-251816D01*
X904086D01*
X905085Y-252816D01*
Y-254815D01*
X904086Y-255815D01*
X901087D01*
X910084D02*
X908084D01*
X907085Y-254815D01*
Y-252816D01*
X908084Y-251816D01*
X910084D01*
X911084Y-252816D01*
Y-253816D01*
X907085D01*
X913083Y-251816D02*
Y-255815D01*
Y-253816D01*
X914083Y-252816D01*
X915082Y-251816D01*
X916082D01*
X887091Y-237817D02*
X883093D01*
Y-240816D01*
X885092D01*
X883093D01*
Y-243815D01*
X889091D02*
Y-237817D01*
X892090D01*
X893089Y-238817D01*
Y-240816D01*
X892090Y-241816D01*
X889091D01*
X891090D02*
X893089Y-243815D01*
X895089Y-240816D02*
X899087D01*
X904086Y-243815D02*
Y-237817D01*
X901087Y-240816D01*
X905085D01*
X913083Y-237817D02*
X917082D01*
X915082D01*
Y-243815D01*
X923080Y-238817D02*
X922080Y-237817D01*
X920081D01*
X919081Y-238817D01*
Y-242815D01*
X920081Y-243815D01*
X922080D01*
X923080Y-242815D01*
Y-240816D01*
X921080D01*
X925079Y-243815D02*
X927078D01*
X926079D01*
Y-237817D01*
X925079Y-238817D01*
X930077Y-237817D02*
X934076D01*
Y-238817D01*
X930077Y-242815D01*
Y-243815D01*
X936075Y-238817D02*
X937075Y-237817D01*
X939075D01*
X940074Y-238817D01*
Y-242815D01*
X939075Y-243815D01*
X937075D01*
X936075Y-242815D01*
Y-238817D01*
X887091Y-226817D02*
X886092Y-225817D01*
X884092D01*
X883093Y-226817D01*
Y-230815D01*
X884092Y-231815D01*
X886092D01*
X887091Y-230815D01*
X890090Y-231815D02*
X892090D01*
X893089Y-230815D01*
Y-228816D01*
X892090Y-227816D01*
X890090D01*
X889091Y-228816D01*
Y-230815D01*
X890090Y-231815D01*
X895089Y-233814D02*
Y-227816D01*
X898088D01*
X899087Y-228816D01*
Y-230815D01*
X898088Y-231815D01*
X895089D01*
X901087Y-233814D02*
Y-227816D01*
X904086D01*
X905085Y-228816D01*
Y-230815D01*
X904086Y-231815D01*
X901087D01*
X910084D02*
X908084D01*
X907085Y-230815D01*
Y-228816D01*
X908084Y-227816D01*
X910084D01*
X911084Y-228816D01*
Y-229816D01*
X907085D01*
X913083Y-227816D02*
Y-231815D01*
Y-229816D01*
X914083Y-228816D01*
X915082Y-227816D01*
X916082D01*
X887091Y-213817D02*
X883093D01*
Y-216816D01*
X885092D01*
X883093D01*
Y-219815D01*
X889091D02*
Y-213817D01*
X892090D01*
X893089Y-214817D01*
Y-216816D01*
X892090Y-217816D01*
X889091D01*
X891090D02*
X893089Y-219815D01*
X895089Y-216816D02*
X899087D01*
X904086Y-219815D02*
Y-213817D01*
X901087Y-216816D01*
X905085D01*
X913083Y-213817D02*
X917082D01*
X915082D01*
Y-219815D01*
X923080Y-214817D02*
X922080Y-213817D01*
X920081D01*
X919081Y-214817D01*
Y-218815D01*
X920081Y-219815D01*
X922080D01*
X923080Y-218815D01*
Y-216816D01*
X921080D01*
X925079Y-219815D02*
X927078D01*
X926079D01*
Y-213817D01*
X925079Y-214817D01*
X930077Y-213817D02*
X934076D01*
Y-214817D01*
X930077Y-218815D01*
Y-219815D01*
X936075Y-214817D02*
X937075Y-213817D01*
X939075D01*
X940074Y-214817D01*
Y-218815D01*
X939075Y-219815D01*
X937075D01*
X936075Y-218815D01*
Y-214817D01*
X887091Y-202817D02*
X886092Y-201817D01*
X884092D01*
X883093Y-202817D01*
Y-206815D01*
X884092Y-207815D01*
X886092D01*
X887091Y-206815D01*
X890090Y-207815D02*
X892090D01*
X893089Y-206815D01*
Y-204816D01*
X892090Y-203816D01*
X890090D01*
X889091Y-204816D01*
Y-206815D01*
X890090Y-207815D01*
X895089Y-209814D02*
Y-203816D01*
X898088D01*
X899087Y-204816D01*
Y-206815D01*
X898088Y-207815D01*
X895089D01*
X901087Y-209814D02*
Y-203816D01*
X904086D01*
X905085Y-204816D01*
Y-206815D01*
X904086Y-207815D01*
X901087D01*
X910084D02*
X908084D01*
X907085Y-206815D01*
Y-204816D01*
X908084Y-203816D01*
X910084D01*
X911084Y-204816D01*
Y-205816D01*
X907085D01*
X913083Y-203816D02*
Y-207815D01*
Y-205816D01*
X914083Y-204816D01*
X915082Y-203816D01*
X916082D01*
X887091Y-189817D02*
X883093D01*
Y-192816D01*
X885092D01*
X883093D01*
Y-195815D01*
X889091D02*
Y-189817D01*
X892090D01*
X893089Y-190817D01*
Y-192816D01*
X892090Y-193816D01*
X889091D01*
X891090D02*
X893089Y-195815D01*
X895089Y-192816D02*
X899087D01*
X904086Y-195815D02*
Y-189817D01*
X901087Y-192816D01*
X905085D01*
X913083Y-189817D02*
X917082D01*
X915082D01*
Y-195815D01*
X923080Y-190817D02*
X922080Y-189817D01*
X920081D01*
X919081Y-190817D01*
Y-194815D01*
X920081Y-195815D01*
X922080D01*
X923080Y-194815D01*
Y-192816D01*
X921080D01*
X925079Y-195815D02*
X927078D01*
X926079D01*
Y-189817D01*
X925079Y-190817D01*
X930077Y-189817D02*
X934076D01*
Y-190817D01*
X930077Y-194815D01*
Y-195815D01*
X936075Y-190817D02*
X937075Y-189817D01*
X939075D01*
X940074Y-190817D01*
Y-194815D01*
X939075Y-195815D01*
X937075D01*
X936075Y-194815D01*
Y-190817D01*
X887091Y-178817D02*
X886092Y-177817D01*
X884092D01*
X883093Y-178817D01*
Y-182815D01*
X884092Y-183815D01*
X886092D01*
X887091Y-182815D01*
X890090Y-183815D02*
X892090D01*
X893089Y-182815D01*
Y-180816D01*
X892090Y-179816D01*
X890090D01*
X889091Y-180816D01*
Y-182815D01*
X890090Y-183815D01*
X895089Y-185814D02*
Y-179816D01*
X898088D01*
X899087Y-180816D01*
Y-182815D01*
X898088Y-183815D01*
X895089D01*
X901087Y-185814D02*
Y-179816D01*
X904086D01*
X905085Y-180816D01*
Y-182815D01*
X904086Y-183815D01*
X901087D01*
X910084D02*
X908084D01*
X907085Y-182815D01*
Y-180816D01*
X908084Y-179816D01*
X910084D01*
X911084Y-180816D01*
Y-181816D01*
X907085D01*
X913083Y-179816D02*
Y-183815D01*
Y-181816D01*
X914083Y-180816D01*
X915082Y-179816D01*
X916082D01*
X887091Y-165817D02*
X883093D01*
Y-168816D01*
X885092D01*
X883093D01*
Y-171815D01*
X889091D02*
Y-165817D01*
X892090D01*
X893089Y-166817D01*
Y-168816D01*
X892090Y-169816D01*
X889091D01*
X891090D02*
X893089Y-171815D01*
X895089Y-168816D02*
X899087D01*
X904086Y-171815D02*
Y-165817D01*
X901087Y-168816D01*
X905085D01*
X913083Y-165817D02*
X917082D01*
X915082D01*
Y-171815D01*
X923080Y-166817D02*
X922080Y-165817D01*
X920081D01*
X919081Y-166817D01*
Y-170815D01*
X920081Y-171815D01*
X922080D01*
X923080Y-170815D01*
Y-168816D01*
X921080D01*
X925079Y-171815D02*
X927078D01*
X926079D01*
Y-165817D01*
X925079Y-166817D01*
X930077Y-165817D02*
X934076D01*
Y-166817D01*
X930077Y-170815D01*
Y-171815D01*
X936075Y-166817D02*
X937075Y-165817D01*
X939075D01*
X940074Y-166817D01*
Y-170815D01*
X939075Y-171815D01*
X937075D01*
X936075Y-170815D01*
Y-166817D01*
X887091Y-154817D02*
X886092Y-153817D01*
X884092D01*
X883093Y-154817D01*
Y-158815D01*
X884092Y-159815D01*
X886092D01*
X887091Y-158815D01*
X890090Y-159815D02*
X892090D01*
X893089Y-158815D01*
Y-156816D01*
X892090Y-155816D01*
X890090D01*
X889091Y-156816D01*
Y-158815D01*
X890090Y-159815D01*
X895089Y-161814D02*
Y-155816D01*
X898088D01*
X899087Y-156816D01*
Y-158815D01*
X898088Y-159815D01*
X895089D01*
X901087Y-161814D02*
Y-155816D01*
X904086D01*
X905085Y-156816D01*
Y-158815D01*
X904086Y-159815D01*
X901087D01*
X910084D02*
X908084D01*
X907085Y-158815D01*
Y-156816D01*
X908084Y-155816D01*
X910084D01*
X911084Y-156816D01*
Y-157816D01*
X907085D01*
X913083Y-155816D02*
Y-159815D01*
Y-157816D01*
X914083Y-156816D01*
X915082Y-155816D01*
X916082D01*
X887091Y-142817D02*
X886092Y-141817D01*
X884092D01*
X883093Y-142817D01*
Y-143816D01*
X884092Y-144816D01*
X886092D01*
X887091Y-145816D01*
Y-146815D01*
X886092Y-147815D01*
X884092D01*
X883093Y-146815D01*
X890090Y-147815D02*
X892090D01*
X893089Y-146815D01*
Y-144816D01*
X892090Y-143816D01*
X890090D01*
X889091Y-144816D01*
Y-146815D01*
X890090Y-147815D01*
X895089D02*
X897088D01*
X896088D01*
Y-141817D01*
X895089D01*
X904086D02*
Y-147815D01*
X901087D01*
X900087Y-146815D01*
Y-144816D01*
X901087Y-143816D01*
X904086D01*
X909084Y-147815D02*
X907085D01*
X906085Y-146815D01*
Y-144816D01*
X907085Y-143816D01*
X909084D01*
X910084Y-144816D01*
Y-145816D01*
X906085D01*
X912083Y-143816D02*
Y-147815D01*
Y-145816D01*
X913083Y-144816D01*
X914083Y-143816D01*
X915082D01*
X924079Y-147815D02*
Y-141817D01*
X927078D01*
X928078Y-142817D01*
Y-144816D01*
X927078Y-145816D01*
X924079D01*
X926079D02*
X928078Y-147815D01*
X933076D02*
X931077D01*
X930077Y-146815D01*
Y-144816D01*
X931077Y-143816D01*
X933076D01*
X934076Y-144816D01*
Y-145816D01*
X930077D01*
X936075Y-147815D02*
X939075D01*
X940074Y-146815D01*
X939075Y-145816D01*
X937075D01*
X936075Y-144816D01*
X937075Y-143816D01*
X940074D01*
X942074Y-147815D02*
X944073D01*
X943073D01*
Y-143816D01*
X942074D01*
X947072Y-147815D02*
X950071D01*
X951071Y-146815D01*
X950071Y-145816D01*
X948071D01*
X947072Y-144816D01*
X948071Y-143816D01*
X951071D01*
X954070Y-142817D02*
Y-143816D01*
X953070D01*
X955069D01*
X954070D01*
Y-146815D01*
X955069Y-147815D01*
X969069Y-117817D02*
X973068D01*
X971069D01*
Y-123815D01*
X975067Y-117817D02*
Y-123815D01*
Y-120816D01*
X976067Y-119816D01*
X978066D01*
X979066Y-120816D01*
Y-123815D01*
X981065D02*
X983065D01*
X982065D01*
Y-119816D01*
X981065D01*
X990063D02*
X987064D01*
X986064Y-120816D01*
Y-122815D01*
X987064Y-123815D01*
X990063D01*
X992062D02*
Y-117817D01*
Y-121816D02*
X995061Y-119816D01*
X992062Y-121816D02*
X995061Y-123815D01*
X998060D02*
Y-119816D01*
X1001059D01*
X1002059Y-120816D01*
Y-123815D01*
X1007057D02*
X1005058D01*
X1004058Y-122815D01*
Y-120816D01*
X1005058Y-119816D01*
X1007057D01*
X1008057Y-120816D01*
Y-121816D01*
X1004058D01*
X1010056Y-123815D02*
X1013055D01*
X1014055Y-122815D01*
X1013055Y-121816D01*
X1011056D01*
X1010056Y-120816D01*
X1011056Y-119816D01*
X1014055D01*
X1016054Y-123815D02*
X1019053D01*
X1020053Y-122815D01*
X1019053Y-121816D01*
X1017054D01*
X1016054Y-120816D01*
X1017054Y-119816D01*
X1020053D01*
X969069Y-286817D02*
X970069Y-285817D01*
X972068D01*
X973068Y-286817D01*
Y-290815D01*
X972068Y-291815D01*
X970069D01*
X969069Y-290815D01*
Y-286817D01*
X975067Y-291815D02*
Y-290815D01*
X976067D01*
Y-291815D01*
X975067D01*
X983065D02*
Y-285817D01*
X980066Y-288816D01*
X984064D01*
X986064Y-286817D02*
X987064Y-285817D01*
X989063D01*
X990063Y-286817D01*
Y-290815D01*
X989063Y-291815D01*
X987064D01*
X986064Y-290815D01*
Y-286817D01*
X992062Y-291815D02*
Y-287816D01*
X993062D01*
X994061Y-288816D01*
Y-291815D01*
Y-288816D01*
X995061Y-287816D01*
X996060Y-288816D01*
Y-291815D01*
X998060D02*
X1000059D01*
X999060D01*
Y-287816D01*
X998060D01*
X1003058Y-291815D02*
X1005058D01*
X1004058D01*
Y-285817D01*
X1003058D01*
X969069Y-274817D02*
X970069Y-273817D01*
X972068D01*
X973068Y-274817D01*
Y-275816D01*
X972068Y-276816D01*
X971069D01*
X972068D01*
X973068Y-277816D01*
Y-278815D01*
X972068Y-279815D01*
X970069D01*
X969069Y-278815D01*
X975067Y-279815D02*
Y-278815D01*
X976067D01*
Y-279815D01*
X975067D01*
X980066Y-274817D02*
X981065Y-273817D01*
X983065D01*
X984064Y-274817D01*
Y-278815D01*
X983065Y-279815D01*
X981065D01*
X980066Y-278815D01*
Y-274817D01*
X986064Y-273817D02*
X990063D01*
Y-274817D01*
X986064Y-278815D01*
Y-279815D01*
X992062D02*
Y-275816D01*
X993062D01*
X994061Y-276816D01*
Y-279815D01*
Y-276816D01*
X995061Y-275816D01*
X996060Y-276816D01*
Y-279815D01*
X998060D02*
X1000059D01*
X999060D01*
Y-275816D01*
X998060D01*
X1003058Y-279815D02*
X1005058D01*
X1004058D01*
Y-273817D01*
X1003058D01*
X972068Y-267815D02*
Y-261817D01*
X969069Y-264816D01*
X973068D01*
X975067Y-267815D02*
Y-266815D01*
X976067D01*
Y-267815D01*
X975067D01*
X980066Y-261817D02*
X984064D01*
Y-262817D01*
X980066Y-266815D01*
Y-267815D01*
X990063D02*
X986064D01*
X990063Y-263816D01*
Y-262817D01*
X989063Y-261817D01*
X987064D01*
X986064Y-262817D01*
X992062Y-267815D02*
Y-263816D01*
X993062D01*
X994061Y-264816D01*
Y-267815D01*
Y-264816D01*
X995061Y-263816D01*
X996060Y-264816D01*
Y-267815D01*
X998060D02*
X1000059D01*
X999060D01*
Y-263816D01*
X998060D01*
X1003058Y-267815D02*
X1005058D01*
X1004058D01*
Y-261817D01*
X1003058D01*
X969069Y-255815D02*
X971069D01*
X970069D01*
Y-249817D01*
X969069Y-250817D01*
X974068Y-255815D02*
Y-254815D01*
X975067D01*
Y-255815D01*
X974068D01*
X979066Y-250817D02*
X980066Y-249817D01*
X982065D01*
X983065Y-250817D01*
Y-251816D01*
X982065Y-252816D01*
X981065D01*
X982065D01*
X983065Y-253816D01*
Y-254815D01*
X982065Y-255815D01*
X980066D01*
X979066Y-254815D01*
X985064Y-250817D02*
X986064Y-249817D01*
X988063D01*
X989063Y-250817D01*
Y-251816D01*
X988063Y-252816D01*
X989063Y-253816D01*
Y-254815D01*
X988063Y-255815D01*
X986064D01*
X985064Y-254815D01*
Y-253816D01*
X986064Y-252816D01*
X985064Y-251816D01*
Y-250817D01*
X986064Y-252816D02*
X988063D01*
X991062Y-255815D02*
Y-251816D01*
X992062D01*
X993062Y-252816D01*
Y-255815D01*
Y-252816D01*
X994061Y-251816D01*
X995061Y-252816D01*
Y-255815D01*
X997060D02*
X999060D01*
X998060D01*
Y-251816D01*
X997060D01*
X1002059Y-255815D02*
X1004058D01*
X1003058D01*
Y-249817D01*
X1002059D01*
X969069Y-243815D02*
X971069D01*
X970069D01*
Y-237817D01*
X969069Y-238817D01*
X974068Y-242815D02*
X975067Y-243815D01*
X977067D01*
X978066Y-242815D01*
Y-238817D01*
X977067Y-237817D01*
X975067D01*
X974068Y-238817D01*
Y-239816D01*
X975067Y-240816D01*
X978066D01*
X980066Y-243815D02*
Y-242815D01*
X981065D01*
Y-243815D01*
X980066D01*
X989063Y-237817D02*
X987063Y-238817D01*
X985064Y-240816D01*
Y-242815D01*
X986064Y-243815D01*
X988063D01*
X989063Y-242815D01*
Y-241816D01*
X988063Y-240816D01*
X985064D01*
X991062Y-242815D02*
X992062Y-243815D01*
X994061D01*
X995061Y-242815D01*
Y-238817D01*
X994061Y-237817D01*
X992062D01*
X991062Y-238817D01*
Y-239816D01*
X992062Y-240816D01*
X995061D01*
X997060Y-243815D02*
Y-239816D01*
X998060D01*
X999060Y-240816D01*
Y-243815D01*
Y-240816D01*
X1000059Y-239816D01*
X1001059Y-240816D01*
Y-243815D01*
X1003058D02*
X1005058D01*
X1004058D01*
Y-239816D01*
X1003058D01*
X1008057Y-243815D02*
X1010056D01*
X1009056D01*
Y-237817D01*
X1008057D01*
X969069Y-231815D02*
X971069D01*
X970069D01*
Y-225817D01*
X969069Y-226817D01*
X974068Y-231815D02*
Y-230815D01*
X975067D01*
Y-231815D01*
X974068D01*
X979066Y-226817D02*
X980066Y-225817D01*
X982065D01*
X983065Y-226817D01*
Y-227816D01*
X982065Y-228816D01*
X981065D01*
X982065D01*
X983065Y-229816D01*
Y-230815D01*
X982065Y-231815D01*
X980066D01*
X979066Y-230815D01*
X985064Y-226817D02*
X986064Y-225817D01*
X988063D01*
X989063Y-226817D01*
Y-227816D01*
X988063Y-228816D01*
X989063Y-229816D01*
Y-230815D01*
X988063Y-231815D01*
X986064D01*
X985064Y-230815D01*
Y-229816D01*
X986064Y-228816D01*
X985064Y-227816D01*
Y-226817D01*
X986064Y-228816D02*
X988063D01*
X991062Y-231815D02*
Y-227816D01*
X992062D01*
X993062Y-228816D01*
Y-231815D01*
Y-228816D01*
X994061Y-227816D01*
X995061Y-228816D01*
Y-231815D01*
X997060D02*
X999060D01*
X998060D01*
Y-227816D01*
X997060D01*
X1002059Y-231815D02*
X1004058D01*
X1003058D01*
Y-225817D01*
X1002059D01*
X969069Y-218815D02*
X970069Y-219815D01*
X972068D01*
X973068Y-218815D01*
Y-214817D01*
X972068Y-213817D01*
X970069D01*
X969069Y-214817D01*
Y-215816D01*
X970069Y-216816D01*
X973068D01*
X975067Y-219815D02*
Y-218815D01*
X976067D01*
Y-219815D01*
X975067D01*
X983065D02*
Y-213817D01*
X980066Y-216816D01*
X984064D01*
X990063Y-213817D02*
X986064D01*
Y-216816D01*
X988063Y-215816D01*
X989063D01*
X990063Y-216816D01*
Y-218815D01*
X989063Y-219815D01*
X987064D01*
X986064Y-218815D01*
X992062Y-219815D02*
Y-215816D01*
X993062D01*
X994061Y-216816D01*
Y-219815D01*
Y-216816D01*
X995061Y-215816D01*
X996060Y-216816D01*
Y-219815D01*
X998060D02*
X1000059D01*
X999060D01*
Y-215816D01*
X998060D01*
X1003058Y-219815D02*
X1005058D01*
X1004058D01*
Y-213817D01*
X1003058D01*
X969069Y-207815D02*
X971069D01*
X970069D01*
Y-201817D01*
X969069Y-202817D01*
X974068Y-207815D02*
Y-206815D01*
X975067D01*
Y-207815D01*
X974068D01*
X979066Y-202817D02*
X980066Y-201817D01*
X982065D01*
X983065Y-202817D01*
Y-203816D01*
X982065Y-204816D01*
X981065D01*
X982065D01*
X983065Y-205816D01*
Y-206815D01*
X982065Y-207815D01*
X980066D01*
X979066Y-206815D01*
X985064Y-202817D02*
X986064Y-201817D01*
X988063D01*
X989063Y-202817D01*
Y-203816D01*
X988063Y-204816D01*
X989063Y-205816D01*
Y-206815D01*
X988063Y-207815D01*
X986064D01*
X985064Y-206815D01*
Y-205816D01*
X986064Y-204816D01*
X985064Y-203816D01*
Y-202817D01*
X986064Y-204816D02*
X988063D01*
X991062Y-207815D02*
Y-203816D01*
X992062D01*
X993062Y-204816D01*
Y-207815D01*
Y-204816D01*
X994061Y-203816D01*
X995061Y-204816D01*
Y-207815D01*
X997060D02*
X999060D01*
X998060D01*
Y-203816D01*
X997060D01*
X1002059Y-207815D02*
X1004058D01*
X1003058D01*
Y-201817D01*
X1002059D01*
X969069Y-195815D02*
X971069D01*
X970069D01*
Y-189817D01*
X969069Y-190817D01*
X974068Y-194815D02*
X975067Y-195815D01*
X977067D01*
X978066Y-194815D01*
Y-190817D01*
X977067Y-189817D01*
X975067D01*
X974068Y-190817D01*
Y-191816D01*
X975067Y-192816D01*
X978066D01*
X980066Y-195815D02*
Y-194815D01*
X981065D01*
Y-195815D01*
X980066D01*
X989063Y-189817D02*
X987063Y-190817D01*
X985064Y-192816D01*
Y-194815D01*
X986064Y-195815D01*
X988063D01*
X989063Y-194815D01*
Y-193816D01*
X988063Y-192816D01*
X985064D01*
X991062Y-194815D02*
X992062Y-195815D01*
X994061D01*
X995061Y-194815D01*
Y-190817D01*
X994061Y-189817D01*
X992062D01*
X991062Y-190817D01*
Y-191816D01*
X992062Y-192816D01*
X995061D01*
X997060Y-195815D02*
Y-191816D01*
X998060D01*
X999060Y-192816D01*
Y-195815D01*
Y-192816D01*
X1000059Y-191816D01*
X1001059Y-192816D01*
Y-195815D01*
X1003058D02*
X1005058D01*
X1004058D01*
Y-191816D01*
X1003058D01*
X1008057Y-195815D02*
X1010056D01*
X1009056D01*
Y-189817D01*
X1008057D01*
X969069Y-183815D02*
X971069D01*
X970069D01*
Y-177817D01*
X969069Y-178817D01*
X974068Y-183815D02*
Y-182815D01*
X975067D01*
Y-183815D01*
X974068D01*
X979066Y-178817D02*
X980066Y-177817D01*
X982065D01*
X983065Y-178817D01*
Y-179816D01*
X982065Y-180816D01*
X981065D01*
X982065D01*
X983065Y-181816D01*
Y-182815D01*
X982065Y-183815D01*
X980066D01*
X979066Y-182815D01*
X985064Y-178817D02*
X986064Y-177817D01*
X988063D01*
X989063Y-178817D01*
Y-179816D01*
X988063Y-180816D01*
X989063Y-181816D01*
Y-182815D01*
X988063Y-183815D01*
X986064D01*
X985064Y-182815D01*
Y-181816D01*
X986064Y-180816D01*
X985064Y-179816D01*
Y-178817D01*
X986064Y-180816D02*
X988063D01*
X991062Y-183815D02*
Y-179816D01*
X992062D01*
X993062Y-180816D01*
Y-183815D01*
Y-180816D01*
X994061Y-179816D01*
X995061Y-180816D01*
Y-183815D01*
X997060D02*
X999060D01*
X998060D01*
Y-179816D01*
X997060D01*
X1002059Y-183815D02*
X1004058D01*
X1003058D01*
Y-177817D01*
X1002059D01*
X972068Y-171815D02*
Y-165817D01*
X969069Y-168816D01*
X973068D01*
X975067Y-171815D02*
Y-170815D01*
X976067D01*
Y-171815D01*
X975067D01*
X980066Y-165817D02*
X984064D01*
Y-166817D01*
X980066Y-170815D01*
Y-171815D01*
X990063D02*
X986064D01*
X990063Y-167816D01*
Y-166817D01*
X989063Y-165817D01*
X987064D01*
X986064Y-166817D01*
X992062Y-171815D02*
Y-167816D01*
X993062D01*
X994061Y-168816D01*
Y-171815D01*
Y-168816D01*
X995061Y-167816D01*
X996060Y-168816D01*
Y-171815D01*
X998060D02*
X1000059D01*
X999060D01*
Y-167816D01*
X998060D01*
X1003058Y-171815D02*
X1005058D01*
X1004058D01*
Y-165817D01*
X1003058D01*
X969069Y-154817D02*
X970069Y-153817D01*
X972068D01*
X973068Y-154817D01*
Y-155816D01*
X972068Y-156816D01*
X971069D01*
X972068D01*
X973068Y-157816D01*
Y-158815D01*
X972068Y-159815D01*
X970069D01*
X969069Y-158815D01*
X975067Y-159815D02*
Y-158815D01*
X976067D01*
Y-159815D01*
X975067D01*
X980066Y-154817D02*
X981065Y-153817D01*
X983065D01*
X984064Y-154817D01*
Y-158815D01*
X983065Y-159815D01*
X981065D01*
X980066Y-158815D01*
Y-154817D01*
X986064Y-153817D02*
X990063D01*
Y-154817D01*
X986064Y-158815D01*
Y-159815D01*
X992062D02*
Y-155816D01*
X993062D01*
X994061Y-156816D01*
Y-159815D01*
Y-156816D01*
X995061Y-155816D01*
X996060Y-156816D01*
Y-159815D01*
X998060D02*
X1000059D01*
X999060D01*
Y-155816D01*
X998060D01*
X1003058Y-159815D02*
X1005058D01*
X1004058D01*
Y-153817D01*
X1003058D01*
X969069Y-142817D02*
X970069Y-141817D01*
X972068D01*
X973068Y-142817D01*
Y-146815D01*
X972068Y-147815D01*
X970069D01*
X969069Y-146815D01*
Y-142817D01*
X975067Y-147815D02*
Y-146815D01*
X976067D01*
Y-147815D01*
X975067D01*
X983065D02*
Y-141817D01*
X980066Y-144816D01*
X984064D01*
X986064Y-142817D02*
X987064Y-141817D01*
X989063D01*
X990063Y-142817D01*
Y-146815D01*
X989063Y-147815D01*
X987064D01*
X986064Y-146815D01*
Y-142817D01*
X992062Y-147815D02*
Y-143816D01*
X993062D01*
X994061Y-144816D01*
Y-147815D01*
Y-144816D01*
X995061Y-143816D01*
X996060Y-144816D01*
Y-147815D01*
X998060D02*
X1000059D01*
X999060D01*
Y-143816D01*
X998060D01*
X1003058Y-147815D02*
X1005058D01*
X1004058D01*
Y-141817D01*
X1003058D01*
X1038052Y-118817D02*
X1037052Y-117817D01*
X1035052D01*
X1034053Y-118817D01*
Y-122815D01*
X1035052Y-123815D01*
X1037052D01*
X1038052Y-122815D01*
X1041051Y-123815D02*
X1043050D01*
X1044050Y-122815D01*
Y-120816D01*
X1043050Y-119816D01*
X1041051D01*
X1040051Y-120816D01*
Y-122815D01*
X1041051Y-123815D01*
X1046049D02*
Y-119816D01*
X1049048D01*
X1050048Y-120816D01*
Y-123815D01*
X1052047D02*
X1055046D01*
X1056046Y-122815D01*
X1055046Y-121816D01*
X1053047D01*
X1052047Y-120816D01*
X1053047Y-119816D01*
X1056046D01*
X1059045Y-118817D02*
Y-119816D01*
X1058045D01*
X1060044D01*
X1059045D01*
Y-122815D01*
X1060044Y-123815D01*
X1064043Y-119816D02*
X1066042D01*
X1067042Y-120816D01*
Y-123815D01*
X1064043D01*
X1063043Y-122815D01*
X1064043Y-121816D01*
X1067042D01*
X1069042Y-123815D02*
Y-119816D01*
X1072040D01*
X1073040Y-120816D01*
Y-123815D01*
X1076039Y-118817D02*
Y-119816D01*
X1075039D01*
X1077039D01*
X1076039D01*
Y-122815D01*
X1077039Y-123815D01*
X1037052Y-291815D02*
Y-285817D01*
X1034053Y-288816D01*
X1038052D01*
X1037052Y-267815D02*
Y-261817D01*
X1034053Y-264816D01*
X1038052D01*
X1040051Y-267815D02*
Y-266815D01*
X1041051D01*
Y-267815D01*
X1040051D01*
X1049048D02*
X1045049D01*
X1049048Y-263816D01*
Y-262817D01*
X1048048Y-261817D01*
X1046049D01*
X1045049Y-262817D01*
X1037052Y-243815D02*
Y-237817D01*
X1034053Y-240816D01*
X1038052D01*
X1040051Y-243815D02*
Y-242815D01*
X1041051D01*
Y-243815D01*
X1040051D01*
X1049048D02*
X1045049D01*
X1049048Y-239816D01*
Y-238817D01*
X1048048Y-237817D01*
X1046049D01*
X1045049Y-238817D01*
X1037052Y-219815D02*
Y-213817D01*
X1034053Y-216816D01*
X1038052D01*
X1040051Y-219815D02*
Y-218815D01*
X1041051D01*
Y-219815D01*
X1040051D01*
X1049048D02*
X1045049D01*
X1049048Y-215816D01*
Y-214817D01*
X1048048Y-213817D01*
X1046049D01*
X1045049Y-214817D01*
X1037052Y-195815D02*
Y-189817D01*
X1034053Y-192816D01*
X1038052D01*
X1040051Y-195815D02*
Y-194815D01*
X1041051D01*
Y-195815D01*
X1040051D01*
X1049048D02*
X1045049D01*
X1049048Y-191816D01*
Y-190817D01*
X1048048Y-189817D01*
X1046049D01*
X1045049Y-190817D01*
X1037052Y-171815D02*
Y-165817D01*
X1034053Y-168816D01*
X1038052D01*
X1040051Y-171815D02*
Y-170815D01*
X1041051D01*
Y-171815D01*
X1040051D01*
X1049048D02*
X1045049D01*
X1049048Y-167816D01*
Y-166817D01*
X1048048Y-165817D01*
X1046049D01*
X1045049Y-166817D01*
X1037052Y-147815D02*
Y-141817D01*
X1034053Y-144816D01*
X1038052D01*
X1091039Y-117817D02*
Y-123815D01*
X1094038D01*
X1095038Y-122815D01*
Y-121816D01*
X1094038Y-120816D01*
X1091039D01*
X1094038D01*
X1095038Y-119816D01*
Y-118817D01*
X1094038Y-117817D01*
X1091039D01*
X1098037Y-123815D02*
X1100036D01*
X1101036Y-122815D01*
Y-120816D01*
X1100036Y-119816D01*
X1098037D01*
X1097037Y-120816D01*
Y-122815D01*
X1098037Y-123815D01*
X1104035Y-119816D02*
X1106034D01*
X1107034Y-120816D01*
Y-123815D01*
X1104035D01*
X1103035Y-122815D01*
X1104035Y-121816D01*
X1107034D01*
X1109033Y-119816D02*
Y-123815D01*
Y-121816D01*
X1110033Y-120816D01*
X1111032Y-119816D01*
X1112032D01*
X1119030Y-117817D02*
Y-123815D01*
X1116031D01*
X1115031Y-122815D01*
Y-120816D01*
X1116031Y-119816D01*
X1119030D01*
X1127027Y-117817D02*
Y-123815D01*
X1131026D01*
X1134025Y-119816D02*
X1136024D01*
X1137024Y-120816D01*
Y-123815D01*
X1134025D01*
X1133025Y-122815D01*
X1134025Y-121816D01*
X1137024D01*
X1139023Y-119816D02*
Y-122815D01*
X1140023Y-123815D01*
X1143022D01*
Y-124815D01*
X1142022Y-125814D01*
X1141023D01*
X1143022Y-123815D02*
Y-119816D01*
X1148020Y-123815D02*
X1146021D01*
X1145021Y-122815D01*
Y-120816D01*
X1146021Y-119816D01*
X1148020D01*
X1149020Y-120816D01*
Y-121816D01*
X1145021D01*
X1151019Y-119816D02*
Y-123815D01*
Y-121816D01*
X1152019Y-120816D01*
X1153019Y-119816D01*
X1154018D01*
X1167014Y-118817D02*
X1166015Y-117817D01*
X1164015D01*
X1163016Y-118817D01*
Y-119816D01*
X1164015Y-120816D01*
X1166015D01*
X1167014Y-121816D01*
Y-122815D01*
X1166015Y-123815D01*
X1164015D01*
X1163016Y-122815D01*
X1170013Y-118817D02*
Y-119816D01*
X1169014D01*
X1171013D01*
X1170013D01*
Y-122815D01*
X1171013Y-123815D01*
X1175012Y-119816D02*
X1177011D01*
X1178011Y-120816D01*
Y-123815D01*
X1175012D01*
X1174012Y-122815D01*
X1175012Y-121816D01*
X1178011D01*
X1184009Y-119816D02*
X1181010D01*
X1180010Y-120816D01*
Y-122815D01*
X1181010Y-123815D01*
X1184009D01*
X1186008D02*
Y-117817D01*
Y-121816D02*
X1189007Y-119816D01*
X1186008Y-121816D02*
X1189007Y-123815D01*
G54D15*
X724540Y-251193D02*
X723540Y-250194D01*
X721541D01*
X720541Y-251193D01*
Y-255192D01*
X721541Y-256192D01*
X723540D01*
X724540Y-255192D01*
Y-253193D01*
X722540D01*
X726539Y-256192D02*
Y-250194D01*
X729538D01*
X730538Y-251193D01*
Y-253193D01*
X729538Y-254193D01*
X726539D01*
X732537Y-251193D02*
X733537Y-250194D01*
X735536D01*
X736536Y-251193D01*
Y-252193D01*
X735536Y-253193D01*
X734537D01*
X735536D01*
X736536Y-254193D01*
Y-255192D01*
X735536Y-256192D01*
X733537D01*
X732537Y-255192D01*
X724059Y-299320D02*
X723060Y-298320D01*
X721060D01*
X720061Y-299320D01*
Y-303318D01*
X721060Y-304318D01*
X723060D01*
X724059Y-303318D01*
Y-301319D01*
X722060D01*
X726059Y-298320D02*
Y-304318D01*
X729058D01*
X730057Y-303318D01*
Y-302319D01*
X729058Y-301319D01*
X726059D01*
X729058D01*
X730057Y-300319D01*
Y-299320D01*
X729058Y-298320D01*
X726059D01*
X735056D02*
X733056D01*
X732057Y-299320D01*
Y-303318D01*
X733056Y-304318D01*
X735056D01*
X736056Y-303318D01*
Y-299320D01*
X735056Y-298320D01*
X731276Y-226603D02*
X730276Y-225603D01*
X728277D01*
X727277Y-226603D01*
Y-230602D01*
X728277Y-231601D01*
X730276D01*
X731276Y-230602D01*
Y-228602D01*
X729277D01*
X733275Y-231601D02*
X735275D01*
X734275D01*
Y-225603D01*
X733275Y-226603D01*
X722559Y-116320D02*
X718561D01*
Y-119319D01*
X720560D01*
X718561D01*
Y-122318D01*
X724559D02*
X726558D01*
X725559D01*
Y-118319D01*
X724559D01*
X729557Y-122318D02*
X731557D01*
X730557D01*
Y-116320D01*
X729557D01*
X737555Y-122318D02*
X735555D01*
X734555Y-121318D01*
Y-119319D01*
X735555Y-118319D01*
X737555D01*
X738554Y-119319D01*
Y-120319D01*
X734555D01*
X724059Y-287820D02*
X723060Y-286820D01*
X721060D01*
X720061Y-287820D01*
Y-291818D01*
X721060Y-292818D01*
X723060D01*
X724059Y-291818D01*
Y-289819D01*
X722060D01*
X726059Y-286820D02*
Y-292818D01*
X729058D01*
X730057Y-291818D01*
Y-290819D01*
X729058Y-289819D01*
X726059D01*
X729058D01*
X730057Y-288819D01*
Y-287820D01*
X729058Y-286820D01*
X726059D01*
X736056Y-287820D02*
X735056Y-286820D01*
X733056D01*
X732057Y-287820D01*
Y-288819D01*
X733056Y-289819D01*
X735056D01*
X736056Y-290819D01*
Y-291818D01*
X735056Y-292818D01*
X733056D01*
X732057Y-291818D01*
X723540Y-130693D02*
X722540Y-129694D01*
X720541D01*
X719541Y-130693D01*
Y-134692D01*
X720541Y-135692D01*
X722540D01*
X723540Y-134692D01*
Y-132693D01*
X721540D01*
X725539Y-129694D02*
X729538D01*
X727538D01*
Y-135692D01*
X734536Y-129694D02*
X732537D01*
X731537Y-130693D01*
Y-134692D01*
X732537Y-135692D01*
X734536D01*
X735536Y-134692D01*
Y-130693D01*
X734536Y-129694D01*
X723540Y-142693D02*
X722540Y-141694D01*
X720541D01*
X719541Y-142693D01*
Y-146692D01*
X720541Y-147692D01*
X722540D01*
X723540Y-146692D01*
Y-144693D01*
X721540D01*
X725539Y-141694D02*
X729538D01*
X727538D01*
Y-147692D01*
X735536Y-142693D02*
X734536Y-141694D01*
X732537D01*
X731537Y-142693D01*
Y-143693D01*
X732537Y-144693D01*
X734536D01*
X735536Y-145693D01*
Y-146692D01*
X734536Y-147692D01*
X732537D01*
X731537Y-146692D01*
X725059Y-276320D02*
X724060Y-275320D01*
X722060D01*
X721061Y-276320D01*
Y-280318D01*
X722060Y-281318D01*
X724060D01*
X725059Y-280318D01*
Y-278319D01*
X723060D01*
X727059Y-275320D02*
Y-281318D01*
X730058D01*
X731058Y-280318D01*
Y-279319D01*
X730058Y-278319D01*
X727059D01*
X730058D01*
X731058Y-277319D01*
Y-276320D01*
X730058Y-275320D01*
X727059D01*
X733057D02*
Y-281318D01*
X737056D01*
X723540Y-154693D02*
X722540Y-153694D01*
X720541D01*
X719541Y-154693D01*
Y-158692D01*
X720541Y-159692D01*
X722540D01*
X723540Y-158692D01*
Y-156693D01*
X721540D01*
X725539Y-153694D02*
X729538D01*
X727538D01*
Y-159692D01*
X731537Y-153694D02*
Y-159692D01*
X735536D01*
X724776Y-202603D02*
X723776Y-201603D01*
X721777D01*
X720777Y-202603D01*
Y-206602D01*
X721777Y-207601D01*
X723776D01*
X724776Y-206602D01*
Y-204602D01*
X722777D01*
X726775Y-207601D02*
Y-201603D01*
X729774D01*
X730774Y-202603D01*
Y-204602D01*
X729774Y-205602D01*
X726775D01*
X736772Y-207601D02*
X732773D01*
X736772Y-203603D01*
Y-202603D01*
X735772Y-201603D01*
X733773D01*
X732773Y-202603D01*
X724776Y-179103D02*
X723776Y-178103D01*
X721777D01*
X720777Y-179103D01*
Y-183102D01*
X721777Y-184101D01*
X723776D01*
X724776Y-183102D01*
Y-181102D01*
X722777D01*
X726775Y-184101D02*
Y-178103D01*
X729774D01*
X730774Y-179103D01*
Y-181102D01*
X729774Y-182102D01*
X726775D01*
X732773Y-184101D02*
X734773D01*
X733773D01*
Y-178103D01*
X732773Y-179103D01*
X693218Y291840D02*
Y299837D01*
X698550Y291840D01*
Y299837D01*
X705214D02*
X702549D01*
X701216Y298504D01*
Y293173D01*
X702549Y291840D01*
X705214D01*
X706547Y293173D01*
Y298504D01*
X705214Y299837D01*
X709213D02*
X714545D01*
X711879D01*
Y291840D01*
X722542Y299837D02*
X717210D01*
Y291840D01*
X722542D01*
X717210Y295838D02*
X719876D01*
X730540Y298504D02*
X729207Y299837D01*
X726541D01*
X725208Y298504D01*
Y297171D01*
X726541Y295838D01*
X729207D01*
X730540Y294505D01*
Y293173D01*
X729207Y291840D01*
X726541D01*
X725208Y293173D01*
X743868Y291840D02*
X741203Y294505D01*
Y297171D01*
X743868Y299837D01*
X747867D02*
Y293173D01*
X749200Y291840D01*
X751866D01*
X753199Y293173D01*
Y299837D01*
X755865Y291840D02*
Y299837D01*
X761196Y291840D01*
Y299837D01*
X763862D02*
Y291840D01*
X769194D01*
X777191Y299837D02*
X771859D01*
Y291840D01*
X777191D01*
X771859Y295838D02*
X774525D01*
X785188Y298504D02*
X783855Y299837D01*
X781190D01*
X779857Y298504D01*
Y297171D01*
X781190Y295838D01*
X783855D01*
X785188Y294505D01*
Y293173D01*
X783855Y291840D01*
X781190D01*
X779857Y293173D01*
X793186Y298504D02*
X791853Y299837D01*
X789187D01*
X787854Y298504D01*
Y297171D01*
X789187Y295838D01*
X791853D01*
X793186Y294505D01*
Y293173D01*
X791853Y291840D01*
X789187D01*
X787854Y293173D01*
X809181Y298504D02*
X807848Y299837D01*
X805182D01*
X803849Y298504D01*
Y297171D01*
X805182Y295838D01*
X807848D01*
X809181Y294505D01*
Y293173D01*
X807848Y291840D01*
X805182D01*
X803849Y293173D01*
X811847Y291840D02*
Y299837D01*
X815845D01*
X817178Y298504D01*
Y295838D01*
X815845Y294505D01*
X811847D01*
X825175Y299837D02*
X819844D01*
Y291840D01*
X825175D01*
X819844Y295838D02*
X822510D01*
X833173Y298504D02*
X831840Y299837D01*
X829174D01*
X827841Y298504D01*
Y293173D01*
X829174Y291840D01*
X831840D01*
X833173Y293173D01*
X835839Y299837D02*
X838505D01*
X837172D01*
Y291840D01*
X835839D01*
X838505D01*
X847835Y299837D02*
X842503D01*
Y295838D01*
X845169D01*
X842503D01*
Y291840D01*
X850501Y299837D02*
X853166D01*
X851834D01*
Y291840D01*
X850501D01*
X853166D01*
X862497Y299837D02*
X857165D01*
Y291840D01*
X862497D01*
X857165Y295838D02*
X859831D01*
X865162Y299837D02*
Y291840D01*
X869161D01*
X870494Y293173D01*
Y298504D01*
X869161Y299837D01*
X865162D01*
X885156D02*
X882490D01*
X881157Y298504D01*
Y293173D01*
X882490Y291840D01*
X885156D01*
X886489Y293173D01*
Y298504D01*
X885156Y299837D01*
X889155D02*
X894486D01*
X891821D01*
Y291840D01*
X897152Y299837D02*
Y291840D01*
Y295838D01*
X902484D01*
Y299837D01*
Y291840D01*
X910481Y299837D02*
X905150D01*
Y291840D01*
X910481D01*
X905150Y295838D02*
X907815D01*
X913147Y291840D02*
Y299837D01*
X917146D01*
X918479Y298504D01*
Y295838D01*
X917146Y294505D01*
X913147D01*
X915813D02*
X918479Y291840D01*
X921144Y299837D02*
Y291840D01*
X923810Y294505D01*
X926476Y291840D01*
Y299837D01*
X929142D02*
X931808D01*
X930475D01*
Y291840D01*
X929142D01*
X931808D01*
X941138Y298504D02*
X939805Y299837D01*
X937139D01*
X935806Y298504D01*
Y297171D01*
X937139Y295838D01*
X939805D01*
X941138Y294505D01*
Y293173D01*
X939805Y291840D01*
X937139D01*
X935806Y293173D01*
X949135Y299837D02*
X943804D01*
Y291840D01*
X949135D01*
X943804Y295838D02*
X946469D01*
X951801Y291840D02*
X954467Y294505D01*
Y297171D01*
X951801Y299837D01*
X703061Y262312D02*
X705726D01*
X704394D01*
Y270309D01*
X703061Y268976D01*
X709725Y262312D02*
Y263645D01*
X711058D01*
Y262312D01*
X709725D01*
X729719Y270309D02*
X724387D01*
Y266311D01*
X727053D01*
X724387D01*
Y262312D01*
X732385D02*
Y267644D01*
X735050Y270309D01*
X737716Y267644D01*
Y262312D01*
Y266311D01*
X732385D01*
X740382Y270309D02*
Y262312D01*
X744381D01*
X745714Y263645D01*
Y264978D01*
X744381Y266311D01*
X740382D01*
X744381D01*
X745714Y267644D01*
Y268976D01*
X744381Y270309D01*
X740382D01*
X748379Y262312D02*
Y270309D01*
X752378D01*
X753711Y268976D01*
Y266311D01*
X752378Y264978D01*
X748379D01*
X751045D02*
X753711Y262312D01*
X756377Y270309D02*
X759043D01*
X757710D01*
Y262312D01*
X756377D01*
X759043D01*
X768373Y268976D02*
X767040Y270309D01*
X764374D01*
X763041Y268976D01*
Y263645D01*
X764374Y262312D01*
X767040D01*
X768373Y263645D01*
X771039Y262312D02*
Y267644D01*
X773704Y270309D01*
X776370Y267644D01*
Y262312D01*
Y266311D01*
X771039D01*
X779036Y270309D02*
X784368D01*
X781702D01*
Y262312D01*
X792365Y270309D02*
X787034D01*
Y262312D01*
X792365D01*
X787034Y266311D02*
X789699D01*
X803028Y262312D02*
Y270309D01*
X807027D01*
X808360Y268976D01*
Y266311D01*
X807027Y264978D01*
X803028D01*
X816357Y268976D02*
X815024Y270309D01*
X812359D01*
X811026Y268976D01*
Y263645D01*
X812359Y262312D01*
X815024D01*
X816357Y263645D01*
X819023Y270309D02*
Y262312D01*
X823022D01*
X824355Y263645D01*
Y264978D01*
X823022Y266311D01*
X819023D01*
X823022D01*
X824355Y267644D01*
Y268976D01*
X823022Y270309D01*
X819023D01*
X835018D02*
X837684D01*
X836351D01*
Y262312D01*
X835018D01*
X837684D01*
X841683D02*
Y270309D01*
X847014Y262312D01*
Y270309D01*
X857677Y262312D02*
Y267644D01*
X860343Y270309D01*
X863009Y267644D01*
Y262312D01*
Y266311D01*
X857677D01*
X871006Y268976D02*
X869673Y270309D01*
X867008D01*
X865675Y268976D01*
Y263645D01*
X867008Y262312D01*
X869673D01*
X871006Y263645D01*
X879004Y268976D02*
X877671Y270309D01*
X875005D01*
X873672Y268976D01*
Y263645D01*
X875005Y262312D01*
X877671D01*
X879004Y263645D01*
X885668Y270309D02*
X883002D01*
X881670Y268976D01*
Y263645D01*
X883002Y262312D01*
X885668D01*
X887001Y263645D01*
Y268976D01*
X885668Y270309D01*
X889667Y262312D02*
Y270309D01*
X893666D01*
X894999Y268976D01*
Y266311D01*
X893666Y264978D01*
X889667D01*
X892333D02*
X894999Y262312D01*
X897664Y270309D02*
Y262312D01*
X901663D01*
X902996Y263645D01*
Y268976D01*
X901663Y270309D01*
X897664D01*
X905662Y262312D02*
Y267644D01*
X908328Y270309D01*
X910993Y267644D01*
Y262312D01*
Y266311D01*
X905662D01*
X913659Y262312D02*
Y270309D01*
X918991Y262312D01*
Y270309D01*
X926988Y268976D02*
X925655Y270309D01*
X922989D01*
X921657Y268976D01*
Y263645D01*
X922989Y262312D01*
X925655D01*
X926988Y263645D01*
X934986Y270309D02*
X929654D01*
Y262312D01*
X934986D01*
X929654Y266311D02*
X932320D01*
X945649Y270309D02*
Y262312D01*
X948315Y264978D01*
X950980Y262312D01*
Y270309D01*
X953646D02*
X956312D01*
X954979D01*
Y262312D01*
X953646D01*
X956312D01*
X960311Y270309D02*
X965642D01*
X962976D01*
Y262312D01*
X968308Y270309D02*
Y262312D01*
Y266311D01*
X973640D01*
Y270309D01*
Y262312D01*
X984303Y270309D02*
X986969D01*
X985636D01*
Y262312D01*
X984303D01*
X986969D01*
X990967D02*
Y270309D01*
X994966D01*
X996299Y268976D01*
Y266311D01*
X994966Y264978D01*
X990967D01*
X1004296Y268976D02*
X1002964Y270309D01*
X1000298D01*
X998965Y268976D01*
Y263645D01*
X1000298Y262312D01*
X1002964D01*
X1004296Y263645D01*
X1006962Y266311D02*
X1012294D01*
X1014960Y262312D02*
Y267644D01*
X1017626Y270309D01*
X1020291Y267644D01*
Y262312D01*
Y266311D01*
X1014960D01*
X1022957D02*
X1028289D01*
X1036286Y270309D02*
X1033620Y268976D01*
X1030954Y266311D01*
Y263645D01*
X1032287Y262312D01*
X1034953D01*
X1036286Y263645D01*
Y264978D01*
X1034953Y266311D01*
X1030954D01*
X1038952Y268976D02*
X1040285Y270309D01*
X1042951D01*
X1044284Y268976D01*
Y263645D01*
X1042951Y262312D01*
X1040285D01*
X1038952Y263645D01*
Y268976D01*
X1046949D02*
X1048282Y270309D01*
X1050948D01*
X1052281Y268976D01*
Y263645D01*
X1050948Y262312D01*
X1048282D01*
X1046949Y263645D01*
Y268976D01*
X1068276D02*
X1066943Y270309D01*
X1064277D01*
X1062944Y268976D01*
Y263645D01*
X1064277Y262312D01*
X1066943D01*
X1068276Y263645D01*
X1070942Y270309D02*
Y262312D01*
X1076273D01*
X1078939D02*
Y267644D01*
X1081605Y270309D01*
X1084271Y267644D01*
Y262312D01*
Y266311D01*
X1078939D01*
X1092268Y268976D02*
X1090935Y270309D01*
X1088269D01*
X1086936Y268976D01*
Y267644D01*
X1088269Y266311D01*
X1090935D01*
X1092268Y264978D01*
Y263645D01*
X1090935Y262312D01*
X1088269D01*
X1086936Y263645D01*
X1100265Y268976D02*
X1098932Y270309D01*
X1096267D01*
X1094934Y268976D01*
Y267644D01*
X1096267Y266311D01*
X1098932D01*
X1100265Y264978D01*
Y263645D01*
X1098932Y262312D01*
X1096267D01*
X1094934Y263645D01*
X1116260Y262312D02*
X1110929D01*
X1116260Y267644D01*
Y268976D01*
X1114927Y270309D01*
X1112261D01*
X1110929Y268976D01*
X1129589Y262312D02*
X1126923Y264978D01*
Y267644D01*
X1129589Y270309D01*
X1133588D02*
Y262312D01*
X1138920D01*
X1141585D02*
Y267644D01*
X1144251Y270309D01*
X1146917Y267644D01*
Y262312D01*
Y266311D01*
X1141585D01*
X1149583Y270309D02*
X1154914D01*
X1152249D01*
Y262312D01*
X1162912Y270309D02*
X1157580D01*
Y262312D01*
X1162912D01*
X1157580Y266311D02*
X1160246D01*
X1170909Y268976D02*
X1169576Y270309D01*
X1166910D01*
X1165578Y268976D01*
Y267644D01*
X1166910Y266311D01*
X1169576D01*
X1170909Y264978D01*
Y263645D01*
X1169576Y262312D01*
X1166910D01*
X1165578Y263645D01*
X1173575Y270309D02*
X1178907D01*
X1176241D01*
Y262312D01*
X1189570D02*
Y270309D01*
X1193569D01*
X1194901Y268976D01*
Y266311D01*
X1193569Y264978D01*
X1189570D01*
X1192236D02*
X1194901Y262312D01*
X1202899Y270309D02*
X1197567D01*
Y262312D01*
X1202899D01*
X1197567Y266311D02*
X1200233D01*
X1205565Y270309D02*
Y264978D01*
X1208230Y262312D01*
X1210896Y264978D01*
Y270309D01*
X1213562D02*
X1216228D01*
X1214895D01*
Y262312D01*
X1213562D01*
X1216228D01*
X1225558Y268976D02*
X1224225Y270309D01*
X1221560D01*
X1220227Y268976D01*
Y267644D01*
X1221560Y266311D01*
X1224225D01*
X1225558Y264978D01*
Y263645D01*
X1224225Y262312D01*
X1221560D01*
X1220227Y263645D01*
X1228224Y270309D02*
X1230890D01*
X1229557D01*
Y262312D01*
X1228224D01*
X1230890D01*
X1238887Y270309D02*
X1236221D01*
X1234888Y268976D01*
Y263645D01*
X1236221Y262312D01*
X1238887D01*
X1240220Y263645D01*
Y268976D01*
X1238887Y270309D01*
X1242886Y262312D02*
Y270309D01*
X1248217Y262312D01*
Y270309D01*
X1250883Y262312D02*
X1253549Y264978D01*
Y267644D01*
X1250883Y270309D01*
X708392Y232785D02*
X703061D01*
X708392Y238116D01*
Y239449D01*
X707059Y240782D01*
X704394D01*
X703061Y239449D01*
X711058Y232785D02*
Y234117D01*
X712391D01*
Y232785D01*
X711058D01*
X725720Y240782D02*
X731052D01*
X728386D01*
Y232785D01*
X733717Y240782D02*
Y232785D01*
Y236783D01*
X739049D01*
Y240782D01*
Y232785D01*
X747047Y240782D02*
X741715D01*
Y232785D01*
X747047D01*
X741715Y236783D02*
X744381D01*
X757710Y232785D02*
Y240782D01*
X761708D01*
X763041Y239449D01*
Y236783D01*
X761708Y235450D01*
X757710D01*
X771039Y239449D02*
X769706Y240782D01*
X767040D01*
X765707Y239449D01*
Y234117D01*
X767040Y232785D01*
X769706D01*
X771039Y234117D01*
X773704Y240782D02*
Y232785D01*
X777703D01*
X779036Y234117D01*
Y235450D01*
X777703Y236783D01*
X773704D01*
X777703D01*
X779036Y238116D01*
Y239449D01*
X777703Y240782D01*
X773704D01*
X789699Y232785D02*
Y240782D01*
X792365Y238116D01*
X795031Y240782D01*
Y232785D01*
X797697Y240782D02*
Y234117D01*
X799030Y232785D01*
X801695D01*
X803028Y234117D01*
Y240782D01*
X811026Y239449D02*
X809693Y240782D01*
X807027D01*
X805694Y239449D01*
Y238116D01*
X807027Y236783D01*
X809693D01*
X811026Y235450D01*
Y234117D01*
X809693Y232785D01*
X807027D01*
X805694Y234117D01*
X813692Y240782D02*
X819023D01*
X816357D01*
Y232785D01*
X829686Y240782D02*
Y232785D01*
X833685D01*
X835018Y234117D01*
Y235450D01*
X833685Y236783D01*
X829686D01*
X833685D01*
X835018Y238116D01*
Y239449D01*
X833685Y240782D01*
X829686D01*
X843015D02*
X837684D01*
Y232785D01*
X843015D01*
X837684Y236783D02*
X840350D01*
X853679Y240782D02*
Y232785D01*
X859010D01*
X867008Y240782D02*
X861676D01*
Y232785D01*
X867008D01*
X861676Y236783D02*
X864342D01*
X869673Y232785D02*
Y238116D01*
X872339Y240782D01*
X875005Y238116D01*
Y232785D01*
Y236783D01*
X869673D01*
X877671Y240782D02*
Y232785D01*
X881670D01*
X883002Y234117D01*
Y239449D01*
X881670Y240782D01*
X877671D01*
X898997D02*
X893666D01*
Y236783D01*
X896332D01*
X893666D01*
Y232785D01*
X901663D02*
Y240782D01*
X905662D01*
X906995Y239449D01*
Y236783D01*
X905662Y235450D01*
X901663D01*
X904329D02*
X906995Y232785D01*
X914992Y240782D02*
X909661D01*
Y232785D01*
X914992D01*
X909661Y236783D02*
X912326D01*
X922989Y240782D02*
X917658D01*
Y232785D01*
X922989D01*
X917658Y236783D02*
X920324D01*
X933653Y232785D02*
Y238116D01*
X936318Y240782D01*
X938984Y238116D01*
Y232785D01*
Y236783D01*
X933653D01*
X946982Y239449D02*
X945649Y240782D01*
X942983D01*
X941650Y239449D01*
Y238116D01*
X942983Y236783D01*
X945649D01*
X946982Y235450D01*
Y234117D01*
X945649Y232785D01*
X942983D01*
X941650Y234117D01*
X954979Y239449D02*
X953646Y240782D01*
X950980D01*
X949648Y239449D01*
Y238116D01*
X950980Y236783D01*
X953646D01*
X954979Y235450D01*
Y234117D01*
X953646Y232785D01*
X950980D01*
X949648Y234117D01*
X962976Y240782D02*
X957645D01*
Y232785D01*
X962976D01*
X957645Y236783D02*
X960311D01*
X965642Y232785D02*
Y240782D01*
X968308Y238116D01*
X970974Y240782D01*
Y232785D01*
X973640Y240782D02*
Y232785D01*
X977639D01*
X978971Y234117D01*
Y235450D01*
X977639Y236783D01*
X973640D01*
X977639D01*
X978971Y238116D01*
Y239449D01*
X977639Y240782D01*
X973640D01*
X981637D02*
Y232785D01*
X986969D01*
X989635Y240782D02*
Y239449D01*
X992300Y236783D01*
X994966Y239449D01*
Y240782D01*
X992300Y236783D02*
Y232785D01*
X1005629D02*
Y240782D01*
X1009628D01*
X1010961Y239449D01*
Y236783D01*
X1009628Y235450D01*
X1005629D01*
X1013627Y232785D02*
Y240782D01*
X1017626D01*
X1018958Y239449D01*
Y236783D01*
X1017626Y235450D01*
X1013627D01*
X1016293D02*
X1018958Y232785D01*
X1025623Y240782D02*
X1022957D01*
X1021624Y239449D01*
Y234117D01*
X1022957Y232785D01*
X1025623D01*
X1026956Y234117D01*
Y239449D01*
X1025623Y240782D01*
X1034953Y239449D02*
X1033620Y240782D01*
X1030954D01*
X1029622Y239449D01*
Y234117D01*
X1030954Y232785D01*
X1033620D01*
X1034953Y234117D01*
X1042951Y240782D02*
X1037619D01*
Y232785D01*
X1042951D01*
X1037619Y236783D02*
X1040285D01*
X1050948Y239449D02*
X1049615Y240782D01*
X1046949D01*
X1045617Y239449D01*
Y238116D01*
X1046949Y236783D01*
X1049615D01*
X1050948Y235450D01*
Y234117D01*
X1049615Y232785D01*
X1046949D01*
X1045617Y234117D01*
X1058945Y239449D02*
X1057613Y240782D01*
X1054947D01*
X1053614Y239449D01*
Y238116D01*
X1054947Y236783D01*
X1057613D01*
X1058945Y235450D01*
Y234117D01*
X1057613Y232785D01*
X1054947D01*
X1053614Y234117D01*
X1074940Y239449D02*
X1073607Y240782D01*
X1070942D01*
X1069609Y239449D01*
Y234117D01*
X1070942Y232785D01*
X1073607D01*
X1074940Y234117D01*
X1081605Y240782D02*
X1078939D01*
X1077606Y239449D01*
Y234117D01*
X1078939Y232785D01*
X1081605D01*
X1082938Y234117D01*
Y239449D01*
X1081605Y240782D01*
X1085604Y232785D02*
Y240782D01*
X1088269Y238116D01*
X1090935Y240782D01*
Y232785D01*
X1093601D02*
Y240782D01*
X1097600D01*
X1098932Y239449D01*
Y236783D01*
X1097600Y235450D01*
X1093601D01*
X1101598Y232785D02*
Y238116D01*
X1104264Y240782D01*
X1106930Y238116D01*
Y232785D01*
Y236783D01*
X1101598D01*
X1109596Y240782D02*
X1114927D01*
X1112261D01*
Y232785D01*
X1117593Y240782D02*
X1120259D01*
X1118926D01*
Y232785D01*
X1117593D01*
X1120259D01*
X1124258Y240782D02*
Y232785D01*
X1128256D01*
X1129589Y234117D01*
Y235450D01*
X1128256Y236783D01*
X1124258D01*
X1128256D01*
X1129589Y238116D01*
Y239449D01*
X1128256Y240782D01*
X1124258D01*
X1132255D02*
Y232785D01*
X1137587D01*
X1145584Y240782D02*
X1140252D01*
Y232785D01*
X1145584D01*
X1140252Y236783D02*
X1142918D01*
X1148250Y232785D02*
Y234117D01*
X1149583D01*
Y232785D01*
X1148250D01*
X703061Y200079D02*
X704394Y201412D01*
X707059D01*
X708392Y200079D01*
Y198746D01*
X707059Y197413D01*
X705726D01*
X707059D01*
X708392Y196080D01*
Y194747D01*
X707059Y193414D01*
X704394D01*
X703061Y194747D01*
X711058Y193414D02*
Y194747D01*
X712391D01*
Y193414D01*
X711058D01*
X725720Y201412D02*
Y193414D01*
X731052D01*
X733717D02*
Y198746D01*
X736383Y201412D01*
X739049Y198746D01*
Y193414D01*
Y197413D01*
X733717D01*
X741715Y193414D02*
Y201412D01*
X744381Y198746D01*
X747047Y201412D01*
Y193414D01*
X749712Y201412D02*
X752378D01*
X751045D01*
Y193414D01*
X749712D01*
X752378D01*
X756377D02*
Y201412D01*
X761708Y193414D01*
Y201412D01*
X764374Y193414D02*
Y198746D01*
X767040Y201412D01*
X769706Y198746D01*
Y193414D01*
Y197413D01*
X764374D01*
X772372Y201412D02*
X777703D01*
X775037D01*
Y193414D01*
X785701Y201412D02*
X780369D01*
Y193414D01*
X785701D01*
X780369Y197413D02*
X783035D01*
X796364Y193414D02*
Y198746D01*
X799030Y201412D01*
X801695Y198746D01*
Y193414D01*
Y197413D01*
X796364D01*
X804361Y193414D02*
Y201412D01*
X809693Y193414D01*
Y201412D01*
X812359D02*
Y193414D01*
X816357D01*
X817690Y194747D01*
Y200079D01*
X816357Y201412D01*
X812359D01*
X828354Y193414D02*
Y201412D01*
X832352D01*
X833685Y200079D01*
Y197413D01*
X832352Y196080D01*
X828354D01*
X836351Y193414D02*
Y201412D01*
X840350D01*
X841683Y200079D01*
Y197413D01*
X840350Y196080D01*
X836351D01*
X839017D02*
X841683Y193414D01*
X849680Y201412D02*
X844348D01*
Y193414D01*
X849680D01*
X844348Y197413D02*
X847014D01*
X852346Y193414D02*
Y201412D01*
X856344D01*
X857677Y200079D01*
Y197413D01*
X856344Y196080D01*
X852346D01*
X860343Y193414D02*
Y201412D01*
X864342D01*
X865675Y200079D01*
Y197413D01*
X864342Y196080D01*
X860343D01*
X863009D02*
X865675Y193414D01*
X873672Y201412D02*
X868340D01*
Y193414D01*
X873672D01*
X868340Y197413D02*
X871006D01*
X881670Y200079D02*
X880337Y201412D01*
X877671D01*
X876338Y200079D01*
Y194747D01*
X877671Y193414D01*
X880337D01*
X881670Y194747D01*
Y197413D01*
X879004D01*
X892333Y201412D02*
X897664D01*
X894999D01*
Y193414D01*
X904329Y201412D02*
X901663D01*
X900330Y200079D01*
Y194747D01*
X901663Y193414D01*
X904329D01*
X905662Y194747D01*
Y200079D01*
X904329Y201412D01*
X916325D02*
Y193414D01*
X920324D01*
X921657Y194747D01*
Y196080D01*
X920324Y197413D01*
X916325D01*
X920324D01*
X921657Y198746D01*
Y200079D01*
X920324Y201412D01*
X916325D01*
X929654D02*
X924322D01*
Y193414D01*
X929654D01*
X924322Y197413D02*
X926988D01*
X945649Y201412D02*
X940317D01*
Y197413D01*
X942983D01*
X940317D01*
Y193414D01*
X948315D02*
Y201412D01*
X952313D01*
X953646Y200079D01*
Y197413D01*
X952313Y196080D01*
X948315D01*
X950980D02*
X953646Y193414D01*
X960311D02*
Y201412D01*
X956312Y197413D01*
X961644D01*
X972307Y201412D02*
X977639D01*
X974973D01*
Y193414D01*
X985636Y200079D02*
X984303Y201412D01*
X981637D01*
X980304Y200079D01*
Y194747D01*
X981637Y193414D01*
X984303D01*
X985636Y194747D01*
Y197413D01*
X982970D01*
X988302Y193414D02*
X990967D01*
X989635D01*
Y201412D01*
X988302Y200079D01*
X994966Y201412D02*
X1000298D01*
Y200079D01*
X994966Y194747D01*
Y193414D01*
X1002964Y200079D02*
X1004296Y201412D01*
X1006962D01*
X1008295Y200079D01*
Y194747D01*
X1006962Y193414D01*
X1004296D01*
X1002964Y194747D01*
Y200079D01*
X707059Y163887D02*
Y171884D01*
X703061Y167885D01*
X708392D01*
X711058Y163887D02*
Y165220D01*
X712391D01*
Y163887D01*
X711058D01*
X725720D02*
Y171884D01*
X729719D01*
X731052Y170551D01*
Y167885D01*
X729719Y166553D01*
X725720D01*
X733717Y171884D02*
Y163887D01*
X739049D01*
X741715D02*
Y169218D01*
X744381Y171884D01*
X747047Y169218D01*
Y163887D01*
Y167885D01*
X741715D01*
X749712Y171884D02*
X755044D01*
X752378D01*
Y163887D01*
X757710Y171884D02*
X760375D01*
X759043D01*
Y163887D01*
X757710D01*
X760375D01*
X764374D02*
Y171884D01*
X769706Y163887D01*
Y171884D01*
X777703Y170551D02*
X776370Y171884D01*
X773704D01*
X772372Y170551D01*
Y165220D01*
X773704Y163887D01*
X776370D01*
X777703Y165220D01*
Y167885D01*
X775037D01*
X793698Y171884D02*
X788366D01*
Y167885D01*
X791032D01*
X788366D01*
Y163887D01*
X796364Y171884D02*
X799030D01*
X797697D01*
Y163887D01*
X796364D01*
X799030D01*
X803028D02*
Y171884D01*
X808360Y163887D01*
Y171884D01*
X811026D02*
X813692D01*
X812359D01*
Y163887D01*
X811026D01*
X813692D01*
X823022Y170551D02*
X821689Y171884D01*
X819023D01*
X817690Y170551D01*
Y169218D01*
X819023Y167885D01*
X821689D01*
X823022Y166553D01*
Y165220D01*
X821689Y163887D01*
X819023D01*
X817690Y165220D01*
X825688Y171884D02*
Y163887D01*
Y167885D01*
X831019D01*
Y171884D01*
Y163887D01*
X841683Y167885D02*
X847014D01*
X857677Y171884D02*
Y163887D01*
X861676D01*
X863009Y165220D01*
Y166553D01*
X861676Y167885D01*
X857677D01*
X861676D01*
X863009Y169218D01*
Y170551D01*
X861676Y171884D01*
X857677D01*
X869673D02*
X867008D01*
X865675Y170551D01*
Y165220D01*
X867008Y163887D01*
X869673D01*
X871006Y165220D01*
Y170551D01*
X869673Y171884D01*
X873672D02*
X879004D01*
X876338D01*
Y163887D01*
X881670Y171884D02*
Y163887D01*
Y167885D01*
X887001D01*
Y171884D01*
Y163887D01*
X902996Y170551D02*
X901663Y171884D01*
X898997D01*
X897664Y170551D01*
Y169218D01*
X898997Y167885D01*
X901663D01*
X902996Y166553D01*
Y165220D01*
X901663Y163887D01*
X898997D01*
X897664Y165220D01*
X905662Y171884D02*
X908328D01*
X906995D01*
Y163887D01*
X905662D01*
X908328D01*
X912326Y171884D02*
Y163887D01*
X916325D01*
X917658Y165220D01*
Y170551D01*
X916325Y171884D01*
X912326D01*
X925655D02*
X920324D01*
Y163887D01*
X925655D01*
X920324Y167885D02*
X922989D01*
X933653Y170551D02*
X932320Y171884D01*
X929654D01*
X928321Y170551D01*
Y169218D01*
X929654Y167885D01*
X932320D01*
X933653Y166553D01*
Y165220D01*
X932320Y163887D01*
X929654D01*
X928321Y165220D01*
X949648Y171884D02*
X944316D01*
Y163887D01*
X949648D01*
X944316Y167885D02*
X946982D01*
X952313Y163887D02*
Y171884D01*
X957645Y163887D01*
Y171884D01*
X960311D02*
X962976D01*
X961644D01*
Y163887D01*
X960311D01*
X962976D01*
X972307Y170551D02*
X970974Y171884D01*
X968308D01*
X966975Y170551D01*
Y165220D01*
X968308Y163887D01*
X970974D01*
X972307Y165220D01*
Y167885D01*
X969641D01*
X988302Y170551D02*
X986969Y171884D01*
X984303D01*
X982970Y170551D01*
Y165220D01*
X984303Y163887D01*
X986969D01*
X988302Y165220D01*
Y167885D01*
X985636D01*
X994966Y171884D02*
X992300D01*
X990967Y170551D01*
Y165220D01*
X992300Y163887D01*
X994966D01*
X996299Y165220D01*
Y170551D01*
X994966Y171884D01*
X998965D02*
Y163887D01*
X1004296D01*
X1006962Y171884D02*
Y163887D01*
X1010961D01*
X1012294Y165220D01*
Y170551D01*
X1010961Y171884D01*
X1006962D01*
X1022957Y163887D02*
Y171884D01*
X1026956D01*
X1028289Y170551D01*
Y167885D01*
X1026956Y166553D01*
X1022957D01*
X1030954Y171884D02*
Y163887D01*
X1036286D01*
X1038952D02*
Y169218D01*
X1041618Y171884D01*
X1044284Y169218D01*
Y163887D01*
Y167885D01*
X1038952D01*
X1046949Y171884D02*
X1052281D01*
X1049615D01*
Y163887D01*
X1060278Y171884D02*
X1054947D01*
Y163887D01*
X1060278D01*
X1054947Y167885D02*
X1057613D01*
X1062944Y171884D02*
Y163887D01*
X1066943D01*
X1068276Y165220D01*
Y170551D01*
X1066943Y171884D01*
X1062944D01*
X708392Y142357D02*
X703061D01*
Y138358D01*
X705726Y139691D01*
X707059D01*
X708392Y138358D01*
Y135692D01*
X707059Y134359D01*
X704394D01*
X703061Y135692D01*
X711058Y134359D02*
Y135692D01*
X712391D01*
Y134359D01*
X711058D01*
X731052Y141024D02*
X729719Y142357D01*
X727053D01*
X725720Y141024D01*
Y139691D01*
X727053Y138358D01*
X729719D01*
X731052Y137025D01*
Y135692D01*
X729719Y134359D01*
X727053D01*
X725720Y135692D01*
X737716Y142357D02*
X735050D01*
X733717Y141024D01*
Y135692D01*
X735050Y134359D01*
X737716D01*
X739049Y135692D01*
Y141024D01*
X737716Y142357D01*
X741715D02*
Y134359D01*
X747047D01*
X749712Y142357D02*
Y134359D01*
X753711D01*
X755044Y135692D01*
Y141024D01*
X753711Y142357D01*
X749712D01*
X763041D02*
X757710D01*
Y134359D01*
X763041D01*
X757710Y138358D02*
X760375D01*
X765707Y134359D02*
Y142357D01*
X769706D01*
X771039Y141024D01*
Y138358D01*
X769706Y137025D01*
X765707D01*
X768373D02*
X771039Y134359D01*
X773704D02*
Y142357D01*
X776370Y139691D01*
X779036Y142357D01*
Y134359D01*
X781702D02*
Y139691D01*
X784368Y142357D01*
X787034Y139691D01*
Y134359D01*
Y138358D01*
X781702D01*
X795031Y141024D02*
X793698Y142357D01*
X791032D01*
X789699Y141024D01*
Y139691D01*
X791032Y138358D01*
X793698D01*
X795031Y137025D01*
Y135692D01*
X793698Y134359D01*
X791032D01*
X789699Y135692D01*
X797697Y142357D02*
Y134359D01*
Y137025D01*
X803028Y142357D01*
X799030Y138358D01*
X803028Y134359D01*
X813692Y138358D02*
X819023D01*
X829686Y142357D02*
Y134359D01*
X833685D01*
X835018Y135692D01*
Y137025D01*
X833685Y138358D01*
X829686D01*
X833685D01*
X835018Y139691D01*
Y141024D01*
X833685Y142357D01*
X829686D01*
X841683D02*
X839017D01*
X837684Y141024D01*
Y135692D01*
X839017Y134359D01*
X841683D01*
X843015Y135692D01*
Y141024D01*
X841683Y142357D01*
X845681D02*
X851013D01*
X848347D01*
Y134359D01*
X853679Y142357D02*
Y134359D01*
Y138358D01*
X859010D01*
Y142357D01*
Y134359D01*
X875005Y141024D02*
X873672Y142357D01*
X871006D01*
X869673Y141024D01*
Y139691D01*
X871006Y138358D01*
X873672D01*
X875005Y137025D01*
Y135692D01*
X873672Y134359D01*
X871006D01*
X869673Y135692D01*
X877671Y142357D02*
X880337D01*
X879004D01*
Y134359D01*
X877671D01*
X880337D01*
X884335Y142357D02*
Y134359D01*
X888334D01*
X889667Y135692D01*
Y141024D01*
X888334Y142357D01*
X884335D01*
X897664D02*
X892333D01*
Y134359D01*
X897664D01*
X892333Y138358D02*
X894999D01*
X905662Y141024D02*
X904329Y142357D01*
X901663D01*
X900330Y141024D01*
Y139691D01*
X901663Y138358D01*
X904329D01*
X905662Y137025D01*
Y135692D01*
X904329Y134359D01*
X901663D01*
X900330Y135692D01*
X921657Y141024D02*
X920324Y142357D01*
X917658D01*
X916325Y141024D01*
Y135692D01*
X917658Y134359D01*
X920324D01*
X921657Y135692D01*
Y138358D01*
X918991D01*
X924322Y134359D02*
Y142357D01*
X928321D01*
X929654Y141024D01*
Y138358D01*
X928321Y137025D01*
X924322D01*
X926988D02*
X929654Y134359D01*
X937651Y142357D02*
X932320D01*
Y134359D01*
X937651D01*
X932320Y138358D02*
X934986D01*
X945649Y142357D02*
X940317D01*
Y134359D01*
X945649D01*
X940317Y138358D02*
X942983D01*
X948315Y134359D02*
Y142357D01*
X953646Y134359D01*
Y142357D01*
X703061Y53386D02*
X704394Y54719D01*
X707059D01*
X708392Y53386D01*
Y52053D01*
X707059Y50720D01*
X708392Y49387D01*
Y48054D01*
X707059Y46722D01*
X704394D01*
X703061Y48054D01*
Y49387D01*
X704394Y50720D01*
X703061Y52053D01*
Y53386D01*
X704394Y50720D02*
X707059D01*
X711058Y46722D02*
Y48054D01*
X712391D01*
Y46722D01*
X711058D01*
X731052Y53386D02*
X729719Y54719D01*
X727053D01*
X725720Y53386D01*
Y52053D01*
X727053Y50720D01*
X729719D01*
X731052Y49387D01*
Y48054D01*
X729719Y46722D01*
X727053D01*
X725720Y48054D01*
X733717Y54719D02*
X736383D01*
X735050D01*
Y46722D01*
X733717D01*
X736383D01*
X740382Y54719D02*
Y46722D01*
X745714D01*
X748379Y54719D02*
Y46722D01*
Y49387D01*
X753711Y54719D01*
X749712Y50720D01*
X753711Y46722D01*
X761708Y53386D02*
X760375Y54719D01*
X757710D01*
X756377Y53386D01*
Y52053D01*
X757710Y50720D01*
X760375D01*
X761708Y49387D01*
Y48054D01*
X760375Y46722D01*
X757710D01*
X756377Y48054D01*
X769706Y53386D02*
X768373Y54719D01*
X765707D01*
X764374Y53386D01*
Y48054D01*
X765707Y46722D01*
X768373D01*
X769706Y48054D01*
X772372Y46722D02*
Y54719D01*
X776370D01*
X777703Y53386D01*
Y50720D01*
X776370Y49387D01*
X772372D01*
X775037D02*
X777703Y46722D01*
X785701Y54719D02*
X780369D01*
Y46722D01*
X785701D01*
X780369Y50720D02*
X783035D01*
X793698Y54719D02*
X788366D01*
Y46722D01*
X793698D01*
X788366Y50720D02*
X791032D01*
X796364Y46722D02*
Y54719D01*
X801695Y46722D01*
Y54719D01*
X812359Y50720D02*
X817690D01*
X828354Y54719D02*
Y46722D01*
X831019Y49387D01*
X833685Y46722D01*
Y54719D01*
X836351D02*
Y46722D01*
Y50720D01*
X841683D01*
Y54719D01*
Y46722D01*
X844348Y54719D02*
X847014D01*
X845681D01*
Y46722D01*
X844348D01*
X847014D01*
X851013Y54719D02*
X856344D01*
X853679D01*
Y46722D01*
X864342Y54719D02*
X859010D01*
Y46722D01*
X864342D01*
X859010Y50720D02*
X861676D01*
X880337Y54719D02*
X875005D01*
Y46722D01*
X880337D01*
X875005Y50720D02*
X877671D01*
X883002Y46722D02*
Y54719D01*
X887001D01*
X888334Y53386D01*
Y50720D01*
X887001Y49387D01*
X883002D01*
X894999Y54719D02*
X892333D01*
X891000Y53386D01*
Y48054D01*
X892333Y46722D01*
X894999D01*
X896332Y48054D01*
Y53386D01*
X894999Y54719D01*
X898997D02*
X904329Y46722D01*
Y54719D02*
X898997Y46722D01*
X906995Y54719D02*
Y53386D01*
X909661Y50720D01*
X912326Y53386D01*
Y54719D01*
X909661Y50720D02*
Y46722D01*
X922989Y54719D02*
X925655D01*
X924322D01*
Y46722D01*
X922989D01*
X925655D01*
X929654D02*
Y54719D01*
X934986Y46722D01*
Y54719D01*
X937651D02*
Y46722D01*
Y49387D01*
X942983Y54719D01*
X938984Y50720D01*
X942983Y46722D01*
X946982Y45389D02*
X948315Y46722D01*
Y48054D01*
X946982D01*
Y46722D01*
X948315D01*
X946982Y45389D01*
X945649Y44056D01*
X961644Y54719D02*
Y46722D01*
X965642D01*
X966975Y48054D01*
Y49387D01*
X965642Y50720D01*
X961644D01*
X965642D01*
X966975Y52053D01*
Y53386D01*
X965642Y54719D01*
X961644D01*
X973640D02*
X970974D01*
X969641Y53386D01*
Y48054D01*
X970974Y46722D01*
X973640D01*
X974973Y48054D01*
Y53386D01*
X973640Y54719D01*
X977639D02*
X982970D01*
X980304D01*
Y46722D01*
X985636Y54719D02*
Y46722D01*
Y50720D01*
X990967D01*
Y54719D01*
Y46722D01*
X1006962Y53386D02*
X1005629Y54719D01*
X1002964D01*
X1001631Y53386D01*
Y52053D01*
X1002964Y50720D01*
X1005629D01*
X1006962Y49387D01*
Y48054D01*
X1005629Y46722D01*
X1002964D01*
X1001631Y48054D01*
X1009628Y54719D02*
X1012294D01*
X1010961D01*
Y46722D01*
X1009628D01*
X1012294D01*
X1016293Y54719D02*
Y46722D01*
X1020291D01*
X1021624Y48054D01*
Y53386D01*
X1020291Y54719D01*
X1016293D01*
X1029622D02*
X1024290D01*
Y46722D01*
X1029622D01*
X1024290Y50720D02*
X1026956D01*
X1037619Y53386D02*
X1036286Y54719D01*
X1033620D01*
X1032287Y53386D01*
Y52053D01*
X1033620Y50720D01*
X1036286D01*
X1037619Y49387D01*
Y48054D01*
X1036286Y46722D01*
X1033620D01*
X1032287Y48054D01*
X1040285Y46722D02*
Y48054D01*
X1041618D01*
Y46722D01*
X1040285D01*
X1054947D02*
Y54719D01*
X1060278Y46722D01*
Y54719D01*
X1066943D02*
X1064277D01*
X1062944Y53386D01*
Y48054D01*
X1064277Y46722D01*
X1066943D01*
X1068276Y48054D01*
Y53386D01*
X1066943Y54719D01*
X1084271Y53386D02*
X1082938Y54719D01*
X1080272D01*
X1078939Y53386D01*
Y52053D01*
X1080272Y50720D01*
X1082938D01*
X1084271Y49387D01*
Y48054D01*
X1082938Y46722D01*
X1080272D01*
X1078939Y48054D01*
X1086936Y54719D02*
X1089602D01*
X1088269D01*
Y46722D01*
X1086936D01*
X1089602D01*
X1093601Y54719D02*
Y46722D01*
X1098932D01*
X1101598Y54719D02*
Y46722D01*
Y49387D01*
X1106930Y54719D01*
X1102931Y50720D01*
X1106930Y46722D01*
X1121592Y54719D02*
X1118926D01*
X1117593Y53386D01*
Y48054D01*
X1118926Y46722D01*
X1121592D01*
X1122925Y48054D01*
Y53386D01*
X1121592Y54719D01*
X1125591Y46722D02*
Y54719D01*
X1130922Y46722D01*
Y54719D01*
X1141585Y46722D02*
Y54719D01*
X1145584D01*
X1146917Y53386D01*
Y50720D01*
X1145584Y49387D01*
X1141585D01*
X1149583Y46722D02*
Y52053D01*
X1152249Y54719D01*
X1154914Y52053D01*
Y46722D01*
Y50720D01*
X1149583D01*
X1157580Y54719D02*
Y46722D01*
X1161579D01*
X1162912Y48054D01*
Y53386D01*
X1161579Y54719D01*
X1157580D01*
X1170909Y53386D02*
X1169576Y54719D01*
X1166910D01*
X1165578Y53386D01*
Y52053D01*
X1166910Y50720D01*
X1169576D01*
X1170909Y49387D01*
Y48054D01*
X1169576Y46722D01*
X1166910D01*
X1165578Y48054D01*
X708392Y112829D02*
X705726Y111496D01*
X703061Y108830D01*
Y106165D01*
X704394Y104832D01*
X707059D01*
X708392Y106165D01*
Y107498D01*
X707059Y108830D01*
X703061D01*
X711058Y104832D02*
Y106165D01*
X712391D01*
Y104832D01*
X711058D01*
X731052Y111496D02*
X729719Y112829D01*
X727053D01*
X725720Y111496D01*
Y110163D01*
X727053Y108830D01*
X729719D01*
X731052Y107498D01*
Y106165D01*
X729719Y104832D01*
X727053D01*
X725720Y106165D01*
X737716Y112829D02*
X735050D01*
X733717Y111496D01*
Y106165D01*
X735050Y104832D01*
X737716D01*
X739049Y106165D01*
Y111496D01*
X737716Y112829D01*
X741715D02*
Y104832D01*
X747047D01*
X749712Y112829D02*
Y104832D01*
X753711D01*
X755044Y106165D01*
Y111496D01*
X753711Y112829D01*
X749712D01*
X763041D02*
X757710D01*
Y104832D01*
X763041D01*
X757710Y108830D02*
X760375D01*
X765707Y104832D02*
Y112829D01*
X769706D01*
X771039Y111496D01*
Y108830D01*
X769706Y107498D01*
X765707D01*
X768373D02*
X771039Y104832D01*
X787034Y111496D02*
X785701Y112829D01*
X783035D01*
X781702Y111496D01*
Y110163D01*
X783035Y108830D01*
X785701D01*
X787034Y107498D01*
Y106165D01*
X785701Y104832D01*
X783035D01*
X781702Y106165D01*
X789699Y104832D02*
Y110163D01*
X792365Y112829D01*
X795031Y110163D01*
Y104832D01*
Y108830D01*
X789699D01*
X797697Y104832D02*
Y112829D01*
X800362Y110163D01*
X803028Y112829D01*
Y104832D01*
X805694D02*
Y112829D01*
X809693D01*
X811026Y111496D01*
Y108830D01*
X809693Y107498D01*
X805694D01*
X813692Y112829D02*
Y104832D01*
X819023D01*
X827021Y112829D02*
X821689D01*
Y104832D01*
X827021D01*
X821689Y108830D02*
X824355D01*
X835018Y111496D02*
X833685Y112829D01*
X831019D01*
X829686Y111496D01*
Y110163D01*
X831019Y108830D01*
X833685D01*
X835018Y107498D01*
Y106165D01*
X833685Y104832D01*
X831019D01*
X829686Y106165D01*
X845681Y112829D02*
X851013D01*
X848347D01*
Y104832D01*
X857677Y112829D02*
X855011D01*
X853679Y111496D01*
Y106165D01*
X855011Y104832D01*
X857677D01*
X859010Y106165D01*
Y111496D01*
X857677Y112829D01*
X869673D02*
Y104832D01*
X873672D01*
X875005Y106165D01*
Y107498D01*
X873672Y108830D01*
X869673D01*
X873672D01*
X875005Y110163D01*
Y111496D01*
X873672Y112829D01*
X869673D01*
X883002D02*
X877671D01*
Y104832D01*
X883002D01*
X877671Y108830D02*
X880337D01*
X893666Y104832D02*
Y112829D01*
X897664D01*
X898997Y111496D01*
Y108830D01*
X897664Y107498D01*
X893666D01*
X901663Y104832D02*
Y112829D01*
X905662D01*
X906995Y111496D01*
Y108830D01*
X905662Y107498D01*
X901663D01*
X904329D02*
X906995Y104832D01*
X913659Y112829D02*
X910993D01*
X909661Y111496D01*
Y106165D01*
X910993Y104832D01*
X913659D01*
X914992Y106165D01*
Y111496D01*
X913659Y112829D01*
X917658D02*
Y107498D01*
X920324Y104832D01*
X922989Y107498D01*
Y112829D01*
X925655D02*
X928321D01*
X926988D01*
Y104832D01*
X925655D01*
X928321D01*
X932320Y112829D02*
Y104832D01*
X936318D01*
X937651Y106165D01*
Y111496D01*
X936318Y112829D01*
X932320D01*
X945649D02*
X940317D01*
Y104832D01*
X945649D01*
X940317Y108830D02*
X942983D01*
X948315Y112829D02*
Y104832D01*
X952313D01*
X953646Y106165D01*
Y111496D01*
X952313Y112829D01*
X948315D01*
X722746Y-2491D02*
Y2840D01*
X725412Y5506D01*
X728077Y2840D01*
Y-2491D01*
Y1508D01*
X722746D01*
X730743Y5506D02*
Y-2491D01*
X734742D01*
X736075Y-1158D01*
Y4173D01*
X734742Y5506D01*
X730743D01*
X738741D02*
Y-2491D01*
X742739D01*
X744072Y-1158D01*
Y4173D01*
X742739Y5506D01*
X738741D01*
X754735Y-2491D02*
Y5506D01*
X758734D01*
X760067Y4173D01*
Y1508D01*
X758734Y175D01*
X754735D01*
X757401D02*
X760067Y-2491D01*
X766732Y5506D02*
X764066D01*
X762733Y4173D01*
Y-1158D01*
X764066Y-2491D01*
X766732D01*
X768064Y-1158D01*
Y4173D01*
X766732Y5506D01*
X770730D02*
Y-2491D01*
Y1508D01*
X776062D01*
Y5506D01*
Y-2491D01*
X784059Y4173D02*
X782726Y5506D01*
X780060D01*
X778728Y4173D01*
Y2840D01*
X780060Y1508D01*
X782726D01*
X784059Y175D01*
Y-1158D01*
X782726Y-2491D01*
X780060D01*
X778728Y-1158D01*
X794723Y5506D02*
Y-2491D01*
X800054D01*
X806719Y5506D02*
X804053D01*
X802720Y4173D01*
Y-1158D01*
X804053Y-2491D01*
X806719D01*
X808051Y-1158D01*
Y4173D01*
X806719Y5506D01*
X816049Y4173D02*
X814716Y5506D01*
X812050D01*
X810717Y4173D01*
Y-1158D01*
X812050Y-2491D01*
X814716D01*
X816049Y-1158D01*
Y1508D01*
X813383D01*
X822713Y5506D02*
X820048D01*
X818715Y4173D01*
Y-1158D01*
X820048Y-2491D01*
X822713D01*
X824046Y-1158D01*
Y4173D01*
X822713Y5506D01*
X703061Y83302D02*
X708392D01*
Y81969D01*
X703061Y76637D01*
Y75304D01*
X711058D02*
Y76637D01*
X712391D01*
Y75304D01*
X711058D01*
X731052Y81969D02*
X729719Y83302D01*
X727053D01*
X725720Y81969D01*
Y80636D01*
X727053Y79303D01*
X729719D01*
X731052Y77970D01*
Y76637D01*
X729719Y75304D01*
X727053D01*
X725720Y76637D01*
X733717Y83302D02*
Y75304D01*
Y79303D01*
X735050Y80636D01*
X737716D01*
X739049Y79303D01*
Y75304D01*
X741715D02*
X744381D01*
X743048D01*
Y80636D01*
X741715D01*
X748379Y72638D02*
Y80636D01*
X752378D01*
X753711Y79303D01*
Y76637D01*
X752378Y75304D01*
X748379D01*
X765707Y80636D02*
X768373D01*
X769706Y79303D01*
Y75304D01*
X765707D01*
X764374Y76637D01*
X765707Y77970D01*
X769706D01*
X772372Y75304D02*
X776370D01*
X777703Y76637D01*
X776370Y77970D01*
X773704D01*
X772372Y79303D01*
X773704Y80636D01*
X777703D01*
X793698Y83302D02*
Y75304D01*
X789699D01*
X788366Y76637D01*
Y79303D01*
X789699Y80636D01*
X793698D01*
X800363Y75304D02*
X797697D01*
X796364Y76637D01*
Y79303D01*
X797697Y80636D01*
X800363D01*
X801695Y79303D01*
Y77970D01*
X796364D01*
X804361Y72638D02*
Y80636D01*
X808360D01*
X809693Y79303D01*
Y76637D01*
X808360Y75304D01*
X804361D01*
X813692Y80636D02*
X816357D01*
X817690Y79303D01*
Y75304D01*
X813692D01*
X812359Y76637D01*
X813692Y77970D01*
X817690D01*
X820356Y75304D02*
Y80636D01*
X824355D01*
X825688Y79303D01*
Y75304D01*
X832352D02*
X829686D01*
X828354Y76637D01*
Y79303D01*
X829686Y80636D01*
X832352D01*
X833685Y79303D01*
Y77970D01*
X828354D01*
X836351Y75304D02*
X839017D01*
X837684D01*
Y83302D01*
X836351D01*
X843015Y75304D02*
X845681D01*
X844348D01*
Y80636D01*
X843015D01*
X849680D02*
X855011D01*
X849680Y75304D01*
X855011D01*
X861676D02*
X859010D01*
X857677Y76637D01*
Y79303D01*
X859010Y80636D01*
X861676D01*
X863009Y79303D01*
Y77970D01*
X857677D01*
X871006Y83302D02*
Y75304D01*
X867008D01*
X865675Y76637D01*
Y79303D01*
X867008Y80636D01*
X871006D01*
X881670Y75304D02*
X884335D01*
X883002D01*
Y80636D01*
X881670D01*
X888334Y75304D02*
Y80636D01*
X892333D01*
X893666Y79303D01*
Y75304D01*
X901663Y83302D02*
Y75304D01*
X897664D01*
X896332Y76637D01*
Y79303D01*
X897664Y80636D01*
X901663D01*
X904329Y75304D02*
X906995D01*
X905662D01*
Y80636D01*
X904329D01*
X910993D02*
X913659Y75304D01*
X916325Y80636D01*
X918991Y75304D02*
X921657D01*
X920324D01*
Y80636D01*
X918991D01*
X930987Y83302D02*
Y75304D01*
X926988D01*
X925655Y76637D01*
Y79303D01*
X926988Y80636D01*
X930987D01*
X933653D02*
Y76637D01*
X934986Y75304D01*
X938984D01*
Y80636D01*
X942983D02*
X945649D01*
X946982Y79303D01*
Y75304D01*
X942983D01*
X941650Y76637D01*
X942983Y77970D01*
X946982D01*
X949648Y75304D02*
X952313D01*
X950980D01*
Y83302D01*
X949648D01*
X964310Y75304D02*
Y83302D01*
X968308D01*
X969641Y81969D01*
Y79303D01*
X968308Y77970D01*
X964310D01*
X977639Y81969D02*
X976306Y83302D01*
X973640D01*
X972307Y81969D01*
Y76637D01*
X973640Y75304D01*
X976306D01*
X977639Y76637D01*
X980304Y83302D02*
Y75304D01*
X984303D01*
X985636Y76637D01*
Y77970D01*
X984303Y79303D01*
X980304D01*
X984303D01*
X985636Y80636D01*
Y81969D01*
X984303Y83302D01*
X980304D01*
X988302Y75304D02*
X992300D01*
X993633Y76637D01*
X992300Y77970D01*
X989635D01*
X988302Y79303D01*
X989635Y80636D01*
X993633D01*
X996299Y75304D02*
Y76637D01*
X997632D01*
Y75304D01*
X996299D01*
X703061Y18527D02*
X704394Y17194D01*
X707059D01*
X708392Y18527D01*
Y23858D01*
X707059Y25191D01*
X704394D01*
X703061Y23858D01*
Y22525D01*
X704394Y21193D01*
X708392D01*
X711058Y17194D02*
Y18527D01*
X712391D01*
Y17194D01*
X711058D01*
X731052Y23858D02*
X729719Y25191D01*
X727053D01*
X725720Y23858D01*
Y22525D01*
X727053Y21193D01*
X729719D01*
X731052Y19860D01*
Y18527D01*
X729719Y17194D01*
X727053D01*
X725720Y18527D01*
X733717Y25191D02*
Y18527D01*
X735050Y17194D01*
X737716D01*
X739049Y18527D01*
Y25191D01*
X741715Y17194D02*
Y25191D01*
X745714D01*
X747047Y23858D01*
Y21193D01*
X745714Y19860D01*
X741715D01*
X749712Y17194D02*
Y25191D01*
X753711D01*
X755044Y23858D01*
Y21193D01*
X753711Y19860D01*
X749712D01*
X757710Y25191D02*
Y17194D01*
X763041D01*
X765707Y25191D02*
X768373D01*
X767040D01*
Y17194D01*
X765707D01*
X768373D01*
X777703Y25191D02*
X772372D01*
Y17194D01*
X777703D01*
X772372Y21193D02*
X775037D01*
X780369Y17194D02*
Y25191D01*
X784368D01*
X785701Y23858D01*
Y21193D01*
X784368Y19860D01*
X780369D01*
X783035D02*
X785701Y17194D01*
X796364D02*
Y25191D01*
X799030Y22525D01*
X801695Y25191D01*
Y17194D01*
X804361D02*
Y22525D01*
X807027Y25191D01*
X809693Y22525D01*
Y17194D01*
Y21193D01*
X804361D01*
X812359Y17194D02*
Y25191D01*
X816357D01*
X817690Y23858D01*
Y21193D01*
X816357Y19860D01*
X812359D01*
X815024D02*
X817690Y17194D01*
X820356Y25191D02*
Y17194D01*
Y19860D01*
X825688Y25191D01*
X821689Y21193D01*
X825688Y17194D01*
X828354Y25191D02*
X831019D01*
X829686D01*
Y17194D01*
X828354D01*
X831019D01*
X835018D02*
Y25191D01*
X840350Y17194D01*
Y25191D01*
X848347Y23858D02*
X847014Y25191D01*
X844348D01*
X843015Y23858D01*
Y18527D01*
X844348Y17194D01*
X847014D01*
X848347Y18527D01*
Y21193D01*
X845681D01*
X859010D02*
X864342D01*
X879004Y25191D02*
X876338D01*
X875005Y23858D01*
Y18527D01*
X876338Y17194D01*
X879004D01*
X880337Y18527D01*
Y23858D01*
X879004Y25191D01*
X883002Y17194D02*
Y25191D01*
X888334Y17194D01*
Y25191D01*
X904329Y23858D02*
X902996Y25191D01*
X900330D01*
X898997Y23858D01*
Y22525D01*
X900330Y21193D01*
X902996D01*
X904329Y19860D01*
Y18527D01*
X902996Y17194D01*
X900330D01*
X898997Y18527D01*
X910993Y25191D02*
X908328D01*
X906995Y23858D01*
Y18527D01*
X908328Y17194D01*
X910993D01*
X912326Y18527D01*
Y23858D01*
X910993Y25191D01*
X914992D02*
Y17194D01*
X920324D01*
X922989Y25191D02*
Y17194D01*
X926988D01*
X928321Y18527D01*
Y23858D01*
X926988Y25191D01*
X922989D01*
X936318D02*
X930987D01*
Y17194D01*
X936318D01*
X930987Y21193D02*
X933653D01*
X938984Y17194D02*
Y25191D01*
X942983D01*
X944316Y23858D01*
Y21193D01*
X942983Y19860D01*
X938984D01*
X941650D02*
X944316Y17194D01*
X960311Y23858D02*
X958978Y25191D01*
X956312D01*
X954979Y23858D01*
Y22525D01*
X956312Y21193D01*
X958978D01*
X960311Y19860D01*
Y18527D01*
X958978Y17194D01*
X956312D01*
X954979Y18527D01*
X962976Y25191D02*
X965642D01*
X964309D01*
Y17194D01*
X962976D01*
X965642D01*
X969641Y25191D02*
Y17194D01*
X973640D01*
X974973Y18527D01*
Y23858D01*
X973640Y25191D01*
X969641D01*
X982970D02*
X977639D01*
Y17194D01*
X982970D01*
X977639Y21193D02*
X980304D01*
X722746Y-22176D02*
Y-16845D01*
X725412Y-14179D01*
X728077Y-16845D01*
Y-22176D01*
Y-18178D01*
X722746D01*
X730743Y-14179D02*
Y-22176D01*
X734742D01*
X736075Y-20843D01*
Y-15512D01*
X734742Y-14179D01*
X730743D01*
X738741D02*
Y-22176D01*
X742739D01*
X744072Y-20843D01*
Y-15512D01*
X742739Y-14179D01*
X738741D01*
X754735D02*
Y-20843D01*
X756068Y-22176D01*
X758734D01*
X760067Y-20843D01*
Y-14179D01*
X762733D02*
Y-22176D01*
X768064D01*
X778728D02*
Y-14179D01*
X781393Y-16845D01*
X784059Y-14179D01*
Y-22176D01*
X786725D02*
Y-16845D01*
X789391Y-14179D01*
X792057Y-16845D01*
Y-22176D01*
Y-18178D01*
X786725D01*
X794723Y-22176D02*
Y-14179D01*
X798721D01*
X800054Y-15512D01*
Y-18178D01*
X798721Y-19510D01*
X794723D01*
X797388D02*
X800054Y-22176D01*
X802720Y-14179D02*
Y-22176D01*
Y-19510D01*
X808051Y-14179D01*
X804053Y-18178D01*
X808051Y-22176D01*
X810717Y-14179D02*
X813383D01*
X812050D01*
Y-22176D01*
X810717D01*
X813383D01*
X817382D02*
Y-14179D01*
X822713Y-22176D01*
Y-14179D01*
X830711Y-15512D02*
X829378Y-14179D01*
X826712D01*
X825379Y-15512D01*
Y-20843D01*
X826712Y-22176D01*
X829378D01*
X830711Y-20843D01*
Y-18178D01*
X828045D01*
X841374Y-22176D02*
Y-16845D01*
X844040Y-14179D01*
X846706Y-16845D01*
Y-22176D01*
Y-18178D01*
X841374D01*
X849371Y-22176D02*
Y-14179D01*
X854703Y-22176D01*
Y-14179D01*
X857369D02*
Y-22176D01*
X861368D01*
X862700Y-20843D01*
Y-15512D01*
X861368Y-14179D01*
X857369D01*
X873364D02*
X876029D01*
X874697D01*
Y-22176D01*
X873364D01*
X876029D01*
X880028Y-14179D02*
Y-22176D01*
X884027D01*
X885360Y-20843D01*
Y-15512D01*
X884027Y-14179D01*
X880028D01*
X703061Y-51704D02*
X705726D01*
X704394D01*
Y-43706D01*
X703061Y-45039D01*
X709725D02*
X711058Y-43706D01*
X713724D01*
X715057Y-45039D01*
Y-50371D01*
X713724Y-51704D01*
X711058D01*
X709725Y-50371D01*
Y-45039D01*
X717723Y-51704D02*
Y-50371D01*
X719056D01*
Y-51704D01*
X717723D01*
X732385Y-43706D02*
Y-51704D01*
X737716D01*
X740382D02*
Y-46372D01*
X743048Y-43706D01*
X745714Y-46372D01*
Y-51704D01*
Y-47705D01*
X740382D01*
X748379Y-43706D02*
Y-45039D01*
X751045Y-47705D01*
X753711Y-45039D01*
Y-43706D01*
X751045Y-47705D02*
Y-51704D01*
X761708Y-43706D02*
X756377D01*
Y-51704D01*
X761708D01*
X756377Y-47705D02*
X759043D01*
X764374Y-51704D02*
Y-43706D01*
X768373D01*
X769706Y-45039D01*
Y-47705D01*
X768373Y-49038D01*
X764374D01*
X767040D02*
X769706Y-51704D01*
X785701Y-45039D02*
X784368Y-43706D01*
X781702D01*
X780369Y-45039D01*
Y-46372D01*
X781702Y-47705D01*
X784368D01*
X785701Y-49038D01*
Y-50371D01*
X784368Y-51704D01*
X781702D01*
X780369Y-50371D01*
X788366Y-43706D02*
X793698D01*
X791032D01*
Y-51704D01*
X796364D02*
Y-46372D01*
X799030Y-43706D01*
X801695Y-46372D01*
Y-51704D01*
Y-47705D01*
X796364D01*
X809693Y-45039D02*
X808360Y-43706D01*
X805694D01*
X804361Y-45039D01*
Y-50371D01*
X805694Y-51704D01*
X808360D01*
X809693Y-50371D01*
X812359Y-43706D02*
Y-51704D01*
Y-49038D01*
X817690Y-43706D01*
X813692Y-47705D01*
X817690Y-51704D01*
X820356Y-43706D02*
Y-50371D01*
X821689Y-51704D01*
X824355D01*
X825688Y-50371D01*
Y-43706D01*
X828354Y-51704D02*
Y-43706D01*
X832352D01*
X833685Y-45039D01*
Y-47705D01*
X832352Y-49038D01*
X828354D01*
X844348Y-47705D02*
X849680D01*
X865675Y-45039D02*
X864342Y-43706D01*
X861676D01*
X860343Y-45039D01*
Y-46372D01*
X861676Y-47705D01*
X864342D01*
X865675Y-49038D01*
Y-50371D01*
X864342Y-51704D01*
X861676D01*
X860343Y-50371D01*
X873672Y-43706D02*
X868340D01*
Y-51704D01*
X873672D01*
X868340Y-47705D02*
X871006D01*
X881670Y-43706D02*
X876338D01*
Y-51704D01*
X881670D01*
X876338Y-47705D02*
X879004D01*
X892333Y-43706D02*
Y-51704D01*
X896332D01*
X897664Y-50371D01*
Y-45039D01*
X896332Y-43706D01*
X892333D01*
X905662D02*
X900330D01*
Y-51704D01*
X905662D01*
X900330Y-47705D02*
X902996D01*
X908328Y-43706D02*
X913659D01*
X910993D01*
Y-51704D01*
X916325D02*
Y-46372D01*
X918991Y-43706D01*
X921657Y-46372D01*
Y-51704D01*
Y-47705D01*
X916325D01*
X924322Y-43706D02*
X926988D01*
X925655D01*
Y-51704D01*
X924322D01*
X926988D01*
X930987Y-43706D02*
Y-51704D01*
X936318D01*
X946982D02*
Y-46372D01*
X949648Y-43706D01*
X952313Y-46372D01*
Y-51704D01*
Y-47705D01*
X946982D01*
X722561Y217182D02*
Y225180D01*
X725226Y222514D01*
X727892Y225180D01*
Y217182D01*
X730558Y225180D02*
Y218515D01*
X731891Y217182D01*
X734557D01*
X735890Y218515D01*
Y225180D01*
X743887Y223847D02*
X742554Y225180D01*
X739888D01*
X738555Y223847D01*
Y222514D01*
X739888Y221181D01*
X742554D01*
X743887Y219848D01*
Y218515D01*
X742554Y217182D01*
X739888D01*
X738555Y218515D01*
X746553Y225180D02*
X751885D01*
X749219D01*
Y217182D01*
X762548Y225180D02*
Y217182D01*
Y221181D01*
X767879D01*
Y225180D01*
Y217182D01*
X770545D02*
Y222514D01*
X773211Y225180D01*
X775877Y222514D01*
Y217182D01*
Y221181D01*
X770545D01*
X778543Y217182D02*
Y225180D01*
X783874Y217182D01*
Y225180D01*
X786540D02*
Y217182D01*
X790539D01*
X791872Y218515D01*
Y223847D01*
X790539Y225180D01*
X786540D01*
X794537D02*
Y217182D01*
X799869D01*
X807866Y225180D02*
X802535D01*
Y217182D01*
X807866D01*
X802535Y221181D02*
X805201D01*
X818530Y217182D02*
Y225180D01*
X821195Y222514D01*
X823861Y225180D01*
Y217182D01*
X826527Y225180D02*
X829193D01*
X827860D01*
Y217182D01*
X826527D01*
X829193D01*
X833192D02*
Y225180D01*
X838523Y217182D01*
Y225180D01*
X841189D02*
X843855D01*
X842522D01*
Y217182D01*
X841189D01*
X843855D01*
X847853D02*
Y225180D01*
X850519Y222514D01*
X853185Y225180D01*
Y217182D01*
X855851Y225180D02*
Y218515D01*
X857184Y217182D01*
X859850D01*
X861182Y218515D01*
Y225180D01*
X863848Y217182D02*
Y225180D01*
X866514Y222514D01*
X869180Y225180D01*
Y217182D01*
X885175Y225180D02*
X882509Y223847D01*
X879843Y221181D01*
Y218515D01*
X881176Y217182D01*
X883842D01*
X885175Y218515D01*
Y219848D01*
X883842Y221181D01*
X879843D01*
X901169Y223847D02*
X899837Y225180D01*
X897171D01*
X895838Y223847D01*
Y218515D01*
X897171Y217182D01*
X899837D01*
X901169Y218515D01*
X903835Y225180D02*
Y223847D01*
X906501Y221181D01*
X909167Y223847D01*
Y225180D01*
X906501Y221181D02*
Y217182D01*
X917164Y223847D02*
X915831Y225180D01*
X913166D01*
X911833Y223847D01*
Y218515D01*
X913166Y217182D01*
X915831D01*
X917164Y218515D01*
X919830Y225180D02*
Y217182D01*
X925162D01*
X933159Y225180D02*
X927828D01*
Y217182D01*
X933159D01*
X927828Y221181D02*
X930493D01*
X941157Y223847D02*
X939824Y225180D01*
X937158D01*
X935825Y223847D01*
Y222514D01*
X937158Y221181D01*
X939824D01*
X941157Y219848D01*
Y218515D01*
X939824Y217182D01*
X937158D01*
X935825Y218515D01*
X951820Y221181D02*
X957151D01*
X973146Y217182D02*
X967815D01*
X973146Y222514D01*
Y223847D01*
X971813Y225180D01*
X969147D01*
X967815Y223847D01*
X981144Y225180D02*
X978478Y223847D01*
X975812Y221181D01*
Y218515D01*
X977145Y217182D01*
X979811D01*
X981144Y218515D01*
Y219848D01*
X979811Y221181D01*
X975812D01*
X983809Y223847D02*
X985142Y225180D01*
X987808D01*
X989141Y223847D01*
Y218515D01*
X987808Y217182D01*
X985142D01*
X983809Y218515D01*
Y223847D01*
X997139D02*
X995806Y225180D01*
X993140D01*
X991807Y223847D01*
Y218515D01*
X993140Y217182D01*
X995806D01*
X997139Y218515D01*
X1013133Y225180D02*
X1007802D01*
Y221181D01*
X1010468D01*
X1007802D01*
Y217182D01*
X1019798Y225180D02*
X1017132D01*
X1015799Y223847D01*
Y218515D01*
X1017132Y217182D01*
X1019798D01*
X1021131Y218515D01*
Y223847D01*
X1019798Y225180D01*
X1023796Y217182D02*
Y225180D01*
X1027795D01*
X1029128Y223847D01*
Y221181D01*
X1027795Y219848D01*
X1023796D01*
X1026462D02*
X1029128Y217182D01*
X1039791D02*
X1042457D01*
X1041124D01*
Y225180D01*
X1039791Y223847D01*
X1046456D02*
X1047789Y225180D01*
X1050455D01*
X1051787Y223847D01*
Y218515D01*
X1050455Y217182D01*
X1047789D01*
X1046456Y218515D01*
Y223847D01*
X1067782D02*
X1066449Y225180D01*
X1063783D01*
X1062451Y223847D01*
Y222514D01*
X1063783Y221181D01*
X1066449D01*
X1067782Y219848D01*
Y218515D01*
X1066449Y217182D01*
X1063783D01*
X1062451Y218515D01*
X1075780Y225180D02*
X1070448D01*
Y217182D01*
X1075780D01*
X1070448Y221181D02*
X1073114D01*
X1083777Y223847D02*
X1082444Y225180D01*
X1079778D01*
X1078446Y223847D01*
Y218515D01*
X1079778Y217182D01*
X1082444D01*
X1083777Y218515D01*
X1090442Y225180D02*
X1087776D01*
X1086443Y223847D01*
Y218515D01*
X1087776Y217182D01*
X1090442D01*
X1091774Y218515D01*
Y223847D01*
X1090442Y225180D01*
X1094440Y217182D02*
Y225180D01*
X1099772Y217182D01*
Y225180D01*
X1102438D02*
Y217182D01*
X1106436D01*
X1107769Y218515D01*
Y223847D01*
X1106436Y225180D01*
X1102438D01*
X1115767Y223847D02*
X1114434Y225180D01*
X1111768D01*
X1110435Y223847D01*
Y222514D01*
X1111768Y221181D01*
X1114434D01*
X1115767Y219848D01*
Y218515D01*
X1114434Y217182D01*
X1111768D01*
X1110435Y218515D01*
X1118433Y217182D02*
Y218515D01*
X1119765D01*
Y217182D01*
X1118433D01*
X700561Y-98321D02*
Y-107318D01*
X705059D01*
X706559Y-105818D01*
Y-99820D01*
X705059Y-98321D01*
X700561D01*
X715556D02*
X709558D01*
Y-107318D01*
X715556D01*
X709558Y-102819D02*
X712557D01*
X718555Y-98321D02*
X724553D01*
X721554D01*
Y-107318D01*
X727552D02*
Y-101320D01*
X730551Y-98321D01*
X733550Y-101320D01*
Y-107318D01*
Y-102819D01*
X727552D01*
X736549Y-98321D02*
X739548D01*
X738049D01*
Y-107318D01*
X736549D01*
X739548D01*
X744047Y-98321D02*
Y-107318D01*
X750045D01*
X762041D02*
Y-101320D01*
X765040Y-98321D01*
X768039Y-101320D01*
Y-107318D01*
Y-102819D01*
X762041D01*
G54D303*
X742127Y-126815D02*
X1196007D01*
X742127Y-114815D02*
X1196007D01*
X742127Y-306815D02*
Y-114815D01*
Y-306815D02*
X783118D01*
X742127Y-294815D02*
X783118D01*
X742127Y-282815D02*
X783118D01*
X742127Y-270815D02*
X783118D01*
X742127Y-258815D02*
X783118D01*
X742127Y-246815D02*
X783118D01*
X742127Y-234815D02*
X783118D01*
X742127Y-222815D02*
X783118D01*
X742127Y-210815D02*
X783118D01*
X742127Y-198815D02*
X783118D01*
X742127Y-186815D02*
X783118D01*
X742127Y-174815D02*
X783118D01*
X742127Y-162815D02*
X783118D01*
X742127Y-150815D02*
X783118D01*
X742127Y-138815D02*
X783118D01*
Y-306815D02*
Y-114815D01*
Y-306815D02*
X876093D01*
X783118Y-294815D02*
X876093D01*
X783118Y-282815D02*
X876093D01*
X783118Y-270815D02*
X876093D01*
X783118Y-258815D02*
X876093D01*
X783118Y-246815D02*
X876093D01*
X783118Y-234815D02*
X876093D01*
X783118Y-222815D02*
X876093D01*
X783118Y-210815D02*
X876093D01*
X783118Y-198815D02*
X876093D01*
X783118Y-186815D02*
X876093D01*
X783118Y-174815D02*
X876093D01*
X783118Y-162815D02*
X876093D01*
X783118Y-150815D02*
X876093D01*
X783118Y-138815D02*
X876093D01*
Y-306815D02*
Y-114815D01*
Y-306815D02*
X962069D01*
X876093Y-294815D02*
X962069D01*
X876093Y-282815D02*
X962069D01*
X876093Y-270815D02*
X962069D01*
X876093Y-258815D02*
X962069D01*
X876093Y-246815D02*
X962069D01*
X876093Y-234815D02*
X962069D01*
X876093Y-222815D02*
X962069D01*
X876093Y-210815D02*
X962069D01*
X876093Y-198815D02*
X962069D01*
X876093Y-186815D02*
X962069D01*
X876093Y-174815D02*
X962069D01*
X876093Y-162815D02*
X962069D01*
X876093Y-150815D02*
X962069D01*
X876093Y-138815D02*
X962069D01*
Y-306815D02*
Y-114815D01*
Y-306815D02*
X1027053D01*
X962069Y-294815D02*
X1027053D01*
X962069Y-282815D02*
X1027053D01*
X962069Y-270815D02*
X1027053D01*
X962069Y-258815D02*
X1027053D01*
X962069Y-246815D02*
X1027053D01*
X962069Y-234815D02*
X1027053D01*
X962069Y-222815D02*
X1027053D01*
X962069Y-210815D02*
X1027053D01*
X962069Y-198815D02*
X1027053D01*
X962069Y-186815D02*
X1027053D01*
X962069Y-174815D02*
X1027053D01*
X962069Y-162815D02*
X1027053D01*
X962069Y-150815D02*
X1027053D01*
X962069Y-138815D02*
X1027053D01*
Y-306815D02*
Y-114815D01*
Y-306815D02*
X1084039D01*
X1027053Y-294815D02*
X1084039D01*
X1027053Y-282815D02*
X1084039D01*
X1027053Y-270815D02*
X1084039D01*
X1027053Y-258815D02*
X1084039D01*
X1027053Y-246815D02*
X1084039D01*
X1027053Y-234815D02*
X1084039D01*
X1027053Y-222815D02*
X1084039D01*
X1027053Y-210815D02*
X1084039D01*
X1027053Y-198815D02*
X1084039D01*
X1027053Y-186815D02*
X1084039D01*
X1027053Y-174815D02*
X1084039D01*
X1027053Y-162815D02*
X1084039D01*
X1027053Y-150815D02*
X1084039D01*
X1027053Y-138815D02*
X1084039D01*
Y-306815D02*
Y-114815D01*
Y-306815D02*
X1196007D01*
X1084039Y-294815D02*
X1196007D01*
X1084039Y-282815D02*
X1196007D01*
X1084039Y-270815D02*
X1196007D01*
X1084039Y-258815D02*
X1196007D01*
X1084039Y-246815D02*
X1196007D01*
X1084039Y-234815D02*
X1196007D01*
X1084039Y-222815D02*
X1196007D01*
X1084039Y-210815D02*
X1196007D01*
X1084039Y-198815D02*
X1196007D01*
X1084039Y-186815D02*
X1196007D01*
X1084039Y-174815D02*
X1196007D01*
X1084039Y-162815D02*
X1196007D01*
X1084039Y-150815D02*
X1196007D01*
X1084039Y-138815D02*
X1196007D01*
Y-306815D02*
Y-114815D01*
G54D386*
X354737Y59806D02*
Y64806D01*
X352237Y62306D02*
X357237D01*
X328615Y40849D02*
X333615D01*
X331115Y38349D02*
Y43349D01*
X376194Y18565D02*
Y23565D01*
X373694Y21066D02*
X378694D01*
X388005Y34313D02*
Y39314D01*
X385505Y36814D02*
X390505D01*
X340061Y91341D02*
X345061D01*
X342561Y88841D02*
Y93841D01*
X1190007Y-306815D02*
X1196007Y-300815D01*
X1184007Y-306815D02*
X1196007Y-294815D01*
X1178007Y-306815D02*
X1190007Y-294815D01*
X1172007Y-306815D02*
X1184007Y-294815D01*
X1166007Y-306815D02*
X1178007Y-294815D01*
X1160007Y-306815D02*
X1172007Y-294815D01*
X1154007Y-306815D02*
X1166007Y-294815D01*
X1148007Y-306815D02*
X1160007Y-294815D01*
X1142007Y-306815D02*
X1154007Y-294815D01*
X1136007Y-306815D02*
X1148007Y-294815D01*
X1130007Y-306815D02*
X1142007Y-294815D01*
X1124007Y-306815D02*
X1136007Y-294815D01*
X1118007Y-306815D02*
X1130007Y-294815D01*
X1112007Y-306815D02*
X1124007Y-294815D01*
X1106007Y-306815D02*
X1118007Y-294815D01*
X1100007Y-306815D02*
X1112007Y-294815D01*
X1094007Y-306815D02*
X1106007Y-294815D01*
X1088007Y-306815D02*
X1100007Y-294815D01*
X1084039Y-304783D02*
X1094007Y-294815D01*
X1084039Y-298783D02*
X1088007Y-294815D01*
X1190007D02*
X1196007Y-288815D01*
X1184007Y-294815D02*
X1196007Y-282815D01*
X1178007Y-294815D02*
X1190007Y-282815D01*
X1172007Y-294815D02*
X1184007Y-282815D01*
X1166007Y-294815D02*
X1178007Y-282815D01*
X1160007Y-294815D02*
X1172007Y-282815D01*
X1154007Y-294815D02*
X1166007Y-282815D01*
X1148007Y-294815D02*
X1160007Y-282815D01*
X1142007Y-294815D02*
X1154007Y-282815D01*
X1136007Y-294815D02*
X1148007Y-282815D01*
X1130007Y-294815D02*
X1142007Y-282815D01*
X1124007Y-294815D02*
X1136007Y-282815D01*
X1118007Y-294815D02*
X1130007Y-282815D01*
X1112007Y-294815D02*
X1124007Y-282815D01*
X1106007Y-294815D02*
X1118007Y-282815D01*
X1100007Y-294815D02*
X1112007Y-282815D01*
X1094007Y-294815D02*
X1106007Y-282815D01*
X1088007Y-294815D02*
X1100007Y-282815D01*
X1084039Y-292783D02*
X1094007Y-282815D01*
X1084039Y-286783D02*
X1088007Y-282815D01*
X1190007D02*
X1196007Y-276815D01*
X1184007Y-282815D02*
X1196007Y-270815D01*
X1178007Y-282815D02*
X1190007Y-270815D01*
X1172007Y-282815D02*
X1184007Y-270815D01*
X1166007Y-282815D02*
X1178007Y-270815D01*
X1160007Y-282815D02*
X1172007Y-270815D01*
X1154007Y-282815D02*
X1166007Y-270815D01*
X1148007Y-282815D02*
X1160007Y-270815D01*
X1142007Y-282815D02*
X1154007Y-270815D01*
X1136007Y-282815D02*
X1148007Y-270815D01*
X1130007Y-282815D02*
X1142007Y-270815D01*
X1124007Y-282815D02*
X1136007Y-270815D01*
X1118007Y-282815D02*
X1130007Y-270815D01*
X1112007Y-282815D02*
X1124007Y-270815D01*
X1106007Y-282815D02*
X1118007Y-270815D01*
X1100007Y-282815D02*
X1112007Y-270815D01*
X1094007Y-282815D02*
X1106007Y-270815D01*
X1088007Y-282815D02*
X1100007Y-270815D01*
X1084039Y-280783D02*
X1094007Y-270815D01*
X1084039Y-274783D02*
X1088007Y-270815D01*
X1190007D02*
X1196007Y-264815D01*
X1184007Y-270815D02*
X1196007Y-258815D01*
X1178007Y-270815D02*
X1190007Y-258815D01*
X1172007Y-270815D02*
X1184007Y-258815D01*
X1166007Y-270815D02*
X1178007Y-258815D01*
X1160007Y-270815D02*
X1172007Y-258815D01*
X1154007Y-270815D02*
X1166007Y-258815D01*
X1148007Y-270815D02*
X1160007Y-258815D01*
X1142007Y-270815D02*
X1154007Y-258815D01*
X1136007Y-270815D02*
X1148007Y-258815D01*
X1130007Y-270815D02*
X1142007Y-258815D01*
X1124007Y-270815D02*
X1136007Y-258815D01*
X1118007Y-270815D02*
X1130007Y-258815D01*
X1112007Y-270815D02*
X1124007Y-258815D01*
X1106007Y-270815D02*
X1118007Y-258815D01*
X1100007Y-270815D02*
X1112007Y-258815D01*
X1094007Y-270815D02*
X1106007Y-258815D01*
X1088007Y-270815D02*
X1100007Y-258815D01*
X1084039Y-268783D02*
X1094007Y-258815D01*
X1084039Y-262783D02*
X1088007Y-258815D01*
X1190007D02*
X1196007Y-252815D01*
X1184007Y-258815D02*
X1196007Y-246815D01*
X1178007Y-258815D02*
X1190007Y-246815D01*
X1172007Y-258815D02*
X1184007Y-246815D01*
X1166007Y-258815D02*
X1178007Y-246815D01*
X1160007Y-258815D02*
X1172007Y-246815D01*
X1154007Y-258815D02*
X1166007Y-246815D01*
X1148007Y-258815D02*
X1160007Y-246815D01*
X1142007Y-258815D02*
X1154007Y-246815D01*
X1136007Y-258815D02*
X1148007Y-246815D01*
X1130007Y-258815D02*
X1142007Y-246815D01*
X1124007Y-258815D02*
X1136007Y-246815D01*
X1118007Y-258815D02*
X1130007Y-246815D01*
X1112007Y-258815D02*
X1124007Y-246815D01*
X1106007Y-258815D02*
X1118007Y-246815D01*
X1100007Y-258815D02*
X1112007Y-246815D01*
X1094007Y-258815D02*
X1106007Y-246815D01*
X1088007Y-258815D02*
X1100007Y-246815D01*
X1084039Y-256783D02*
X1094007Y-246815D01*
X1084039Y-250783D02*
X1088007Y-246815D01*
X1190007D02*
X1196007Y-240815D01*
X1184007Y-246815D02*
X1196007Y-234815D01*
X1178007Y-246815D02*
X1190007Y-234815D01*
X1172007Y-246815D02*
X1184007Y-234815D01*
X1166007Y-246815D02*
X1178007Y-234815D01*
X1160007Y-246815D02*
X1172007Y-234815D01*
X1154007Y-246815D02*
X1166007Y-234815D01*
X1148007Y-246815D02*
X1160007Y-234815D01*
X1142007Y-246815D02*
X1154007Y-234815D01*
X1136007Y-246815D02*
X1148007Y-234815D01*
X1130007Y-246815D02*
X1142007Y-234815D01*
X1124007Y-246815D02*
X1136007Y-234815D01*
X1118007Y-246815D02*
X1130007Y-234815D01*
X1112007Y-246815D02*
X1124007Y-234815D01*
X1106007Y-246815D02*
X1118007Y-234815D01*
X1100007Y-246815D02*
X1112007Y-234815D01*
X1094007Y-246815D02*
X1106007Y-234815D01*
X1088007Y-246815D02*
X1100007Y-234815D01*
X1084039Y-244783D02*
X1094007Y-234815D01*
X1084039Y-238783D02*
X1088007Y-234815D01*
X1190007D02*
X1196007Y-228815D01*
X1184007Y-234815D02*
X1196007Y-222815D01*
X1178007Y-234815D02*
X1190007Y-222815D01*
X1172007Y-234815D02*
X1184007Y-222815D01*
X1166007Y-234815D02*
X1178007Y-222815D01*
X1160007Y-234815D02*
X1172007Y-222815D01*
X1154007Y-234815D02*
X1166007Y-222815D01*
X1148007Y-234815D02*
X1160007Y-222815D01*
X1142007Y-234815D02*
X1154007Y-222815D01*
X1136007Y-234815D02*
X1148007Y-222815D01*
X1130007Y-234815D02*
X1142007Y-222815D01*
X1124007Y-234815D02*
X1136007Y-222815D01*
X1118007Y-234815D02*
X1130007Y-222815D01*
X1112007Y-234815D02*
X1124007Y-222815D01*
X1106007Y-234815D02*
X1118007Y-222815D01*
X1100007Y-234815D02*
X1112007Y-222815D01*
X1094007Y-234815D02*
X1106007Y-222815D01*
X1088007Y-234815D02*
X1100007Y-222815D01*
X1084039Y-232783D02*
X1094007Y-222815D01*
X1084039Y-226783D02*
X1088007Y-222815D01*
X1190007D02*
X1196007Y-216815D01*
X1184007Y-222815D02*
X1196007Y-210815D01*
X1178007Y-222815D02*
X1190007Y-210815D01*
X1172007Y-222815D02*
X1184007Y-210815D01*
X1166007Y-222815D02*
X1178007Y-210815D01*
X1160007Y-222815D02*
X1172007Y-210815D01*
X1154007Y-222815D02*
X1166007Y-210815D01*
X1148007Y-222815D02*
X1160007Y-210815D01*
X1142007Y-222815D02*
X1154007Y-210815D01*
X1136007Y-222815D02*
X1148007Y-210815D01*
X1130007Y-222815D02*
X1142007Y-210815D01*
X1124007Y-222815D02*
X1136007Y-210815D01*
X1118007Y-222815D02*
X1130007Y-210815D01*
X1112007Y-222815D02*
X1124007Y-210815D01*
X1106007Y-222815D02*
X1118007Y-210815D01*
X1100007Y-222815D02*
X1112007Y-210815D01*
X1094007Y-222815D02*
X1106007Y-210815D01*
X1088007Y-222815D02*
X1100007Y-210815D01*
X1084039Y-220783D02*
X1094007Y-210815D01*
X1084039Y-214783D02*
X1088007Y-210815D01*
X1190007D02*
X1196007Y-204815D01*
X1184007Y-210815D02*
X1196007Y-198815D01*
X1178007Y-210815D02*
X1190007Y-198815D01*
X1172007Y-210815D02*
X1184007Y-198815D01*
X1166007Y-210815D02*
X1178007Y-198815D01*
X1160007Y-210815D02*
X1172007Y-198815D01*
X1154007Y-210815D02*
X1166007Y-198815D01*
X1148007Y-210815D02*
X1160007Y-198815D01*
X1142007Y-210815D02*
X1154007Y-198815D01*
X1136007Y-210815D02*
X1148007Y-198815D01*
X1130007Y-210815D02*
X1142007Y-198815D01*
X1124007Y-210815D02*
X1136007Y-198815D01*
X1118007Y-210815D02*
X1130007Y-198815D01*
X1112007Y-210815D02*
X1124007Y-198815D01*
X1106007Y-210815D02*
X1118007Y-198815D01*
X1100007Y-210815D02*
X1112007Y-198815D01*
X1094007Y-210815D02*
X1106007Y-198815D01*
X1088007Y-210815D02*
X1100007Y-198815D01*
X1084039Y-208783D02*
X1094007Y-198815D01*
X1084039Y-202783D02*
X1088007Y-198815D01*
X1190007D02*
X1196007Y-192815D01*
X1184007Y-198815D02*
X1196007Y-186815D01*
X1178007Y-198815D02*
X1190007Y-186815D01*
X1172007Y-198815D02*
X1184007Y-186815D01*
X1166007Y-198815D02*
X1178007Y-186815D01*
X1160007Y-198815D02*
X1172007Y-186815D01*
X1154007Y-198815D02*
X1166007Y-186815D01*
X1148007Y-198815D02*
X1160007Y-186815D01*
X1142007Y-198815D02*
X1154007Y-186815D01*
X1136007Y-198815D02*
X1148007Y-186815D01*
X1130007Y-198815D02*
X1142007Y-186815D01*
X1124007Y-198815D02*
X1136007Y-186815D01*
X1118007Y-198815D02*
X1130007Y-186815D01*
X1112007Y-198815D02*
X1124007Y-186815D01*
X1106007Y-198815D02*
X1118007Y-186815D01*
X1100007Y-198815D02*
X1112007Y-186815D01*
X1094007Y-198815D02*
X1106007Y-186815D01*
X1088007Y-198815D02*
X1100007Y-186815D01*
X1084039Y-196783D02*
X1094007Y-186815D01*
X1084039Y-190783D02*
X1088007Y-186815D01*
X1190007D02*
X1196007Y-180815D01*
X1184007Y-186815D02*
X1196007Y-174815D01*
X1178007Y-186815D02*
X1190007Y-174815D01*
X1172007Y-186815D02*
X1184007Y-174815D01*
X1166007Y-186815D02*
X1178007Y-174815D01*
X1160007Y-186815D02*
X1172007Y-174815D01*
X1154007Y-186815D02*
X1166007Y-174815D01*
X1148007Y-186815D02*
X1160007Y-174815D01*
X1142007Y-186815D02*
X1154007Y-174815D01*
X1136007Y-186815D02*
X1148007Y-174815D01*
X1130007Y-186815D02*
X1142007Y-174815D01*
X1124007Y-186815D02*
X1136007Y-174815D01*
X1118007Y-186815D02*
X1130007Y-174815D01*
X1112007Y-186815D02*
X1124007Y-174815D01*
X1106007Y-186815D02*
X1118007Y-174815D01*
X1100007Y-186815D02*
X1112007Y-174815D01*
X1094007Y-186815D02*
X1106007Y-174815D01*
X1088007Y-186815D02*
X1100007Y-174815D01*
X1084039Y-184783D02*
X1094007Y-174815D01*
X1084039Y-178783D02*
X1088007Y-174815D01*
X1190007D02*
X1196007Y-168815D01*
X1184007Y-174815D02*
X1196007Y-162815D01*
X1178007Y-174815D02*
X1190007Y-162815D01*
X1172007Y-174815D02*
X1184007Y-162815D01*
X1166007Y-174815D02*
X1178007Y-162815D01*
X1160007Y-174815D02*
X1172007Y-162815D01*
X1154007Y-174815D02*
X1166007Y-162815D01*
X1148007Y-174815D02*
X1160007Y-162815D01*
X1142007Y-174815D02*
X1154007Y-162815D01*
X1136007Y-174815D02*
X1148007Y-162815D01*
X1130007Y-174815D02*
X1142007Y-162815D01*
X1124007Y-174815D02*
X1136007Y-162815D01*
X1118007Y-174815D02*
X1130007Y-162815D01*
X1112007Y-174815D02*
X1124007Y-162815D01*
X1106007Y-174815D02*
X1118007Y-162815D01*
X1100007Y-174815D02*
X1112007Y-162815D01*
X1094007Y-174815D02*
X1106007Y-162815D01*
X1088007Y-174815D02*
X1100007Y-162815D01*
X1084039Y-172783D02*
X1094007Y-162815D01*
X1084039Y-166783D02*
X1088007Y-162815D01*
X1190007D02*
X1196007Y-156815D01*
X1184007Y-162815D02*
X1196007Y-150815D01*
X1178007Y-162815D02*
X1190007Y-150815D01*
X1172007Y-162815D02*
X1184007Y-150815D01*
X1166007Y-162815D02*
X1178007Y-150815D01*
X1160007Y-162815D02*
X1172007Y-150815D01*
X1154007Y-162815D02*
X1166007Y-150815D01*
X1148007Y-162815D02*
X1160007Y-150815D01*
X1142007Y-162815D02*
X1154007Y-150815D01*
X1136007Y-162815D02*
X1148007Y-150815D01*
X1130007Y-162815D02*
X1142007Y-150815D01*
X1124007Y-162815D02*
X1136007Y-150815D01*
X1118007Y-162815D02*
X1130007Y-150815D01*
X1112007Y-162815D02*
X1124007Y-150815D01*
X1106007Y-162815D02*
X1118007Y-150815D01*
X1100007Y-162815D02*
X1112007Y-150815D01*
X1094007Y-162815D02*
X1106007Y-150815D01*
X1088007Y-162815D02*
X1100007Y-150815D01*
X1084039Y-160783D02*
X1094007Y-150815D01*
X1084039Y-154783D02*
X1088007Y-150815D01*
X1190007D02*
X1196007Y-144815D01*
X1184007Y-150815D02*
X1196007Y-138815D01*
X1178007Y-150815D02*
X1190007Y-138815D01*
X1172007Y-150815D02*
X1184007Y-138815D01*
X1166007Y-150815D02*
X1178007Y-138815D01*
X1160007Y-150815D02*
X1172007Y-138815D01*
X1154007Y-150815D02*
X1166007Y-138815D01*
X1148007Y-150815D02*
X1160007Y-138815D01*
X1142007Y-150815D02*
X1154007Y-138815D01*
X1136007Y-150815D02*
X1148007Y-138815D01*
X1130007Y-150815D02*
X1142007Y-138815D01*
X1124007Y-150815D02*
X1136007Y-138815D01*
X1118007Y-150815D02*
X1130007Y-138815D01*
X1112007Y-150815D02*
X1124007Y-138815D01*
X1106007Y-150815D02*
X1118007Y-138815D01*
X1100007Y-150815D02*
X1112007Y-138815D01*
X1094007Y-150815D02*
X1106007Y-138815D01*
X1088007Y-150815D02*
X1100007Y-138815D01*
X1084039Y-148783D02*
X1094007Y-138815D01*
X1084039Y-142783D02*
X1088007Y-138815D01*
X1190007D02*
X1196007Y-132815D01*
X1184007Y-138815D02*
X1196007Y-126815D01*
X1178007Y-138815D02*
X1190007Y-126815D01*
X1172007Y-138815D02*
X1184007Y-126815D01*
X1166007Y-138815D02*
X1178007Y-126815D01*
X1160007Y-138815D02*
X1172007Y-126815D01*
X1154007Y-138815D02*
X1166007Y-126815D01*
X1148007Y-138815D02*
X1160007Y-126815D01*
X1142007Y-138815D02*
X1154007Y-126815D01*
X1136007Y-138815D02*
X1148007Y-126815D01*
X1130007Y-138815D02*
X1142007Y-126815D01*
X1124007Y-138815D02*
X1136007Y-126815D01*
X1118007Y-138815D02*
X1130007Y-126815D01*
X1112007Y-138815D02*
X1124007Y-126815D01*
X1106007Y-138815D02*
X1118007Y-126815D01*
X1100007Y-138815D02*
X1112007Y-126815D01*
X1094007Y-138815D02*
X1106007Y-126815D01*
X1088007Y-138815D02*
X1100007Y-126815D01*
X1084039Y-136783D02*
X1094007Y-126815D01*
X1084039Y-130783D02*
X1088007Y-126815D01*
M02*
