M48
;Layer_Color=9474304
;FILE_FORMAT=2:5
INCH,TZ
;TYPE=PLATED
T1F00S00C0.01000
T2F00S00C0.01500
T3F00S00C0.03543
T4F00S00C0.03800
T5F00S00C0.03937
T6F00S00C0.04000
T7F00S00C0.04016
T8F00S00C0.04331
T9F00S00C0.05900
T10F00S00C0.06300
T11F00S00C0.07598
T12F00S00C0.08700
T13F00S00C0.11811
;TYPE=NON_PLATED
T14F00S00C0.02756
T15F00S00C0.04016
T16F00S00C0.11811
%
T01
X-79836Y109021
Y113352
Y117683
Y122014
Y126344
X-75505
X-71175
X-66844
X-62513
Y122014
X-66844
X-71175
X-75505
Y117683
X-71175
X-66844
X-62513
Y113352
X-66844
X-71175
X-75505
Y109021
X-71175
X-66844
X-62513
X1464
X5795
X10125
X14456
X18787
Y113352
X14456
X10125
X5795
X1464
Y117683
X5795
X10125
X14456
X18787
Y122014
X14456
X10125
X5795
X1464
Y126344
X5795
X10125
X14456
X18787
X-143813
X-148144
X-152475
X-156805
X-161136
Y122014
X-156805
X-152475
X-148144
X-143813
Y117683
X-148144
X-152475
X-156805
X-161136
Y113352
X-156805
X-152475
X-148144
X-143813
Y109021
X-148144
X-152475
X-156805
X-161136
X-225869Y108724
X-230200
X-234530
X-238861
X-243192
Y113055
X-238861
X-234530
X-230200
X-225869
Y117385
X-230200
X-234530
X-238861
X-243192
Y121716
X-238861
X-234530
X-230200
X-225869
Y126047
X-230200
X-234530
X-238861
X-243192
X-307396Y126344
X-311727
X-316057
X-320388
X-324719
Y122014
Y117683
X-320388
X-316057
X-311727
X-307396
Y122014
X-311727
X-316057
X-320388
Y113352
X-324719
Y109021
X-320388
X-316057
Y113352
X-311727
X-307396
Y109021
X-311727
X-351815Y124827
X-389452Y126440
Y122109
Y117779
Y113448
Y109117
X-393782
X-398113
X-402444
X-406774
Y113448
X-402444
X-398113
X-393782
Y117779
X-398113
X-402444
X-406774
Y122109
X-402444
X-398113
X-393782
Y126440
X-398113
X-402444
X-406774
X-470979Y126344
X-475309
X-479640
X-483971
X-488302
Y122014
X-483971
X-479640
X-475309
X-470979
Y117683
X-475309
X-479640
X-483971
X-488302
Y113352
X-483971
X-479640
X-475309
X-470979
Y109021
X-475309
X-479640
X-483971
X-488302
X-552770
X-557101
X-561431
X-565762
X-570093
Y113352
X-565762
X-561431
X-557101
X-552770
Y117683
X-557101
X-561431
X-565762
X-570093
Y122014
X-565762
X-561431
X-557101
X-552770
Y126344
X-557101
X-561431
X-565762
X-570093
X-575010Y145200
X-579910Y150500
X-583010
X-593410Y151700
X-570910Y158100
X-567910Y156800
X-564710
X-566310Y163700
X-562910Y164800
Y167964
X-558710Y164200
X-571580Y163700
X-574710Y163600
X-576410Y180500
X-573810Y186200
X-571410Y192600
X-568110Y193500
X-563760Y194391
X-558028Y191000
X-553182Y188574
X-540510Y196100
X-537361Y196851
X-536871Y200348
X-531910Y188100
X-529010Y184000
X-527510Y191000
X-517310Y191400
X-518157Y194973
X-498966Y189664
X-491233
X-487910Y186300
X-484239Y192371
X-480510Y192100
X-479510Y184700
X-476233Y184664
X-474210Y173600
X-479174Y173874
X-478969Y168864
X-478145Y165650
X-490288Y160600
X-493437Y160800
X-496876
X-498610Y168300
X-498810Y150100
X-501410Y148300
X-503910Y150200
X-509010
X-512710Y149800
X-516310Y150100
X-515010Y159200
X-511910Y159400
X-516210Y162100
X-528710Y159300
X-529710Y165000
X-529710Y168168
X-544310Y163300
X-543210Y150100
X-542010Y146700
X-531010Y144546
X-527910Y145800
Y150300
X-531010Y149300
X-527703Y139213
X-504510Y138900
X-502110Y204000
X-501710Y230700
X-505610Y234600
X-517473Y238600
X-528010Y240500
X-590110Y234100
X-582708Y222581
X-581110Y175900
X-604110Y181200
X-469810Y176200
X-454010Y175000
X-450950Y172720
X-456810Y180600
X-452884Y189695
X-449710Y189700
X-464010Y191600
X-467110Y191920
X-464410Y200524
X-474110Y200700
X-456510Y205535
X-453374Y205652
X-452074Y209140
X-465429Y231769
X-429710Y227200
X-426710Y229400
X-423610Y227400
X-420910Y229300
X-417810Y229000
X-407810Y239200
X-384810Y224700
X-382910Y219600
Y216100
X-392510Y214700
X-382910Y204000
X-385410Y192500
X-388510Y193480
X-386910Y189600
X-381750Y188500
X-379217Y186571
X-376712Y183926
X-361710Y181600
X-361318Y168719
X-377532Y159608
Y155277
X-381863
Y159608
X-398600Y169700
X-394377Y192757
X-446510Y189600
X-440579Y183600
X-444010Y176500
X-444210Y173000
X-442510Y204300
X-435610Y208100
X-421800Y156200
X-423910Y147600
X-420575Y146100
X-435750Y139900
X-332847Y158648
X-329610Y157100
X-316087Y155378
X-311756
Y159709
X-316087
X-313810Y164100
X-308308Y164140
X-303910Y161300
X-303745Y156028
X-300410Y154500
X-298300Y163269
X-287271Y149300
X-283210Y144300
X-272611Y149150
X-263360Y149750
X-261531Y169721
X-255631
X-239310Y187900
X-225610Y190000
X-220010
X-215110
Y196600
X-215310Y201200
X-220010Y200900
Y196600
X-225610
X-225010Y200900
X-225710Y207100
X-220010
X-214810
X-223665Y211441
X-198595Y207049
X-199210Y200600
Y197046
X-198910Y190700
X-192071Y216461
X-214710Y233000
X-225610Y240200
X-224910Y243900
X-225110Y249900
X-217210Y249800
X-204410Y243400
X-252115Y245449
Y241119
X-256446
Y245449
X-263626Y229059
X-255063Y216559
X-263134Y199138
X-280457Y235936
X-232810Y149900
X-226610Y144700
X-155910Y151000
X-151618Y151031
X-148010Y151500
X-144110Y151390
X-149310Y162637
X-144910Y283900
X-123811Y260722
Y256722
Y252723
Y248723
X-119811
X-115811
Y252723
Y256722
Y260722
X-111811
X-107811
Y256722
X-111811
Y252723
X-107811
Y248723
X-111811
X-119811Y252723
Y256722
Y260722
X-81461Y260322
Y256323
Y252323
Y248323
X-77461
X-73461
Y252323
Y256323
Y260322
X-69461
X-65461
Y256323
X-69461
Y252323
X-65461
Y248323
X-69461
X-77461Y252323
Y256323
Y260322
X-37462Y260323
X-33462
Y256323
X-37462
Y252323
X-33462
Y248323
X-37462
X-29462
X-25462
X-21462
Y252323
X-25462
Y256323
X-21462
Y260323
X-25462
X-29462
Y256323
Y252323
X-40010Y164400
X-41184Y154443
X-66210Y150900
X-73910
X7200Y152500
X11090Y152400
X14290Y156000
X17214Y149451
X37190Y146300
X40116Y145100
X53390Y343500
X53590Y351100
X54119Y367570
Y371570
Y375570
Y379570
X50119
X46119
Y375570
Y371570
Y367570
X50119
Y371570
Y375570
X42119
Y371570
Y367570
X38119
Y371570
Y375570
Y379570
X42119
X35190Y395200
X21086Y386881
X57927Y370038
X-25721Y326283
X-30052
X-34383
Y321952
X-30052
X-25721
X-41352Y316417
X-43844Y308720
X-51263Y348486
X-82473Y340300
X-86410
X-165996Y312424
X-169110Y312800
X-203610Y314000
X-231510Y314600
X-266842Y318565
X-270210Y318200
X-288310Y334600
X-292810Y333800
X-292710Y337000
X-291910Y342300
X-284610Y354700
X-282110
X-286262Y359500
X-289310Y377100
Y396700
X-299410Y399200
X-298610Y383073
X-307610Y380400
X-310810Y380700
X-314110
X-313410Y355700
X-306367
X-308710Y358200
X-297391Y355811
X-295356Y353776
X-294510Y340499
X-301110Y345300
X-304810Y337100
X-306310Y334200
X-306610Y329700
X-309710Y329600
X-307210Y326600
X-313210Y323911
X-318510Y326900
X-320310Y329500
X-318210Y331800
X-311810Y334100
X-309210Y336100
X-317510Y347200
X-321510Y346900
X-321210Y355700
X-339683Y355800
X-343410
X-347010Y348700
X-346260Y338733
X-343110Y332039
X-340790Y329500
X-340910Y324700
X-337810Y324600
X-338410Y320100
X-337360Y317000
X-344710Y319000
X-349210Y319900
X-351710Y318000
X-355359Y316651
X-358610Y316500
X-352710Y326100
X-352410Y329200
X-352110Y332300
X-361110Y330700
X-361361Y339499
X-365310Y339100
X-374610Y337100
X-377710
X-380410Y338900
X-378910Y341800
X-375810
X-374910Y349600
X-366210Y350300
X-365410Y355200
X-358410Y351400
X-353410Y356800
X-354210Y343300
X-334810Y346100
X-334052Y339527
X-328110Y337200
X-337910Y333000
X-328310Y320500
X-315010Y317200
X-298110Y326900
X-376586Y330461
X-381910Y332200
X-384501Y330461
X-388510Y333200
X-388026Y339100
X-389710Y341800
Y344900
X-387710Y355300
X-394482Y356400
X-402410Y355300
X-405110Y357400
X-409610Y355800
X-413910Y347300
X-406510Y342300
X-401310Y341418
X-402710Y338200
X-414410Y334900
X-423810Y336600
Y332700
X-424923Y342963
X-422910Y356600
X-424470Y409190
X-420810Y409400
X-430510Y409200
X-438010
X-445210
X-402010
X-398510
X-387410Y409400
X-383810Y408900
X-365100Y409600
X-361310
X-350510Y409200
X-344410Y409100
X-341110
X-322371Y409051
X-318683Y409000
X-307671Y408951
X-380510Y320800
X-383510Y308100
X-394102Y328723
X-441210Y318600
X-445110Y313304
X-450810Y343400
X-469110Y343300
X-479210
X-488810Y342600
X-488910Y347100
X-496610Y346000
X-494910Y355100
X-498628Y355153
X-487810Y355200
X-476710Y355700
X-469437Y355400
X-509520Y355690
X-528546Y355964
X-533110Y355600
X-544183Y355628
X-575460Y347700
X-575110Y344600
X-575610Y339500
X-577410Y335000
X-582402Y334402
X-581473Y337373
X-587010Y330400
X-590210Y329800
X-596110Y325300
X-597073Y322273
X-595010Y319900
X-597663Y318139
X-597710Y333000
X-600320Y337526
X-590810Y344000
X-587510Y344500
X-589410Y347000
X-590264Y350977
X-580373Y352274
X-580110Y349100
X-582510Y363700
X-583110Y369600
X-582210Y378200
X-597410Y364251
X-601110Y359800
X-577932Y409579
X-507550Y409068
X-501210Y409500
X-485910Y409100
X-478710Y409800
X-467610Y409300
X-463910
X-491210Y323700
X-611110Y361500
T02
X-616173Y-77826
X-607925Y-77630
X-610381Y-82670
X-607728Y-65523
X-616173Y-57827
Y-37826
X-607261Y-27525
X-601429Y-71626
X-595130Y-77630
X-602413Y-84421
X-570757Y-107553
X-576173Y-114327
X-556173
X-536173
X-516173
X-516882Y-98791
X-517079Y-86094
X-523083Y-80174
X-525740Y-71823
X-518185Y-58959
X-511243Y-59036
X-511867Y-62468
X-507733Y-63092
X-506547Y-81370
X-510484Y-80287
X-506641Y-95051
X-499854Y-91803
X-523181Y-92000
X-536961Y-60307
X-552329Y-55891
Y-50084
Y-43490
Y-37289
X-565318
Y-43490
Y-50084
Y-56091
X-483386
Y-50084
Y-43490
Y-37289
X-470398
Y-43490
Y-50084
Y-55891
X-455858Y-59323
X-456173Y-114327
X-476173
X-496173
X-436173
X-437256Y-98693
X-442965Y-92098
X-437199Y-85701
X-430661Y-89145
X-430858Y-79550
X-424039Y-83043
Y-95346
X-416173Y-114327
X-396173
X-376173
X-356173
X-354972Y-98397
Y-86094
X-348280Y-88880
X-348181Y-80090
X-342374Y-83043
X-342571Y-94952
X-361173Y-92000
X-360780Y-80097
X-363338Y-70445
X-354541Y-59036
X-349691Y-59175
X-350315Y-62607
X-346181Y-63231
X-374953Y-59815
X-388428Y-56491
Y-50684
Y-44089
Y-37889
X-401417
Y-44089
Y-50684
Y-56691
X-431981Y-58030
X-432605Y-61462
X-428471Y-62086
X-436285Y-57788
X-445228Y-70740
X-443260Y-79401
X-336173Y-114327
X-316173
X-306449Y-107354
X-296173Y-114327
X-307143Y-55891
Y-50084
Y-43490
Y-37289
X-320132
Y-43490
Y-50084
Y-56091
X-272953Y-60050
X-274067Y-74185
X-280661Y-70248
X-279972Y-79992
X-268161Y-80287
X-262354Y-76153
X-255268Y-85405
X-273870Y-86488
X-256173Y-114327
X-240012Y-107354
X-226173Y-114327
X-206173
X-186173
X-166173
X-146173
X-172492Y-91409
X-179197Y-95543
X-185780Y-89539
X-185878Y-79303
X-179197Y-82748
X-192435Y-85799
X-198772Y-91704
Y-79500
X-201035Y-71666
X-211370Y-59421
X-225376Y-55891
Y-50084
Y-43490
Y-37289
X-238365
Y-43490
Y-50084
Y-56091
X-190897Y-55761
X-187347Y-58240
X-187971Y-61672
X-183837Y-62296
X-156520Y-56091
Y-50084
Y-43490
Y-37289
X-143531
Y-43490
Y-50084
Y-55891
X-192669Y-98004
X-116488Y-92393
X-116291Y-80582
X-110681Y-86193
X-104283Y-91508
X-98155Y-96330
X-92079Y-91015
X-104382Y-80582
X-106071Y-62530
X-105447Y-59098
X-109075Y-56853
X-101937Y-63154
X-119343Y-71527
X-133614Y-64047
X-110484Y-98397
X-106173Y-114327
X-126173
X-86173
X-66173
X-46173
X-26173
X-29181Y-98397
X-23575Y-91508
X-17866Y-96330
X-17669Y-83929
X-22886Y-80484
X-29185Y-85701
X-34992Y-80020
X-37650Y-71724
X-47197Y-59421
X-53004Y-64834
X-62114Y-55891
Y-50084
Y-43490
Y-37289
X-75103
Y-43490
Y-50084
Y-56091
X-28033Y-58334
X-24093Y-59020
X-24717Y-62452
X-20583Y-63076
X6048Y-56091
Y-50084
Y-43490
Y-37289
X19037
Y-43490
Y-50084
Y-55891
X13827Y-114327
X-6173
X-11075Y-90130
X52803Y-92000
X58709Y-85480
X52606Y-78122
X59102Y-71232
X52508Y-64441
X53453Y-47408
X67649Y-33368
X93128Y-33134
X106181Y-33161
X117827Y-27826
Y-47826
Y-67826
Y-87827
X93827Y-114327
X73827
X53827
X51917Y-107085
X33827Y-114327
X65021Y-93123
X68741Y-19094
X70847Y-10124
X68195Y484
X64685Y2980
X64607Y5788
Y8440
X71705Y8518
X71549Y12340
X75293Y12184
X67571Y12808
X71783Y4306
X64373Y-2636
X58991Y-2578
X53295Y422
X52751Y19048
X53531Y24742
X59147
X60263Y37112
X53711Y36254
X53399Y48968
X60029Y46784
X62993Y59186
X69311Y56144
X74459Y59108
X86081Y58640
X86549Y50294
X87095Y41870
X93959Y40076
X95495Y24040
X87539Y24118
X83351Y29468
X79529Y35786
X73991Y30794
X76229Y23728
X83117Y10592
X87851Y12496
X88163Y6022
X93779Y874
X98693Y2590
X101267Y-3494
X102437Y-10124
X93698Y-18435
X96587Y12262
X102125
X101579Y18892
X115229Y18424
Y21622
X115307Y24586
X117827Y32173
X113459Y36254
X117827Y52174
Y72174
Y92173
Y112173
X113537Y114176
X117827Y132174
X98015Y128996
X84053Y134846
X78359
X69155
X57923
X57767Y127124
X58937Y115970
X59171Y111914
X59093Y107936
X55427Y114410
X65489Y121196
X69311
X72977
X79061Y115502
Y111836
Y107702
X72821Y102320
X69233Y102242
X65879
X69311Y92778
X69233Y88878
X59951Y86070
X58313Y79518
X57923Y69846
X69155
X78359
X84053
X92399Y69404
X84209Y79518
X78749
X80621Y86070
X78125Y92778
X83195
X90293Y96080
X56675Y98264
X57455Y92778
X45783Y91326
Y88226
X40284Y84826
X40183Y81526
X40284Y78226
X44383Y70826
X44495Y66626
Y63647
X38491Y62662
X35144Y62643
X36227Y58608
Y54080
X41085Y56246
X40116Y48981
X45042Y49774
X47202Y52721
X36080Y47111
X33128Y48981
X29140
X26188Y47111
X22152Y48981
X19083Y52126
X21183Y56246
X26041Y54080
Y58608
X27124Y62643
X23777Y62662
Y34709
X26041Y30470
Y25943
X31159Y26146
Y30674
X36227Y30655
X36080Y19158
X31159Y21421
Y15516
X26188Y18973
X22152Y20843
X69311Y37346
X78749Y46940
X115307Y13744
X115229Y10468
X115385Y7426
X115697Y2824
X115775Y16
X114371Y-4196
X36083Y89326
X32484Y89226
X27784Y99126
X26267Y102781
X22583Y96226
X32389Y111049
X32546Y115911
X38184Y118626
X37507Y122959
X33865Y123057
X34751Y127486
X31109Y127585
X32734Y135693
X36376
X40383Y106726
X44987Y98522
X18983Y95626
X13659Y93761
X17184Y90126
X13484Y81626
X15484Y77226
X6583Y81626
X3214Y89826
X6348Y93761
X984Y95326
X-2552Y96974
X-6784Y99435
X-7147Y103091
X-18816Y106726
X-23418Y111541
X-22029Y122083
X-21843Y127191
X-26232Y133689
X-44924Y135693
X-48566
X-50191Y127585
X-46549Y127486
X-47435Y123057
X-43793Y122959
X-43117Y118626
X-48753Y115911
X-48911Y111049
X-40916Y106726
X-36312Y98522
X-35517Y91326
Y88226
X-41017Y84826
X-41116Y81526
X-41017Y78226
X-36917Y70826
X-36805Y66626
Y63647
X-42809Y62662
X-46156Y62643
X-45073Y58608
Y54080
X-40215Y56246
X-41184Y48981
X-36258Y49774
X-34098Y52721
X-23072Y48987
X-24943Y45536
X-28057Y37144
X-11208Y30655
Y26128
X-6140Y26146
Y30674
X-1022Y30470
Y25943
X-1168Y18973
X2867Y20843
X6261Y24276
X6045Y12672
X6048Y6471
Y-123
Y-6131
X19037Y-5931
Y-123
Y6471
X19040Y12672
X18758Y24276
X17281Y34709
X8128Y34611
X1242Y34524
X-1124Y47307
X-4121Y48796
X-8109Y48981
X-11061Y47111
X-11208Y54080
Y58608
X-10125Y62643
X-13472Y62662
X-15790Y56264
X-19284Y57914
X-22237
X-22335Y62525
X-22917Y66126
X-26316Y75426
X-26517Y78926
Y82326
X-26316Y85726
X-26417Y88926
X-15915Y89407
X-12296Y89297
X-18216Y84026
X-45217Y89326
X-48816Y89226
X-53517Y99126
X-55033Y102781
X-58716Y96226
X-62317Y95626
X-67641Y93761
X-64117Y90126
X-67817Y81626
X-65816Y77226
X-74717Y81626
X-78086Y89826
X-74952Y93761
X-80317Y95326
X-83852Y96974
X-88084Y99435
X-88447Y103091
X-100117Y106726
X-104718Y111541
X-103329Y122083
X-103143Y127191
X-107039Y133099
X-126224Y135693
X-129866
X-131491Y127585
X-127849Y127486
X-128735Y123057
X-125093Y122959
X-124416Y118626
X-130053Y115911
X-130211Y111049
X-122216Y106726
X-117613Y98522
X-116816Y91326
Y88226
X-122317Y84826
X-122416Y81526
X-122317Y78226
X-118217Y70826
X-118105Y66626
Y63647
X-124109Y62662
X-127456Y62643
X-126373Y58608
Y54080
X-121515Y56246
X-122484Y48981
X-117558Y49774
X-115398Y52721
X-104372Y48987
X-106243Y45536
X-109411Y37300
X-92508Y30655
Y26128
X-87440Y26146
Y30674
X-82322Y30470
Y25943
X-82468Y18973
X-78433Y20843
X-75038Y24276
X-75106Y12672
X-75103Y6471
Y-123
Y-6131
X-62114Y-5931
Y-123
Y6471
X-62111Y12672
X-59148Y20843
X-55112Y18973
X-55259Y25943
Y30470
X-50141Y30674
Y26146
Y21421
Y15516
X-45220Y19158
X-45073Y30655
X-57523Y34709
X-64019
X-73172Y34611
X-80058Y34524
X-82424Y47307
X-85421Y48796
X-89409Y48981
X-92361Y47111
X-92508Y54080
Y58608
X-91425Y62643
X-94772Y62662
X-97090Y56264
X-100584Y57914
X-103537
X-103635Y62525
X-104217Y66126
X-107616Y75426
X-107817Y78926
Y82326
X-107616Y85726
X-107717Y88926
X-97215Y89407
X-93596Y89297
X-99516Y84026
X-126516Y89326
X-130116Y89226
X-134817Y99126
X-136333Y102781
X-135476Y62643
X-136559Y58608
Y54080
X-136413Y47111
X-133460Y48981
X-129472
X-126520Y47111
X-126373Y30655
X-131441Y30674
Y26146
Y21421
Y15516
X-136413Y18973
X-136559Y25943
Y30470
X-126520Y19158
X-92361
X-87440Y21421
Y15516
X-62542Y24276
X-66873Y41303
X-70318
X-68616Y47996
Y50654
X-68743Y54775
Y57543
X-70416Y59726
X-64416Y63926
X-57523Y62662
X-54176Y62643
X-55259Y58608
Y54080
X-60117Y56246
X-62217Y52126
X-63617Y48726
X-59148Y48981
X-55112Y47111
X-52160Y48981
X-48172
X-45220Y47111
X-74116Y48226
X-78433Y48796
X-75317Y52526
X-77464Y56061
X-82322Y53896
Y58423
X-83405Y62459
X-80058Y62477
X-92513Y119415
X-11213
X-2105Y62459
X1242Y62477
X-1022Y58423
Y53896
X3836Y56061
X5984Y52526
X7183Y48226
X2867Y48796
X12684Y47996
Y50654
X12557Y54775
Y57543
X10883Y59726
X16883Y63926
X17684Y48726
X14427Y41303
X10982
X-6140Y21421
Y15516
X-11061Y19158
X-140448Y20843
X-143842Y24276
X-145319Y34709
X-138823
X-154472Y34611
X-161358Y34524
X-163622Y30470
Y25943
X-168740Y26146
Y30674
X-173808Y30655
Y26128
X-173661Y19158
X-168740Y21421
Y15516
X-163768Y18973
X-159733Y20843
X-156339Y24276
X-156523Y12672
X-156520Y6471
Y-123
Y-6131
X-143531Y-5931
Y-123
Y6471
X-143527Y12672
X-148173Y41303
X-151618
X-149917Y47996
Y50654
X-150043Y54775
Y57543
X-151716Y59726
X-145717Y63926
X-138823Y62662
X-141417Y56246
X-143517Y52126
X-144916Y48726
X-140448Y48981
X-155417Y48226
X-159733Y48796
X-163724Y47307
X-166721Y48796
X-170709Y48981
X-173661Y47111
X-173808Y54080
Y58608
X-172725Y62643
X-176072Y62662
X-178390Y56264
X-181884Y57914
X-184837
X-184935Y62525
X-185517Y66126
X-188917Y75426
X-189117Y78926
Y82326
X-188917Y85726
X-189016Y88926
X-198872Y87928
Y91028
X-199668Y98225
X-204272Y106429
X-212266Y110751
X-212109Y115614
X-206472Y118328
X-207148Y122661
X-210790Y122759
X-209904Y127188
X-213546Y127287
X-184443Y127191
X-184629Y122083
X-186018Y111541
X-181416Y106726
X-169747Y103091
X-169384Y99435
X-165152Y96974
X-161617Y95326
X-156252Y93761
X-159386Y89826
X-156017Y81626
X-149117
X-147116Y77226
X-145416Y90126
X-148941Y93761
X-143616Y95626
X-140016Y96226
X-174896Y89297
X-178515Y89407
X-180816Y84026
X-204372Y84528
X-204472Y81229
X-204372Y77929
X-200272Y70529
X-200161Y66329
Y63350
X-206165Y62364
X-209511Y62346
X-208429Y58310
Y53783
X-203571Y55948
X-204540Y48683
X-199614Y49477
X-197453Y52423
X-185672Y48987
X-187543Y45536
X-190999Y36988
X-208429Y30358
X-213496Y30376
Y25848
Y21124
Y15218
X-218468Y18675
X-222503Y20545
X-225898Y23978
X-218615Y25645
Y30173
X-220878Y34411
X-227374
X-236528Y34313
X-243414Y34226
X-245677Y30173
Y25645
X-250796Y25848
Y30376
X-255863Y30358
Y25830
X-255717Y18860
X-250796Y21124
Y15218
X-245824Y18675
X-241789Y20545
X-238394Y23978
X-238369Y12672
X-238365Y6471
Y-123
Y-6131
X-225376Y-5931
Y-123
Y6471
X-225373Y12672
X-208575Y18860
Y46813
X-211528Y48683
X-215515
X-218468Y46813
X-222503Y48683
X-226972Y48428
X-225572Y51828
X-223472Y55948
X-218615Y53783
Y58310
X-217532Y62346
X-220878Y62364
X-227772Y63629
X-233772Y59429
X-232099Y57246
Y54477
X-231972Y50356
Y47699
X-237472Y47929
X-241789Y48498
X-245780Y47010
X-248777Y48498
X-252764Y48683
X-255717Y46813
X-255863Y53783
Y58310
X-254781Y62346
X-258127Y62364
X-260445Y55966
X-263940Y57616
X-266893
X-266991Y62228
X-267572Y65829
X-270972Y75129
X-271172Y78628
Y82029
X-270972Y85429
X-271072Y88629
X-280399Y88226
Y91326
X-281195Y98522
X-285799Y106726
X-287999Y118626
X-288675Y122959
X-292317Y123057
X-291431Y127486
X-275051Y124536
X-266499Y126893
X-266685Y121786
X-268074Y111243
X-263472Y106429
X-251802Y102793
X-251440Y99137
X-247207Y96676
X-243672Y95029
X-238307Y93463
X-241441Y89529
X-238072Y81328
X-231172
X-229172Y76929
X-227472Y89828
X-230996Y93463
X-225672Y95328
X-222072Y95929
X-216872Y98829
X-218389Y102484
X-212172Y88929
X-208572Y89029
X-256952Y88999
X-260571Y89109
X-262872Y83728
X-285899Y84826
X-285999Y81526
X-285899Y78226
X-281799Y70826
X-281688Y66626
Y63647
X-287692Y62662
X-291038Y62643
X-289956Y58608
Y54080
X-285098Y56246
X-286067Y48981
X-281141Y49774
X-278980Y52721
X-267727Y48689
X-269599Y45238
X-272563Y36046
X-272719Y33237
X-272797Y30430
X-289956Y30655
X-290102Y19158
Y47111
X-293055Y48981
X-290099Y89326
X-255869Y119117
X-246760Y62161
X-243414Y62179
X-245677Y58125
Y53598
X-240820Y55763
X-238672Y52228
X-233674Y41006
X-230229
X-261877Y2661
X-264061Y4533
X-266264Y6736
X-163622Y53896
Y58423
X-164705Y62459
X-161358Y62477
X-158764Y56061
X-156616Y52526
X-173813Y119415
X-188535Y133591
X-295073Y127585
X-293636Y115911
X-293794Y111049
X-299916Y102781
X-298399Y99126
X-303599Y96226
X-307199Y95626
X-312523Y93761
X-308999Y90126
X-312699Y81626
X-310699Y77226
X-319599Y81626
X-322968Y89826
X-319835Y93761
X-325199Y95326
X-328735Y96974
X-332967Y99435
X-333329Y103091
X-344999Y106726
X-349601Y111541
X-348212Y122083
X-348026Y127191
X-355760Y125323
X-370731Y123054
X-374373Y123153
X-373487Y127582
X-377129Y127680
X-375692Y116007
X-375849Y111145
X-367855Y106822
X-363251Y98618
X-362455Y91422
Y88322
X-367955Y84922
X-368055Y81622
X-367955Y78322
X-363855Y70922
X-363744Y66722
Y63743
X-369748Y62758
X-373094Y62739
X-372011Y58704
Y54176
X-367154Y56342
X-368122Y49077
X-363196Y49870
X-361036Y52817
X-349254Y48987
X-351126Y45536
X-354799Y37066
X-372011Y30751
X-377079Y30769
Y26242
Y21517
Y15612
X-382051Y19069
X-386086Y20939
X-389481Y24372
X-382197Y26039
Y30566
X-384461Y34805
X-390957
X-400111Y34706
X-406996Y34620
X-409260Y30566
Y26039
X-414378Y26242
Y30769
X-419446Y30751
Y26224
X-419300Y19254
X-414378Y21517
Y15612
X-409407Y19069
X-405371Y20939
X-401977Y24372
X-402020Y12672
X-402017Y6471
Y-123
Y-6131
X-389028Y-5931
Y-123
Y6471
X-389025Y12672
X-372158Y19254
Y47206
X-375111Y49077
X-379098
X-382051Y47206
X-386086Y49077
X-390555Y48822
X-389155Y52222
X-387055Y56342
X-382197Y54176
Y58704
X-381115Y62739
X-384461Y62758
X-391355Y64022
X-397355Y59822
X-395681Y57639
Y54871
X-395555Y50750
Y48092
X-401055Y48322
X-405371Y48891
X-409363Y47403
X-412359Y48891
X-416347Y49077
X-419300Y47206
X-419446Y54176
Y58704
X-418363Y62739
X-421710Y62758
X-424028Y56360
X-427522Y58009
X-430475
X-430574Y62621
X-431155Y66222
X-434555Y75522
X-434755Y79022
Y82422
X-434555Y85822
X-434655Y89022
X-443982Y88226
Y91326
X-444778Y98522
X-449382Y106726
X-449482Y84826
X-449582Y81526
X-449482Y78226
X-445382Y70826
X-445271Y66626
Y63647
X-448681Y56246
X-449649Y48981
X-444724Y49774
X-442563Y52721
X-431310Y49083
X-433181Y45632
X-436309Y37144
X-397256Y41399
X-393811
X-402255Y52622
X-404402Y56157
X-409260Y53992
Y58519
X-410343Y62555
X-406996Y62573
X-401655Y81722
X-394755
X-392755Y77322
X-391055Y90222
X-394579Y93857
X-389255Y95722
X-385655Y96322
X-380455Y99222
X-381971Y102877
X-375755Y89322
X-372155Y89422
X-352599Y88926
X-352499Y85726
X-352699Y82326
Y78926
X-352499Y75426
X-349099Y66126
X-348518Y62525
X-348420Y57914
X-345467
X-341972Y56264
X-337390Y54080
Y58608
X-336308Y62643
X-339654Y62662
X-328287Y62459
X-324941Y62477
X-327205Y58423
Y53896
X-327307Y47307
X-330304Y48796
X-334291Y48981
X-337244Y47111
X-323316Y48796
X-318999Y48226
X-320199Y52526
X-322347Y56061
X-313626Y54775
Y57543
X-315299Y59726
X-309299Y63926
X-302405Y62662
X-299059Y62643
X-300142Y58608
Y54080
X-304999Y56246
X-307099Y52126
X-308499Y48726
X-304031Y48981
X-299995Y47111
X-297042Y48981
X-313499Y47996
Y50654
X-315201Y41303
X-311756
X-308902Y34709
X-302405
X-300142Y30470
Y25943
X-295023Y26146
Y30674
Y21421
Y15516
X-299995Y18973
X-304031Y20843
X-307425Y24276
X-307140Y12672
X-307143Y6471
Y-123
Y-5931
X-320132Y-6131
Y-123
Y6471
X-320136Y12672
X-323316Y20843
X-327351Y18973
X-327205Y25943
Y30470
X-332323Y30674
Y26146
Y21421
Y15516
X-337244Y19158
X-337390Y26128
Y30655
X-324941Y34524
X-318055Y34611
X-319921Y24276
X-338479Y89297
X-342098Y89407
X-344399Y84026
X-337396Y119415
X-370055Y118722
X-419452Y119511
X-430267Y122179
X-430081Y127287
X-437453Y125520
X-431656Y111637
X-427055Y106822
X-415385Y103187
X-415022Y99531
X-410790Y97070
X-407255Y95422
X-401890Y93857
X-405024Y89922
X-420534Y89393
X-424154Y89503
X-426455Y84122
X-293699Y89226
X-453682Y89326
X-457282Y89226
X-461982Y99126
X-463498Y102781
X-467182Y96226
X-470782Y95626
X-476106Y93761
X-472582Y90126
X-476282Y81626
X-474282Y77226
X-483182Y81626
X-486551Y89826
X-483417Y93761
X-488782Y95326
X-492317Y96974
X-496550Y99435
X-496912Y103091
X-508582Y106726
X-513183Y111541
X-511795Y122083
X-511609Y127191
X-517173Y130473
X-520398Y123401
X-534050Y122959
X-537691Y123057
X-536805Y127486
X-540447Y127585
X-539010Y115911
X-539168Y111049
X-531173Y106726
X-526569Y98522
X-525773Y91326
Y88226
X-531273Y84826
X-531373Y81526
X-531273Y78226
X-527173Y70826
X-527062Y66626
Y63647
X-533066Y62662
X-536412Y62643
X-535330Y58608
Y54080
X-530472Y56246
X-531441Y48981
X-526515Y49774
X-524354Y52721
X-512837Y48987
X-514709Y45536
X-517897Y36988
X-500973Y30655
Y26128
X-495905Y26146
Y30674
X-490787Y30470
Y25943
X-490934Y18973
X-486898Y20843
X-483504Y24276
X-483390Y12672
X-483386Y6471
Y-123
Y-6131
X-470398Y-5931
Y-123
Y6471
X-470394Y12672
X-467613Y20843
X-463578Y18973
X-463724Y25943
Y30470
X-458606Y30674
Y26146
Y21421
Y15516
X-453685Y19158
X-453539Y30655
X-465988Y34709
X-472484
X-481638Y34611
X-488523Y34524
X-490890Y47307
X-493887Y48796
X-497874Y48981
X-500827Y47111
X-500973Y54080
Y58608
X-499891Y62643
X-503237Y62662
X-505555Y56264
X-509050Y57914
X-512002
X-512101Y62525
X-512682Y66126
X-516082Y75426
X-516282Y78926
Y82326
X-516082Y85726
X-516182Y88926
X-505681Y89407
X-502061Y89297
X-507982Y84026
X-535473Y89326
X-539073Y89226
X-543773Y99126
X-545290Y102781
X-548973Y96226
X-552573Y95626
X-557897Y93761
X-554373Y90126
X-558073Y81626
X-556073Y77226
X-564973Y81626
X-568342Y89826
X-565209Y93761
X-570573Y95326
X-574109Y96974
X-578341Y99435
X-578703Y103091
X-590373Y106726
X-594975Y111541
X-601156Y111692
X-603884Y108457
X-598939Y101884
X-597973Y88926
X-597873Y85726
X-598073Y82326
Y78926
X-597873Y75426
X-594473Y66126
X-593892Y62525
X-593794Y57914
X-590841
X-587346Y56264
X-582764Y54080
Y58608
X-581682Y62643
X-585028Y62662
X-573661Y62459
X-570315Y62477
X-572579Y58423
Y53896
X-572681Y47307
X-575678Y48796
X-579665Y48981
X-582618Y47111
X-594628Y48987
X-596500Y45536
X-582764Y30655
Y26128
X-577697Y26146
Y30674
X-572579Y30470
Y25943
X-572725Y18973
X-568690Y20843
X-565295Y24276
X-565321Y12672
X-565318Y6471
Y-123
Y-6131
X-552329Y-5931
Y-123
Y6471
X-552325Y12672
X-549405Y20843
X-545369Y18973
X-545516Y25943
Y30470
X-540398Y30674
Y26146
Y21421
Y15516
X-535476Y19158
X-535330Y30655
X-547780Y34709
X-554276
X-563429Y34611
X-570315Y34524
X-568690Y48796
X-564373Y48226
X-565573Y52526
X-567721Y56061
X-559000Y54775
Y57543
X-560673Y59726
X-554673Y63926
X-547780Y62662
X-544433Y62643
X-545516Y58608
Y54080
X-550374Y56246
X-552473Y52126
X-553873Y48726
X-549405Y48981
X-545369Y47111
X-542416Y48981
X-538429
X-535476Y47111
X-558873Y47996
Y50654
X-560575Y41303
X-557130
X-552799Y24276
X-577697Y21421
Y15516
X-582618Y19158
X-583853Y89297
X-587472Y89407
X-589773Y84026
X-593586Y122083
X-593400Y127191
X-603011Y126287
X-605191Y122719
X-582770Y119415
X-586370Y132311
X-533373Y118626
X-500979Y119415
X-457219Y115911
X-457376Y111049
X-451582Y118626
X-452258Y122959
X-455900Y123057
X-455014Y127486
X-458656Y127585
X-457031Y135693
X-453410Y135200
X-454621Y62643
X-451275Y62662
X-453539Y58608
Y54080
X-453685Y47111
X-456638Y48981
X-460625
X-463578Y47111
X-467613Y48981
X-472082Y48726
X-470682Y52126
X-468582Y56246
X-463724Y54080
Y58608
X-462642Y62643
X-465988Y62662
X-472882Y63926
X-478882Y59726
X-477209Y57543
Y54775
X-477082Y50654
Y47996
X-482582Y48226
X-486898Y48796
X-483782Y52526
X-485929Y56061
X-490787Y53896
Y58423
X-491870Y62459
X-488523Y62477
X-478783Y41303
X-475339
X-471008Y24276
X-495905Y21421
X-500827Y19158
X-616173Y22174
Y2173
Y-17827
Y42173
Y62173
Y82174
Y102173
X-611685Y128112
X-606948Y126976
X-608437Y130868
X-616173Y144573
X-613373Y179726
X-607873Y194574
X-609110Y241200
X-613373Y237326
X-612821Y250752
X-612707Y259178
X-612852Y268357
X-612924Y277753
Y286787
X-562309Y286346
X-562900Y281228
X-564045Y274757
X-541921Y276370
X-544810Y283629
X-544948Y291559
X-554873Y291326
X-513876Y292085
X-512110Y287300
X-510649Y282328
X-506873Y282074
X-515584Y281723
X-526010Y276200
X-526423Y272170
X-496410Y274400
X-488843Y274726
X-485962Y274692
X-486773Y271074
X-489573Y270926
X-484373Y262626
X-481973Y261174
X-469373Y261526
X-470073Y266326
X-466873Y266215
X-466700Y255693
X-469836Y255680
X-470356Y245340
X-466773Y245174
X-462810Y242000
X-463004Y233419
X-465586Y228419
X-469273Y228426
X-478165Y220619
X-483480Y213533
X-492998Y211200
X-500310Y214600
X-492010Y223100
X-490735Y236136
X-487898Y236158
X-492373Y239726
X-495413Y239721
X-494513Y243269
X-491473Y243274
X-492538Y251726
X-495579Y251721
X-495373Y255526
X-492273
X-489173Y285526
X-490273Y289426
X-499826Y292529
X-483673Y283174
X-470073Y279574
X-469476Y275939
X-465792Y275944
X-466010Y280600
X-460373Y282426
X-461282Y287302
X-461273Y291074
X-451422Y290872
X-451273Y286626
X-470173Y289148
X-454079Y239827
X-451118Y235610
X-449846Y228585
X-467154Y211584
X-470910Y208200
X-465848Y143064
X-462248Y143764
X-461362Y138646
X-465010Y138700
X-479391Y140593
X-483033Y140494
X-486024Y143198
X-488183Y139789
X-492410Y139700
X-536226Y137484
X-546795Y138744
X-547073Y142374
X-550973Y144073
X-563134Y144059
X-564825Y140494
X-561183Y140593
X-569975Y139789
X-591810Y148400
X-595555Y145587
X-599874Y144451
X-604499Y147028
X-600910Y182900
X-599473Y189026
X-591610Y188172
Y195800
X-591347Y199800
X-582173Y198274
X-581773Y204374
X-590473Y210974
X-595673Y214674
X-592873Y224126
X-595210Y227000
X-591310Y230900
X-583383Y230324
X-580110Y234500
X-580313Y250414
X-588283Y250607
X-573744Y254810
X-572273Y219726
X-583802Y219074
X-604374Y236761
X-542910Y233000
X-556748Y201446
X-447410Y204500
X-416010Y205967
X-406788Y206067
X-406690Y208922
X-403245Y204197
X-396510Y203800
X-392810Y203300
X-406195Y197697
X-407210Y223200
X-406810Y226200
X-410736Y225422
X-414710Y225200
X-412810Y228500
X-403910Y231100
X-400281Y230803
X-400610Y239200
X-400135Y245765
X-403761Y245822
X-407465Y245659
X-411264Y245634
X-407454Y253764
X-403784Y253848
X-400055Y253855
X-403319Y266006
X-403516Y271124
X-410510Y270200
X-413510Y267700
X-411173Y263774
X-413555Y260888
X-423051Y264276
X-424260Y251249
X-431053Y256905
X-440398Y248193
X-441185Y237662
X-437556Y238049
X-432917
X-445081Y237275
X-447073Y240374
X-419425Y222844
X-403046Y224100
X-381210Y235800
X-380510Y242200
X-384914Y242191
X-383890Y252835
X-376850Y253215
X-380197Y260204
X-385012Y260494
X-386489Y273327
X-382847Y274962
X-383347Y280578
X-387398Y280078
X-385603Y285494
X-382003Y285622
X-378713Y283821
X-378910Y277718
X-378327Y272310
X-376948Y268275
X-369074Y266601
X-350963Y264928
X-345595Y261394
X-348601Y258136
X-350766Y251640
X-345205Y251644
X-345741Y242974
X-336587Y249962
X-335308Y260592
X-328168Y257729
X-325465Y251636
X-312965Y251144
X-308382Y253493
X-300366Y250848
X-299634Y259891
X-297063Y266879
X-312999Y260820
X-315426Y223486
X-329205Y214333
X-335921Y214911
X-339892Y217462
X-343927Y214410
X-347718Y206150
X-342500Y202047
X-328090Y203908
X-327926Y200258
X-330288Y192974
X-324733Y207816
X-340817Y228062
X-355688Y215024
X-360800Y214825
X-365229
X-365483Y204309
X-364540Y157443
Y153407
X-368674Y157443
X-373602Y164136
X-391873Y163545
Y157443
X-393175Y151648
X-397864Y140689
X-401506Y140590
X-404441Y142777
X-406656Y139885
X-383752Y138781
X-380151Y138771
X-380780Y142974
X-384429Y142875
X-374882Y143859
X-375096Y138742
X-371450Y138690
X-347748Y153112
X-336390Y151537
X-332059
X-337571Y159214
X-337549Y164431
X-349675Y167977
X-322386Y142681
X-324601Y139789
X-319451Y140494
X-315809Y140593
X-301331Y138512
X-297611Y138545
X-293870Y138545
X-294220Y144328
X-302610Y144200
X-294810Y153300
X-356666Y248388
X-360135Y251079
X-413612Y287306
X-417110Y285900
X-416560Y289590
X-421887Y290274
X-421899Y286356
X-421873Y282674
X-428736Y282706
X-428733Y286308
X-428736Y289989
X-441166Y290883
X-441173Y287274
X-285842Y259497
X-274130Y261269
X-271598Y252721
X-265526Y251443
X-261253Y249038
X-260678Y242497
X-263457Y232640
X-269069Y237761
X-275508Y235519
X-275705Y239853
X-275697Y216812
X-268183Y216894
X-251901Y224864
X-252312Y233821
X-247883Y242497
X-237643Y239850
X-239593Y237822
X-235693
Y247822
X-239593
X-237643Y249850
X-236489Y255966
X-227729Y258427
X-247710Y256069
X-250761Y254002
X-258211Y258476
X-292240Y249261
X-259520Y198978
X-254610Y202500
X-239840Y204707
X-235940
X-237890Y206735
X-239840Y197467
X-235940
X-237890Y195439
X-229205Y215221
X-225366Y214726
X-223103Y218860
X-228319
X-216607Y228309
X-211783Y223686
X-201616Y223751
X-194953Y214136
X-159914Y214726
X-138505Y216076
X-137291Y207541
X-137761Y243023
Y258023
Y263023
X-139924Y271622
X-148361Y283123
X-147118Y285623
X-156335Y285700
X-162310Y291200
X-179500Y291892
X-184520Y290021
X-190524Y286281
X-200465Y276144
X-204894Y276144
X-211882Y277226
X-213260Y272010
X-210800Y266892
X-216593Y280784
X-171134Y273289
X-165327Y273486
X-160996Y265218
X-174481Y259115
X-202746Y183500
X-216359Y183084
X-221487Y182975
X-220682Y142777
X-217138Y143466
X-216323Y138349
X-219953Y138387
X-211223Y138349
X-207623Y138299
X-195740Y143958
X-161018Y139789
X-155868Y140494
X-152226Y140593
X-154177Y144059
X-138626Y143075
X-137838Y138744
X-234282Y140295
X-237924Y140197
X-240859Y142384
X-243074Y139491
X-292913Y159530
X-135083Y143764
X-134197Y138646
X-115810Y144800
X-114934Y179490
X-117886
X-120839
X-123989
X-111882Y185002
X-106961Y185395
X-103910
X-98693
X-95642
X-92591
Y179392
X-87473
X-84422
X-81371
X-99010Y179500
X-112642Y198252
X-117761Y228023
X-124831
X-131075Y230081
X-136095Y229982
X-133060Y225548
X-132761Y243023
X-127681
X-122761
X-117761
X-112761Y242823
X-107761
X-102761Y242623
Y248023
Y253023
X-96993Y259448
X-93942Y271948
X-80938Y273326
X-76914Y273228
X-73961
X-71009
X-68056
X-65221Y273196
X-68461Y268823
X-73361Y268723
X-60603Y266596
Y260322
X-60061Y253923
X-56482Y256524
X-56582Y269524
X-52782Y269424
X-46693Y274016
X-36996Y273228
X-33071Y273228
X-30118
X-27165
X-24212
X-21260
X-24262Y268824
X-29562Y268924
X-16062Y260523
Y253924
Y244824
X-20261Y243023
X-25261
X-30261
X-35261
X-40261
X-45261
X-50261
X-60061Y244823
X-65261Y243023
X-70261
X-75261
X-80261
X-85261
X-90261
X-95261
X-102761Y235523
Y228023
X-93575Y229293
X-88556Y229392
X-80656Y228023
X-75261
Y234949
X-82761
X-67761Y234623
Y227738
X-58831Y232640
X-60361Y236323
X-49087Y229687
X-45052Y229588
X-40261Y228023
Y235523
X-32761
X-25261
Y228023
X-20261Y225523
X-21407Y219476
X-14038Y223451
X-8845Y221660
X-3463Y221582
X3011Y221504
X11866Y220595
X17477
X14321Y211208
X12293Y204578
X5273Y213392
X-2449Y211988
X-11809Y214250
X-12955Y204650
Y199482
X-9707
X-6360
X-3112
X1295Y192566
X1607Y178448
X3011Y172754
X-7675Y172130
X-17347Y172286
X-17035Y178760
X-22779Y184177
X-30874Y179819
X-32649Y174732
X-47210Y177300
X-43576Y164255
X-34567Y147400
X-13906Y148471
X1582Y139789
X6732Y140494
X10374Y140593
X8423Y144059
X-7909Y185702
X-17659Y192254
X-21091Y202550
X-23821Y209034
X-17062Y229824
X-16162Y236124
X-32761Y228023
X-38054Y283525
Y287364
Y291104
X-58330Y291202
Y287364
Y283624
X-56763Y276540
X-5569Y277352
X-1123Y277664
X9017Y278054
X9485Y290456
X5117
X-4633Y290612
X-10813
X-16489
X15179Y290456
X16037Y265652
X8861Y259256
X2699
X-1903Y263546
X-6973Y266900
X-105870Y269183
X-110861Y269223
Y273723
X-106861
X-106469Y278899
X-114861Y273723
X-118861
X-123311Y273959
X-115761Y269223
X-130261Y263023
Y258023
X-112523Y235523
X-98514Y290889
X-94515Y290810
X-79718Y139789
X-74568Y140494
X-70926Y140593
X-72877Y144059
X-57326Y143075
X-53783Y143764
X-52897Y138646
X-56538Y138744
X24761
X28403Y138646
X27517Y143764
X23890Y143100
X35435Y143224
X33058Y153600
X35303Y178448
X35771Y185312
X35849Y192410
X36356Y204551
X44937
X43293Y199482
X46640
X49888
X54101Y204890
X59873Y209414
X55961Y218823
X45035
X34996Y219020
X23185Y220595
X19469Y211286
X21029Y204656
X26728Y204551
X30623Y233282
X35147Y233204
X43181Y233282
X49031Y233204
X54647Y237806
Y243126
Y248336
X59561Y242174
X61355Y231098
X69389
X69467Y219008
X75932Y218956
X79061Y209492
X88343Y204344
X88723Y218956
X84443Y231176
X89513Y234920
X89981Y243188
X89825Y253562
X84365Y255512
X76721Y256136
X78359Y264925
X84053
X84209Y274597
X78749
X80621Y281149
X78125Y287857
X83195
X69311
X69233Y283957
X59951Y281149
X58313Y274597
X57923Y264925
X69155
X69857Y252236
X60731Y256292
X47427Y253484
X42727
X35727
X30389
X23447Y248180
X23525Y243266
Y238040
X22511Y261596
X23759Y268694
X22433Y278132
X34757Y278678
X32543Y286860
X27893Y287024
X38940Y286959
X45928
X51059Y287102
X57455Y287857
X49421Y278600
X45989Y262376
X34523Y261986
X78983Y242174
X80387Y195920
X81947Y188822
X79373Y176888
X81635Y164252
X83195Y157778
X78125
X69311
X69233Y153878
X59951Y151070
X58313Y144518
X57455Y157778
X59405Y163862
X69623Y166748
X69389Y186716
X62525Y189992
X66503Y195452
X69233Y199976
X54514Y192297
Y185309
X54612Y178911
X59015Y176732
X48329Y171740
X45346Y171726
X42245
X80621Y151070
X78749Y144518
X84209
X117827Y152173
Y172174
Y192174
Y212174
Y232173
Y252173
Y272174
Y292174
Y312174
Y332173
Y352173
Y372174
Y392174
X93827Y422174
X73827
X53827
X33827
X42337Y392669
X45388
X46068Y388170
X51268
X51096Y392669
X56805
X56868Y389770
Y386870
X62765Y386658
Y389658
Y392558
X62239Y369967
X67517Y370094
X62239Y362467
X55890Y362300
X47239Y354807
X47239Y347467
Y339967
X38072
Y347467
Y354967
X28905Y355100
Y347600
Y339967
Y332467
X38072
X44739
X47239Y324967
X34690Y325000
X27239Y324967
X19739
Y332467
Y339967
Y347600
Y355100
Y362534
Y369967
X20482Y390234
X22511Y315104
X28673Y305588
X32495
X46067Y305822
X49577Y305744
X53114Y298179
Y294832
X58859Y293732
X69389Y293420
Y297944
X81089Y293498
X85223Y295292
X84833Y301610
Y311516
Y317210
X81245Y320252
X72509Y320174
X69389Y316664
X64319Y320174
X61901Y327038
X69779Y330470
X81947Y328676
X82805Y341702
X78593Y339752
X69467Y349034
X61277Y350906
X59951Y339440
X58703Y315494
X59639Y306992
X79373
X44190Y314834
X25470Y298183
Y294935
X82181Y355120
X83173Y366754
X10190Y386116
X10242Y392105
X13827Y422174
X-6173
X-26173
X-46173
X-66173
X-86173
X-106173
X-126173
X-129152Y350820
X-120574Y351320
X-108875Y349499
X-109575Y342243
X-114693Y335297
X-119811Y332049
X-127685Y323388
X-131333Y323592
X-133909Y328552
X-128917Y316150
X-106918Y323683
X-100610Y301900
X-97115Y302210
X-91817Y309614
X-77055Y305393
X-73905Y305590
X-70854Y305689
X-69771Y293385
X-73019Y293484
X-76267Y293385
X-58330Y296714
Y300454
Y304293
X-38054Y304194
Y300454
Y296616
X-25850Y304639
X-17877Y305820
X-16411Y300362
X-10813
X-4555
X4727Y300596
X9329
X14165
X13890Y306700
X-15416Y319895
X-16007Y351884
X-15810Y383084
X-58625Y366793
X-61544
X-66146Y366806
X-72995Y366793
X-76145
X-79845Y366593
X-81902Y351133
X-77702
X-85546Y346824
X-73782Y333809
X-73880Y330757
X-70337
Y334005
X-58625Y363545
X-146575Y349499
X-147275Y342243
X-152393Y335297
X-157511Y332049
X-165385Y323388
X-169033Y323592
X-171583Y328506
X-169867Y316150
X-178122Y310100
X-178375Y305807
X-174804Y301975
X-176576Y297841
X-184154Y297696
X-188357Y297705
X-188485Y302027
X-184154
X-186193Y311281
X-190918Y310592
X-197976Y303812
X-198034Y298628
X-198300Y294254
X-206792Y293169
X-206683Y315838
X-206733Y323592
X-203085Y323388
X-208997Y328506
X-220017Y323683
X-222188Y319163
X-237765Y316533
X-240785Y323388
X-244433Y323592
X-246497Y328507
X-254517Y323683
X-256687Y319163
X-257932Y311900
X-250286Y315300
X-278510Y317700
X-278933Y323592
X-275285Y323388
X-267411Y332049
X-262293Y335297
X-257174Y342243
X-256474Y349499
X-268174Y351320
X-276752Y350820
X-242252
X-233674Y351320
X-221975Y349499
X-222675Y342243
X-227793Y335297
X-232911Y332049
X-195211
X-190093Y335297
X-184975Y342243
X-184275Y349499
X-195974Y351320
X-204552Y350820
X-166852
X-158274Y351320
X-144617Y323683
X-146788Y319163
X-148810Y303700
X-151858Y302324
X-152058Y305324
X-161358Y305424
X-161458Y302276
X-162547Y295994
X-158958Y296124
X-151558Y295976
X-184488Y319163
X-182317Y323683
X-186173Y422174
X-206173
X-226173
X-246173
X-266173
X-276173
X-166173
X-146173
X-296173
X-306173
X-326173
X-346173
X-366173
X-386173
X-406173
X-426173
X-446173
X-447273Y339663
X-442248Y339688
X-437311Y339688
X-432295Y339658
X-432910Y343300
X-427269Y339738
X-421710Y323500
X-417559
X-417673Y314026
X-413900Y314031
X-422510Y314200
X-421373Y310026
X-427325Y307574
X-438400Y316373
X-437473Y325011
X-440873Y294474
X-416558Y293093
X-396673Y301874
X-393473Y299874
X-382158Y294844
X-376443Y301133
X-392310Y316300
X-394882Y319600
X-294602Y299753
X-450788Y305737
X-457875Y311741
X-458409Y320890
X-461264
X-465373Y320326
X-459492Y325516
X-459875Y330773
X-453073Y325326
X-477510Y324800
X-473468Y330142
X-483677Y330942
X-483606Y339492
X-485378Y342150
X-491610Y347000
X-503929Y345635
X-504137Y332412
X-500442Y332713
X-500499Y323248
X-504137Y323356
X-507210Y320500
X-493300Y320212
X-487173Y320226
X-484773Y318526
Y315626
X-487073Y313826
X-493200Y313812
X-495600Y315512
X-497010Y311500
X-500092Y308548
X-496010Y325400
X-477910Y315500
X-474245Y315481
X-477896Y308453
X-472043Y303277
X-490273Y293226
X-511794Y337922
X-518047Y342306
X-522911Y349138
X-533982
X-531044Y340416
X-546517Y338277
X-546474Y334104
X-554840Y340772
X-560325Y330172
X-560625Y326372
X-567610Y325000
X-568010Y316800
X-559327Y317625
X-575610Y318800
X-577975Y311274
X-581573Y307907
X-581773Y304207
X-581273Y300507
X-573973Y304207
X-567169Y293257
X-557433Y295299
X-589701Y311994
X-598015Y311930
X-604273Y308926
X-582010Y360000
X-568610Y352400
X-566011Y347499
X-574310Y409700
X-555710
X-552110Y404900
X-544610Y409900
X-546173Y422174
X-526173
X-525910Y409400
X-522010Y404900
X-506173Y422174
X-486173
X-466173
X-566173
X-586173
X-616173Y392174
X-618673Y357826
X-614095Y339108
X-612398Y317352
X-618373Y310126
X-612904Y304131
X-612839Y295559
T03
X-552873Y214226
X-542873
X-532873
X-522873
X-512873
Y224226
X-522873
X-532873
X-542873
X-552873
Y251720
X-542873
X-532873
X-522873
X-512873
Y261720
X-522873
X-532873
X-542873
X-552873
X-308697Y199812
X-298697
Y189812
X-308697
X-288697
X-278697
X-268697
Y199812
X-278697
X-288697
X-128586Y195437
Y205437
Y215437
X-118587
Y205437
Y195437
Y185437
X-128586
X-121810Y164400
X-111810
X-101810
X-91810
X-81810
Y154400
X-91810
X-101810
X-111810
X-121810
X-24261Y155951
X-14497
X-4497
T04
X-611910Y152200
Y162200
Y172200
X-601910
Y162200
Y152200
X-587473Y268926
X-579573
Y278847
X-587473
T05
X-570866Y-39370
X-492126Y-39494
X-409449Y-39370
X-326772
X-244094
X-165354Y-39494
X-82677Y-39370
X0
Y0
X-82677
X-165354Y-123
X-244094Y0
X-326772
X-409449
X-492126Y-123
X-570866Y0
T06
X-361873Y230226
X-351873
X-330173
X-320173
X-298673
X-306423Y274826
X-316423
X-326423
X-347473
X-357473
X-367473
X-285373
X-275373
X-265373
X-244138
X-234138
X-224138
X-187150Y248646
Y238646
Y228646
Y207071
Y197071
Y187071
X-163331
Y197071
Y207071
Y228548
Y238547
Y248548
X-288673Y230226
X-285373Y298826
X-275373
X-265373
X-244138
X-234138
X-224138
X-306423
X-316423
X-326423
X-347473
X-357473
X-367473
X-378377Y367600
X-388377
X-398377
X-408377
X-418377
X-428377
Y391900
X-418377
X-408377
X-398377
X-388377
X-378377
X-356310
X-346310
X-336310
X-326310
X-316310
X-306310
Y367600
X-316310
X-326310
X-336310
X-346310
X-356310
X-450444
X-460443
X-470443
X-480443
X-490444
X-500444
X-522510
X-532510
X-542510
X-552510
X-562510
X-572510
Y391900
X-562510
X-552510
X-542510
X-532510
X-522510
X-500444
X-490444
X-480443
X-470443
X-460443
X-450444
X-614573Y366326
Y348526
T07
X-564940Y-84544
Y-72733
X-553129
Y-84544
X-484687
X-472876
Y-72733
X-484687
X-403160
Y-84544
X-391349
Y-72733
X-321105
X-309294
Y-84544
X-321105
X-239578
Y-72733
X-227767
Y-84544
X-157522
X-145711
Y-72733
X-157522
X-76222
Y-84544
X-64411
Y-72733
X5078
X16889
Y-84544
X5078
X-36264Y198055
Y209866
X-66972
Y198055
X-97681
Y209866
T08
X-124613Y373085
X-110834
Y392770
X-124613
X-148534
X-162313
Y373085
X-148534
X-186233
X-200013
Y392770
X-186233
X-223933
X-237713
Y373085
X-223933
X-261633
X-275413
Y392770
X-261633
T09
X-604773Y343626
Y371226
T10
X-7654Y178895
Y192296
X45346
Y178895
X45927Y243126
X32527
Y296126
X45927
T11
X69327Y46926
Y79426
Y111926
Y144426
Y176926
Y209426
Y242005
Y274505
Y307005
Y339505
T12
X-598173Y250226
Y297548
T13
X-603488Y-102141
X-272779
X105173
Y409669
X-603488
T14
X-523805Y138444
Y193956
T15
X-576751Y-88245
X-541318
X-496498
X-461065
X-414971
X-379538
X-332916
X-297483
X-251389
X-215955
X-169333
X-133900
X-88033
X-52600
X-6733
X28700
X-24453Y194355
X-48075
X-55161
X-78783
X-85870
X-109492
T16
X-411600Y166200
M30
