G04*
G04 #@! TF.GenerationSoftware,Altium Limited,Altium Designer,19.1.8 (144)*
G04*
G04 Layer_Color=16711935*
%FSLAX25Y25*%
%MOIN*%
G70*
G01*
G75*
%ADD10C,0.00800*%
%ADD13C,0.01000*%
%ADD308C,0.01500*%
%ADD394C,0.00100*%
G54D10*
X194829Y-84993D02*
X193830Y-83994D01*
X191831D01*
X190831Y-84993D01*
Y-88992D01*
X191831Y-89992D01*
X193830D01*
X194829Y-88992D01*
Y-86993D01*
X192830D01*
X196829Y-89992D02*
Y-83994D01*
X199828D01*
X200828Y-84993D01*
Y-86993D01*
X199828Y-87993D01*
X196829D01*
X202827Y-84993D02*
X203827Y-83994D01*
X205826D01*
X206826Y-84993D01*
Y-85993D01*
X205826Y-86993D01*
X204826D01*
X205826D01*
X206826Y-87993D01*
Y-88992D01*
X205826Y-89992D01*
X203827D01*
X202827Y-88992D01*
X194349Y-133119D02*
X193350Y-132120D01*
X191350D01*
X190350Y-133119D01*
Y-137118D01*
X191350Y-138118D01*
X193350D01*
X194349Y-137118D01*
Y-135119D01*
X192350D01*
X196349Y-132120D02*
Y-138118D01*
X199348D01*
X200347Y-137118D01*
Y-136118D01*
X199348Y-135119D01*
X196349D01*
X199348D01*
X200347Y-134119D01*
Y-133119D01*
X199348Y-132120D01*
X196349D01*
X205346D02*
X203346D01*
X202347Y-133119D01*
Y-137118D01*
X203346Y-138118D01*
X205346D01*
X206345Y-137118D01*
Y-133119D01*
X205346Y-132120D01*
X201566Y-60403D02*
X200566Y-59403D01*
X198567D01*
X197567Y-60403D01*
Y-64402D01*
X198567Y-65401D01*
X200566D01*
X201566Y-64402D01*
Y-62402D01*
X199566D01*
X203565Y-65401D02*
X205564D01*
X204565D01*
Y-59403D01*
X203565Y-60403D01*
X192849Y49880D02*
X188850D01*
Y46881D01*
X190850D01*
X188850D01*
Y43882D01*
X194849D02*
X196848D01*
X195848D01*
Y47881D01*
X194849D01*
X199847Y43882D02*
X201846D01*
X200847D01*
Y49880D01*
X199847D01*
X207844Y43882D02*
X205845D01*
X204845Y44882D01*
Y46881D01*
X205845Y47881D01*
X207844D01*
X208844Y46881D01*
Y45882D01*
X204845D01*
X194349Y-121619D02*
X193350Y-120620D01*
X191350D01*
X190350Y-121619D01*
Y-125618D01*
X191350Y-126618D01*
X193350D01*
X194349Y-125618D01*
Y-123619D01*
X192350D01*
X196349Y-120620D02*
Y-126618D01*
X199348D01*
X200347Y-125618D01*
Y-124618D01*
X199348Y-123619D01*
X196349D01*
X199348D01*
X200347Y-122619D01*
Y-121619D01*
X199348Y-120620D01*
X196349D01*
X206345Y-121619D02*
X205346Y-120620D01*
X203346D01*
X202347Y-121619D01*
Y-122619D01*
X203346Y-123619D01*
X205346D01*
X206345Y-124618D01*
Y-125618D01*
X205346Y-126618D01*
X203346D01*
X202347Y-125618D01*
X193830Y35506D02*
X192830Y36506D01*
X190831D01*
X189831Y35506D01*
Y31508D01*
X190831Y30508D01*
X192830D01*
X193830Y31508D01*
Y33507D01*
X191830D01*
X195829Y36506D02*
X199828D01*
X197828D01*
Y30508D01*
X204826Y36506D02*
X202827D01*
X201827Y35506D01*
Y31508D01*
X202827Y30508D01*
X204826D01*
X205826Y31508D01*
Y35506D01*
X204826Y36506D01*
X193830Y23506D02*
X192830Y24506D01*
X190831D01*
X189831Y23506D01*
Y19508D01*
X190831Y18508D01*
X192830D01*
X193830Y19508D01*
Y21507D01*
X191830D01*
X195829Y24506D02*
X199828D01*
X197828D01*
Y18508D01*
X205826Y23506D02*
X204826Y24506D01*
X202827D01*
X201827Y23506D01*
Y22507D01*
X202827Y21507D01*
X204826D01*
X205826Y20507D01*
Y19508D01*
X204826Y18508D01*
X202827D01*
X201827Y19508D01*
X195349Y-110119D02*
X194350Y-109120D01*
X192350D01*
X191350Y-110119D01*
Y-114118D01*
X192350Y-115118D01*
X194350D01*
X195349Y-114118D01*
Y-112119D01*
X193350D01*
X197349Y-109120D02*
Y-115118D01*
X200348D01*
X201347Y-114118D01*
Y-113119D01*
X200348Y-112119D01*
X197349D01*
X200348D01*
X201347Y-111119D01*
Y-110119D01*
X200348Y-109120D01*
X197349D01*
X203347D02*
Y-115118D01*
X207345D01*
X193830Y11507D02*
X192830Y12506D01*
X190831D01*
X189831Y11507D01*
Y7508D01*
X190831Y6508D01*
X192830D01*
X193830Y7508D01*
Y9507D01*
X191830D01*
X195829Y12506D02*
X199828D01*
X197828D01*
Y6508D01*
X201827Y12506D02*
Y6508D01*
X205826D01*
X195066Y-36403D02*
X194066Y-35403D01*
X192067D01*
X191067Y-36403D01*
Y-40402D01*
X192067Y-41401D01*
X194066D01*
X195066Y-40402D01*
Y-38402D01*
X193066D01*
X197065Y-41401D02*
Y-35403D01*
X200064D01*
X201064Y-36403D01*
Y-38402D01*
X200064Y-39402D01*
X197065D01*
X207062Y-41401D02*
X203063D01*
X207062Y-37403D01*
Y-36403D01*
X206062Y-35403D01*
X204063D01*
X203063Y-36403D01*
X195066Y-12903D02*
X194066Y-11903D01*
X192067D01*
X191067Y-12903D01*
Y-16902D01*
X192067Y-17901D01*
X194066D01*
X195066Y-16902D01*
Y-14902D01*
X193066D01*
X197065Y-17901D02*
Y-11903D01*
X200064D01*
X201064Y-12903D01*
Y-14902D01*
X200064Y-15902D01*
X197065D01*
X203063Y-17901D02*
X205063D01*
X204063D01*
Y-11903D01*
X203063Y-12903D01*
X163508Y458040D02*
Y466037D01*
X168840Y458040D01*
Y466037D01*
X175504D02*
X172838D01*
X171505Y464704D01*
Y459373D01*
X172838Y458040D01*
X175504D01*
X176837Y459373D01*
Y464704D01*
X175504Y466037D01*
X179503D02*
X184834D01*
X182169D01*
Y458040D01*
X192832Y466037D02*
X187500D01*
Y458040D01*
X192832D01*
X187500Y462038D02*
X190166D01*
X200829Y464704D02*
X199496Y466037D01*
X196830D01*
X195498Y464704D01*
Y463371D01*
X196830Y462038D01*
X199496D01*
X200829Y460705D01*
Y459373D01*
X199496Y458040D01*
X196830D01*
X195498Y459373D01*
X214158Y458040D02*
X211492Y460705D01*
Y463371D01*
X214158Y466037D01*
X218157D02*
Y459373D01*
X219490Y458040D01*
X222156D01*
X223489Y459373D01*
Y466037D01*
X226154Y458040D02*
Y466037D01*
X231486Y458040D01*
Y466037D01*
X234152D02*
Y458040D01*
X239483D01*
X247481Y466037D02*
X242149D01*
Y458040D01*
X247481D01*
X242149Y462038D02*
X244815D01*
X255478Y464704D02*
X254145Y466037D01*
X251480D01*
X250147Y464704D01*
Y463371D01*
X251480Y462038D01*
X254145D01*
X255478Y460705D01*
Y459373D01*
X254145Y458040D01*
X251480D01*
X250147Y459373D01*
X263476Y464704D02*
X262143Y466037D01*
X259477D01*
X258144Y464704D01*
Y463371D01*
X259477Y462038D01*
X262143D01*
X263476Y460705D01*
Y459373D01*
X262143Y458040D01*
X259477D01*
X258144Y459373D01*
X279470Y464704D02*
X278137Y466037D01*
X275472D01*
X274139Y464704D01*
Y463371D01*
X275472Y462038D01*
X278137D01*
X279470Y460705D01*
Y459373D01*
X278137Y458040D01*
X275472D01*
X274139Y459373D01*
X282136Y458040D02*
Y466037D01*
X286135D01*
X287468Y464704D01*
Y462038D01*
X286135Y460705D01*
X282136D01*
X295465Y466037D02*
X290134D01*
Y458040D01*
X295465D01*
X290134Y462038D02*
X292799D01*
X303463Y464704D02*
X302130Y466037D01*
X299464D01*
X298131Y464704D01*
Y459373D01*
X299464Y458040D01*
X302130D01*
X303463Y459373D01*
X306129Y466037D02*
X308794D01*
X307461D01*
Y458040D01*
X306129D01*
X308794D01*
X318125Y466037D02*
X312793D01*
Y462038D01*
X315459D01*
X312793D01*
Y458040D01*
X320790Y466037D02*
X323456D01*
X322123D01*
Y458040D01*
X320790D01*
X323456D01*
X332786Y466037D02*
X327455D01*
Y458040D01*
X332786D01*
X327455Y462038D02*
X330121D01*
X335452Y466037D02*
Y458040D01*
X339451D01*
X340784Y459373D01*
Y464704D01*
X339451Y466037D01*
X335452D01*
X355446D02*
X352780D01*
X351447Y464704D01*
Y459373D01*
X352780Y458040D01*
X355446D01*
X356779Y459373D01*
Y464704D01*
X355446Y466037D01*
X359444D02*
X364776D01*
X362110D01*
Y458040D01*
X367442Y466037D02*
Y458040D01*
Y462038D01*
X372774D01*
Y466037D01*
Y458040D01*
X380771Y466037D02*
X375439D01*
Y458040D01*
X380771D01*
X375439Y462038D02*
X378105D01*
X383437Y458040D02*
Y466037D01*
X387436D01*
X388768Y464704D01*
Y462038D01*
X387436Y460705D01*
X383437D01*
X386103D02*
X388768Y458040D01*
X391434Y466037D02*
Y458040D01*
X394100Y460705D01*
X396766Y458040D01*
Y466037D01*
X399432D02*
X402097D01*
X400765D01*
Y458040D01*
X399432D01*
X402097D01*
X411428Y464704D02*
X410095Y466037D01*
X407429D01*
X406096Y464704D01*
Y463371D01*
X407429Y462038D01*
X410095D01*
X411428Y460705D01*
Y459373D01*
X410095Y458040D01*
X407429D01*
X406096Y459373D01*
X419425Y466037D02*
X414093D01*
Y458040D01*
X419425D01*
X414093Y462038D02*
X416759D01*
X422091Y458040D02*
X424757Y460705D01*
Y463371D01*
X422091Y466037D01*
X173351Y428512D02*
X176016D01*
X174683D01*
Y436510D01*
X173351Y435177D01*
X180015Y428512D02*
Y429845D01*
X181348D01*
Y428512D01*
X180015D01*
X200009Y436510D02*
X194677D01*
Y432511D01*
X197343D01*
X194677D01*
Y428512D01*
X202674D02*
Y433844D01*
X205340Y436510D01*
X208006Y433844D01*
Y428512D01*
Y432511D01*
X202674D01*
X210672Y436510D02*
Y428512D01*
X214670D01*
X216003Y429845D01*
Y431178D01*
X214670Y432511D01*
X210672D01*
X214670D01*
X216003Y433844D01*
Y435177D01*
X214670Y436510D01*
X210672D01*
X218669Y428512D02*
Y436510D01*
X222668D01*
X224001Y435177D01*
Y432511D01*
X222668Y431178D01*
X218669D01*
X221335D02*
X224001Y428512D01*
X226667Y436510D02*
X229332D01*
X227999D01*
Y428512D01*
X226667D01*
X229332D01*
X238663Y435177D02*
X237330Y436510D01*
X234664D01*
X233331Y435177D01*
Y429845D01*
X234664Y428512D01*
X237330D01*
X238663Y429845D01*
X241329Y428512D02*
Y433844D01*
X243994Y436510D01*
X246660Y433844D01*
Y428512D01*
Y432511D01*
X241329D01*
X249326Y436510D02*
X254658D01*
X251992D01*
Y428512D01*
X262655Y436510D02*
X257323D01*
Y428512D01*
X262655D01*
X257323Y432511D02*
X259989D01*
X273318Y428512D02*
Y436510D01*
X277317D01*
X278650Y435177D01*
Y432511D01*
X277317Y431178D01*
X273318D01*
X286647Y435177D02*
X285314Y436510D01*
X282648D01*
X281315Y435177D01*
Y429845D01*
X282648Y428512D01*
X285314D01*
X286647Y429845D01*
X289313Y436510D02*
Y428512D01*
X293312D01*
X294645Y429845D01*
Y431178D01*
X293312Y432511D01*
X289313D01*
X293312D01*
X294645Y433844D01*
Y435177D01*
X293312Y436510D01*
X289313D01*
X305308D02*
X307974D01*
X306641D01*
Y428512D01*
X305308D01*
X307974D01*
X311972D02*
Y436510D01*
X317304Y428512D01*
Y436510D01*
X327967Y428512D02*
Y433844D01*
X330633Y436510D01*
X333299Y433844D01*
Y428512D01*
Y432511D01*
X327967D01*
X341296Y435177D02*
X339963Y436510D01*
X337297D01*
X335964Y435177D01*
Y429845D01*
X337297Y428512D01*
X339963D01*
X341296Y429845D01*
X349293Y435177D02*
X347961Y436510D01*
X345295D01*
X343962Y435177D01*
Y429845D01*
X345295Y428512D01*
X347961D01*
X349293Y429845D01*
X355958Y436510D02*
X353292D01*
X351959Y435177D01*
Y429845D01*
X353292Y428512D01*
X355958D01*
X357291Y429845D01*
Y435177D01*
X355958Y436510D01*
X359957Y428512D02*
Y436510D01*
X363955D01*
X365288Y435177D01*
Y432511D01*
X363955Y431178D01*
X359957D01*
X362623D02*
X365288Y428512D01*
X367954Y436510D02*
Y428512D01*
X371953D01*
X373286Y429845D01*
Y435177D01*
X371953Y436510D01*
X367954D01*
X375952Y428512D02*
Y433844D01*
X378617Y436510D01*
X381283Y433844D01*
Y428512D01*
Y432511D01*
X375952D01*
X383949Y428512D02*
Y436510D01*
X389281Y428512D01*
Y436510D01*
X397278Y435177D02*
X395945Y436510D01*
X393279D01*
X391946Y435177D01*
Y429845D01*
X393279Y428512D01*
X395945D01*
X397278Y429845D01*
X405275Y436510D02*
X399944D01*
Y428512D01*
X405275D01*
X399944Y432511D02*
X402610D01*
X415939Y436510D02*
Y428512D01*
X418604Y431178D01*
X421270Y428512D01*
Y436510D01*
X423936D02*
X426602D01*
X425269D01*
Y428512D01*
X423936D01*
X426602D01*
X430601Y436510D02*
X435932D01*
X433266D01*
Y428512D01*
X438598Y436510D02*
Y428512D01*
Y432511D01*
X443930D01*
Y436510D01*
Y428512D01*
X454593Y436510D02*
X457259D01*
X455926D01*
Y428512D01*
X454593D01*
X457259D01*
X461257D02*
Y436510D01*
X465256D01*
X466589Y435177D01*
Y432511D01*
X465256Y431178D01*
X461257D01*
X474586Y435177D02*
X473253Y436510D01*
X470588D01*
X469255Y435177D01*
Y429845D01*
X470588Y428512D01*
X473253D01*
X474586Y429845D01*
X477252Y432511D02*
X482584D01*
X485250Y428512D02*
Y433844D01*
X487915Y436510D01*
X490581Y433844D01*
Y428512D01*
Y432511D01*
X485250D01*
X493247D02*
X498579D01*
X506576Y436510D02*
X503910Y435177D01*
X501244Y432511D01*
Y429845D01*
X502577Y428512D01*
X505243D01*
X506576Y429845D01*
Y431178D01*
X505243Y432511D01*
X501244D01*
X509242Y435177D02*
X510575Y436510D01*
X513240D01*
X514573Y435177D01*
Y429845D01*
X513240Y428512D01*
X510575D01*
X509242Y429845D01*
Y435177D01*
X517239D02*
X518572Y436510D01*
X521238D01*
X522571Y435177D01*
Y429845D01*
X521238Y428512D01*
X518572D01*
X517239Y429845D01*
Y435177D01*
X538566D02*
X537233Y436510D01*
X534567D01*
X533234Y435177D01*
Y429845D01*
X534567Y428512D01*
X537233D01*
X538566Y429845D01*
X541231Y436510D02*
Y428512D01*
X546563D01*
X549229D02*
Y433844D01*
X551895Y436510D01*
X554560Y433844D01*
Y428512D01*
Y432511D01*
X549229D01*
X562558Y435177D02*
X561225Y436510D01*
X558559D01*
X557226Y435177D01*
Y433844D01*
X558559Y432511D01*
X561225D01*
X562558Y431178D01*
Y429845D01*
X561225Y428512D01*
X558559D01*
X557226Y429845D01*
X570555Y435177D02*
X569222Y436510D01*
X566557D01*
X565224Y435177D01*
Y433844D01*
X566557Y432511D01*
X569222D01*
X570555Y431178D01*
Y429845D01*
X569222Y428512D01*
X566557D01*
X565224Y429845D01*
X586550Y428512D02*
X581218D01*
X586550Y433844D01*
Y435177D01*
X585217Y436510D01*
X582551D01*
X581218Y435177D01*
X599879Y428512D02*
X597213Y431178D01*
Y433844D01*
X599879Y436510D01*
X603878D02*
Y428512D01*
X609209D01*
X611875D02*
Y433844D01*
X614541Y436510D01*
X617207Y433844D01*
Y428512D01*
Y432511D01*
X611875D01*
X619873Y436510D02*
X625204D01*
X622538D01*
Y428512D01*
X633202Y436510D02*
X627870D01*
Y428512D01*
X633202D01*
X627870Y432511D02*
X630536D01*
X641199Y435177D02*
X639866Y436510D01*
X637200D01*
X635867Y435177D01*
Y433844D01*
X637200Y432511D01*
X639866D01*
X641199Y431178D01*
Y429845D01*
X639866Y428512D01*
X637200D01*
X635867Y429845D01*
X643865Y436510D02*
X649196D01*
X646531D01*
Y428512D01*
X659860D02*
Y436510D01*
X663858D01*
X665191Y435177D01*
Y432511D01*
X663858Y431178D01*
X659860D01*
X662525D02*
X665191Y428512D01*
X673189Y436510D02*
X667857D01*
Y428512D01*
X673189D01*
X667857Y432511D02*
X670523D01*
X675854Y436510D02*
Y431178D01*
X678520Y428512D01*
X681186Y431178D01*
Y436510D01*
X683852D02*
X686518D01*
X685185D01*
Y428512D01*
X683852D01*
X686518D01*
X695848Y435177D02*
X694515Y436510D01*
X691849D01*
X690516Y435177D01*
Y433844D01*
X691849Y432511D01*
X694515D01*
X695848Y431178D01*
Y429845D01*
X694515Y428512D01*
X691849D01*
X690516Y429845D01*
X698514Y436510D02*
X701180D01*
X699847D01*
Y428512D01*
X698514D01*
X701180D01*
X709177Y436510D02*
X706511D01*
X705178Y435177D01*
Y429845D01*
X706511Y428512D01*
X709177D01*
X710510Y429845D01*
Y435177D01*
X709177Y436510D01*
X713176Y428512D02*
Y436510D01*
X718507Y428512D01*
Y436510D01*
X721173Y428512D02*
X723839Y431178D01*
Y433844D01*
X721173Y436510D01*
X178682Y398985D02*
X173351D01*
X178682Y404316D01*
Y405649D01*
X177349Y406982D01*
X174683D01*
X173351Y405649D01*
X181348Y398985D02*
Y400317D01*
X182681D01*
Y398985D01*
X181348D01*
X196010Y406982D02*
X201342D01*
X198676D01*
Y398985D01*
X204007Y406982D02*
Y398985D01*
Y402983D01*
X209339D01*
Y406982D01*
Y398985D01*
X217336Y406982D02*
X212005D01*
Y398985D01*
X217336D01*
X212005Y402983D02*
X214670D01*
X227999Y398985D02*
Y406982D01*
X231998D01*
X233331Y405649D01*
Y402983D01*
X231998Y401650D01*
X227999D01*
X241329Y405649D02*
X239996Y406982D01*
X237330D01*
X235997Y405649D01*
Y400317D01*
X237330Y398985D01*
X239996D01*
X241329Y400317D01*
X243994Y406982D02*
Y398985D01*
X247993D01*
X249326Y400317D01*
Y401650D01*
X247993Y402983D01*
X243994D01*
X247993D01*
X249326Y404316D01*
Y405649D01*
X247993Y406982D01*
X243994D01*
X259989Y398985D02*
Y406982D01*
X262655Y404316D01*
X265321Y406982D01*
Y398985D01*
X267986Y406982D02*
Y400317D01*
X269319Y398985D01*
X271985D01*
X273318Y400317D01*
Y406982D01*
X281315Y405649D02*
X279983Y406982D01*
X277317D01*
X275984Y405649D01*
Y404316D01*
X277317Y402983D01*
X279983D01*
X281315Y401650D01*
Y400317D01*
X279983Y398985D01*
X277317D01*
X275984Y400317D01*
X283981Y406982D02*
X289313D01*
X286647D01*
Y398985D01*
X299976Y406982D02*
Y398985D01*
X303975D01*
X305308Y400317D01*
Y401650D01*
X303975Y402983D01*
X299976D01*
X303975D01*
X305308Y404316D01*
Y405649D01*
X303975Y406982D01*
X299976D01*
X313305D02*
X307974D01*
Y398985D01*
X313305D01*
X307974Y402983D02*
X310639D01*
X323968Y406982D02*
Y398985D01*
X329300D01*
X337297Y406982D02*
X331966D01*
Y398985D01*
X337297D01*
X331966Y402983D02*
X334632D01*
X339963Y398985D02*
Y404316D01*
X342629Y406982D01*
X345295Y404316D01*
Y398985D01*
Y402983D01*
X339963D01*
X347961Y406982D02*
Y398985D01*
X351959D01*
X353292Y400317D01*
Y405649D01*
X351959Y406982D01*
X347961D01*
X369287D02*
X363955D01*
Y402983D01*
X366621D01*
X363955D01*
Y398985D01*
X371953D02*
Y406982D01*
X375952D01*
X377285Y405649D01*
Y402983D01*
X375952Y401650D01*
X371953D01*
X374619D02*
X377285Y398985D01*
X385282Y406982D02*
X379950D01*
Y398985D01*
X385282D01*
X379950Y402983D02*
X382616D01*
X393279Y406982D02*
X387948D01*
Y398985D01*
X393279D01*
X387948Y402983D02*
X390614D01*
X403942Y398985D02*
Y404316D01*
X406608Y406982D01*
X409274Y404316D01*
Y398985D01*
Y402983D01*
X403942D01*
X417272Y405649D02*
X415939Y406982D01*
X413273D01*
X411940Y405649D01*
Y404316D01*
X413273Y402983D01*
X415939D01*
X417272Y401650D01*
Y400317D01*
X415939Y398985D01*
X413273D01*
X411940Y400317D01*
X425269Y405649D02*
X423936Y406982D01*
X421270D01*
X419937Y405649D01*
Y404316D01*
X421270Y402983D01*
X423936D01*
X425269Y401650D01*
Y400317D01*
X423936Y398985D01*
X421270D01*
X419937Y400317D01*
X433266Y406982D02*
X427935D01*
Y398985D01*
X433266D01*
X427935Y402983D02*
X430601D01*
X435932Y398985D02*
Y406982D01*
X438598Y404316D01*
X441264Y406982D01*
Y398985D01*
X443930Y406982D02*
Y398985D01*
X447928D01*
X449261Y400317D01*
Y401650D01*
X447928Y402983D01*
X443930D01*
X447928D01*
X449261Y404316D01*
Y405649D01*
X447928Y406982D01*
X443930D01*
X451927D02*
Y398985D01*
X457259D01*
X459924Y406982D02*
Y405649D01*
X462590Y402983D01*
X465256Y405649D01*
Y406982D01*
X462590Y402983D02*
Y398985D01*
X475919D02*
Y406982D01*
X479918D01*
X481251Y405649D01*
Y402983D01*
X479918Y401650D01*
X475919D01*
X483917Y398985D02*
Y406982D01*
X487915D01*
X489248Y405649D01*
Y402983D01*
X487915Y401650D01*
X483917D01*
X486582D02*
X489248Y398985D01*
X495913Y406982D02*
X493247D01*
X491914Y405649D01*
Y400317D01*
X493247Y398985D01*
X495913D01*
X497246Y400317D01*
Y405649D01*
X495913Y406982D01*
X505243Y405649D02*
X503910Y406982D01*
X501244D01*
X499911Y405649D01*
Y400317D01*
X501244Y398985D01*
X503910D01*
X505243Y400317D01*
X513240Y406982D02*
X507909D01*
Y398985D01*
X513240D01*
X507909Y402983D02*
X510575D01*
X521238Y405649D02*
X519905Y406982D01*
X517239D01*
X515906Y405649D01*
Y404316D01*
X517239Y402983D01*
X519905D01*
X521238Y401650D01*
Y400317D01*
X519905Y398985D01*
X517239D01*
X515906Y400317D01*
X529235Y405649D02*
X527902Y406982D01*
X525237D01*
X523904Y405649D01*
Y404316D01*
X525237Y402983D01*
X527902D01*
X529235Y401650D01*
Y400317D01*
X527902Y398985D01*
X525237D01*
X523904Y400317D01*
X545230Y405649D02*
X543897Y406982D01*
X541231D01*
X539898Y405649D01*
Y400317D01*
X541231Y398985D01*
X543897D01*
X545230Y400317D01*
X551895Y406982D02*
X549229D01*
X547896Y405649D01*
Y400317D01*
X549229Y398985D01*
X551895D01*
X553228Y400317D01*
Y405649D01*
X551895Y406982D01*
X555893Y398985D02*
Y406982D01*
X558559Y404316D01*
X561225Y406982D01*
Y398985D01*
X563891D02*
Y406982D01*
X567889D01*
X569222Y405649D01*
Y402983D01*
X567889Y401650D01*
X563891D01*
X571888Y398985D02*
Y404316D01*
X574554Y406982D01*
X577220Y404316D01*
Y398985D01*
Y402983D01*
X571888D01*
X579885Y406982D02*
X585217D01*
X582551D01*
Y398985D01*
X587883Y406982D02*
X590549D01*
X589216D01*
Y398985D01*
X587883D01*
X590549D01*
X594547Y406982D02*
Y398985D01*
X598546D01*
X599879Y400317D01*
Y401650D01*
X598546Y402983D01*
X594547D01*
X598546D01*
X599879Y404316D01*
Y405649D01*
X598546Y406982D01*
X594547D01*
X602545D02*
Y398985D01*
X607876D01*
X615874Y406982D02*
X610542D01*
Y398985D01*
X615874D01*
X610542Y402983D02*
X613208D01*
X618540Y398985D02*
Y400317D01*
X619873D01*
Y398985D01*
X618540D01*
X173351Y366279D02*
X174683Y367612D01*
X177349D01*
X178682Y366279D01*
Y364946D01*
X177349Y363613D01*
X176016D01*
X177349D01*
X178682Y362280D01*
Y360947D01*
X177349Y359614D01*
X174683D01*
X173351Y360947D01*
X181348Y359614D02*
Y360947D01*
X182681D01*
Y359614D01*
X181348D01*
X196010Y367612D02*
Y359614D01*
X201342D01*
X204007D02*
Y364946D01*
X206673Y367612D01*
X209339Y364946D01*
Y359614D01*
Y363613D01*
X204007D01*
X212005Y359614D02*
Y367612D01*
X214670Y364946D01*
X217336Y367612D01*
Y359614D01*
X220002Y367612D02*
X222668D01*
X221335D01*
Y359614D01*
X220002D01*
X222668D01*
X226667D02*
Y367612D01*
X231998Y359614D01*
Y367612D01*
X234664Y359614D02*
Y364946D01*
X237330Y367612D01*
X239996Y364946D01*
Y359614D01*
Y363613D01*
X234664D01*
X242661Y367612D02*
X247993D01*
X245327D01*
Y359614D01*
X255990Y367612D02*
X250659D01*
Y359614D01*
X255990D01*
X250659Y363613D02*
X253325D01*
X266654Y359614D02*
Y364946D01*
X269319Y367612D01*
X271985Y364946D01*
Y359614D01*
Y363613D01*
X266654D01*
X274651Y359614D02*
Y367612D01*
X279983Y359614D01*
Y367612D01*
X282648D02*
Y359614D01*
X286647D01*
X287980Y360947D01*
Y366279D01*
X286647Y367612D01*
X282648D01*
X298643Y359614D02*
Y367612D01*
X302642D01*
X303975Y366279D01*
Y363613D01*
X302642Y362280D01*
X298643D01*
X306641Y359614D02*
Y367612D01*
X310639D01*
X311972Y366279D01*
Y363613D01*
X310639Y362280D01*
X306641D01*
X309307D02*
X311972Y359614D01*
X319970Y367612D02*
X314638D01*
Y359614D01*
X319970D01*
X314638Y363613D02*
X317304D01*
X322636Y359614D02*
Y367612D01*
X326634D01*
X327967Y366279D01*
Y363613D01*
X326634Y362280D01*
X322636D01*
X330633Y359614D02*
Y367612D01*
X334632D01*
X335964Y366279D01*
Y363613D01*
X334632Y362280D01*
X330633D01*
X333299D02*
X335964Y359614D01*
X343962Y367612D02*
X338630D01*
Y359614D01*
X343962D01*
X338630Y363613D02*
X341296D01*
X351959Y366279D02*
X350626Y367612D01*
X347961D01*
X346628Y366279D01*
Y360947D01*
X347961Y359614D01*
X350626D01*
X351959Y360947D01*
Y363613D01*
X349293D01*
X362623Y367612D02*
X367954D01*
X365288D01*
Y359614D01*
X374619Y367612D02*
X371953D01*
X370620Y366279D01*
Y360947D01*
X371953Y359614D01*
X374619D01*
X375952Y360947D01*
Y366279D01*
X374619Y367612D01*
X386615D02*
Y359614D01*
X390614D01*
X391946Y360947D01*
Y362280D01*
X390614Y363613D01*
X386615D01*
X390614D01*
X391946Y364946D01*
Y366279D01*
X390614Y367612D01*
X386615D01*
X399944D02*
X394612D01*
Y359614D01*
X399944D01*
X394612Y363613D02*
X397278D01*
X415939Y367612D02*
X410607D01*
Y363613D01*
X413273D01*
X410607D01*
Y359614D01*
X418604D02*
Y367612D01*
X422603D01*
X423936Y366279D01*
Y363613D01*
X422603Y362280D01*
X418604D01*
X421270D02*
X423936Y359614D01*
X430601D02*
Y367612D01*
X426602Y363613D01*
X431933D01*
X442597Y367612D02*
X447928D01*
X445262D01*
Y359614D01*
X455926Y366279D02*
X454593Y367612D01*
X451927D01*
X450594Y366279D01*
Y360947D01*
X451927Y359614D01*
X454593D01*
X455926Y360947D01*
Y363613D01*
X453260D01*
X458592Y359614D02*
X461257D01*
X459924D01*
Y367612D01*
X458592Y366279D01*
X465256Y367612D02*
X470588D01*
Y366279D01*
X465256Y360947D01*
Y359614D01*
X473253Y366279D02*
X474586Y367612D01*
X477252D01*
X478585Y366279D01*
Y360947D01*
X477252Y359614D01*
X474586D01*
X473253Y360947D01*
Y366279D01*
X177349Y330087D02*
Y338084D01*
X173351Y334086D01*
X178682D01*
X181348Y330087D02*
Y331420D01*
X182681D01*
Y330087D01*
X181348D01*
X196010D02*
Y338084D01*
X200009D01*
X201342Y336751D01*
Y334086D01*
X200009Y332753D01*
X196010D01*
X204007Y338084D02*
Y330087D01*
X209339D01*
X212005D02*
Y335419D01*
X214670Y338084D01*
X217336Y335419D01*
Y330087D01*
Y334086D01*
X212005D01*
X220002Y338084D02*
X225334D01*
X222668D01*
Y330087D01*
X227999Y338084D02*
X230665D01*
X229332D01*
Y330087D01*
X227999D01*
X230665D01*
X234664D02*
Y338084D01*
X239996Y330087D01*
Y338084D01*
X247993Y336751D02*
X246660Y338084D01*
X243994D01*
X242661Y336751D01*
Y331420D01*
X243994Y330087D01*
X246660D01*
X247993Y331420D01*
Y334086D01*
X245327D01*
X263988Y338084D02*
X258656D01*
Y334086D01*
X261322D01*
X258656D01*
Y330087D01*
X266654Y338084D02*
X269319D01*
X267986D01*
Y330087D01*
X266654D01*
X269319D01*
X273318D02*
Y338084D01*
X278650Y330087D01*
Y338084D01*
X281315D02*
X283981D01*
X282648D01*
Y330087D01*
X281315D01*
X283981D01*
X293312Y336751D02*
X291979Y338084D01*
X289313D01*
X287980Y336751D01*
Y335419D01*
X289313Y334086D01*
X291979D01*
X293312Y332753D01*
Y331420D01*
X291979Y330087D01*
X289313D01*
X287980Y331420D01*
X295977Y338084D02*
Y330087D01*
Y334086D01*
X301309D01*
Y338084D01*
Y330087D01*
X311972Y334086D02*
X317304D01*
X327967Y338084D02*
Y330087D01*
X331966D01*
X333299Y331420D01*
Y332753D01*
X331966Y334086D01*
X327967D01*
X331966D01*
X333299Y335419D01*
Y336751D01*
X331966Y338084D01*
X327967D01*
X339963D02*
X337297D01*
X335964Y336751D01*
Y331420D01*
X337297Y330087D01*
X339963D01*
X341296Y331420D01*
Y336751D01*
X339963Y338084D01*
X343962D02*
X349293D01*
X346628D01*
Y330087D01*
X351959Y338084D02*
Y330087D01*
Y334086D01*
X357291D01*
Y338084D01*
Y330087D01*
X373286Y336751D02*
X371953Y338084D01*
X369287D01*
X367954Y336751D01*
Y335419D01*
X369287Y334086D01*
X371953D01*
X373286Y332753D01*
Y331420D01*
X371953Y330087D01*
X369287D01*
X367954Y331420D01*
X375952Y338084D02*
X378617D01*
X377285D01*
Y330087D01*
X375952D01*
X378617D01*
X382616Y338084D02*
Y330087D01*
X386615D01*
X387948Y331420D01*
Y336751D01*
X386615Y338084D01*
X382616D01*
X395945D02*
X390614D01*
Y330087D01*
X395945D01*
X390614Y334086D02*
X393279D01*
X403942Y336751D02*
X402610Y338084D01*
X399944D01*
X398611Y336751D01*
Y335419D01*
X399944Y334086D01*
X402610D01*
X403942Y332753D01*
Y331420D01*
X402610Y330087D01*
X399944D01*
X398611Y331420D01*
X419937Y338084D02*
X414606D01*
Y330087D01*
X419937D01*
X414606Y334086D02*
X417272D01*
X422603Y330087D02*
Y338084D01*
X427935Y330087D01*
Y338084D01*
X430601D02*
X433266D01*
X431933D01*
Y330087D01*
X430601D01*
X433266D01*
X442597Y336751D02*
X441264Y338084D01*
X438598D01*
X437265Y336751D01*
Y331420D01*
X438598Y330087D01*
X441264D01*
X442597Y331420D01*
Y334086D01*
X439931D01*
X458592Y336751D02*
X457259Y338084D01*
X454593D01*
X453260Y336751D01*
Y331420D01*
X454593Y330087D01*
X457259D01*
X458592Y331420D01*
Y334086D01*
X455926D01*
X465256Y338084D02*
X462590D01*
X461257Y336751D01*
Y331420D01*
X462590Y330087D01*
X465256D01*
X466589Y331420D01*
Y336751D01*
X465256Y338084D01*
X469255D02*
Y330087D01*
X474586D01*
X477252Y338084D02*
Y330087D01*
X481251D01*
X482584Y331420D01*
Y336751D01*
X481251Y338084D01*
X477252D01*
X493247Y330087D02*
Y338084D01*
X497246D01*
X498579Y336751D01*
Y334086D01*
X497246Y332753D01*
X493247D01*
X501244Y338084D02*
Y330087D01*
X506576D01*
X509242D02*
Y335419D01*
X511907Y338084D01*
X514573Y335419D01*
Y330087D01*
Y334086D01*
X509242D01*
X517239Y338084D02*
X522571D01*
X519905D01*
Y330087D01*
X530568Y338084D02*
X525237D01*
Y330087D01*
X530568D01*
X525237Y334086D02*
X527902D01*
X533234Y338084D02*
Y330087D01*
X537233D01*
X538566Y331420D01*
Y336751D01*
X537233Y338084D01*
X533234D01*
X178682Y308557D02*
X173351D01*
Y304558D01*
X176016Y305891D01*
X177349D01*
X178682Y304558D01*
Y301892D01*
X177349Y300559D01*
X174683D01*
X173351Y301892D01*
X181348Y300559D02*
Y301892D01*
X182681D01*
Y300559D01*
X181348D01*
X201342Y307224D02*
X200009Y308557D01*
X197343D01*
X196010Y307224D01*
Y305891D01*
X197343Y304558D01*
X200009D01*
X201342Y303225D01*
Y301892D01*
X200009Y300559D01*
X197343D01*
X196010Y301892D01*
X208006Y308557D02*
X205340D01*
X204007Y307224D01*
Y301892D01*
X205340Y300559D01*
X208006D01*
X209339Y301892D01*
Y307224D01*
X208006Y308557D01*
X212005D02*
Y300559D01*
X217336D01*
X220002Y308557D02*
Y300559D01*
X224001D01*
X225334Y301892D01*
Y307224D01*
X224001Y308557D01*
X220002D01*
X233331D02*
X227999D01*
Y300559D01*
X233331D01*
X227999Y304558D02*
X230665D01*
X235997Y300559D02*
Y308557D01*
X239996D01*
X241329Y307224D01*
Y304558D01*
X239996Y303225D01*
X235997D01*
X238663D02*
X241329Y300559D01*
X243994D02*
Y308557D01*
X246660Y305891D01*
X249326Y308557D01*
Y300559D01*
X251992D02*
Y305891D01*
X254658Y308557D01*
X257323Y305891D01*
Y300559D01*
Y304558D01*
X251992D01*
X265321Y307224D02*
X263988Y308557D01*
X261322D01*
X259989Y307224D01*
Y305891D01*
X261322Y304558D01*
X263988D01*
X265321Y303225D01*
Y301892D01*
X263988Y300559D01*
X261322D01*
X259989Y301892D01*
X267986Y308557D02*
Y300559D01*
Y303225D01*
X273318Y308557D01*
X269319Y304558D01*
X273318Y300559D01*
X283981Y304558D02*
X289313D01*
X299976Y308557D02*
Y300559D01*
X303975D01*
X305308Y301892D01*
Y303225D01*
X303975Y304558D01*
X299976D01*
X303975D01*
X305308Y305891D01*
Y307224D01*
X303975Y308557D01*
X299976D01*
X311972D02*
X309307D01*
X307974Y307224D01*
Y301892D01*
X309307Y300559D01*
X311972D01*
X313305Y301892D01*
Y307224D01*
X311972Y308557D01*
X315971D02*
X321303D01*
X318637D01*
Y300559D01*
X323968Y308557D02*
Y300559D01*
Y304558D01*
X329300D01*
Y308557D01*
Y300559D01*
X345295Y307224D02*
X343962Y308557D01*
X341296D01*
X339963Y307224D01*
Y305891D01*
X341296Y304558D01*
X343962D01*
X345295Y303225D01*
Y301892D01*
X343962Y300559D01*
X341296D01*
X339963Y301892D01*
X347961Y308557D02*
X350626D01*
X349293D01*
Y300559D01*
X347961D01*
X350626D01*
X354625Y308557D02*
Y300559D01*
X358624D01*
X359957Y301892D01*
Y307224D01*
X358624Y308557D01*
X354625D01*
X367954D02*
X362623D01*
Y300559D01*
X367954D01*
X362623Y304558D02*
X365288D01*
X375952Y307224D02*
X374619Y308557D01*
X371953D01*
X370620Y307224D01*
Y305891D01*
X371953Y304558D01*
X374619D01*
X375952Y303225D01*
Y301892D01*
X374619Y300559D01*
X371953D01*
X370620Y301892D01*
X391946Y307224D02*
X390614Y308557D01*
X387948D01*
X386615Y307224D01*
Y301892D01*
X387948Y300559D01*
X390614D01*
X391946Y301892D01*
Y304558D01*
X389281D01*
X394612Y300559D02*
Y308557D01*
X398611D01*
X399944Y307224D01*
Y304558D01*
X398611Y303225D01*
X394612D01*
X397278D02*
X399944Y300559D01*
X407941Y308557D02*
X402610D01*
Y300559D01*
X407941D01*
X402610Y304558D02*
X405275D01*
X415939Y308557D02*
X410607D01*
Y300559D01*
X415939D01*
X410607Y304558D02*
X413273D01*
X418604Y300559D02*
Y308557D01*
X423936Y300559D01*
Y308557D01*
X173351Y219586D02*
X174683Y220919D01*
X177349D01*
X178682Y219586D01*
Y218253D01*
X177349Y216920D01*
X178682Y215587D01*
Y214254D01*
X177349Y212922D01*
X174683D01*
X173351Y214254D01*
Y215587D01*
X174683Y216920D01*
X173351Y218253D01*
Y219586D01*
X174683Y216920D02*
X177349D01*
X181348Y212922D02*
Y214254D01*
X182681D01*
Y212922D01*
X181348D01*
X201342Y219586D02*
X200009Y220919D01*
X197343D01*
X196010Y219586D01*
Y218253D01*
X197343Y216920D01*
X200009D01*
X201342Y215587D01*
Y214254D01*
X200009Y212922D01*
X197343D01*
X196010Y214254D01*
X204007Y220919D02*
X206673D01*
X205340D01*
Y212922D01*
X204007D01*
X206673D01*
X210672Y220919D02*
Y212922D01*
X216003D01*
X218669Y220919D02*
Y212922D01*
Y215587D01*
X224001Y220919D01*
X220002Y216920D01*
X224001Y212922D01*
X231998Y219586D02*
X230665Y220919D01*
X227999D01*
X226667Y219586D01*
Y218253D01*
X227999Y216920D01*
X230665D01*
X231998Y215587D01*
Y214254D01*
X230665Y212922D01*
X227999D01*
X226667Y214254D01*
X239996Y219586D02*
X238663Y220919D01*
X235997D01*
X234664Y219586D01*
Y214254D01*
X235997Y212922D01*
X238663D01*
X239996Y214254D01*
X242661Y212922D02*
Y220919D01*
X246660D01*
X247993Y219586D01*
Y216920D01*
X246660Y215587D01*
X242661D01*
X245327D02*
X247993Y212922D01*
X255990Y220919D02*
X250659D01*
Y212922D01*
X255990D01*
X250659Y216920D02*
X253325D01*
X263988Y220919D02*
X258656D01*
Y212922D01*
X263988D01*
X258656Y216920D02*
X261322D01*
X266654Y212922D02*
Y220919D01*
X271985Y212922D01*
Y220919D01*
X282648Y216920D02*
X287980D01*
X298643Y220919D02*
Y212922D01*
X301309Y215587D01*
X303975Y212922D01*
Y220919D01*
X306641D02*
Y212922D01*
Y216920D01*
X311972D01*
Y220919D01*
Y212922D01*
X314638Y220919D02*
X317304D01*
X315971D01*
Y212922D01*
X314638D01*
X317304D01*
X321303Y220919D02*
X326634D01*
X323968D01*
Y212922D01*
X334632Y220919D02*
X329300D01*
Y212922D01*
X334632D01*
X329300Y216920D02*
X331966D01*
X350626Y220919D02*
X345295D01*
Y212922D01*
X350626D01*
X345295Y216920D02*
X347961D01*
X353292Y212922D02*
Y220919D01*
X357291D01*
X358624Y219586D01*
Y216920D01*
X357291Y215587D01*
X353292D01*
X365288Y220919D02*
X362623D01*
X361290Y219586D01*
Y214254D01*
X362623Y212922D01*
X365288D01*
X366621Y214254D01*
Y219586D01*
X365288Y220919D01*
X369287D02*
X374619Y212922D01*
Y220919D02*
X369287Y212922D01*
X377285Y220919D02*
Y219586D01*
X379950Y216920D01*
X382616Y219586D01*
Y220919D01*
X379950Y216920D02*
Y212922D01*
X393279Y220919D02*
X395945D01*
X394612D01*
Y212922D01*
X393279D01*
X395945D01*
X399944D02*
Y220919D01*
X405275Y212922D01*
Y220919D01*
X407941D02*
Y212922D01*
Y215587D01*
X413273Y220919D01*
X409274Y216920D01*
X413273Y212922D01*
X417272Y211589D02*
X418604Y212922D01*
Y214254D01*
X417272D01*
Y212922D01*
X418604D01*
X417272Y211589D01*
X415939Y210256D01*
X431933Y220919D02*
Y212922D01*
X435932D01*
X437265Y214254D01*
Y215587D01*
X435932Y216920D01*
X431933D01*
X435932D01*
X437265Y218253D01*
Y219586D01*
X435932Y220919D01*
X431933D01*
X443930D02*
X441264D01*
X439931Y219586D01*
Y214254D01*
X441264Y212922D01*
X443930D01*
X445262Y214254D01*
Y219586D01*
X443930Y220919D01*
X447928D02*
X453260D01*
X450594D01*
Y212922D01*
X455926Y220919D02*
Y212922D01*
Y216920D01*
X461257D01*
Y220919D01*
Y212922D01*
X477252Y219586D02*
X475919Y220919D01*
X473253D01*
X471920Y219586D01*
Y218253D01*
X473253Y216920D01*
X475919D01*
X477252Y215587D01*
Y214254D01*
X475919Y212922D01*
X473253D01*
X471920Y214254D01*
X479918Y220919D02*
X482584D01*
X481251D01*
Y212922D01*
X479918D01*
X482584D01*
X486582Y220919D02*
Y212922D01*
X490581D01*
X491914Y214254D01*
Y219586D01*
X490581Y220919D01*
X486582D01*
X499911D02*
X494580D01*
Y212922D01*
X499911D01*
X494580Y216920D02*
X497246D01*
X507909Y219586D02*
X506576Y220919D01*
X503910D01*
X502577Y219586D01*
Y218253D01*
X503910Y216920D01*
X506576D01*
X507909Y215587D01*
Y214254D01*
X506576Y212922D01*
X503910D01*
X502577Y214254D01*
X510575Y212922D02*
Y214254D01*
X511907D01*
Y212922D01*
X510575D01*
X525237D02*
Y220919D01*
X530568Y212922D01*
Y220919D01*
X537233D02*
X534567D01*
X533234Y219586D01*
Y214254D01*
X534567Y212922D01*
X537233D01*
X538566Y214254D01*
Y219586D01*
X537233Y220919D01*
X554560Y219586D02*
X553228Y220919D01*
X550562D01*
X549229Y219586D01*
Y218253D01*
X550562Y216920D01*
X553228D01*
X554560Y215587D01*
Y214254D01*
X553228Y212922D01*
X550562D01*
X549229Y214254D01*
X557226Y220919D02*
X559892D01*
X558559D01*
Y212922D01*
X557226D01*
X559892D01*
X563891Y220919D02*
Y212922D01*
X569222D01*
X571888Y220919D02*
Y212922D01*
Y215587D01*
X577220Y220919D01*
X573221Y216920D01*
X577220Y212922D01*
X591882Y220919D02*
X589216D01*
X587883Y219586D01*
Y214254D01*
X589216Y212922D01*
X591882D01*
X593215Y214254D01*
Y219586D01*
X591882Y220919D01*
X595880Y212922D02*
Y220919D01*
X601212Y212922D01*
Y220919D01*
X611875Y212922D02*
Y220919D01*
X615874D01*
X617207Y219586D01*
Y216920D01*
X615874Y215587D01*
X611875D01*
X619873Y212922D02*
Y218253D01*
X622538Y220919D01*
X625204Y218253D01*
Y212922D01*
Y216920D01*
X619873D01*
X627870Y220919D02*
Y212922D01*
X631869D01*
X633202Y214254D01*
Y219586D01*
X631869Y220919D01*
X627870D01*
X641199Y219586D02*
X639866Y220919D01*
X637200D01*
X635867Y219586D01*
Y218253D01*
X637200Y216920D01*
X639866D01*
X641199Y215587D01*
Y214254D01*
X639866Y212922D01*
X637200D01*
X635867Y214254D01*
X178682Y279029D02*
X176016Y277696D01*
X173351Y275030D01*
Y272365D01*
X174683Y271032D01*
X177349D01*
X178682Y272365D01*
Y273697D01*
X177349Y275030D01*
X173351D01*
X181348Y271032D02*
Y272365D01*
X182681D01*
Y271032D01*
X181348D01*
X201342Y277696D02*
X200009Y279029D01*
X197343D01*
X196010Y277696D01*
Y276363D01*
X197343Y275030D01*
X200009D01*
X201342Y273697D01*
Y272365D01*
X200009Y271032D01*
X197343D01*
X196010Y272365D01*
X208006Y279029D02*
X205340D01*
X204007Y277696D01*
Y272365D01*
X205340Y271032D01*
X208006D01*
X209339Y272365D01*
Y277696D01*
X208006Y279029D01*
X212005D02*
Y271032D01*
X217336D01*
X220002Y279029D02*
Y271032D01*
X224001D01*
X225334Y272365D01*
Y277696D01*
X224001Y279029D01*
X220002D01*
X233331D02*
X227999D01*
Y271032D01*
X233331D01*
X227999Y275030D02*
X230665D01*
X235997Y271032D02*
Y279029D01*
X239996D01*
X241329Y277696D01*
Y275030D01*
X239996Y273697D01*
X235997D01*
X238663D02*
X241329Y271032D01*
X257323Y277696D02*
X255990Y279029D01*
X253325D01*
X251992Y277696D01*
Y276363D01*
X253325Y275030D01*
X255990D01*
X257323Y273697D01*
Y272365D01*
X255990Y271032D01*
X253325D01*
X251992Y272365D01*
X259989Y271032D02*
Y276363D01*
X262655Y279029D01*
X265321Y276363D01*
Y271032D01*
Y275030D01*
X259989D01*
X267986Y271032D02*
Y279029D01*
X270652Y276363D01*
X273318Y279029D01*
Y271032D01*
X275984D02*
Y279029D01*
X279983D01*
X281315Y277696D01*
Y275030D01*
X279983Y273697D01*
X275984D01*
X283981Y279029D02*
Y271032D01*
X289313D01*
X297310Y279029D02*
X291979D01*
Y271032D01*
X297310D01*
X291979Y275030D02*
X294645D01*
X305308Y277696D02*
X303975Y279029D01*
X301309D01*
X299976Y277696D01*
Y276363D01*
X301309Y275030D01*
X303975D01*
X305308Y273697D01*
Y272365D01*
X303975Y271032D01*
X301309D01*
X299976Y272365D01*
X315971Y279029D02*
X321303D01*
X318637D01*
Y271032D01*
X327967Y279029D02*
X325301D01*
X323968Y277696D01*
Y272365D01*
X325301Y271032D01*
X327967D01*
X329300Y272365D01*
Y277696D01*
X327967Y279029D01*
X339963D02*
Y271032D01*
X343962D01*
X345295Y272365D01*
Y273697D01*
X343962Y275030D01*
X339963D01*
X343962D01*
X345295Y276363D01*
Y277696D01*
X343962Y279029D01*
X339963D01*
X353292D02*
X347961D01*
Y271032D01*
X353292D01*
X347961Y275030D02*
X350626D01*
X363955Y271032D02*
Y279029D01*
X367954D01*
X369287Y277696D01*
Y275030D01*
X367954Y273697D01*
X363955D01*
X371953Y271032D02*
Y279029D01*
X375952D01*
X377285Y277696D01*
Y275030D01*
X375952Y273697D01*
X371953D01*
X374619D02*
X377285Y271032D01*
X383949Y279029D02*
X381283D01*
X379950Y277696D01*
Y272365D01*
X381283Y271032D01*
X383949D01*
X385282Y272365D01*
Y277696D01*
X383949Y279029D01*
X387948D02*
Y273697D01*
X390614Y271032D01*
X393279Y273697D01*
Y279029D01*
X395945D02*
X398611D01*
X397278D01*
Y271032D01*
X395945D01*
X398611D01*
X402610Y279029D02*
Y271032D01*
X406608D01*
X407941Y272365D01*
Y277696D01*
X406608Y279029D01*
X402610D01*
X415939D02*
X410607D01*
Y271032D01*
X415939D01*
X410607Y275030D02*
X413273D01*
X418604Y279029D02*
Y271032D01*
X422603D01*
X423936Y272365D01*
Y277696D01*
X422603Y279029D01*
X418604D01*
X193035Y163709D02*
Y169041D01*
X195701Y171706D01*
X198367Y169041D01*
Y163709D01*
Y167708D01*
X193035D01*
X201033Y171706D02*
Y163709D01*
X205032D01*
X206365Y165042D01*
Y170373D01*
X205032Y171706D01*
X201033D01*
X209030D02*
Y163709D01*
X213029D01*
X214362Y165042D01*
Y170373D01*
X213029Y171706D01*
X209030D01*
X225025Y163709D02*
Y171706D01*
X229024D01*
X230357Y170373D01*
Y167708D01*
X229024Y166375D01*
X225025D01*
X227691D02*
X230357Y163709D01*
X237021Y171706D02*
X234355D01*
X233023Y170373D01*
Y165042D01*
X234355Y163709D01*
X237021D01*
X238354Y165042D01*
Y170373D01*
X237021Y171706D01*
X241020D02*
Y163709D01*
Y167708D01*
X246352D01*
Y171706D01*
Y163709D01*
X254349Y170373D02*
X253016Y171706D01*
X250350D01*
X249017Y170373D01*
Y169041D01*
X250350Y167708D01*
X253016D01*
X254349Y166375D01*
Y165042D01*
X253016Y163709D01*
X250350D01*
X249017Y165042D01*
X265012Y171706D02*
Y163709D01*
X270344D01*
X277008Y171706D02*
X274342D01*
X273010Y170373D01*
Y165042D01*
X274342Y163709D01*
X277008D01*
X278341Y165042D01*
Y170373D01*
X277008Y171706D01*
X286339Y170373D02*
X285006Y171706D01*
X282340D01*
X281007Y170373D01*
Y165042D01*
X282340Y163709D01*
X285006D01*
X286339Y165042D01*
Y167708D01*
X283673D01*
X293003Y171706D02*
X290337D01*
X289004Y170373D01*
Y165042D01*
X290337Y163709D01*
X293003D01*
X294336Y165042D01*
Y170373D01*
X293003Y171706D01*
X173351Y249502D02*
X178682D01*
Y248169D01*
X173351Y242837D01*
Y241504D01*
X181348D02*
Y242837D01*
X182681D01*
Y241504D01*
X181348D01*
X201342Y248169D02*
X200009Y249502D01*
X197343D01*
X196010Y248169D01*
Y246836D01*
X197343Y245503D01*
X200009D01*
X201342Y244170D01*
Y242837D01*
X200009Y241504D01*
X197343D01*
X196010Y242837D01*
X204007Y249502D02*
Y241504D01*
Y245503D01*
X205340Y246836D01*
X208006D01*
X209339Y245503D01*
Y241504D01*
X212005D02*
X214670D01*
X213338D01*
Y246836D01*
X212005D01*
X218669Y238838D02*
Y246836D01*
X222668D01*
X224001Y245503D01*
Y242837D01*
X222668Y241504D01*
X218669D01*
X235997Y246836D02*
X238663D01*
X239996Y245503D01*
Y241504D01*
X235997D01*
X234664Y242837D01*
X235997Y244170D01*
X239996D01*
X242661Y241504D02*
X246660D01*
X247993Y242837D01*
X246660Y244170D01*
X243994D01*
X242661Y245503D01*
X243994Y246836D01*
X247993D01*
X263988Y249502D02*
Y241504D01*
X259989D01*
X258656Y242837D01*
Y245503D01*
X259989Y246836D01*
X263988D01*
X270652Y241504D02*
X267986D01*
X266654Y242837D01*
Y245503D01*
X267986Y246836D01*
X270652D01*
X271985Y245503D01*
Y244170D01*
X266654D01*
X274651Y238838D02*
Y246836D01*
X278650D01*
X279983Y245503D01*
Y242837D01*
X278650Y241504D01*
X274651D01*
X283981Y246836D02*
X286647D01*
X287980Y245503D01*
Y241504D01*
X283981D01*
X282648Y242837D01*
X283981Y244170D01*
X287980D01*
X290646Y241504D02*
Y246836D01*
X294645D01*
X295977Y245503D01*
Y241504D01*
X302642D02*
X299976D01*
X298643Y242837D01*
Y245503D01*
X299976Y246836D01*
X302642D01*
X303975Y245503D01*
Y244170D01*
X298643D01*
X306641Y241504D02*
X309307D01*
X307974D01*
Y249502D01*
X306641D01*
X313305Y241504D02*
X315971D01*
X314638D01*
Y246836D01*
X313305D01*
X319970D02*
X325301D01*
X319970Y241504D01*
X325301D01*
X331966D02*
X329300D01*
X327967Y242837D01*
Y245503D01*
X329300Y246836D01*
X331966D01*
X333299Y245503D01*
Y244170D01*
X327967D01*
X341296Y249502D02*
Y241504D01*
X337297D01*
X335964Y242837D01*
Y245503D01*
X337297Y246836D01*
X341296D01*
X351959Y241504D02*
X354625D01*
X353292D01*
Y246836D01*
X351959D01*
X358624Y241504D02*
Y246836D01*
X362623D01*
X363955Y245503D01*
Y241504D01*
X371953Y249502D02*
Y241504D01*
X367954D01*
X366621Y242837D01*
Y245503D01*
X367954Y246836D01*
X371953D01*
X374619Y241504D02*
X377285D01*
X375952D01*
Y246836D01*
X374619D01*
X381283D02*
X383949Y241504D01*
X386615Y246836D01*
X389281Y241504D02*
X391946D01*
X390614D01*
Y246836D01*
X389281D01*
X401277Y249502D02*
Y241504D01*
X397278D01*
X395945Y242837D01*
Y245503D01*
X397278Y246836D01*
X401277D01*
X403942D02*
Y242837D01*
X405275Y241504D01*
X409274D01*
Y246836D01*
X413273D02*
X415939D01*
X417272Y245503D01*
Y241504D01*
X413273D01*
X411940Y242837D01*
X413273Y244170D01*
X417272D01*
X419937Y241504D02*
X422603D01*
X421270D01*
Y249502D01*
X419937D01*
X434599Y241504D02*
Y249502D01*
X438598D01*
X439931Y248169D01*
Y245503D01*
X438598Y244170D01*
X434599D01*
X447928Y248169D02*
X446595Y249502D01*
X443930D01*
X442597Y248169D01*
Y242837D01*
X443930Y241504D01*
X446595D01*
X447928Y242837D01*
X450594Y249502D02*
Y241504D01*
X454593D01*
X455926Y242837D01*
Y244170D01*
X454593Y245503D01*
X450594D01*
X454593D01*
X455926Y246836D01*
Y248169D01*
X454593Y249502D01*
X450594D01*
X458592Y241504D02*
X462590D01*
X463923Y242837D01*
X462590Y244170D01*
X459924D01*
X458592Y245503D01*
X459924Y246836D01*
X463923D01*
X466589Y241504D02*
Y242837D01*
X467922D01*
Y241504D01*
X466589D01*
X173351Y184727D02*
X174683Y183394D01*
X177349D01*
X178682Y184727D01*
Y190058D01*
X177349Y191391D01*
X174683D01*
X173351Y190058D01*
Y188725D01*
X174683Y187393D01*
X178682D01*
X181348Y183394D02*
Y184727D01*
X182681D01*
Y183394D01*
X181348D01*
X201342Y190058D02*
X200009Y191391D01*
X197343D01*
X196010Y190058D01*
Y188725D01*
X197343Y187393D01*
X200009D01*
X201342Y186060D01*
Y184727D01*
X200009Y183394D01*
X197343D01*
X196010Y184727D01*
X204007Y191391D02*
Y184727D01*
X205340Y183394D01*
X208006D01*
X209339Y184727D01*
Y191391D01*
X212005Y183394D02*
Y191391D01*
X216003D01*
X217336Y190058D01*
Y187393D01*
X216003Y186060D01*
X212005D01*
X220002Y183394D02*
Y191391D01*
X224001D01*
X225334Y190058D01*
Y187393D01*
X224001Y186060D01*
X220002D01*
X227999Y191391D02*
Y183394D01*
X233331D01*
X235997Y191391D02*
X238663D01*
X237330D01*
Y183394D01*
X235997D01*
X238663D01*
X247993Y191391D02*
X242661D01*
Y183394D01*
X247993D01*
X242661Y187393D02*
X245327D01*
X250659Y183394D02*
Y191391D01*
X254658D01*
X255990Y190058D01*
Y187393D01*
X254658Y186060D01*
X250659D01*
X253325D02*
X255990Y183394D01*
X266654D02*
Y191391D01*
X269319Y188725D01*
X271985Y191391D01*
Y183394D01*
X274651D02*
Y188725D01*
X277317Y191391D01*
X279983Y188725D01*
Y183394D01*
Y187393D01*
X274651D01*
X282648Y183394D02*
Y191391D01*
X286647D01*
X287980Y190058D01*
Y187393D01*
X286647Y186060D01*
X282648D01*
X285314D02*
X287980Y183394D01*
X290646Y191391D02*
Y183394D01*
Y186060D01*
X295977Y191391D01*
X291979Y187393D01*
X295977Y183394D01*
X298643Y191391D02*
X301309D01*
X299976D01*
Y183394D01*
X298643D01*
X301309D01*
X305308D02*
Y191391D01*
X310639Y183394D01*
Y191391D01*
X318637Y190058D02*
X317304Y191391D01*
X314638D01*
X313305Y190058D01*
Y184727D01*
X314638Y183394D01*
X317304D01*
X318637Y184727D01*
Y187393D01*
X315971D01*
X329300D02*
X334632D01*
X349293Y191391D02*
X346628D01*
X345295Y190058D01*
Y184727D01*
X346628Y183394D01*
X349293D01*
X350626Y184727D01*
Y190058D01*
X349293Y191391D01*
X353292Y183394D02*
Y191391D01*
X358624Y183394D01*
Y191391D01*
X374619Y190058D02*
X373286Y191391D01*
X370620D01*
X369287Y190058D01*
Y188725D01*
X370620Y187393D01*
X373286D01*
X374619Y186060D01*
Y184727D01*
X373286Y183394D01*
X370620D01*
X369287Y184727D01*
X381283Y191391D02*
X378617D01*
X377285Y190058D01*
Y184727D01*
X378617Y183394D01*
X381283D01*
X382616Y184727D01*
Y190058D01*
X381283Y191391D01*
X385282D02*
Y183394D01*
X390614D01*
X393279Y191391D02*
Y183394D01*
X397278D01*
X398611Y184727D01*
Y190058D01*
X397278Y191391D01*
X393279D01*
X406608D02*
X401277D01*
Y183394D01*
X406608D01*
X401277Y187393D02*
X403942D01*
X409274Y183394D02*
Y191391D01*
X413273D01*
X414606Y190058D01*
Y187393D01*
X413273Y186060D01*
X409274D01*
X411940D02*
X414606Y183394D01*
X430601Y190058D02*
X429268Y191391D01*
X426602D01*
X425269Y190058D01*
Y188725D01*
X426602Y187393D01*
X429268D01*
X430601Y186060D01*
Y184727D01*
X429268Y183394D01*
X426602D01*
X425269Y184727D01*
X433266Y191391D02*
X435932D01*
X434599D01*
Y183394D01*
X433266D01*
X435932D01*
X439931Y191391D02*
Y183394D01*
X443930D01*
X445262Y184727D01*
Y190058D01*
X443930Y191391D01*
X439931D01*
X453260D02*
X447928D01*
Y183394D01*
X453260D01*
X447928Y187393D02*
X450594D01*
X193035Y144024D02*
Y149355D01*
X195701Y152021D01*
X198367Y149355D01*
Y144024D01*
Y148023D01*
X193035D01*
X201033Y152021D02*
Y144024D01*
X205032D01*
X206365Y145357D01*
Y150688D01*
X205032Y152021D01*
X201033D01*
X209030D02*
Y144024D01*
X213029D01*
X214362Y145357D01*
Y150688D01*
X213029Y152021D01*
X209030D01*
X225025D02*
Y145357D01*
X226358Y144024D01*
X229024D01*
X230357Y145357D01*
Y152021D01*
X233023D02*
Y144024D01*
X238354D01*
X249017D02*
Y152021D01*
X251683Y149355D01*
X254349Y152021D01*
Y144024D01*
X257015D02*
Y149355D01*
X259681Y152021D01*
X262346Y149355D01*
Y144024D01*
Y148023D01*
X257015D01*
X265012Y144024D02*
Y152021D01*
X269011D01*
X270344Y150688D01*
Y148023D01*
X269011Y146690D01*
X265012D01*
X267678D02*
X270344Y144024D01*
X273010Y152021D02*
Y144024D01*
Y146690D01*
X278341Y152021D01*
X274342Y148023D01*
X278341Y144024D01*
X281007Y152021D02*
X283673D01*
X282340D01*
Y144024D01*
X281007D01*
X283673D01*
X287672D02*
Y152021D01*
X293003Y144024D01*
Y152021D01*
X301001Y150688D02*
X299668Y152021D01*
X297002D01*
X295669Y150688D01*
Y145357D01*
X297002Y144024D01*
X299668D01*
X301001Y145357D01*
Y148023D01*
X298335D01*
X311664Y144024D02*
Y149355D01*
X314330Y152021D01*
X316995Y149355D01*
Y144024D01*
Y148023D01*
X311664D01*
X319661Y144024D02*
Y152021D01*
X324993Y144024D01*
Y152021D01*
X327659D02*
Y144024D01*
X331657D01*
X332990Y145357D01*
Y150688D01*
X331657Y152021D01*
X327659D01*
X343653D02*
X346319D01*
X344986D01*
Y144024D01*
X343653D01*
X346319D01*
X350318Y152021D02*
Y144024D01*
X354317D01*
X355650Y145357D01*
Y150688D01*
X354317Y152021D01*
X350318D01*
X173351Y114496D02*
X176016D01*
X174683D01*
Y122494D01*
X173351Y121161D01*
X180015D02*
X181348Y122494D01*
X184014D01*
X185347Y121161D01*
Y115829D01*
X184014Y114496D01*
X181348D01*
X180015Y115829D01*
Y121161D01*
X188012Y114496D02*
Y115829D01*
X189345D01*
Y114496D01*
X188012D01*
X202674Y122494D02*
Y114496D01*
X208006D01*
X210672D02*
Y119828D01*
X213338Y122494D01*
X216003Y119828D01*
Y114496D01*
Y118495D01*
X210672D01*
X218669Y122494D02*
Y121161D01*
X221335Y118495D01*
X224001Y121161D01*
Y122494D01*
X221335Y118495D02*
Y114496D01*
X231998Y122494D02*
X226667D01*
Y114496D01*
X231998D01*
X226667Y118495D02*
X229332D01*
X234664Y114496D02*
Y122494D01*
X238663D01*
X239996Y121161D01*
Y118495D01*
X238663Y117162D01*
X234664D01*
X237330D02*
X239996Y114496D01*
X255990Y121161D02*
X254658Y122494D01*
X251992D01*
X250659Y121161D01*
Y119828D01*
X251992Y118495D01*
X254658D01*
X255990Y117162D01*
Y115829D01*
X254658Y114496D01*
X251992D01*
X250659Y115829D01*
X258656Y122494D02*
X263988D01*
X261322D01*
Y114496D01*
X266654D02*
Y119828D01*
X269319Y122494D01*
X271985Y119828D01*
Y114496D01*
Y118495D01*
X266654D01*
X279983Y121161D02*
X278650Y122494D01*
X275984D01*
X274651Y121161D01*
Y115829D01*
X275984Y114496D01*
X278650D01*
X279983Y115829D01*
X282648Y122494D02*
Y114496D01*
Y117162D01*
X287980Y122494D01*
X283981Y118495D01*
X287980Y114496D01*
X290646Y122494D02*
Y115829D01*
X291979Y114496D01*
X294645D01*
X295977Y115829D01*
Y122494D01*
X298643Y114496D02*
Y122494D01*
X302642D01*
X303975Y121161D01*
Y118495D01*
X302642Y117162D01*
X298643D01*
X314638Y118495D02*
X319970D01*
X335964Y121161D02*
X334632Y122494D01*
X331966D01*
X330633Y121161D01*
Y119828D01*
X331966Y118495D01*
X334632D01*
X335964Y117162D01*
Y115829D01*
X334632Y114496D01*
X331966D01*
X330633Y115829D01*
X343962Y122494D02*
X338630D01*
Y114496D01*
X343962D01*
X338630Y118495D02*
X341296D01*
X351959Y122494D02*
X346628D01*
Y114496D01*
X351959D01*
X346628Y118495D02*
X349293D01*
X362623Y122494D02*
Y114496D01*
X366621D01*
X367954Y115829D01*
Y121161D01*
X366621Y122494D01*
X362623D01*
X375952D02*
X370620D01*
Y114496D01*
X375952D01*
X370620Y118495D02*
X373286D01*
X378617Y122494D02*
X383949D01*
X381283D01*
Y114496D01*
X386615D02*
Y119828D01*
X389281Y122494D01*
X391946Y119828D01*
Y114496D01*
Y118495D01*
X386615D01*
X394612Y122494D02*
X397278D01*
X395945D01*
Y114496D01*
X394612D01*
X397278D01*
X401277Y122494D02*
Y114496D01*
X406608D01*
X417272D02*
Y119828D01*
X419937Y122494D01*
X422603Y119828D01*
Y114496D01*
Y118495D01*
X417272D01*
X192850Y383382D02*
Y391379D01*
X195516Y388714D01*
X198182Y391379D01*
Y383382D01*
X200848Y391379D02*
Y384715D01*
X202181Y383382D01*
X204847D01*
X206179Y384715D01*
Y391379D01*
X214177Y390047D02*
X212844Y391379D01*
X210178D01*
X208845Y390047D01*
Y388714D01*
X210178Y387381D01*
X212844D01*
X214177Y386048D01*
Y384715D01*
X212844Y383382D01*
X210178D01*
X208845Y384715D01*
X216843Y391379D02*
X222174D01*
X219509D01*
Y383382D01*
X232838Y391379D02*
Y383382D01*
Y387381D01*
X238169D01*
Y391379D01*
Y383382D01*
X240835D02*
Y388714D01*
X243501Y391379D01*
X246167Y388714D01*
Y383382D01*
Y387381D01*
X240835D01*
X248832Y383382D02*
Y391379D01*
X254164Y383382D01*
Y391379D01*
X256830D02*
Y383382D01*
X260828D01*
X262161Y384715D01*
Y390047D01*
X260828Y391379D01*
X256830D01*
X264827D02*
Y383382D01*
X270159D01*
X278156Y391379D02*
X272825D01*
Y383382D01*
X278156D01*
X272825Y387381D02*
X275490D01*
X288819Y383382D02*
Y391379D01*
X291485Y388714D01*
X294151Y391379D01*
Y383382D01*
X296817Y391379D02*
X299483D01*
X298150D01*
Y383382D01*
X296817D01*
X299483D01*
X303481D02*
Y391379D01*
X308813Y383382D01*
Y391379D01*
X311479D02*
X314145D01*
X312812D01*
Y383382D01*
X311479D01*
X314145D01*
X318143D02*
Y391379D01*
X320809Y388714D01*
X323475Y391379D01*
Y383382D01*
X326141Y391379D02*
Y384715D01*
X327474Y383382D01*
X330139D01*
X331472Y384715D01*
Y391379D01*
X334138Y383382D02*
Y391379D01*
X336804Y388714D01*
X339470Y391379D01*
Y383382D01*
X355465Y391379D02*
X352799Y390047D01*
X350133Y387381D01*
Y384715D01*
X351466Y383382D01*
X354132D01*
X355465Y384715D01*
Y386048D01*
X354132Y387381D01*
X350133D01*
X371459Y390047D02*
X370126Y391379D01*
X367461D01*
X366128Y390047D01*
Y384715D01*
X367461Y383382D01*
X370126D01*
X371459Y384715D01*
X374125Y391379D02*
Y390047D01*
X376791Y387381D01*
X379457Y390047D01*
Y391379D01*
X376791Y387381D02*
Y383382D01*
X387454Y390047D02*
X386121Y391379D01*
X383455D01*
X382123Y390047D01*
Y384715D01*
X383455Y383382D01*
X386121D01*
X387454Y384715D01*
X390120Y391379D02*
Y383382D01*
X395452D01*
X403449Y391379D02*
X398117D01*
Y383382D01*
X403449D01*
X398117Y387381D02*
X400783D01*
X411446Y390047D02*
X410113Y391379D01*
X407448D01*
X406115Y390047D01*
Y388714D01*
X407448Y387381D01*
X410113D01*
X411446Y386048D01*
Y384715D01*
X410113Y383382D01*
X407448D01*
X406115Y384715D01*
X422110Y387381D02*
X427441D01*
X443436Y383382D02*
X438104D01*
X443436Y388714D01*
Y390047D01*
X442103Y391379D01*
X439437D01*
X438104Y390047D01*
X451433Y391379D02*
X448768Y390047D01*
X446102Y387381D01*
Y384715D01*
X447435Y383382D01*
X450101D01*
X451433Y384715D01*
Y386048D01*
X450101Y387381D01*
X446102D01*
X454099Y390047D02*
X455432Y391379D01*
X458098D01*
X459431Y390047D01*
Y384715D01*
X458098Y383382D01*
X455432D01*
X454099Y384715D01*
Y390047D01*
X467428D02*
X466095Y391379D01*
X463430D01*
X462097Y390047D01*
Y384715D01*
X463430Y383382D01*
X466095D01*
X467428Y384715D01*
X483423Y391379D02*
X478091D01*
Y387381D01*
X480757D01*
X478091D01*
Y383382D01*
X490088Y391379D02*
X487422D01*
X486089Y390047D01*
Y384715D01*
X487422Y383382D01*
X490088D01*
X491421Y384715D01*
Y390047D01*
X490088Y391379D01*
X494086Y383382D02*
Y391379D01*
X498085D01*
X499418Y390047D01*
Y387381D01*
X498085Y386048D01*
X494086D01*
X496752D02*
X499418Y383382D01*
X510081D02*
X512747D01*
X511414D01*
Y391379D01*
X510081Y390047D01*
X516746D02*
X518079Y391379D01*
X520744D01*
X522077Y390047D01*
Y384715D01*
X520744Y383382D01*
X518079D01*
X516746Y384715D01*
Y390047D01*
X538072D02*
X536739Y391379D01*
X534073D01*
X532740Y390047D01*
Y388714D01*
X534073Y387381D01*
X536739D01*
X538072Y386048D01*
Y384715D01*
X536739Y383382D01*
X534073D01*
X532740Y384715D01*
X546069Y391379D02*
X540738D01*
Y383382D01*
X546069D01*
X540738Y387381D02*
X543404D01*
X554067Y390047D02*
X552734Y391379D01*
X550068D01*
X548735Y390047D01*
Y384715D01*
X550068Y383382D01*
X552734D01*
X554067Y384715D01*
X560731Y391379D02*
X558066D01*
X556733Y390047D01*
Y384715D01*
X558066Y383382D01*
X560731D01*
X562064Y384715D01*
Y390047D01*
X560731Y391379D01*
X564730Y383382D02*
Y391379D01*
X570062Y383382D01*
Y391379D01*
X572727D02*
Y383382D01*
X576726D01*
X578059Y384715D01*
Y390047D01*
X576726Y391379D01*
X572727D01*
X586057Y390047D02*
X584724Y391379D01*
X582058D01*
X580725Y390047D01*
Y388714D01*
X582058Y387381D01*
X584724D01*
X586057Y386048D01*
Y384715D01*
X584724Y383382D01*
X582058D01*
X580725Y384715D01*
X588722Y383382D02*
Y384715D01*
X590055D01*
Y383382D01*
X588722D01*
X170851Y67879D02*
Y58882D01*
X175349D01*
X176849Y60382D01*
Y66380D01*
X175349Y67879D01*
X170851D01*
X185846D02*
X179848D01*
Y58882D01*
X185846D01*
X179848Y63381D02*
X182847D01*
X188845Y67879D02*
X194843D01*
X191844D01*
Y58882D01*
X197842D02*
Y64880D01*
X200841Y67879D01*
X203840Y64880D01*
Y58882D01*
Y63381D01*
X197842D01*
X206839Y67879D02*
X209838D01*
X208338D01*
Y58882D01*
X206839D01*
X209838D01*
X214336Y67879D02*
Y58882D01*
X220335D01*
X232331D02*
Y64880D01*
X235330Y67879D01*
X238329Y64880D01*
Y58882D01*
Y63381D01*
X232331D01*
G54D13*
X219417Y48383D02*
Y42385D01*
X223415D01*
X226414Y46384D02*
X228414D01*
X229413Y45384D01*
Y42385D01*
X226414D01*
X225415Y43385D01*
X226414Y44384D01*
X229413D01*
X231413Y46384D02*
Y43385D01*
X232412Y42385D01*
X235412D01*
Y41385D01*
X234412Y40386D01*
X233412D01*
X235412Y42385D02*
Y46384D01*
X240410Y42385D02*
X238410D01*
X237411Y43385D01*
Y45384D01*
X238410Y46384D01*
X240410D01*
X241409Y45384D01*
Y44384D01*
X237411D01*
X243409Y46384D02*
Y42385D01*
Y44384D01*
X244409Y45384D01*
X245408Y46384D01*
X246408D01*
X223415Y-107617D02*
X221416Y-108617D01*
X219417Y-110616D01*
Y-112615D01*
X220416Y-113615D01*
X222416D01*
X223415Y-112615D01*
Y-111616D01*
X222416Y-110616D01*
X219417D01*
X223415Y-83617D02*
X219417D01*
Y-86616D01*
X221416Y-85616D01*
X222416D01*
X223415Y-86616D01*
Y-88615D01*
X222416Y-89615D01*
X220416D01*
X219417Y-88615D01*
X222416Y-65615D02*
Y-59617D01*
X219417Y-62616D01*
X223415D01*
X219417Y-36617D02*
X220416Y-35617D01*
X222416D01*
X223415Y-36617D01*
Y-37616D01*
X222416Y-38616D01*
X221416D01*
X222416D01*
X223415Y-39616D01*
Y-40615D01*
X222416Y-41615D01*
X220416D01*
X219417Y-40615D01*
X223415Y-17615D02*
X219417D01*
X223415Y-13616D01*
Y-12617D01*
X222416Y-11617D01*
X220416D01*
X219417Y-12617D01*
Y6385D02*
X221416D01*
X220416D01*
Y12383D01*
X219417Y11383D01*
X260408Y42385D02*
Y48383D01*
X264407Y42385D01*
Y48383D01*
X267406Y46384D02*
X269405D01*
X270405Y45384D01*
Y42385D01*
X267406D01*
X266406Y43385D01*
X267406Y44384D01*
X270405D01*
X272404Y42385D02*
Y46384D01*
X273404D01*
X274403Y45384D01*
Y42385D01*
Y45384D01*
X275403Y46384D01*
X276403Y45384D01*
Y42385D01*
X281401D02*
X279402D01*
X278402Y43385D01*
Y45384D01*
X279402Y46384D01*
X281401D01*
X282401Y45384D01*
Y44384D01*
X278402D01*
X260408Y-131617D02*
Y-137615D01*
X263407D01*
X264407Y-136615D01*
Y-135616D01*
X263407Y-134616D01*
X260408D01*
X263407D01*
X264407Y-133616D01*
Y-132617D01*
X263407Y-131617D01*
X260408D01*
X267406Y-137615D02*
X269405D01*
X270405Y-136615D01*
Y-134616D01*
X269405Y-133616D01*
X267406D01*
X266406Y-134616D01*
Y-136615D01*
X267406Y-137615D01*
X273404Y-132617D02*
Y-133616D01*
X272404D01*
X274403D01*
X273404D01*
Y-136615D01*
X274403Y-137615D01*
X278402Y-132617D02*
Y-133616D01*
X277402D01*
X279402D01*
X278402D01*
Y-136615D01*
X279402Y-137615D01*
X283401D02*
X285400D01*
X286400Y-136615D01*
Y-134616D01*
X285400Y-133616D01*
X283401D01*
X282401Y-134616D01*
Y-136615D01*
X283401Y-137615D01*
X288399D02*
Y-133616D01*
X289399D01*
X290398Y-134616D01*
Y-137615D01*
Y-134616D01*
X291398Y-133616D01*
X292398Y-134616D01*
Y-137615D01*
X303394Y-131617D02*
X301395D01*
X300395Y-132617D01*
Y-136615D01*
X301395Y-137615D01*
X303394D01*
X304394Y-136615D01*
Y-132617D01*
X303394Y-131617D01*
X306393Y-133616D02*
X308392Y-137615D01*
X310392Y-133616D01*
X315390Y-137615D02*
X313391D01*
X312391Y-136615D01*
Y-134616D01*
X313391Y-133616D01*
X315390D01*
X316390Y-134616D01*
Y-135616D01*
X312391D01*
X318389Y-133616D02*
Y-137615D01*
Y-135616D01*
X319389Y-134616D01*
X320389Y-133616D01*
X321388D01*
X324387Y-137615D02*
X326386D01*
X325387D01*
Y-131617D01*
X324387D01*
X330385Y-133616D02*
X332385D01*
X333384Y-134616D01*
Y-137615D01*
X330385D01*
X329386Y-136615D01*
X330385Y-135616D01*
X333384D01*
X335384Y-133616D02*
Y-136615D01*
X336383Y-137615D01*
X339382D01*
Y-138615D01*
X338383Y-139614D01*
X337383D01*
X339382Y-137615D02*
Y-133616D01*
X260408Y-119617D02*
Y-125615D01*
X263407D01*
X264407Y-124615D01*
Y-123616D01*
X263407Y-122616D01*
X260408D01*
X263407D01*
X264407Y-121616D01*
Y-120617D01*
X263407Y-119617D01*
X260408D01*
X267406Y-125615D02*
X269405D01*
X270405Y-124615D01*
Y-122616D01*
X269405Y-121616D01*
X267406D01*
X266406Y-122616D01*
Y-124615D01*
X267406Y-125615D01*
X273404Y-120617D02*
Y-121616D01*
X272404D01*
X274403D01*
X273404D01*
Y-124615D01*
X274403Y-125615D01*
X278402Y-120617D02*
Y-121616D01*
X277402D01*
X279402D01*
X278402D01*
Y-124615D01*
X279402Y-125615D01*
X283401D02*
X285400D01*
X286400Y-124615D01*
Y-122616D01*
X285400Y-121616D01*
X283401D01*
X282401Y-122616D01*
Y-124615D01*
X283401Y-125615D01*
X288399D02*
Y-121616D01*
X289399D01*
X290398Y-122616D01*
Y-125615D01*
Y-122616D01*
X291398Y-121616D01*
X292398Y-122616D01*
Y-125615D01*
X304394Y-120617D02*
X303394Y-119617D01*
X301395D01*
X300395Y-120617D01*
Y-121616D01*
X301395Y-122616D01*
X303394D01*
X304394Y-123616D01*
Y-124615D01*
X303394Y-125615D01*
X301395D01*
X300395Y-124615D01*
X307393Y-125615D02*
X309392D01*
X310392Y-124615D01*
Y-122616D01*
X309392Y-121616D01*
X307393D01*
X306393Y-122616D01*
Y-124615D01*
X307393Y-125615D01*
X312391D02*
X314390D01*
X313391D01*
Y-119617D01*
X312391D01*
X321388D02*
Y-125615D01*
X318389D01*
X317389Y-124615D01*
Y-122616D01*
X318389Y-121616D01*
X321388D01*
X326386Y-125615D02*
X324387D01*
X323388Y-124615D01*
Y-122616D01*
X324387Y-121616D01*
X326386D01*
X327386Y-122616D01*
Y-123616D01*
X323388D01*
X329386Y-121616D02*
Y-125615D01*
Y-123616D01*
X330385Y-122616D01*
X331385Y-121616D01*
X332385D01*
X260408Y-107617D02*
Y-113615D01*
X263407D01*
X264407Y-112615D01*
Y-111616D01*
X263407Y-110616D01*
X260408D01*
X263407D01*
X264407Y-109616D01*
Y-108617D01*
X263407Y-107617D01*
X260408D01*
X267406Y-113615D02*
X269405D01*
X270405Y-112615D01*
Y-110616D01*
X269405Y-109616D01*
X267406D01*
X266406Y-110616D01*
Y-112615D01*
X267406Y-113615D01*
X273404Y-108617D02*
Y-109616D01*
X272404D01*
X274403D01*
X273404D01*
Y-112615D01*
X274403Y-113615D01*
X278402Y-108617D02*
Y-109616D01*
X277402D01*
X279402D01*
X278402D01*
Y-112615D01*
X279402Y-113615D01*
X283401D02*
X285400D01*
X286400Y-112615D01*
Y-110616D01*
X285400Y-109616D01*
X283401D01*
X282401Y-110616D01*
Y-112615D01*
X283401Y-113615D01*
X288399D02*
Y-109616D01*
X289399D01*
X290398Y-110616D01*
Y-113615D01*
Y-110616D01*
X291398Y-109616D01*
X292398Y-110616D01*
Y-113615D01*
X300395Y-107617D02*
Y-113615D01*
X304394D01*
X307393Y-109616D02*
X309392D01*
X310392Y-110616D01*
Y-113615D01*
X307393D01*
X306393Y-112615D01*
X307393Y-111616D01*
X310392D01*
X312391Y-109616D02*
Y-112615D01*
X313391Y-113615D01*
X316390D01*
Y-114615D01*
X315390Y-115614D01*
X314390D01*
X316390Y-113615D02*
Y-109616D01*
X321388Y-113615D02*
X319389D01*
X318389Y-112615D01*
Y-110616D01*
X319389Y-109616D01*
X321388D01*
X322388Y-110616D01*
Y-111616D01*
X318389D01*
X324387Y-109616D02*
Y-113615D01*
Y-111616D01*
X325387Y-110616D01*
X326386Y-109616D01*
X327386D01*
X260408Y-95617D02*
Y-101615D01*
X263407D01*
X264407Y-100615D01*
Y-96617D01*
X263407Y-95617D01*
X260408D01*
X266406Y-101615D02*
X268405D01*
X267406D01*
Y-97616D01*
X266406D01*
X274403Y-101615D02*
X272404D01*
X271404Y-100615D01*
Y-98616D01*
X272404Y-97616D01*
X274403D01*
X275403Y-98616D01*
Y-99616D01*
X271404D01*
X277402Y-101615D02*
X279402D01*
X278402D01*
Y-95617D01*
X277402D01*
X285400Y-101615D02*
X283401D01*
X282401Y-100615D01*
Y-98616D01*
X283401Y-97616D01*
X285400D01*
X286400Y-98616D01*
Y-99616D01*
X282401D01*
X292398Y-97616D02*
X289399D01*
X288399Y-98616D01*
Y-100615D01*
X289399Y-101615D01*
X292398D01*
X295397Y-96617D02*
Y-97616D01*
X294397D01*
X296396D01*
X295397D01*
Y-100615D01*
X296396Y-101615D01*
X299395Y-97616D02*
Y-101615D01*
Y-99616D01*
X300395Y-98616D01*
X301395Y-97616D01*
X302394D01*
X305393Y-101615D02*
X307393D01*
X306393D01*
Y-97616D01*
X305393D01*
X314390D02*
X311391D01*
X310392Y-98616D01*
Y-100615D01*
X311391Y-101615D01*
X314390D01*
X320389D02*
X316390D01*
X320389Y-97616D01*
Y-96617D01*
X319389Y-95617D01*
X317389D01*
X316390Y-96617D01*
X260408Y-83617D02*
Y-89615D01*
X263407D01*
X264407Y-88615D01*
Y-87616D01*
X263407Y-86616D01*
X260408D01*
X263407D01*
X264407Y-85616D01*
Y-84617D01*
X263407Y-83617D01*
X260408D01*
X267406Y-89615D02*
X269405D01*
X270405Y-88615D01*
Y-86616D01*
X269405Y-85616D01*
X267406D01*
X266406Y-86616D01*
Y-88615D01*
X267406Y-89615D01*
X273404Y-84617D02*
Y-85616D01*
X272404D01*
X274403D01*
X273404D01*
Y-88615D01*
X274403Y-89615D01*
X287399Y-84617D02*
X286400Y-83617D01*
X284400D01*
X283401Y-84617D01*
Y-88615D01*
X284400Y-89615D01*
X286400D01*
X287399Y-88615D01*
Y-86616D01*
X285400D01*
X289399Y-89615D02*
Y-83617D01*
X293397Y-89615D01*
Y-83617D01*
X295397D02*
Y-89615D01*
X298396D01*
X299395Y-88615D01*
Y-84617D01*
X298396Y-83617D01*
X295397D01*
X260408Y-71617D02*
Y-77615D01*
X263407D01*
X264407Y-76615D01*
Y-72617D01*
X263407Y-71617D01*
X260408D01*
X266406Y-77615D02*
X268405D01*
X267406D01*
Y-73616D01*
X266406D01*
X274403Y-77615D02*
X272404D01*
X271404Y-76615D01*
Y-74616D01*
X272404Y-73616D01*
X274403D01*
X275403Y-74616D01*
Y-75616D01*
X271404D01*
X277402Y-77615D02*
X279402D01*
X278402D01*
Y-71617D01*
X277402D01*
X285400Y-77615D02*
X283401D01*
X282401Y-76615D01*
Y-74616D01*
X283401Y-73616D01*
X285400D01*
X286400Y-74616D01*
Y-75616D01*
X282401D01*
X292398Y-73616D02*
X289399D01*
X288399Y-74616D01*
Y-76615D01*
X289399Y-77615D01*
X292398D01*
X295397Y-72617D02*
Y-73616D01*
X294397D01*
X296396D01*
X295397D01*
Y-76615D01*
X296396Y-77615D01*
X299395Y-73616D02*
Y-77615D01*
Y-75616D01*
X300395Y-74616D01*
X301395Y-73616D01*
X302394D01*
X305393Y-77615D02*
X307393D01*
X306393D01*
Y-73616D01*
X305393D01*
X314390D02*
X311391D01*
X310392Y-74616D01*
Y-76615D01*
X311391Y-77615D01*
X314390D01*
X325387D02*
Y-71617D01*
X322388Y-74616D01*
X326386D01*
X260408Y-65615D02*
Y-59617D01*
X262407Y-61616D01*
X264407Y-59617D01*
Y-65615D01*
X266406D02*
X268405D01*
X267406D01*
Y-61616D01*
X266406D01*
X275403Y-59617D02*
Y-65615D01*
X272404D01*
X271404Y-64615D01*
Y-62616D01*
X272404Y-61616D01*
X275403D01*
X277402Y-65615D02*
X279402D01*
X278402D01*
Y-59617D01*
X277402Y-60617D01*
X260408Y-47617D02*
Y-53615D01*
X263407D01*
X264407Y-52615D01*
Y-48617D01*
X263407Y-47617D01*
X260408D01*
X266406Y-53615D02*
X268405D01*
X267406D01*
Y-49616D01*
X266406D01*
X274403Y-53615D02*
X272404D01*
X271404Y-52615D01*
Y-50616D01*
X272404Y-49616D01*
X274403D01*
X275403Y-50616D01*
Y-51616D01*
X271404D01*
X277402Y-53615D02*
X279402D01*
X278402D01*
Y-47617D01*
X277402D01*
X285400Y-53615D02*
X283401D01*
X282401Y-52615D01*
Y-50616D01*
X283401Y-49616D01*
X285400D01*
X286400Y-50616D01*
Y-51616D01*
X282401D01*
X292398Y-49616D02*
X289399D01*
X288399Y-50616D01*
Y-52615D01*
X289399Y-53615D01*
X292398D01*
X295397Y-48617D02*
Y-49616D01*
X294397D01*
X296396D01*
X295397D01*
Y-52615D01*
X296396Y-53615D01*
X299395Y-49616D02*
Y-53615D01*
Y-51616D01*
X300395Y-50616D01*
X301395Y-49616D01*
X302394D01*
X305393Y-53615D02*
X307393D01*
X306393D01*
Y-49616D01*
X305393D01*
X314390D02*
X311391D01*
X310392Y-50616D01*
Y-52615D01*
X311391Y-53615D01*
X314390D01*
X326386Y-47617D02*
X322388D01*
Y-50616D01*
X324387Y-49616D01*
X325387D01*
X326386Y-50616D01*
Y-52615D01*
X325387Y-53615D01*
X323388D01*
X322388Y-52615D01*
X260408Y-41615D02*
Y-35617D01*
X263407D01*
X264407Y-36617D01*
Y-38616D01*
X263407Y-39616D01*
X260408D01*
X267406Y-41615D02*
X269405D01*
X270405Y-40615D01*
Y-38616D01*
X269405Y-37616D01*
X267406D01*
X266406Y-38616D01*
Y-40615D01*
X267406Y-41615D01*
X272404Y-37616D02*
Y-40615D01*
X273404Y-41615D01*
X274403Y-40615D01*
X275403Y-41615D01*
X276403Y-40615D01*
Y-37616D01*
X281401Y-41615D02*
X279402D01*
X278402Y-40615D01*
Y-38616D01*
X279402Y-37616D01*
X281401D01*
X282401Y-38616D01*
Y-39616D01*
X278402D01*
X284400Y-37616D02*
Y-41615D01*
Y-39616D01*
X285400Y-38616D01*
X286400Y-37616D01*
X287399D01*
X296396Y-41615D02*
Y-35617D01*
X299395D01*
X300395Y-36617D01*
Y-38616D01*
X299395Y-39616D01*
X296396D01*
X302394Y-41615D02*
X304394D01*
X303394D01*
Y-35617D01*
X302394D01*
X308392Y-37616D02*
X310392D01*
X311391Y-38616D01*
Y-41615D01*
X308392D01*
X307393Y-40615D01*
X308392Y-39616D01*
X311391D01*
X313391Y-41615D02*
Y-37616D01*
X316390D01*
X317389Y-38616D01*
Y-41615D01*
X322388D02*
X320389D01*
X319389Y-40615D01*
Y-38616D01*
X320389Y-37616D01*
X322388D01*
X323388Y-38616D01*
Y-39616D01*
X319389D01*
X260408Y-23617D02*
Y-29615D01*
X263407D01*
X264407Y-28615D01*
Y-24617D01*
X263407Y-23617D01*
X260408D01*
X266406Y-29615D02*
X268405D01*
X267406D01*
Y-25616D01*
X266406D01*
X274403Y-29615D02*
X272404D01*
X271404Y-28615D01*
Y-26616D01*
X272404Y-25616D01*
X274403D01*
X275403Y-26616D01*
Y-27616D01*
X271404D01*
X277402Y-29615D02*
X279402D01*
X278402D01*
Y-23617D01*
X277402D01*
X285400Y-29615D02*
X283401D01*
X282401Y-28615D01*
Y-26616D01*
X283401Y-25616D01*
X285400D01*
X286400Y-26616D01*
Y-27616D01*
X282401D01*
X292398Y-25616D02*
X289399D01*
X288399Y-26616D01*
Y-28615D01*
X289399Y-29615D01*
X292398D01*
X295397Y-24617D02*
Y-25616D01*
X294397D01*
X296396D01*
X295397D01*
Y-28615D01*
X296396Y-29615D01*
X299395Y-25616D02*
Y-29615D01*
Y-27616D01*
X300395Y-26616D01*
X301395Y-25616D01*
X302394D01*
X305393Y-29615D02*
X307393D01*
X306393D01*
Y-25616D01*
X305393D01*
X314390D02*
X311391D01*
X310392Y-26616D01*
Y-28615D01*
X311391Y-29615D01*
X314390D01*
X316390Y-24617D02*
X317389Y-23617D01*
X319389D01*
X320389Y-24617D01*
Y-25616D01*
X319389Y-26616D01*
X318389D01*
X319389D01*
X320389Y-27616D01*
Y-28615D01*
X319389Y-29615D01*
X317389D01*
X316390Y-28615D01*
X260408Y-11617D02*
X264407D01*
X262407D01*
Y-17615D01*
X267406D02*
X269405D01*
X270405Y-16615D01*
Y-14616D01*
X269405Y-13616D01*
X267406D01*
X266406Y-14616D01*
Y-16615D01*
X267406Y-17615D01*
X272404Y-19614D02*
Y-13616D01*
X275403D01*
X276403Y-14616D01*
Y-16615D01*
X275403Y-17615D01*
X272404D01*
X288399Y-12617D02*
X287399Y-11617D01*
X285400D01*
X284400Y-12617D01*
Y-16615D01*
X285400Y-17615D01*
X287399D01*
X288399Y-16615D01*
Y-14616D01*
X286400D01*
X290398Y-17615D02*
Y-11617D01*
X294397Y-17615D01*
Y-11617D01*
X296396D02*
Y-17615D01*
X299395D01*
X300395Y-16615D01*
Y-12617D01*
X299395Y-11617D01*
X296396D01*
X260408Y383D02*
Y-5615D01*
X263407D01*
X264407Y-4615D01*
Y-617D01*
X263407Y383D01*
X260408D01*
X266406Y-5615D02*
X268405D01*
X267406D01*
Y-1616D01*
X266406D01*
X274403Y-5615D02*
X272404D01*
X271404Y-4615D01*
Y-2616D01*
X272404Y-1616D01*
X274403D01*
X275403Y-2616D01*
Y-3616D01*
X271404D01*
X277402Y-5615D02*
X279402D01*
X278402D01*
Y383D01*
X277402D01*
X285400Y-5615D02*
X283401D01*
X282401Y-4615D01*
Y-2616D01*
X283401Y-1616D01*
X285400D01*
X286400Y-2616D01*
Y-3616D01*
X282401D01*
X292398Y-1616D02*
X289399D01*
X288399Y-2616D01*
Y-4615D01*
X289399Y-5615D01*
X292398D01*
X295397Y-617D02*
Y-1616D01*
X294397D01*
X296396D01*
X295397D01*
Y-4615D01*
X296396Y-5615D01*
X299395Y-1616D02*
Y-5615D01*
Y-3616D01*
X300395Y-2616D01*
X301395Y-1616D01*
X302394D01*
X305393Y-5615D02*
X307393D01*
X306393D01*
Y-1616D01*
X305393D01*
X314390D02*
X311391D01*
X310392Y-2616D01*
Y-4615D01*
X311391Y-5615D01*
X314390D01*
X316390D02*
X318389D01*
X317389D01*
Y383D01*
X316390Y-617D01*
X260408Y12383D02*
X264407D01*
X262407D01*
Y6385D01*
X267406D02*
X269405D01*
X270405Y7385D01*
Y9384D01*
X269405Y10384D01*
X267406D01*
X266406Y9384D01*
Y7385D01*
X267406Y6385D01*
X272404Y4386D02*
Y10384D01*
X275403D01*
X276403Y9384D01*
Y7385D01*
X275403Y6385D01*
X272404D01*
X284400Y12383D02*
Y6385D01*
X288399D01*
X291398Y10384D02*
X293397D01*
X294397Y9384D01*
Y6385D01*
X291398D01*
X290398Y7385D01*
X291398Y8384D01*
X294397D01*
X296396Y10384D02*
Y7385D01*
X297396Y6385D01*
X300395D01*
Y5385D01*
X299395Y4386D01*
X298396D01*
X300395Y6385D02*
Y10384D01*
X305393Y6385D02*
X303394D01*
X302394Y7385D01*
Y9384D01*
X303394Y10384D01*
X305393D01*
X306393Y9384D01*
Y8384D01*
X302394D01*
X308392Y10384D02*
Y6385D01*
Y8384D01*
X309392Y9384D01*
X310392Y10384D01*
X311391D01*
X260408Y24383D02*
X264407D01*
X262407D01*
Y18385D01*
X267406D02*
X269405D01*
X270405Y19385D01*
Y21384D01*
X269405Y22384D01*
X267406D01*
X266406Y21384D01*
Y19385D01*
X267406Y18385D01*
X272404Y16386D02*
Y22384D01*
X275403D01*
X276403Y21384D01*
Y19385D01*
X275403Y18385D01*
X272404D01*
X288399Y23383D02*
X287399Y24383D01*
X285400D01*
X284400Y23383D01*
Y22384D01*
X285400Y21384D01*
X287399D01*
X288399Y20384D01*
Y19385D01*
X287399Y18385D01*
X285400D01*
X284400Y19385D01*
X291398Y18385D02*
X293397D01*
X294397Y19385D01*
Y21384D01*
X293397Y22384D01*
X291398D01*
X290398Y21384D01*
Y19385D01*
X291398Y18385D01*
X296396D02*
X298396D01*
X297396D01*
Y24383D01*
X296396D01*
X305393D02*
Y18385D01*
X302394D01*
X301395Y19385D01*
Y21384D01*
X302394Y22384D01*
X305393D01*
X310392Y18385D02*
X308392D01*
X307393Y19385D01*
Y21384D01*
X308392Y22384D01*
X310392D01*
X311391Y21384D01*
Y20384D01*
X307393D01*
X313391Y22384D02*
Y18385D01*
Y20384D01*
X314390Y21384D01*
X315390Y22384D01*
X316390D01*
X260408Y36383D02*
X264407D01*
X262407D01*
Y30385D01*
X267406D02*
X269405D01*
X270405Y31385D01*
Y33384D01*
X269405Y34384D01*
X267406D01*
X266406Y33384D01*
Y31385D01*
X267406Y30385D01*
X272404Y28386D02*
Y34384D01*
X275403D01*
X276403Y33384D01*
Y31385D01*
X275403Y30385D01*
X272404D01*
X287399Y36383D02*
X285400D01*
X284400Y35383D01*
Y31385D01*
X285400Y30385D01*
X287399D01*
X288399Y31385D01*
Y35383D01*
X287399Y36383D01*
X290398Y34384D02*
X292398Y30385D01*
X294397Y34384D01*
X299395Y30385D02*
X297396D01*
X296396Y31385D01*
Y33384D01*
X297396Y34384D01*
X299395D01*
X300395Y33384D01*
Y32384D01*
X296396D01*
X302394Y34384D02*
Y30385D01*
Y32384D01*
X303394Y33384D01*
X304394Y34384D01*
X305393D01*
X308392Y30385D02*
X310392D01*
X309392D01*
Y36383D01*
X308392D01*
X314390Y34384D02*
X316390D01*
X317389Y33384D01*
Y30385D01*
X314390D01*
X313391Y31385D01*
X314390Y32384D01*
X317389D01*
X319389Y34384D02*
Y31385D01*
X320389Y30385D01*
X323388D01*
Y29385D01*
X322388Y28386D01*
X321388D01*
X323388Y30385D02*
Y34384D01*
X353382Y42385D02*
Y48383D01*
X355382Y46384D01*
X357381Y48383D01*
Y42385D01*
X360380Y46384D02*
X362379D01*
X363379Y45384D01*
Y42385D01*
X360380D01*
X359380Y43385D01*
X360380Y44384D01*
X363379D01*
X366378Y47383D02*
Y46384D01*
X365378D01*
X367378D01*
X366378D01*
Y43385D01*
X367378Y42385D01*
X373376D02*
X371376D01*
X370377Y43385D01*
Y45384D01*
X371376Y46384D01*
X373376D01*
X374376Y45384D01*
Y44384D01*
X370377D01*
X376375Y46384D02*
Y42385D01*
Y44384D01*
X377375Y45384D01*
X378374Y46384D01*
X379374D01*
X382373Y42385D02*
X384372D01*
X383373D01*
Y46384D01*
X382373D01*
X388371D02*
X390370D01*
X391370Y45384D01*
Y42385D01*
X388371D01*
X387371Y43385D01*
X388371Y44384D01*
X391370D01*
X393369Y42385D02*
X395369D01*
X394369D01*
Y48383D01*
X393369D01*
X357381Y-120617D02*
X356381Y-119617D01*
X354382D01*
X353382Y-120617D01*
Y-121616D01*
X354382Y-122616D01*
X356381D01*
X357381Y-123616D01*
Y-124615D01*
X356381Y-125615D01*
X354382D01*
X353382Y-124615D01*
X360380Y-125615D02*
X362379D01*
X363379Y-124615D01*
Y-122616D01*
X362379Y-121616D01*
X360380D01*
X359380Y-122616D01*
Y-124615D01*
X360380Y-125615D01*
X365378D02*
X367378D01*
X366378D01*
Y-119617D01*
X365378D01*
X374376D02*
Y-125615D01*
X371376D01*
X370377Y-124615D01*
Y-122616D01*
X371376Y-121616D01*
X374376D01*
X379374Y-125615D02*
X377375D01*
X376375Y-124615D01*
Y-122616D01*
X377375Y-121616D01*
X379374D01*
X380374Y-122616D01*
Y-123616D01*
X376375D01*
X382373Y-121616D02*
Y-125615D01*
Y-123616D01*
X383373Y-122616D01*
X384372Y-121616D01*
X385372D01*
X394369Y-125615D02*
Y-119617D01*
X397368D01*
X398368Y-120617D01*
Y-122616D01*
X397368Y-123616D01*
X394369D01*
X396368D02*
X398368Y-125615D01*
X403366D02*
X401367D01*
X400367Y-124615D01*
Y-122616D01*
X401367Y-121616D01*
X403366D01*
X404366Y-122616D01*
Y-123616D01*
X400367D01*
X406365Y-125615D02*
X409364D01*
X410364Y-124615D01*
X409364Y-123616D01*
X407365D01*
X406365Y-122616D01*
X407365Y-121616D01*
X410364D01*
X412363Y-125615D02*
X414363D01*
X413363D01*
Y-121616D01*
X412363D01*
X417362Y-125615D02*
X420361D01*
X421360Y-124615D01*
X420361Y-123616D01*
X418361D01*
X417362Y-122616D01*
X418361Y-121616D01*
X421360D01*
X424359Y-120617D02*
Y-121616D01*
X423360D01*
X425359D01*
X424359D01*
Y-124615D01*
X425359Y-125615D01*
X357381Y-108617D02*
X356381Y-107617D01*
X354382D01*
X353382Y-108617D01*
Y-112615D01*
X354382Y-113615D01*
X356381D01*
X357381Y-112615D01*
X360380Y-113615D02*
X362379D01*
X363379Y-112615D01*
Y-110616D01*
X362379Y-109616D01*
X360380D01*
X359380Y-110616D01*
Y-112615D01*
X360380Y-113615D01*
X365378Y-115614D02*
Y-109616D01*
X368377D01*
X369377Y-110616D01*
Y-112615D01*
X368377Y-113615D01*
X365378D01*
X371376Y-115614D02*
Y-109616D01*
X374376D01*
X375375Y-110616D01*
Y-112615D01*
X374376Y-113615D01*
X371376D01*
X380374D02*
X378374D01*
X377375Y-112615D01*
Y-110616D01*
X378374Y-109616D01*
X380374D01*
X381373Y-110616D01*
Y-111616D01*
X377375D01*
X383373Y-109616D02*
Y-113615D01*
Y-111616D01*
X384372Y-110616D01*
X385372Y-109616D01*
X386372D01*
X357381Y-95617D02*
X353382D01*
Y-98616D01*
X355382D01*
X353382D01*
Y-101615D01*
X359380D02*
Y-95617D01*
X362379D01*
X363379Y-96617D01*
Y-98616D01*
X362379Y-99616D01*
X359380D01*
X361380D02*
X363379Y-101615D01*
X365378Y-98616D02*
X369377D01*
X374376Y-101615D02*
Y-95617D01*
X371376Y-98616D01*
X375375D01*
X383373Y-95617D02*
X387371D01*
X385372D01*
Y-101615D01*
X393369Y-96617D02*
X392370Y-95617D01*
X390370D01*
X389371Y-96617D01*
Y-100615D01*
X390370Y-101615D01*
X392370D01*
X393369Y-100615D01*
Y-98616D01*
X391370D01*
X395369Y-101615D02*
X397368D01*
X396368D01*
Y-95617D01*
X395369Y-96617D01*
X400367Y-95617D02*
X404366D01*
Y-96617D01*
X400367Y-100615D01*
Y-101615D01*
X406365Y-96617D02*
X407365Y-95617D01*
X409364D01*
X410364Y-96617D01*
Y-100615D01*
X409364Y-101615D01*
X407365D01*
X406365Y-100615D01*
Y-96617D01*
X357381Y-84617D02*
X356381Y-83617D01*
X354382D01*
X353382Y-84617D01*
Y-88615D01*
X354382Y-89615D01*
X356381D01*
X357381Y-88615D01*
X360380Y-89615D02*
X362379D01*
X363379Y-88615D01*
Y-86616D01*
X362379Y-85616D01*
X360380D01*
X359380Y-86616D01*
Y-88615D01*
X360380Y-89615D01*
X365378Y-91614D02*
Y-85616D01*
X368377D01*
X369377Y-86616D01*
Y-88615D01*
X368377Y-89615D01*
X365378D01*
X371376Y-91614D02*
Y-85616D01*
X374376D01*
X375375Y-86616D01*
Y-88615D01*
X374376Y-89615D01*
X371376D01*
X380374D02*
X378374D01*
X377375Y-88615D01*
Y-86616D01*
X378374Y-85616D01*
X380374D01*
X381373Y-86616D01*
Y-87616D01*
X377375D01*
X383373Y-85616D02*
Y-89615D01*
Y-87616D01*
X384372Y-86616D01*
X385372Y-85616D01*
X386372D01*
X357381Y-71617D02*
X353382D01*
Y-74616D01*
X355382D01*
X353382D01*
Y-77615D01*
X359380D02*
Y-71617D01*
X362379D01*
X363379Y-72617D01*
Y-74616D01*
X362379Y-75616D01*
X359380D01*
X361380D02*
X363379Y-77615D01*
X365378Y-74616D02*
X369377D01*
X374376Y-77615D02*
Y-71617D01*
X371376Y-74616D01*
X375375D01*
X383373Y-71617D02*
X387371D01*
X385372D01*
Y-77615D01*
X393369Y-72617D02*
X392370Y-71617D01*
X390370D01*
X389371Y-72617D01*
Y-76615D01*
X390370Y-77615D01*
X392370D01*
X393369Y-76615D01*
Y-74616D01*
X391370D01*
X395369Y-77615D02*
X397368D01*
X396368D01*
Y-71617D01*
X395369Y-72617D01*
X400367Y-71617D02*
X404366D01*
Y-72617D01*
X400367Y-76615D01*
Y-77615D01*
X406365Y-72617D02*
X407365Y-71617D01*
X409364D01*
X410364Y-72617D01*
Y-76615D01*
X409364Y-77615D01*
X407365D01*
X406365Y-76615D01*
Y-72617D01*
X357381Y-60617D02*
X356381Y-59617D01*
X354382D01*
X353382Y-60617D01*
Y-64615D01*
X354382Y-65615D01*
X356381D01*
X357381Y-64615D01*
X360380Y-65615D02*
X362379D01*
X363379Y-64615D01*
Y-62616D01*
X362379Y-61616D01*
X360380D01*
X359380Y-62616D01*
Y-64615D01*
X360380Y-65615D01*
X365378Y-67614D02*
Y-61616D01*
X368377D01*
X369377Y-62616D01*
Y-64615D01*
X368377Y-65615D01*
X365378D01*
X371376Y-67614D02*
Y-61616D01*
X374376D01*
X375375Y-62616D01*
Y-64615D01*
X374376Y-65615D01*
X371376D01*
X380374D02*
X378374D01*
X377375Y-64615D01*
Y-62616D01*
X378374Y-61616D01*
X380374D01*
X381373Y-62616D01*
Y-63616D01*
X377375D01*
X383373Y-61616D02*
Y-65615D01*
Y-63616D01*
X384372Y-62616D01*
X385372Y-61616D01*
X386372D01*
X357381Y-47617D02*
X353382D01*
Y-50616D01*
X355382D01*
X353382D01*
Y-53615D01*
X359380D02*
Y-47617D01*
X362379D01*
X363379Y-48617D01*
Y-50616D01*
X362379Y-51616D01*
X359380D01*
X361380D02*
X363379Y-53615D01*
X365378Y-50616D02*
X369377D01*
X374376Y-53615D02*
Y-47617D01*
X371376Y-50616D01*
X375375D01*
X383373Y-47617D02*
X387371D01*
X385372D01*
Y-53615D01*
X393369Y-48617D02*
X392370Y-47617D01*
X390370D01*
X389371Y-48617D01*
Y-52615D01*
X390370Y-53615D01*
X392370D01*
X393369Y-52615D01*
Y-50616D01*
X391370D01*
X395369Y-53615D02*
X397368D01*
X396368D01*
Y-47617D01*
X395369Y-48617D01*
X400367Y-47617D02*
X404366D01*
Y-48617D01*
X400367Y-52615D01*
Y-53615D01*
X406365Y-48617D02*
X407365Y-47617D01*
X409364D01*
X410364Y-48617D01*
Y-52615D01*
X409364Y-53615D01*
X407365D01*
X406365Y-52615D01*
Y-48617D01*
X357381Y-36617D02*
X356381Y-35617D01*
X354382D01*
X353382Y-36617D01*
Y-40615D01*
X354382Y-41615D01*
X356381D01*
X357381Y-40615D01*
X360380Y-41615D02*
X362379D01*
X363379Y-40615D01*
Y-38616D01*
X362379Y-37616D01*
X360380D01*
X359380Y-38616D01*
Y-40615D01*
X360380Y-41615D01*
X365378Y-43614D02*
Y-37616D01*
X368377D01*
X369377Y-38616D01*
Y-40615D01*
X368377Y-41615D01*
X365378D01*
X371376Y-43614D02*
Y-37616D01*
X374376D01*
X375375Y-38616D01*
Y-40615D01*
X374376Y-41615D01*
X371376D01*
X380374D02*
X378374D01*
X377375Y-40615D01*
Y-38616D01*
X378374Y-37616D01*
X380374D01*
X381373Y-38616D01*
Y-39616D01*
X377375D01*
X383373Y-37616D02*
Y-41615D01*
Y-39616D01*
X384372Y-38616D01*
X385372Y-37616D01*
X386372D01*
X357381Y-23617D02*
X353382D01*
Y-26616D01*
X355382D01*
X353382D01*
Y-29615D01*
X359380D02*
Y-23617D01*
X362379D01*
X363379Y-24617D01*
Y-26616D01*
X362379Y-27616D01*
X359380D01*
X361380D02*
X363379Y-29615D01*
X365378Y-26616D02*
X369377D01*
X374376Y-29615D02*
Y-23617D01*
X371376Y-26616D01*
X375375D01*
X383373Y-23617D02*
X387371D01*
X385372D01*
Y-29615D01*
X393369Y-24617D02*
X392370Y-23617D01*
X390370D01*
X389371Y-24617D01*
Y-28615D01*
X390370Y-29615D01*
X392370D01*
X393369Y-28615D01*
Y-26616D01*
X391370D01*
X395369Y-29615D02*
X397368D01*
X396368D01*
Y-23617D01*
X395369Y-24617D01*
X400367Y-23617D02*
X404366D01*
Y-24617D01*
X400367Y-28615D01*
Y-29615D01*
X406365Y-24617D02*
X407365Y-23617D01*
X409364D01*
X410364Y-24617D01*
Y-28615D01*
X409364Y-29615D01*
X407365D01*
X406365Y-28615D01*
Y-24617D01*
X357381Y-12617D02*
X356381Y-11617D01*
X354382D01*
X353382Y-12617D01*
Y-16615D01*
X354382Y-17615D01*
X356381D01*
X357381Y-16615D01*
X360380Y-17615D02*
X362379D01*
X363379Y-16615D01*
Y-14616D01*
X362379Y-13616D01*
X360380D01*
X359380Y-14616D01*
Y-16615D01*
X360380Y-17615D01*
X365378Y-19614D02*
Y-13616D01*
X368377D01*
X369377Y-14616D01*
Y-16615D01*
X368377Y-17615D01*
X365378D01*
X371376Y-19614D02*
Y-13616D01*
X374376D01*
X375375Y-14616D01*
Y-16615D01*
X374376Y-17615D01*
X371376D01*
X380374D02*
X378374D01*
X377375Y-16615D01*
Y-14616D01*
X378374Y-13616D01*
X380374D01*
X381373Y-14616D01*
Y-15616D01*
X377375D01*
X383373Y-13616D02*
Y-17615D01*
Y-15616D01*
X384372Y-14616D01*
X385372Y-13616D01*
X386372D01*
X357381Y383D02*
X353382D01*
Y-2616D01*
X355382D01*
X353382D01*
Y-5615D01*
X359380D02*
Y383D01*
X362379D01*
X363379Y-617D01*
Y-2616D01*
X362379Y-3616D01*
X359380D01*
X361380D02*
X363379Y-5615D01*
X365378Y-2616D02*
X369377D01*
X374376Y-5615D02*
Y383D01*
X371376Y-2616D01*
X375375D01*
X383373Y383D02*
X387371D01*
X385372D01*
Y-5615D01*
X393369Y-617D02*
X392370Y383D01*
X390370D01*
X389371Y-617D01*
Y-4615D01*
X390370Y-5615D01*
X392370D01*
X393369Y-4615D01*
Y-2616D01*
X391370D01*
X395369Y-5615D02*
X397368D01*
X396368D01*
Y383D01*
X395369Y-617D01*
X400367Y383D02*
X404366D01*
Y-617D01*
X400367Y-4615D01*
Y-5615D01*
X406365Y-617D02*
X407365Y383D01*
X409364D01*
X410364Y-617D01*
Y-4615D01*
X409364Y-5615D01*
X407365D01*
X406365Y-4615D01*
Y-617D01*
X357381Y11383D02*
X356381Y12383D01*
X354382D01*
X353382Y11383D01*
Y7385D01*
X354382Y6385D01*
X356381D01*
X357381Y7385D01*
X360380Y6385D02*
X362379D01*
X363379Y7385D01*
Y9384D01*
X362379Y10384D01*
X360380D01*
X359380Y9384D01*
Y7385D01*
X360380Y6385D01*
X365378Y4386D02*
Y10384D01*
X368377D01*
X369377Y9384D01*
Y7385D01*
X368377Y6385D01*
X365378D01*
X371376Y4386D02*
Y10384D01*
X374376D01*
X375375Y9384D01*
Y7385D01*
X374376Y6385D01*
X371376D01*
X380374D02*
X378374D01*
X377375Y7385D01*
Y9384D01*
X378374Y10384D01*
X380374D01*
X381373Y9384D01*
Y8384D01*
X377375D01*
X383373Y10384D02*
Y6385D01*
Y8384D01*
X384372Y9384D01*
X385372Y10384D01*
X386372D01*
X357381Y23383D02*
X356381Y24383D01*
X354382D01*
X353382Y23383D01*
Y22384D01*
X354382Y21384D01*
X356381D01*
X357381Y20384D01*
Y19385D01*
X356381Y18385D01*
X354382D01*
X353382Y19385D01*
X360380Y18385D02*
X362379D01*
X363379Y19385D01*
Y21384D01*
X362379Y22384D01*
X360380D01*
X359380Y21384D01*
Y19385D01*
X360380Y18385D01*
X365378D02*
X367378D01*
X366378D01*
Y24383D01*
X365378D01*
X374376D02*
Y18385D01*
X371376D01*
X370377Y19385D01*
Y21384D01*
X371376Y22384D01*
X374376D01*
X379374Y18385D02*
X377375D01*
X376375Y19385D01*
Y21384D01*
X377375Y22384D01*
X379374D01*
X380374Y21384D01*
Y20384D01*
X376375D01*
X382373Y22384D02*
Y18385D01*
Y20384D01*
X383373Y21384D01*
X384372Y22384D01*
X385372D01*
X394369Y18385D02*
Y24383D01*
X397368D01*
X398368Y23383D01*
Y21384D01*
X397368Y20384D01*
X394369D01*
X396368D02*
X398368Y18385D01*
X403366D02*
X401367D01*
X400367Y19385D01*
Y21384D01*
X401367Y22384D01*
X403366D01*
X404366Y21384D01*
Y20384D01*
X400367D01*
X406365Y18385D02*
X409364D01*
X410364Y19385D01*
X409364Y20384D01*
X407365D01*
X406365Y21384D01*
X407365Y22384D01*
X410364D01*
X412363Y18385D02*
X414363D01*
X413363D01*
Y22384D01*
X412363D01*
X417362Y18385D02*
X420361D01*
X421360Y19385D01*
X420361Y20384D01*
X418361D01*
X417362Y21384D01*
X418361Y22384D01*
X421360D01*
X424359Y23383D02*
Y22384D01*
X423360D01*
X425359D01*
X424359D01*
Y19385D01*
X425359Y18385D01*
X439359Y48383D02*
X443358D01*
X441358D01*
Y42385D01*
X445357Y48383D02*
Y42385D01*
Y45384D01*
X446357Y46384D01*
X448356D01*
X449356Y45384D01*
Y42385D01*
X451355D02*
X453355D01*
X452355D01*
Y46384D01*
X451355D01*
X460352D02*
X457353D01*
X456354Y45384D01*
Y43385D01*
X457353Y42385D01*
X460352D01*
X462352D02*
Y48383D01*
Y44384D02*
X465351Y46384D01*
X462352Y44384D02*
X465351Y42385D01*
X468350D02*
Y46384D01*
X471349D01*
X472348Y45384D01*
Y42385D01*
X477347D02*
X475347D01*
X474348Y43385D01*
Y45384D01*
X475347Y46384D01*
X477347D01*
X478346Y45384D01*
Y44384D01*
X474348D01*
X480346Y42385D02*
X483345D01*
X484344Y43385D01*
X483345Y44384D01*
X481346D01*
X480346Y45384D01*
X481346Y46384D01*
X484344D01*
X486344Y42385D02*
X489343D01*
X490343Y43385D01*
X489343Y44384D01*
X487344D01*
X486344Y45384D01*
X487344Y46384D01*
X490343D01*
X439359Y-120617D02*
X440359Y-119617D01*
X442358D01*
X443358Y-120617D01*
Y-124615D01*
X442358Y-125615D01*
X440359D01*
X439359Y-124615D01*
Y-120617D01*
X445357Y-125615D02*
Y-124615D01*
X446357D01*
Y-125615D01*
X445357D01*
X453355D02*
Y-119617D01*
X450355Y-122616D01*
X454354D01*
X456354Y-120617D02*
X457353Y-119617D01*
X459353D01*
X460352Y-120617D01*
Y-124615D01*
X459353Y-125615D01*
X457353D01*
X456354Y-124615D01*
Y-120617D01*
X462352Y-125615D02*
Y-121616D01*
X463351D01*
X464351Y-122616D01*
Y-125615D01*
Y-122616D01*
X465351Y-121616D01*
X466350Y-122616D01*
Y-125615D01*
X468350D02*
X470349D01*
X469349D01*
Y-121616D01*
X468350D01*
X473348Y-125615D02*
X475347D01*
X474348D01*
Y-119617D01*
X473348D01*
X439359Y-108617D02*
X440359Y-107617D01*
X442358D01*
X443358Y-108617D01*
Y-109616D01*
X442358Y-110616D01*
X441358D01*
X442358D01*
X443358Y-111616D01*
Y-112615D01*
X442358Y-113615D01*
X440359D01*
X439359Y-112615D01*
X445357Y-113615D02*
Y-112615D01*
X446357D01*
Y-113615D01*
X445357D01*
X450355Y-108617D02*
X451355Y-107617D01*
X453355D01*
X454354Y-108617D01*
Y-112615D01*
X453355Y-113615D01*
X451355D01*
X450355Y-112615D01*
Y-108617D01*
X456354Y-107617D02*
X460352D01*
Y-108617D01*
X456354Y-112615D01*
Y-113615D01*
X462352D02*
Y-109616D01*
X463351D01*
X464351Y-110616D01*
Y-113615D01*
Y-110616D01*
X465351Y-109616D01*
X466350Y-110616D01*
Y-113615D01*
X468350D02*
X470349D01*
X469349D01*
Y-109616D01*
X468350D01*
X473348Y-113615D02*
X475347D01*
X474348D01*
Y-107617D01*
X473348D01*
X442358Y-101615D02*
Y-95617D01*
X439359Y-98616D01*
X443358D01*
X445357Y-101615D02*
Y-100615D01*
X446357D01*
Y-101615D01*
X445357D01*
X450355Y-95617D02*
X454354D01*
Y-96617D01*
X450355Y-100615D01*
Y-101615D01*
X460352D02*
X456354D01*
X460352Y-97616D01*
Y-96617D01*
X459353Y-95617D01*
X457353D01*
X456354Y-96617D01*
X462352Y-101615D02*
Y-97616D01*
X463351D01*
X464351Y-98616D01*
Y-101615D01*
Y-98616D01*
X465351Y-97616D01*
X466350Y-98616D01*
Y-101615D01*
X468350D02*
X470349D01*
X469349D01*
Y-97616D01*
X468350D01*
X473348Y-101615D02*
X475347D01*
X474348D01*
Y-95617D01*
X473348D01*
X439359Y-89615D02*
X441358D01*
X440359D01*
Y-83617D01*
X439359Y-84617D01*
X444357Y-89615D02*
Y-88615D01*
X445357D01*
Y-89615D01*
X444357D01*
X449356Y-84617D02*
X450355Y-83617D01*
X452355D01*
X453355Y-84617D01*
Y-85616D01*
X452355Y-86616D01*
X451355D01*
X452355D01*
X453355Y-87616D01*
Y-88615D01*
X452355Y-89615D01*
X450355D01*
X449356Y-88615D01*
X455354Y-84617D02*
X456354Y-83617D01*
X458353D01*
X459353Y-84617D01*
Y-85616D01*
X458353Y-86616D01*
X459353Y-87616D01*
Y-88615D01*
X458353Y-89615D01*
X456354D01*
X455354Y-88615D01*
Y-87616D01*
X456354Y-86616D01*
X455354Y-85616D01*
Y-84617D01*
X456354Y-86616D02*
X458353D01*
X461352Y-89615D02*
Y-85616D01*
X462352D01*
X463351Y-86616D01*
Y-89615D01*
Y-86616D01*
X464351Y-85616D01*
X465351Y-86616D01*
Y-89615D01*
X467350D02*
X469349D01*
X468350D01*
Y-85616D01*
X467350D01*
X472348Y-89615D02*
X474348D01*
X473348D01*
Y-83617D01*
X472348D01*
X439359Y-77615D02*
X441358D01*
X440359D01*
Y-71617D01*
X439359Y-72617D01*
X444357Y-76615D02*
X445357Y-77615D01*
X447357D01*
X448356Y-76615D01*
Y-72617D01*
X447357Y-71617D01*
X445357D01*
X444357Y-72617D01*
Y-73616D01*
X445357Y-74616D01*
X448356D01*
X450355Y-77615D02*
Y-76615D01*
X451355D01*
Y-77615D01*
X450355D01*
X459353Y-71617D02*
X457353Y-72617D01*
X455354Y-74616D01*
Y-76615D01*
X456354Y-77615D01*
X458353D01*
X459353Y-76615D01*
Y-75616D01*
X458353Y-74616D01*
X455354D01*
X461352Y-76615D02*
X462352Y-77615D01*
X464351D01*
X465351Y-76615D01*
Y-72617D01*
X464351Y-71617D01*
X462352D01*
X461352Y-72617D01*
Y-73616D01*
X462352Y-74616D01*
X465351D01*
X467350Y-77615D02*
Y-73616D01*
X468350D01*
X469349Y-74616D01*
Y-77615D01*
Y-74616D01*
X470349Y-73616D01*
X471349Y-74616D01*
Y-77615D01*
X473348D02*
X475347D01*
X474348D01*
Y-73616D01*
X473348D01*
X478346Y-77615D02*
X480346D01*
X479346D01*
Y-71617D01*
X478346D01*
X439359Y-65615D02*
X441358D01*
X440359D01*
Y-59617D01*
X439359Y-60617D01*
X444357Y-65615D02*
Y-64615D01*
X445357D01*
Y-65615D01*
X444357D01*
X449356Y-60617D02*
X450355Y-59617D01*
X452355D01*
X453355Y-60617D01*
Y-61616D01*
X452355Y-62616D01*
X451355D01*
X452355D01*
X453355Y-63616D01*
Y-64615D01*
X452355Y-65615D01*
X450355D01*
X449356Y-64615D01*
X455354Y-60617D02*
X456354Y-59617D01*
X458353D01*
X459353Y-60617D01*
Y-61616D01*
X458353Y-62616D01*
X459353Y-63616D01*
Y-64615D01*
X458353Y-65615D01*
X456354D01*
X455354Y-64615D01*
Y-63616D01*
X456354Y-62616D01*
X455354Y-61616D01*
Y-60617D01*
X456354Y-62616D02*
X458353D01*
X461352Y-65615D02*
Y-61616D01*
X462352D01*
X463351Y-62616D01*
Y-65615D01*
Y-62616D01*
X464351Y-61616D01*
X465351Y-62616D01*
Y-65615D01*
X467350D02*
X469349D01*
X468350D01*
Y-61616D01*
X467350D01*
X472348Y-65615D02*
X474348D01*
X473348D01*
Y-59617D01*
X472348D01*
X439359Y-52615D02*
X440359Y-53615D01*
X442358D01*
X443358Y-52615D01*
Y-48617D01*
X442358Y-47617D01*
X440359D01*
X439359Y-48617D01*
Y-49616D01*
X440359Y-50616D01*
X443358D01*
X445357Y-53615D02*
Y-52615D01*
X446357D01*
Y-53615D01*
X445357D01*
X453355D02*
Y-47617D01*
X450355Y-50616D01*
X454354D01*
X460352Y-47617D02*
X456354D01*
Y-50616D01*
X458353Y-49616D01*
X459353D01*
X460352Y-50616D01*
Y-52615D01*
X459353Y-53615D01*
X457353D01*
X456354Y-52615D01*
X462352Y-53615D02*
Y-49616D01*
X463351D01*
X464351Y-50616D01*
Y-53615D01*
Y-50616D01*
X465351Y-49616D01*
X466350Y-50616D01*
Y-53615D01*
X468350D02*
X470349D01*
X469349D01*
Y-49616D01*
X468350D01*
X473348Y-53615D02*
X475347D01*
X474348D01*
Y-47617D01*
X473348D01*
X439359Y-41615D02*
X441358D01*
X440359D01*
Y-35617D01*
X439359Y-36617D01*
X444357Y-41615D02*
Y-40615D01*
X445357D01*
Y-41615D01*
X444357D01*
X449356Y-36617D02*
X450355Y-35617D01*
X452355D01*
X453355Y-36617D01*
Y-37616D01*
X452355Y-38616D01*
X451355D01*
X452355D01*
X453355Y-39616D01*
Y-40615D01*
X452355Y-41615D01*
X450355D01*
X449356Y-40615D01*
X455354Y-36617D02*
X456354Y-35617D01*
X458353D01*
X459353Y-36617D01*
Y-37616D01*
X458353Y-38616D01*
X459353Y-39616D01*
Y-40615D01*
X458353Y-41615D01*
X456354D01*
X455354Y-40615D01*
Y-39616D01*
X456354Y-38616D01*
X455354Y-37616D01*
Y-36617D01*
X456354Y-38616D02*
X458353D01*
X461352Y-41615D02*
Y-37616D01*
X462352D01*
X463351Y-38616D01*
Y-41615D01*
Y-38616D01*
X464351Y-37616D01*
X465351Y-38616D01*
Y-41615D01*
X467350D02*
X469349D01*
X468350D01*
Y-37616D01*
X467350D01*
X472348Y-41615D02*
X474348D01*
X473348D01*
Y-35617D01*
X472348D01*
X439359Y-29615D02*
X441358D01*
X440359D01*
Y-23617D01*
X439359Y-24617D01*
X444357Y-28615D02*
X445357Y-29615D01*
X447357D01*
X448356Y-28615D01*
Y-24617D01*
X447357Y-23617D01*
X445357D01*
X444357Y-24617D01*
Y-25616D01*
X445357Y-26616D01*
X448356D01*
X450355Y-29615D02*
Y-28615D01*
X451355D01*
Y-29615D01*
X450355D01*
X459353Y-23617D02*
X457353Y-24617D01*
X455354Y-26616D01*
Y-28615D01*
X456354Y-29615D01*
X458353D01*
X459353Y-28615D01*
Y-27616D01*
X458353Y-26616D01*
X455354D01*
X461352Y-28615D02*
X462352Y-29615D01*
X464351D01*
X465351Y-28615D01*
Y-24617D01*
X464351Y-23617D01*
X462352D01*
X461352Y-24617D01*
Y-25616D01*
X462352Y-26616D01*
X465351D01*
X467350Y-29615D02*
Y-25616D01*
X468350D01*
X469349Y-26616D01*
Y-29615D01*
Y-26616D01*
X470349Y-25616D01*
X471349Y-26616D01*
Y-29615D01*
X473348D02*
X475347D01*
X474348D01*
Y-25616D01*
X473348D01*
X478346Y-29615D02*
X480346D01*
X479346D01*
Y-23617D01*
X478346D01*
X439359Y-17615D02*
X441358D01*
X440359D01*
Y-11617D01*
X439359Y-12617D01*
X444357Y-17615D02*
Y-16615D01*
X445357D01*
Y-17615D01*
X444357D01*
X449356Y-12617D02*
X450355Y-11617D01*
X452355D01*
X453355Y-12617D01*
Y-13616D01*
X452355Y-14616D01*
X451355D01*
X452355D01*
X453355Y-15616D01*
Y-16615D01*
X452355Y-17615D01*
X450355D01*
X449356Y-16615D01*
X455354Y-12617D02*
X456354Y-11617D01*
X458353D01*
X459353Y-12617D01*
Y-13616D01*
X458353Y-14616D01*
X459353Y-15616D01*
Y-16615D01*
X458353Y-17615D01*
X456354D01*
X455354Y-16615D01*
Y-15616D01*
X456354Y-14616D01*
X455354Y-13616D01*
Y-12617D01*
X456354Y-14616D02*
X458353D01*
X461352Y-17615D02*
Y-13616D01*
X462352D01*
X463351Y-14616D01*
Y-17615D01*
Y-14616D01*
X464351Y-13616D01*
X465351Y-14616D01*
Y-17615D01*
X467350D02*
X469349D01*
X468350D01*
Y-13616D01*
X467350D01*
X472348Y-17615D02*
X474348D01*
X473348D01*
Y-11617D01*
X472348D01*
X442358Y-5615D02*
Y383D01*
X439359Y-2616D01*
X443358D01*
X445357Y-5615D02*
Y-4615D01*
X446357D01*
Y-5615D01*
X445357D01*
X450355Y383D02*
X454354D01*
Y-617D01*
X450355Y-4615D01*
Y-5615D01*
X460352D02*
X456354D01*
X460352Y-1616D01*
Y-617D01*
X459353Y383D01*
X457353D01*
X456354Y-617D01*
X462352Y-5615D02*
Y-1616D01*
X463351D01*
X464351Y-2616D01*
Y-5615D01*
Y-2616D01*
X465351Y-1616D01*
X466350Y-2616D01*
Y-5615D01*
X468350D02*
X470349D01*
X469349D01*
Y-1616D01*
X468350D01*
X473348Y-5615D02*
X475347D01*
X474348D01*
Y383D01*
X473348D01*
X439359Y11383D02*
X440359Y12383D01*
X442358D01*
X443358Y11383D01*
Y10384D01*
X442358Y9384D01*
X441358D01*
X442358D01*
X443358Y8384D01*
Y7385D01*
X442358Y6385D01*
X440359D01*
X439359Y7385D01*
X445357Y6385D02*
Y7385D01*
X446357D01*
Y6385D01*
X445357D01*
X450355Y11383D02*
X451355Y12383D01*
X453355D01*
X454354Y11383D01*
Y7385D01*
X453355Y6385D01*
X451355D01*
X450355Y7385D01*
Y11383D01*
X456354Y12383D02*
X460352D01*
Y11383D01*
X456354Y7385D01*
Y6385D01*
X462352D02*
Y10384D01*
X463351D01*
X464351Y9384D01*
Y6385D01*
Y9384D01*
X465351Y10384D01*
X466350Y9384D01*
Y6385D01*
X468350D02*
X470349D01*
X469349D01*
Y10384D01*
X468350D01*
X473348Y6385D02*
X475347D01*
X474348D01*
Y12383D01*
X473348D01*
X439359Y23383D02*
X440359Y24383D01*
X442358D01*
X443358Y23383D01*
Y19385D01*
X442358Y18385D01*
X440359D01*
X439359Y19385D01*
Y23383D01*
X445357Y18385D02*
Y19385D01*
X446357D01*
Y18385D01*
X445357D01*
X453355D02*
Y24383D01*
X450355Y21384D01*
X454354D01*
X456354Y23383D02*
X457353Y24383D01*
X459353D01*
X460352Y23383D01*
Y19385D01*
X459353Y18385D01*
X457353D01*
X456354Y19385D01*
Y23383D01*
X462352Y18385D02*
Y22384D01*
X463351D01*
X464351Y21384D01*
Y18385D01*
Y21384D01*
X465351Y22384D01*
X466350Y21384D01*
Y18385D01*
X468350D02*
X470349D01*
X469349D01*
Y22384D01*
X468350D01*
X473348Y18385D02*
X475347D01*
X474348D01*
Y24383D01*
X473348D01*
X508341Y47383D02*
X507342Y48383D01*
X505342D01*
X504343Y47383D01*
Y43385D01*
X505342Y42385D01*
X507342D01*
X508341Y43385D01*
X511340Y42385D02*
X513340D01*
X514339Y43385D01*
Y45384D01*
X513340Y46384D01*
X511340D01*
X510341Y45384D01*
Y43385D01*
X511340Y42385D01*
X516339D02*
Y46384D01*
X519338D01*
X520337Y45384D01*
Y42385D01*
X522337D02*
X525336D01*
X526335Y43385D01*
X525336Y44384D01*
X523336D01*
X522337Y45384D01*
X523336Y46384D01*
X526335D01*
X529334Y47383D02*
Y46384D01*
X528335D01*
X530334D01*
X529334D01*
Y43385D01*
X530334Y42385D01*
X534333Y46384D02*
X536332D01*
X537332Y45384D01*
Y42385D01*
X534333D01*
X533333Y43385D01*
X534333Y44384D01*
X537332D01*
X539331Y42385D02*
Y46384D01*
X542330D01*
X543330Y45384D01*
Y42385D01*
X546329Y47383D02*
Y46384D01*
X545329D01*
X547329D01*
X546329D01*
Y43385D01*
X547329Y42385D01*
X507342Y-125615D02*
Y-119617D01*
X504343Y-122616D01*
X508341D01*
X507342Y-101615D02*
Y-95617D01*
X504343Y-98616D01*
X508341D01*
X510341Y-101615D02*
Y-100615D01*
X511340D01*
Y-101615D01*
X510341D01*
X519338D02*
X515339D01*
X519338Y-97616D01*
Y-96617D01*
X518338Y-95617D01*
X516339D01*
X515339Y-96617D01*
X507342Y-77615D02*
Y-71617D01*
X504343Y-74616D01*
X508341D01*
X510341Y-77615D02*
Y-76615D01*
X511340D01*
Y-77615D01*
X510341D01*
X519338D02*
X515339D01*
X519338Y-73616D01*
Y-72617D01*
X518338Y-71617D01*
X516339D01*
X515339Y-72617D01*
X507342Y-53615D02*
Y-47617D01*
X504343Y-50616D01*
X508341D01*
X510341Y-53615D02*
Y-52615D01*
X511340D01*
Y-53615D01*
X510341D01*
X519338D02*
X515339D01*
X519338Y-49616D01*
Y-48617D01*
X518338Y-47617D01*
X516339D01*
X515339Y-48617D01*
X507342Y-29615D02*
Y-23617D01*
X504343Y-26616D01*
X508341D01*
X510341Y-29615D02*
Y-28615D01*
X511340D01*
Y-29615D01*
X510341D01*
X519338D02*
X515339D01*
X519338Y-25616D01*
Y-24617D01*
X518338Y-23617D01*
X516339D01*
X515339Y-24617D01*
X507342Y-5615D02*
Y383D01*
X504343Y-2616D01*
X508341D01*
X510341Y-5615D02*
Y-4615D01*
X511340D01*
Y-5615D01*
X510341D01*
X519338D02*
X515339D01*
X519338Y-1616D01*
Y-617D01*
X518338Y383D01*
X516339D01*
X515339Y-617D01*
X507342Y18385D02*
Y24383D01*
X504343Y21384D01*
X508341D01*
X561329Y48383D02*
Y42385D01*
X564328D01*
X565327Y43385D01*
Y44384D01*
X564328Y45384D01*
X561329D01*
X564328D01*
X565327Y46384D01*
Y47383D01*
X564328Y48383D01*
X561329D01*
X568326Y42385D02*
X570326D01*
X571325Y43385D01*
Y45384D01*
X570326Y46384D01*
X568326D01*
X567327Y45384D01*
Y43385D01*
X568326Y42385D01*
X574325Y46384D02*
X576324D01*
X577323Y45384D01*
Y42385D01*
X574325D01*
X573325Y43385D01*
X574325Y44384D01*
X577323D01*
X579323Y46384D02*
Y42385D01*
Y44384D01*
X580323Y45384D01*
X581322Y46384D01*
X582322D01*
X589320Y48383D02*
Y42385D01*
X586321D01*
X585321Y43385D01*
Y45384D01*
X586321Y46384D01*
X589320D01*
X597317Y48383D02*
Y42385D01*
X601316D01*
X604315Y46384D02*
X606314D01*
X607314Y45384D01*
Y42385D01*
X604315D01*
X603315Y43385D01*
X604315Y44384D01*
X607314D01*
X609313Y46384D02*
Y43385D01*
X610313Y42385D01*
X613312D01*
Y41385D01*
X612312Y40386D01*
X611312D01*
X613312Y42385D02*
Y46384D01*
X618310Y42385D02*
X616311D01*
X615311Y43385D01*
Y45384D01*
X616311Y46384D01*
X618310D01*
X619310Y45384D01*
Y44384D01*
X615311D01*
X621309Y46384D02*
Y42385D01*
Y44384D01*
X622309Y45384D01*
X623309Y46384D01*
X624308D01*
X637304Y47383D02*
X636304Y48383D01*
X634305D01*
X633305Y47383D01*
Y46384D01*
X634305Y45384D01*
X636304D01*
X637304Y44384D01*
Y43385D01*
X636304Y42385D01*
X634305D01*
X633305Y43385D01*
X640303Y47383D02*
Y46384D01*
X639303D01*
X641303D01*
X640303D01*
Y43385D01*
X641303Y42385D01*
X645301Y46384D02*
X647301D01*
X648301Y45384D01*
Y42385D01*
X645301D01*
X644302Y43385D01*
X645301Y44384D01*
X648301D01*
X654299Y46384D02*
X651300D01*
X650300Y45384D01*
Y43385D01*
X651300Y42385D01*
X654299D01*
X656298D02*
Y48383D01*
Y44384D02*
X659297Y46384D01*
X656298Y44384D02*
X659297Y42385D01*
G54D308*
X212417Y39385D02*
X666297D01*
X212417Y51385D02*
X666297D01*
X212417Y-140615D02*
Y51385D01*
Y-140615D02*
X253408D01*
X212417Y-128615D02*
X253408D01*
X212417Y-116615D02*
X253408D01*
X212417Y-104615D02*
X253408D01*
X212417Y-92615D02*
X253408D01*
X212417Y-80615D02*
X253408D01*
X212417Y-68615D02*
X253408D01*
X212417Y-56615D02*
X253408D01*
X212417Y-44615D02*
X253408D01*
X212417Y-32615D02*
X253408D01*
X212417Y-20615D02*
X253408D01*
X212417Y-8615D02*
X253408D01*
X212417Y3385D02*
X253408D01*
X212417Y15385D02*
X253408D01*
X212417Y27385D02*
X253408D01*
Y-140615D02*
Y51385D01*
Y-140615D02*
X346382D01*
X253408Y-128615D02*
X346382D01*
X253408Y-116615D02*
X346382D01*
X253408Y-104615D02*
X346382D01*
X253408Y-92615D02*
X346382D01*
X253408Y-80615D02*
X346382D01*
X253408Y-68615D02*
X346382D01*
X253408Y-56615D02*
X346382D01*
X253408Y-44615D02*
X346382D01*
X253408Y-32615D02*
X346382D01*
X253408Y-20615D02*
X346382D01*
X253408Y-8615D02*
X346382D01*
X253408Y3385D02*
X346382D01*
X253408Y15385D02*
X346382D01*
X253408Y27385D02*
X346382D01*
Y-140615D02*
Y51385D01*
Y-140615D02*
X432359D01*
X346382Y-128615D02*
X432359D01*
X346382Y-116615D02*
X432359D01*
X346382Y-104615D02*
X432359D01*
X346382Y-92615D02*
X432359D01*
X346382Y-80615D02*
X432359D01*
X346382Y-68615D02*
X432359D01*
X346382Y-56615D02*
X432359D01*
X346382Y-44615D02*
X432359D01*
X346382Y-32615D02*
X432359D01*
X346382Y-20615D02*
X432359D01*
X346382Y-8615D02*
X432359D01*
X346382Y3385D02*
X432359D01*
X346382Y15385D02*
X432359D01*
X346382Y27385D02*
X432359D01*
Y-140615D02*
Y51385D01*
Y-140615D02*
X497343D01*
X432359Y-128615D02*
X497343D01*
X432359Y-116615D02*
X497343D01*
X432359Y-104615D02*
X497343D01*
X432359Y-92615D02*
X497343D01*
X432359Y-80615D02*
X497343D01*
X432359Y-68615D02*
X497343D01*
X432359Y-56615D02*
X497343D01*
X432359Y-44615D02*
X497343D01*
X432359Y-32615D02*
X497343D01*
X432359Y-20615D02*
X497343D01*
X432359Y-8615D02*
X497343D01*
X432359Y3385D02*
X497343D01*
X432359Y15385D02*
X497343D01*
X432359Y27385D02*
X497343D01*
Y-140615D02*
Y51385D01*
Y-140615D02*
X554329D01*
X497343Y-128615D02*
X554329D01*
X497343Y-116615D02*
X554329D01*
X497343Y-104615D02*
X554329D01*
X497343Y-92615D02*
X554329D01*
X497343Y-80615D02*
X554329D01*
X497343Y-68615D02*
X554329D01*
X497343Y-56615D02*
X554329D01*
X497343Y-44615D02*
X554329D01*
X497343Y-32615D02*
X554329D01*
X497343Y-20615D02*
X554329D01*
X497343Y-8615D02*
X554329D01*
X497343Y3385D02*
X554329D01*
X497343Y15385D02*
X554329D01*
X497343Y27385D02*
X554329D01*
Y-140615D02*
Y51385D01*
Y-140615D02*
X666297D01*
X554329Y-128615D02*
X666297D01*
X554329Y-116615D02*
X666297D01*
X554329Y-104615D02*
X666297D01*
X554329Y-92615D02*
X666297D01*
X554329Y-80615D02*
X666297D01*
X554329Y-68615D02*
X666297D01*
X554329Y-56615D02*
X666297D01*
X554329Y-44615D02*
X666297D01*
X554329Y-32615D02*
X666297D01*
X554329Y-20615D02*
X666297D01*
X554329Y-8615D02*
X666297D01*
X554329Y3385D02*
X666297D01*
X554329Y15385D02*
X666297D01*
X554329Y27385D02*
X666297D01*
Y-140615D02*
Y51385D01*
G54D394*
X-174973Y226006D02*
Y231006D01*
X-177473Y228506D02*
X-172473D01*
X-201095Y207049D02*
X-196095D01*
X-198595Y204549D02*
Y209549D01*
X-153516Y184766D02*
Y189766D01*
X-156016Y187266D02*
X-151016D01*
X-141705Y200514D02*
Y205514D01*
X-144205Y203014D02*
X-139205D01*
X-189649Y257541D02*
X-184650D01*
X-187150Y255041D02*
Y260041D01*
X660297Y-140615D02*
X666297Y-134615D01*
X654297Y-140615D02*
X666297Y-128615D01*
X648297Y-140615D02*
X660297Y-128615D01*
X642297Y-140615D02*
X654297Y-128615D01*
X636297Y-140615D02*
X648297Y-128615D01*
X630297Y-140615D02*
X642297Y-128615D01*
X624297Y-140615D02*
X636297Y-128615D01*
X618297Y-140615D02*
X630297Y-128615D01*
X612297Y-140615D02*
X624297Y-128615D01*
X606297Y-140615D02*
X618297Y-128615D01*
X600297Y-140615D02*
X612297Y-128615D01*
X594297Y-140615D02*
X606297Y-128615D01*
X588297Y-140615D02*
X600297Y-128615D01*
X582297Y-140615D02*
X594297Y-128615D01*
X576297Y-140615D02*
X588297Y-128615D01*
X570297Y-140615D02*
X582297Y-128615D01*
X564297Y-140615D02*
X576297Y-128615D01*
X558297Y-140615D02*
X570297Y-128615D01*
X554329Y-138583D02*
X564297Y-128615D01*
X554329Y-132583D02*
X558297Y-128615D01*
X660297D02*
X666297Y-122615D01*
X654297Y-128615D02*
X666297Y-116615D01*
X648297Y-128615D02*
X660297Y-116615D01*
X642297Y-128615D02*
X654297Y-116615D01*
X636297Y-128615D02*
X648297Y-116615D01*
X630297Y-128615D02*
X642297Y-116615D01*
X624297Y-128615D02*
X636297Y-116615D01*
X618297Y-128615D02*
X630297Y-116615D01*
X612297Y-128615D02*
X624297Y-116615D01*
X606297Y-128615D02*
X618297Y-116615D01*
X600297Y-128615D02*
X612297Y-116615D01*
X594297Y-128615D02*
X606297Y-116615D01*
X588297Y-128615D02*
X600297Y-116615D01*
X582297Y-128615D02*
X594297Y-116615D01*
X576297Y-128615D02*
X588297Y-116615D01*
X570297Y-128615D02*
X582297Y-116615D01*
X564297Y-128615D02*
X576297Y-116615D01*
X558297Y-128615D02*
X570297Y-116615D01*
X554329Y-126583D02*
X564297Y-116615D01*
X554329Y-120583D02*
X558297Y-116615D01*
X660297D02*
X666297Y-110615D01*
X654297Y-116615D02*
X666297Y-104615D01*
X648297Y-116615D02*
X660297Y-104615D01*
X642297Y-116615D02*
X654297Y-104615D01*
X636297Y-116615D02*
X648297Y-104615D01*
X630297Y-116615D02*
X642297Y-104615D01*
X624297Y-116615D02*
X636297Y-104615D01*
X618297Y-116615D02*
X630297Y-104615D01*
X612297Y-116615D02*
X624297Y-104615D01*
X606297Y-116615D02*
X618297Y-104615D01*
X600297Y-116615D02*
X612297Y-104615D01*
X594297Y-116615D02*
X606297Y-104615D01*
X588297Y-116615D02*
X600297Y-104615D01*
X582297Y-116615D02*
X594297Y-104615D01*
X576297Y-116615D02*
X588297Y-104615D01*
X570297Y-116615D02*
X582297Y-104615D01*
X564297Y-116615D02*
X576297Y-104615D01*
X558297Y-116615D02*
X570297Y-104615D01*
X554329Y-114583D02*
X564297Y-104615D01*
X554329Y-108583D02*
X558297Y-104615D01*
X660297D02*
X666297Y-98615D01*
X654297Y-104615D02*
X666297Y-92615D01*
X648297Y-104615D02*
X660297Y-92615D01*
X642297Y-104615D02*
X654297Y-92615D01*
X636297Y-104615D02*
X648297Y-92615D01*
X630297Y-104615D02*
X642297Y-92615D01*
X624297Y-104615D02*
X636297Y-92615D01*
X618297Y-104615D02*
X630297Y-92615D01*
X612297Y-104615D02*
X624297Y-92615D01*
X606297Y-104615D02*
X618297Y-92615D01*
X600297Y-104615D02*
X612297Y-92615D01*
X594297Y-104615D02*
X606297Y-92615D01*
X588297Y-104615D02*
X600297Y-92615D01*
X582297Y-104615D02*
X594297Y-92615D01*
X576297Y-104615D02*
X588297Y-92615D01*
X570297Y-104615D02*
X582297Y-92615D01*
X564297Y-104615D02*
X576297Y-92615D01*
X558297Y-104615D02*
X570297Y-92615D01*
X554329Y-102583D02*
X564297Y-92615D01*
X554329Y-96583D02*
X558297Y-92615D01*
X660297D02*
X666297Y-86615D01*
X654297Y-92615D02*
X666297Y-80615D01*
X648297Y-92615D02*
X660297Y-80615D01*
X642297Y-92615D02*
X654297Y-80615D01*
X636297Y-92615D02*
X648297Y-80615D01*
X630297Y-92615D02*
X642297Y-80615D01*
X624297Y-92615D02*
X636297Y-80615D01*
X618297Y-92615D02*
X630297Y-80615D01*
X612297Y-92615D02*
X624297Y-80615D01*
X606297Y-92615D02*
X618297Y-80615D01*
X600297Y-92615D02*
X612297Y-80615D01*
X594297Y-92615D02*
X606297Y-80615D01*
X588297Y-92615D02*
X600297Y-80615D01*
X582297Y-92615D02*
X594297Y-80615D01*
X576297Y-92615D02*
X588297Y-80615D01*
X570297Y-92615D02*
X582297Y-80615D01*
X564297Y-92615D02*
X576297Y-80615D01*
X558297Y-92615D02*
X570297Y-80615D01*
X554329Y-90583D02*
X564297Y-80615D01*
X554329Y-84583D02*
X558297Y-80615D01*
X660297D02*
X666297Y-74615D01*
X654297Y-80615D02*
X666297Y-68615D01*
X648297Y-80615D02*
X660297Y-68615D01*
X642297Y-80615D02*
X654297Y-68615D01*
X636297Y-80615D02*
X648297Y-68615D01*
X630297Y-80615D02*
X642297Y-68615D01*
X624297Y-80615D02*
X636297Y-68615D01*
X618297Y-80615D02*
X630297Y-68615D01*
X612297Y-80615D02*
X624297Y-68615D01*
X606297Y-80615D02*
X618297Y-68615D01*
X600297Y-80615D02*
X612297Y-68615D01*
X594297Y-80615D02*
X606297Y-68615D01*
X588297Y-80615D02*
X600297Y-68615D01*
X582297Y-80615D02*
X594297Y-68615D01*
X576297Y-80615D02*
X588297Y-68615D01*
X570297Y-80615D02*
X582297Y-68615D01*
X564297Y-80615D02*
X576297Y-68615D01*
X558297Y-80615D02*
X570297Y-68615D01*
X554329Y-78583D02*
X564297Y-68615D01*
X554329Y-72583D02*
X558297Y-68615D01*
X660297D02*
X666297Y-62615D01*
X654297Y-68615D02*
X666297Y-56615D01*
X648297Y-68615D02*
X660297Y-56615D01*
X642297Y-68615D02*
X654297Y-56615D01*
X636297Y-68615D02*
X648297Y-56615D01*
X630297Y-68615D02*
X642297Y-56615D01*
X624297Y-68615D02*
X636297Y-56615D01*
X618297Y-68615D02*
X630297Y-56615D01*
X612297Y-68615D02*
X624297Y-56615D01*
X606297Y-68615D02*
X618297Y-56615D01*
X600297Y-68615D02*
X612297Y-56615D01*
X594297Y-68615D02*
X606297Y-56615D01*
X588297Y-68615D02*
X600297Y-56615D01*
X582297Y-68615D02*
X594297Y-56615D01*
X576297Y-68615D02*
X588297Y-56615D01*
X570297Y-68615D02*
X582297Y-56615D01*
X564297Y-68615D02*
X576297Y-56615D01*
X558297Y-68615D02*
X570297Y-56615D01*
X554329Y-66583D02*
X564297Y-56615D01*
X554329Y-60583D02*
X558297Y-56615D01*
X660297D02*
X666297Y-50615D01*
X654297Y-56615D02*
X666297Y-44615D01*
X648297Y-56615D02*
X660297Y-44615D01*
X642297Y-56615D02*
X654297Y-44615D01*
X636297Y-56615D02*
X648297Y-44615D01*
X630297Y-56615D02*
X642297Y-44615D01*
X624297Y-56615D02*
X636297Y-44615D01*
X618297Y-56615D02*
X630297Y-44615D01*
X612297Y-56615D02*
X624297Y-44615D01*
X606297Y-56615D02*
X618297Y-44615D01*
X600297Y-56615D02*
X612297Y-44615D01*
X594297Y-56615D02*
X606297Y-44615D01*
X588297Y-56615D02*
X600297Y-44615D01*
X582297Y-56615D02*
X594297Y-44615D01*
X576297Y-56615D02*
X588297Y-44615D01*
X570297Y-56615D02*
X582297Y-44615D01*
X564297Y-56615D02*
X576297Y-44615D01*
X558297Y-56615D02*
X570297Y-44615D01*
X554329Y-54583D02*
X564297Y-44615D01*
X554329Y-48583D02*
X558297Y-44615D01*
X660297D02*
X666297Y-38615D01*
X654297Y-44615D02*
X666297Y-32615D01*
X648297Y-44615D02*
X660297Y-32615D01*
X642297Y-44615D02*
X654297Y-32615D01*
X636297Y-44615D02*
X648297Y-32615D01*
X630297Y-44615D02*
X642297Y-32615D01*
X624297Y-44615D02*
X636297Y-32615D01*
X618297Y-44615D02*
X630297Y-32615D01*
X612297Y-44615D02*
X624297Y-32615D01*
X606297Y-44615D02*
X618297Y-32615D01*
X600297Y-44615D02*
X612297Y-32615D01*
X594297Y-44615D02*
X606297Y-32615D01*
X588297Y-44615D02*
X600297Y-32615D01*
X582297Y-44615D02*
X594297Y-32615D01*
X576297Y-44615D02*
X588297Y-32615D01*
X570297Y-44615D02*
X582297Y-32615D01*
X564297Y-44615D02*
X576297Y-32615D01*
X558297Y-44615D02*
X570297Y-32615D01*
X554329Y-42583D02*
X564297Y-32615D01*
X554329Y-36583D02*
X558297Y-32615D01*
X660297D02*
X666297Y-26615D01*
X654297Y-32615D02*
X666297Y-20615D01*
X648297Y-32615D02*
X660297Y-20615D01*
X642297Y-32615D02*
X654297Y-20615D01*
X636297Y-32615D02*
X648297Y-20615D01*
X630297Y-32615D02*
X642297Y-20615D01*
X624297Y-32615D02*
X636297Y-20615D01*
X618297Y-32615D02*
X630297Y-20615D01*
X612297Y-32615D02*
X624297Y-20615D01*
X606297Y-32615D02*
X618297Y-20615D01*
X600297Y-32615D02*
X612297Y-20615D01*
X594297Y-32615D02*
X606297Y-20615D01*
X588297Y-32615D02*
X600297Y-20615D01*
X582297Y-32615D02*
X594297Y-20615D01*
X576297Y-32615D02*
X588297Y-20615D01*
X570297Y-32615D02*
X582297Y-20615D01*
X564297Y-32615D02*
X576297Y-20615D01*
X558297Y-32615D02*
X570297Y-20615D01*
X554329Y-30583D02*
X564297Y-20615D01*
X554329Y-24583D02*
X558297Y-20615D01*
X660297D02*
X666297Y-14615D01*
X654297Y-20615D02*
X666297Y-8615D01*
X648297Y-20615D02*
X660297Y-8615D01*
X642297Y-20615D02*
X654297Y-8615D01*
X636297Y-20615D02*
X648297Y-8615D01*
X630297Y-20615D02*
X642297Y-8615D01*
X624297Y-20615D02*
X636297Y-8615D01*
X618297Y-20615D02*
X630297Y-8615D01*
X612297Y-20615D02*
X624297Y-8615D01*
X606297Y-20615D02*
X618297Y-8615D01*
X600297Y-20615D02*
X612297Y-8615D01*
X594297Y-20615D02*
X606297Y-8615D01*
X588297Y-20615D02*
X600297Y-8615D01*
X582297Y-20615D02*
X594297Y-8615D01*
X576297Y-20615D02*
X588297Y-8615D01*
X570297Y-20615D02*
X582297Y-8615D01*
X564297Y-20615D02*
X576297Y-8615D01*
X558297Y-20615D02*
X570297Y-8615D01*
X554329Y-18583D02*
X564297Y-8615D01*
X554329Y-12583D02*
X558297Y-8615D01*
X660297D02*
X666297Y-2615D01*
X654297Y-8615D02*
X666297Y3385D01*
X648297Y-8615D02*
X660297Y3385D01*
X642297Y-8615D02*
X654297Y3385D01*
X636297Y-8615D02*
X648297Y3385D01*
X630297Y-8615D02*
X642297Y3385D01*
X624297Y-8615D02*
X636297Y3385D01*
X618297Y-8615D02*
X630297Y3385D01*
X612297Y-8615D02*
X624297Y3385D01*
X606297Y-8615D02*
X618297Y3385D01*
X600297Y-8615D02*
X612297Y3385D01*
X594297Y-8615D02*
X606297Y3385D01*
X588297Y-8615D02*
X600297Y3385D01*
X582297Y-8615D02*
X594297Y3385D01*
X576297Y-8615D02*
X588297Y3385D01*
X570297Y-8615D02*
X582297Y3385D01*
X564297Y-8615D02*
X576297Y3385D01*
X558297Y-8615D02*
X570297Y3385D01*
X554329Y-6583D02*
X564297Y3385D01*
X554329Y-583D02*
X558297Y3385D01*
X660297D02*
X666297Y9385D01*
X654297Y3385D02*
X666297Y15385D01*
X648297Y3385D02*
X660297Y15385D01*
X642297Y3385D02*
X654297Y15385D01*
X636297Y3385D02*
X648297Y15385D01*
X630297Y3385D02*
X642297Y15385D01*
X624297Y3385D02*
X636297Y15385D01*
X618297Y3385D02*
X630297Y15385D01*
X612297Y3385D02*
X624297Y15385D01*
X606297Y3385D02*
X618297Y15385D01*
X600297Y3385D02*
X612297Y15385D01*
X594297Y3385D02*
X606297Y15385D01*
X588297Y3385D02*
X600297Y15385D01*
X582297Y3385D02*
X594297Y15385D01*
X576297Y3385D02*
X588297Y15385D01*
X570297Y3385D02*
X582297Y15385D01*
X564297Y3385D02*
X576297Y15385D01*
X558297Y3385D02*
X570297Y15385D01*
X554329Y5417D02*
X564297Y15385D01*
X554329Y11417D02*
X558297Y15385D01*
X660297D02*
X666297Y21385D01*
X654297Y15385D02*
X666297Y27385D01*
X648297Y15385D02*
X660297Y27385D01*
X642297Y15385D02*
X654297Y27385D01*
X636297Y15385D02*
X648297Y27385D01*
X630297Y15385D02*
X642297Y27385D01*
X624297Y15385D02*
X636297Y27385D01*
X618297Y15385D02*
X630297Y27385D01*
X612297Y15385D02*
X624297Y27385D01*
X606297Y15385D02*
X618297Y27385D01*
X600297Y15385D02*
X612297Y27385D01*
X594297Y15385D02*
X606297Y27385D01*
X588297Y15385D02*
X600297Y27385D01*
X582297Y15385D02*
X594297Y27385D01*
X576297Y15385D02*
X588297Y27385D01*
X570297Y15385D02*
X582297Y27385D01*
X564297Y15385D02*
X576297Y27385D01*
X558297Y15385D02*
X570297Y27385D01*
X554329Y17417D02*
X564297Y27385D01*
X554329Y23417D02*
X558297Y27385D01*
X660297D02*
X666297Y33385D01*
X654297Y27385D02*
X666297Y39385D01*
X648297Y27385D02*
X660297Y39385D01*
X642297Y27385D02*
X654297Y39385D01*
X636297Y27385D02*
X648297Y39385D01*
X630297Y27385D02*
X642297Y39385D01*
X624297Y27385D02*
X636297Y39385D01*
X618297Y27385D02*
X630297Y39385D01*
X612297Y27385D02*
X624297Y39385D01*
X606297Y27385D02*
X618297Y39385D01*
X600297Y27385D02*
X612297Y39385D01*
X594297Y27385D02*
X606297Y39385D01*
X588297Y27385D02*
X600297Y39385D01*
X582297Y27385D02*
X594297Y39385D01*
X576297Y27385D02*
X588297Y39385D01*
X570297Y27385D02*
X582297Y39385D01*
X564297Y27385D02*
X576297Y39385D01*
X558297Y27385D02*
X570297Y39385D01*
X554329Y29417D02*
X564297Y39385D01*
X554329Y35417D02*
X558297Y39385D01*
M02*
