G04*
G04 #@! TF.GenerationSoftware,Altium Limited,Altium Designer,19.1.8 (144)*
G04*
G04 Layer_Physical_Order=2*
G04 Layer_Color=1265191*
%FSLAX25Y25*%
%MOIN*%
G70*
G01*
G75*
%ADD22C,0.03500*%
%ADD299C,0.02000*%
%ADD341C,0.05800*%
%ADD346C,0.03000*%
%ADD347C,0.03800*%
%ADD348R,1.88489X0.27534*%
%ADD349C,0.04756*%
G04:AMPARAMS|DCode=350|XSize=79.433mil|YSize=79.433mil|CornerRadius=0mil|HoleSize=0mil|Usage=FLASHONLY|Rotation=0.000|XOffset=0mil|YOffset=0mil|HoleType=Round|Shape=Relief|Width=14mil|Gap=10mil|Entries=4|*
%AMTHD350*
7,0,0,0.07943,0.05943,0.01400,45*
%
%ADD350THD350*%
%ADD351C,0.05543*%
G04:AMPARAMS|DCode=352|XSize=82mil|YSize=82mil|CornerRadius=0mil|HoleSize=0mil|Usage=FLASHONLY|Rotation=0.000|XOffset=0mil|YOffset=0mil|HoleType=Round|Shape=Relief|Width=14mil|Gap=10mil|Entries=4|*
%AMTHD352*
7,0,0,0.08200,0.06200,0.01400,45*
%
%ADD352THD352*%
%ADD353C,0.06000*%
G04:AMPARAMS|DCode=354|XSize=84mil|YSize=84mil|CornerRadius=0mil|HoleSize=0mil|Usage=FLASHONLY|Rotation=0.000|XOffset=0mil|YOffset=0mil|HoleType=Round|Shape=Relief|Width=14mil|Gap=10mil|Entries=4|*
%AMTHD354*
7,0,0,0.08400,0.06400,0.01400,45*
%
%ADD354THD354*%
G04:AMPARAMS|DCode=355|XSize=162.11mil|YSize=162.11mil|CornerRadius=0mil|HoleSize=0mil|Usage=FLASHONLY|Rotation=0.000|XOffset=0mil|YOffset=0mil|HoleType=Round|Shape=Relief|Width=14mil|Gap=10mil|Entries=4|*
%AMTHD355*
7,0,0,0.16211,0.14211,0.01400,45*
%
%ADD355THD355*%
%ADD356C,0.06016*%
%ADD357C,0.06331*%
%ADD358C,0.09598*%
%ADD359C,0.08300*%
G04:AMPARAMS|DCode=360|XSize=103mil|YSize=103mil|CornerRadius=0mil|HoleSize=0mil|Usage=FLASHONLY|Rotation=0.000|XOffset=0mil|YOffset=0mil|HoleType=Round|Shape=Relief|Width=14mil|Gap=10mil|Entries=4|*
%AMTHD360*
7,0,0,0.10300,0.08300,0.01400,45*
%
%ADD360THD360*%
%ADD361C,0.10700*%
G04:AMPARAMS|DCode=362|XSize=131mil|YSize=131mil|CornerRadius=0mil|HoleSize=0mil|Usage=FLASHONLY|Rotation=0.000|XOffset=0mil|YOffset=0mil|HoleType=Round|Shape=Relief|Width=14mil|Gap=10mil|Entries=4|*
%AMTHD362*
7,0,0,0.13100,0.11100,0.01400,45*
%
%ADD362THD362*%
G54D22*
X112151Y157300D02*
D03*
X108000D02*
D03*
X107200Y148000D02*
D03*
X-13200Y66800D02*
D03*
X-71200Y16700D02*
D03*
X413900Y-21400D02*
D03*
X391872Y-27456D02*
D03*
X414777Y13290D02*
D03*
X408871D02*
D03*
X411824D02*
D03*
X445289Y13192D02*
D03*
X275100Y36300D02*
D03*
X553600Y-23100D02*
D03*
X455830Y164558D02*
D03*
X459373D02*
D03*
X455928Y167609D02*
D03*
X459373Y167806D02*
D03*
X437893Y143414D02*
D03*
X444165Y180624D02*
D03*
X447808Y184933D02*
D03*
X193320Y-14663D02*
D03*
X192161Y-1769D02*
D03*
X197651Y-14663D02*
D03*
X205110Y-26411D02*
D03*
X123054Y-26315D02*
D03*
X128204Y-25610D02*
D03*
X82300Y38300D02*
D03*
X63862Y-23136D02*
D03*
X72679Y-30507D02*
D03*
X-40264Y-26411D02*
D03*
X43686Y-23002D02*
D03*
X46677Y-25706D02*
D03*
X41527Y-26411D02*
D03*
X64700Y-27500D02*
D03*
X-33424Y-22141D02*
D03*
X-21263Y-22127D02*
D03*
X-35115Y-25706D02*
D03*
X123515Y31497D02*
D03*
X234900Y-12900D02*
D03*
X495144Y-18800D02*
D03*
X562768Y-12600D02*
D03*
X482500Y11100D02*
D03*
X486135Y-1945D02*
D03*
X405722Y13290D02*
D03*
X430700Y13300D02*
D03*
X326964Y17300D02*
D03*
X309029Y-23423D02*
D03*
X309757Y-27813D02*
D03*
X318487Y-27851D02*
D03*
X133200Y37600D02*
D03*
X122922Y39867D02*
D03*
X123021Y42722D02*
D03*
X164227Y38109D02*
D03*
X36712Y45000D02*
D03*
X227100Y-22000D02*
D03*
X235490Y-21872D02*
D03*
X235840Y-27655D02*
D03*
X210260Y-25706D02*
D03*
X207324Y-23519D02*
D03*
X185783Y48210D02*
D03*
X-52063Y38174D02*
D03*
X-52463Y32074D02*
D03*
X110285Y56644D02*
D03*
X115000Y59000D02*
D03*
X122900Y60000D02*
D03*
X118975Y59222D02*
D03*
X122500Y57000D02*
D03*
X125800Y64900D02*
D03*
X129100Y73000D02*
D03*
X129429Y64604D02*
D03*
X129576Y79565D02*
D03*
X125926Y87648D02*
D03*
X129655Y87655D02*
D03*
X145820Y86635D02*
D03*
X116900Y62300D02*
D03*
X46230Y47333D02*
D03*
X116098Y121106D02*
D03*
X113150Y123390D02*
D03*
X-61600Y64700D02*
D03*
X-63163Y57926D02*
D03*
X78593Y69410D02*
D03*
X75631Y73627D02*
D03*
X143222Y107127D02*
D03*
X122256Y87564D02*
D03*
X148500Y69600D02*
D03*
X119200Y104000D02*
D03*
X126391Y99806D02*
D03*
X142313Y113878D02*
D03*
X144107Y119294D02*
D03*
X146364Y114378D02*
D03*
X150800Y111518D02*
D03*
X147707Y119422D02*
D03*
X122246Y79459D02*
D03*
X-53673Y64124D02*
D03*
X33300Y108200D02*
D03*
X63918Y109744D02*
D03*
X60235Y109739D02*
D03*
X59537Y122948D02*
D03*
X91310Y150173D02*
D03*
X3700Y110000D02*
D03*
X3287Y105970D02*
D03*
X-74789Y-19172D02*
D03*
X-70164Y-21749D02*
D03*
X-61900Y21971D02*
D03*
Y29600D02*
D03*
X-62100Y-17800D02*
D03*
X-61637Y33600D02*
D03*
X66900Y75800D02*
D03*
X62937Y78974D02*
D03*
X29400Y48400D02*
D03*
X125949Y79622D02*
D03*
X60437Y62226D02*
D03*
X64124Y62219D02*
D03*
X88525Y71462D02*
D03*
X152860Y87015D02*
D03*
X-65845Y-20613D02*
D03*
X-6516Y-28716D02*
D03*
X-17085Y-27456D02*
D03*
X137837Y-2655D02*
D03*
Y-8757D02*
D03*
X12537Y-35727D02*
D03*
X253537Y255973D02*
D03*
X263537D02*
D03*
X283537D02*
D03*
X303537D02*
D03*
X323537D02*
D03*
X343537D02*
D03*
X363537D02*
D03*
X19061Y116128D02*
D03*
X14126Y115523D02*
D03*
X38100Y180800D02*
D03*
X33700Y159200D02*
D03*
X29268Y166513D02*
D03*
X34111Y149312D02*
D03*
X36511Y147612D02*
D03*
X271778Y145700D02*
D03*
X378152Y129776D02*
D03*
X273023Y152963D02*
D03*
X92399Y173488D02*
D03*
X102441Y173538D02*
D03*
X153267Y134933D02*
D03*
X115810Y147831D02*
D03*
X-38900Y186200D02*
D03*
X25782Y179435D02*
D03*
X44937Y152326D02*
D03*
Y149426D02*
D03*
X42637Y147626D02*
D03*
X36410Y154012D02*
D03*
X55465Y149281D02*
D03*
X251200Y151500D02*
D03*
X25573Y166212D02*
D03*
X9312Y-42799D02*
D03*
X22500Y154300D02*
D03*
X367163Y129795D02*
D03*
X370753Y129924D02*
D03*
X585600Y196100D02*
D03*
X573900Y148634D02*
D03*
X423241Y112699D02*
D03*
X431196Y124689D02*
D03*
X134828Y153400D02*
D03*
X42537Y154026D02*
D03*
X409136Y185120D02*
D03*
X371436D02*
D03*
X415017Y169097D02*
D03*
X400793Y149950D02*
D03*
X367400Y125000D02*
D03*
X381349Y116923D02*
D03*
X87463Y173488D02*
D03*
X228380Y-27688D02*
D03*
X263211Y-39307D02*
D03*
X238279Y-38714D02*
D03*
X506931Y17977D02*
D03*
X71301Y154690D02*
D03*
X68446D02*
D03*
X78922Y139537D02*
D03*
X599021Y-110056D02*
D03*
X604169Y-107092D02*
D03*
X623489Y-165326D02*
D03*
X617873Y-160178D02*
D03*
X612827Y-155608D02*
D03*
X599021Y-128854D02*
D03*
X617561Y-153704D02*
D03*
X628403Y-163610D02*
D03*
X631835Y-153938D02*
D03*
X626297D02*
D03*
X589271Y75974D02*
D03*
X632147Y-176324D02*
D03*
X480623Y63487D02*
D03*
X473129Y103324D02*
D03*
X469107Y100396D02*
D03*
X204977Y41616D02*
D03*
X200505Y48132D02*
D03*
X189819Y51262D02*
D03*
X588701Y-168778D02*
D03*
X99629Y-38913D02*
D03*
X92257Y-40680D02*
D03*
X173950Y-40877D02*
D03*
X503478Y-32511D02*
D03*
X507867Y-39009D02*
D03*
X423537Y255973D02*
D03*
X403537D02*
D03*
X383537D02*
D03*
X424263Y-225298D02*
D03*
X342363Y-224440D02*
D03*
X97729Y-224230D02*
D03*
X101239Y-228286D02*
D03*
X97105Y-227662D02*
D03*
X505617Y-225220D02*
D03*
X509127Y-229276D02*
D03*
X504993Y-228652D02*
D03*
X427773Y-229354D02*
D03*
X423639Y-228730D02*
D03*
X345873Y-228496D02*
D03*
X341739Y-227872D02*
D03*
X180019Y-225375D02*
D03*
X183529Y-229431D02*
D03*
X179395Y-228807D02*
D03*
X263446Y-159464D02*
D03*
X265649Y-161667D02*
D03*
X267833Y-163539D02*
D03*
X17843Y-228669D02*
D03*
X21977Y-229293D02*
D03*
X18467Y-225237D02*
D03*
X291345Y-166323D02*
D03*
Y-172330D02*
D03*
X-22618Y-166323D02*
D03*
Y-172131D02*
D03*
X-22615Y-153528D02*
D03*
X-35607Y-159729D02*
D03*
X-22618D02*
D03*
X-35607Y-172330D02*
D03*
Y-166323D02*
D03*
X-35611Y-153528D02*
D03*
X59313Y-166323D02*
D03*
X59316Y-153528D02*
D03*
X46324Y-172330D02*
D03*
Y-166323D02*
D03*
X46321Y-153528D02*
D03*
X59313Y-159729D02*
D03*
Y-172131D02*
D03*
X46324Y-159729D02*
D03*
X-19694Y-145357D02*
D03*
X-23089Y-141924D02*
D03*
X127690Y-153528D02*
D03*
X110411Y-146946D02*
D03*
X110264Y-139976D02*
D03*
X127693Y-159729D02*
D03*
X197388Y-140054D02*
D03*
Y-150684D02*
D03*
X209578Y-159729D02*
D03*
X197388Y-144779D02*
D03*
X209575Y-153528D02*
D03*
X192466Y-147042D02*
D03*
X192320Y-140072D02*
D03*
X278915Y-145076D02*
D03*
Y-140352D02*
D03*
X283886Y-147525D02*
D03*
X284033Y-140555D02*
D03*
X291342Y-153528D02*
D03*
X291345Y-159729D02*
D03*
X278915Y-150982D02*
D03*
X369977Y-145357D02*
D03*
X373187Y-153528D02*
D03*
X365942Y-147227D02*
D03*
X366088Y-140257D02*
D03*
X373191Y-159729D02*
D03*
X467596Y-172131D02*
D03*
Y-159729D02*
D03*
X454607Y-172330D02*
D03*
X454604Y-153528D02*
D03*
X451277Y-145357D02*
D03*
X454672Y-141924D02*
D03*
X467596Y-166323D02*
D03*
X467599Y-153528D02*
D03*
X454607Y-159729D02*
D03*
Y-166323D02*
D03*
X548747D02*
D03*
X548750Y-153528D02*
D03*
X535755D02*
D03*
X548747Y-159729D02*
D03*
X535758Y-172330D02*
D03*
Y-166323D02*
D03*
Y-159729D02*
D03*
X548747Y-172131D02*
D03*
X386179Y-166323D02*
D03*
Y-172131D02*
D03*
X373191Y-172330D02*
D03*
X386179Y-159729D02*
D03*
X373191Y-166323D02*
D03*
X386183Y-153528D02*
D03*
X304334Y-166323D02*
D03*
Y-172131D02*
D03*
X304337Y-153528D02*
D03*
X304334Y-159729D02*
D03*
X222567Y-172131D02*
D03*
Y-159729D02*
D03*
X209578Y-166323D02*
D03*
X222570Y-153528D02*
D03*
X209578Y-172330D02*
D03*
X222567Y-166323D02*
D03*
X140682Y-159729D02*
D03*
X140685Y-153528D02*
D03*
X127693Y-172330D02*
D03*
Y-166323D02*
D03*
X140682Y-172131D02*
D03*
Y-166323D02*
D03*
X360970Y-150684D02*
D03*
X271499Y92276D02*
D03*
X613061Y-136732D02*
D03*
X622109Y-96796D02*
D03*
X643169Y-129946D02*
D03*
X623669Y-126124D02*
D03*
X608771Y-50698D02*
D03*
X588647Y-50230D02*
D03*
X588803Y-58264D02*
D03*
X608771Y-58498D02*
D03*
X620003Y-70120D02*
D03*
X602531Y-63880D02*
D03*
X595589Y-63958D02*
D03*
X595199Y-45004D02*
D03*
X602687D02*
D03*
X643247Y-52024D02*
D03*
X627725Y-37204D02*
D03*
X585137Y-51790D02*
D03*
X599021Y-45004D02*
D03*
X608771Y-54364D02*
D03*
X598943Y-63958D02*
D03*
X588881Y-54286D02*
D03*
X586385Y-67936D02*
D03*
X587477Y-39076D02*
D03*
X589973Y-129088D02*
D03*
X609239Y-130414D02*
D03*
X616259Y-115906D02*
D03*
X583421Y-129946D02*
D03*
X603701Y-135406D02*
D03*
X616805Y-124330D02*
D03*
X615791Y-107560D02*
D03*
X592703Y-107014D02*
D03*
X583109Y-117232D02*
D03*
X589739Y-119416D02*
D03*
X608459Y-119260D02*
D03*
X611657Y162476D02*
D03*
X591611Y160838D02*
D03*
X590987Y184706D02*
D03*
X599489Y164270D02*
D03*
X552221Y148904D02*
D03*
X552143Y111932D02*
D03*
X538727Y111854D02*
D03*
X528587Y111464D02*
D03*
X524141Y111152D02*
D03*
X544889Y124256D02*
D03*
X539195D02*
D03*
X534827D02*
D03*
X543875Y134396D02*
D03*
X539039D02*
D03*
X534437D02*
D03*
X543600Y140500D02*
D03*
X579287Y139544D02*
D03*
X558383Y139388D02*
D03*
X562205D02*
D03*
X575777Y139622D02*
D03*
X588569Y127532D02*
D03*
X588413Y149294D02*
D03*
X599099Y127220D02*
D03*
X589349Y140792D02*
D03*
X599099Y131744D02*
D03*
X610799Y127298D02*
D03*
X614933Y129092D02*
D03*
X614543Y135410D02*
D03*
X602219Y153974D02*
D03*
X594029D02*
D03*
X599099Y150464D02*
D03*
X610955Y154052D02*
D03*
X614543Y151010D02*
D03*
Y145316D02*
D03*
X609083Y140792D02*
D03*
X503861Y138439D02*
D03*
X619691Y76988D02*
D03*
X608693Y75974D02*
D03*
X591065Y64898D02*
D03*
X590441Y90092D02*
D03*
X606431Y89936D02*
D03*
X614075Y89312D02*
D03*
X619535Y87362D02*
D03*
X619223Y68720D02*
D03*
X614153Y64976D02*
D03*
X599099Y64898D02*
D03*
X599567Y86036D02*
D03*
X584357Y71606D02*
D03*
Y82136D02*
D03*
Y76926D02*
D03*
X553235Y71840D02*
D03*
Y77066D02*
D03*
X553157Y81980D02*
D03*
X578741Y67004D02*
D03*
X572891Y67082D02*
D03*
X564857Y67004D02*
D03*
X599177Y182834D02*
D03*
X589661Y173240D02*
D03*
X608303Y173552D02*
D03*
X612515Y175502D02*
D03*
X611891Y188920D02*
D03*
X516756Y38450D02*
D03*
X508619Y36350D02*
D03*
X505889Y42834D02*
D03*
X531005Y26366D02*
D03*
X512051Y26054D02*
D03*
X512675Y12560D02*
D03*
X531317Y12248D02*
D03*
X521801Y19502D02*
D03*
X512363Y6086D02*
D03*
X522035Y5930D02*
D03*
X532721Y6554D02*
D03*
X550739Y38456D02*
D03*
X542003Y38378D02*
D03*
X527261Y45788D02*
D03*
X534983Y47192D02*
D03*
X517901Y48050D02*
D03*
X520865Y55460D02*
D03*
X526247Y55382D02*
D03*
X532721Y55304D02*
D03*
X592235Y23792D02*
D03*
X589115Y-2338D02*
D03*
X611345Y-1948D02*
D03*
X611657Y22622D02*
D03*
X599099Y20516D02*
D03*
X609083Y10688D02*
D03*
X599333Y548D02*
D03*
X588725Y10532D02*
D03*
X571955Y5526D02*
D03*
X575056D02*
D03*
X565013Y12248D02*
D03*
X565481Y19112D02*
D03*
X565559Y26210D02*
D03*
X184115Y95194D02*
D03*
X178747Y98728D02*
D03*
X582461Y-147152D02*
D03*
X630977Y-169694D02*
D03*
X631289Y-147308D02*
D03*
X617249Y-142082D02*
D03*
X625205Y-142160D02*
D03*
X583006Y-165779D02*
D03*
X588857Y-141458D02*
D03*
X583241D02*
D03*
X635891Y-199361D02*
D03*
X597359Y-199568D02*
D03*
X622838Y-199334D02*
D03*
X600557Y-176324D02*
D03*
X565145Y-22976D02*
D03*
X395801Y162352D02*
D03*
X323027Y149638D02*
D03*
X358127Y162306D02*
D03*
X320714D02*
D03*
X359843Y149950D02*
D03*
X402025Y157188D02*
D03*
X409899Y165849D02*
D03*
X364325Y157188D02*
D03*
X372199Y165849D02*
D03*
X377317Y169097D02*
D03*
X382922Y152963D02*
D03*
X326625Y157188D02*
D03*
X334499Y165849D02*
D03*
X339617Y169097D02*
D03*
X333736Y185120D02*
D03*
X345222Y152963D02*
D03*
X288925Y157188D02*
D03*
X296799Y165849D02*
D03*
X301918Y169097D02*
D03*
X296036Y185120D02*
D03*
X307523Y152963D02*
D03*
X351588Y143900D02*
D03*
X382592Y119423D02*
D03*
X435195Y124610D02*
D03*
X549449Y196334D02*
D03*
Y203767D02*
D03*
X591949D02*
D03*
X558615Y188900D02*
D03*
X549449D02*
D03*
X597227Y203894D02*
D03*
X591949Y196267D02*
D03*
X558615Y181400D02*
D03*
X576949Y188607D02*
D03*
X576949Y181267D02*
D03*
X549449Y181400D02*
D03*
X567782Y188767D02*
D03*
Y181267D02*
D03*
X576949Y158767D02*
D03*
X567782Y166267D02*
D03*
X574449D02*
D03*
X576949Y173767D02*
D03*
X567782D02*
D03*
X558615D02*
D03*
Y166267D02*
D03*
X564400Y158800D02*
D03*
X556949Y158767D02*
D03*
X549449D02*
D03*
Y166267D02*
D03*
Y173767D02*
D03*
X426949Y69323D02*
D03*
X489449D02*
D03*
X496949D02*
D03*
X504449D02*
D03*
X509449Y59323D02*
D03*
X504449Y61823D02*
D03*
X496949D02*
D03*
X489449D02*
D03*
X509449Y76823D02*
D03*
X504449D02*
D03*
X499449D02*
D03*
X494449D02*
D03*
X489449D02*
D03*
X513648Y94323D02*
D03*
X484449Y76823D02*
D03*
X449054Y61823D02*
D03*
X454449D02*
D03*
X461949Y61538D02*
D03*
Y68423D02*
D03*
X454449Y68749D02*
D03*
X446949D02*
D03*
X469107Y94122D02*
D03*
X464449Y76823D02*
D03*
X459449D02*
D03*
X454449D02*
D03*
X449449D02*
D03*
X444449D02*
D03*
X439449D02*
D03*
X426949Y61823D02*
D03*
X417187Y69323D02*
D03*
X411949Y61823D02*
D03*
X404879D02*
D03*
X399449Y91823D02*
D03*
Y96823D02*
D03*
X391949D02*
D03*
Y91823D02*
D03*
X426949Y86823D02*
D03*
Y81823D02*
D03*
Y76423D02*
D03*
X416949Y76623D02*
D03*
X411949Y76823D02*
D03*
X406949D02*
D03*
X402030D02*
D03*
X396949D02*
D03*
X324816Y109943D02*
D03*
X317828Y111026D02*
D03*
X316450Y105810D02*
D03*
X417828Y18802D02*
D03*
X417069Y32052D02*
D03*
X448340Y13192D02*
D03*
X442237D02*
D03*
X425800Y19195D02*
D03*
X422749D02*
D03*
X437119D02*
D03*
X434068D02*
D03*
X431017D02*
D03*
X437119Y13192D02*
D03*
X398635Y63880D02*
D03*
X393615Y63782D02*
D03*
X436135Y63093D02*
D03*
X283214Y162307D02*
D03*
X279424Y149100D02*
D03*
X267418Y169097D02*
D03*
X254426Y157188D02*
D03*
X262300Y165849D02*
D03*
X301981Y92227D02*
D03*
X369796Y48526D02*
D03*
X334757Y47936D02*
D03*
X313351Y16884D02*
D03*
X313104Y62109D02*
D03*
X304344Y48526D02*
D03*
X301391Y52660D02*
D03*
X328094Y57551D02*
D03*
X364383Y107286D02*
D03*
X368714Y99018D02*
D03*
X358576Y107089D02*
D03*
X254013Y50612D02*
D03*
X270190Y32778D02*
D03*
X277398Y67621D02*
D03*
X282000Y89869D02*
D03*
X149513Y94003D02*
D03*
X264184Y85243D02*
D03*
X266253Y66439D02*
D03*
X339186Y120081D02*
D03*
X338792Y144392D02*
D03*
X351336Y139608D02*
D03*
X341354Y131505D02*
D03*
X350210Y125691D02*
D03*
X341225Y135827D02*
D03*
X345556Y131496D02*
D03*
X-81975Y-38088D02*
D03*
X-56660Y-33889D02*
D03*
X333970Y-22242D02*
D03*
X154829Y-22341D02*
D03*
X145281Y-23325D02*
D03*
X154614Y-27458D02*
D03*
X156223Y-38618D02*
D03*
X145958Y-27419D02*
D03*
X102655Y-59378D02*
D03*
X138753Y-131395D02*
D03*
X129600Y-131494D02*
D03*
X162557Y-109858D02*
D03*
X157699Y-135449D02*
D03*
X152631Y-135431D02*
D03*
Y-139958D02*
D03*
X145249Y-131395D02*
D03*
X147513Y-135634D02*
D03*
Y-140161D02*
D03*
X143624Y-145261D02*
D03*
X147660Y-147131D02*
D03*
X140230Y-141828D02*
D03*
X152631Y-144683D02*
D03*
X157552Y-146946D02*
D03*
X152631Y-150588D02*
D03*
X122714Y-131580D02*
D03*
X120450Y-135634D02*
D03*
X115332Y-135431D02*
D03*
X110264Y-135449D02*
D03*
X127734Y-141828D02*
D03*
X120450Y-140161D02*
D03*
X124339Y-145261D02*
D03*
X120304Y-147131D02*
D03*
X115332Y-139958D02*
D03*
Y-144683D02*
D03*
Y-150588D02*
D03*
X166514Y-116330D02*
D03*
X147739Y-63323D02*
D03*
X153861Y-55055D02*
D03*
X154018Y-50193D02*
D03*
X158979Y-43146D02*
D03*
X105557Y-76697D02*
D03*
X155337Y-43047D02*
D03*
X109176Y-76807D02*
D03*
X153955Y-76878D02*
D03*
X157555Y-76778D02*
D03*
X152582Y-38520D02*
D03*
X125269Y-23423D02*
D03*
X114325Y-63013D02*
D03*
X96529Y-120568D02*
D03*
X114688Y-66669D02*
D03*
X98400Y-117117D02*
D03*
X118920Y-69130D02*
D03*
X98555Y-99978D02*
D03*
X122456Y-70778D02*
D03*
X99137Y-103579D02*
D03*
X127820Y-72343D02*
D03*
X128656Y-117878D02*
D03*
X139155Y-117378D02*
D03*
X135132Y-72343D02*
D03*
X138655Y-75978D02*
D03*
X134956Y-84478D02*
D03*
X140556Y-113978D02*
D03*
X140455Y-70478D02*
D03*
X136955Y-88878D02*
D03*
X144055Y-69878D02*
D03*
X138356Y-102178D02*
D03*
X168674Y-113383D02*
D03*
X149256Y-66978D02*
D03*
X159963Y-103443D02*
D03*
X161588Y-117124D02*
D03*
X156616Y-103461D02*
D03*
X157699Y-107496D02*
D03*
Y-112024D02*
D03*
X154600Y-117124D02*
D03*
X157552Y-118994D02*
D03*
X111347Y-103461D02*
D03*
X113363Y-117124D02*
D03*
X110264Y-112024D02*
D03*
X110411Y-118994D02*
D03*
X108000Y-103443D02*
D03*
X110264Y-107496D02*
D03*
X105682Y-109840D02*
D03*
X128056Y-84478D02*
D03*
X124686Y-76278D02*
D03*
X122714Y-103627D02*
D03*
X125308Y-110043D02*
D03*
X127455Y-113578D02*
D03*
X124339Y-117308D02*
D03*
X119367Y-103646D02*
D03*
X120450Y-112208D02*
D03*
Y-107681D02*
D03*
X120348Y-118797D02*
D03*
X117351Y-117308D02*
D03*
X148596Y-103461D02*
D03*
X147513Y-107496D02*
D03*
X150612Y-117124D02*
D03*
X147513Y-112024D02*
D03*
X147660Y-118994D02*
D03*
X145249Y-103443D02*
D03*
X142655Y-109858D02*
D03*
X143624Y-117124D02*
D03*
X38820Y-118893D02*
D03*
X65986Y-135730D02*
D03*
X58702Y-141924D02*
D03*
X33805Y-135527D02*
D03*
Y-144779D02*
D03*
X63722Y-131491D02*
D03*
X65986Y-140257D02*
D03*
X41187Y-131676D02*
D03*
X33805Y-140054D02*
D03*
X42812Y-145357D02*
D03*
X76172Y-135545D02*
D03*
X71104Y-150684D02*
D03*
Y-144779D02*
D03*
Y-135527D02*
D03*
X46206Y-141924D02*
D03*
X38923Y-135730D02*
D03*
X28737Y-135545D02*
D03*
X71104Y-140054D02*
D03*
X38923Y-140257D02*
D03*
X28737Y-140072D02*
D03*
X21128Y-59474D02*
D03*
X72334Y-55151D02*
D03*
X72491Y-50289D02*
D03*
X18102Y-39009D02*
D03*
X57128Y-76074D02*
D03*
X53428Y-84574D02*
D03*
X59028Y-114074D02*
D03*
X81030Y-109954D02*
D03*
X87147Y-113479D02*
D03*
X67728Y-67074D02*
D03*
X33161Y-66765D02*
D03*
X16873Y-117213D02*
D03*
X84987Y-116426D02*
D03*
X66212Y-63419D02*
D03*
X57628Y-117474D02*
D03*
X53604Y-72439D02*
D03*
X62528Y-69974D02*
D03*
X56828Y-102274D02*
D03*
X58928Y-70574D02*
D03*
X55428Y-88974D02*
D03*
X74696Y-38714D02*
D03*
X72428Y-76974D02*
D03*
X76028Y-76874D02*
D03*
X71054Y-38616D02*
D03*
X46293Y-72439D02*
D03*
X47128Y-117974D02*
D03*
X32798Y-63109D02*
D03*
X15002Y-120664D02*
D03*
X40928Y-70874D02*
D03*
X17609Y-103675D02*
D03*
X37393Y-69226D02*
D03*
X17028Y-100074D02*
D03*
X73810Y-43143D02*
D03*
X27649Y-76903D02*
D03*
X77452Y-43242D02*
D03*
X24029Y-76793D02*
D03*
X62097Y-145357D02*
D03*
X66132Y-147227D02*
D03*
X76025Y-147042D02*
D03*
X62097Y-117219D02*
D03*
X78435Y-103538D02*
D03*
X80061Y-117219D02*
D03*
X75089Y-103557D02*
D03*
X76172Y-107592D02*
D03*
Y-112119D02*
D03*
X76025Y-119090D02*
D03*
X73072Y-117219D02*
D03*
X28883Y-147042D02*
D03*
X38776Y-147227D02*
D03*
X67069Y-103557D02*
D03*
X69085Y-117219D02*
D03*
X65986Y-107592D02*
D03*
Y-112119D02*
D03*
X63722Y-103538D02*
D03*
X66132Y-119090D02*
D03*
X61128Y-109954D02*
D03*
X57226Y-131491D02*
D03*
X48072Y-131590D02*
D03*
X29820Y-103557D02*
D03*
X31836Y-117219D02*
D03*
X28883Y-119090D02*
D03*
X28737Y-107592D02*
D03*
Y-112119D02*
D03*
X26473Y-103538D02*
D03*
X24155Y-109936D02*
D03*
X46528Y-84574D02*
D03*
X43159Y-76374D02*
D03*
X41187Y-103723D02*
D03*
X43781Y-110139D02*
D03*
X45928Y-113674D02*
D03*
X42812Y-117404D02*
D03*
X38923Y-107777D02*
D03*
X37840Y-103742D02*
D03*
X38923Y-112304D02*
D03*
X35824Y-117404D02*
D03*
X254202Y69319D02*
D03*
X150997Y117621D02*
D03*
X151384Y106110D02*
D03*
X152762Y102075D02*
D03*
X183970Y76774D02*
D03*
X181109Y91936D02*
D03*
X194403Y94392D02*
D03*
X173045Y82187D02*
D03*
X168911Y48625D02*
D03*
X201620Y37708D02*
D03*
X331411Y128054D02*
D03*
X331677Y132428D02*
D03*
X331734Y137611D02*
D03*
X156108Y-2064D02*
D03*
X181962Y-13088D02*
D03*
X161037Y-8757D02*
D03*
X165171Y-12793D02*
D03*
X187210Y35847D02*
D03*
X84629Y71075D02*
D03*
X96793Y71849D02*
D03*
X-75480Y-43481D02*
D03*
X266238Y-59772D02*
D03*
X302336Y-131789D02*
D03*
X293182Y-131887D02*
D03*
X326139Y-110252D02*
D03*
X291787Y-26003D02*
D03*
X321282Y-135842D02*
D03*
X316214Y-135824D02*
D03*
Y-140352D02*
D03*
X308832Y-131789D02*
D03*
X311096Y-136027D02*
D03*
Y-140555D02*
D03*
X307207Y-145655D02*
D03*
X303812Y-142222D02*
D03*
X311242Y-147525D02*
D03*
X321135Y-147340D02*
D03*
X316214Y-145076D02*
D03*
Y-150982D02*
D03*
X273993Y-147340D02*
D03*
X286297Y-131974D02*
D03*
X284033Y-136027D02*
D03*
X278915Y-135824D02*
D03*
X273847Y-135842D02*
D03*
X291316Y-142222D02*
D03*
X287922Y-145655D02*
D03*
X273847Y-140370D02*
D03*
X330096Y-116724D02*
D03*
X311322Y-63716D02*
D03*
X317444Y-55449D02*
D03*
X317601Y-50586D02*
D03*
X322562Y-43539D02*
D03*
X269139Y-77091D02*
D03*
X318920Y-43441D02*
D03*
X272759Y-77201D02*
D03*
X319806Y-39012D02*
D03*
X317538Y-77271D02*
D03*
X321138Y-77171D02*
D03*
X316164Y-38913D02*
D03*
X288851Y-23816D02*
D03*
X286637Y-26708D02*
D03*
X254659Y-41664D02*
D03*
X277908Y-63407D02*
D03*
X260111Y-120962D02*
D03*
X278270Y-67063D02*
D03*
X261983Y-117511D02*
D03*
X282503Y-69524D02*
D03*
X262138Y-100372D02*
D03*
X286038Y-71171D02*
D03*
X262719Y-103972D02*
D03*
X291403Y-72737D02*
D03*
X292238Y-118272D02*
D03*
X302738Y-117771D02*
D03*
X298714Y-72737D02*
D03*
X302238Y-76372D02*
D03*
X298538Y-84872D02*
D03*
X304138Y-114372D02*
D03*
X304038Y-70872D02*
D03*
X300538Y-89271D02*
D03*
X307638Y-70271D02*
D03*
X301938Y-102571D02*
D03*
X332257Y-113777D02*
D03*
X312838Y-67371D02*
D03*
X323545Y-103836D02*
D03*
X325170Y-117517D02*
D03*
X320199Y-103854D02*
D03*
X321282Y-107890D02*
D03*
Y-112417D02*
D03*
X318182Y-117517D02*
D03*
X321135Y-119387D02*
D03*
X274929Y-103854D02*
D03*
X276946Y-117517D02*
D03*
X273847Y-112417D02*
D03*
X273993Y-119387D02*
D03*
X271583Y-103836D02*
D03*
X273847Y-107890D02*
D03*
X269265Y-110234D02*
D03*
X291638Y-84872D02*
D03*
X288269Y-76671D02*
D03*
X286297Y-104021D02*
D03*
X288891Y-110437D02*
D03*
X291038Y-113971D02*
D03*
X287922Y-117702D02*
D03*
X282950Y-104039D02*
D03*
X284033Y-112602D02*
D03*
Y-108075D02*
D03*
X283930Y-119190D02*
D03*
X280933Y-117702D02*
D03*
X312178Y-103854D02*
D03*
X311096Y-107890D02*
D03*
X314195Y-117517D02*
D03*
X311096Y-112417D02*
D03*
X311242Y-119387D02*
D03*
X308832Y-103836D02*
D03*
X306238Y-110252D02*
D03*
X307207Y-117517D02*
D03*
X515804Y-17729D02*
D03*
X-77238Y-39224D02*
D03*
X-10687Y-135527D02*
D03*
Y-144779D02*
D03*
Y-150684D02*
D03*
X-42869Y-135730D02*
D03*
X-35585Y-141924D02*
D03*
X-18069Y-131491D02*
D03*
X-10687Y-140054D02*
D03*
X-40605Y-131676D02*
D03*
X-42869Y-140257D02*
D03*
X-5620Y-135545D02*
D03*
X-15805Y-135730D02*
D03*
X-47987Y-150684D02*
D03*
Y-144779D02*
D03*
Y-135527D02*
D03*
X-53054Y-135545D02*
D03*
X-15805Y-140257D02*
D03*
X-38980Y-145357D02*
D03*
X-47987Y-140054D02*
D03*
X-53054Y-140072D02*
D03*
X-60663Y-59474D02*
D03*
X-24565Y-131491D02*
D03*
X-33719Y-131590D02*
D03*
X-762Y-109954D02*
D03*
X-15659Y-147227D02*
D03*
X-5766Y-147042D02*
D03*
X-52908D02*
D03*
X-43015Y-147227D02*
D03*
X-63690Y-39009D02*
D03*
X3195Y-116426D02*
D03*
X-15579Y-63419D02*
D03*
X-9457Y-55151D02*
D03*
X-9300Y-50289D02*
D03*
X-4339Y-43242D02*
D03*
X-57762Y-76793D02*
D03*
X-7981Y-43143D02*
D03*
X-54142Y-76903D02*
D03*
X-7095Y-38714D02*
D03*
X-9363Y-76974D02*
D03*
X-5763Y-76874D02*
D03*
X-10737Y-38616D02*
D03*
X-48993Y-63109D02*
D03*
X-66790Y-120664D02*
D03*
X-48631Y-66765D02*
D03*
X-64918Y-117213D02*
D03*
X-44398Y-69226D02*
D03*
X-64763Y-100074D02*
D03*
X-40863Y-70874D02*
D03*
X-64182Y-103675D02*
D03*
X-35498Y-72439D02*
D03*
X-34663Y-117974D02*
D03*
X-24163Y-117474D02*
D03*
X-28187Y-72439D02*
D03*
X-24663Y-76074D02*
D03*
X-28363Y-84574D02*
D03*
X-22763Y-114074D02*
D03*
X-22863Y-70574D02*
D03*
X-26363Y-88974D02*
D03*
X-19263Y-69974D02*
D03*
X-24963Y-102274D02*
D03*
X5356Y-113479D02*
D03*
X-14063Y-67074D02*
D03*
X-3356Y-103538D02*
D03*
X-1731Y-117219D02*
D03*
X-6702Y-103557D02*
D03*
X-5620Y-107592D02*
D03*
Y-112119D02*
D03*
X-8719Y-117219D02*
D03*
X-5766Y-119090D02*
D03*
X-51972Y-103557D02*
D03*
X-49955Y-117219D02*
D03*
X-53054Y-107592D02*
D03*
Y-112119D02*
D03*
X-52908Y-119090D02*
D03*
X-55318Y-103538D02*
D03*
X-57636Y-109936D02*
D03*
X-35263Y-84574D02*
D03*
X-38632Y-76374D02*
D03*
X-40605Y-103723D02*
D03*
X-38011Y-110139D02*
D03*
X-35863Y-113674D02*
D03*
X-38980Y-117404D02*
D03*
X-43951Y-103742D02*
D03*
X-42869Y-112304D02*
D03*
Y-107777D02*
D03*
X-42971Y-118893D02*
D03*
X-45968Y-117404D02*
D03*
X-14723Y-103557D02*
D03*
X-12706Y-117219D02*
D03*
X-15805Y-107592D02*
D03*
Y-112119D02*
D03*
X-18069Y-103538D02*
D03*
X-15659Y-119090D02*
D03*
X-19694Y-117219D02*
D03*
X-20663Y-109954D02*
D03*
X555751Y-135730D02*
D03*
X548468Y-141924D02*
D03*
X523570Y-150684D02*
D03*
Y-144779D02*
D03*
Y-135527D02*
D03*
X530952Y-131676D02*
D03*
X555751Y-140257D02*
D03*
X532577Y-145357D02*
D03*
X523570Y-140054D02*
D03*
X565937Y-135545D02*
D03*
X560869Y-135527D02*
D03*
Y-144779D02*
D03*
Y-150684D02*
D03*
X535972Y-141924D02*
D03*
X528688Y-135730D02*
D03*
X518502Y-135545D02*
D03*
X560869Y-140054D02*
D03*
X553487Y-131491D02*
D03*
X528688Y-140257D02*
D03*
X518502Y-140072D02*
D03*
X510894Y-59474D02*
D03*
X546991Y-131491D02*
D03*
X537838Y-131590D02*
D03*
X570795Y-109954D02*
D03*
X536442Y-25706D02*
D03*
X555898Y-147227D02*
D03*
X551862Y-145357D02*
D03*
X565791Y-147042D02*
D03*
X518649D02*
D03*
X528542Y-147227D02*
D03*
X576913Y-113479D02*
D03*
X557494Y-67074D02*
D03*
X552294Y-69974D02*
D03*
X546594Y-102274D02*
D03*
X548694Y-70574D02*
D03*
X545194Y-88974D02*
D03*
X546894Y-76074D02*
D03*
X543194Y-84574D02*
D03*
X548794Y-114074D02*
D03*
X547394Y-117474D02*
D03*
X543370Y-72439D02*
D03*
X536058D02*
D03*
X536894Y-117974D02*
D03*
X530694Y-70874D02*
D03*
X507375Y-103675D02*
D03*
X527158Y-69226D02*
D03*
X506794Y-100074D02*
D03*
X522926Y-66765D02*
D03*
X506638Y-117213D02*
D03*
X522564Y-63109D02*
D03*
X504767Y-120664D02*
D03*
X531292Y-26411D02*
D03*
X538133Y-22141D02*
D03*
X554472Y-27456D02*
D03*
X562444Y-30507D02*
D03*
X565794Y-76874D02*
D03*
X560820Y-38616D02*
D03*
X564462Y-38714D02*
D03*
X562194Y-76974D02*
D03*
X563576Y-43143D02*
D03*
X517414Y-76903D02*
D03*
X567217Y-43242D02*
D03*
X513795Y-76793D02*
D03*
X562257Y-50289D02*
D03*
X562099Y-55151D02*
D03*
X574752Y-116426D02*
D03*
X555977Y-63419D02*
D03*
X568201Y-103538D02*
D03*
X569826Y-117219D02*
D03*
X564854Y-103557D02*
D03*
X565937Y-107592D02*
D03*
Y-112119D02*
D03*
X562838Y-117219D02*
D03*
X565791Y-119090D02*
D03*
X519585Y-103557D02*
D03*
X518502Y-107592D02*
D03*
X521602Y-117219D02*
D03*
X518649Y-119090D02*
D03*
X516239Y-103538D02*
D03*
X518502Y-112119D02*
D03*
X513920Y-109936D02*
D03*
X536294Y-84574D02*
D03*
X532925Y-76374D02*
D03*
X530952Y-103723D02*
D03*
X533546Y-110139D02*
D03*
X535694Y-113674D02*
D03*
X532577Y-117404D02*
D03*
X527606Y-103742D02*
D03*
X528688Y-112304D02*
D03*
Y-107777D02*
D03*
X528586Y-118893D02*
D03*
X525589Y-117404D02*
D03*
X556834Y-103557D02*
D03*
X555751Y-107592D02*
D03*
X558850Y-117219D02*
D03*
X555751Y-112119D02*
D03*
X555898Y-119090D02*
D03*
X553487Y-103538D02*
D03*
X550893Y-109954D02*
D03*
X551862Y-117219D02*
D03*
X474451Y-135730D02*
D03*
X467168Y-141924D02*
D03*
X442270Y-150684D02*
D03*
Y-144779D02*
D03*
Y-135527D02*
D03*
X449652Y-131676D02*
D03*
X474451Y-140257D02*
D03*
X442270Y-140054D02*
D03*
X484637Y-135545D02*
D03*
X479569Y-135527D02*
D03*
Y-144779D02*
D03*
Y-150684D02*
D03*
X447388Y-135730D02*
D03*
X437202Y-135545D02*
D03*
X479569Y-140054D02*
D03*
X472187Y-131491D02*
D03*
X447388Y-140257D02*
D03*
X437202Y-140072D02*
D03*
X429594Y-59474D02*
D03*
X465691Y-131491D02*
D03*
X456538Y-131590D02*
D03*
X489495Y-109954D02*
D03*
X455142Y-25706D02*
D03*
X474598Y-147227D02*
D03*
X470562Y-145357D02*
D03*
X484491Y-147042D02*
D03*
X437349D02*
D03*
X447242Y-147227D02*
D03*
X426567Y-39009D02*
D03*
X495613Y-113479D02*
D03*
X476194Y-67074D02*
D03*
X470994Y-69974D02*
D03*
X465294Y-102274D02*
D03*
X467394Y-70574D02*
D03*
X463894Y-88974D02*
D03*
X465594Y-76074D02*
D03*
X461894Y-84574D02*
D03*
X467494Y-114074D02*
D03*
X466094Y-117474D02*
D03*
X462070Y-72439D02*
D03*
X454758D02*
D03*
X455594Y-117974D02*
D03*
X449394Y-70874D02*
D03*
X426075Y-103675D02*
D03*
X445858Y-69226D02*
D03*
X425494Y-100074D02*
D03*
X441626Y-66765D02*
D03*
X425339Y-117213D02*
D03*
X441263Y-63109D02*
D03*
X423467Y-120664D02*
D03*
X422671Y-33101D02*
D03*
X449992Y-26411D02*
D03*
X456833Y-22141D02*
D03*
X473172Y-27456D02*
D03*
X481144Y-30507D02*
D03*
X484494Y-76874D02*
D03*
X479520Y-38616D02*
D03*
X483161Y-38714D02*
D03*
X480894Y-76974D02*
D03*
X482276Y-43143D02*
D03*
X436114Y-76903D02*
D03*
X485917Y-43242D02*
D03*
X432495Y-76793D02*
D03*
X480957Y-50289D02*
D03*
X480799Y-55151D02*
D03*
X493452Y-116426D02*
D03*
X474677Y-63419D02*
D03*
X486901Y-103538D02*
D03*
X488526Y-117219D02*
D03*
X483554Y-103557D02*
D03*
X484637Y-107592D02*
D03*
Y-112119D02*
D03*
X481538Y-117219D02*
D03*
X484491Y-119090D02*
D03*
X438285Y-103557D02*
D03*
X437202Y-107592D02*
D03*
X440302Y-117219D02*
D03*
X437349Y-119090D02*
D03*
X434939Y-103538D02*
D03*
X437202Y-112119D02*
D03*
X432620Y-109936D02*
D03*
X454994Y-84574D02*
D03*
X451625Y-76374D02*
D03*
X449652Y-103723D02*
D03*
X452246Y-110139D02*
D03*
X454394Y-113674D02*
D03*
X451277Y-117404D02*
D03*
X446306Y-103742D02*
D03*
X447388Y-112304D02*
D03*
Y-107777D02*
D03*
X447286Y-118893D02*
D03*
X444289Y-117404D02*
D03*
X475534Y-103557D02*
D03*
X474451Y-107592D02*
D03*
X477550Y-117219D02*
D03*
X474451Y-112119D02*
D03*
X474598Y-119090D02*
D03*
X472187Y-103538D02*
D03*
X469593Y-109954D02*
D03*
X470562Y-117219D02*
D03*
X472384Y-23125D02*
D03*
X393151Y-135730D02*
D03*
X385868Y-141924D02*
D03*
X360970Y-144779D02*
D03*
Y-135527D02*
D03*
X368352Y-131676D02*
D03*
X393151Y-140257D02*
D03*
X360970Y-140054D02*
D03*
X403337Y-135545D02*
D03*
X398269Y-135527D02*
D03*
Y-144779D02*
D03*
Y-150684D02*
D03*
X373372Y-141924D02*
D03*
X366088Y-135730D02*
D03*
X355902Y-135545D02*
D03*
X398269Y-140054D02*
D03*
X390887Y-131491D02*
D03*
X355902Y-140072D02*
D03*
X348294Y-59474D02*
D03*
X384391Y-131491D02*
D03*
X375238Y-131590D02*
D03*
X408195Y-109954D02*
D03*
X373842Y-25706D02*
D03*
X393298Y-147227D02*
D03*
X389262Y-145357D02*
D03*
X403191Y-147042D02*
D03*
X356049D02*
D03*
X345267Y-39009D02*
D03*
X414313Y-113479D02*
D03*
X394894Y-67074D02*
D03*
X389694Y-69974D02*
D03*
X383994Y-102274D02*
D03*
X386094Y-70574D02*
D03*
X382594Y-88974D02*
D03*
X384294Y-76074D02*
D03*
X380594Y-84574D02*
D03*
X386194Y-114074D02*
D03*
X384794Y-117474D02*
D03*
X380770Y-72439D02*
D03*
X373458D02*
D03*
X374294Y-117974D02*
D03*
X368094Y-70874D02*
D03*
X344775Y-103675D02*
D03*
X364558Y-69226D02*
D03*
X344194Y-100074D02*
D03*
X360326Y-66765D02*
D03*
X344039Y-117213D02*
D03*
X359963Y-63109D02*
D03*
X342167Y-120664D02*
D03*
X341175Y-32609D02*
D03*
X368692Y-26411D02*
D03*
X375533Y-22141D02*
D03*
X399844Y-30507D02*
D03*
X403194Y-76874D02*
D03*
X398220Y-38616D02*
D03*
X401861Y-38714D02*
D03*
X399594Y-76974D02*
D03*
X400976Y-43143D02*
D03*
X354814Y-76903D02*
D03*
X404617Y-43242D02*
D03*
X351195Y-76793D02*
D03*
X399657Y-50289D02*
D03*
X399499Y-55151D02*
D03*
X412152Y-116426D02*
D03*
X393377Y-63419D02*
D03*
X405601Y-103538D02*
D03*
X407226Y-117219D02*
D03*
X402254Y-103557D02*
D03*
X403337Y-107592D02*
D03*
Y-112119D02*
D03*
X400238Y-117219D02*
D03*
X403191Y-119090D02*
D03*
X356985Y-103557D02*
D03*
X355902Y-107592D02*
D03*
X359002Y-117219D02*
D03*
X356049Y-119090D02*
D03*
X353639Y-103538D02*
D03*
X355902Y-112119D02*
D03*
X351321Y-109936D02*
D03*
X373694Y-84574D02*
D03*
X370325Y-76374D02*
D03*
X368352Y-103723D02*
D03*
X370946Y-110139D02*
D03*
X373094Y-113674D02*
D03*
X369977Y-117404D02*
D03*
X365006Y-103742D02*
D03*
X366088Y-112304D02*
D03*
Y-107777D02*
D03*
X365986Y-118893D02*
D03*
X362989Y-117404D02*
D03*
X394234Y-103557D02*
D03*
X393151Y-107592D02*
D03*
X396250Y-117219D02*
D03*
X393151Y-112119D02*
D03*
X393298Y-119090D02*
D03*
X390887Y-103538D02*
D03*
X388293Y-109954D02*
D03*
X389262Y-117219D02*
D03*
X391084Y-23125D02*
D03*
X234687Y-135527D02*
D03*
Y-144779D02*
D03*
Y-150684D02*
D03*
X202506Y-135730D02*
D03*
X209789Y-141924D02*
D03*
X227305Y-131491D02*
D03*
X234687Y-140054D02*
D03*
X204769Y-131676D02*
D03*
X202506Y-140257D02*
D03*
X239754Y-135545D02*
D03*
X229569Y-135730D02*
D03*
X222285Y-141924D02*
D03*
X197388Y-135527D02*
D03*
X192320Y-135545D02*
D03*
X229569Y-140257D02*
D03*
X206395Y-145357D02*
D03*
X184711Y-59474D02*
D03*
X220809Y-131491D02*
D03*
X211655Y-131590D02*
D03*
X244612Y-109954D02*
D03*
X225680Y-145357D02*
D03*
X229715Y-147227D02*
D03*
X239608Y-147042D02*
D03*
X202359Y-147227D02*
D03*
X181684Y-39009D02*
D03*
X248569Y-116426D02*
D03*
X229795Y-63419D02*
D03*
X235917Y-55151D02*
D03*
X236074Y-50289D02*
D03*
X241035Y-43242D02*
D03*
X187612Y-76793D02*
D03*
X237393Y-43143D02*
D03*
X191232Y-76903D02*
D03*
X236011Y-76974D02*
D03*
X239611Y-76874D02*
D03*
X234637Y-38616D02*
D03*
X196381Y-63109D02*
D03*
X178584Y-120664D02*
D03*
X196743Y-66765D02*
D03*
X180456Y-117213D02*
D03*
X200976Y-69226D02*
D03*
X180611Y-100074D02*
D03*
X204511Y-70874D02*
D03*
X181192Y-103675D02*
D03*
X209876Y-72439D02*
D03*
X210711Y-117974D02*
D03*
X221211Y-117474D02*
D03*
X217187Y-72439D02*
D03*
X220711Y-76074D02*
D03*
X217011Y-84574D02*
D03*
X222611Y-114074D02*
D03*
X222511Y-70574D02*
D03*
X219011Y-88974D02*
D03*
X226111Y-69974D02*
D03*
X220411Y-102274D02*
D03*
X250730Y-113479D02*
D03*
X231311Y-67074D02*
D03*
X242018Y-103538D02*
D03*
X243643Y-117219D02*
D03*
X238672Y-103557D02*
D03*
X239754Y-107592D02*
D03*
Y-112119D02*
D03*
X236655Y-117219D02*
D03*
X239608Y-119090D02*
D03*
X193402Y-103557D02*
D03*
X195419Y-117219D02*
D03*
X192320Y-107592D02*
D03*
Y-112119D02*
D03*
X192466Y-119090D02*
D03*
X190056Y-103538D02*
D03*
X187738Y-109936D02*
D03*
X210111Y-84574D02*
D03*
X206742Y-76374D02*
D03*
X204769Y-103723D02*
D03*
X207364Y-110139D02*
D03*
X209511Y-113674D02*
D03*
X206395Y-117404D02*
D03*
X201423Y-103742D02*
D03*
X202506Y-112304D02*
D03*
Y-107777D02*
D03*
X202403Y-118893D02*
D03*
X199406Y-117404D02*
D03*
X230651Y-103557D02*
D03*
X232668Y-117219D02*
D03*
X229569Y-107592D02*
D03*
Y-112119D02*
D03*
X227305Y-103538D02*
D03*
X229715Y-119090D02*
D03*
X225680Y-117219D02*
D03*
X224711Y-109954D02*
D03*
X345556Y135827D02*
D03*
X261537Y185120D02*
D03*
X254005Y73653D02*
D03*
X-44263Y138007D02*
D03*
X51545Y54419D02*
D03*
X41812Y69958D02*
D03*
X201542Y91529D02*
D03*
X-71446Y-54508D02*
D03*
X255580Y95069D02*
D03*
X230077Y93691D02*
D03*
X237470Y83061D02*
D03*
X216711Y94620D02*
D03*
X555180Y128735D02*
D03*
Y131983D02*
D03*
X523350Y33282D02*
D03*
X520004D02*
D03*
X353134Y131641D02*
D03*
X565437Y87284D02*
D03*
X560099D02*
D03*
X-33189Y115028D02*
D03*
X107824Y124074D02*
D03*
X118537Y97574D02*
D03*
X42937Y104874D02*
D03*
X68437Y124874D02*
D03*
X107811Y120156D02*
D03*
X76637Y159126D02*
D03*
X92237Y158811D02*
D03*
X100977Y120108D02*
D03*
X38975Y69936D02*
D03*
X60337Y95326D02*
D03*
X88544Y124683D02*
D03*
X88537Y121074D02*
D03*
X46037Y116974D02*
D03*
X-37459Y127057D02*
D03*
X69337Y116226D02*
D03*
X584224Y19109D02*
D03*
X578039Y5540D02*
D03*
X584323Y12711D02*
D03*
X584224Y26097D02*
D03*
X579598Y33282D02*
D03*
X573004D02*
D03*
X576350D02*
D03*
X557603Y120824D02*
D03*
X568650Y120758D02*
D03*
X580769Y120902D02*
D03*
X562253Y120660D02*
D03*
X575639Y120758D02*
D03*
X582824Y131979D02*
D03*
Y128632D02*
D03*
X526598Y33282D02*
D03*
X516756D02*
D03*
X491656Y137995D02*
D03*
Y130416D02*
D03*
Y134254D02*
D03*
Y121164D02*
D03*
Y117325D02*
D03*
Y124904D02*
D03*
X63010Y89492D02*
D03*
X577137Y87284D02*
D03*
X572437D02*
D03*
X560333Y67082D02*
D03*
X-30615Y163972D02*
D03*
X-51563Y134307D02*
D03*
X-51863Y141707D02*
D03*
X68428Y121102D02*
D03*
X78288Y124672D02*
D03*
X39437Y123226D02*
D03*
X113153Y126893D02*
D03*
X391949Y76823D02*
D03*
X484659Y63388D02*
D03*
X441155Y63191D02*
D03*
X421949Y76623D02*
D03*
X434449Y76823D02*
D03*
X469649Y78623D02*
D03*
Y87723D02*
D03*
X513648Y87724D02*
D03*
Y78624D02*
D03*
X479449Y76823D02*
D03*
X469349Y70123D02*
D03*
X513548Y69924D02*
D03*
X59355Y79141D02*
D03*
X59874Y89480D02*
D03*
X82437Y173463D02*
D03*
X97415Y173458D02*
D03*
X539952Y225905D02*
D03*
X108337Y143826D02*
D03*
X550192Y224034D02*
D03*
X406399Y107759D02*
D03*
X64337Y154126D02*
D03*
X40137Y104726D02*
D03*
X37437Y89326D02*
D03*
X34337D02*
D03*
X-42563Y53526D02*
D03*
X-65963Y48474D02*
D03*
X-60763Y44774D02*
D03*
X100974Y123789D02*
D03*
X448772Y107126D02*
D03*
X492715Y107028D02*
D03*
X136237Y133674D02*
D03*
G54D299*
X248200Y160400D02*
Y184400D01*
X250000Y186200D01*
Y190493D01*
X242938Y197555D02*
X250000Y190493D01*
X-40800Y152900D02*
Y163205D01*
X-17847Y182348D02*
X-15510D01*
X-25254D02*
X-22521D01*
X-33227Y174375D02*
X-25254Y182348D01*
X654568Y-288027D02*
Y263155D01*
X-93463D02*
X654568D01*
X-93463D02*
X-93463Y-288027D01*
X426555Y165369D02*
X427407Y166220D01*
X426555Y156000D02*
Y165369D01*
X427407Y166220D02*
X431442Y170255D01*
Y263355D01*
X388564Y151391D02*
Y163573D01*
X392599Y167608D01*
Y263745D01*
X350572Y151391D02*
Y163573D01*
X354607Y167608D01*
Y264291D01*
X317958Y170255D02*
Y264213D01*
X313922Y166220D02*
X317958Y170255D01*
X313922Y154138D02*
Y166320D01*
X276127Y154136D02*
Y166144D01*
X280163Y170180D01*
X280162Y170280D02*
Y264213D01*
X242938Y197555D02*
Y263589D01*
X-33227Y170778D02*
Y174375D01*
X-40800Y163205D02*
X-33227Y170778D01*
X-46763Y81726D02*
X-39363Y89126D01*
X-45474Y148226D02*
X-40800Y152900D01*
X-39363Y89126D02*
X-12263Y116226D01*
X-85635Y148226D02*
X-45474D01*
X-15510Y182348D02*
X-6765Y173603D01*
X-22521Y182348D02*
X-17847D01*
X-6765Y121724D02*
Y173603D01*
X-85635Y81726D02*
X-46763D01*
X-12263Y116226D02*
X-6765Y121724D01*
X-85635Y81725D02*
Y148120D01*
X402661Y99972D02*
X424908D01*
X445010Y99572D02*
X467257D01*
X489010Y99573D02*
X511257D01*
X489010Y79180D02*
Y99573D01*
Y79180D02*
X511257D01*
Y99573D01*
X445010Y79180D02*
Y99572D01*
Y79180D02*
X467257D01*
Y99572D01*
X402661Y79580D02*
Y99972D01*
X424908Y79580D02*
Y99972D01*
X402661Y79580D02*
X424908D01*
X-93463Y-288027D02*
X654568D01*
G54D341*
X-72200Y-14000D02*
D03*
X-82200D02*
D03*
X-72200Y-4000D02*
D03*
X-82200D02*
D03*
Y6000D02*
D03*
X-57763Y112647D02*
D03*
X-49863D02*
D03*
Y102726D02*
D03*
G54D346*
X85700Y10300D02*
D03*
X72900Y14400D02*
D03*
X89131Y17400D02*
D03*
X39423Y-5600D02*
D03*
X32834Y-5400D02*
D03*
X13500Y-4100D02*
D03*
X30900Y-16100D02*
D03*
X25800Y-16000D02*
D03*
X20700D02*
D03*
X13400Y-16100D02*
D03*
X17800Y-6800D02*
D03*
X564900Y229000D02*
D03*
X115300Y168700D02*
D03*
X104787Y176763D02*
D03*
X105900Y170400D02*
D03*
Y166500D02*
D03*
X40800Y180900D02*
D03*
X12400Y25200D02*
D03*
X-28317Y24800D02*
D03*
X105800Y-18600D02*
D03*
X12237Y72400D02*
D03*
X1700Y74300D02*
D03*
X231100Y216873D02*
D03*
X-33200Y-1400D02*
D03*
X266350Y-16450D02*
D03*
X373800Y-15200D02*
D03*
X381700Y-14700D02*
D03*
X296900Y-16300D02*
D03*
X303100Y-21500D02*
D03*
X378092Y-15169D02*
D03*
X385600Y-14810D02*
D03*
X488526Y-11757D02*
D03*
X380400Y-3562D02*
D03*
X315000Y66800D02*
D03*
X304100Y74000D02*
D03*
X304800Y77700D02*
D03*
X304600Y83700D02*
D03*
X312500Y83600D02*
D03*
X325300Y77200D02*
D03*
X330800Y24500D02*
D03*
X330500Y30846D02*
D03*
X331115Y40849D02*
D03*
X330500Y34400D02*
D03*
X309700Y40900D02*
D03*
Y34700D02*
D03*
Y30400D02*
D03*
Y23800D02*
D03*
X304100D02*
D03*
X314600D02*
D03*
Y30400D02*
D03*
X304100D02*
D03*
X314900Y40900D02*
D03*
X304000D02*
D03*
X314400Y35000D02*
D03*
X304700Y34700D02*
D03*
X536910Y-13700D02*
D03*
X544000Y-10200D02*
D03*
X540800Y-13800D02*
D03*
X-34050Y28191D02*
D03*
X700Y17800D02*
D03*
X-35000Y-9400D02*
D03*
X-41200Y-8100D02*
D03*
X-41870Y-2500D02*
D03*
X-13500Y-16100D02*
D03*
X-45300Y-21000D02*
D03*
X-1300Y-21654D02*
D03*
Y-16900D02*
D03*
X1800Y-15900D02*
D03*
X1000Y-6900D02*
D03*
X1800Y-20400D02*
D03*
X200100Y-9100D02*
D03*
X109136Y-20100D02*
D03*
X51565Y-550D02*
D03*
X50741Y2664D02*
D03*
X-14600Y-2900D02*
D03*
X0Y-1200D02*
D03*
X-36600Y-2500D02*
D03*
X257099Y-17051D02*
D03*
X50537Y7674D02*
D03*
X78760Y6520D02*
D03*
X76826Y23495D02*
D03*
X87200Y38100D02*
D03*
X73200Y39335D02*
D03*
X76336Y39452D02*
D03*
X25200Y-27300D02*
D03*
X59900Y10000D02*
D03*
X50200Y18500D02*
D03*
X215900Y-2100D02*
D03*
X225800Y-4900D02*
D03*
X231411Y-2930D02*
D03*
X225965Y-10172D02*
D03*
X242439Y-16900D02*
D03*
X546924Y-16749D02*
D03*
X463500Y-15300D02*
D03*
X455800D02*
D03*
X569826Y-21100D02*
D03*
X268179Y3521D02*
D03*
X274079D02*
D03*
X45471Y26171D02*
D03*
X49200Y25900D02*
D03*
X38477Y23464D02*
D03*
X65700Y25400D02*
D03*
X83200Y23400D02*
D03*
X147960Y22300D02*
D03*
X146800Y37800D02*
D03*
X144300Y26300D02*
D03*
X142800Y23400D02*
D03*
X146800Y49900D02*
D03*
X152999Y17726D02*
D03*
X168000Y15400D02*
D03*
X-7651Y30651D02*
D03*
X-7160Y34148D02*
D03*
X27600Y37800D02*
D03*
X93961Y-26300D02*
D03*
X94100Y41900D02*
D03*
X246500Y-21900D02*
D03*
X135333Y26557D02*
D03*
X65300Y34324D02*
D03*
X-29000Y-2000D02*
D03*
X53477Y18464D02*
D03*
X77636Y42939D02*
D03*
X178000Y151800D02*
D03*
X177600Y166100D02*
D03*
X-51400Y9700D02*
D03*
X-46700Y14300D02*
D03*
X-44100Y20000D02*
D03*
X-41700Y26400D02*
D03*
X108800Y63100D02*
D03*
X103000Y63200D02*
D03*
X106100Y61200D02*
D03*
X121900Y73000D02*
D03*
X100000Y61000D02*
D03*
X28000Y64500D02*
D03*
X24100Y68400D02*
D03*
X84600Y147104D02*
D03*
X144900Y58500D02*
D03*
X146800Y53400D02*
D03*
X-53300Y-15700D02*
D03*
X-50663Y186073D02*
D03*
X245100Y188500D02*
D03*
X247600D02*
D03*
X222100Y214200D02*
D03*
X230300Y233000D02*
D03*
X215600Y214500D02*
D03*
X234354Y187576D02*
D03*
X232319Y189611D02*
D03*
X127000Y172000D02*
D03*
X141684Y172900D02*
D03*
X145209Y164261D02*
D03*
X149300Y172700D02*
D03*
X153900Y175600D02*
D03*
X155100Y170900D02*
D03*
X153125Y164261D02*
D03*
X222500Y160400D02*
D03*
X216500Y157711D02*
D03*
X214700Y151000D02*
D03*
X223100Y163500D02*
D03*
X384800Y117700D02*
D03*
X262868Y152365D02*
D03*
X363715Y146224D02*
D03*
X235200Y174299D02*
D03*
X221000Y192000D02*
D03*
X228600Y179100D02*
D03*
X217900Y167900D02*
D03*
X220500Y169900D02*
D03*
X223400Y168000D02*
D03*
X237000Y170800D02*
D03*
X236900Y167600D02*
D03*
X241400Y168400D02*
D03*
X231600Y160700D02*
D03*
X211500Y165600D02*
D03*
X211200Y160700D02*
D03*
X188920Y163300D02*
D03*
X191900Y158400D02*
D03*
X212200Y181000D02*
D03*
X208200Y180700D02*
D03*
X191800Y166800D02*
D03*
X185000Y152800D02*
D03*
X182700Y182500D02*
D03*
X201600Y171000D02*
D03*
X183450Y172533D02*
D03*
X175500Y177100D02*
D03*
X149200Y154600D02*
D03*
X115800Y181100D02*
D03*
X135228Y190200D02*
D03*
X163500Y184100D02*
D03*
X124600Y191200D02*
D03*
X177000Y159900D02*
D03*
X192350Y150800D02*
D03*
X174351Y150451D02*
D03*
X168349Y173299D02*
D03*
X164400Y172900D02*
D03*
X168600Y164500D02*
D03*
X135608Y162523D02*
D03*
X140000Y178700D02*
D03*
X128400Y175218D02*
D03*
X-45750Y181500D02*
D03*
X-52692Y168202D02*
D03*
X-45900Y173300D02*
D03*
X-65300Y153700D02*
D03*
X-66400Y159100D02*
D03*
X-70610Y171326D02*
D03*
X-45400Y178400D02*
D03*
X-57800Y178300D02*
D03*
X-60554Y184777D02*
D03*
X-47700Y168800D02*
D03*
X-60500Y163600D02*
D03*
X-67953Y151939D02*
D03*
X-61100Y177800D02*
D03*
X-71400Y193600D02*
D03*
X-52800Y197500D02*
D03*
X-53400Y203400D02*
D03*
X-67700Y198051D02*
D03*
X583100Y177300D02*
D03*
X583300Y184900D02*
D03*
X587637Y203838D02*
D03*
X277595Y74919D02*
D03*
X273265D02*
D03*
Y79249D02*
D03*
X277595D02*
D03*
X575829Y205370D02*
D03*
Y201370D02*
D03*
Y209370D02*
D03*
Y213370D02*
D03*
X579829D02*
D03*
X583829D02*
D03*
Y209370D02*
D03*
X579829D02*
D03*
Y205370D02*
D03*
X583829D02*
D03*
Y201370D02*
D03*
X579829D02*
D03*
X571829D02*
D03*
X567829D02*
D03*
Y205370D02*
D03*
X571829D02*
D03*
Y209370D02*
D03*
X567829D02*
D03*
Y213370D02*
D03*
X571829D02*
D03*
X478447Y182286D02*
D03*
X488358Y150217D02*
D03*
G54D347*
X-48023Y128874D02*
X-48663Y129514D01*
X-49303Y128874D01*
X-48663Y128234D01*
X-48023Y128874D01*
X-54223Y120974D02*
X-54863Y121614D01*
X-55503Y120974D01*
X-54863Y120334D01*
X-54223Y120974D01*
G54D348*
X337198Y250212D02*
D03*
G54D349*
X5906Y27756D02*
D03*
Y-27756D02*
D03*
G54D350*
X447900Y-1800D02*
D03*
X407900Y-11800D02*
D03*
X505450Y-10249D02*
D03*
X401124Y49237D02*
D03*
Y39237D02*
D03*
Y29237D02*
D03*
Y19237D02*
D03*
X261013Y33612D02*
D03*
X221013Y23612D02*
D03*
X-23163Y58026D02*
D03*
Y95520D02*
D03*
G54D351*
X447900Y-11800D02*
D03*
X437900Y-1800D02*
D03*
Y-11800D02*
D03*
X427900Y-1800D02*
D03*
Y-11800D02*
D03*
X417900Y-1800D02*
D03*
Y-11800D02*
D03*
X407900Y-1800D02*
D03*
X525213Y-10249D02*
D03*
X515213D02*
D03*
X411124Y49237D02*
D03*
Y39237D02*
D03*
Y29237D02*
D03*
Y19237D02*
D03*
X261013Y23612D02*
D03*
X251013Y33612D02*
D03*
Y23612D02*
D03*
X241013Y33612D02*
D03*
Y23612D02*
D03*
X231013Y33612D02*
D03*
Y23612D02*
D03*
X221013Y33612D02*
D03*
X16837Y58026D02*
D03*
Y48026D02*
D03*
X6837Y58026D02*
D03*
Y48026D02*
D03*
X-3163Y58026D02*
D03*
Y48026D02*
D03*
X-13163Y58026D02*
D03*
Y48026D02*
D03*
X-23163D02*
D03*
X16837Y95520D02*
D03*
Y85520D02*
D03*
X6837Y95520D02*
D03*
Y85520D02*
D03*
X-3163Y95520D02*
D03*
Y85520D02*
D03*
X-13163Y95520D02*
D03*
Y85520D02*
D03*
X-23163D02*
D03*
G54D352*
X-72200Y6000D02*
D03*
X-57763Y102726D02*
D03*
G54D353*
X-22800Y225700D02*
D03*
X-12800D02*
D03*
X-2800D02*
D03*
X7200D02*
D03*
X-42800D02*
D03*
X-12800Y201400D02*
D03*
X-22800D02*
D03*
X-32800D02*
D03*
X-42800D02*
D03*
X7200D02*
D03*
X49267Y225700D02*
D03*
X59267D02*
D03*
X69267D02*
D03*
X79267D02*
D03*
X29267D02*
D03*
X59267Y201400D02*
D03*
X49267D02*
D03*
X39267D02*
D03*
X29267D02*
D03*
X79267D02*
D03*
X121333Y225700D02*
D03*
X131333D02*
D03*
X141333D02*
D03*
X151333D02*
D03*
X101333D02*
D03*
X131333Y201400D02*
D03*
X121333D02*
D03*
X111333D02*
D03*
X101333D02*
D03*
X151333D02*
D03*
X193400Y225700D02*
D03*
X203400D02*
D03*
X213400D02*
D03*
X223400D02*
D03*
X173400D02*
D03*
X203400Y201400D02*
D03*
X193400D02*
D03*
X183400D02*
D03*
X173400D02*
D03*
X223400D02*
D03*
X285573Y132626D02*
D03*
X305573D02*
D03*
X285573Y108626D02*
D03*
X305573D02*
D03*
X342561Y40871D02*
D03*
Y30871D02*
D03*
Y20871D02*
D03*
Y82446D02*
D03*
Y72446D02*
D03*
Y62446D02*
D03*
X366380Y20871D02*
D03*
Y30871D02*
D03*
Y40871D02*
D03*
Y62348D02*
D03*
Y72347D02*
D03*
Y82348D02*
D03*
X-84863Y200126D02*
D03*
X209537Y64026D02*
D03*
X182237Y108626D02*
D03*
X162237D02*
D03*
X244337D02*
D03*
X264337D02*
D03*
X203287D02*
D03*
X223287D02*
D03*
X264337Y132626D02*
D03*
X244337D02*
D03*
X223287D02*
D03*
X203287D02*
D03*
X182237D02*
D03*
X162237D02*
D03*
X241037Y64026D02*
D03*
X177837D02*
D03*
G54D354*
X-32800Y225700D02*
D03*
X-2800Y201400D02*
D03*
X39267Y225700D02*
D03*
X69267Y201400D02*
D03*
X111333Y225700D02*
D03*
X141333Y201400D02*
D03*
X183400Y225700D02*
D03*
X213400Y201400D02*
D03*
X295572Y132626D02*
D03*
Y108626D02*
D03*
X-84863Y182326D02*
D03*
X199537Y64026D02*
D03*
X172237Y108626D02*
D03*
X254337D02*
D03*
X213287D02*
D03*
X254337Y132626D02*
D03*
X213287D02*
D03*
X172237D02*
D03*
X231037Y64026D02*
D03*
X167837D02*
D03*
G54D355*
X118110Y0D02*
D03*
X256931Y-268341D02*
D03*
X634883D02*
D03*
X-73778D02*
D03*
X634883Y243470D02*
D03*
X-73778D02*
D03*
G54D356*
X462738Y43666D02*
D03*
Y31855D02*
D03*
X474549Y28155D02*
D03*
X450927D02*
D03*
X493446Y43666D02*
D03*
Y31855D02*
D03*
X505258Y28155D02*
D03*
X481636D02*
D03*
X432029Y43666D02*
D03*
Y31855D02*
D03*
X443840Y28155D02*
D03*
X420218D02*
D03*
X126550Y-238933D02*
D03*
Y-250744D02*
D03*
X138361Y-238933D02*
D03*
Y-250744D02*
D03*
X150172Y-254445D02*
D03*
X114739D02*
D03*
X196794D02*
D03*
X232228D02*
D03*
X220416Y-250744D02*
D03*
Y-238933D02*
D03*
X208606Y-250744D02*
D03*
Y-238933D02*
D03*
X290133D02*
D03*
Y-250744D02*
D03*
X301944Y-238933D02*
D03*
Y-250744D02*
D03*
X313755Y-254445D02*
D03*
X278322D02*
D03*
X360377D02*
D03*
X395810D02*
D03*
X383999Y-250744D02*
D03*
Y-238933D02*
D03*
X372188Y-250744D02*
D03*
Y-238933D02*
D03*
X453488D02*
D03*
Y-250744D02*
D03*
X465299Y-238933D02*
D03*
Y-250744D02*
D03*
X477110Y-254445D02*
D03*
X441677D02*
D03*
X522977D02*
D03*
X558410D02*
D03*
X546599Y-250744D02*
D03*
Y-238933D02*
D03*
X534788Y-250744D02*
D03*
Y-238933D02*
D03*
X-35230D02*
D03*
Y-250744D02*
D03*
X-23419Y-238933D02*
D03*
Y-250744D02*
D03*
X-11608Y-254445D02*
D03*
X-47041D02*
D03*
X33212D02*
D03*
X68645D02*
D03*
X56834Y-250744D02*
D03*
Y-238933D02*
D03*
X45023Y-250744D02*
D03*
Y-238933D02*
D03*
G54D357*
X405097Y226570D02*
D03*
X418876D02*
D03*
Y206885D02*
D03*
X405097D02*
D03*
X367397D02*
D03*
X381177D02*
D03*
Y226570D02*
D03*
X367397D02*
D03*
X329697D02*
D03*
X343477D02*
D03*
Y206885D02*
D03*
X329697D02*
D03*
X291998D02*
D03*
X305777D02*
D03*
Y226570D02*
D03*
X291998D02*
D03*
X254298D02*
D03*
X268077D02*
D03*
Y206885D02*
D03*
X254298D02*
D03*
G54D358*
X599037Y173305D02*
D03*
Y140805D02*
D03*
Y108305D02*
D03*
Y75805D02*
D03*
Y-119274D02*
D03*
Y-86774D02*
D03*
Y-54274D02*
D03*
Y-21774D02*
D03*
Y10726D02*
D03*
Y43226D02*
D03*
G54D359*
X522056Y12696D02*
D03*
Y26096D02*
D03*
X575056D02*
D03*
Y12696D02*
D03*
X562237Y129926D02*
D03*
X575637D02*
D03*
Y76926D02*
D03*
X562237D02*
D03*
G54D360*
X-75063Y177426D02*
D03*
Y205026D02*
D03*
G54D361*
X-68463Y84026D02*
D03*
G54D362*
Y131348D02*
D03*
M02*
