G04*
G04 #@! TF.GenerationSoftware,Altium Limited,Altium Designer,19.1.8 (144)*
G04*
G04 Layer_Physical_Order=2*
G04 Layer_Color=1265191*
%FSLAX25Y25*%
%MOIN*%
G70*
G01*
G75*
%ADD22C,0.03500*%
%ADD301C,0.02000*%
%ADD346C,0.05800*%
%ADD352C,0.03000*%
%ADD353C,0.03800*%
%ADD354R,1.88489X0.27534*%
%ADD355C,0.13811*%
%ADD356C,0.04756*%
G04:AMPARAMS|DCode=357|XSize=79.433mil|YSize=79.433mil|CornerRadius=0mil|HoleSize=0mil|Usage=FLASHONLY|Rotation=0.000|XOffset=0mil|YOffset=0mil|HoleType=Round|Shape=Relief|Width=14mil|Gap=10mil|Entries=4|*
%AMTHD357*
7,0,0,0.07943,0.05943,0.01400,45*
%
%ADD357THD357*%
%ADD358C,0.05543*%
G04:AMPARAMS|DCode=359|XSize=82mil|YSize=82mil|CornerRadius=0mil|HoleSize=0mil|Usage=FLASHONLY|Rotation=0.000|XOffset=0mil|YOffset=0mil|HoleType=Round|Shape=Relief|Width=14mil|Gap=10mil|Entries=4|*
%AMTHD359*
7,0,0,0.08200,0.06200,0.01400,45*
%
%ADD359THD359*%
%ADD360C,0.06000*%
G04:AMPARAMS|DCode=361|XSize=84mil|YSize=84mil|CornerRadius=0mil|HoleSize=0mil|Usage=FLASHONLY|Rotation=0.000|XOffset=0mil|YOffset=0mil|HoleType=Round|Shape=Relief|Width=14mil|Gap=10mil|Entries=4|*
%AMTHD361*
7,0,0,0.08400,0.06400,0.01400,45*
%
%ADD361THD361*%
G04:AMPARAMS|DCode=362|XSize=162.11mil|YSize=162.11mil|CornerRadius=0mil|HoleSize=0mil|Usage=FLASHONLY|Rotation=0.000|XOffset=0mil|YOffset=0mil|HoleType=Round|Shape=Relief|Width=14mil|Gap=10mil|Entries=4|*
%AMTHD362*
7,0,0,0.16211,0.14211,0.01400,45*
%
%ADD362THD362*%
%ADD363C,0.06016*%
%ADD364C,0.06331*%
%ADD365C,0.09598*%
%ADD366C,0.08300*%
G04:AMPARAMS|DCode=367|XSize=103mil|YSize=103mil|CornerRadius=0mil|HoleSize=0mil|Usage=FLASHONLY|Rotation=0.000|XOffset=0mil|YOffset=0mil|HoleType=Round|Shape=Relief|Width=14mil|Gap=10mil|Entries=4|*
%AMTHD367*
7,0,0,0.10300,0.08300,0.01400,45*
%
%ADD367THD367*%
%ADD368C,0.10700*%
G04:AMPARAMS|DCode=369|XSize=131mil|YSize=131mil|CornerRadius=0mil|HoleSize=0mil|Usage=FLASHONLY|Rotation=0.000|XOffset=0mil|YOffset=0mil|HoleType=Round|Shape=Relief|Width=14mil|Gap=10mil|Entries=4|*
%AMTHD369*
7,0,0,0.13100,0.11100,0.01400,45*
%
%ADD369THD369*%
%ADD370C,0.05937*%
G54D22*
X-417559Y323500D02*
D03*
X-421710D02*
D03*
X-422510Y314200D02*
D03*
X-542910Y233000D02*
D03*
X-600910Y182900D02*
D03*
X-115810Y144800D02*
D03*
X-137838Y138744D02*
D03*
X-114934Y179490D02*
D03*
X-120839D02*
D03*
X-117886D02*
D03*
X-84422Y179392D02*
D03*
X-254610Y202500D02*
D03*
X23890Y143100D02*
D03*
X-73880Y330757D02*
D03*
X-70337D02*
D03*
X-73782Y333809D02*
D03*
X-70337Y334005D02*
D03*
X-91817Y309614D02*
D03*
X-85546Y346824D02*
D03*
X-81902Y351133D02*
D03*
X-336390Y151537D02*
D03*
X-337549Y164431D02*
D03*
X-332059Y151537D02*
D03*
X-324601Y139789D02*
D03*
X-406656Y139885D02*
D03*
X-401506Y140590D02*
D03*
X-447410Y204500D02*
D03*
X-465848Y143064D02*
D03*
X-457031Y135693D02*
D03*
X-569975Y139789D02*
D03*
X-486024Y143198D02*
D03*
X-483033Y140494D02*
D03*
X-488183Y139789D02*
D03*
X-465010Y138700D02*
D03*
X-563134Y144059D02*
D03*
X-550973Y144073D02*
D03*
X-564825Y140494D02*
D03*
X-406195Y197697D02*
D03*
X-294810Y153300D02*
D03*
X-34567Y147400D02*
D03*
X33058Y153600D02*
D03*
X-47210Y177300D02*
D03*
X-43576Y164255D02*
D03*
X-123989Y179490D02*
D03*
X-99010Y179500D02*
D03*
X-202746Y183500D02*
D03*
X-220682Y142777D02*
D03*
X-219953Y138387D02*
D03*
X-211223Y138349D02*
D03*
X-396510Y203800D02*
D03*
X-406788Y206067D02*
D03*
X-406690Y208922D02*
D03*
X-365483Y204309D02*
D03*
X-492998Y211200D02*
D03*
X-302610Y144200D02*
D03*
X-294220Y144328D02*
D03*
X-293870Y138545D02*
D03*
X-319451Y140494D02*
D03*
X-322386Y142681D02*
D03*
X-343927Y214410D02*
D03*
X-581773Y204374D02*
D03*
X-582173Y198274D02*
D03*
X-419425Y222844D02*
D03*
X-414710Y225200D02*
D03*
X-406810Y226200D02*
D03*
X-410736Y225422D02*
D03*
X-407210Y223200D02*
D03*
X-403910Y231100D02*
D03*
X-400610Y239200D02*
D03*
X-400281Y230803D02*
D03*
X-400135Y245765D02*
D03*
X-403784Y253848D02*
D03*
X-400055Y253855D02*
D03*
X-383890Y252835D02*
D03*
X-412810Y228500D02*
D03*
X-483480Y213533D02*
D03*
X-413612Y287306D02*
D03*
X-416560Y289590D02*
D03*
X-591310Y230900D02*
D03*
X-592873Y224126D02*
D03*
X-451118Y235610D02*
D03*
X-454079Y239827D02*
D03*
X-386489Y273327D02*
D03*
X-407454Y253764D02*
D03*
X-381210Y235800D02*
D03*
X-410510Y270200D02*
D03*
X-403319Y266006D02*
D03*
X-387398Y280078D02*
D03*
X-385603Y285494D02*
D03*
X-383347Y280578D02*
D03*
X-378910Y277718D02*
D03*
X-382003Y285622D02*
D03*
X-407465Y245659D02*
D03*
X-583383Y230324D02*
D03*
X-496410Y274400D02*
D03*
X-465792Y275944D02*
D03*
X-469476Y275939D02*
D03*
X-470173Y289148D02*
D03*
X-438400Y316373D02*
D03*
X-526010Y276200D02*
D03*
X-526423Y272170D02*
D03*
X-604499Y147028D02*
D03*
X-599874Y144451D02*
D03*
X-591610Y188172D02*
D03*
Y195800D02*
D03*
X-591810Y148400D02*
D03*
X-591347Y199800D02*
D03*
X-462810Y242000D02*
D03*
X-466773Y245174D02*
D03*
X-500310Y214600D02*
D03*
X-403761Y245822D02*
D03*
X-469273Y228426D02*
D03*
X-465586Y228419D02*
D03*
X-441185Y237662D02*
D03*
X-376850Y253215D02*
D03*
X-595555Y145587D02*
D03*
X-536226Y137484D02*
D03*
X-546795Y138744D02*
D03*
X-391873Y163545D02*
D03*
Y157443D02*
D03*
X-517173Y130473D02*
D03*
X-276173Y422174D02*
D03*
X-266173D02*
D03*
X-246173D02*
D03*
X-226173D02*
D03*
X-206173D02*
D03*
X-186173D02*
D03*
X-166173D02*
D03*
X-510649Y282328D02*
D03*
X-515584Y281723D02*
D03*
X-491610Y347000D02*
D03*
X-496010Y325400D02*
D03*
X-500442Y332713D02*
D03*
X-495600Y315512D02*
D03*
X-493200Y313812D02*
D03*
X-257932Y311900D02*
D03*
X-151558Y295976D02*
D03*
X-256687Y319163D02*
D03*
X-437311Y339688D02*
D03*
X-427269Y339738D02*
D03*
X-376443Y301133D02*
D03*
X-413900Y314031D02*
D03*
X-568610Y352400D02*
D03*
X-503929Y345635D02*
D03*
X-484773Y318526D02*
D03*
Y315626D02*
D03*
X-487073Y313826D02*
D03*
X-493300Y320212D02*
D03*
X-474245Y315481D02*
D03*
X-278510Y317700D02*
D03*
X-504137Y332412D02*
D03*
X-520398Y123401D02*
D03*
X-507210Y320500D02*
D03*
X-162547Y295994D02*
D03*
X-158958Y296124D02*
D03*
X55890Y362300D02*
D03*
X44190Y314834D02*
D03*
X-106469Y278899D02*
D03*
X-98514Y290889D02*
D03*
X-394882Y319600D02*
D03*
X-487173Y320226D02*
D03*
X-120574Y351320D02*
D03*
X-158274D02*
D03*
X-114693Y335297D02*
D03*
X-128917Y316150D02*
D03*
X-162310Y291200D02*
D03*
X-148361Y283123D02*
D03*
X-442248Y339688D02*
D03*
X-301331Y138512D02*
D03*
X-266499Y126893D02*
D03*
X-291431Y127486D02*
D03*
X-22779Y184177D02*
D03*
X-458409Y320890D02*
D03*
X-461264D02*
D03*
X-450788Y305737D02*
D03*
X69311Y56144D02*
D03*
X74459Y59108D02*
D03*
X93779Y874D02*
D03*
X88163Y6022D02*
D03*
X83117Y10592D02*
D03*
X69311Y37346D02*
D03*
X87851Y12496D02*
D03*
X98693Y2590D02*
D03*
X102125Y12262D02*
D03*
X96587D02*
D03*
X59561Y242174D02*
D03*
X102437Y-10124D02*
D03*
X-49087Y229687D02*
D03*
X-56582Y269524D02*
D03*
X-60603Y266596D02*
D03*
X-324733Y207816D02*
D03*
X-329205Y214333D02*
D03*
X-339892Y217462D02*
D03*
X58991Y-2578D02*
D03*
X-430081Y127287D02*
D03*
X-437453Y125520D02*
D03*
X-355760Y125323D02*
D03*
X-26232Y133689D02*
D03*
X-21843Y127191D02*
D03*
X-106173Y422174D02*
D03*
X-126173D02*
D03*
X-146173D02*
D03*
X-105447Y-59098D02*
D03*
X-187347Y-58240D02*
D03*
X-431981Y-58030D02*
D03*
X-428471Y-62086D02*
D03*
X-432605Y-61462D02*
D03*
X-24093Y-59020D02*
D03*
X-20583Y-63076D02*
D03*
X-24717Y-62452D02*
D03*
X-101937Y-63154D02*
D03*
X-106071Y-62530D02*
D03*
X-183837Y-62296D02*
D03*
X-187971Y-61672D02*
D03*
X-349691Y-59175D02*
D03*
X-346181Y-63231D02*
D03*
X-350315Y-62607D02*
D03*
X-266264Y6736D02*
D03*
X-264061Y4533D02*
D03*
X-261877Y2661D02*
D03*
X-511867Y-62468D02*
D03*
X-507733Y-63092D02*
D03*
X-511243Y-59036D02*
D03*
X-238365Y-123D02*
D03*
Y-6131D02*
D03*
X-552329Y-123D02*
D03*
Y-5931D02*
D03*
X-552325Y12672D02*
D03*
X-565318Y6471D02*
D03*
X-552329D02*
D03*
X-565318Y-6131D02*
D03*
Y-123D02*
D03*
X-565321Y12672D02*
D03*
X-470398Y-123D02*
D03*
X-470394Y12672D02*
D03*
X-483386Y-6131D02*
D03*
Y-123D02*
D03*
X-483390Y12672D02*
D03*
X-470398Y6471D02*
D03*
Y-5931D02*
D03*
X-483386Y6471D02*
D03*
X-549405Y20843D02*
D03*
X-552799Y24276D02*
D03*
X-402020Y12672D02*
D03*
X-419300Y19254D02*
D03*
X-419446Y26224D02*
D03*
X-402017Y6471D02*
D03*
X-332323Y26146D02*
D03*
Y15516D02*
D03*
X-320132Y6471D02*
D03*
X-332323Y21421D02*
D03*
X-320136Y12672D02*
D03*
X-337244Y19158D02*
D03*
X-337390Y26128D02*
D03*
X-250796Y21124D02*
D03*
Y25848D02*
D03*
X-245824Y18675D02*
D03*
X-245677Y25645D02*
D03*
X-238369Y12672D02*
D03*
X-238365Y6471D02*
D03*
X-250796Y15218D02*
D03*
X-159733Y20843D02*
D03*
X-156523Y12672D02*
D03*
X-163768Y18973D02*
D03*
X-163622Y25943D02*
D03*
X-156520Y6471D02*
D03*
X-62114Y-5931D02*
D03*
Y6471D02*
D03*
X-75103Y-6131D02*
D03*
X-75106Y12672D02*
D03*
X-78433Y20843D02*
D03*
X-75038Y24276D02*
D03*
X-62114Y-123D02*
D03*
X-62111Y12672D02*
D03*
X-75103Y6471D02*
D03*
Y-123D02*
D03*
X19037D02*
D03*
X19040Y12672D02*
D03*
X6045D02*
D03*
X19037Y6471D02*
D03*
X6048Y-6131D02*
D03*
Y-123D02*
D03*
Y6471D02*
D03*
X19037Y-5931D02*
D03*
X-143531Y-123D02*
D03*
Y-5931D02*
D03*
X-156520Y-6131D02*
D03*
X-143531Y6471D02*
D03*
X-156520Y-123D02*
D03*
X-143527Y12672D02*
D03*
X-225376Y-123D02*
D03*
Y-5931D02*
D03*
X-225373Y12672D02*
D03*
X-225376Y6471D02*
D03*
X-307143Y-5931D02*
D03*
Y6471D02*
D03*
X-320132Y-123D02*
D03*
X-307140Y12672D02*
D03*
X-320132Y-6131D02*
D03*
X-307143Y-123D02*
D03*
X-389028Y6471D02*
D03*
X-389025Y12672D02*
D03*
X-402017Y-6131D02*
D03*
Y-123D02*
D03*
X-389028Y-5931D02*
D03*
Y-123D02*
D03*
X-168740Y15516D02*
D03*
X-258211Y258476D02*
D03*
X83351Y29468D02*
D03*
X92399Y69404D02*
D03*
X113459Y36254D02*
D03*
X93959Y40076D02*
D03*
X79061Y115502D02*
D03*
X58937Y115970D02*
D03*
X59093Y107936D02*
D03*
X79061Y107702D02*
D03*
X90293Y96080D02*
D03*
X72821Y102320D02*
D03*
X65879Y102242D02*
D03*
X65489Y121196D02*
D03*
X72977D02*
D03*
X113537Y114176D02*
D03*
X98015Y128996D02*
D03*
X55427Y114410D02*
D03*
X69311Y121196D02*
D03*
X79061Y111836D02*
D03*
X69233Y102242D02*
D03*
X59171Y111914D02*
D03*
X56675Y98264D02*
D03*
X57767Y127124D02*
D03*
X60263Y37112D02*
D03*
X79529Y35786D02*
D03*
X86549Y50294D02*
D03*
X53711Y36254D02*
D03*
X73991Y30794D02*
D03*
X87095Y41870D02*
D03*
X86081Y58640D02*
D03*
X62993Y59186D02*
D03*
X53399Y48968D02*
D03*
X60029Y46784D02*
D03*
X78749Y46940D02*
D03*
X81947Y328676D02*
D03*
X61901Y327038D02*
D03*
X61277Y350906D02*
D03*
X69779Y330470D02*
D03*
X22511Y315104D02*
D03*
X22433Y278132D02*
D03*
X9017Y278054D02*
D03*
X-1123Y277664D02*
D03*
X-5569Y277352D02*
D03*
X15179Y290456D02*
D03*
X9485D02*
D03*
X5117D02*
D03*
X14165Y300596D02*
D03*
X9329D02*
D03*
X4727D02*
D03*
X13890Y306700D02*
D03*
X49577Y305744D02*
D03*
X28673Y305588D02*
D03*
X32495D02*
D03*
X46067Y305822D02*
D03*
X58859Y293732D02*
D03*
X58703Y315494D02*
D03*
X69389Y293420D02*
D03*
X59639Y306992D02*
D03*
X69389Y297944D02*
D03*
X81089Y293498D02*
D03*
X85223Y295292D02*
D03*
X84833Y301610D02*
D03*
X72509Y320174D02*
D03*
X64319D02*
D03*
X69389Y316664D02*
D03*
X81245Y320252D02*
D03*
X84833Y317210D02*
D03*
Y311516D02*
D03*
X79373Y306992D02*
D03*
X-25850Y304639D02*
D03*
X89981Y243188D02*
D03*
X78983Y242174D02*
D03*
X61355Y231098D02*
D03*
X60731Y256292D02*
D03*
X76721Y256136D02*
D03*
X84365Y255512D02*
D03*
X89825Y253562D02*
D03*
X89513Y234920D02*
D03*
X84443Y231176D02*
D03*
X69389Y231098D02*
D03*
X69857Y252236D02*
D03*
X54647Y237806D02*
D03*
Y248336D02*
D03*
Y243126D02*
D03*
X23525Y238040D02*
D03*
Y243266D02*
D03*
X23447Y248180D02*
D03*
X49031Y233204D02*
D03*
X43181Y233282D02*
D03*
X35147Y233204D02*
D03*
X69467Y349034D02*
D03*
X59951Y339440D02*
D03*
X78593Y339752D02*
D03*
X82805Y341702D02*
D03*
X82181Y355120D02*
D03*
X-12955Y204650D02*
D03*
X-21091Y202550D02*
D03*
X-23821Y209034D02*
D03*
X1295Y192566D02*
D03*
X-17659Y192254D02*
D03*
X-17035Y178760D02*
D03*
X1607Y178448D02*
D03*
X-7909Y185702D02*
D03*
X-17347Y172286D02*
D03*
X-7675Y172130D02*
D03*
X3011Y172754D02*
D03*
X21029Y204656D02*
D03*
X12293Y204578D02*
D03*
X-2449Y211988D02*
D03*
X5273Y213392D02*
D03*
X-11809Y214250D02*
D03*
X-8845Y221660D02*
D03*
X-3463Y221582D02*
D03*
X3011Y221504D02*
D03*
X62525Y189992D02*
D03*
X59405Y163862D02*
D03*
X81635Y164252D02*
D03*
X81947Y188822D02*
D03*
X69389Y186716D02*
D03*
X79373Y176888D02*
D03*
X69623Y166748D02*
D03*
X59015Y176732D02*
D03*
X42245Y171726D02*
D03*
X45346D02*
D03*
X35303Y178448D02*
D03*
X35771Y185312D02*
D03*
X35849Y192410D02*
D03*
X-345595Y261394D02*
D03*
X-350963Y264928D02*
D03*
X52751Y19048D02*
D03*
X101267Y-3494D02*
D03*
X101579Y18892D02*
D03*
X87539Y24118D02*
D03*
X95495Y24040D02*
D03*
X53295Y422D02*
D03*
X59147Y24742D02*
D03*
X53531D02*
D03*
X106181Y-33161D02*
D03*
X67649Y-33368D02*
D03*
X93128Y-33134D02*
D03*
X70847Y-10124D02*
D03*
X35435Y143224D02*
D03*
X-133909Y328552D02*
D03*
X-206683Y315838D02*
D03*
X-171583Y328506D02*
D03*
X-208997D02*
D03*
X-169867Y316150D02*
D03*
X-127685Y323388D02*
D03*
X-119811Y332049D02*
D03*
X-165385Y323388D02*
D03*
X-157511Y332049D02*
D03*
X-152393Y335297D02*
D03*
X-146788Y319163D02*
D03*
X-203085Y323388D02*
D03*
X-195211Y332049D02*
D03*
X-190093Y335297D02*
D03*
X-195974Y351320D02*
D03*
X-184488Y319163D02*
D03*
X-240785Y323388D02*
D03*
X-232911Y332049D02*
D03*
X-227793Y335297D02*
D03*
X-233674Y351320D02*
D03*
X-222188Y319163D02*
D03*
X-178122Y310100D02*
D03*
X-147118Y285623D02*
D03*
X-94515Y290810D02*
D03*
X19739Y362534D02*
D03*
Y369967D02*
D03*
X62239D02*
D03*
X28905Y355100D02*
D03*
X19739D02*
D03*
X67517Y370094D02*
D03*
X62239Y362467D02*
D03*
X28905Y347600D02*
D03*
X47239Y354807D02*
D03*
X47239Y347467D02*
D03*
X19739Y347600D02*
D03*
X38072Y354967D02*
D03*
Y347467D02*
D03*
X47239Y324967D02*
D03*
X38072Y332467D02*
D03*
X44739D02*
D03*
X47239Y339967D02*
D03*
X38072D02*
D03*
X28905D02*
D03*
Y332467D02*
D03*
X34690Y325000D02*
D03*
X27239Y324967D02*
D03*
X19739D02*
D03*
Y332467D02*
D03*
Y339967D02*
D03*
X-102761Y235523D02*
D03*
X-40261D02*
D03*
X-32761D02*
D03*
X-25261D02*
D03*
X-20261Y225523D02*
D03*
X-25261Y228023D02*
D03*
X-32761D02*
D03*
X-40261D02*
D03*
X-20261Y243023D02*
D03*
X-25261D02*
D03*
X-30261D02*
D03*
X-35261D02*
D03*
X-40261D02*
D03*
X-16062Y260523D02*
D03*
X-45261Y243023D02*
D03*
X-80656Y228023D02*
D03*
X-75261D02*
D03*
X-67761Y227738D02*
D03*
Y234623D02*
D03*
X-75261Y234949D02*
D03*
X-82761D02*
D03*
X-60603Y260322D02*
D03*
X-65261Y243023D02*
D03*
X-70261D02*
D03*
X-75261D02*
D03*
X-80261D02*
D03*
X-85261D02*
D03*
X-90261D02*
D03*
X-102761Y228023D02*
D03*
X-112523Y235523D02*
D03*
X-117761Y228023D02*
D03*
X-124831D02*
D03*
X-130261Y258023D02*
D03*
Y263023D02*
D03*
X-137761D02*
D03*
Y258023D02*
D03*
X-102761Y253023D02*
D03*
Y248023D02*
D03*
Y242623D02*
D03*
X-112761Y242823D02*
D03*
X-117761Y243023D02*
D03*
X-122761D02*
D03*
X-127681D02*
D03*
X-132761D02*
D03*
X-204894Y276144D02*
D03*
X-211882Y277226D02*
D03*
X-213260Y272010D02*
D03*
X-111882Y185002D02*
D03*
X-112642Y198252D02*
D03*
X-81371Y179392D02*
D03*
X-87473D02*
D03*
X-103910Y185395D02*
D03*
X-106961D02*
D03*
X-92591D02*
D03*
X-95642D02*
D03*
X-98693D02*
D03*
X-92591Y179392D02*
D03*
X-131075Y230081D02*
D03*
X-136095Y229982D02*
D03*
X-93575Y229293D02*
D03*
X-246497Y328507D02*
D03*
X-250286Y315300D02*
D03*
X-262293Y335297D02*
D03*
X-275285Y323388D02*
D03*
X-267411Y332049D02*
D03*
X-227729Y258427D02*
D03*
X-159914Y214726D02*
D03*
X-194953Y214136D02*
D03*
X-216359Y183084D02*
D03*
X-216607Y228309D02*
D03*
X-225366Y214726D02*
D03*
X-228319Y218860D02*
D03*
X-201616Y223751D02*
D03*
X-165327Y273486D02*
D03*
X-160996Y265218D02*
D03*
X-171134Y273289D02*
D03*
X-275697Y216812D02*
D03*
X-259520Y198978D02*
D03*
X-252312Y233821D02*
D03*
X-247710Y256069D02*
D03*
X-380197Y260204D02*
D03*
X-265526Y251443D02*
D03*
X-263457Y232640D02*
D03*
X-190524Y286281D02*
D03*
X-190918Y310592D02*
D03*
X-178375Y305807D02*
D03*
X-188357Y297705D02*
D03*
X-179500Y291892D02*
D03*
X-188485Y302027D02*
D03*
X-184154Y297696D02*
D03*
X-611685Y128112D02*
D03*
X-586370Y132311D02*
D03*
X-195740Y143958D02*
D03*
X-374882Y143859D02*
D03*
X-384429Y142875D02*
D03*
X-375096Y138742D02*
D03*
X-373487Y127582D02*
D03*
X-383752Y138781D02*
D03*
X-427055Y106822D02*
D03*
X-390957Y34805D02*
D03*
X-400111Y34706D02*
D03*
X-367154Y56342D02*
D03*
X-372011Y30751D02*
D03*
X-377079Y30769D02*
D03*
Y26242D02*
D03*
X-384461Y34805D02*
D03*
X-382197Y30566D02*
D03*
Y26039D02*
D03*
X-386086Y20939D02*
D03*
X-382051Y19069D02*
D03*
X-389481Y24372D02*
D03*
X-377079Y21517D02*
D03*
X-372158Y19254D02*
D03*
X-377079Y15612D02*
D03*
X-406996Y34620D02*
D03*
X-409260Y30566D02*
D03*
X-414378Y30769D02*
D03*
X-419446Y30751D02*
D03*
X-401977Y24372D02*
D03*
X-409260Y26039D02*
D03*
X-405371Y20939D02*
D03*
X-409407Y19069D02*
D03*
X-414378Y26242D02*
D03*
Y21517D02*
D03*
Y15612D02*
D03*
X-363196Y49870D02*
D03*
X-381971Y102877D02*
D03*
X-375849Y111145D02*
D03*
X-375692Y116007D02*
D03*
X-370731Y123054D02*
D03*
X-424154Y89503D02*
D03*
X-374373Y123153D02*
D03*
X-420534Y89393D02*
D03*
X-375755Y89322D02*
D03*
X-372155Y89422D02*
D03*
X-377129Y127680D02*
D03*
X-404441Y142777D02*
D03*
X-415385Y103187D02*
D03*
X-433181Y45632D02*
D03*
X-415022Y99531D02*
D03*
X-431310Y49083D02*
D03*
X-410790Y97070D02*
D03*
X-431155Y66222D02*
D03*
X-407255Y95422D02*
D03*
X-430574Y62621D02*
D03*
X-401890Y93857D02*
D03*
X-401055Y48322D02*
D03*
X-390555Y48822D02*
D03*
X-394579Y93857D02*
D03*
X-391055Y90222D02*
D03*
X-394755Y81722D02*
D03*
X-389155Y52222D02*
D03*
X-389255Y95722D02*
D03*
X-392755Y77322D02*
D03*
X-385655Y96322D02*
D03*
X-391355Y64022D02*
D03*
X-361036Y52817D02*
D03*
X-380455Y99222D02*
D03*
X-369748Y62758D02*
D03*
X-368122Y49077D02*
D03*
X-373094Y62739D02*
D03*
X-372011Y58704D02*
D03*
Y54176D02*
D03*
X-375111Y49077D02*
D03*
X-372158Y47206D02*
D03*
X-418363Y62739D02*
D03*
X-416347Y49077D02*
D03*
X-419446Y54176D02*
D03*
X-419300Y47206D02*
D03*
X-421710Y62758D02*
D03*
X-419446Y58704D02*
D03*
X-424028Y56360D02*
D03*
X-401655Y81722D02*
D03*
X-405024Y89922D02*
D03*
X-406996Y62573D02*
D03*
X-404402Y56157D02*
D03*
X-402255Y52622D02*
D03*
X-405371Y48891D02*
D03*
X-410343Y62555D02*
D03*
X-409260Y53992D02*
D03*
Y58519D02*
D03*
X-409363Y47403D02*
D03*
X-412359Y48891D02*
D03*
X-381115Y62739D02*
D03*
X-382197Y58704D02*
D03*
X-379098Y49077D02*
D03*
X-382197Y54176D02*
D03*
X-382051Y47206D02*
D03*
X-384461Y62758D02*
D03*
X-387055Y56342D02*
D03*
X-386086Y49077D02*
D03*
X-490890Y47307D02*
D03*
X-463724Y30470D02*
D03*
X-471008Y24276D02*
D03*
X-495905Y30674D02*
D03*
Y21421D02*
D03*
X-465988Y34709D02*
D03*
X-463724Y25943D02*
D03*
X-488523Y34524D02*
D03*
X-495905Y26146D02*
D03*
X-486898Y20843D02*
D03*
X-453539Y30655D02*
D03*
X-458606Y15516D02*
D03*
Y21421D02*
D03*
Y30674D02*
D03*
X-483504Y24276D02*
D03*
X-490787Y30470D02*
D03*
X-500973Y30655D02*
D03*
X-458606Y26146D02*
D03*
X-490787Y25943D02*
D03*
X-500973Y26128D02*
D03*
X-508582Y106726D02*
D03*
X-457376Y111049D02*
D03*
X-457219Y115911D02*
D03*
X-511609Y127191D02*
D03*
X-472582Y90126D02*
D03*
X-476282Y81626D02*
D03*
X-470682Y52126D02*
D03*
X-448681Y56246D02*
D03*
X-442563Y52721D02*
D03*
X-461982Y99126D02*
D03*
X-496550Y99435D02*
D03*
X-512837Y48987D02*
D03*
X-444724Y49774D02*
D03*
X-463498Y102781D02*
D03*
X-472082Y48726D02*
D03*
X-476106Y93761D02*
D03*
X-467182Y96226D02*
D03*
X-472882Y63926D02*
D03*
X-470782Y95626D02*
D03*
X-474282Y77226D02*
D03*
X-455014Y127486D02*
D03*
X-457282Y89226D02*
D03*
X-453682Y89326D02*
D03*
X-458656Y127585D02*
D03*
X-483417Y93761D02*
D03*
X-482582Y48226D02*
D03*
X-496912Y103091D02*
D03*
X-514709Y45536D02*
D03*
X-488782Y95326D02*
D03*
X-512101Y62525D02*
D03*
X-492317Y96974D02*
D03*
X-512682Y66126D02*
D03*
X-455900Y123057D02*
D03*
X-502061Y89297D02*
D03*
X-452258Y122959D02*
D03*
X-505681Y89407D02*
D03*
X-467613Y20843D02*
D03*
X-463578Y18973D02*
D03*
X-453685Y19158D02*
D03*
X-467613Y48981D02*
D03*
X-451275Y62662D02*
D03*
X-449649Y48981D02*
D03*
X-454621Y62643D02*
D03*
X-453539Y58608D02*
D03*
Y54080D02*
D03*
X-453685Y47111D02*
D03*
X-456638Y48981D02*
D03*
X-500827Y19158D02*
D03*
X-490934Y18973D02*
D03*
X-462642Y62643D02*
D03*
X-460625Y48981D02*
D03*
X-463724Y58608D02*
D03*
Y54080D02*
D03*
X-465988Y62662D02*
D03*
X-463578Y47111D02*
D03*
X-468582Y56246D02*
D03*
X-472484Y34709D02*
D03*
X-481638Y34611D02*
D03*
X-499891Y62643D02*
D03*
X-497874Y48981D02*
D03*
X-500827Y47111D02*
D03*
X-500973Y58608D02*
D03*
Y54080D02*
D03*
X-503237Y62662D02*
D03*
X-505555Y56264D02*
D03*
X-483182Y81626D02*
D03*
X-486551Y89826D02*
D03*
X-488523Y62477D02*
D03*
X-485929Y56061D02*
D03*
X-483782Y52526D02*
D03*
X-486898Y48796D02*
D03*
X-490787Y58423D02*
D03*
X-491870Y62459D02*
D03*
X-490787Y53896D02*
D03*
X-493887Y48796D02*
D03*
X-275508Y235519D02*
D03*
X-378713Y283821D02*
D03*
X-378327Y272310D02*
D03*
X-376948Y268275D02*
D03*
X-345741Y242974D02*
D03*
X-348601Y258136D02*
D03*
X-335308Y260592D02*
D03*
X-356666Y248388D02*
D03*
X-360800Y214825D02*
D03*
X-328090Y203908D02*
D03*
X-198300Y294254D02*
D03*
X-198034Y298628D02*
D03*
X-197976Y303812D02*
D03*
X-373602Y164136D02*
D03*
X-347748Y153112D02*
D03*
X-368674Y157443D02*
D03*
X-364540Y153407D02*
D03*
X-342500Y202047D02*
D03*
X-445081Y237275D02*
D03*
X-432917Y238049D02*
D03*
X-605191Y122719D02*
D03*
X-263472Y106429D02*
D03*
X-227374Y34411D02*
D03*
X-236528Y34313D02*
D03*
X-203571Y55948D02*
D03*
X-237924Y140197D02*
D03*
X-208429Y30358D02*
D03*
X-213496Y30376D02*
D03*
Y25848D02*
D03*
X-220878Y34411D02*
D03*
X-218615Y30173D02*
D03*
Y25645D02*
D03*
X-222503Y20545D02*
D03*
X-225898Y23978D02*
D03*
X-218468Y18675D02*
D03*
X-208575Y18860D02*
D03*
X-213496Y21124D02*
D03*
Y15218D02*
D03*
X-255717Y18860D02*
D03*
X-243414Y34226D02*
D03*
X-245677Y30173D02*
D03*
X-250796Y30376D02*
D03*
X-255863Y30358D02*
D03*
X-238394Y23978D02*
D03*
X-241789Y20545D02*
D03*
X-255863Y25830D02*
D03*
X-199614Y49477D02*
D03*
X-218389Y102484D02*
D03*
X-212266Y110751D02*
D03*
X-212109Y115614D02*
D03*
X-207148Y122661D02*
D03*
X-260571Y89109D02*
D03*
X-210790Y122759D02*
D03*
X-256952Y88999D02*
D03*
X-209904Y127188D02*
D03*
X-212172Y88929D02*
D03*
X-208572Y89029D02*
D03*
X-213546Y127287D02*
D03*
X-240859Y142384D02*
D03*
X-243074Y139491D02*
D03*
X-275051Y124536D02*
D03*
X-251802Y102793D02*
D03*
X-269599Y45238D02*
D03*
X-251440Y99137D02*
D03*
X-267727Y48689D02*
D03*
X-247207Y96676D02*
D03*
X-267572Y65829D02*
D03*
X-243672Y95029D02*
D03*
X-266991Y62228D02*
D03*
X-238307Y93463D02*
D03*
X-237472Y47929D02*
D03*
X-226972Y48428D02*
D03*
X-230996Y93463D02*
D03*
X-227472Y89828D02*
D03*
X-231172Y81328D02*
D03*
X-225572Y51828D02*
D03*
X-225672Y95328D02*
D03*
X-229172Y76929D02*
D03*
X-222072Y95929D02*
D03*
X-227772Y63629D02*
D03*
X-197453Y52423D02*
D03*
X-216872Y98829D02*
D03*
X-206165Y62364D02*
D03*
X-204540Y48683D02*
D03*
X-209511Y62346D02*
D03*
X-208429Y58310D02*
D03*
Y53783D02*
D03*
X-211528Y48683D02*
D03*
X-208575Y46813D02*
D03*
X-254781Y62346D02*
D03*
X-252764Y48683D02*
D03*
X-255863Y53783D02*
D03*
X-255717Y46813D02*
D03*
X-258127Y62364D02*
D03*
X-255863Y58310D02*
D03*
X-260445Y55966D02*
D03*
X-238072Y81328D02*
D03*
X-241441Y89529D02*
D03*
X-243414Y62179D02*
D03*
X-240820Y55763D02*
D03*
X-238672Y52228D02*
D03*
X-241789Y48498D02*
D03*
X-246760Y62161D02*
D03*
X-245677Y53598D02*
D03*
Y58125D02*
D03*
X-245780Y47010D02*
D03*
X-248777Y48498D02*
D03*
X-217532Y62346D02*
D03*
X-218615Y58310D02*
D03*
X-215515Y48683D02*
D03*
X-218615Y53783D02*
D03*
X-218468Y46813D02*
D03*
X-220878Y62364D02*
D03*
X-223472Y55948D02*
D03*
X-222503Y48683D02*
D03*
X-13906Y148471D02*
D03*
X-606948Y126976D02*
D03*
X-540398Y30674D02*
D03*
Y21421D02*
D03*
Y15516D02*
D03*
X-572579Y30470D02*
D03*
X-565295Y24276D02*
D03*
X-547780Y34709D02*
D03*
X-540398Y26146D02*
D03*
X-570315Y34524D02*
D03*
X-572579Y25943D02*
D03*
X-535330Y30655D02*
D03*
X-545516Y30470D02*
D03*
X-577697Y15516D02*
D03*
Y21421D02*
D03*
Y30674D02*
D03*
X-582764Y30655D02*
D03*
X-545516Y25943D02*
D03*
X-568690Y20843D02*
D03*
X-577697Y26146D02*
D03*
X-582764Y26128D02*
D03*
X-590373Y106726D02*
D03*
X-554276Y34709D02*
D03*
X-563429Y34611D02*
D03*
X-530472Y56246D02*
D03*
X-545369Y18973D02*
D03*
X-535476Y19158D02*
D03*
X-582618D02*
D03*
X-572725Y18973D02*
D03*
X-593400Y127191D02*
D03*
X-526515Y49774D02*
D03*
X-545290Y102781D02*
D03*
X-539168Y111049D02*
D03*
X-539010Y115911D02*
D03*
X-534050Y122959D02*
D03*
X-587472Y89407D02*
D03*
X-537691Y123057D02*
D03*
X-583853Y89297D02*
D03*
X-536805Y127486D02*
D03*
X-539073Y89226D02*
D03*
X-535473Y89326D02*
D03*
X-540447Y127585D02*
D03*
X-578703Y103091D02*
D03*
X-596500Y45536D02*
D03*
X-578341Y99435D02*
D03*
X-594628Y48987D02*
D03*
X-574109Y96974D02*
D03*
X-594473Y66126D02*
D03*
X-570573Y95326D02*
D03*
X-593892Y62525D02*
D03*
X-565209Y93761D02*
D03*
X-564373Y48226D02*
D03*
X-553873Y48726D02*
D03*
X-557897Y93761D02*
D03*
X-554373Y90126D02*
D03*
X-558073Y81626D02*
D03*
X-552473Y52126D02*
D03*
X-552573Y95626D02*
D03*
X-556073Y77226D02*
D03*
X-548973Y96226D02*
D03*
X-554673Y63926D02*
D03*
X-524354Y52721D02*
D03*
X-543773Y99126D02*
D03*
X-533066Y62662D02*
D03*
X-531441Y48981D02*
D03*
X-536412Y62643D02*
D03*
X-535330Y58608D02*
D03*
Y54080D02*
D03*
X-538429Y48981D02*
D03*
X-535476Y47111D02*
D03*
X-581682Y62643D02*
D03*
X-579665Y48981D02*
D03*
X-582764Y58608D02*
D03*
Y54080D02*
D03*
X-582618Y47111D02*
D03*
X-585028Y62662D02*
D03*
X-587346Y56264D02*
D03*
X-564973Y81626D02*
D03*
X-568342Y89826D02*
D03*
X-570315Y62477D02*
D03*
X-567721Y56061D02*
D03*
X-565573Y52526D02*
D03*
X-568690Y48796D02*
D03*
X-573661Y62459D02*
D03*
X-572579Y53896D02*
D03*
Y58423D02*
D03*
X-572681Y47307D02*
D03*
X-575678Y48796D02*
D03*
X-544433Y62643D02*
D03*
X-542416Y48981D02*
D03*
X-545516Y58608D02*
D03*
Y54080D02*
D03*
X-547780Y62662D02*
D03*
X-545369Y47111D02*
D03*
X-549405Y48981D02*
D03*
X-550374Y56246D02*
D03*
X26041Y30470D02*
D03*
X18758Y24276D02*
D03*
X-6140Y15516D02*
D03*
Y21421D02*
D03*
Y30674D02*
D03*
X1242Y34524D02*
D03*
X26041Y25943D02*
D03*
X2867Y20843D02*
D03*
X-6140Y26146D02*
D03*
X36227Y30655D02*
D03*
X31159Y30674D02*
D03*
Y21421D02*
D03*
Y15516D02*
D03*
X6261Y24276D02*
D03*
X-1022Y30470D02*
D03*
X-11208Y30655D02*
D03*
X31159Y26146D02*
D03*
X23777Y34709D02*
D03*
X-1022Y25943D02*
D03*
X-11208Y26128D02*
D03*
X-18816Y106726D02*
D03*
X17281Y34709D02*
D03*
X8128Y34611D02*
D03*
X41085Y56246D02*
D03*
X6732Y140494D02*
D03*
X26188Y18973D02*
D03*
X22152Y20843D02*
D03*
X36080Y19158D02*
D03*
X-11061D02*
D03*
X-1168Y18973D02*
D03*
X47202Y52721D02*
D03*
X27784Y99126D02*
D03*
X22583Y96226D02*
D03*
X16883Y63926D02*
D03*
X18983Y95626D02*
D03*
X15484Y77226D02*
D03*
X17184Y90126D02*
D03*
X13484Y81626D02*
D03*
X19083Y52126D02*
D03*
X17684Y48726D02*
D03*
X13659Y93761D02*
D03*
X6348D02*
D03*
X7183Y48226D02*
D03*
X984Y95326D02*
D03*
X-22335Y62525D02*
D03*
X-2552Y96974D02*
D03*
X-22917Y66126D02*
D03*
X-6784Y99435D02*
D03*
X-23072Y48987D02*
D03*
X-7147Y103091D02*
D03*
X-24943Y45536D02*
D03*
X1582Y139789D02*
D03*
X8423Y144059D02*
D03*
X24761Y138744D02*
D03*
X32734Y135693D02*
D03*
X36083Y89326D02*
D03*
X31109Y127585D02*
D03*
X34751Y127486D02*
D03*
X32484Y89226D02*
D03*
X33865Y123057D02*
D03*
X-12296Y89297D02*
D03*
X37507Y122959D02*
D03*
X-15915Y89407D02*
D03*
X32546Y115911D02*
D03*
X32389Y111049D02*
D03*
X45042Y49774D02*
D03*
X26267Y102781D02*
D03*
X38491Y62662D02*
D03*
X40116Y48981D02*
D03*
X35144Y62643D02*
D03*
X36227Y58608D02*
D03*
Y54080D02*
D03*
X33128Y48981D02*
D03*
X36080Y47111D02*
D03*
X-10125Y62643D02*
D03*
X-11208Y58608D02*
D03*
X-8109Y48981D02*
D03*
X-11061Y47111D02*
D03*
X-13472Y62662D02*
D03*
X-11208Y54080D02*
D03*
X-15790Y56264D02*
D03*
X6583Y81626D02*
D03*
X3214Y89826D02*
D03*
X1242Y62477D02*
D03*
X3836Y56061D02*
D03*
X5984Y52526D02*
D03*
X2867Y48796D02*
D03*
X-2105Y62459D02*
D03*
X-1022Y53896D02*
D03*
Y58423D02*
D03*
X-1124Y47307D02*
D03*
X-4121Y48796D02*
D03*
X27124Y62643D02*
D03*
X26041Y58608D02*
D03*
X29140Y48981D02*
D03*
X26041Y54080D02*
D03*
X26188Y47111D02*
D03*
X23777Y62662D02*
D03*
X21183Y56246D02*
D03*
X22152Y48981D02*
D03*
X-55259Y30470D02*
D03*
X-62542Y24276D02*
D03*
X-87440Y15516D02*
D03*
Y21421D02*
D03*
Y30674D02*
D03*
X-80058Y34524D02*
D03*
X-55259Y25943D02*
D03*
X-87440Y26146D02*
D03*
X-45073Y30655D02*
D03*
X-50141Y30674D02*
D03*
Y21421D02*
D03*
Y15516D02*
D03*
X-82322Y30470D02*
D03*
X-92508Y30655D02*
D03*
X-50141Y26146D02*
D03*
X-57523Y34709D02*
D03*
X-82322Y25943D02*
D03*
X-92508Y26128D02*
D03*
X-100117Y106726D02*
D03*
X-64019Y34709D02*
D03*
X-73172Y34611D02*
D03*
X-40215Y56246D02*
D03*
X-74568Y140494D02*
D03*
X-55112Y18973D02*
D03*
X-59148Y20843D02*
D03*
X-45220Y19158D02*
D03*
X-92361D02*
D03*
X-82468Y18973D02*
D03*
X-103143Y127191D02*
D03*
X-34098Y52721D02*
D03*
X-53517Y99126D02*
D03*
X-58716Y96226D02*
D03*
X-64416Y63926D02*
D03*
X-62317Y95626D02*
D03*
X-65816Y77226D02*
D03*
X-64117Y90126D02*
D03*
X-67817Y81626D02*
D03*
X-62217Y52126D02*
D03*
X-63617Y48726D02*
D03*
X-67641Y93761D02*
D03*
X-74952D02*
D03*
X-74116Y48226D02*
D03*
X-80317Y95326D02*
D03*
X-103635Y62525D02*
D03*
X-83852Y96974D02*
D03*
X-104217Y66126D02*
D03*
X-88084Y99435D02*
D03*
X-104372Y48987D02*
D03*
X-88447Y103091D02*
D03*
X-106243Y45536D02*
D03*
X-107039Y133099D02*
D03*
X-79718Y139789D02*
D03*
X-72877Y144059D02*
D03*
X-56538Y138744D02*
D03*
X-48566Y135693D02*
D03*
X-45217Y89326D02*
D03*
X-50191Y127585D02*
D03*
X-46549Y127486D02*
D03*
X-48816Y89226D02*
D03*
X-47435Y123057D02*
D03*
X-93596Y89297D02*
D03*
X-43793Y122959D02*
D03*
X-97215Y89407D02*
D03*
X-48753Y115911D02*
D03*
X-48911Y111049D02*
D03*
X-36258Y49774D02*
D03*
X-55033Y102781D02*
D03*
X-42809Y62662D02*
D03*
X-41184Y48981D02*
D03*
X-46156Y62643D02*
D03*
X-45073Y58608D02*
D03*
Y54080D02*
D03*
X-48172Y48981D02*
D03*
X-45220Y47111D02*
D03*
X-91425Y62643D02*
D03*
X-92508Y58608D02*
D03*
X-89409Y48981D02*
D03*
X-92361Y47111D02*
D03*
X-94772Y62662D02*
D03*
X-92508Y54080D02*
D03*
X-97090Y56264D02*
D03*
X-74717Y81626D02*
D03*
X-78086Y89826D02*
D03*
X-80058Y62477D02*
D03*
X-77464Y56061D02*
D03*
X-75317Y52526D02*
D03*
X-78433Y48796D02*
D03*
X-83405Y62459D02*
D03*
X-82322Y53896D02*
D03*
Y58423D02*
D03*
X-82424Y47307D02*
D03*
X-85421Y48796D02*
D03*
X-54176Y62643D02*
D03*
X-55259Y58608D02*
D03*
X-52160Y48981D02*
D03*
X-55259Y54080D02*
D03*
X-55112Y47111D02*
D03*
X-57523Y62662D02*
D03*
X-60117Y56246D02*
D03*
X-59148Y48981D02*
D03*
X-57326Y143075D02*
D03*
X-136559Y30470D02*
D03*
X-143842Y24276D02*
D03*
X-168740Y21421D02*
D03*
Y30674D02*
D03*
X-161358Y34524D02*
D03*
X-136559Y25943D02*
D03*
X-168740Y26146D02*
D03*
X-126373Y30655D02*
D03*
X-131441Y30674D02*
D03*
Y21421D02*
D03*
Y15516D02*
D03*
X-156339Y24276D02*
D03*
X-163622Y30470D02*
D03*
X-173808Y30655D02*
D03*
X-131441Y26146D02*
D03*
X-138823Y34709D02*
D03*
X-173808Y26128D02*
D03*
X-181416Y106726D02*
D03*
X-145319Y34709D02*
D03*
X-154472Y34611D02*
D03*
X-121515Y56246D02*
D03*
X-155868Y140494D02*
D03*
X-136413Y18973D02*
D03*
X-140448Y20843D02*
D03*
X-126520Y19158D02*
D03*
X-173661D02*
D03*
X-184443Y127191D02*
D03*
X-115398Y52721D02*
D03*
X-134817Y99126D02*
D03*
X-140016Y96226D02*
D03*
X-145717Y63926D02*
D03*
X-143616Y95626D02*
D03*
X-147116Y77226D02*
D03*
X-145416Y90126D02*
D03*
X-149117Y81626D02*
D03*
X-143517Y52126D02*
D03*
X-144916Y48726D02*
D03*
X-148941Y93761D02*
D03*
X-156252D02*
D03*
X-155417Y48226D02*
D03*
X-161617Y95326D02*
D03*
X-184935Y62525D02*
D03*
X-165152Y96974D02*
D03*
X-185517Y66126D02*
D03*
X-169384Y99435D02*
D03*
X-185672Y48987D02*
D03*
X-169747Y103091D02*
D03*
X-187543Y45536D02*
D03*
X-188535Y133591D02*
D03*
X-161018Y139789D02*
D03*
X-154177Y144059D02*
D03*
X-129866Y135693D02*
D03*
X-126516Y89326D02*
D03*
X-131491Y127585D02*
D03*
X-127849Y127486D02*
D03*
X-130116Y89226D02*
D03*
X-128735Y123057D02*
D03*
X-174896Y89297D02*
D03*
X-125093Y122959D02*
D03*
X-178515Y89407D02*
D03*
X-130053Y115911D02*
D03*
X-130211Y111049D02*
D03*
X-117558Y49774D02*
D03*
X-136333Y102781D02*
D03*
X-124109Y62662D02*
D03*
X-122484Y48981D02*
D03*
X-127456Y62643D02*
D03*
X-126373Y58608D02*
D03*
Y54080D02*
D03*
X-129472Y48981D02*
D03*
X-126520Y47111D02*
D03*
X-172725Y62643D02*
D03*
X-173808Y58608D02*
D03*
X-170709Y48981D02*
D03*
X-173661Y47111D02*
D03*
X-176072Y62662D02*
D03*
X-173808Y54080D02*
D03*
X-178390Y56264D02*
D03*
X-156017Y81626D02*
D03*
X-159386Y89826D02*
D03*
X-161358Y62477D02*
D03*
X-158764Y56061D02*
D03*
X-156616Y52526D02*
D03*
X-159733Y48796D02*
D03*
X-164705Y62459D02*
D03*
X-163622Y53896D02*
D03*
Y58423D02*
D03*
X-163724Y47307D02*
D03*
X-166721Y48796D02*
D03*
X-135476Y62643D02*
D03*
X-136559Y58608D02*
D03*
X-133460Y48981D02*
D03*
X-136559Y54080D02*
D03*
X-136413Y47111D02*
D03*
X-138823Y62662D02*
D03*
X-141417Y56246D02*
D03*
X-140448Y48981D02*
D03*
X-138626Y143075D02*
D03*
X-295023Y30674D02*
D03*
Y21421D02*
D03*
Y15516D02*
D03*
X-327205Y30470D02*
D03*
X-319921Y24276D02*
D03*
X-302405Y34709D02*
D03*
X-295023Y26146D02*
D03*
X-324941Y34524D02*
D03*
X-327205Y25943D02*
D03*
X-289956Y30655D02*
D03*
X-300142Y30470D02*
D03*
X-307425Y24276D02*
D03*
X-332323Y30674D02*
D03*
X-337390Y30655D02*
D03*
X-300142Y25943D02*
D03*
X-323316Y20843D02*
D03*
X-344999Y106726D02*
D03*
X-308902Y34709D02*
D03*
X-318055Y34611D02*
D03*
X-285098Y56246D02*
D03*
X-304031Y20843D02*
D03*
X-299995Y18973D02*
D03*
X-290102Y19158D02*
D03*
X-327351Y18973D02*
D03*
X-348026Y127191D02*
D03*
X-281141Y49774D02*
D03*
X-299916Y102781D02*
D03*
X-293794Y111049D02*
D03*
X-293636Y115911D02*
D03*
X-288675Y122959D02*
D03*
X-342098Y89407D02*
D03*
X-292317Y123057D02*
D03*
X-338479Y89297D02*
D03*
X-293699Y89226D02*
D03*
X-290099Y89326D02*
D03*
X-295073Y127585D02*
D03*
X-333329Y103091D02*
D03*
X-351126Y45536D02*
D03*
X-332967Y99435D02*
D03*
X-349254Y48987D02*
D03*
X-328735Y96974D02*
D03*
X-349099Y66126D02*
D03*
X-325199Y95326D02*
D03*
X-348518Y62525D02*
D03*
X-319835Y93761D02*
D03*
X-318999Y48226D02*
D03*
X-308499Y48726D02*
D03*
X-312523Y93761D02*
D03*
X-308999Y90126D02*
D03*
X-312699Y81626D02*
D03*
X-307099Y52126D02*
D03*
X-307199Y95626D02*
D03*
X-310699Y77226D02*
D03*
X-303599Y96226D02*
D03*
X-309299Y63926D02*
D03*
X-278980Y52721D02*
D03*
X-298399Y99126D02*
D03*
X-287692Y62662D02*
D03*
X-286067Y48981D02*
D03*
X-291038Y62643D02*
D03*
X-289956Y58608D02*
D03*
Y54080D02*
D03*
X-293055Y48981D02*
D03*
X-290102Y47111D02*
D03*
X-336308Y62643D02*
D03*
X-334291Y48981D02*
D03*
X-337390Y58608D02*
D03*
Y54080D02*
D03*
X-337244Y47111D02*
D03*
X-339654Y62662D02*
D03*
X-341972Y56264D02*
D03*
X-319599Y81626D02*
D03*
X-322968Y89826D02*
D03*
X-324941Y62477D02*
D03*
X-322347Y56061D02*
D03*
X-320199Y52526D02*
D03*
X-323316Y48796D02*
D03*
X-328287Y62459D02*
D03*
X-327205Y53896D02*
D03*
Y58423D02*
D03*
X-327307Y47307D02*
D03*
X-330304Y48796D02*
D03*
X-299059Y62643D02*
D03*
X-297042Y48981D02*
D03*
X-300142Y58608D02*
D03*
Y54080D02*
D03*
X-302405Y62662D02*
D03*
X-299995Y47111D02*
D03*
X-304031Y48981D02*
D03*
X-304999Y56246D02*
D03*
X-184154Y302027D02*
D03*
X-268174Y351320D02*
D03*
X-275705Y239853D02*
D03*
X-573973Y304207D02*
D03*
X-478165Y220619D02*
D03*
X-487898Y236158D02*
D03*
X-328168Y257729D02*
D03*
X-601156Y111692D02*
D03*
X-274130Y261269D02*
D03*
X-299634Y259891D02*
D03*
X-292240Y249261D02*
D03*
X-312999Y260820D02*
D03*
X25470Y294935D02*
D03*
Y298183D02*
D03*
X-6360Y199482D02*
D03*
X-9707D02*
D03*
X-176576Y297841D02*
D03*
X35727Y253484D02*
D03*
X30389D02*
D03*
X-562900Y281228D02*
D03*
X-421887Y290274D02*
D03*
X-411173Y263774D02*
D03*
X-486773Y271074D02*
D03*
X-461273Y291074D02*
D03*
X-421899Y286356D02*
D03*
X-453073Y325326D02*
D03*
X-437473Y325011D02*
D03*
X-428733Y286308D02*
D03*
X-490735Y236136D02*
D03*
X-469373Y261526D02*
D03*
X-441166Y290883D02*
D03*
X-441173Y287274D02*
D03*
X-483673Y283174D02*
D03*
X-567169Y293257D02*
D03*
X-460373Y282426D02*
D03*
X54514Y185309D02*
D03*
X48329Y171740D02*
D03*
X54612Y178911D02*
D03*
X54514Y192297D02*
D03*
X49888Y199482D02*
D03*
X43293D02*
D03*
X46640D02*
D03*
X27893Y287024D02*
D03*
X38940Y286959D02*
D03*
X51059Y287102D02*
D03*
X32543Y286860D02*
D03*
X45928Y286959D02*
D03*
X53114Y298179D02*
D03*
Y294832D02*
D03*
X-3112Y199482D02*
D03*
X-12955D02*
D03*
X-38054Y304194D02*
D03*
Y296616D02*
D03*
Y300454D02*
D03*
Y287364D02*
D03*
Y283525D02*
D03*
Y291104D02*
D03*
X-466700Y255693D02*
D03*
X47427Y253484D02*
D03*
X42727D02*
D03*
X30623Y233282D02*
D03*
X-560325Y330172D02*
D03*
X-581273Y300507D02*
D03*
X-581573Y307907D02*
D03*
X-461282Y287302D02*
D03*
X-451422Y290872D02*
D03*
X-490273Y289426D02*
D03*
X-416558Y293093D02*
D03*
X-137761Y243023D02*
D03*
X-45052Y229588D02*
D03*
X-88556Y229392D02*
D03*
X-107761Y242823D02*
D03*
X-95261Y243023D02*
D03*
X-60061Y244823D02*
D03*
Y253923D02*
D03*
X-16062Y253924D02*
D03*
Y244824D02*
D03*
X-50261Y243023D02*
D03*
X-60361Y236323D02*
D03*
X-16162Y236124D02*
D03*
X-470356Y245340D02*
D03*
X-469836Y255680D02*
D03*
X-447273Y339663D02*
D03*
X-432295Y339658D02*
D03*
X10242Y392105D02*
D03*
X-421373Y310026D02*
D03*
X20482Y390234D02*
D03*
X-123311Y273959D02*
D03*
X-465373Y320326D02*
D03*
X-489573Y270926D02*
D03*
X-492273Y255526D02*
D03*
X-495373D02*
D03*
X-572273Y219726D02*
D03*
X-595673Y214674D02*
D03*
X-590473Y210974D02*
D03*
X-428736Y289989D02*
D03*
X-80938Y273326D02*
D03*
X-36996Y273228D02*
D03*
X-393473Y299874D02*
D03*
G54D301*
X-281510Y326600D02*
Y350600D01*
X-279710Y352400D01*
Y356693D01*
X-286772Y363755D02*
X-279710Y356693D01*
X-570510Y319100D02*
Y329405D01*
X-547557Y348548D02*
X-545220D01*
X-554964D02*
X-552231D01*
X-562937Y340575D02*
X-554964Y348548D01*
X124858Y-121827D02*
Y429355D01*
X-623173D02*
X124858D01*
X-623173D02*
X-623173Y-121827D01*
X-103155Y331569D02*
X-102304Y332420D01*
X-103155Y322200D02*
Y331569D01*
X-102304Y332420D02*
X-98268Y336455D01*
Y429556D01*
X-141147Y317591D02*
Y329773D01*
X-137111Y333808D01*
Y429946D01*
X-179139Y317591D02*
Y329773D01*
X-175103Y333808D01*
Y430491D01*
X-211752Y336455D02*
Y430413D01*
X-215788Y332420D02*
X-211752Y336455D01*
X-215788Y320338D02*
Y332520D01*
X-253583Y320336D02*
Y332344D01*
X-249548Y336380D01*
X-249548Y336480D02*
Y430413D01*
X-286772Y363755D02*
Y429789D01*
X-562937Y336978D02*
Y340575D01*
X-570510Y329405D02*
X-562937Y336978D01*
X-576473Y247926D02*
X-569073Y255326D01*
X-575184Y314426D02*
X-570510Y319100D01*
X-569073Y255326D02*
X-541973Y282426D01*
X-615345Y314426D02*
X-575184D01*
X-545220Y348548D02*
X-536476Y339803D01*
X-552231Y348548D02*
X-547557D01*
X-536476Y287924D02*
Y339803D01*
X-615345Y247926D02*
X-576473D01*
X-541973Y282426D02*
X-536476Y287924D01*
X-615345Y247925D02*
Y314320D01*
X-127050Y266172D02*
X-104802D01*
X-84700Y265772D02*
X-62453D01*
X-40701Y265773D02*
X-18453D01*
X-40701Y245380D02*
Y265773D01*
Y245380D02*
X-18453D01*
Y265773D01*
X-84700Y245380D02*
Y265772D01*
Y245380D02*
X-62453D01*
Y265772D01*
X-127050Y245780D02*
Y266172D01*
X-104802Y245780D02*
Y266172D01*
X-127050Y245780D02*
X-104802D01*
X-623173Y-121827D02*
X124858D01*
G54D346*
X-601910Y152200D02*
D03*
X-611910D02*
D03*
X-601910Y162200D02*
D03*
X-611910D02*
D03*
Y172200D02*
D03*
X-587473Y278847D02*
D03*
X-579573D02*
D03*
Y268926D02*
D03*
G54D352*
X-516210Y162100D02*
D03*
X-444010Y176500D02*
D03*
X-456810Y180600D02*
D03*
X-440579Y183600D02*
D03*
X-490288Y160600D02*
D03*
X-496876Y160800D02*
D03*
X-498810Y150100D02*
D03*
X-503910Y150200D02*
D03*
X-509010D02*
D03*
X-516310Y150100D02*
D03*
X-511910Y159400D02*
D03*
X35190Y395200D02*
D03*
X-414410Y334900D02*
D03*
X-424923Y342963D02*
D03*
X-423810Y336600D02*
D03*
Y332700D02*
D03*
X-488910Y347100D02*
D03*
X-517310Y191400D02*
D03*
X-558028Y191000D02*
D03*
X-423910Y147600D02*
D03*
X-517473Y238600D02*
D03*
X-528010Y240500D02*
D03*
X-298610Y383073D02*
D03*
X-562910Y164800D02*
D03*
X-263360Y149750D02*
D03*
X-155910Y151000D02*
D03*
X-148010Y151500D02*
D03*
X-232810Y149900D02*
D03*
X-226610Y144700D02*
D03*
X-151618Y151031D02*
D03*
X-144110Y151390D02*
D03*
X-41184Y154443D02*
D03*
X-149310Y162637D02*
D03*
X-214710Y233000D02*
D03*
X-225610Y240200D02*
D03*
X-224910Y243900D02*
D03*
X-225110Y249900D02*
D03*
X-217210Y249800D02*
D03*
X-204410Y243400D02*
D03*
X-198910Y190700D02*
D03*
X-199210Y197046D02*
D03*
X-198595Y207049D02*
D03*
X-199210Y200600D02*
D03*
X-220010Y207100D02*
D03*
Y200900D02*
D03*
Y196600D02*
D03*
Y190000D02*
D03*
X-225610D02*
D03*
X-215110D02*
D03*
Y196600D02*
D03*
X-225610D02*
D03*
X-214810Y207100D02*
D03*
X-225710D02*
D03*
X-215310Y201200D02*
D03*
X-225010Y200900D02*
D03*
X7200Y152500D02*
D03*
X14290Y156000D02*
D03*
X11090Y152400D02*
D03*
X-563760Y194391D02*
D03*
X-529010Y184000D02*
D03*
X-564710Y156800D02*
D03*
X-570910Y158100D02*
D03*
X-571580Y163700D02*
D03*
X-543210Y150100D02*
D03*
X-575010Y145200D02*
D03*
X-531010Y144546D02*
D03*
Y149300D02*
D03*
X-527910Y150300D02*
D03*
X-528710Y159300D02*
D03*
X-527910Y145800D02*
D03*
X-329610Y157100D02*
D03*
X-420575Y146100D02*
D03*
X-478145Y165650D02*
D03*
X-478969Y168864D02*
D03*
X-544310Y163300D02*
D03*
X-529710Y165000D02*
D03*
X-566310Y163700D02*
D03*
X-272611Y149150D02*
D03*
X-479174Y173874D02*
D03*
X-450950Y172720D02*
D03*
X-452884Y189695D02*
D03*
X-442510Y204300D02*
D03*
X-456510Y205535D02*
D03*
X-453374Y205652D02*
D03*
X-504510Y138900D02*
D03*
X-469810Y176200D02*
D03*
X-479510Y184700D02*
D03*
X-313810Y164100D02*
D03*
X-303910Y161300D02*
D03*
X-298300Y163269D02*
D03*
X-303745Y156028D02*
D03*
X-287271Y149300D02*
D03*
X17214Y149451D02*
D03*
X-66210Y150900D02*
D03*
X-73910D02*
D03*
X40116Y145100D02*
D03*
X-261531Y169721D02*
D03*
X-255631D02*
D03*
X-484239Y192371D02*
D03*
X-480510Y192100D02*
D03*
X-491233Y189664D02*
D03*
X-464010Y191600D02*
D03*
X-446510Y189600D02*
D03*
X-381750Y188500D02*
D03*
X-382910Y204000D02*
D03*
X-385410Y192500D02*
D03*
X-386910Y189600D02*
D03*
X-382910Y216100D02*
D03*
X-376712Y183926D02*
D03*
X-361710Y181600D02*
D03*
X-537361Y196851D02*
D03*
X-536871Y200348D02*
D03*
X-502110Y204000D02*
D03*
X-435750Y139900D02*
D03*
X-435610Y208100D02*
D03*
X-283210Y144300D02*
D03*
X-394377Y192757D02*
D03*
X-464410Y200524D02*
D03*
X-558710Y164200D02*
D03*
X-476233Y184664D02*
D03*
X-452074Y209140D02*
D03*
X-351710Y318000D02*
D03*
X-352110Y332300D02*
D03*
X-581110Y175900D02*
D03*
X-576410Y180500D02*
D03*
X-573810Y186200D02*
D03*
X-571410Y192600D02*
D03*
X-420910Y229300D02*
D03*
X-426710Y229400D02*
D03*
X-423610Y227400D02*
D03*
X-407810Y239200D02*
D03*
X-429710Y227200D02*
D03*
X-501710Y230700D02*
D03*
X-505610Y234600D02*
D03*
X-445110Y313304D02*
D03*
X-384810Y224700D02*
D03*
X-382910Y219600D02*
D03*
X-583010Y150500D02*
D03*
X-580373Y352274D02*
D03*
X-284610Y354700D02*
D03*
X-282110D02*
D03*
X-307610Y380400D02*
D03*
X-299410Y399200D02*
D03*
X-314110Y380700D02*
D03*
X-295356Y353776D02*
D03*
X-297391Y355811D02*
D03*
X-402710Y338200D02*
D03*
X-388026Y339100D02*
D03*
X-384501Y330461D02*
D03*
X-380410Y338900D02*
D03*
X-375810Y341800D02*
D03*
X-374610Y337100D02*
D03*
X-376586Y330461D02*
D03*
X-307210Y326600D02*
D03*
X-313210Y323911D02*
D03*
X-315010Y317200D02*
D03*
X-306610Y329700D02*
D03*
X-144910Y283900D02*
D03*
X-266842Y318565D02*
D03*
X-165996Y312424D02*
D03*
X-294510Y340499D02*
D03*
X-308710Y358200D02*
D03*
X-301110Y345300D02*
D03*
X-311810Y334100D02*
D03*
X-309210Y336100D02*
D03*
X-306310Y334200D02*
D03*
X-292710Y337000D02*
D03*
X-292810Y333800D02*
D03*
X-288310Y334600D02*
D03*
X-298110Y326900D02*
D03*
X-318210Y331800D02*
D03*
X-318510Y326900D02*
D03*
X-340790Y329500D02*
D03*
X-337810Y324600D02*
D03*
X-317510Y347200D02*
D03*
X-321510Y346900D02*
D03*
X-337910Y333000D02*
D03*
X-344710Y319000D02*
D03*
X-347010Y348700D02*
D03*
X-328110Y337200D02*
D03*
X-346260Y338733D02*
D03*
X-354210Y343300D02*
D03*
X-380510Y320800D02*
D03*
X-413910Y347300D02*
D03*
X-394482Y356400D02*
D03*
X-366210Y350300D02*
D03*
X-405110Y357400D02*
D03*
X-352710Y326100D02*
D03*
X-337360Y317000D02*
D03*
X-355359Y316651D02*
D03*
X-361361Y339499D02*
D03*
X-365310Y339100D02*
D03*
X-361110Y330700D02*
D03*
X-394102Y328723D02*
D03*
X-389710Y344900D02*
D03*
X-401310Y341418D02*
D03*
X-575460Y347700D02*
D03*
X-582402Y334402D02*
D03*
X-575610Y339500D02*
D03*
X-595010Y319900D02*
D03*
X-596110Y325300D02*
D03*
X-600320Y337526D02*
D03*
X-575110Y344600D02*
D03*
X-587510Y344500D02*
D03*
X-590264Y350977D02*
D03*
X-577410Y335000D02*
D03*
X-590210Y329800D02*
D03*
X-597663Y318139D02*
D03*
X-590810Y344000D02*
D03*
X-601110Y359800D02*
D03*
X-582510Y363700D02*
D03*
X-583110Y369600D02*
D03*
X-597410Y364251D02*
D03*
X53390Y343500D02*
D03*
X53590Y351100D02*
D03*
X57927Y370038D02*
D03*
X-252115Y241119D02*
D03*
X-256446D02*
D03*
Y245449D02*
D03*
X-252115D02*
D03*
X46119Y371570D02*
D03*
Y367570D02*
D03*
Y375570D02*
D03*
Y379570D02*
D03*
X50119D02*
D03*
X54119D02*
D03*
Y375570D02*
D03*
X50119D02*
D03*
Y371570D02*
D03*
X54119D02*
D03*
Y367570D02*
D03*
X50119D02*
D03*
X42119D02*
D03*
X38119D02*
D03*
Y371570D02*
D03*
X42119D02*
D03*
Y375570D02*
D03*
X38119D02*
D03*
Y379570D02*
D03*
X42119D02*
D03*
X-51263Y348486D02*
D03*
X-41352Y316417D02*
D03*
G54D353*
X-577733Y295074D02*
X-578373Y295714D01*
X-579013Y295074D01*
X-578373Y294434D01*
X-577733Y295074D01*
X-583933Y287174D02*
X-584573Y287814D01*
X-585213Y287174D01*
X-584573Y286534D01*
X-583933Y287174D01*
G54D354*
X-192513Y416412D02*
D03*
G54D355*
X-411600Y166200D02*
D03*
G54D356*
X-523805Y193956D02*
D03*
Y138444D02*
D03*
G54D357*
X-81810Y164400D02*
D03*
X-121810Y154400D02*
D03*
X-24261Y155951D02*
D03*
X-128586Y215437D02*
D03*
Y205437D02*
D03*
Y195437D02*
D03*
Y185437D02*
D03*
X-268697Y199812D02*
D03*
X-308697Y189812D02*
D03*
X-552873Y224226D02*
D03*
Y261720D02*
D03*
G54D358*
X-81810Y154400D02*
D03*
X-91810Y164400D02*
D03*
Y154400D02*
D03*
X-101810Y164400D02*
D03*
Y154400D02*
D03*
X-111810Y164400D02*
D03*
Y154400D02*
D03*
X-121810Y164400D02*
D03*
X-4497Y155951D02*
D03*
X-14497D02*
D03*
X-118587Y215437D02*
D03*
Y205437D02*
D03*
Y195437D02*
D03*
Y185437D02*
D03*
X-268697Y189812D02*
D03*
X-278697Y199812D02*
D03*
Y189812D02*
D03*
X-288697Y199812D02*
D03*
Y189812D02*
D03*
X-298697Y199812D02*
D03*
Y189812D02*
D03*
X-308697Y199812D02*
D03*
X-512873Y224226D02*
D03*
Y214226D02*
D03*
X-522873Y224226D02*
D03*
Y214226D02*
D03*
X-532873Y224226D02*
D03*
Y214226D02*
D03*
X-542873Y224226D02*
D03*
Y214226D02*
D03*
X-552873D02*
D03*
X-512873Y261720D02*
D03*
Y251720D02*
D03*
X-522873Y261720D02*
D03*
Y251720D02*
D03*
X-532873Y261720D02*
D03*
Y251720D02*
D03*
X-542873Y261720D02*
D03*
Y251720D02*
D03*
X-552873D02*
D03*
G54D359*
X-601910Y172200D02*
D03*
X-587473Y268926D02*
D03*
G54D360*
X-552510Y391900D02*
D03*
X-542510D02*
D03*
X-532510D02*
D03*
X-522510D02*
D03*
X-572510D02*
D03*
X-542510Y367600D02*
D03*
X-552510D02*
D03*
X-562510D02*
D03*
X-572510D02*
D03*
X-522510D02*
D03*
X-480443Y391900D02*
D03*
X-470443D02*
D03*
X-460443D02*
D03*
X-450444D02*
D03*
X-500444D02*
D03*
X-470443Y367600D02*
D03*
X-480443D02*
D03*
X-490444D02*
D03*
X-500444D02*
D03*
X-450444D02*
D03*
X-408377Y391900D02*
D03*
X-398377D02*
D03*
X-388377D02*
D03*
X-378377D02*
D03*
X-428377D02*
D03*
X-398377Y367600D02*
D03*
X-408377D02*
D03*
X-418377D02*
D03*
X-428377D02*
D03*
X-378377D02*
D03*
X-336310Y391900D02*
D03*
X-326310D02*
D03*
X-316310D02*
D03*
X-306310D02*
D03*
X-356310D02*
D03*
X-326310Y367600D02*
D03*
X-336310D02*
D03*
X-346310D02*
D03*
X-356310D02*
D03*
X-306310D02*
D03*
X-244138Y298826D02*
D03*
X-224138D02*
D03*
X-244138Y274826D02*
D03*
X-224138D02*
D03*
X-187150Y207071D02*
D03*
Y197071D02*
D03*
Y187071D02*
D03*
Y248646D02*
D03*
Y238646D02*
D03*
Y228646D02*
D03*
X-163331Y187071D02*
D03*
Y197071D02*
D03*
Y207071D02*
D03*
Y228548D02*
D03*
Y238547D02*
D03*
Y248548D02*
D03*
X-614573Y366326D02*
D03*
X-320173Y230226D02*
D03*
X-347473Y274826D02*
D03*
X-367473D02*
D03*
X-285373D02*
D03*
X-265373D02*
D03*
X-326423D02*
D03*
X-306423D02*
D03*
X-265373Y298826D02*
D03*
X-285373D02*
D03*
X-306423D02*
D03*
X-326423D02*
D03*
X-347473D02*
D03*
X-367473D02*
D03*
X-288673Y230226D02*
D03*
X-351873D02*
D03*
G54D361*
X-562510Y391900D02*
D03*
X-532510Y367600D02*
D03*
X-490444Y391900D02*
D03*
X-460443Y367600D02*
D03*
X-418377Y391900D02*
D03*
X-388377Y367600D02*
D03*
X-346310Y391900D02*
D03*
X-316310Y367600D02*
D03*
X-234138Y298826D02*
D03*
Y274826D02*
D03*
X-614573Y348526D02*
D03*
X-330173Y230226D02*
D03*
X-357473Y274826D02*
D03*
X-275373D02*
D03*
X-316423D02*
D03*
X-275373Y298826D02*
D03*
X-316423D02*
D03*
X-357473D02*
D03*
X-298673Y230226D02*
D03*
X-361873D02*
D03*
G54D362*
X-272779Y-102141D02*
D03*
X105173D02*
D03*
X-603488D02*
D03*
X105173Y409669D02*
D03*
X-603488D02*
D03*
G54D363*
X-66972Y209866D02*
D03*
Y198055D02*
D03*
X-55161Y194355D02*
D03*
X-78783D02*
D03*
X-36264Y209866D02*
D03*
Y198055D02*
D03*
X-24453Y194355D02*
D03*
X-48075D02*
D03*
X-97681Y209866D02*
D03*
Y198055D02*
D03*
X-85870Y194355D02*
D03*
X-109492D02*
D03*
X-403160Y-72733D02*
D03*
Y-84544D02*
D03*
X-391349Y-72733D02*
D03*
Y-84544D02*
D03*
X-379538Y-88245D02*
D03*
X-414971D02*
D03*
X-332916D02*
D03*
X-297483D02*
D03*
X-309294Y-84544D02*
D03*
Y-72733D02*
D03*
X-321105Y-84544D02*
D03*
Y-72733D02*
D03*
X-239578D02*
D03*
Y-84544D02*
D03*
X-227767Y-72733D02*
D03*
Y-84544D02*
D03*
X-215955Y-88245D02*
D03*
X-251389D02*
D03*
X-169333D02*
D03*
X-133900D02*
D03*
X-145711Y-84544D02*
D03*
Y-72733D02*
D03*
X-157522Y-84544D02*
D03*
Y-72733D02*
D03*
X-76222D02*
D03*
Y-84544D02*
D03*
X-64411Y-72733D02*
D03*
Y-84544D02*
D03*
X-52600Y-88245D02*
D03*
X-88033D02*
D03*
X-6733D02*
D03*
X28700D02*
D03*
X16889Y-84544D02*
D03*
Y-72733D02*
D03*
X5078Y-84544D02*
D03*
Y-72733D02*
D03*
X-564940D02*
D03*
Y-84544D02*
D03*
X-553129Y-72733D02*
D03*
Y-84544D02*
D03*
X-541318Y-88245D02*
D03*
X-576751D02*
D03*
X-496498D02*
D03*
X-461065D02*
D03*
X-472876Y-84544D02*
D03*
Y-72733D02*
D03*
X-484687Y-84544D02*
D03*
Y-72733D02*
D03*
G54D364*
X-124613Y392770D02*
D03*
X-110834D02*
D03*
Y373085D02*
D03*
X-124613D02*
D03*
X-162313D02*
D03*
X-148534D02*
D03*
Y392770D02*
D03*
X-162313D02*
D03*
X-200013D02*
D03*
X-186233D02*
D03*
Y373085D02*
D03*
X-200013D02*
D03*
X-237713D02*
D03*
X-223933D02*
D03*
Y392770D02*
D03*
X-237713D02*
D03*
X-275413D02*
D03*
X-261633D02*
D03*
Y373085D02*
D03*
X-275413D02*
D03*
G54D365*
X69327Y339505D02*
D03*
Y307005D02*
D03*
Y274505D02*
D03*
Y242005D02*
D03*
Y46926D02*
D03*
Y79426D02*
D03*
Y111926D02*
D03*
Y144426D02*
D03*
Y176926D02*
D03*
Y209426D02*
D03*
G54D366*
X-7654Y178895D02*
D03*
Y192296D02*
D03*
X45346D02*
D03*
Y178895D02*
D03*
X32527Y296126D02*
D03*
X45927D02*
D03*
Y243126D02*
D03*
X32527D02*
D03*
G54D367*
X-604773Y343626D02*
D03*
Y371226D02*
D03*
G54D368*
X-598173Y250226D02*
D03*
G54D369*
Y297548D02*
D03*
G54D370*
X-570866Y0D02*
D03*
X-492126Y-123D02*
D03*
X-409449Y0D02*
D03*
X-326772D02*
D03*
X-244094D02*
D03*
X-165354Y-123D02*
D03*
X-82677Y0D02*
D03*
X0D02*
D03*
M02*
