G04*
G04 #@! TF.GenerationSoftware,Altium Limited,Altium Designer,21.0.8 (223)*
G04*
G04 Layer_Physical_Order=3*
G04 Layer_Color=128*
%FSLAX25Y25*%
%MOIN*%
G70*
G04*
G04 #@! TF.SameCoordinates,5566C36B-964F-41A9-A7E5-395C2F312E01*
G04*
G04*
G04 #@! TF.FilePolarity,Negative*
G04*
G01*
G75*
%ADD11C,0.01000*%
%ADD12C,0.00800*%
%ADD16C,0.01200*%
%ADD23C,0.03500*%
%ADD311C,0.02000*%
%ADD313C,0.01600*%
%ADD318C,0.12000*%
%ADD350C,0.05800*%
%ADD356C,0.03000*%
G04:AMPARAMS|DCode=359|XSize=79.433mil|YSize=79.433mil|CornerRadius=0mil|HoleSize=0mil|Usage=FLASHONLY|Rotation=0.000|XOffset=0mil|YOffset=0mil|HoleType=Round|Shape=Relief|Width=14mil|Gap=10mil|Entries=4|*
%AMTHD359*
7,0,0,0.07943,0.05943,0.01400,45*
%
%ADD359THD359*%
%ADD360C,0.05543*%
%ADD361C,0.04756*%
%ADD362C,0.13811*%
G04:AMPARAMS|DCode=363|XSize=82mil|YSize=82mil|CornerRadius=0mil|HoleSize=0mil|Usage=FLASHONLY|Rotation=0.000|XOffset=0mil|YOffset=0mil|HoleType=Round|Shape=Relief|Width=14mil|Gap=10mil|Entries=4|*
%AMTHD363*
7,0,0,0.08200,0.06200,0.01400,45*
%
%ADD363THD363*%
%ADD364C,0.06000*%
G04:AMPARAMS|DCode=365|XSize=84mil|YSize=84mil|CornerRadius=0mil|HoleSize=0mil|Usage=FLASHONLY|Rotation=0.000|XOffset=0mil|YOffset=0mil|HoleType=Round|Shape=Relief|Width=14mil|Gap=10mil|Entries=4|*
%AMTHD365*
7,0,0,0.08400,0.06400,0.01400,45*
%
%ADD365THD365*%
G04:AMPARAMS|DCode=366|XSize=162.11mil|YSize=162.11mil|CornerRadius=0mil|HoleSize=0mil|Usage=FLASHONLY|Rotation=0.000|XOffset=0mil|YOffset=0mil|HoleType=Round|Shape=Relief|Width=14mil|Gap=10mil|Entries=4|*
%AMTHD366*
7,0,0,0.16211,0.14211,0.01400,45*
%
%ADD366THD366*%
%ADD367C,0.06016*%
%ADD368C,0.06331*%
%ADD369C,0.09598*%
%ADD370C,0.08300*%
%ADD372C,0.10700*%
%ADD375R,1.88851X0.27534*%
G04:AMPARAMS|DCode=376|XSize=84.157mil|YSize=84.157mil|CornerRadius=0mil|HoleSize=0mil|Usage=FLASHONLY|Rotation=0.000|XOffset=0mil|YOffset=0mil|HoleType=Round|Shape=Relief|Width=14mil|Gap=10mil|Entries=4|*
%AMTHD376*
7,0,0,0.08416,0.06416,0.01400,45*
%
%ADD376THD376*%
G04:AMPARAMS|DCode=377|XSize=107mil|YSize=107mil|CornerRadius=0mil|HoleSize=0mil|Usage=FLASHONLY|Rotation=0.000|XOffset=0mil|YOffset=0mil|HoleType=Round|Shape=Relief|Width=14mil|Gap=10mil|Entries=4|*
%AMTHD377*
7,0,0,0.10700,0.08700,0.01400,45*
%
%ADD377THD377*%
%ADD378C,0.07900*%
G54D11*
X-622173Y265626D02*
Y289126D01*
G54D12*
X-431539Y130522D02*
X-425755D01*
X-434655Y127407D02*
X-431539Y130522D01*
X-434655Y123883D02*
Y127407D01*
X-349377Y130426D02*
X-345705D01*
X-352599Y127204D02*
X-349377Y130426D01*
X-352599Y123956D02*
Y127204D01*
X-269080Y130129D02*
X-264601D01*
X-271072Y128137D02*
X-269080Y130129D01*
X-271072Y123908D02*
Y128137D01*
X-516182Y124060D02*
Y126911D01*
X-512667Y130426D01*
X-507282D01*
X-189016Y124153D02*
Y128287D01*
X-186877Y130426D01*
X-180116D01*
X-107717Y123767D02*
Y127894D01*
X-105184Y130426D01*
X-98817D01*
X-26417Y123872D02*
Y128288D01*
X-23772Y130933D01*
X-18024D01*
X-7325Y-10599D02*
Y-2736D01*
X10982Y-88752D02*
Y-68568D01*
X-88625Y-11613D02*
Y-2736D01*
X-169925Y-10988D02*
Y-2736D01*
X-70318Y-88139D02*
Y-67842D01*
X-151618Y-88631D02*
Y-67896D01*
X-251981Y-11456D02*
Y-3034D01*
X-233674Y-89645D02*
Y-67974D01*
X-333508Y-10364D02*
Y-2736D01*
X-315201Y-88939D02*
Y-67255D01*
Y-89116D02*
Y-67255D01*
X-316945Y-90860D02*
X-315201Y-89116D01*
X-415563Y-11223D02*
Y-2640D01*
X-397256Y-88550D02*
Y-67801D01*
X-497090Y-9797D02*
Y-2736D01*
Y-9797D02*
X-496757Y-10131D01*
X-478783Y-88743D02*
Y-68187D01*
X-578882Y-11378D02*
Y-2736D01*
X-539173Y6319D02*
X-539167Y6313D01*
X-539173Y-12860D02*
Y6319D01*
X-558979Y-87818D02*
Y-67616D01*
X31450Y45039D02*
X31750Y45339D01*
X31208Y45281D02*
X31450Y45039D01*
X31208Y45281D02*
Y64138D01*
X54807Y-43664D02*
X124366D01*
X50450Y-39307D02*
X54807Y-43664D01*
X-623017Y104458D02*
X-596233D01*
X-274972Y46379D02*
X-270087Y41494D01*
X-262311Y63348D02*
X-261819Y63840D01*
X-258965Y34116D02*
Y37462D01*
X-263831Y129358D02*
X-253142D01*
X-251386Y45041D02*
X-250845Y45582D01*
X-239871Y63840D02*
X-239280Y63250D01*
X-225012D02*
X-224422Y63840D01*
X-212272Y6021D02*
X-212266Y6016D01*
X-206085Y131429D02*
X-205622Y130966D01*
X-202571Y47403D02*
Y52128D01*
X-201981Y52718D01*
X-202473Y63840D02*
X-201981Y63348D01*
X-274972Y69928D02*
Y120008D01*
X-271072Y123908D01*
X-262311Y48096D02*
Y63348D01*
X-258965Y10096D02*
Y34116D01*
X-250845Y45582D02*
Y63840D01*
X-240215Y45582D02*
X-239280Y46518D01*
Y63250D01*
X-233674Y-89535D02*
X-232036Y-91172D01*
X-225012Y46518D02*
Y63250D01*
Y46518D02*
X-222861Y44366D01*
X-212315Y-46759D02*
Y-11456D01*
X-201981Y52718D02*
Y63348D01*
X-202571Y47403D02*
X-201095Y45927D01*
X-194205Y-62111D02*
Y-31238D01*
X-274972Y46379D02*
Y69928D01*
X-251977Y-49671D02*
Y3108D01*
X-233674Y-89535D02*
Y-68117D01*
X-212272Y-11378D02*
Y6021D01*
X-270087Y-65023D02*
Y41494D01*
X-194205Y119549D02*
X-194205Y-31238D01*
X-270087Y41494D02*
X-268914D01*
X-264601Y130129D02*
X-263831Y129358D01*
X-243937Y-91172D02*
X-235201D01*
X-250845Y45582D02*
X-240215D01*
X-253142Y129358D02*
X-251072Y131429D01*
X-205327Y34116D02*
Y37462D01*
X-213581Y44366D02*
X-212906Y45041D01*
X-201095Y45927D02*
X-194205D01*
X-222861Y44366D02*
X-213581D01*
X-224422Y63840D02*
X-202473D01*
X-197272Y122616D02*
X-194205Y119549D01*
X-268914Y41494D02*
X-262311Y48096D01*
X-235201Y-91172D02*
X-233674Y-89645D01*
X-205327Y12955D02*
Y34116D01*
X-212266Y6016D02*
X-205327Y12955D01*
X-213447Y44774D02*
Y63840D01*
X-212906Y45041D02*
X-205327Y37462D01*
X-251977Y-49671D02*
X-233674Y-67974D01*
X-223267Y-91172D02*
X-194205Y-62111D01*
X-205622Y130966D02*
X-197272Y122616D01*
X-232036Y-91172D02*
X-223267D01*
X-258965Y37462D02*
X-251386Y45041D01*
X-270087Y-65023D02*
X-243937Y-91172D01*
X-258965Y10096D02*
X-251977Y3108D01*
X-233674Y-68117D02*
X-212315Y-46759D01*
X-251981Y-11456D02*
X-212315D01*
X-261819Y63840D02*
X-239871D01*
X-251072Y131429D02*
X-206085D01*
X-357217Y47395D02*
X-351614Y41792D01*
X-343839Y63646D02*
X-343346Y64138D01*
X-340492Y34414D02*
Y37760D01*
X-344736Y129457D02*
X-334868D01*
X-332913Y45339D02*
X-332372Y45880D01*
X-321398Y64138D02*
X-320807Y63547D01*
X-306539D02*
X-305949Y64138D01*
X-293799Y6319D02*
X-293793Y6313D01*
X-287612Y131726D02*
X-287150Y131264D01*
X-284098Y47701D02*
Y52425D01*
X-283508Y53016D01*
X-284000Y64138D02*
X-283508Y63646D01*
X-357217Y69508D02*
Y119338D01*
X-352599Y123956D01*
X-343839Y48394D02*
Y63646D01*
X-340492Y10394D02*
Y34414D01*
X-332372Y45880D02*
Y64138D01*
X-321742Y45880D02*
X-320807Y46815D01*
Y63547D01*
X-315201Y-88939D02*
X-313279Y-90860D01*
X-306539Y46815D02*
Y63547D01*
Y46815D02*
X-304480Y44756D01*
X-293843Y-45897D02*
Y-10364D01*
X-283508Y53016D02*
Y63646D01*
X-284098Y47701D02*
X-282622Y46225D01*
X-275732Y-62986D02*
Y-30941D01*
X-357217Y47395D02*
Y69508D01*
X-333504Y-48952D02*
Y3406D01*
X-293799Y-14108D02*
Y6319D01*
X-351614Y-65006D02*
Y41792D01*
X-275732Y119847D02*
X-275732Y-30941D01*
X-351614Y41792D02*
X-350441D01*
X-345705Y130426D02*
X-344736Y129457D01*
X-325759Y-90860D02*
X-316945D01*
X-332372Y45880D02*
X-321742D01*
X-334868Y129457D02*
X-332599Y131726D01*
X-286854Y34414D02*
Y37760D01*
X-295016Y44756D02*
X-294433Y45339D01*
X-282622Y46225D02*
X-275732D01*
X-304480Y44756D02*
X-295016D01*
X-305949Y64138D02*
X-284000D01*
X-278799Y122914D02*
X-275732Y119847D01*
X-350441Y41792D02*
X-343839Y48394D01*
X-286854Y13252D02*
Y34414D01*
X-293793Y6313D02*
X-286854Y13252D01*
X-294974Y45339D02*
Y64138D01*
X-294433Y45339D02*
X-286854Y37760D01*
X-333504Y-48952D02*
X-315201Y-67255D01*
X-303607Y-90860D02*
X-275732Y-62986D01*
X-287150Y131264D02*
X-278799Y122914D01*
X-313279Y-90860D02*
X-303607D01*
X-340492Y37760D02*
X-332913Y45339D01*
X-351614Y-65006D02*
X-325759Y-90860D01*
X-340492Y10394D02*
X-333504Y3406D01*
X-315201Y-67255D02*
X-293843Y-45897D01*
X-333508Y-10364D02*
X-293843D01*
X-343346Y64138D02*
X-321398D01*
X-332599Y131726D02*
X-287612D01*
X-438555Y46773D02*
X-433670Y41888D01*
X-425894Y63742D02*
X-425402Y64234D01*
X-422548Y34510D02*
Y37856D01*
X-425755Y130522D02*
X-415955D01*
X-414969Y45435D02*
X-414428Y45976D01*
X-403453Y64234D02*
X-402863Y63643D01*
X-388595D02*
X-388004Y64234D01*
X-375855Y6415D02*
X-375849Y6409D01*
X-369667Y131822D02*
X-369205Y131360D01*
X-366154Y47797D02*
Y52521D01*
X-365563Y53112D01*
X-366055Y64234D02*
X-365563Y63742D01*
X-438555Y70322D02*
Y119983D01*
X-434655Y123883D01*
X-425894Y48490D02*
Y63742D01*
X-422548Y10490D02*
Y34510D01*
X-414428Y45976D02*
Y64234D01*
X-403798Y45976D02*
X-402863Y46911D01*
Y63643D01*
X-397256Y-88550D02*
X-394813Y-90993D01*
X-388595Y46911D02*
Y63643D01*
Y46911D02*
X-386440Y44756D01*
X-375898Y-47477D02*
Y-11223D01*
X-365563Y53112D02*
Y63742D01*
X-366154Y47797D02*
X-364678Y46321D01*
X-357788Y-62205D02*
Y-30845D01*
X-438555Y46773D02*
Y70322D01*
X-415559Y-49498D02*
Y3502D01*
X-397256Y-88570D02*
Y-68836D01*
X-375855Y-14187D02*
Y6415D01*
X-433670Y-64850D02*
Y41888D01*
X-357788Y119943D02*
X-357788Y-30845D01*
X-433670Y41888D02*
X-432496D01*
X-407815Y-90705D02*
X-399391D01*
X-414428Y45976D02*
X-403798D01*
X-415955Y130522D02*
X-414655Y131822D01*
X-368910Y34510D02*
Y37856D01*
X-377167Y44756D02*
X-376488Y45435D01*
X-364678Y46321D02*
X-357788D01*
X-386440Y44756D02*
X-377167D01*
X-388004Y64234D02*
X-366055D01*
X-360855Y123010D02*
X-357788Y119943D01*
X-432496Y41888D02*
X-425894Y48490D01*
X-399391Y-90705D02*
X-397256Y-88570D01*
X-368910Y13348D02*
Y34510D01*
X-375849Y6409D02*
X-368910Y13348D01*
X-377030Y45096D02*
Y64234D01*
X-376488Y45435D02*
X-368910Y37856D01*
X-415559Y-49498D02*
X-397256Y-67801D01*
X-386576Y-90993D02*
X-357788Y-62205D01*
X-369205Y131360D02*
X-360855Y123010D01*
X-394813Y-90993D02*
X-386576D01*
X-422548Y37856D02*
X-414969Y45435D01*
X-433670Y-64850D02*
X-407815Y-90705D01*
X-422548Y10490D02*
X-415559Y3502D01*
X-397256Y-68836D02*
X-375898Y-47477D01*
X-415563Y-11223D02*
X-375898D01*
X-425402Y64234D02*
X-403453D01*
X-414655Y131822D02*
X-369667D01*
X-520627Y47222D02*
X-515197Y41792D01*
X-507421Y63646D02*
X-506929Y64138D01*
X-504075Y34414D02*
Y37760D01*
X-507282Y130426D02*
X-499574D01*
X-496496Y45339D02*
X-495955Y45880D01*
X-484980Y64138D02*
X-484390Y63547D01*
X-470122D02*
X-469531Y64138D01*
X-457382Y6319D02*
X-457376Y6313D01*
X-451194Y131726D02*
X-450732Y131264D01*
X-447681Y47701D02*
Y52425D01*
X-447090Y53016D01*
X-447583Y64138D02*
X-447090Y63646D01*
X-520627Y69681D02*
Y119614D01*
X-516182Y124060D01*
X-507421Y48394D02*
Y63646D01*
X-504075Y10394D02*
Y34414D01*
X-495955Y45880D02*
Y64138D01*
X-485325Y45880D02*
X-484390Y46815D01*
Y63547D01*
X-478783Y-88688D02*
X-476689Y-90782D01*
X-470122Y46815D02*
Y63547D01*
Y46815D02*
X-468141Y44834D01*
X-457425Y-46660D02*
Y-10131D01*
X-447090Y53016D02*
Y63646D01*
X-447681Y47701D02*
X-446205Y46225D01*
X-439315Y-62378D02*
Y-30941D01*
X-520627Y47222D02*
Y69681D01*
X-497086Y-49715D02*
Y3406D01*
X-478783Y-88688D02*
Y-68018D01*
X-457382Y-13172D02*
Y6319D01*
X-515197Y-64755D02*
Y41792D01*
X-439315Y119847D02*
X-439315Y-30941D01*
X-515197Y41792D02*
X-514024D01*
X-489247Y-90705D02*
X-480745D01*
X-495955Y45880D02*
X-485325D01*
X-499574Y130426D02*
X-498274Y131726D01*
X-450437Y34414D02*
Y37760D01*
X-458520Y44834D02*
X-458016Y45339D01*
X-446205Y46225D02*
X-439315D01*
X-468141Y44834D02*
X-458520D01*
X-469531Y64138D02*
X-447583D01*
X-442382Y122914D02*
X-439315Y119847D01*
X-514024Y41792D02*
X-507421Y48394D01*
X-480745Y-90705D02*
X-478783Y-88743D01*
X-450437Y13252D02*
Y34414D01*
X-457376Y6313D02*
X-450437Y13252D01*
X-458557Y45242D02*
Y64138D01*
X-458016Y45339D02*
X-450437Y37760D01*
X-497086Y-49715D02*
X-478783Y-68018D01*
X-467719Y-90782D02*
X-439315Y-62378D01*
X-450732Y131264D02*
X-442382Y122914D01*
X-476689Y-90782D02*
X-467719D01*
X-504075Y37760D02*
X-496496Y45339D01*
X-515197Y-64755D02*
X-489247Y-90705D01*
X-504075Y10394D02*
X-497086Y3406D01*
X-478783Y-68018D02*
X-457425Y-46660D01*
X-496757Y-10131D02*
X-457425D01*
X-506929Y64138D02*
X-484980D01*
X-498274Y131726D02*
X-451194D01*
X-577973D02*
X-532986D01*
X-588720Y64138D02*
X-566772D01*
X-578882Y-11378D02*
X-539217D01*
X-559057Y-67694D02*
X-539217Y-47854D01*
X-585866Y10394D02*
X-578878Y3406D01*
X-596988Y-63850D02*
X-569665Y-91172D01*
X-585866Y37760D02*
X-578287Y45339D01*
X-556795Y-91017D02*
X-547591D01*
X-532523Y131264D02*
X-524173Y122914D01*
X-547591Y-91017D02*
X-521106Y-64532D01*
X-578878Y-47718D02*
X-558979Y-67616D01*
X-539807Y45339D02*
X-532228Y37760D01*
X-540348Y45242D02*
Y64138D01*
X-539167Y6313D02*
X-532228Y13252D01*
Y34414D01*
X-562333Y-91172D02*
X-558979Y-87818D01*
X-595815Y41792D02*
X-589213Y48394D01*
X-524173Y122914D02*
X-521106Y119847D01*
X-551323Y64138D02*
X-529374D01*
X-549932Y44834D02*
X-540312D01*
X-527996Y46225D02*
X-521106D01*
X-540312Y44834D02*
X-539807Y45339D01*
X-532228Y34414D02*
Y37760D01*
X-581128Y128571D02*
X-577973Y131726D01*
X-577746Y45880D02*
X-567116D01*
X-569665Y-91172D02*
X-562333D01*
X-596233Y130426D02*
X-589073D01*
X-587218Y128571D01*
X-596988Y41792D02*
X-595815D01*
X-521106Y119847D02*
X-521106Y-30941D01*
X-596988Y-63850D02*
Y41792D01*
X-559057Y-88754D02*
Y-67694D01*
X-578878Y-47718D02*
Y3406D01*
X-596233Y77067D02*
Y130426D01*
X-601873Y46677D02*
Y70226D01*
X-521106Y-64532D02*
Y-30941D01*
X-529472Y47701D02*
X-527996Y46225D01*
X-528882Y53016D02*
Y63646D01*
X-539217Y-47854D02*
Y-11378D01*
X-551913Y46815D02*
X-549932Y44834D01*
X-551913Y46815D02*
Y63547D01*
X-559057Y-88754D02*
X-556795Y-91017D01*
X-566181Y46815D02*
Y63547D01*
X-567116Y45880D02*
X-566181Y46815D01*
X-577746Y45880D02*
Y64138D01*
X-585866Y10394D02*
Y34414D01*
X-589213Y48394D02*
Y63646D01*
X-601873Y71426D02*
X-596233Y77067D01*
X-601873Y70226D02*
Y71426D01*
X-529374Y64138D02*
X-528882Y63646D01*
X-529472Y52425D02*
X-528882Y53016D01*
X-529472Y47701D02*
Y52425D01*
X-532986Y131726D02*
X-532523Y131264D01*
X-551913Y63547D02*
X-551323Y64138D01*
X-566772D02*
X-566181Y63547D01*
X-578287Y45339D02*
X-577746Y45880D01*
X-587218Y128571D02*
X-581128D01*
X-585866Y34414D02*
Y37760D01*
X-589213Y63646D02*
X-588720Y64138D01*
X-601873Y46677D02*
X-596988Y41792D01*
X10982Y-68568D02*
X32340Y-47209D01*
X-6417Y131726D02*
X38571D01*
X-7325Y-10599D02*
X32340D01*
X21419Y-90782D02*
X50450Y-61751D01*
X-25431Y-64992D02*
X515Y-90939D01*
X-7321Y-50265D02*
X10982Y-68568D01*
X20234Y64138D02*
X42183D01*
X21624Y44834D02*
X31245D01*
X-17164Y64138D02*
X4785D01*
X-6189Y45880D02*
X4441D01*
X50450Y119847D02*
X50450Y-30941D01*
X39033Y131264D02*
X47383Y122914D01*
X-14309Y10394D02*
X-7321Y3406D01*
X31750Y45339D02*
X39328Y37760D01*
X42084Y47701D02*
X43561Y46225D01*
X32389Y6313D02*
X39328Y13252D01*
X50450Y-61751D02*
Y-30941D01*
X9017Y-90939D02*
X10982Y-88973D01*
X-30316Y119972D02*
X-26417Y123872D01*
X-14309Y37760D02*
X-6731Y45339D01*
X-24258Y41792D02*
X-17656Y48394D01*
X47383Y122914D02*
X50450Y119847D01*
X42183Y64138D02*
X42675Y63646D01*
X42084Y52425D02*
X42675Y53016D01*
X42084Y47701D02*
Y52425D01*
X43561Y46225D02*
X50450D01*
X13013Y-90782D02*
X21419D01*
X515Y-90939D02*
X9017D01*
X-18024Y130933D02*
X-7209D01*
X-30316Y46677D02*
X-25431Y41792D01*
Y-64992D02*
Y41792D01*
X32383Y-11145D02*
Y6319D01*
X10982Y-88973D02*
Y-68568D01*
X-7321Y-50265D02*
Y3406D01*
X-30316Y46677D02*
Y70226D01*
X42675Y53016D02*
Y63646D01*
X39328Y13252D02*
Y34414D01*
X32340Y-47209D02*
Y-10599D01*
X19643Y46815D02*
X21624Y44834D01*
X19643Y46815D02*
Y63547D01*
X10982Y-88752D02*
X13013Y-90782D01*
X5376Y46815D02*
Y63547D01*
X4441Y45880D02*
X5376Y46815D01*
X-6189Y45880D02*
Y64138D01*
X-17656Y48394D02*
Y63646D01*
X-14309Y10394D02*
Y34414D01*
X-30316Y70226D02*
Y119972D01*
X38571Y131726D02*
X39033Y131264D01*
X39328Y34414D02*
Y37760D01*
X32383Y6319D02*
X32389Y6313D01*
X19643Y63547D02*
X20234Y64138D01*
X4785D02*
X5376Y63547D01*
X-7209Y130933D02*
X-6417Y131726D01*
X-6731Y45339D02*
X-6189Y45880D01*
X-17656Y63646D02*
X-17164Y64138D01*
X-14309Y34414D02*
Y37760D01*
X-25431Y41792D02*
X-24258D01*
X-70318Y-67842D02*
X-48960Y-46483D01*
X-87717Y131726D02*
X-42729D01*
X-88625Y-11613D02*
X-48960D01*
X-59155Y-90627D02*
X-30849Y-62321D01*
X-106731Y-65046D02*
X-80995Y-90782D01*
X-88621Y-49538D02*
X-70318Y-67842D01*
X-61066Y64138D02*
X-39117D01*
X-59598Y44756D02*
X-50133D01*
X-98464Y64138D02*
X-76515D01*
X-87489Y45880D02*
X-76859D01*
X-30849Y119847D02*
X-30849Y-30941D01*
X-42267Y131264D02*
X-33917Y122914D01*
X-95609Y10394D02*
X-88621Y3406D01*
X-49550Y45339D02*
X-41972Y37760D01*
X-39216Y47701D02*
X-37739Y46225D01*
X-48911Y6313D02*
X-41972Y13252D01*
X-30849Y-62321D02*
Y-30941D01*
X-72961Y-90782D02*
X-70318Y-88139D01*
X-111617Y119867D02*
X-107717Y123767D01*
X-95609Y37760D02*
X-88031Y45339D01*
X-105558Y41792D02*
X-98956Y48394D01*
X-33917Y122914D02*
X-30849Y119847D01*
X-39117Y64138D02*
X-38625Y63646D01*
X-39216Y52425D02*
X-38625Y53016D01*
X-39216Y47701D02*
Y52425D01*
X-37739Y46225D02*
X-30849D01*
X-67969Y-90627D02*
X-59155D01*
X-80995Y-90782D02*
X-72961D01*
X-98817Y130426D02*
X-89016D01*
X-111617Y46677D02*
X-106731Y41792D01*
Y-65046D02*
Y41792D01*
X-48917Y-12314D02*
Y6319D01*
X-70318Y-88278D02*
Y-67842D01*
X-88621Y-49538D02*
Y3406D01*
X-111617Y46677D02*
Y70226D01*
X-38625Y53016D02*
Y63646D01*
X-41972Y13252D02*
Y34414D01*
X-50092Y44990D02*
Y64138D01*
X-48960Y-46483D02*
Y-11613D01*
X-61657Y46815D02*
X-59598Y44756D01*
X-61657Y46815D02*
Y63547D01*
X-70318Y-88278D02*
X-67969Y-90627D01*
X-75924Y46815D02*
Y63547D01*
X-76859Y45880D02*
X-75924Y46815D01*
X-87489Y45880D02*
Y64138D01*
X-98956Y48394D02*
Y63646D01*
X-95609Y10394D02*
Y34414D01*
X-111617Y70226D02*
Y119867D01*
X-42729Y131726D02*
X-42267Y131264D01*
X-41972Y34414D02*
Y37760D01*
X-50133Y44756D02*
X-49550Y45339D01*
X-48917Y6319D02*
X-48911Y6313D01*
X-61657Y63547D02*
X-61066Y64138D01*
X-76515D02*
X-75924Y63547D01*
X-89016Y130426D02*
X-87717Y131726D01*
X-88031Y45339D02*
X-87489Y45880D01*
X-98956Y63646D02*
X-98464Y64138D01*
X-95609Y34414D02*
Y37760D01*
X-106731Y41792D02*
X-105558D01*
X-151618Y-68351D02*
X-130260Y-46993D01*
X-169017Y131726D02*
X-124029D01*
X-169925Y-10988D02*
X-130260D01*
X-141601Y-91562D02*
X-112150Y-62111D01*
X-188031Y-66114D02*
X-162583Y-91562D01*
X-169921Y-49593D02*
X-151618Y-67896D01*
X-142366Y64138D02*
X-120417D01*
X-141054Y44912D02*
X-131277D01*
X-179764Y64138D02*
X-157815D01*
X-168789Y45880D02*
X-158159D01*
X-112150Y119847D02*
X-112150Y-30941D01*
X-123567Y131264D02*
X-115217Y122914D01*
X-176909Y10394D02*
X-169921Y3406D01*
X-130850Y45339D02*
X-123272Y37760D01*
X-120516Y47701D02*
X-119039Y46225D01*
X-130211Y6313D02*
X-123272Y13252D01*
X-112150Y-62111D02*
Y-30941D01*
X-154549Y-91562D02*
X-151618Y-88631D01*
X-193495Y119674D02*
X-189016Y124153D01*
X-176909Y37760D02*
X-169331Y45339D01*
X-186858Y41792D02*
X-180256Y48394D01*
X-115217Y122914D02*
X-112150Y119847D01*
X-120417Y64138D02*
X-119925Y63646D01*
X-120516Y52425D02*
X-119925Y53016D01*
X-120516Y47701D02*
Y52425D01*
X-119039Y46225D02*
X-112150D01*
X-148855Y-91562D02*
X-141601D01*
X-162583D02*
X-154549D01*
X-180116Y130426D02*
X-170317D01*
X-193495Y47256D02*
X-188031Y41792D01*
Y-66114D02*
Y41792D01*
X-130217Y-11300D02*
Y6319D01*
X-151618Y-88800D02*
Y-68351D01*
X-169921Y-49593D02*
Y3406D01*
X-193495Y47256D02*
Y69647D01*
X-119925Y53016D02*
Y63646D01*
X-123272Y13252D02*
Y34414D01*
X-131392Y44912D02*
Y64138D01*
X-130260Y-46993D02*
Y-10988D01*
X-142957Y46815D02*
X-141054Y44912D01*
X-142957Y46815D02*
Y63547D01*
X-151618Y-88800D02*
X-148855Y-91562D01*
X-157224Y46815D02*
Y63547D01*
X-158159Y45880D02*
X-157224Y46815D01*
X-168789Y45880D02*
Y64138D01*
X-180256Y48394D02*
Y63646D01*
X-176909Y10394D02*
Y34414D01*
X-193495Y69647D02*
Y119674D01*
X-124029Y131726D02*
X-123567Y131264D01*
X-123272Y34414D02*
Y37760D01*
X-131277Y44912D02*
X-130850Y45339D01*
X-130217Y6319D02*
X-130211Y6313D01*
X-142957Y63547D02*
X-142366Y64138D01*
X-157815D02*
X-157224Y63547D01*
X-170317Y130426D02*
X-169017Y131726D01*
X-169331Y45339D02*
X-168789Y45880D01*
X-180256Y63646D02*
X-179764Y64138D01*
X-176909Y34414D02*
Y37760D01*
X-188031Y41792D02*
X-186858D01*
G54D16*
X-551689Y310980D02*
Y328644D01*
X-559043Y303626D02*
X-551689Y310980D01*
X-559043Y278911D02*
Y303626D01*
X-560754Y277200D02*
X-559043Y278911D01*
X-567140Y332775D02*
X-565315Y334600D01*
X-557645D01*
X-551689Y328644D01*
X-567033Y277200D02*
X-560754D01*
X-568910Y279077D02*
X-567033Y277200D01*
X-574973Y285140D02*
X-568910Y279077D01*
X-574973Y285140D02*
Y297237D01*
X-570710Y301500D01*
Y307400D01*
Y329205D01*
X-567140Y332775D01*
X-473673Y224871D02*
Y285945D01*
Y224871D02*
X-465490Y216688D01*
X-393072D01*
X-391382Y271686D02*
Y309118D01*
Y271686D02*
X-384815Y265120D01*
Y259017D02*
Y265120D01*
Y259017D02*
X-379402Y253604D01*
X-393791Y251458D02*
X-393170D01*
X-389903Y248191D01*
X-379402D01*
X-463333Y322857D02*
X-452502D01*
X-450535Y320890D01*
Y297526D02*
Y320890D01*
X-393072Y216688D02*
Y231838D01*
X-451323Y251146D02*
X-393170D01*
X-457523Y244945D02*
X-451323Y251146D01*
X-457523Y235103D02*
Y244945D01*
Y235103D02*
X-454276Y231855D01*
X-393055D01*
X-426003Y315396D02*
X-423825Y317574D01*
X-406933Y264600D02*
X-393791Y251458D01*
X-406933Y264600D02*
Y293174D01*
X-411286Y297526D02*
X-406933Y293174D01*
X-399488Y202451D02*
Y216625D01*
X-490573Y239945D02*
Y268296D01*
X-489710Y274891D02*
Y336391D01*
X-441579D01*
X-489710Y274891D02*
X-483697D01*
Y268296D02*
Y274891D01*
X-490573Y268296D02*
X-483697D01*
X-494892Y239945D02*
X-490573D01*
X-473634Y285906D02*
X-466940D01*
X-473673Y285945D02*
X-473634Y285906D01*
X-466940Y300183D02*
X-463403D01*
X-466940Y285906D02*
Y300183D01*
X-463333Y300259D02*
Y322857D01*
X-408725Y313613D02*
Y317574D01*
X-416468D02*
X-408725D01*
X-495492Y215181D02*
Y239444D01*
Y215181D02*
X-490161D01*
Y202451D02*
Y215181D01*
Y202451D02*
X-421598D01*
X-399488D01*
X-423825Y317574D02*
X-416468D01*
X-433497Y315396D02*
X-426003D01*
X-379402Y248191D02*
Y253604D01*
X-408725Y313613D02*
X-395877D01*
X-391382Y309118D01*
X-450535Y297526D02*
X-411286D01*
X-441579Y323478D02*
Y336391D01*
Y323478D02*
X-433497Y315396D01*
G54D23*
X-112200Y181200D02*
D03*
X-114934Y179490D02*
D03*
X-31200Y174700D02*
D03*
X-117886Y179490D02*
D03*
X-120839D02*
D03*
X-123989D02*
D03*
X-557433Y295299D02*
D03*
X-513876Y292085D02*
D03*
X-364535Y202921D02*
D03*
X-417559Y323500D02*
D03*
X-421710D02*
D03*
X-542910Y233000D02*
D03*
X-600910Y182900D02*
D03*
X-115810Y144800D02*
D03*
X-135083Y143764D02*
D03*
X-137838Y138744D02*
D03*
X-134197Y138646D02*
D03*
X-237890Y195439D02*
D03*
X-239840Y197467D02*
D03*
X-235940D02*
D03*
X-254610Y202500D02*
D03*
X23890Y143100D02*
D03*
X-73880Y330757D02*
D03*
X-70337D02*
D03*
X-73782Y333809D02*
D03*
X-70337Y334005D02*
D03*
X-91817Y309614D02*
D03*
X-58330Y296714D02*
D03*
Y291202D02*
D03*
Y300454D02*
D03*
Y304293D02*
D03*
X-77702Y351133D02*
D03*
X-85546Y346824D02*
D03*
X-81902Y351133D02*
D03*
X-133060Y225548D02*
D03*
X-336390Y151537D02*
D03*
X-337571Y159214D02*
D03*
X-332059Y151537D02*
D03*
X-324601Y139789D02*
D03*
X-406656Y139885D02*
D03*
X-447410Y204500D02*
D03*
X-465848Y143064D02*
D03*
X-462248Y143764D02*
D03*
X-461362Y138646D02*
D03*
X-457031Y135693D02*
D03*
X-569975Y139789D02*
D03*
X-547073Y142374D02*
D03*
X-486024Y143198D02*
D03*
X-488183Y139789D02*
D03*
X-492410Y139700D02*
D03*
X-479391Y140593D02*
D03*
X-465010Y138700D02*
D03*
X-563134Y144059D02*
D03*
X-550973Y144073D02*
D03*
X-561183Y140593D02*
D03*
X-470910Y208200D02*
D03*
X-406195Y197697D02*
D03*
X-294810Y153300D02*
D03*
X-292913Y159530D02*
D03*
X-34567Y147400D02*
D03*
X-220682Y142777D02*
D03*
X-217138Y143466D02*
D03*
X-216323Y138349D02*
D03*
X-219953Y138387D02*
D03*
X-211223Y138349D02*
D03*
X-396510Y203800D02*
D03*
X-403245Y204197D02*
D03*
X-392810Y203300D02*
D03*
X-416010Y205967D02*
D03*
X-302610Y144200D02*
D03*
X-294220Y144328D02*
D03*
X-297611Y138545D02*
D03*
X-293870Y138545D02*
D03*
X-322386Y142681D02*
D03*
X-467154Y211584D02*
D03*
X-419425Y222844D02*
D03*
X-414710Y225200D02*
D03*
X-410736Y225422D02*
D03*
X-403910Y231100D02*
D03*
X-400610Y239200D02*
D03*
X-400281Y230803D02*
D03*
X-400135Y245765D02*
D03*
X-384914Y242191D02*
D03*
X-412810Y228500D02*
D03*
X-483480Y213533D02*
D03*
X-417110Y285900D02*
D03*
X-413612Y287306D02*
D03*
X-591310Y230900D02*
D03*
X-592873Y224126D02*
D03*
X-595210Y227000D02*
D03*
X-599473Y189026D02*
D03*
X-447073Y240374D02*
D03*
X-451118Y235610D02*
D03*
X-454079Y239827D02*
D03*
X-403046Y224100D02*
D03*
X-385012Y260494D02*
D03*
X-386489Y273327D02*
D03*
X-407454Y253764D02*
D03*
X-381210Y235800D02*
D03*
X-410510Y270200D02*
D03*
X-403516Y271124D02*
D03*
X-403319Y266006D02*
D03*
X-387398Y280078D02*
D03*
X-385603Y285494D02*
D03*
X-382158Y294844D02*
D03*
X-383347Y280578D02*
D03*
X-378910Y277718D02*
D03*
X-382003Y285622D02*
D03*
X-407465Y245659D02*
D03*
X-580110Y234500D02*
D03*
X-492010Y223100D02*
D03*
X-496410Y274400D02*
D03*
X-470073Y279574D02*
D03*
X-470173Y289148D02*
D03*
X-466010Y280600D02*
D03*
X-526010Y276200D02*
D03*
X-526423Y272170D02*
D03*
X-599874Y144451D02*
D03*
X-591610Y188172D02*
D03*
Y195800D02*
D03*
X-591810Y148400D02*
D03*
X-591347Y199800D02*
D03*
X-462810Y242000D02*
D03*
X-463004Y233419D02*
D03*
X-449846Y228585D02*
D03*
X-403761Y245822D02*
D03*
X-469273Y228426D02*
D03*
X-465586Y228419D02*
D03*
X-441185Y237662D02*
D03*
X-380510Y242200D02*
D03*
X-376850Y253215D02*
D03*
X-613373Y179726D02*
D03*
X-604374Y236761D02*
D03*
X-595555Y145587D02*
D03*
X-536226Y137484D02*
D03*
X-546795Y138744D02*
D03*
X-391873Y163545D02*
D03*
Y157443D02*
D03*
X-393175Y151648D02*
D03*
X-517173Y130473D02*
D03*
X-366173Y422174D02*
D03*
X-346173D02*
D03*
X-296173D02*
D03*
X-326173D02*
D03*
X-306173D02*
D03*
X-276173D02*
D03*
X-266173D02*
D03*
X-246173D02*
D03*
X-226173D02*
D03*
X-206173D02*
D03*
X-186173D02*
D03*
X-166173D02*
D03*
X-522911Y349138D02*
D03*
X-518047Y342306D02*
D03*
X-510649Y282328D02*
D03*
X-512110Y287300D02*
D03*
X-504137Y323356D02*
D03*
X-491610Y347000D02*
D03*
X-506873Y282074D02*
D03*
X-496010Y325400D02*
D03*
X-500499Y323248D02*
D03*
X-485378Y342150D02*
D03*
X-432910Y343300D02*
D03*
X-497010Y311500D02*
D03*
X-151858Y302324D02*
D03*
X-152058Y305324D02*
D03*
X-156335Y285700D02*
D03*
X-256687Y319163D02*
D03*
X-392310Y316300D02*
D03*
X-437311Y339688D02*
D03*
X-427269Y339738D02*
D03*
X-396673Y301874D02*
D03*
X-417673Y314026D02*
D03*
X-564045Y274757D02*
D03*
X-566011Y347499D02*
D03*
X-575610Y318800D02*
D03*
X-568610Y352400D02*
D03*
X-503929Y345635D02*
D03*
X-483677Y330942D02*
D03*
X-546474Y334104D02*
D03*
X-474245Y315481D02*
D03*
X-546517Y338277D02*
D03*
X-477910Y315500D02*
D03*
X-522010Y404900D02*
D03*
X-525910Y409400D02*
D03*
X-552110Y404900D02*
D03*
X-555710Y409700D02*
D03*
X-574310D02*
D03*
X-483606Y339492D02*
D03*
X-544610Y409900D02*
D03*
X-278510Y317700D02*
D03*
X-457875Y311741D02*
D03*
X-161358Y305424D02*
D03*
X-161458Y302276D02*
D03*
X55890Y362300D02*
D03*
X44190Y314834D02*
D03*
X-79845Y366593D02*
D03*
X-97115Y302210D02*
D03*
X-106469Y278899D02*
D03*
X10190Y386116D02*
D03*
X-73905Y305590D02*
D03*
X-76267Y293385D02*
D03*
X-73019Y293484D02*
D03*
X-394882Y319600D02*
D03*
X-114693Y335297D02*
D03*
X-109575Y342243D02*
D03*
X-128917Y316150D02*
D03*
X-162310Y291200D02*
D03*
X-148810Y303700D02*
D03*
X-148361Y283123D02*
D03*
X-442248Y339688D02*
D03*
X-301331Y138512D02*
D03*
X-266499Y126893D02*
D03*
X-291431Y127486D02*
D03*
X-30874Y179819D02*
D03*
X-14038Y223451D02*
D03*
X-450788Y305737D02*
D03*
X-554840Y340772D02*
D03*
X-100610Y301900D02*
D03*
X69311Y56144D02*
D03*
X84053Y69846D02*
D03*
X74459Y59108D02*
D03*
X93779Y874D02*
D03*
X88163Y6022D02*
D03*
X83117Y10592D02*
D03*
X69311Y37346D02*
D03*
X87851Y12496D02*
D03*
X98693Y2590D02*
D03*
X102125Y12262D02*
D03*
X96587D02*
D03*
X59561Y242174D02*
D03*
X102437Y-10124D02*
D03*
X17477Y220595D02*
D03*
X-56582Y269524D02*
D03*
X-60603Y266596D02*
D03*
X-77055Y305393D02*
D03*
X-364540Y157443D02*
D03*
X-324733Y207816D02*
D03*
X-411264Y245634D02*
D03*
X-327926Y200258D02*
D03*
X-340817Y228062D02*
D03*
X58991Y-2578D02*
D03*
X-536961Y-60307D02*
D03*
X-455858Y-59323D02*
D03*
X-374953Y-59815D02*
D03*
X-430081Y127287D02*
D03*
X-437453Y125520D02*
D03*
X-355760Y125323D02*
D03*
X-26232Y133689D02*
D03*
X-21843Y127191D02*
D03*
X-211370Y-59421D02*
D03*
X-133614Y-64047D02*
D03*
X-47197Y-59421D02*
D03*
X-53004Y-64834D02*
D03*
X-616173Y144573D02*
D03*
X-588283Y250607D02*
D03*
X-580313Y250414D02*
D03*
X-616173Y392174D02*
D03*
X117827Y-27826D02*
D03*
Y32173D02*
D03*
Y52174D02*
D03*
Y72174D02*
D03*
Y92173D02*
D03*
Y112173D02*
D03*
Y132174D02*
D03*
Y152173D02*
D03*
Y172174D02*
D03*
Y192174D02*
D03*
Y212174D02*
D03*
Y232173D02*
D03*
Y252173D02*
D03*
Y272174D02*
D03*
Y292174D02*
D03*
Y312174D02*
D03*
Y332173D02*
D03*
Y352173D02*
D03*
Y372174D02*
D03*
Y392174D02*
D03*
X93827Y422174D02*
D03*
X73827D02*
D03*
X53827D02*
D03*
X33827D02*
D03*
X13827D02*
D03*
X-6173D02*
D03*
X-26173D02*
D03*
X-46173D02*
D03*
X-66173D02*
D03*
X-86173D02*
D03*
X-106173D02*
D03*
X-126173D02*
D03*
X-146173D02*
D03*
X-386173D02*
D03*
X-406173D02*
D03*
X-426173D02*
D03*
X-446173D02*
D03*
X-466173D02*
D03*
X-486173D02*
D03*
X-506173D02*
D03*
X-526173D02*
D03*
X-546173D02*
D03*
X-566173D02*
D03*
X-586173D02*
D03*
X-105447Y-59098D02*
D03*
X-187347Y-58240D02*
D03*
X-432605Y-61462D02*
D03*
X-24093Y-59020D02*
D03*
X-24717Y-62452D02*
D03*
X-106071Y-62530D02*
D03*
X-187971Y-61672D02*
D03*
X-350315Y-62607D02*
D03*
X-266264Y6736D02*
D03*
X-264061Y4533D02*
D03*
X-261877Y2661D02*
D03*
X12684Y50654D02*
D03*
X-258211Y258476D02*
D03*
X-261253Y249038D02*
D03*
X-4555Y300362D02*
D03*
X-16411D02*
D03*
X-10813D02*
D03*
X-4633Y290612D02*
D03*
X-10813D02*
D03*
X-16489D02*
D03*
X83351Y29468D02*
D03*
X92399Y69404D02*
D03*
X113459Y36254D02*
D03*
X93959Y40076D02*
D03*
X79061Y115502D02*
D03*
X58937Y115970D02*
D03*
X59093Y107936D02*
D03*
X79061Y107702D02*
D03*
X90293Y96080D02*
D03*
X72821Y102320D02*
D03*
X65879Y102242D02*
D03*
X65489Y121196D02*
D03*
X72977D02*
D03*
X113537Y114176D02*
D03*
X98015Y128996D02*
D03*
X55427Y114410D02*
D03*
X69311Y121196D02*
D03*
X79061Y111836D02*
D03*
X69233Y102242D02*
D03*
X59171Y111914D02*
D03*
X56675Y98264D02*
D03*
X57767Y127124D02*
D03*
X60263Y37112D02*
D03*
X79529Y35786D02*
D03*
X86549Y50294D02*
D03*
X53711Y36254D02*
D03*
X73991Y30794D02*
D03*
X87095Y41870D02*
D03*
X86081Y58640D02*
D03*
X62993Y59186D02*
D03*
X53399Y48968D02*
D03*
X60029Y46784D02*
D03*
X78749Y46940D02*
D03*
X-216593Y280784D02*
D03*
X81947Y328676D02*
D03*
X61901Y327038D02*
D03*
X61277Y350906D02*
D03*
X69779Y330470D02*
D03*
X45989Y262376D02*
D03*
X49421Y278600D02*
D03*
X34757Y278678D02*
D03*
X23759Y268694D02*
D03*
X34523Y261986D02*
D03*
X16037Y265652D02*
D03*
X22511Y261596D02*
D03*
X8861Y259256D02*
D03*
X2699D02*
D03*
X-1903Y263546D02*
D03*
X-6973Y266900D02*
D03*
X22511Y315104D02*
D03*
X22433Y278132D02*
D03*
X9017Y278054D02*
D03*
X-1123Y277664D02*
D03*
X-5569Y277352D02*
D03*
X15179Y290456D02*
D03*
X9485D02*
D03*
X5117D02*
D03*
X14165Y300596D02*
D03*
X9329D02*
D03*
X4727D02*
D03*
X13890Y306700D02*
D03*
X49577Y305744D02*
D03*
X28673Y305588D02*
D03*
X32495D02*
D03*
X46067Y305822D02*
D03*
X58859Y293732D02*
D03*
X58703Y315494D02*
D03*
X69389Y293420D02*
D03*
X59639Y306992D02*
D03*
X69389Y297944D02*
D03*
X81089Y293498D02*
D03*
X85223Y295292D02*
D03*
X84833Y301610D02*
D03*
X72509Y320174D02*
D03*
X64319D02*
D03*
X69389Y316664D02*
D03*
X81245Y320252D02*
D03*
X84833Y317210D02*
D03*
Y311516D02*
D03*
X79373Y306992D02*
D03*
X-76145Y366793D02*
D03*
X-25850Y304639D02*
D03*
X84209Y274597D02*
D03*
X58313D02*
D03*
X69155Y264925D02*
D03*
X78749Y274597D02*
D03*
X78359Y264925D02*
D03*
X84053D02*
D03*
X83195Y287857D02*
D03*
X69311D02*
D03*
X57455D02*
D03*
X57923Y264925D02*
D03*
X78125Y287857D02*
D03*
X69233Y283957D02*
D03*
X80621Y281149D02*
D03*
X59951D02*
D03*
X58313Y79518D02*
D03*
X69155Y69846D02*
D03*
X78749Y79518D02*
D03*
X84209D02*
D03*
X78359Y69846D02*
D03*
X83195Y92778D02*
D03*
X69311D02*
D03*
X57455D02*
D03*
X57923Y69846D02*
D03*
X78125Y92778D02*
D03*
X69233Y88878D02*
D03*
X80621Y86070D02*
D03*
X59951D02*
D03*
Y151070D02*
D03*
X80621D02*
D03*
X69233Y153878D02*
D03*
X78125Y157778D02*
D03*
X57923Y134846D02*
D03*
X57455Y157778D02*
D03*
X69311D02*
D03*
X83195D02*
D03*
X84053Y134846D02*
D03*
X78359D02*
D03*
X84209Y144518D02*
D03*
X78749D02*
D03*
X69155Y134846D02*
D03*
X58313Y144518D02*
D03*
X89981Y243188D02*
D03*
X78983Y242174D02*
D03*
X61355Y231098D02*
D03*
X60731Y256292D02*
D03*
X76721Y256136D02*
D03*
X84365Y255512D02*
D03*
X89825Y253562D02*
D03*
X89513Y234920D02*
D03*
X84443Y231176D02*
D03*
X69389Y231098D02*
D03*
X69857Y252236D02*
D03*
X54647Y237806D02*
D03*
Y248336D02*
D03*
Y243126D02*
D03*
X23525Y238040D02*
D03*
Y243266D02*
D03*
X23447Y248180D02*
D03*
X49031Y233204D02*
D03*
X43181Y233282D02*
D03*
X35147Y233204D02*
D03*
X69467Y349034D02*
D03*
X59951Y339440D02*
D03*
X78593Y339752D02*
D03*
X82805Y341702D02*
D03*
X82181Y355120D02*
D03*
X45035Y218823D02*
D03*
X55961D02*
D03*
X75932Y218956D02*
D03*
X66503Y195452D02*
D03*
X80387Y195920D02*
D03*
X88343Y204344D02*
D03*
X88723Y218956D02*
D03*
X69467Y219008D02*
D03*
X79061Y209492D02*
D03*
X69233Y199976D02*
D03*
X59873Y209414D02*
D03*
X26728Y204551D02*
D03*
X54101Y204890D02*
D03*
X44937Y204551D02*
D03*
X36356D02*
D03*
X34996Y219020D02*
D03*
X23185Y220595D02*
D03*
X11866D02*
D03*
X19469Y211286D02*
D03*
X14321Y211208D02*
D03*
X-21407Y219476D02*
D03*
X62525Y189992D02*
D03*
X59405Y163862D02*
D03*
X81635Y164252D02*
D03*
X81947Y188822D02*
D03*
X69389Y186716D02*
D03*
X79373Y176888D02*
D03*
X69623Y166748D02*
D03*
X59015Y176732D02*
D03*
X42245Y171726D02*
D03*
X45346D02*
D03*
X35303Y178448D02*
D03*
X35771Y185312D02*
D03*
X35849Y192410D02*
D03*
X-137291Y207541D02*
D03*
X-138505Y216076D02*
D03*
X-174481Y259115D02*
D03*
X-239840Y204707D02*
D03*
X-237890Y206735D02*
D03*
X-235940Y204707D02*
D03*
X-239593Y237822D02*
D03*
X-237643Y239850D02*
D03*
X-235693Y237822D02*
D03*
Y247822D02*
D03*
X-237643Y249850D02*
D03*
X-239593Y247822D02*
D03*
X-541921Y276370D02*
D03*
X-345205Y251644D02*
D03*
X-360135Y251079D02*
D03*
X-350963Y264928D02*
D03*
X52751Y19048D02*
D03*
X101267Y-3494D02*
D03*
X101579Y18892D02*
D03*
X87539Y24118D02*
D03*
X95495Y24040D02*
D03*
X114371Y-4196D02*
D03*
X115775Y16D02*
D03*
X115697Y2824D02*
D03*
X115385Y7426D02*
D03*
X115229Y10468D02*
D03*
X115307Y13744D02*
D03*
X115229Y18424D02*
D03*
Y21622D02*
D03*
X115307Y24586D02*
D03*
X67571Y12808D02*
D03*
X68195Y484D02*
D03*
X71783Y4306D02*
D03*
X64607Y5788D02*
D03*
X64373Y-2636D02*
D03*
X76229Y23728D02*
D03*
X75293Y12184D02*
D03*
X71705Y8518D02*
D03*
X71549Y12340D02*
D03*
X64607Y8440D02*
D03*
X64685Y2980D02*
D03*
X53295Y422D02*
D03*
X59147Y24742D02*
D03*
X53531D02*
D03*
X67649Y-33368D02*
D03*
X93128Y-33134D02*
D03*
X70847Y-10124D02*
D03*
X35435Y143224D02*
D03*
X68741Y-19094D02*
D03*
X-133909Y328552D02*
D03*
X-237765Y316533D02*
D03*
X-206683Y315838D02*
D03*
X-171583Y328506D02*
D03*
X-208997D02*
D03*
X-169867Y316150D02*
D03*
X-129152Y350820D02*
D03*
X-131333Y323592D02*
D03*
X-119811Y332049D02*
D03*
X-106918Y323683D02*
D03*
X-108875Y349499D02*
D03*
X-166852Y350820D02*
D03*
X-169033Y323592D02*
D03*
X-157511Y332049D02*
D03*
X-152393Y335297D02*
D03*
X-144617Y323683D02*
D03*
X-146575Y349499D02*
D03*
X-147275Y342243D02*
D03*
X-146788Y319163D02*
D03*
X-204552Y350820D02*
D03*
X-206733Y323592D02*
D03*
X-195211Y332049D02*
D03*
X-190093Y335297D02*
D03*
X-182317Y323683D02*
D03*
X-184275Y349499D02*
D03*
X-184975Y342243D02*
D03*
X-184488Y319163D02*
D03*
X-242252Y350820D02*
D03*
X-244433Y323592D02*
D03*
X-232911Y332049D02*
D03*
X-227793Y335297D02*
D03*
X-220017Y323683D02*
D03*
X-221975Y349499D02*
D03*
X-222675Y342243D02*
D03*
X-222188Y319163D02*
D03*
X62765Y386658D02*
D03*
Y389658D02*
D03*
Y392558D02*
D03*
X83173Y366754D02*
D03*
X-178122Y310100D02*
D03*
X-256474Y349499D02*
D03*
X-147118Y285623D02*
D03*
X62239Y369967D02*
D03*
X67517Y370094D02*
D03*
X62239Y362467D02*
D03*
X-102761Y235523D02*
D03*
X-40261D02*
D03*
X-32761D02*
D03*
X-25261D02*
D03*
X-20261Y225523D02*
D03*
X-25261Y228023D02*
D03*
X-32761D02*
D03*
X-40261D02*
D03*
X-20261Y243023D02*
D03*
X-25261D02*
D03*
X-30261D02*
D03*
X-35261D02*
D03*
X-40261D02*
D03*
X-16062Y260523D02*
D03*
X-45261Y243023D02*
D03*
X-80656Y228023D02*
D03*
X-75261D02*
D03*
X-67761Y227738D02*
D03*
Y234623D02*
D03*
X-75261Y234949D02*
D03*
X-82761D02*
D03*
X-60603Y260322D02*
D03*
X-65261Y243023D02*
D03*
X-70261D02*
D03*
X-75261D02*
D03*
X-80261D02*
D03*
X-85261D02*
D03*
X-90261D02*
D03*
X-102761Y228023D02*
D03*
X-112523Y235523D02*
D03*
X-117761Y228023D02*
D03*
X-124831D02*
D03*
X-130261Y258023D02*
D03*
Y263023D02*
D03*
X-137761D02*
D03*
Y258023D02*
D03*
X-102761Y253023D02*
D03*
Y248023D02*
D03*
Y242623D02*
D03*
X-112761Y242823D02*
D03*
X-117761Y243023D02*
D03*
X-122761D02*
D03*
X-127681D02*
D03*
X-132761D02*
D03*
X-200465Y276144D02*
D03*
X-211882Y277226D02*
D03*
X42337Y392669D02*
D03*
X45388D02*
D03*
X51096D02*
D03*
X56805D02*
D03*
X-111882Y185002D02*
D03*
X-112642Y198252D02*
D03*
X-58831Y232640D02*
D03*
X-65221Y273196D02*
D03*
X-246497Y328507D02*
D03*
X-250286Y315300D02*
D03*
X-262293Y335297D02*
D03*
X-254517Y323683D02*
D03*
X-278933Y323592D02*
D03*
X-267411Y332049D02*
D03*
X-210800Y266892D02*
D03*
X-236489Y255966D02*
D03*
X-227729Y258427D02*
D03*
X-194953Y214136D02*
D03*
X-221487Y182975D02*
D03*
X-216607Y228309D02*
D03*
X-225366Y214726D02*
D03*
X-229205Y215221D02*
D03*
X-211783Y223686D02*
D03*
X-223103Y218860D02*
D03*
X-160996Y265218D02*
D03*
X-171134Y273289D02*
D03*
X-268183Y216894D02*
D03*
X-259520Y198978D02*
D03*
X-252312Y233821D02*
D03*
X-251901Y224864D02*
D03*
X-247710Y256069D02*
D03*
X-380197Y260204D02*
D03*
X-250761Y254002D02*
D03*
X-265526Y251443D02*
D03*
X-263457Y232640D02*
D03*
X-190524Y286281D02*
D03*
X-190918Y310592D02*
D03*
X-178375Y305807D02*
D03*
X-186193Y311281D02*
D03*
X-188357Y297705D02*
D03*
X-179500Y291892D02*
D03*
X-184520Y290021D02*
D03*
X-188485Y302027D02*
D03*
X-184154Y297696D02*
D03*
X-611685Y128112D02*
D03*
X-586370Y132311D02*
D03*
X-195740Y143958D02*
D03*
X-374882Y143859D02*
D03*
X-384429Y142875D02*
D03*
X-380151Y138771D02*
D03*
X-380780Y142974D02*
D03*
X-445382Y70826D02*
D03*
X-449482Y78226D02*
D03*
X-449582Y81526D02*
D03*
X-449482Y84826D02*
D03*
X-443982Y88226D02*
D03*
Y91326D02*
D03*
X-371450Y138690D02*
D03*
X-375096Y138742D02*
D03*
X-373487Y127582D02*
D03*
X-383752Y138781D02*
D03*
X-363855Y70922D02*
D03*
X-367955Y78322D02*
D03*
Y84922D02*
D03*
X-362455Y88322D02*
D03*
Y91422D02*
D03*
X-368055Y81622D02*
D03*
X-395681Y54871D02*
D03*
X-397355Y59822D02*
D03*
X-395681Y57639D02*
D03*
X-395555Y50750D02*
D03*
Y48092D02*
D03*
X-393811Y41399D02*
D03*
X-397256D02*
D03*
X-363744Y66722D02*
D03*
Y63743D02*
D03*
X-427522Y58009D02*
D03*
X-430475D02*
D03*
X-367855Y106822D02*
D03*
X-363251Y98618D02*
D03*
X-397864Y140689D02*
D03*
X-426455Y84122D02*
D03*
X-434655Y89022D02*
D03*
X-434555Y85822D02*
D03*
X-434755Y82422D02*
D03*
Y79022D02*
D03*
X-434555Y75522D02*
D03*
X-363196Y49870D02*
D03*
X-381971Y102877D02*
D03*
X-375692Y116007D02*
D03*
X-370055Y118722D02*
D03*
X-370731Y123054D02*
D03*
X-424154Y89503D02*
D03*
X-374373Y123153D02*
D03*
X-420534Y89393D02*
D03*
X-375755Y89322D02*
D03*
X-372155Y89422D02*
D03*
X-377129Y127680D02*
D03*
X-404441Y142777D02*
D03*
X-415385Y103187D02*
D03*
X-433181Y45632D02*
D03*
X-415022Y99531D02*
D03*
X-431310Y49083D02*
D03*
X-410790Y97070D02*
D03*
X-431155Y66222D02*
D03*
X-407255Y95422D02*
D03*
X-430574Y62621D02*
D03*
X-401890Y93857D02*
D03*
X-401055Y48322D02*
D03*
X-390555Y48822D02*
D03*
X-394579Y93857D02*
D03*
X-391055Y90222D02*
D03*
X-394755Y81722D02*
D03*
X-389155Y52222D02*
D03*
X-389255Y95722D02*
D03*
X-392755Y77322D02*
D03*
X-385655Y96322D02*
D03*
X-391355Y64022D02*
D03*
X-361036Y52817D02*
D03*
X-380455Y99222D02*
D03*
X-430267Y122179D02*
D03*
X-419452Y119511D02*
D03*
X-431656Y111637D02*
D03*
X-401655Y81722D02*
D03*
X-405024Y89922D02*
D03*
X-402255Y52622D02*
D03*
X-477082Y50654D02*
D03*
Y47996D02*
D03*
X-478882Y59726D02*
D03*
X-477209Y54775D02*
D03*
X-453410Y135200D02*
D03*
X-477209Y57543D02*
D03*
X-449382Y106726D02*
D03*
X-444778Y98522D02*
D03*
X-451582Y118626D02*
D03*
X-457219Y115911D02*
D03*
X-511609Y127191D02*
D03*
X-511795Y122083D02*
D03*
X-500979Y119415D02*
D03*
X-513183Y111541D02*
D03*
X-472582Y90126D02*
D03*
X-476282Y81626D02*
D03*
X-470682Y52126D02*
D03*
X-445271Y66626D02*
D03*
Y63647D02*
D03*
X-442563Y52721D02*
D03*
X-461982Y99126D02*
D03*
X-509050Y57914D02*
D03*
X-512002D02*
D03*
X-496550Y99435D02*
D03*
X-512837Y48987D02*
D03*
X-444724Y49774D02*
D03*
X-463498Y102781D02*
D03*
X-472082Y48726D02*
D03*
X-476106Y93761D02*
D03*
X-467182Y96226D02*
D03*
X-472882Y63926D02*
D03*
X-470782Y95626D02*
D03*
X-474282Y77226D02*
D03*
X-455014Y127486D02*
D03*
X-457282Y89226D02*
D03*
X-453682Y89326D02*
D03*
X-458656Y127585D02*
D03*
X-483417Y93761D02*
D03*
X-482582Y48226D02*
D03*
X-496912Y103091D02*
D03*
X-514709Y45536D02*
D03*
X-488782Y95326D02*
D03*
X-512101Y62525D02*
D03*
X-492317Y96974D02*
D03*
X-512682Y66126D02*
D03*
X-455900Y123057D02*
D03*
X-502061Y89297D02*
D03*
X-507982Y84026D02*
D03*
X-516182Y88926D02*
D03*
X-516082Y85726D02*
D03*
X-516282Y82326D02*
D03*
Y78926D02*
D03*
X-516082Y75426D02*
D03*
X-452258Y122959D02*
D03*
X-505681Y89407D02*
D03*
X-475339Y41303D02*
D03*
X-478783D02*
D03*
X-483182Y81626D02*
D03*
X-486551Y89826D02*
D03*
X-483782Y52526D02*
D03*
X-275508Y235519D02*
D03*
X-382847Y274962D02*
D03*
X-378713Y283821D02*
D03*
X-378327Y272310D02*
D03*
X-437556Y238049D02*
D03*
X-376948Y268275D02*
D03*
X-345741Y242974D02*
D03*
X-348601Y258136D02*
D03*
X-350766Y251640D02*
D03*
X-297063Y266879D02*
D03*
X-369074Y266601D02*
D03*
X-269069Y237761D02*
D03*
X-174804Y301975D02*
D03*
X-300366Y250848D02*
D03*
X-312965Y251144D02*
D03*
X-336587Y249962D02*
D03*
X-365229Y214825D02*
D03*
X-328090Y203908D02*
D03*
X-335921Y214911D02*
D03*
X-315426Y223486D02*
D03*
X-355688Y215024D02*
D03*
X-198300Y294254D02*
D03*
X-198034Y298628D02*
D03*
X-197976Y303812D02*
D03*
X-206792Y293169D02*
D03*
X-330288Y192974D02*
D03*
X-349675Y167977D02*
D03*
X-347748Y153112D02*
D03*
X-368674Y157443D02*
D03*
X-364540Y153407D02*
D03*
X-315809Y140593D02*
D03*
X-342500Y202047D02*
D03*
X-260678Y242497D02*
D03*
X-445081Y237275D02*
D03*
X-432917Y238049D02*
D03*
X-440398Y248193D02*
D03*
X-281799Y70826D02*
D03*
X-285899Y78226D02*
D03*
Y84826D02*
D03*
X-280399Y88226D02*
D03*
Y91326D02*
D03*
X-605191Y122719D02*
D03*
X-232099Y54477D02*
D03*
X-207623Y138299D02*
D03*
X-233772Y59429D02*
D03*
X-232099Y57246D02*
D03*
X-230229Y41006D02*
D03*
X-231972Y50356D02*
D03*
Y47699D02*
D03*
X-233674Y41006D02*
D03*
X-200161Y66329D02*
D03*
Y63350D02*
D03*
X-263940Y57616D02*
D03*
X-266893D02*
D03*
X-204272Y106429D02*
D03*
X-199668Y98225D02*
D03*
X-234282Y140295D02*
D03*
X-204472Y81229D02*
D03*
X-198872Y91028D02*
D03*
Y87928D02*
D03*
X-204372Y84528D02*
D03*
Y77929D02*
D03*
X-200272Y70529D02*
D03*
X-262872Y83728D02*
D03*
X-270972Y85429D02*
D03*
X-271072Y88629D02*
D03*
X-271172Y82029D02*
D03*
Y78628D02*
D03*
X-270972Y75129D02*
D03*
X-199614Y49477D02*
D03*
X-218389Y102484D02*
D03*
X-212109Y115614D02*
D03*
X-206472Y118328D02*
D03*
X-207148Y122661D02*
D03*
X-260571Y89109D02*
D03*
X-210790Y122759D02*
D03*
X-256952Y88999D02*
D03*
X-209904Y127188D02*
D03*
X-212172Y88929D02*
D03*
X-208572Y89029D02*
D03*
X-213546Y127287D02*
D03*
X-240859Y142384D02*
D03*
X-243074Y139491D02*
D03*
X-275051Y124536D02*
D03*
X-251802Y102793D02*
D03*
X-269599Y45238D02*
D03*
X-251440Y99137D02*
D03*
X-267727Y48689D02*
D03*
X-247207Y96676D02*
D03*
X-267572Y65829D02*
D03*
X-243672Y95029D02*
D03*
X-266991Y62228D02*
D03*
X-238307Y93463D02*
D03*
X-237472Y47929D02*
D03*
X-226972Y48428D02*
D03*
X-230996Y93463D02*
D03*
X-227472Y89828D02*
D03*
X-231172Y81328D02*
D03*
X-225572Y51828D02*
D03*
X-225672Y95328D02*
D03*
X-229172Y76929D02*
D03*
X-222072Y95929D02*
D03*
X-227772Y63629D02*
D03*
X-197453Y52423D02*
D03*
X-216872Y98829D02*
D03*
X-266685Y121786D02*
D03*
X-255869Y119117D02*
D03*
X-268074Y111243D02*
D03*
X-238072Y81328D02*
D03*
X-241441Y89529D02*
D03*
X-238672Y52228D02*
D03*
X-608437Y130868D02*
D03*
X-606948Y126976D02*
D03*
X-603011Y126287D02*
D03*
X-603884Y108457D02*
D03*
X-247883Y242497D02*
D03*
X-271598Y252721D02*
D03*
X-559000Y54775D02*
D03*
Y57543D02*
D03*
X-560673Y59726D02*
D03*
X-558873Y50654D02*
D03*
Y47996D02*
D03*
X-557130Y41303D02*
D03*
X-560575D02*
D03*
X-527062Y66626D02*
D03*
Y63647D02*
D03*
X-590841Y57914D02*
D03*
X-593794D02*
D03*
X-531173Y106726D02*
D03*
X-526569Y98522D02*
D03*
X-593400Y127191D02*
D03*
X-525773Y91326D02*
D03*
Y88226D02*
D03*
X-531273Y84826D02*
D03*
X-531373Y81526D02*
D03*
X-531273Y78226D02*
D03*
X-527173Y70826D02*
D03*
X-589773Y84026D02*
D03*
X-597873Y75426D02*
D03*
X-526515Y49774D02*
D03*
X-545290Y102781D02*
D03*
X-539010Y115911D02*
D03*
X-533373Y118626D02*
D03*
X-534050Y122959D02*
D03*
X-587472Y89407D02*
D03*
X-537691Y123057D02*
D03*
X-583853Y89297D02*
D03*
X-536805Y127486D02*
D03*
X-539073Y89226D02*
D03*
X-535473Y89326D02*
D03*
X-540447Y127585D02*
D03*
X-578703Y103091D02*
D03*
X-596500Y45536D02*
D03*
X-578341Y99435D02*
D03*
X-594628Y48987D02*
D03*
X-574109Y96974D02*
D03*
X-594473Y66126D02*
D03*
X-570573Y95326D02*
D03*
X-593892Y62525D02*
D03*
X-565209Y93761D02*
D03*
X-564373Y48226D02*
D03*
X-553873Y48726D02*
D03*
X-557897Y93761D02*
D03*
X-554373Y90126D02*
D03*
X-558073Y81626D02*
D03*
X-552473Y52126D02*
D03*
X-552573Y95626D02*
D03*
X-556073Y77226D02*
D03*
X-548973Y96226D02*
D03*
X-554673Y63926D02*
D03*
X-524354Y52721D02*
D03*
X-543773Y99126D02*
D03*
X-593586Y122083D02*
D03*
X-582770Y119415D02*
D03*
X-594975Y111541D02*
D03*
X-564973Y81626D02*
D03*
X-568342Y89826D02*
D03*
X-565573Y52526D02*
D03*
X27517Y143764D02*
D03*
X10883Y59726D02*
D03*
X36376Y135693D02*
D03*
X12557Y54775D02*
D03*
X28403Y138646D02*
D03*
X12557Y57543D02*
D03*
X12684Y47996D02*
D03*
X14427Y41303D02*
D03*
X10982D02*
D03*
X44495Y66626D02*
D03*
Y63647D02*
D03*
X-19284Y57914D02*
D03*
X-22237D02*
D03*
X40383Y106726D02*
D03*
X44987Y98522D02*
D03*
X10374Y140593D02*
D03*
X45783Y91326D02*
D03*
Y88226D02*
D03*
X40284Y84826D02*
D03*
X40183Y81526D02*
D03*
X40284Y78226D02*
D03*
X44383Y70826D02*
D03*
X-26417Y88926D02*
D03*
X-18216Y84026D02*
D03*
X-26316Y85726D02*
D03*
X-26517Y82326D02*
D03*
Y78926D02*
D03*
X-26316Y75426D02*
D03*
X47202Y52721D02*
D03*
X27784Y99126D02*
D03*
X22583Y96226D02*
D03*
X16883Y63926D02*
D03*
X18983Y95626D02*
D03*
X15484Y77226D02*
D03*
X17184Y90126D02*
D03*
X13484Y81626D02*
D03*
X19083Y52126D02*
D03*
X17684Y48726D02*
D03*
X13659Y93761D02*
D03*
X6348D02*
D03*
X7183Y48226D02*
D03*
X984Y95326D02*
D03*
X-22335Y62525D02*
D03*
X-2552Y96974D02*
D03*
X-22917Y66126D02*
D03*
X-6784Y99435D02*
D03*
X-23072Y48987D02*
D03*
X-7147Y103091D02*
D03*
X-24943Y45536D02*
D03*
X1582Y139789D02*
D03*
X8423Y144059D02*
D03*
X24761Y138744D02*
D03*
X32734Y135693D02*
D03*
X36083Y89326D02*
D03*
X31109Y127585D02*
D03*
X34751Y127486D02*
D03*
X32484Y89226D02*
D03*
X33865Y123057D02*
D03*
X-12296Y89297D02*
D03*
X37507Y122959D02*
D03*
X-15915Y89407D02*
D03*
X38184Y118626D02*
D03*
X32546Y115911D02*
D03*
X45042Y49774D02*
D03*
X26267Y102781D02*
D03*
X-22029Y122083D02*
D03*
X-11213Y119415D02*
D03*
X-23418Y111541D02*
D03*
X6583Y81626D02*
D03*
X3214Y89826D02*
D03*
X5984Y52526D02*
D03*
X-53783Y143764D02*
D03*
X-70416Y59726D02*
D03*
X-44924Y135693D02*
D03*
X-68743Y54775D02*
D03*
X-52897Y138646D02*
D03*
X-68743Y57543D02*
D03*
X-68616Y50654D02*
D03*
Y47996D02*
D03*
X-66873Y41303D02*
D03*
X-70318D02*
D03*
X-36805Y66626D02*
D03*
Y63647D02*
D03*
X-100584Y57914D02*
D03*
X-103537D02*
D03*
X-40916Y106726D02*
D03*
X-36312Y98522D02*
D03*
X-70926Y140593D02*
D03*
X-103143Y127191D02*
D03*
X-35517Y91326D02*
D03*
Y88226D02*
D03*
X-41017Y84826D02*
D03*
X-41116Y81526D02*
D03*
X-41017Y78226D02*
D03*
X-36917Y70826D02*
D03*
X-107717Y88926D02*
D03*
X-99516Y84026D02*
D03*
X-107616Y85726D02*
D03*
X-107817Y82326D02*
D03*
Y78926D02*
D03*
X-107616Y75426D02*
D03*
X-34098Y52721D02*
D03*
X-53517Y99126D02*
D03*
X-58716Y96226D02*
D03*
X-64416Y63926D02*
D03*
X-62317Y95626D02*
D03*
X-65816Y77226D02*
D03*
X-64117Y90126D02*
D03*
X-67817Y81626D02*
D03*
X-62217Y52126D02*
D03*
X-63617Y48726D02*
D03*
X-67641Y93761D02*
D03*
X-74952D02*
D03*
X-74116Y48226D02*
D03*
X-80317Y95326D02*
D03*
X-103635Y62525D02*
D03*
X-83852Y96974D02*
D03*
X-104217Y66126D02*
D03*
X-88084Y99435D02*
D03*
X-104372Y48987D02*
D03*
X-88447Y103091D02*
D03*
X-106243Y45536D02*
D03*
X-107039Y133099D02*
D03*
X-79718Y139789D02*
D03*
X-72877Y144059D02*
D03*
X-56538Y138744D02*
D03*
X-48566Y135693D02*
D03*
X-45217Y89326D02*
D03*
X-50191Y127585D02*
D03*
X-46549Y127486D02*
D03*
X-48816Y89226D02*
D03*
X-47435Y123057D02*
D03*
X-93596Y89297D02*
D03*
X-43793Y122959D02*
D03*
X-97215Y89407D02*
D03*
X-43117Y118626D02*
D03*
X-48753Y115911D02*
D03*
X-36258Y49774D02*
D03*
X-55033Y102781D02*
D03*
X-103329Y122083D02*
D03*
X-92513Y119415D02*
D03*
X-104718Y111541D02*
D03*
X-74717Y81626D02*
D03*
X-78086Y89826D02*
D03*
X-75317Y52526D02*
D03*
X-57326Y143075D02*
D03*
X-151716Y59726D02*
D03*
X-126224Y135693D02*
D03*
X-150043Y54775D02*
D03*
Y57543D02*
D03*
X-149917Y50654D02*
D03*
Y47996D02*
D03*
X-148173Y41303D02*
D03*
X-151618D02*
D03*
X-118105Y66626D02*
D03*
Y63647D02*
D03*
X-181884Y57914D02*
D03*
X-184837D02*
D03*
X-122216Y106726D02*
D03*
X-117613Y98522D02*
D03*
X-152226Y140593D02*
D03*
X-184443Y127191D02*
D03*
X-116816Y91326D02*
D03*
Y88226D02*
D03*
X-122317Y84826D02*
D03*
X-122416Y81526D02*
D03*
X-122317Y78226D02*
D03*
X-118217Y70826D02*
D03*
X-189016Y88926D02*
D03*
X-180816Y84026D02*
D03*
X-188917Y85726D02*
D03*
X-189117Y82326D02*
D03*
Y78926D02*
D03*
X-188917Y75426D02*
D03*
X-115398Y52721D02*
D03*
X-134817Y99126D02*
D03*
X-140016Y96226D02*
D03*
X-145717Y63926D02*
D03*
X-143616Y95626D02*
D03*
X-147116Y77226D02*
D03*
X-145416Y90126D02*
D03*
X-149117Y81626D02*
D03*
X-143517Y52126D02*
D03*
X-144916Y48726D02*
D03*
X-148941Y93761D02*
D03*
X-156252D02*
D03*
X-155417Y48226D02*
D03*
X-161617Y95326D02*
D03*
X-184935Y62525D02*
D03*
X-165152Y96974D02*
D03*
X-185517Y66126D02*
D03*
X-169384Y99435D02*
D03*
X-185672Y48987D02*
D03*
X-169747Y103091D02*
D03*
X-187543Y45536D02*
D03*
X-188535Y133591D02*
D03*
X-161018Y139789D02*
D03*
X-154177Y144059D02*
D03*
X-129866Y135693D02*
D03*
X-126516Y89326D02*
D03*
X-131491Y127585D02*
D03*
X-127849Y127486D02*
D03*
X-130116Y89226D02*
D03*
X-128735Y123057D02*
D03*
X-174896Y89297D02*
D03*
X-125093Y122959D02*
D03*
X-178515Y89407D02*
D03*
X-124416Y118626D02*
D03*
X-130053Y115911D02*
D03*
X-117558Y49774D02*
D03*
X-136333Y102781D02*
D03*
X-184629Y122083D02*
D03*
X-173813Y119415D02*
D03*
X-186018Y111541D02*
D03*
X-156017Y81626D02*
D03*
X-159386Y89826D02*
D03*
X-156616Y52526D02*
D03*
X-138626Y143075D02*
D03*
X-313626Y54775D02*
D03*
Y57543D02*
D03*
X-315299Y59726D02*
D03*
X-313499Y50654D02*
D03*
Y47996D02*
D03*
X-311756Y41303D02*
D03*
X-315201D02*
D03*
X-281688Y66626D02*
D03*
Y63647D02*
D03*
X-345467Y57914D02*
D03*
X-348420D02*
D03*
X-285799Y106726D02*
D03*
X-281195Y98522D02*
D03*
X-348026Y127191D02*
D03*
X-285999Y81526D02*
D03*
X-344399Y84026D02*
D03*
X-352599Y88926D02*
D03*
X-352499Y85726D02*
D03*
X-352699Y82326D02*
D03*
Y78926D02*
D03*
X-352499Y75426D02*
D03*
X-281141Y49774D02*
D03*
X-299916Y102781D02*
D03*
X-293636Y115911D02*
D03*
X-287999Y118626D02*
D03*
X-288675Y122959D02*
D03*
X-342098Y89407D02*
D03*
X-292317Y123057D02*
D03*
X-338479Y89297D02*
D03*
X-293699Y89226D02*
D03*
X-290099Y89326D02*
D03*
X-295073Y127585D02*
D03*
X-333329Y103091D02*
D03*
X-351126Y45536D02*
D03*
X-332967Y99435D02*
D03*
X-349254Y48987D02*
D03*
X-328735Y96974D02*
D03*
X-349099Y66126D02*
D03*
X-325199Y95326D02*
D03*
X-348518Y62525D02*
D03*
X-319835Y93761D02*
D03*
X-318999Y48226D02*
D03*
X-308499Y48726D02*
D03*
X-312523Y93761D02*
D03*
X-308999Y90126D02*
D03*
X-312699Y81626D02*
D03*
X-307099Y52126D02*
D03*
X-307199Y95626D02*
D03*
X-310699Y77226D02*
D03*
X-303599Y96226D02*
D03*
X-309299Y63926D02*
D03*
X-278980Y52721D02*
D03*
X-298399Y99126D02*
D03*
X-348212Y122083D02*
D03*
X-337396Y119415D02*
D03*
X-349601Y111541D02*
D03*
X-319599Y81626D02*
D03*
X-322968Y89826D02*
D03*
X-320199Y52526D02*
D03*
X93698Y-18435D02*
D03*
X-184154Y302027D02*
D03*
X-257174Y342243D02*
D03*
X-276752Y350820D02*
D03*
X-556748Y201446D02*
D03*
X-275705Y239853D02*
D03*
X-573973Y304207D02*
D03*
X-294602Y299753D02*
D03*
X-347718Y206150D02*
D03*
X-285842Y259497D02*
D03*
X-325465Y251636D02*
D03*
X-308382Y253493D02*
D03*
X25470Y294935D02*
D03*
Y298183D02*
D03*
X-176576Y297841D02*
D03*
X35727Y253484D02*
D03*
X30389D02*
D03*
X-15810Y383084D02*
D03*
X-69771Y293385D02*
D03*
X-70854Y305689D02*
D03*
X-473468Y330142D02*
D03*
X-562900Y281228D02*
D03*
X-421887Y290274D02*
D03*
X-411173Y263774D02*
D03*
X-583802Y219074D02*
D03*
X-481973Y261174D02*
D03*
X-485962Y274692D02*
D03*
X-495579Y251721D02*
D03*
X-492538Y251726D02*
D03*
X-491473Y243274D02*
D03*
X-494513Y243269D02*
D03*
X-461273Y291074D02*
D03*
X-421873Y282674D02*
D03*
X-421899Y286356D02*
D03*
X-453073Y325326D02*
D03*
X-428733Y286308D02*
D03*
X-484373Y262626D02*
D03*
X-469373Y261526D02*
D03*
X-427325Y307574D02*
D03*
X-441166Y290883D02*
D03*
X-440873Y294474D02*
D03*
X-441173Y287274D02*
D03*
X-483673Y283174D02*
D03*
X-567169Y293257D02*
D03*
X-460373Y282426D02*
D03*
X54514Y185309D02*
D03*
X48329Y171740D02*
D03*
X54612Y178911D02*
D03*
X54514Y192297D02*
D03*
X49888Y199482D02*
D03*
X43293D02*
D03*
X46640D02*
D03*
X27893Y287024D02*
D03*
X38940Y286959D02*
D03*
X51059Y287102D02*
D03*
X32543Y286860D02*
D03*
X45928Y286959D02*
D03*
X53114Y298179D02*
D03*
Y294832D02*
D03*
X-72995Y366793D02*
D03*
X-58330Y287364D02*
D03*
Y283624D02*
D03*
X-66146Y366806D02*
D03*
X-58625Y363545D02*
D03*
X-61544Y366793D02*
D03*
X-58625D02*
D03*
X-413555Y260888D02*
D03*
X-531044Y340416D02*
D03*
X-614095Y339108D02*
D03*
X47427Y253484D02*
D03*
X42727D02*
D03*
X30623Y233282D02*
D03*
X-560325Y330172D02*
D03*
X-581273Y300507D02*
D03*
X-581573Y307907D02*
D03*
X-581773Y304207D02*
D03*
X-618373Y310126D02*
D03*
X-461282Y287302D02*
D03*
X-451422Y290872D02*
D03*
X56868Y386870D02*
D03*
X51268Y388170D02*
D03*
X56868Y389770D02*
D03*
X-24262Y268824D02*
D03*
X-68056Y273228D02*
D03*
X-68461Y268823D02*
D03*
X-73361Y268723D02*
D03*
X-29562Y268924D02*
D03*
X-106861Y273723D02*
D03*
X-73961Y273228D02*
D03*
X46068Y388170D02*
D03*
X-490273Y289426D02*
D03*
Y293226D02*
D03*
X-618673Y357826D02*
D03*
X-56482Y256524D02*
D03*
X-16007Y351884D02*
D03*
X-17877Y305820D02*
D03*
X-15416Y319895D02*
D03*
X-137761Y243023D02*
D03*
X-17062Y229824D02*
D03*
X-107761Y242823D02*
D03*
X-95261Y243023D02*
D03*
X-60061Y244823D02*
D03*
Y253923D02*
D03*
X-16062Y253924D02*
D03*
Y244824D02*
D03*
X-50261Y243023D02*
D03*
X-60361Y236323D02*
D03*
X-16162Y236124D02*
D03*
X-604273Y308926D02*
D03*
X-96993Y259448D02*
D03*
X-52782Y269424D02*
D03*
X-24212Y273228D02*
D03*
X-21260D02*
D03*
X-93942Y271948D02*
D03*
X-30118Y273228D02*
D03*
X-27165D02*
D03*
X-33071D02*
D03*
X-71009Y273228D02*
D03*
X-76914D02*
D03*
X-110861Y273723D02*
D03*
X-118861D02*
D03*
X-114861D02*
D03*
X-105870Y269183D02*
D03*
X-110861Y269223D02*
D03*
X-115761D02*
D03*
X-139924Y271622D02*
D03*
X-459875Y330773D02*
D03*
X-447273Y339663D02*
D03*
X-432295Y339658D02*
D03*
X-477510Y324800D02*
D03*
X-459492Y325516D02*
D03*
X10242Y392105D02*
D03*
X-612821Y250752D02*
D03*
X-573744Y254810D02*
D03*
X-612707Y259178D02*
D03*
X-612852Y268357D02*
D03*
X-612924Y277753D02*
D03*
Y286787D02*
D03*
X-612839Y295559D02*
D03*
X-612904Y304131D02*
D03*
X-598015Y311930D02*
D03*
X-589701Y311994D02*
D03*
X-577975Y311274D02*
D03*
X-554873Y291326D02*
D03*
X-544810Y283629D02*
D03*
X-544948Y291559D02*
D03*
X-451273Y286626D02*
D03*
X-428736Y282706D02*
D03*
X-56763Y276540D02*
D03*
X20482Y390234D02*
D03*
X-123311Y273959D02*
D03*
X-465373Y320326D02*
D03*
X-424260Y251249D02*
D03*
X-423051Y264276D02*
D03*
X-413510Y267700D02*
D03*
X-466873Y266215D02*
D03*
X-472043Y303277D02*
D03*
X-477896Y308453D02*
D03*
X-499826Y292529D02*
D03*
X-500092Y308548D02*
D03*
X-612398Y317352D02*
D03*
X-533982Y349138D02*
D03*
X-582010Y360000D02*
D03*
X-431053Y256905D02*
D03*
X-46693Y274016D02*
D03*
X-609110Y241200D02*
D03*
X-613373Y237326D02*
D03*
X-488843Y274726D02*
D03*
X-492373Y239726D02*
D03*
X-495413Y239721D02*
D03*
X-489173Y285526D02*
D03*
X-470073Y266326D02*
D03*
X-572273Y219726D02*
D03*
X-607873Y194574D02*
D03*
X-595673Y214674D02*
D03*
X-428736Y289989D02*
D03*
X-511794Y337922D02*
D03*
X-80938Y273326D02*
D03*
X-36996Y273228D02*
D03*
X-393473Y299874D02*
D03*
G54D311*
X-281510Y326600D02*
Y350820D01*
X-279710Y352620D01*
Y356693D01*
X-286748Y363731D02*
X-279710Y356693D01*
X15578Y373590D02*
X52026D01*
X15578Y340568D02*
Y373590D01*
Y320194D02*
Y340568D01*
Y320194D02*
X52026D01*
Y325248D01*
X-98402Y337356D02*
Y430104D01*
X-136869Y343223D02*
Y430101D01*
X-174861Y343223D02*
Y430648D01*
X-211960Y343049D02*
Y430413D01*
X-249853Y343443D02*
Y430803D01*
X-286748Y363731D02*
Y430015D01*
X52026Y325248D02*
Y373590D01*
X-40701Y245380D02*
X-18453D01*
X-40701D02*
Y265773D01*
X-18453D01*
Y245380D02*
Y265773D01*
X-84700Y245380D02*
X-62453D01*
X-84700D02*
Y265772D01*
X-62453D01*
Y245380D02*
Y265772D01*
X-84700Y245380D02*
X-62453D01*
X-84700D02*
Y265772D01*
X-62453D01*
Y245380D02*
Y265772D01*
X-104802Y245780D02*
Y266172D01*
X-127050D02*
X-104802D01*
X-127050Y245780D02*
Y266172D01*
Y245780D02*
X-104802D01*
G54D313*
X-110610Y314201D02*
X-102610Y322201D01*
Y333148D02*
X-98402Y337356D01*
X50450Y119847D02*
X53478Y122874D01*
Y162465D01*
X-102610Y322201D02*
Y333148D01*
X-140622Y284189D02*
X-110610Y314201D01*
X47635Y168308D02*
X53478Y162465D01*
X-130907Y168308D02*
X47635D01*
X-140622Y178023D02*
X-130907Y168308D01*
X-140622Y178023D02*
Y284189D01*
G54D318*
X124858Y-121827D02*
Y429355D01*
X-623173D02*
X124858D01*
X-623173D02*
X-623173Y-121827D01*
X124858D01*
G54D350*
X-601910Y152200D02*
D03*
X-611910D02*
D03*
X-601910Y162200D02*
D03*
X-611910D02*
D03*
X-601910Y172200D02*
D03*
X-587473Y268926D02*
D03*
Y278847D02*
D03*
X-579573D02*
D03*
Y268926D02*
D03*
G54D356*
X-50561Y154428D02*
D03*
X-76170Y149236D02*
D03*
X-256700Y193600D02*
D03*
X-379217Y186571D02*
D03*
X-382910Y204000D02*
D03*
X-398600Y169700D02*
D03*
X-516210Y162100D02*
D03*
X-421800Y156200D02*
D03*
X-542010Y146700D02*
D03*
X-444210Y173000D02*
D03*
X-444010Y176500D02*
D03*
X-454010Y175000D02*
D03*
X-456810Y180600D02*
D03*
X-440579Y183600D02*
D03*
X-474210Y173600D02*
D03*
X-493437Y160800D02*
D03*
X-490288Y160600D02*
D03*
X-496876Y160800D02*
D03*
X-501410Y148300D02*
D03*
X-512710Y149800D02*
D03*
X-498810Y150100D02*
D03*
X-503910Y150200D02*
D03*
X-509010D02*
D03*
X-516310Y150100D02*
D03*
X-515010Y159200D02*
D03*
X-511910Y159400D02*
D03*
X-487910Y186300D02*
D03*
X35190Y395200D02*
D03*
X-414410Y334900D02*
D03*
X-423810Y336600D02*
D03*
Y332700D02*
D03*
X-577932Y409579D02*
D03*
X-286262Y359500D02*
D03*
X-361318Y168719D02*
D03*
X-488910Y347100D02*
D03*
X-518157Y194973D02*
D03*
X-553182Y188574D02*
D03*
X-423910Y147600D02*
D03*
X-517473Y238600D02*
D03*
X-528010Y240500D02*
D03*
X-298610Y383073D02*
D03*
X-307671Y408951D02*
D03*
X-322371Y409051D02*
D03*
X-318683Y409000D02*
D03*
X-498966Y189664D02*
D03*
X-562910Y164800D02*
D03*
X-263360Y149750D02*
D03*
X-155910Y151000D02*
D03*
X-148010Y151500D02*
D03*
X-232810Y149900D02*
D03*
X-226610Y144700D02*
D03*
X-151618Y151031D02*
D03*
X-144110Y151390D02*
D03*
X-149310Y162637D02*
D03*
X-239310Y187900D02*
D03*
X-214710Y233000D02*
D03*
X-225610Y240200D02*
D03*
X-224910Y243900D02*
D03*
X-225110Y249900D02*
D03*
X-217210Y249800D02*
D03*
X-204410Y243400D02*
D03*
X-198910Y190700D02*
D03*
X-199210Y197046D02*
D03*
X-198595Y207049D02*
D03*
X-199210Y200600D02*
D03*
X-220010Y207100D02*
D03*
Y200900D02*
D03*
Y196600D02*
D03*
Y190000D02*
D03*
X-225610D02*
D03*
X-215110D02*
D03*
Y196600D02*
D03*
X-225610D02*
D03*
X-214810Y207100D02*
D03*
X-225710D02*
D03*
X-215310Y201200D02*
D03*
X-225010Y200900D02*
D03*
X7200Y152500D02*
D03*
X14290Y156000D02*
D03*
X11090Y152400D02*
D03*
X-231510Y314600D02*
D03*
X-43844Y308720D02*
D03*
X-540510Y196100D02*
D03*
X-563760Y194391D02*
D03*
X-527510Y191000D02*
D03*
X-529010Y184000D02*
D03*
X-531910Y188100D02*
D03*
X-567910Y156800D02*
D03*
X-564710D02*
D03*
X-574710Y163600D02*
D03*
X-570910Y158100D02*
D03*
X-571580Y163700D02*
D03*
X-543210Y150100D02*
D03*
X-575010Y145200D02*
D03*
X-527703Y139213D02*
D03*
X-531010Y144546D02*
D03*
Y149300D02*
D03*
X-527910Y150300D02*
D03*
X-528710Y159300D02*
D03*
X-527910Y145800D02*
D03*
X-329610Y157100D02*
D03*
X-420575Y146100D02*
D03*
X-478145Y165650D02*
D03*
X-498610Y168300D02*
D03*
X-478969Y168864D02*
D03*
X-529710Y168168D02*
D03*
X-544310Y163300D02*
D03*
X-529710Y165000D02*
D03*
X-566310Y163700D02*
D03*
X-272611Y149150D02*
D03*
X-449710Y189700D02*
D03*
X-479174Y173874D02*
D03*
X-450950Y172720D02*
D03*
X-452884Y189695D02*
D03*
X-442510Y204300D02*
D03*
X-456510Y205535D02*
D03*
X-453374Y205652D02*
D03*
X-504510Y138900D02*
D03*
X-562910Y167964D02*
D03*
X-469810Y176200D02*
D03*
X-467110Y191920D02*
D03*
X-479510Y184700D02*
D03*
X-303910Y161300D02*
D03*
X-308308Y164140D02*
D03*
X-298300Y163269D02*
D03*
X-303745Y156028D02*
D03*
X-287271Y149300D02*
D03*
X-300410Y154500D02*
D03*
X17214Y149451D02*
D03*
X-66210Y150900D02*
D03*
X40116Y145100D02*
D03*
X37190Y146300D02*
D03*
X-261531Y169721D02*
D03*
X-255631D02*
D03*
X-484239Y192371D02*
D03*
X-480510Y192100D02*
D03*
X-464010Y191600D02*
D03*
X-474110Y200700D02*
D03*
X-446510Y189600D02*
D03*
X-381750Y188500D02*
D03*
X-385410Y192500D02*
D03*
X-386910Y189600D02*
D03*
X-392510Y214700D02*
D03*
X-382910Y216100D02*
D03*
X-361710Y181600D02*
D03*
X-537361Y196851D02*
D03*
X-536871Y200348D02*
D03*
X-502110Y204000D02*
D03*
X-568110Y193500D02*
D03*
X-435750Y139900D02*
D03*
X-435610Y208100D02*
D03*
X-283210Y144300D02*
D03*
X-332847Y158648D02*
D03*
X-388510Y193480D02*
D03*
X-394377Y192757D02*
D03*
X-464410Y200524D02*
D03*
X-558710Y164200D02*
D03*
X-476233Y184664D02*
D03*
X-452074Y209140D02*
D03*
X-351710Y318000D02*
D03*
X-352110Y332300D02*
D03*
X-581110Y175900D02*
D03*
X-576410Y180500D02*
D03*
X-573810Y186200D02*
D03*
X-571410Y192600D02*
D03*
X-420910Y229300D02*
D03*
X-417810Y229000D02*
D03*
X-426710Y229400D02*
D03*
X-423610Y227400D02*
D03*
X-407810Y239200D02*
D03*
X-429710Y227200D02*
D03*
X-590110Y234100D02*
D03*
X-582708Y222581D02*
D03*
X-501710Y230700D02*
D03*
X-505610Y234600D02*
D03*
X-445110Y313304D02*
D03*
X-604110Y181200D02*
D03*
X-384810Y224700D02*
D03*
X-382910Y219600D02*
D03*
X-465429Y231769D02*
D03*
X-593410Y151700D02*
D03*
X-579910Y150500D02*
D03*
X-583010D02*
D03*
X-580373Y352274D02*
D03*
X-284610Y354700D02*
D03*
X-282110D02*
D03*
X-289310Y396700D02*
D03*
X-310810Y380700D02*
D03*
X-307610Y380400D02*
D03*
X-289310Y377100D02*
D03*
X-299410Y399200D02*
D03*
X-314110Y380700D02*
D03*
X-341110Y409100D02*
D03*
X-344410D02*
D03*
X-295356Y353776D02*
D03*
X-297391Y355811D02*
D03*
X-488810Y342600D02*
D03*
X-402710Y338200D02*
D03*
X-388026Y339100D02*
D03*
X-388510Y333200D02*
D03*
X-384501Y330461D02*
D03*
X-378910Y341800D02*
D03*
X-381910Y332200D02*
D03*
X-380410Y338900D02*
D03*
X-377710Y337100D02*
D03*
X-375810Y341800D02*
D03*
X-374610Y337100D02*
D03*
X-376586Y330461D02*
D03*
X-498628Y355153D02*
D03*
X-491210Y323700D02*
D03*
X-307210Y326600D02*
D03*
X-313210Y323911D02*
D03*
X-309710Y329600D02*
D03*
X-315010Y317200D02*
D03*
X-306610Y329700D02*
D03*
X-144910Y283900D02*
D03*
X-270210Y318200D02*
D03*
X-266842Y318565D02*
D03*
X-203610Y314000D02*
D03*
X-169110Y312800D02*
D03*
X-165996Y312424D02*
D03*
X-291910Y342300D02*
D03*
X-294510Y340499D02*
D03*
X-308710Y358200D02*
D03*
X-301110Y345300D02*
D03*
X-311810Y334100D02*
D03*
X-309210Y336100D02*
D03*
X-306310Y334200D02*
D03*
X-292710Y337000D02*
D03*
X-292810Y333800D02*
D03*
X-288310Y334600D02*
D03*
X-306367Y355700D02*
D03*
X-313410D02*
D03*
X-304810Y337100D02*
D03*
X-321210Y355700D02*
D03*
X-339683Y355800D02*
D03*
X-298110Y326900D02*
D03*
X-318210Y331800D02*
D03*
X-318510Y326900D02*
D03*
X-320310Y329500D02*
D03*
X-343110Y332039D02*
D03*
X-340910Y324700D02*
D03*
X-340790Y329500D02*
D03*
X-337810Y324600D02*
D03*
X-334810Y346100D02*
D03*
X-317510Y347200D02*
D03*
X-321510Y346900D02*
D03*
X-337910Y333000D02*
D03*
X-334052Y339527D02*
D03*
X-344710Y319000D02*
D03*
X-349210Y319900D02*
D03*
X-347010Y348700D02*
D03*
X-328110Y337200D02*
D03*
X-328310Y320500D02*
D03*
X-353410Y356800D02*
D03*
X-343410Y355800D02*
D03*
X-346260Y338733D02*
D03*
X-354210Y343300D02*
D03*
X-380510Y320800D02*
D03*
X-383510Y308100D02*
D03*
X-409610Y355800D02*
D03*
X-413910Y347300D02*
D03*
X-406510Y342300D02*
D03*
X-365410Y355200D02*
D03*
X-394482Y356400D02*
D03*
X-366210Y350300D02*
D03*
X-422910Y356600D02*
D03*
X-450810Y343400D02*
D03*
X-405110Y357400D02*
D03*
X-358410Y351400D02*
D03*
X-352410Y329200D02*
D03*
X-352710Y326100D02*
D03*
X-338410Y320100D02*
D03*
X-337360Y317000D02*
D03*
X-355359Y316651D02*
D03*
X-350510Y409200D02*
D03*
X-361310Y409600D02*
D03*
X-387410Y409400D02*
D03*
X-383810Y408900D02*
D03*
X-365100Y409600D02*
D03*
X-398510Y409200D02*
D03*
X-402010D02*
D03*
X-420810Y409400D02*
D03*
X-424470Y409190D02*
D03*
X-361361Y339499D02*
D03*
X-365310Y339100D02*
D03*
X-374910Y349600D02*
D03*
X-361110Y330700D02*
D03*
X-358610Y316500D02*
D03*
X-387710Y355300D02*
D03*
X-394102Y328723D02*
D03*
X-402410Y355300D02*
D03*
X-430510Y409200D02*
D03*
X-389710Y344900D02*
D03*
Y341800D02*
D03*
X-438010Y409200D02*
D03*
X-445210D02*
D03*
X-463910Y409300D02*
D03*
X-478710Y409800D02*
D03*
X-467610Y409300D02*
D03*
X-501210Y409500D02*
D03*
X-485910Y409100D02*
D03*
X-507550Y409068D02*
D03*
X-401310Y341418D02*
D03*
X-496610Y346000D02*
D03*
X-494910Y355100D02*
D03*
X-487810Y355200D02*
D03*
X-469437Y355400D02*
D03*
X-476710Y355700D02*
D03*
X-509520Y355690D02*
D03*
X-575460Y347700D02*
D03*
X-580110Y349100D02*
D03*
X-581473Y337373D02*
D03*
X-582402Y334402D02*
D03*
X-575610Y339500D02*
D03*
X-597710Y333000D02*
D03*
X-587010Y330400D02*
D03*
X-597073Y322273D02*
D03*
X-595010Y319900D02*
D03*
X-596110Y325300D02*
D03*
X-575110Y344600D02*
D03*
X-587510Y344500D02*
D03*
X-590264Y350977D02*
D03*
X-577410Y335000D02*
D03*
X-590210Y329800D02*
D03*
X-528546Y355964D02*
D03*
X-597663Y318139D02*
D03*
X-589410Y347000D02*
D03*
X-590810Y344000D02*
D03*
X-533110Y355600D02*
D03*
X-544183Y355628D02*
D03*
X-582210Y378200D02*
D03*
X-601110Y359800D02*
D03*
X-582510Y363700D02*
D03*
X-583110Y369600D02*
D03*
X-597410Y364251D02*
D03*
X-611110Y361500D02*
D03*
X-469110Y343300D02*
D03*
X-441210Y318600D02*
D03*
X53390Y343500D02*
D03*
X53590Y351100D02*
D03*
X57927Y370038D02*
D03*
X-479210Y343300D02*
D03*
X21086Y386881D02*
D03*
X-351815Y124827D02*
D03*
X-192071Y216461D02*
D03*
X-223665Y211441D02*
D03*
X-263134Y199138D02*
D03*
X-263626Y229059D02*
D03*
X-280457Y235936D02*
D03*
X-255063Y216559D02*
D03*
X-324719Y126344D02*
D03*
X-320388D02*
D03*
X-316057D02*
D03*
X-311727D02*
D03*
X-307396D02*
D03*
X-324719Y117683D02*
D03*
X-320388D02*
D03*
X-316057D02*
D03*
X-311727D02*
D03*
X-307396D02*
D03*
X-324719Y122014D02*
D03*
X-320388D02*
D03*
X-316057D02*
D03*
X-311727D02*
D03*
X-307396D02*
D03*
X-324719Y113352D02*
D03*
X-320388D02*
D03*
X-316057D02*
D03*
X-311727D02*
D03*
X-307396D02*
D03*
X-320388Y109021D02*
D03*
X-316057D02*
D03*
X-311727D02*
D03*
X-307396D02*
D03*
X-82473Y340300D02*
D03*
X-86410D02*
D03*
X-252115Y241119D02*
D03*
X-256446D02*
D03*
Y245449D02*
D03*
X-252115D02*
D03*
X-311756Y159709D02*
D03*
Y155378D02*
D03*
X-316087D02*
D03*
Y159709D02*
D03*
X-377532Y155277D02*
D03*
X-381863D02*
D03*
X-377532Y159608D02*
D03*
X-381863D02*
D03*
X-552770Y109021D02*
D03*
X-557101D02*
D03*
X-561431D02*
D03*
X-565762D02*
D03*
X-570093D02*
D03*
X-552770Y113352D02*
D03*
X-557101D02*
D03*
X-561431D02*
D03*
X-565762D02*
D03*
X-570093D02*
D03*
X-552770Y117683D02*
D03*
X-557101D02*
D03*
X-561431D02*
D03*
X-565762D02*
D03*
X-570093D02*
D03*
X-552770Y122014D02*
D03*
X-557101D02*
D03*
X-561431D02*
D03*
X-565762D02*
D03*
X-570093D02*
D03*
X-552770Y126344D02*
D03*
X-557101D02*
D03*
X-561431D02*
D03*
X-565762D02*
D03*
X-570093D02*
D03*
X-488302D02*
D03*
X-483971D02*
D03*
X-479640D02*
D03*
X-475309D02*
D03*
X-470979D02*
D03*
X-488302Y122014D02*
D03*
X-483971D02*
D03*
X-479640D02*
D03*
X-475309D02*
D03*
X-470979D02*
D03*
X-488302Y117683D02*
D03*
X-483971D02*
D03*
X-479640D02*
D03*
X-475309D02*
D03*
X-470979D02*
D03*
X-488302Y113352D02*
D03*
X-483971D02*
D03*
X-479640D02*
D03*
X-475309D02*
D03*
X-470979D02*
D03*
X-488302Y109021D02*
D03*
X-483971D02*
D03*
X-479640D02*
D03*
X-475309D02*
D03*
X-470979D02*
D03*
X-389452Y109117D02*
D03*
X-393782D02*
D03*
X-398113D02*
D03*
X-402444D02*
D03*
X-406774D02*
D03*
X-389452Y113448D02*
D03*
X-393782D02*
D03*
X-398113D02*
D03*
X-402444D02*
D03*
X-406774D02*
D03*
X-389452Y117779D02*
D03*
X-393782D02*
D03*
X-398113D02*
D03*
X-402444D02*
D03*
X-406774D02*
D03*
X-389452Y122109D02*
D03*
X-393782D02*
D03*
X-398113D02*
D03*
X-402444D02*
D03*
X-406774D02*
D03*
X-389452Y126440D02*
D03*
X-393782D02*
D03*
X-398113D02*
D03*
X-402444D02*
D03*
X-406774D02*
D03*
X-324719Y109021D02*
D03*
X-225869Y108724D02*
D03*
X-230200D02*
D03*
X-234530D02*
D03*
X-238861D02*
D03*
X-243192D02*
D03*
X-225869Y113055D02*
D03*
X-230200D02*
D03*
X-234530D02*
D03*
X-238861D02*
D03*
X-243192D02*
D03*
X-225869Y117385D02*
D03*
X-230200D02*
D03*
X-234530D02*
D03*
X-238861D02*
D03*
X-243192D02*
D03*
X-225869Y121716D02*
D03*
X-230200D02*
D03*
X-234530D02*
D03*
X-238861D02*
D03*
X-243192D02*
D03*
X-225869Y126047D02*
D03*
X-230200D02*
D03*
X-234530D02*
D03*
X-238861D02*
D03*
X-243192D02*
D03*
X-161136Y126344D02*
D03*
X-156805D02*
D03*
X-152475D02*
D03*
X-148144D02*
D03*
X-143813D02*
D03*
X-161136Y122014D02*
D03*
X-156805D02*
D03*
X-152475D02*
D03*
X-148144D02*
D03*
X-143813D02*
D03*
X-161136Y117683D02*
D03*
X-156805D02*
D03*
X-152475D02*
D03*
X-148144D02*
D03*
X-143813D02*
D03*
X-161136Y113352D02*
D03*
X-156805D02*
D03*
X-152475D02*
D03*
X-148144D02*
D03*
X-143813D02*
D03*
X-161136Y109021D02*
D03*
X-156805D02*
D03*
X-152475D02*
D03*
X-148144D02*
D03*
X-143813D02*
D03*
X18787D02*
D03*
X14456D02*
D03*
X10125D02*
D03*
X5795D02*
D03*
X1464D02*
D03*
X18787Y113352D02*
D03*
X14456D02*
D03*
X10125D02*
D03*
X5795D02*
D03*
X1464D02*
D03*
X18787Y117683D02*
D03*
X14456D02*
D03*
X10125D02*
D03*
X5795D02*
D03*
X1464D02*
D03*
X18787Y122014D02*
D03*
X14456D02*
D03*
X10125D02*
D03*
X5795D02*
D03*
X1464D02*
D03*
X18787Y126344D02*
D03*
X14456D02*
D03*
X10125D02*
D03*
X5795D02*
D03*
X1464D02*
D03*
X-79836D02*
D03*
X-75505D02*
D03*
X-71175D02*
D03*
X-66844D02*
D03*
X-62513D02*
D03*
X-79836Y122014D02*
D03*
X-75505D02*
D03*
X-71175D02*
D03*
X-66844D02*
D03*
X-62513D02*
D03*
X-79836Y117683D02*
D03*
X-75505D02*
D03*
X-71175D02*
D03*
X-66844D02*
D03*
X-62513D02*
D03*
X-79836Y113352D02*
D03*
X-75505D02*
D03*
X-71175D02*
D03*
X-66844D02*
D03*
X-62513D02*
D03*
X-79836Y109021D02*
D03*
X-75505D02*
D03*
X-71175D02*
D03*
X-66844D02*
D03*
X-62513D02*
D03*
X-34383Y321952D02*
D03*
Y326283D02*
D03*
X-30052Y321952D02*
D03*
Y326283D02*
D03*
X-25721Y321952D02*
D03*
Y326283D02*
D03*
X46119Y375570D02*
D03*
Y379570D02*
D03*
X50119D02*
D03*
X54119D02*
D03*
Y375570D02*
D03*
X50119D02*
D03*
X54119Y371570D02*
D03*
Y367570D02*
D03*
X42119Y375570D02*
D03*
X38119D02*
D03*
Y379570D02*
D03*
X42119D02*
D03*
X-51263Y348486D02*
D03*
X-41352Y316417D02*
D03*
G54D359*
X-118587Y215437D02*
D03*
Y205437D02*
D03*
X-288697Y189812D02*
D03*
G54D360*
X-121810Y154400D02*
D03*
Y164400D02*
D03*
X-111810Y154400D02*
D03*
Y164400D02*
D03*
X-101810Y154400D02*
D03*
Y164400D02*
D03*
X-91810Y154400D02*
D03*
Y164400D02*
D03*
X-81810Y154400D02*
D03*
Y164400D02*
D03*
X-4497Y155951D02*
D03*
X-14497D02*
D03*
X-24261D02*
D03*
X-128586Y215437D02*
D03*
Y205437D02*
D03*
Y195437D02*
D03*
X-118587D02*
D03*
X-128586Y185437D02*
D03*
X-118587D02*
D03*
X-268697Y199812D02*
D03*
Y189812D02*
D03*
X-278697Y199812D02*
D03*
Y189812D02*
D03*
X-288697Y199812D02*
D03*
X-298697D02*
D03*
Y189812D02*
D03*
X-308697Y199812D02*
D03*
Y189812D02*
D03*
X-512873Y224226D02*
D03*
Y214226D02*
D03*
X-522873Y224226D02*
D03*
Y214226D02*
D03*
X-532873Y224226D02*
D03*
Y214226D02*
D03*
X-542873Y224226D02*
D03*
Y214226D02*
D03*
X-552873Y224226D02*
D03*
Y214226D02*
D03*
X-512873Y261720D02*
D03*
Y251720D02*
D03*
X-522873Y261720D02*
D03*
Y251720D02*
D03*
X-532873Y261720D02*
D03*
Y251720D02*
D03*
X-542873Y261720D02*
D03*
Y251720D02*
D03*
X-552873Y261720D02*
D03*
Y251720D02*
D03*
G54D361*
X-523805Y193956D02*
D03*
Y138444D02*
D03*
G54D362*
X-411600Y166200D02*
D03*
X105173Y409669D02*
D03*
X-603488D02*
D03*
G54D363*
X-611910Y172200D02*
D03*
G54D364*
X-552510Y391900D02*
D03*
X-542510D02*
D03*
X-532510D02*
D03*
X-522510D02*
D03*
X-562510D02*
D03*
X-572510D02*
D03*
X-542510Y367600D02*
D03*
X-552510D02*
D03*
X-562510D02*
D03*
X-572510D02*
D03*
X-532510D02*
D03*
X-522510D02*
D03*
X-480443Y391900D02*
D03*
X-470443D02*
D03*
X-460443D02*
D03*
X-450444D02*
D03*
X-490444D02*
D03*
X-500444D02*
D03*
X-470443Y367600D02*
D03*
X-480443D02*
D03*
X-490444D02*
D03*
X-500444D02*
D03*
X-460443D02*
D03*
X-450444D02*
D03*
X-408377Y391900D02*
D03*
X-398377D02*
D03*
X-388377D02*
D03*
X-378377D02*
D03*
X-418377D02*
D03*
X-428377D02*
D03*
X-398377Y367600D02*
D03*
X-408377D02*
D03*
X-418377D02*
D03*
X-428377D02*
D03*
X-388377D02*
D03*
X-378377D02*
D03*
X-336310Y391900D02*
D03*
X-326310D02*
D03*
X-316310D02*
D03*
X-306310D02*
D03*
X-346310D02*
D03*
X-356310D02*
D03*
X-326310Y367600D02*
D03*
X-336310D02*
D03*
X-346310D02*
D03*
X-356310D02*
D03*
X-316310D02*
D03*
X-306310D02*
D03*
X-234138Y298826D02*
D03*
X-224138D02*
D03*
X-244138Y274826D02*
D03*
X-234138D02*
D03*
X-187150Y207071D02*
D03*
Y197071D02*
D03*
Y187071D02*
D03*
Y248646D02*
D03*
Y238646D02*
D03*
Y228646D02*
D03*
X-163331Y187071D02*
D03*
Y197071D02*
D03*
Y207071D02*
D03*
Y228548D02*
D03*
Y238547D02*
D03*
Y248548D02*
D03*
X-614573Y348526D02*
D03*
Y366326D02*
D03*
X-320173Y230226D02*
D03*
X-330173D02*
D03*
X-357473Y274826D02*
D03*
X-367473D02*
D03*
X-285373D02*
D03*
X-275373D02*
D03*
X-326423D02*
D03*
X-316423D02*
D03*
X-265373Y298826D02*
D03*
X-275373D02*
D03*
X-306423D02*
D03*
X-316423D02*
D03*
X-347473D02*
D03*
X-357473D02*
D03*
X-288673Y230226D02*
D03*
X-298673D02*
D03*
X-351873D02*
D03*
X-361873D02*
D03*
G54D365*
X-244138Y298826D02*
D03*
X-224138Y274826D02*
D03*
X-347473D02*
D03*
X-265373D02*
D03*
X-306423D02*
D03*
X-285373Y298826D02*
D03*
X-326423D02*
D03*
X-367473D02*
D03*
G54D366*
X-272779Y-102141D02*
D03*
X105173D02*
D03*
X-603488D02*
D03*
G54D367*
X-66972Y209866D02*
D03*
X-55161Y194355D02*
D03*
X-78783D02*
D03*
X-36264Y209866D02*
D03*
X-24453Y194355D02*
D03*
X-48075D02*
D03*
X-97681Y209866D02*
D03*
X-85870Y194355D02*
D03*
X-109492D02*
D03*
X-403160Y-72733D02*
D03*
X-391349Y-84544D02*
D03*
X-379538Y-88245D02*
D03*
X-414971D02*
D03*
X-332916D02*
D03*
X-297483D02*
D03*
X-309294Y-84544D02*
D03*
X-321105Y-72733D02*
D03*
X-239578D02*
D03*
X-227767Y-84544D02*
D03*
X-215955Y-88245D02*
D03*
X-251389D02*
D03*
X-169333D02*
D03*
X-133900D02*
D03*
X-145711Y-84544D02*
D03*
X-157522Y-72733D02*
D03*
X-76222D02*
D03*
X-64411Y-84544D02*
D03*
X-52600Y-88245D02*
D03*
X-88033D02*
D03*
X-6733D02*
D03*
X28700D02*
D03*
X16889Y-84544D02*
D03*
X5078Y-72733D02*
D03*
X-564940D02*
D03*
X-553129Y-84544D02*
D03*
X-541318Y-88245D02*
D03*
X-576751D02*
D03*
X-496498D02*
D03*
X-461065D02*
D03*
X-472876Y-84544D02*
D03*
X-484687Y-72733D02*
D03*
G54D368*
X-124613Y392770D02*
D03*
X-110834D02*
D03*
Y373085D02*
D03*
X-124613D02*
D03*
X-162313D02*
D03*
X-148534D02*
D03*
Y392770D02*
D03*
X-162313D02*
D03*
X-200013D02*
D03*
X-186233D02*
D03*
Y373085D02*
D03*
X-200013D02*
D03*
X-237713D02*
D03*
X-223933D02*
D03*
Y392770D02*
D03*
X-237713D02*
D03*
X-275413D02*
D03*
X-261633D02*
D03*
Y373085D02*
D03*
X-275413D02*
D03*
G54D369*
X69327Y339505D02*
D03*
Y307005D02*
D03*
Y274505D02*
D03*
Y242005D02*
D03*
Y46926D02*
D03*
Y79426D02*
D03*
Y111926D02*
D03*
Y144426D02*
D03*
Y176926D02*
D03*
Y209426D02*
D03*
G54D370*
X45346Y192296D02*
D03*
Y178895D02*
D03*
X32527Y296126D02*
D03*
X45927D02*
D03*
Y243126D02*
D03*
X32527D02*
D03*
G54D372*
X-598173Y250226D02*
D03*
Y297548D02*
D03*
G54D375*
X-192694Y416348D02*
D03*
G54D376*
X-66972Y198055D02*
D03*
X-36264D02*
D03*
X-97681D02*
D03*
X-403160Y-84544D02*
D03*
X-391349Y-72733D02*
D03*
X-309294D02*
D03*
X-321105Y-84544D02*
D03*
X-239578D02*
D03*
X-227767Y-72733D02*
D03*
X-145711D02*
D03*
X-157522Y-84544D02*
D03*
X-76222D02*
D03*
X-64411Y-72733D02*
D03*
X16889D02*
D03*
X5078Y-84544D02*
D03*
X-564940D02*
D03*
X-553129Y-72733D02*
D03*
X-472876D02*
D03*
X-484687Y-84544D02*
D03*
G54D377*
X-7654Y178895D02*
D03*
Y192296D02*
D03*
G54D378*
X-604773Y343626D02*
D03*
Y371226D02*
D03*
M02*
