G04*
G04 #@! TF.GenerationSoftware,Altium Limited,Altium Designer,21.0.8 (223)*
G04*
G04 Layer_Color=8388736*
%FSLAX25Y25*%
%MOIN*%
G70*
G04*
G04 #@! TF.SameCoordinates,5566C36B-964F-41A9-A7E5-395C2F312E01*
G04*
G04*
G04 #@! TF.FilePolarity,Positive*
G04*
G01*
G75*
%ADD11C,0.01000*%
%ADD18C,0.00400*%
%ADD25C,0.00600*%
G54D11*
X-551689Y331026D02*
X-510034D01*
X-551689Y295335D02*
Y331026D01*
Y295335D02*
X-510001D01*
Y331046D01*
G54D18*
X-519894Y306232D02*
Y307432D01*
X-520194D01*
X-520494Y307132D01*
Y306232D01*
Y307132D01*
X-520793Y307432D01*
X-521093Y307132D01*
Y306232D01*
X-521993Y307432D02*
X-522593D01*
X-522893Y307132D01*
Y306232D01*
X-521993D01*
X-521693Y306532D01*
X-521993Y306832D01*
X-522893D01*
X-523493Y307432D02*
Y306232D01*
Y306832D01*
X-523793Y307132D01*
X-524092Y307432D01*
X-524392D01*
X-525292Y306232D02*
Y308032D01*
Y306832D02*
X-526192Y307432D01*
X-525292Y306832D02*
X-526192Y306232D01*
X-527092D02*
X-527691D01*
X-527391D01*
Y307432D01*
X-527092D01*
X-528591Y306232D02*
Y307432D01*
X-529491D01*
X-529791Y307132D01*
Y306232D01*
X-530990Y305632D02*
X-531290D01*
X-531590Y305932D01*
Y307432D01*
X-530690D01*
X-530390Y307132D01*
Y306532D01*
X-530690Y306232D01*
X-531590D01*
X-532190D02*
X-533090D01*
X-533390Y306532D01*
X-533090Y306832D01*
X-532490D01*
X-532190Y307132D01*
X-532490Y307432D01*
X-533390D01*
X-526606Y318848D02*
X-527205D01*
X-527505Y318548D01*
Y317649D01*
X-526606D01*
X-526306Y317949D01*
X-526606Y318249D01*
X-527505D01*
X-528105Y317649D02*
Y318848D01*
X-529005D01*
X-529305Y318548D01*
Y317649D01*
X-531104Y319448D02*
Y317649D01*
X-530204D01*
X-529905Y317949D01*
Y318548D01*
X-530204Y318848D01*
X-531104D01*
G54D25*
X-527631Y315311D02*
Y311979D01*
X-528298Y311312D01*
X-529631D01*
X-530297Y311979D01*
Y315311D01*
X-531630D02*
Y311312D01*
X-534296D01*
X-523293Y322702D02*
Y326701D01*
X-525292D01*
X-525959Y326035D01*
Y324702D01*
X-525292Y324035D01*
X-523293D01*
X-524626D02*
X-525959Y322702D01*
X-527958D02*
X-529291D01*
X-529957Y323369D01*
Y324702D01*
X-529291Y325368D01*
X-527958D01*
X-527292Y324702D01*
Y323369D01*
X-527958Y322702D01*
X-531290Y326701D02*
Y322702D01*
Y324702D01*
X-533956D01*
Y326701D01*
Y322702D01*
X-537955Y326035D02*
X-537289Y326701D01*
X-535956D01*
X-535289Y326035D01*
Y325368D01*
X-535956Y324702D01*
X-537289D01*
X-537955Y324035D01*
Y323369D01*
X-537289Y322702D01*
X-535956D01*
X-535289Y323369D01*
M02*
