G04 CAM350 V10.5 (Build 464) Date:  Wed Nov 01 10:35:07 2023 *
G04 Database: (Untitled) *
G04 Layer 1: drl *
%FSLAX25Y25*%
%MOIN*%
%SFA1.000B1.000*%

%MIA0B0*%
%IPPOS*%
%ADD10C,0.00984*%
%ADD11C,0.01575*%
%ADD12C,0.03937*%
%ADD13C,0.04134*%
%ADD14C,0.04331*%
%ADD15C,0.04724*%
%ADD16C,0.06299*%
%ADD17C,0.06693*%
%ADD18C,0.08071*%
%ADD19C,0.09055*%
%ADD20C,0.12205*%
%ADD21C,0.02953*%
%ADD22C,0.12008*%
%LNdrl*%
%LPD*%
G54D10*
X543337Y230848D03*
Y235179D03*
Y239510D03*
Y243841D03*
Y248171D03*
X547668D03*
X551998D03*
X556329D03*
X560660D03*
Y243841D03*
X556329D03*
X551998D03*
X547668D03*
Y239510D03*
X551998D03*
X556329D03*
X560660D03*
Y235179D03*
X556329D03*
X551998D03*
X547668D03*
Y230848D03*
X551998D03*
X556329D03*
X560660D03*
X624637D03*
X628968D03*
X633298D03*
X637629D03*
X641960D03*
Y235179D03*
X637629D03*
X633298D03*
X628968D03*
X624637D03*
Y239510D03*
X628968D03*
X633298D03*
X637629D03*
X641960D03*
Y243841D03*
X637629D03*
X633298D03*
X628968D03*
X624637D03*
Y248171D03*
X628968D03*
X633298D03*
X637629D03*
X641960D03*
X479360D03*
X475029D03*
X470698D03*
X466368D03*
X462037D03*
Y243841D03*
X466368D03*
X470698D03*
X475029D03*
X479360D03*
Y239510D03*
X475029D03*
X470698D03*
X466368D03*
X462037D03*
Y235179D03*
X466368D03*
X470698D03*
X475029D03*
X479360D03*
Y230848D03*
X475029D03*
X470698D03*
X466368D03*
X462037D03*
X397304Y230551D03*
X392973D03*
X388643D03*
X384312D03*
X379981D03*
Y234882D03*
X384312D03*
X388643D03*
X392973D03*
X397304D03*
Y239212D03*
X392973D03*
X388643D03*
X384312D03*
X379981D03*
Y243543D03*
X384312D03*
X388643D03*
X392973D03*
X397304D03*
Y247874D03*
X392973D03*
X388643D03*
X384312D03*
X379981D03*
X315777Y248171D03*
X311446D03*
X307116D03*
X302785D03*
X298454D03*
Y243841D03*
Y239510D03*
X302785D03*
X307116D03*
X311446D03*
X315777D03*
Y243841D03*
X311446D03*
X307116D03*
X302785D03*
Y235179D03*
X298454D03*
Y230848D03*
X302785D03*
X307116D03*
Y235179D03*
X311446D03*
X315777D03*
Y230848D03*
X311446D03*
X271358Y246654D03*
X233721Y248267D03*
Y243936D03*
Y239606D03*
Y235275D03*
Y230944D03*
X229391D03*
X225060D03*
X220729D03*
X216399D03*
Y235275D03*
X220729D03*
X225060D03*
X229391D03*
Y239606D03*
X225060D03*
X220729D03*
X216399D03*
Y243936D03*
X220729D03*
X225060D03*
X229391D03*
Y248267D03*
X225060D03*
X220729D03*
X216399D03*
X152194Y248171D03*
X147864D03*
X143533D03*
X139202D03*
X134871D03*
Y243841D03*
X139202D03*
X143533D03*
X147864D03*
X152194D03*
Y239510D03*
X147864D03*
X143533D03*
X139202D03*
X134871D03*
Y235179D03*
X139202D03*
X143533D03*
X147864D03*
X152194D03*
Y230848D03*
X147864D03*
X143533D03*
X139202D03*
X134871D03*
X70403D03*
X66072D03*
X61742D03*
X57411D03*
X53080D03*
Y235179D03*
X57411D03*
X61742D03*
X66072D03*
X70403D03*
Y239510D03*
X66072D03*
X61742D03*
X57411D03*
X53080D03*
Y243841D03*
X57411D03*
X61742D03*
X66072D03*
X70403D03*
Y248171D03*
X66072D03*
X61742D03*
X57411D03*
X53080D03*
X48163Y267027D03*
X43263Y272327D03*
X40163D03*
X29763Y273527D03*
X52263Y279927D03*
X55263Y278627D03*
X58463D03*
X56863Y285527D03*
X60263Y286627D03*
Y289791D03*
X64463Y286027D03*
X51593Y285527D03*
X48463Y285427D03*
X46763Y302327D03*
X49363Y308027D03*
X51763Y314427D03*
X55063Y315327D03*
X59413Y316218D03*
X65145Y312827D03*
X69991Y310401D03*
X82663Y317927D03*
X85812Y318678D03*
X86302Y322175D03*
X91263Y309927D03*
X94163Y305827D03*
X95663Y312827D03*
X105863Y313227D03*
X105016Y316800D03*
X124207Y311491D03*
X131940D03*
X135263Y308127D03*
X138934Y314198D03*
X142663Y313927D03*
X143663Y306527D03*
X146940Y306491D03*
X148963Y295427D03*
X143999Y295701D03*
X144204Y290691D03*
X145028Y287477D03*
X132885Y282427D03*
X129736Y282627D03*
X126297D03*
X124563Y290127D03*
X124363Y271927D03*
X121763Y270127D03*
X119263Y272027D03*
X114163D03*
X110463Y271627D03*
X106863Y271927D03*
X108163Y281027D03*
X111263Y281227D03*
X106963Y283927D03*
X94463Y281127D03*
X93463Y286827D03*
Y289995D03*
X78863Y285127D03*
X79963Y271927D03*
X81163Y268527D03*
X92163Y266373D03*
X95263Y267627D03*
Y272127D03*
X92163Y271127D03*
X95470Y261040D03*
X118663Y260727D03*
X121063Y325827D03*
X121463Y352527D03*
X117563Y356427D03*
X105700Y360427D03*
X95163Y362327D03*
X33063Y355927D03*
X40465Y344408D03*
X42063Y297727D03*
X19063Y303027D03*
X153363Y298027D03*
X169163Y296827D03*
X172223Y294547D03*
X166363Y302427D03*
X170289Y311522D03*
X173463Y311527D03*
X159163Y313427D03*
X156063Y313747D03*
X158763Y322351D03*
X149063Y322527D03*
X166663Y327362D03*
X169799Y327479D03*
X171099Y330967D03*
X157744Y353596D03*
X193463Y349027D03*
X196463Y351227D03*
X199563Y349227D03*
X202263Y351127D03*
X205363Y350827D03*
X215363Y361027D03*
X238363Y346527D03*
X240263Y341427D03*
Y337927D03*
X230663Y336527D03*
X240263Y325827D03*
X237763Y314327D03*
X234663Y315307D03*
X236263Y311427D03*
X241423Y310327D03*
X243956Y308398D03*
X246461Y305753D03*
X261463Y303427D03*
X261855Y290546D03*
X245641Y281435D03*
Y277104D03*
X241310D03*
Y281435D03*
X224573Y291527D03*
X228796Y314584D03*
X176663Y311427D03*
X182594Y305427D03*
X179163Y298327D03*
X178963Y294827D03*
X180663Y326127D03*
X187563Y329927D03*
X201373Y278027D03*
X199263Y269427D03*
X202598Y267927D03*
X187423Y261727D03*
X290326Y280475D03*
X293563Y278927D03*
X307086Y277205D03*
X311417D03*
Y281536D03*
X307086D03*
X309363Y285927D03*
X314865Y285967D03*
X319263Y283127D03*
X319428Y277855D03*
X322763Y276327D03*
X324873Y285096D03*
X335902Y271127D03*
X339963Y266127D03*
X350562Y270977D03*
X359813Y271577D03*
X361642Y291548D03*
X367542D03*
X366473Y315427D03*
X360039Y320965D03*
X368110Y338386D03*
X359547Y350886D03*
X366727Y362946D03*
X371058D03*
Y367276D03*
X366727D03*
X398263Y365727D03*
X397563Y362027D03*
X398063Y371727D03*
X405963Y371627D03*
X418763Y365227D03*
X408463Y354827D03*
X408363Y328927D03*
X403163D03*
X397463D03*
X399508Y333268D03*
X398163Y322727D03*
X397563Y318427D03*
X403163D03*
Y322727D03*
X407863Y323027D03*
X408063Y318427D03*
Y311827D03*
X403163D03*
X397563D03*
X383863Y309727D03*
X424263Y312527D03*
X423963Y318873D03*
Y322427D03*
X424578Y328876D03*
X431102Y338288D03*
X450129Y284683D03*
X473863Y284464D03*
X475163Y273327D03*
X479063Y273217D03*
X471555Y272858D03*
X467263Y272827D03*
X396563Y266527D03*
X390363Y271727D03*
X342716Y357763D03*
X478263Y405727D03*
X499362Y382549D03*
Y378549D03*
Y374550D03*
Y370550D03*
X503362D03*
X507362D03*
Y374550D03*
Y378549D03*
Y382549D03*
X511362D03*
X515362D03*
Y378549D03*
X511362D03*
Y374550D03*
X515362D03*
Y370550D03*
X511362D03*
X503362Y374550D03*
Y378549D03*
Y382549D03*
X541712Y382149D03*
Y378150D03*
Y374150D03*
Y370150D03*
X545712D03*
X549712D03*
Y374150D03*
Y378150D03*
Y382149D03*
X553712D03*
X557712D03*
Y378150D03*
X553712D03*
Y374150D03*
X557712D03*
Y370150D03*
X553712D03*
X545712Y374150D03*
Y378150D03*
Y382149D03*
X585711Y382150D03*
X589711D03*
Y378150D03*
X585711D03*
Y374150D03*
X589711D03*
Y370150D03*
X585711D03*
X593711D03*
X597711D03*
X601711D03*
Y374150D03*
X597711D03*
Y378150D03*
X601711D03*
Y382150D03*
X597711D03*
X593711D03*
Y378150D03*
Y374150D03*
X572612Y276255D03*
X556963Y272727D03*
X547003Y271063D03*
X630373Y274327D03*
X634263Y274227D03*
X637463Y277827D03*
X640387Y271278D03*
X660363Y268127D03*
X663289Y266927D03*
X676563Y465327D03*
X676763Y472927D03*
X677292Y489397D03*
Y493397D03*
Y497397D03*
Y501397D03*
X673292D03*
X669292D03*
Y497397D03*
Y493397D03*
Y489397D03*
X673292D03*
Y493397D03*
Y497397D03*
X665292D03*
Y493397D03*
Y489397D03*
X661292D03*
Y493397D03*
Y497397D03*
Y501397D03*
X665292D03*
X658363Y517027D03*
X644259Y508708D03*
X681100Y491865D03*
X597452Y448110D03*
X593121D03*
X588790D03*
Y443779D03*
X593121D03*
X597452D03*
X581821Y438244D03*
X579329Y430547D03*
X571910Y470313D03*
X540700Y462127D03*
X536763D03*
X457177Y434251D03*
X454063Y434627D03*
X419563Y435827D03*
X391663Y436427D03*
X356331Y440392D03*
X352963Y440027D03*
X334863Y456427D03*
X330363Y455627D03*
X330463Y458827D03*
X331263Y464127D03*
X338563Y476527D03*
X341063D03*
X336911Y481327D03*
X333863Y498927D03*
Y518527D03*
X323763Y521027D03*
X324563Y504900D03*
X315563Y502227D03*
X312363Y502527D03*
X309063D03*
X309763Y477527D03*
X316806D03*
X314463Y480027D03*
X325782Y477638D03*
X327817Y475603D03*
X328663Y462326D03*
X322063Y467127D03*
X318363Y458927D03*
X316863Y456027D03*
X316563Y451527D03*
X313463Y451427D03*
X315963Y448427D03*
X309963Y445738D03*
X304663Y448727D03*
X302863Y451327D03*
X304963Y453627D03*
X311363Y455927D03*
X313963Y457927D03*
X305663Y469027D03*
X301663Y468727D03*
X301963Y477527D03*
X283490Y477627D03*
X279763D03*
X276163Y470527D03*
X276913Y460560D03*
X280063Y453866D03*
X282383Y451327D03*
X282263Y446527D03*
X285363Y446427D03*
X284763Y441927D03*
X285813Y438827D03*
X278463Y440827D03*
X273963Y441727D03*
X271463Y439827D03*
X267814Y438478D03*
X264563Y438327D03*
X270463Y447927D03*
X270763Y451027D03*
X271063Y454127D03*
X262063Y452527D03*
X261812Y461326D03*
X257863Y460927D03*
X248563Y458927D03*
X245463D03*
X242763Y460727D03*
X244263Y463627D03*
X247363D03*
X248263Y471427D03*
X256963Y472127D03*
X257763Y477027D03*
X264763Y473227D03*
X269763Y478627D03*
X268963Y465127D03*
X288363Y467927D03*
X289121Y461354D03*
X295063Y459027D03*
X285263Y454827D03*
X294863Y442327D03*
X308163Y439027D03*
X325063Y448727D03*
X246587Y452288D03*
X241263Y454027D03*
X238672Y452288D03*
X234663Y455027D03*
X235147Y460927D03*
X233463Y463627D03*
Y466727D03*
X235463Y477127D03*
X228691Y478227D03*
X220763Y477127D03*
X218063Y479227D03*
X213563Y477627D03*
X209263Y469127D03*
X216663Y464127D03*
X221863Y463245D03*
X220463Y460027D03*
X208763Y456727D03*
X199363Y458427D03*
Y454527D03*
X198250Y464790D03*
X200263Y478427D03*
X198703Y531017D03*
X202363Y531227D03*
X192663Y531027D03*
X185163D03*
X177963D03*
X221163D03*
X224663D03*
X235763Y531227D03*
X239363Y530727D03*
X258073Y531427D03*
X261863D03*
X272663Y531027D03*
X278763Y530927D03*
X282063D03*
X300802Y530878D03*
X304490Y530827D03*
X315502Y530778D03*
X242663Y442627D03*
X239663Y429927D03*
X229071Y450550D03*
X181963Y440427D03*
X178063Y435131D03*
X172363Y465227D03*
X154063Y465127D03*
X143963D03*
X134363Y464427D03*
X134263Y468927D03*
X126563Y467827D03*
X128263Y476927D03*
X124545Y476980D03*
X135363Y477027D03*
X146463Y477527D03*
X153736Y477227D03*
X113653Y477517D03*
X94627Y477791D03*
X90063Y477427D03*
X78990Y477455D03*
X47713Y469527D03*
X48063Y466427D03*
X47563Y461327D03*
X45763Y456827D03*
X40771Y456229D03*
X41700Y459200D03*
X36163Y452227D03*
X32963Y451627D03*
X27063Y447127D03*
X26100Y444100D03*
X28163Y441727D03*
X25510Y439966D03*
X25463Y454827D03*
X22853Y459353D03*
X32363Y465827D03*
X35663Y466327D03*
X33763Y468827D03*
X32909Y472804D03*
X42800Y474101D03*
X43063Y470927D03*
X40663Y485527D03*
X40063Y491427D03*
X40963Y500027D03*
X25763Y486078D03*
X22063Y481627D03*
X45241Y531406D03*
X115623Y530895D03*
X121963Y531327D03*
X137263Y530927D03*
X144463Y531627D03*
X155563Y531127D03*
X159263D03*
X131963Y445527D03*
X12063Y483327D03*
G54D11*
X7000Y44001D03*
X15248Y44197D03*
X12792Y39157D03*
X15445Y56304D03*
X7000Y64000D03*
Y84001D03*
X15912Y94302D03*
X21744Y50201D03*
X28043Y44197D03*
X20760Y37406D03*
X52416Y14274D03*
X47000Y7500D03*
X67000D03*
X87000D03*
X107000D03*
X106291Y23036D03*
X106094Y35733D03*
X100090Y41653D03*
X97433Y50004D03*
X104988Y62868D03*
X111930Y62791D03*
X111306Y59359D03*
X115440Y58735D03*
X116626Y40457D03*
X112689Y41540D03*
X116532Y26776D03*
X123319Y30024D03*
X99992Y29827D03*
X86212Y61520D03*
X70844Y65936D03*
Y71743D03*
Y78337D03*
Y84538D03*
X57855D03*
Y78337D03*
Y71743D03*
Y65736D03*
X139787D03*
Y71743D03*
Y78337D03*
Y84538D03*
X152775D03*
Y78337D03*
Y71743D03*
Y65936D03*
X167315Y62504D03*
X167000Y7500D03*
X147000D03*
X127000D03*
X187000D03*
X185917Y23134D03*
X180208Y29729D03*
X185974Y36126D03*
X192512Y32682D03*
X192315Y42277D03*
X199134Y38784D03*
Y26481D03*
X207000Y7500D03*
X227000D03*
X247000D03*
X267000D03*
X268201Y23430D03*
Y35733D03*
X274893Y32947D03*
X274992Y41737D03*
X280799Y38784D03*
X280602Y26875D03*
X262000Y29827D03*
X262393Y41730D03*
X259835Y51382D03*
X268632Y62791D03*
X273482Y62652D03*
X272858Y59220D03*
X276992Y58596D03*
X248220Y62012D03*
X234745Y65336D03*
Y71143D03*
Y77738D03*
Y83938D03*
X221756D03*
Y77738D03*
Y71143D03*
Y65136D03*
X191192Y63797D03*
X190568Y60365D03*
X194702Y59741D03*
X186888Y64039D03*
X177945Y51087D03*
X179913Y42426D03*
X287000Y7500D03*
X307000D03*
X316724Y14473D03*
X327000Y7500D03*
X316030Y65936D03*
Y71743D03*
Y78337D03*
Y84538D03*
X303041D03*
Y78337D03*
Y71743D03*
Y65736D03*
X350220Y61777D03*
X349106Y47642D03*
X342512Y51579D03*
X343201Y41835D03*
X355012Y41540D03*
X360819Y45674D03*
X367905Y36422D03*
X349303Y35339D03*
X367000Y7500D03*
X383161Y14473D03*
X397000Y7500D03*
X417000D03*
X437000D03*
X457000D03*
X477000D03*
X450681Y30418D03*
X443976Y26284D03*
X437393Y32288D03*
X437295Y42524D03*
X443976Y39079D03*
X430738Y36028D03*
X424401Y30123D03*
Y42327D03*
X422138Y50161D03*
X411803Y62406D03*
X397797Y65936D03*
Y71743D03*
Y78337D03*
Y84538D03*
X384808D03*
Y78337D03*
Y71743D03*
Y65736D03*
X432276Y66066D03*
X435826Y63587D03*
X435202Y60155D03*
X439336Y59531D03*
X466653Y65736D03*
Y71743D03*
Y78337D03*
Y84538D03*
X479642D03*
Y78337D03*
Y71743D03*
Y65936D03*
X430504Y23823D03*
X506685Y29434D03*
X506882Y41245D03*
X512492Y35634D03*
X518890Y30319D03*
X525018Y25497D03*
X531094Y30812D03*
X518791Y41245D03*
X517102Y59297D03*
X517726Y62729D03*
X514098Y64974D03*
X521236Y58673D03*
X503830Y50300D03*
X489559Y57780D03*
X512689Y23430D03*
X517000Y7500D03*
X497000D03*
X537000D03*
X557000D03*
X577000D03*
X597000D03*
X593992Y23430D03*
X599598Y30319D03*
X605307Y25497D03*
X605504Y37898D03*
X600287Y41343D03*
X593988Y36126D03*
X588181Y41807D03*
X585523Y50103D03*
X575976Y62406D03*
X570169Y56993D03*
X561059Y65936D03*
Y71743D03*
Y78337D03*
Y84538D03*
X548070D03*
Y78337D03*
Y71743D03*
Y65736D03*
X595140Y63493D03*
X599080Y62807D03*
X598456Y59375D03*
X602590Y58751D03*
X629221Y65736D03*
Y71743D03*
Y78337D03*
Y84538D03*
X642210D03*
Y78337D03*
Y71743D03*
Y65936D03*
X637000Y7500D03*
X617000D03*
X612098Y31697D03*
X675976Y29827D03*
X681882Y36347D03*
X675779Y43705D03*
X682275Y50595D03*
X675681Y57386D03*
X676626Y74419D03*
X690822Y88459D03*
X716301Y88693D03*
X729354Y88666D03*
X741000Y94001D03*
Y74001D03*
Y54001D03*
Y34000D03*
X717000Y7500D03*
X697000D03*
X677000D03*
X675090Y14742D03*
X657000Y7500D03*
X688194Y28704D03*
X691914Y102733D03*
X694020Y111703D03*
X691368Y122311D03*
X687858Y124807D03*
X687780Y127615D03*
Y130267D03*
X694878Y130345D03*
X694722Y134167D03*
X698466Y134011D03*
X690744Y134635D03*
X694956Y126133D03*
X687546Y119191D03*
X682164Y119249D03*
X676468Y122249D03*
X675924Y140875D03*
X676704Y146569D03*
X682320D03*
X683436Y158939D03*
X676884Y158081D03*
X676572Y170795D03*
X683202Y168611D03*
X686166Y181013D03*
X692484Y177971D03*
X697632Y180935D03*
X709254Y180467D03*
X709722Y172121D03*
X710268Y163697D03*
X717132Y161903D03*
X718668Y145867D03*
X710712Y145945D03*
X706524Y151295D03*
X702702Y157613D03*
X697164Y152621D03*
X699402Y145555D03*
X706290Y132419D03*
X711024Y134323D03*
X711336Y127849D03*
X716952Y122701D03*
X721866Y124417D03*
X724440Y118333D03*
X725610Y111703D03*
X716871Y103392D03*
X719760Y134089D03*
X725298D03*
X724752Y140719D03*
X738402Y140251D03*
Y143449D03*
X738480Y146413D03*
X741000Y154000D03*
X736632Y158081D03*
X741000Y174001D03*
Y194001D03*
Y214000D03*
Y234000D03*
X736710Y236003D03*
X741000Y254001D03*
X721188Y250823D03*
X707226Y256673D03*
X701532D03*
X692328D03*
X681096D03*
X680940Y248951D03*
X682110Y237797D03*
X682344Y233741D03*
X682266Y229763D03*
X678600Y236237D03*
X688662Y243023D03*
X692484D03*
X696150D03*
X702234Y237329D03*
Y233663D03*
Y229529D03*
X695994Y224147D03*
X692406Y224069D03*
X689052D03*
X692484Y214605D03*
X692406Y210705D03*
X683124Y207897D03*
X681486Y201345D03*
X681096Y191673D03*
X692328D03*
X701532D03*
X707226D03*
X715572Y191231D03*
X707382Y201345D03*
X701922D03*
X703794Y207897D03*
X701298Y214605D03*
X706368D03*
X713466Y217907D03*
X679848Y220091D03*
X680628Y214605D03*
X668956Y213153D03*
Y210053D03*
X663457Y206653D03*
X663356Y203353D03*
X663457Y200053D03*
X667556Y192653D03*
X667668Y188453D03*
Y185474D03*
X661664Y184489D03*
X658317Y184470D03*
X659400Y180435D03*
Y175907D03*
X664258Y178073D03*
X663289Y170808D03*
X668215Y171601D03*
X670375Y174548D03*
X659253Y168938D03*
X656301Y170808D03*
X652313D03*
X649361Y168938D03*
X645325Y170808D03*
X642256Y173953D03*
X644356Y178073D03*
X649214Y175907D03*
Y180435D03*
X650297Y184470D03*
X646950Y184489D03*
Y156536D03*
X649214Y152297D03*
Y147770D03*
X654332Y147973D03*
Y152501D03*
X659400Y152482D03*
X659253Y140985D03*
X654332Y143248D03*
Y137343D03*
X649361Y140800D03*
X645325Y142670D03*
X692484Y159173D03*
X701922Y168767D03*
X738480Y135571D03*
X738402Y132295D03*
X738558Y129253D03*
X738870Y124651D03*
X738948Y121843D03*
X737544Y117631D03*
X659256Y211153D03*
X655657Y211053D03*
X650957Y220953D03*
X649440Y224608D03*
X645756Y218053D03*
X655562Y232876D03*
X655719Y237738D03*
X661357Y240453D03*
X660680Y244786D03*
X657038Y244884D03*
X657924Y249313D03*
X654282Y249412D03*
X655907Y257520D03*
X659549D03*
X663556Y228553D03*
X668160Y220349D03*
X642156Y217453D03*
X636832Y215588D03*
X640357Y211953D03*
X636657Y203453D03*
X638657Y199053D03*
X629756Y203453D03*
X626387Y211653D03*
X629521Y215588D03*
X624157Y217153D03*
X620621Y218801D03*
X616389Y221262D03*
X616026Y224918D03*
X604357Y228553D03*
X599755Y233368D03*
X601144Y243910D03*
X601330Y249018D03*
X596941Y255516D03*
X578249Y257520D03*
X574607D03*
X572982Y249412D03*
X576624Y249313D03*
X575738Y244884D03*
X579380Y244786D03*
X580056Y240453D03*
X574420Y237738D03*
X574262Y232876D03*
X582257Y228553D03*
X586861Y220349D03*
X587656Y213153D03*
Y210053D03*
X582156Y206653D03*
X582057Y203353D03*
X582156Y200053D03*
X586256Y192653D03*
X586368Y188453D03*
Y185474D03*
X580364Y184489D03*
X577017Y184470D03*
X578100Y180435D03*
Y175907D03*
X582958Y178073D03*
X581989Y170808D03*
X586915Y171601D03*
X589075Y174548D03*
X600101Y170814D03*
X598230Y167363D03*
X595116Y158971D03*
X611965Y152482D03*
Y147955D03*
X617033Y147973D03*
Y152501D03*
X622151Y152297D03*
Y147770D03*
X622005Y140800D03*
X626040Y142670D03*
X629434Y146103D03*
X629218Y134499D03*
X629221Y128298D03*
Y121704D03*
Y115696D03*
X642210Y115896D03*
Y121704D03*
Y128298D03*
X642213Y134499D03*
X641931Y146103D03*
X640454Y156536D03*
X631301Y156438D03*
X624415Y156351D03*
X622049Y169134D03*
X619052Y170623D03*
X615064Y170808D03*
X612112Y168938D03*
X611965Y175907D03*
Y180435D03*
X613048Y184470D03*
X609701Y184489D03*
X607383Y178091D03*
X603889Y179741D03*
X600936D03*
X600838Y184352D03*
X600256Y187953D03*
X596857Y197253D03*
X596656Y200753D03*
Y204153D03*
X596857Y207553D03*
X596756Y210753D03*
X607258Y211234D03*
X610877Y211124D03*
X604957Y205853D03*
X577956Y211153D03*
X574357Y211053D03*
X569656Y220953D03*
X568140Y224608D03*
X564457Y218053D03*
X560856Y217453D03*
X555532Y215588D03*
X559056Y211953D03*
X555356Y203453D03*
X557357Y199053D03*
X548456Y203453D03*
X545087Y211653D03*
X548221Y215588D03*
X542856Y217153D03*
X539321Y218801D03*
X535089Y221262D03*
X534726Y224918D03*
X523056Y228553D03*
X518455Y233368D03*
X519844Y243910D03*
X520030Y249018D03*
X516134Y254926D03*
X496949Y257520D03*
X493307D03*
X491682Y249412D03*
X495324Y249313D03*
X494438Y244884D03*
X498080Y244786D03*
X498757Y240453D03*
X493120Y237738D03*
X492962Y232876D03*
X500957Y228553D03*
X505560Y220349D03*
X506357Y213153D03*
Y210053D03*
X500856Y206653D03*
X500757Y203353D03*
X500856Y200053D03*
X504956Y192653D03*
X505068Y188453D03*
Y185474D03*
X499064Y184489D03*
X495717Y184470D03*
X496800Y180435D03*
Y175907D03*
X501658Y178073D03*
X500689Y170808D03*
X505615Y171601D03*
X507775Y174548D03*
X518801Y170814D03*
X516930Y167363D03*
X513762Y159127D03*
X530665Y152482D03*
Y147955D03*
X535733Y147973D03*
Y152501D03*
X540851Y152297D03*
Y147770D03*
X540705Y140800D03*
X544740Y142670D03*
X548135Y146103D03*
X548067Y134499D03*
X548070Y128298D03*
Y121704D03*
Y115696D03*
X561059Y115896D03*
Y121704D03*
Y128298D03*
X561062Y134499D03*
X564025Y142670D03*
X568061Y140800D03*
X567914Y147770D03*
Y152297D03*
X573032Y152501D03*
Y147973D03*
Y143248D03*
Y137343D03*
X577953Y140985D03*
X578100Y152482D03*
X565650Y156536D03*
X559154D03*
X550001Y156438D03*
X543115Y156351D03*
X540749Y169134D03*
X537752Y170623D03*
X533764Y170808D03*
X530812Y168938D03*
X530665Y175907D03*
Y180435D03*
X531748Y184470D03*
X528401Y184489D03*
X526083Y178091D03*
X522589Y179741D03*
X519636D03*
X519538Y184352D03*
X518956Y187953D03*
X515557Y197253D03*
X515356Y200753D03*
Y204153D03*
X515557Y207553D03*
X515456Y210753D03*
X525958Y211234D03*
X529577Y211124D03*
X523657Y205853D03*
X496657Y211153D03*
X493057Y211053D03*
X488356Y220953D03*
X486840Y224608D03*
X487697Y184470D03*
X486614Y180435D03*
Y175907D03*
X486760Y168938D03*
X489713Y170808D03*
X493701D03*
X496653Y168938D03*
X496800Y152482D03*
X491732Y152501D03*
Y147973D03*
Y143248D03*
Y137343D03*
X486760Y140800D03*
X486614Y147770D03*
Y152297D03*
X496653Y140985D03*
X530812D03*
X535733Y143248D03*
Y137343D03*
X560631Y146103D03*
X556300Y163130D03*
X552855D03*
X554557Y169823D03*
Y172481D03*
X554430Y176602D03*
Y179370D03*
X552757Y181553D03*
X558757Y185753D03*
X565650Y184489D03*
X568997Y184470D03*
X567914Y180435D03*
Y175907D03*
X563056Y178073D03*
X560956Y173953D03*
X559556Y170553D03*
X564025Y170808D03*
X568061Y168938D03*
X571013Y170808D03*
X575001D03*
X577953Y168938D03*
X549057Y170053D03*
X544740Y170623D03*
X547856Y174353D03*
X545709Y177888D03*
X540851Y175723D03*
Y180250D03*
X539768Y184286D03*
X543115Y184304D03*
X530660Y241242D03*
X611960D03*
X621068Y184286D03*
X624415Y184304D03*
X622151Y180250D03*
Y175723D03*
X627009Y177888D03*
X629157Y174353D03*
X630356Y170053D03*
X626040Y170623D03*
X635857Y169823D03*
Y172481D03*
X635730Y176602D03*
Y179370D03*
X634056Y181553D03*
X640056Y185753D03*
X640857Y170553D03*
X637600Y163130D03*
X634155D03*
X617033Y143248D03*
Y137343D03*
X612112Y140985D03*
X482725Y142670D03*
X479331Y146103D03*
X477854Y156536D03*
X484350D03*
X468701Y156438D03*
X461815Y156351D03*
X459551Y152297D03*
Y147770D03*
X454433Y147973D03*
Y152501D03*
X449365Y152482D03*
Y147955D03*
X449512Y140985D03*
X454433Y143248D03*
Y137343D03*
X459405Y140800D03*
X463440Y142670D03*
X466834Y146103D03*
X466650Y134499D03*
X466653Y128298D03*
Y121704D03*
Y115696D03*
X479642Y115896D03*
Y121704D03*
Y128298D03*
X479646Y134499D03*
X475000Y163130D03*
X471555D03*
X473256Y169823D03*
Y172481D03*
X473130Y176602D03*
Y179370D03*
X471457Y181553D03*
X477456Y185753D03*
X484350Y184489D03*
X481756Y178073D03*
X479656Y173953D03*
X478257Y170553D03*
X482725Y170808D03*
X467756Y170053D03*
X463440Y170623D03*
X459449Y169134D03*
X456452Y170623D03*
X452464Y170808D03*
X449512Y168938D03*
X449365Y175907D03*
Y180435D03*
X450448Y184470D03*
X447101Y184489D03*
X444783Y178091D03*
X441289Y179741D03*
X438336D03*
X438238Y184352D03*
X437656Y187953D03*
X434256Y197253D03*
X434056Y200753D03*
Y204153D03*
X434256Y207553D03*
X434157Y210753D03*
X424301Y209755D03*
Y212855D03*
X423505Y220052D03*
X418901Y228256D03*
X410907Y232578D03*
X411064Y237441D03*
X416701Y240155D03*
X416025Y244488D03*
X412383Y244586D03*
X413269Y249015D03*
X409627Y249114D03*
X438730Y249018D03*
X438544Y243910D03*
X437155Y233368D03*
X441757Y228553D03*
X453426Y224918D03*
X453789Y221262D03*
X458021Y218801D03*
X461556Y217153D03*
X466921Y215588D03*
X463787Y211653D03*
X467156Y203453D03*
X474056D03*
X476057Y199053D03*
X477757Y211953D03*
X474232Y215588D03*
X479557Y217453D03*
X483157Y218053D03*
X448277Y211124D03*
X444658Y211234D03*
X442357Y205853D03*
X418801Y206355D03*
X418701Y203056D03*
X418801Y199756D03*
X422901Y192356D03*
X423012Y188156D03*
Y185177D03*
X417008Y184191D03*
X413662Y184173D03*
X414744Y180137D03*
Y175610D03*
X419602Y177775D03*
X418633Y170510D03*
X423559Y171304D03*
X425720Y174250D03*
X437501Y170814D03*
X435630Y167363D03*
X432174Y158815D03*
X414744Y152185D03*
X409677Y152203D03*
Y147675D03*
Y142951D03*
Y137045D03*
X404705Y140502D03*
X400670Y142372D03*
X397275Y145805D03*
X404558Y147472D03*
Y152000D03*
X402295Y156238D03*
X395799D03*
X386645Y156140D03*
X379759Y156053D03*
X377496Y152000D03*
Y147472D03*
X372377Y147675D03*
Y152203D03*
X367310Y152185D03*
Y147657D03*
X367456Y140687D03*
X372377Y142951D03*
Y137045D03*
X377349Y140502D03*
X381384Y142372D03*
X384779Y145805D03*
X384804Y134499D03*
X384808Y128298D03*
Y121704D03*
Y115696D03*
X397797Y115896D03*
Y121704D03*
Y128298D03*
X397800Y134499D03*
X414598Y140687D03*
Y168640D03*
X411645Y170510D03*
X407658D03*
X404705Y168640D03*
X400670Y170510D03*
X396201Y170255D03*
X397601Y173655D03*
X399701Y177775D03*
X404558Y175610D03*
Y180137D03*
X405641Y184173D03*
X402295Y184191D03*
X395401Y185456D03*
X389401Y181256D03*
X391074Y179073D03*
Y176304D03*
X391201Y172183D03*
Y169526D03*
X385701Y169756D03*
X381384Y170325D03*
X377393Y168837D03*
X374396Y170325D03*
X370409Y170510D03*
X367456Y168640D03*
X367310Y175610D03*
Y180137D03*
X368392Y184173D03*
X365046Y184191D03*
X362728Y177793D03*
X359233Y179443D03*
X356280D03*
X356182Y184055D03*
X355601Y187656D03*
X352201Y196956D03*
X352001Y200455D03*
Y203856D03*
X352201Y207256D03*
X352101Y210456D03*
X342774Y210053D03*
Y213153D03*
X341978Y220349D03*
X337374Y228553D03*
X335174Y240453D03*
X334498Y244786D03*
X330856Y244884D03*
X331742Y249313D03*
X348122Y246363D03*
X356674Y248720D03*
X356488Y243613D03*
X355099Y233070D03*
X359701Y228256D03*
X371371Y224620D03*
X371733Y220964D03*
X375966Y218503D03*
X379501Y216856D03*
X384866Y215290D03*
X381732Y211356D03*
X385101Y203155D03*
X392001D03*
X394001Y198756D03*
X395701Y211655D03*
X392177Y215290D03*
X397501Y217155D03*
X401101Y217756D03*
X406301Y220656D03*
X404784Y224311D03*
X411001Y210756D03*
X414601Y210856D03*
X366221Y210826D03*
X362602Y210936D03*
X360301Y205555D03*
X337274Y206653D03*
X337174Y203353D03*
X337274Y200053D03*
X341374Y192653D03*
X341485Y188453D03*
Y185474D03*
X335481Y184489D03*
X332135Y184470D03*
X333217Y180435D03*
Y175907D03*
X338075Y178073D03*
X337106Y170808D03*
X342032Y171601D03*
X344193Y174548D03*
X355446Y170516D03*
X353574Y167065D03*
X350610Y157873D03*
X350454Y155064D03*
X350376Y152257D03*
X333217Y152482D03*
X333071Y140985D03*
Y168938D03*
X330118Y170808D03*
X333074Y211153D03*
X367304Y240944D03*
X376413Y183988D03*
X379759Y184006D03*
X377496Y179952D03*
Y175425D03*
X382353Y177590D03*
X384501Y174055D03*
X389499Y162833D03*
X392944D03*
X361296Y124488D03*
X359112Y126360D03*
X356909Y128563D03*
X459551Y175723D03*
Y180250D03*
X458468Y184286D03*
X461815Y184304D03*
X464409Y177888D03*
X466557Y174353D03*
X449360Y241242D03*
X434638Y255418D03*
X328100Y249412D03*
X329537Y237738D03*
X329379Y232876D03*
X323257Y224608D03*
X324774Y220953D03*
X319574Y218053D03*
X315974Y217453D03*
X310650Y215588D03*
X314174Y211953D03*
X310474Y203453D03*
X312474Y199053D03*
X303574Y203453D03*
X300205Y211653D03*
X303338Y215588D03*
X297974Y217153D03*
X294438Y218801D03*
X290206Y221262D03*
X289844Y224918D03*
X278174Y228553D03*
X273572Y233368D03*
X274961Y243910D03*
X275147Y249018D03*
X267413Y247150D03*
X252442Y244881D03*
X248800Y244980D03*
X249686Y249409D03*
X246044Y249507D03*
X247481Y237834D03*
X247324Y232972D03*
X255318Y228649D03*
X259922Y220445D03*
X260718Y213249D03*
Y210149D03*
X255218Y206749D03*
X255118Y203449D03*
X255218Y200149D03*
X259318Y192749D03*
X259429Y188549D03*
Y185570D03*
X253425Y184585D03*
X250079Y184566D03*
X251162Y180531D03*
Y176003D03*
X256019Y178169D03*
X255051Y170904D03*
X259977Y171697D03*
X262137Y174644D03*
X273919Y170814D03*
X272047Y167363D03*
X268374Y158893D03*
X251162Y152578D03*
X246094Y152596D03*
Y148069D03*
Y143344D03*
Y137439D03*
X241122Y140896D03*
X237087Y142766D03*
X233692Y146199D03*
X240976Y147866D03*
Y152393D03*
X238712Y156632D03*
X232216D03*
X223062Y156533D03*
X216177Y156447D03*
X213913Y152393D03*
Y147866D03*
X208795Y148069D03*
Y152596D03*
X203727Y152578D03*
Y148051D03*
X203873Y141081D03*
X208795Y143344D03*
Y137439D03*
X213766Y140896D03*
X217802Y142766D03*
X221196Y146199D03*
X221153Y134499D03*
X221156Y128298D03*
Y121704D03*
Y115696D03*
X234145Y115896D03*
Y121704D03*
Y128298D03*
X234148Y134499D03*
X251015Y141081D03*
Y169033D03*
X248062Y170904D03*
X244075D03*
X241122Y169033D03*
X237087Y170904D03*
X232618Y170649D03*
X234018Y174049D03*
X236118Y178169D03*
X240976Y176003D03*
Y180531D03*
X242058Y184566D03*
X238712Y184585D03*
X231818Y185849D03*
X225818Y181649D03*
X227492Y179466D03*
Y176698D03*
X227618Y172577D03*
Y169919D03*
X222118Y170149D03*
X217802Y170718D03*
X213810Y169230D03*
X210814Y170718D03*
X206826Y170904D03*
X203873Y169033D03*
X203727Y176003D03*
Y180531D03*
X204810Y184566D03*
X201463Y184585D03*
X199145Y178187D03*
X195651Y179836D03*
X192698D03*
X192599Y184448D03*
X192018Y188049D03*
X188618Y197349D03*
X188418Y200849D03*
Y204249D03*
X188618Y207649D03*
X188518Y210849D03*
X179191Y210053D03*
Y213153D03*
X178395Y220349D03*
X173791Y228553D03*
X173691Y206653D03*
X173591Y203353D03*
X173691Y200053D03*
X177791Y192653D03*
X177902Y188453D03*
Y185474D03*
X174492Y178073D03*
X173524Y170808D03*
X178449Y171601D03*
X180610Y174548D03*
X191863Y170910D03*
X189992Y167459D03*
X186864Y158971D03*
X225917Y163226D03*
X229362D03*
X220918Y174449D03*
X218771Y177984D03*
X213913Y175819D03*
Y180346D03*
X212830Y184382D03*
X216177Y184400D03*
X221518Y203549D03*
X228418D03*
X230418Y199149D03*
X232118Y212049D03*
X228594Y215684D03*
X233918Y217549D03*
X237518Y218149D03*
X242718Y221049D03*
X241202Y224704D03*
X247418Y211149D03*
X251018Y211249D03*
X270574Y210753D03*
X270674Y207553D03*
X270474Y204153D03*
Y200753D03*
X270674Y197253D03*
X274074Y187953D03*
X274655Y184352D03*
X274753Y179741D03*
X277706D03*
X281201Y178091D03*
X285783Y175907D03*
Y180435D03*
X286865Y184470D03*
X283519Y184489D03*
X294886Y184286D03*
X298232Y184304D03*
X295968Y180250D03*
Y175723D03*
X295866Y169134D03*
X292869Y170623D03*
X288882Y170808D03*
X285929Y168938D03*
X299857Y170623D03*
X304174Y170053D03*
X302974Y174353D03*
X300826Y177888D03*
X309547Y176602D03*
Y179370D03*
X307874Y181553D03*
X313874Y185753D03*
X320768Y184489D03*
X324114Y184470D03*
X323031Y180435D03*
Y175907D03*
X318174Y178073D03*
X316074Y173953D03*
X314674Y170553D03*
X319142Y170808D03*
X323178Y168938D03*
X326131Y170808D03*
X309674Y169823D03*
Y172481D03*
X307972Y163130D03*
X311417D03*
X314271Y156536D03*
X320768D03*
X323031Y152297D03*
Y147770D03*
X328150Y147973D03*
Y152501D03*
Y143248D03*
Y137343D03*
X323178Y140800D03*
X319142Y142670D03*
X315748Y146103D03*
X316033Y134499D03*
X316030Y128298D03*
Y121704D03*
Y115896D03*
X303041Y115696D03*
Y121704D03*
Y128298D03*
X303037Y134499D03*
X299857Y142670D03*
X295822Y140800D03*
X295968Y147770D03*
Y152297D03*
X290850Y152501D03*
Y147973D03*
Y143248D03*
Y137343D03*
X285929Y140985D03*
X285783Y147955D03*
Y152482D03*
X298232Y156351D03*
X305118Y156438D03*
X303252Y146103D03*
X284694Y211124D03*
X281075Y211234D03*
X278774Y205853D03*
X285777Y241242D03*
X253118Y240549D03*
X203721Y241338D03*
X192906Y244006D03*
X193092Y249114D03*
X185720Y247347D03*
X191517Y233464D03*
X196118Y228649D03*
X207788Y225014D03*
X208151Y221358D03*
X212383Y218897D03*
X215918Y217249D03*
X221283Y215684D03*
X218149Y211749D03*
X202639Y211220D03*
X199019Y211330D03*
X196718Y205949D03*
X329474Y211053D03*
X169491Y211153D03*
X165891Y211053D03*
X161191Y220953D03*
X159675Y224608D03*
X155991Y218053D03*
X152391Y217453D03*
X147067Y215588D03*
X150591Y211953D03*
X146891Y203453D03*
X148891Y199053D03*
X139991Y203453D03*
X136622Y211653D03*
X139756Y215588D03*
X134391Y217153D03*
X130856Y218801D03*
X126623Y221262D03*
X126261Y224918D03*
X114591Y228553D03*
X109990Y233368D03*
X111378Y243910D03*
X111564Y249018D03*
X106000Y252300D03*
X102775Y245228D03*
X89123Y244786D03*
X85482Y244884D03*
X86368Y249313D03*
X82726Y249412D03*
X84163Y237738D03*
X84005Y232876D03*
X92000Y228553D03*
X96604Y220349D03*
X97400Y213153D03*
Y210053D03*
X91900Y206653D03*
X91800Y203353D03*
X91900Y200053D03*
X96000Y192653D03*
X96111Y188453D03*
Y185474D03*
X90107Y184489D03*
X86761Y184470D03*
X87843Y180435D03*
Y175907D03*
X92701Y178073D03*
X91732Y170808D03*
X96658Y171601D03*
X98819Y174548D03*
X110336Y170814D03*
X108464Y167363D03*
X105276Y158815D03*
X122200Y152482D03*
Y147955D03*
X127268Y147973D03*
Y152501D03*
X132386Y152297D03*
Y147770D03*
X132239Y140800D03*
X136275Y142670D03*
X139669Y146103D03*
X139783Y134499D03*
X139787Y128298D03*
Y121704D03*
Y115696D03*
X152775Y115896D03*
Y121704D03*
Y128298D03*
X152779Y134499D03*
X155560Y142670D03*
X159595Y140800D03*
X159449Y147770D03*
Y152297D03*
X164567Y152501D03*
Y147973D03*
Y143248D03*
Y137343D03*
X169488Y140985D03*
X169634Y152482D03*
X157185Y156536D03*
X150689D03*
X141535Y156438D03*
X134650Y156351D03*
X132283Y169134D03*
X129286Y170623D03*
X125299Y170808D03*
X122346Y168938D03*
X122200Y175907D03*
Y180435D03*
X123282Y184470D03*
X119936Y184489D03*
X117618Y178091D03*
X114123Y179741D03*
X111171D03*
X111072Y184352D03*
X110491Y187953D03*
X107091Y197253D03*
X106891Y200753D03*
Y204153D03*
X107091Y207553D03*
X106991Y210753D03*
X117492Y211234D03*
X121112Y211124D03*
X115191Y205853D03*
X87700Y211153D03*
X84100Y211053D03*
X79400Y220953D03*
X77883Y224608D03*
X74200Y218053D03*
X70600Y217453D03*
X65276Y215588D03*
X68800Y211953D03*
X65100Y203453D03*
X67100Y199053D03*
X58200Y203453D03*
X54831Y211653D03*
X57964Y215588D03*
X52600Y217153D03*
X49064Y218801D03*
X44832Y221262D03*
X44470Y224918D03*
X32800Y228553D03*
X28198Y233368D03*
X22017Y233519D03*
X19289Y230284D03*
X24234Y223711D03*
X25200Y210753D03*
X25300Y207553D03*
X25100Y204153D03*
Y200753D03*
X25300Y197253D03*
X28700Y187953D03*
X29281Y184352D03*
X29379Y179741D03*
X32332D03*
X35827Y178091D03*
X40409Y175907D03*
Y180435D03*
X41491Y184470D03*
X38145Y184489D03*
X49512Y184286D03*
X52858Y184304D03*
X50594Y180250D03*
Y175723D03*
X50492Y169134D03*
X47495Y170623D03*
X43508Y170808D03*
X40555Y168938D03*
X28545Y170814D03*
X26673Y167363D03*
X40409Y152482D03*
Y147955D03*
X45476Y147973D03*
Y152501D03*
X50594Y152297D03*
Y147770D03*
X50448Y140800D03*
X54483Y142670D03*
X57878Y146103D03*
X57852Y134499D03*
X57855Y128298D03*
Y121704D03*
Y115696D03*
X70844Y115896D03*
Y121704D03*
Y128298D03*
X70848Y134499D03*
X73768Y142670D03*
X77804Y140800D03*
X77657Y147770D03*
Y152297D03*
X82775Y152501D03*
Y147973D03*
Y143248D03*
Y137343D03*
X87697Y140985D03*
X87843Y152482D03*
X75393Y156536D03*
X68897D03*
X59744Y156438D03*
X52858Y156351D03*
X54483Y170623D03*
X58800Y170053D03*
X57600Y174353D03*
X55452Y177888D03*
X64173Y176602D03*
Y179370D03*
X62500Y181553D03*
X68500Y185753D03*
X75393Y184489D03*
X78740Y184470D03*
X77657Y180435D03*
Y175907D03*
X72799Y178073D03*
X70700Y173953D03*
X69300Y170553D03*
X73768Y170808D03*
X77804Y168938D03*
X80757Y170808D03*
X84744D03*
X87697Y168938D03*
X64300Y169823D03*
Y172481D03*
X62598Y163130D03*
X66043D03*
X70374Y146103D03*
X45476Y143248D03*
Y137343D03*
X40555Y140985D03*
X39320Y211124D03*
X35701Y211234D03*
X33400Y205853D03*
X29587Y243910D03*
X29773Y249018D03*
X20162Y248114D03*
X17982Y244546D03*
X40403Y241242D03*
X36803Y254138D03*
X89800Y240453D03*
X122194Y241242D03*
X165954Y237738D03*
X165797Y232876D03*
X171591Y240453D03*
X170915Y244786D03*
X167273Y244884D03*
X168159Y249313D03*
X164517Y249412D03*
X166142Y257520D03*
X169763Y257027D03*
X168552Y184470D03*
X171898Y184489D03*
X169634Y180435D03*
Y175907D03*
X169488Y168938D03*
X166535Y170808D03*
X162548D03*
X159595Y168938D03*
X155560Y170808D03*
X151091Y170553D03*
X152491Y173953D03*
X154591Y178073D03*
X159449Y175907D03*
Y180435D03*
X160531Y184470D03*
X157185Y184489D03*
X150291Y185753D03*
X144291Y181553D03*
X145964Y179370D03*
Y176602D03*
X146091Y172481D03*
Y169823D03*
X140591Y170053D03*
X136275Y170623D03*
X139391Y174353D03*
X137244Y177888D03*
X132386Y175723D03*
Y180250D03*
X131303Y184286D03*
X134650Y184304D03*
X144390Y163130D03*
X147834D03*
X152165Y146103D03*
X127268Y143248D03*
X122346Y140985D03*
X7000Y144001D03*
Y124000D03*
Y104000D03*
Y164000D03*
Y184000D03*
Y204001D03*
Y224000D03*
X11488Y249939D03*
X16225Y248803D03*
X14736Y252695D03*
X7000Y266400D03*
X9800Y301553D03*
X15300Y316401D03*
X14063Y363027D03*
X9800Y359153D03*
X10352Y372579D03*
X10466Y381005D03*
X10321Y390184D03*
X10249Y399580D03*
Y408614D03*
X60864Y408173D03*
X60273Y403055D03*
X59128Y396584D03*
X81252Y398197D03*
X78363Y405456D03*
X78225Y413386D03*
X68300Y413153D03*
X109297Y413912D03*
X111063Y409127D03*
X112524Y404155D03*
X116300Y403901D03*
X107589Y403550D03*
X97163Y398027D03*
X96750Y393997D03*
X126763Y396227D03*
X134330Y396553D03*
X137211Y396519D03*
X136400Y392901D03*
X133600Y392753D03*
X138800Y384453D03*
X141200Y383001D03*
X153800Y383353D03*
X153100Y388153D03*
X156300Y388042D03*
X156473Y377520D03*
X153337Y377507D03*
X152817Y367167D03*
X156400Y367001D03*
X160363Y363827D03*
X160169Y355246D03*
X157587Y350246D03*
X153900Y350253D03*
X145008Y342446D03*
X139693Y335360D03*
X130175Y333027D03*
X122863Y336427D03*
X131163Y344927D03*
X132438Y357963D03*
X135275Y357985D03*
X130800Y361553D03*
X127760Y361548D03*
X128660Y365096D03*
X131700Y365101D03*
X130635Y373553D03*
X127594Y373548D03*
X127800Y377353D03*
X130900D03*
X134000Y407353D03*
X132900Y411253D03*
X123347Y414356D03*
X139500Y405001D03*
X153100Y401401D03*
X153697Y397766D03*
X157381Y397771D03*
X157163Y402427D03*
X162800Y404253D03*
X161891Y409129D03*
X161900Y412901D03*
X171751Y412699D03*
X171900Y408453D03*
X153000Y410975D03*
X169094Y361654D03*
X172055Y357437D03*
X173327Y350412D03*
X156019Y333411D03*
X152263Y330027D03*
X157325Y264891D03*
X160925Y265591D03*
X161811Y260473D03*
X158163Y260527D03*
X143782Y262420D03*
X140140Y262321D03*
X137149Y265025D03*
X134990Y261616D03*
X130763Y261527D03*
X86947Y259311D03*
X76378Y260571D03*
X76100Y264201D03*
X72200Y265900D03*
X60039Y265886D03*
X58348Y262321D03*
X61990Y262420D03*
X53198Y261616D03*
X31363Y270227D03*
X27618Y267414D03*
X23299Y266278D03*
X18674Y268855D03*
X22263Y304727D03*
X23700Y310853D03*
X31563Y309999D03*
Y317627D03*
X31826Y321627D03*
X41000Y320101D03*
X41400Y326201D03*
X32700Y332801D03*
X27500Y336501D03*
X30300Y345953D03*
X27963Y348827D03*
X31863Y352727D03*
X39790Y352151D03*
X43063Y356327D03*
X42860Y372241D03*
X34890Y372434D03*
X49429Y376637D03*
X50900Y341553D03*
X39371Y340901D03*
X18799Y358588D03*
X80263Y354827D03*
X66425Y323273D03*
X175763Y326327D03*
X207163Y327794D03*
X216385Y327894D03*
X216483Y330749D03*
X219928Y326024D03*
X226663Y325627D03*
X230363Y325127D03*
X216978Y319524D03*
X215963Y345027D03*
X216363Y348027D03*
X212437Y347249D03*
X208463Y347027D03*
X210363Y350327D03*
X219263Y352927D03*
X222892Y352630D03*
X222563Y361027D03*
X223038Y367592D03*
X219412Y367649D03*
X215708Y367486D03*
X211909Y367461D03*
X215719Y375591D03*
X219389Y375675D03*
X223118Y375682D03*
X219854Y387833D03*
X219657Y392951D03*
X212663Y392027D03*
X209663Y389527D03*
X212000Y385601D03*
X209618Y382715D03*
X200122Y386103D03*
X198913Y373076D03*
X192120Y378732D03*
X182775Y370020D03*
X181988Y359489D03*
X185617Y359876D03*
X190256D03*
X178092Y359102D03*
X176100Y362201D03*
X203748Y344671D03*
X220127Y345927D03*
X241963Y357627D03*
X242663Y364027D03*
X238259Y364018D03*
X239283Y374662D03*
X246323Y375042D03*
X242976Y382031D03*
X238161Y382321D03*
X236684Y395154D03*
X240326Y396789D03*
X239826Y402405D03*
X235775Y401905D03*
X237570Y407321D03*
X241170Y407449D03*
X244460Y405648D03*
X244263Y399545D03*
X244846Y394137D03*
X246225Y390102D03*
X254099Y388428D03*
X272210Y386755D03*
X277578Y383221D03*
X274572Y379963D03*
X272407Y373467D03*
X277968Y373471D03*
X277432Y364801D03*
X286586Y371789D03*
X287865Y382419D03*
X295005Y379556D03*
X297708Y373463D03*
X310208Y372971D03*
X314791Y375320D03*
X322807Y372675D03*
X323539Y381718D03*
X326110Y388706D03*
X310174Y382647D03*
X307747Y345313D03*
X293968Y336160D03*
X287252Y336738D03*
X283281Y339289D03*
X279246Y336237D03*
X275455Y327977D03*
X280673Y323874D03*
X295083Y325735D03*
X295247Y322085D03*
X292885Y314801D03*
X298440Y329643D03*
X282356Y349889D03*
X267485Y336851D03*
X262373Y336652D03*
X257944D03*
X258638Y324748D03*
X258633Y279270D03*
Y275234D03*
X254499Y279270D03*
X249571Y285963D03*
X231300Y285372D03*
Y279270D03*
X229998Y273475D03*
X225309Y262516D03*
X221667Y262417D03*
X218732Y264604D03*
X216517Y261712D03*
X239421Y260608D03*
X243022Y260598D03*
X242393Y264801D03*
X238744Y264702D03*
X248291Y265686D03*
X248077Y260569D03*
X251723Y260517D03*
X275425Y274939D03*
X286783Y273364D03*
X291114D03*
X285602Y281041D03*
X285624Y286258D03*
X273498Y289804D03*
X300787Y264508D03*
X298572Y261616D03*
X303722Y262321D03*
X307364Y262420D03*
X321842Y260339D03*
X325562Y260372D03*
X329303D03*
X328953Y266155D03*
X320563Y266027D03*
X328363Y275127D03*
X266507Y370215D03*
X263038Y372906D03*
X209561Y409133D03*
X206063Y407727D03*
X206613Y411417D03*
X201286Y412101D03*
X201274Y408183D03*
X201300Y404501D03*
X194437Y404533D03*
X194440Y408135D03*
X194437Y411816D03*
X182007Y412710D03*
X182000Y409101D03*
X337331Y381324D03*
X349043Y383096D03*
X351575Y374548D03*
X357647Y373270D03*
X361920Y370865D03*
X362495Y364324D03*
X359716Y354467D03*
X354104Y359588D03*
X347665Y357346D03*
X347468Y361680D03*
X347476Y338639D03*
X354990Y338721D03*
X371272Y346691D03*
X370861Y355648D03*
X375290Y364324D03*
X385530Y361677D03*
X383580Y359649D03*
X387480D03*
Y369649D03*
X383580D03*
X385530Y371677D03*
X386684Y377793D03*
X395444Y380254D03*
X375463Y377896D03*
X372412Y375829D03*
X364962Y380303D03*
X330933Y371088D03*
X363653Y320805D03*
X368563Y324327D03*
X383333Y326534D03*
X387233D03*
X385283Y328562D03*
X383333Y319294D03*
X387233D03*
X385283Y317266D03*
X393968Y337048D03*
X397807Y336553D03*
X400070Y340687D03*
X394854D03*
X406566Y350136D03*
X411390Y345513D03*
X421557Y345578D03*
X428220Y335963D03*
X463259Y336553D03*
X484668Y337903D03*
X485882Y329368D03*
X485412Y364850D03*
Y379850D03*
Y384850D03*
X483249Y393449D03*
X474812Y404950D03*
X476055Y407450D03*
X466838Y407527D03*
X460863Y413027D03*
X443673Y413719D03*
X438653Y411848D03*
X432649Y408108D03*
X422708Y397971D03*
X418279D03*
X411291Y399053D03*
X409913Y393837D03*
X412373Y388719D03*
X406580Y402611D03*
X452039Y395116D03*
X457846Y395313D03*
X462177Y387045D03*
X448692Y380942D03*
X420427Y305327D03*
X406814Y304911D03*
X401686Y304802D03*
X402491Y264604D03*
X406035Y265293D03*
X406850Y260176D03*
X403220Y260214D03*
X411950Y260176D03*
X415550Y260126D03*
X427433Y265785D03*
X462155Y261616D03*
X467305Y262321D03*
X470947Y262420D03*
X468996Y265886D03*
X484547Y264902D03*
X485335Y260571D03*
X388891Y262122D03*
X385249Y262024D03*
X382314Y264211D03*
X380099Y261318D03*
X330260Y281357D03*
X488090Y265591D03*
X488976Y260473D03*
X507363Y266627D03*
X508239Y301317D03*
X505287D03*
X502334D03*
X499184D03*
X510973Y303027D03*
X511291Y306829D03*
X510531Y320079D03*
X505412Y349850D03*
X498342D03*
X492098Y351908D03*
X487078Y351809D03*
X490113Y347375D03*
X490412Y364850D03*
X495492D03*
X500412D03*
X505412D03*
X510412Y364650D03*
X515412D03*
X520412Y364450D03*
Y369850D03*
Y374850D03*
X526180Y381275D03*
X529231Y393775D03*
X542235Y395153D03*
X546259Y395055D03*
X549212D03*
X552164D03*
X555117D03*
X557952Y395023D03*
X554712Y390650D03*
X549812Y390550D03*
X562570Y388423D03*
Y382149D03*
X563112Y375750D03*
X566691Y378351D03*
X566591Y391351D03*
X570391Y391251D03*
X576480Y395843D03*
X586177Y395055D03*
X590102D03*
X593055D03*
X596008D03*
X598961D03*
X601913D03*
X598911Y390651D03*
X593611Y390751D03*
X607111Y382350D03*
Y375751D03*
Y366651D03*
X602912Y364850D03*
X597912D03*
X592912D03*
X587912D03*
X582912D03*
X577912D03*
X572912D03*
X563112Y366650D03*
X557912Y364850D03*
X552912D03*
X547912D03*
X542912D03*
X537912D03*
X532912D03*
X527912D03*
X520412Y357350D03*
Y349850D03*
X529598Y351120D03*
X534617Y351219D03*
X542517Y349850D03*
X547912D03*
Y356776D03*
X540412D03*
X555412Y356450D03*
Y349565D03*
X564342Y354467D03*
X562812Y358150D03*
X574086Y351514D03*
X578121Y351415D03*
X582912Y349850D03*
Y357350D03*
X590412D03*
X597912D03*
Y349850D03*
X602912Y347350D03*
X601766Y341303D03*
X609135Y345278D03*
X614328Y343487D03*
X619710Y343409D03*
X626184Y343331D03*
X635039Y342422D03*
X640650D03*
X637494Y333035D03*
X635466Y326405D03*
X628446Y335219D03*
X620724Y333815D03*
X611364Y336077D03*
X610218Y326477D03*
Y321309D03*
X613466D03*
X616813D03*
X620061D03*
X624468Y314393D03*
X624780Y300275D03*
X626184Y294581D03*
X615498Y293957D03*
X605826Y294113D03*
X606138Y300587D03*
X600394Y306004D03*
X592299Y301646D03*
X591973Y296527D03*
X588606Y269227D03*
X609267Y270298D03*
X624755Y261616D03*
X629905Y262321D03*
X633547Y262420D03*
X631596Y265886D03*
X615264Y307529D03*
X605514Y314081D03*
X602082Y324377D03*
X599352Y330861D03*
X606111Y351651D03*
X607011Y357951D03*
X590412Y349850D03*
X585119Y405352D03*
Y409191D03*
Y412931D03*
X564843Y413029D03*
Y409191D03*
Y405451D03*
X566410Y398367D03*
X617604Y399179D03*
X622050Y399491D03*
X632190Y399881D03*
X632658Y412283D03*
X628290D03*
X618540Y412439D03*
X612360D03*
X606684D03*
X638352Y412283D03*
X639210Y387479D03*
X632034Y381083D03*
X625872D03*
X621270Y385373D03*
X616200Y388727D03*
X517303Y391010D03*
X512312Y391050D03*
Y395550D03*
X516312D03*
X516704Y400726D03*
X508312Y395550D03*
X504312D03*
X499862Y395786D03*
X507412Y391050D03*
X492912Y384850D03*
Y379850D03*
X510650Y357350D03*
X524659Y412716D03*
X528658Y412637D03*
X543455Y261616D03*
X548605Y262321D03*
X552247Y262420D03*
X550296Y265886D03*
X565847Y264902D03*
X569390Y265591D03*
X570276Y260473D03*
X566635Y260571D03*
X647934D03*
X651576Y260473D03*
X650690Y265591D03*
X647063Y264927D03*
X658608Y265051D03*
X656231Y275427D03*
X658476Y300275D03*
X658944Y307139D03*
X659022Y314237D03*
X659529Y326378D03*
X668110D03*
X666466Y321309D03*
X669813D03*
X673061D03*
X677274Y326717D03*
X683046Y331241D03*
X679134Y340650D03*
X668208D03*
X658169Y340847D03*
X646358Y342422D03*
X642642Y333113D03*
X644202Y326483D03*
X649901Y326378D03*
X653796Y355109D03*
X658320Y355031D03*
X666354Y355109D03*
X672204Y355031D03*
X677820Y359633D03*
Y364953D03*
Y370163D03*
X682734Y364001D03*
X684528Y352925D03*
X692562D03*
X692640Y340835D03*
X699105Y340783D03*
X702234Y331319D03*
X711516Y326171D03*
X711896Y340783D03*
X707616Y353003D03*
X712686Y356747D03*
X713154Y365015D03*
X712998Y375389D03*
X707538Y377339D03*
X699894Y377963D03*
X701532Y386752D03*
X707226D03*
X707382Y396424D03*
X701922D03*
X703794Y402976D03*
X701298Y409684D03*
X706368D03*
X692484D03*
X692406Y405784D03*
X683124Y402976D03*
X681486Y396424D03*
X681096Y386752D03*
X692328D03*
X693030Y374063D03*
X683904Y378119D03*
X670600Y375311D03*
X665900D03*
X658900D03*
X653562D03*
X646620Y370007D03*
X646698Y365093D03*
Y359867D03*
X645684Y383423D03*
X646932Y390521D03*
X645606Y399959D03*
X657930Y400505D03*
X655716Y408687D03*
X651066Y408851D03*
X662113Y408786D03*
X669101D03*
X674232Y408929D03*
X680628Y409684D03*
X672594Y400427D03*
X669162Y384203D03*
X657696Y383813D03*
X702156Y364001D03*
X703560Y317747D03*
X705120Y310649D03*
X702546Y298715D03*
X704808Y286079D03*
X706368Y279605D03*
X701298D03*
X692484D03*
X692406Y275705D03*
X683124Y272897D03*
X681486Y266345D03*
X680628Y279605D03*
X682578Y285689D03*
X692796Y288575D03*
X692562Y308543D03*
X685698Y311819D03*
X689676Y317279D03*
X692406Y321803D03*
X677687Y314124D03*
Y307136D03*
X677785Y300738D03*
X682188Y298559D03*
X671502Y293567D03*
X668519Y293553D03*
X665418D03*
X703794Y272897D03*
X701922Y266345D03*
X707382D03*
X741000Y274000D03*
Y294001D03*
Y314001D03*
Y334001D03*
Y354000D03*
Y374000D03*
Y394001D03*
Y414001D03*
Y434001D03*
Y454000D03*
Y474000D03*
Y494001D03*
Y514001D03*
X717000Y544001D03*
X697000D03*
X677000D03*
X657000D03*
X665510Y514496D03*
X668561D03*
X669241Y509997D03*
X674441D03*
X674269Y514496D03*
X679978D03*
X680041Y511597D03*
Y508697D03*
X685938Y508485D03*
Y511485D03*
Y514385D03*
X685412Y491794D03*
X690690Y491921D03*
X685412Y484294D03*
X679063Y484127D03*
X670412Y476634D03*
Y469294D03*
Y461794D03*
X661245D03*
Y469294D03*
Y476794D03*
X652078Y476927D03*
Y469427D03*
Y461794D03*
Y454294D03*
X661245D03*
X667912D03*
X670412Y446794D03*
X657863Y446827D03*
X650412Y446794D03*
X642912D03*
Y454294D03*
Y461794D03*
Y469427D03*
Y476927D03*
Y484361D03*
Y491794D03*
X643655Y512061D03*
X645684Y436931D03*
X651846Y427415D03*
X655668D03*
X669240Y427649D03*
X672750Y427571D03*
X676287Y420006D03*
Y416659D03*
X682032Y415559D03*
X692562Y415247D03*
Y419771D03*
X704262Y415325D03*
X708396Y417119D03*
X708006Y423437D03*
Y433343D03*
Y439037D03*
X704418Y442079D03*
X695682Y442001D03*
X692562Y438491D03*
X687492Y442001D03*
X685074Y448865D03*
X692952Y452297D03*
X705120Y450503D03*
X705978Y463529D03*
X701766Y461579D03*
X692640Y470861D03*
X684450Y472733D03*
X683124Y461267D03*
X681876Y437321D03*
X682812Y428819D03*
X702546D03*
X667363Y436661D03*
X648643Y420010D03*
Y416762D03*
X705354Y476947D03*
X706346Y488581D03*
X633363Y507943D03*
X633415Y513932D03*
X637000Y544001D03*
X617000D03*
X597000D03*
X577000D03*
X557000D03*
X537000D03*
X517000D03*
X497000D03*
X494021Y472647D03*
X502599Y473147D03*
X514298Y471326D03*
X513598Y464070D03*
X508480Y457124D03*
X503362Y453876D03*
X495488Y445215D03*
X491840Y445419D03*
X489264Y450379D03*
X494256Y437977D03*
X516255Y445510D03*
X522563Y423727D03*
X526058Y424037D03*
X531356Y431441D03*
X546118Y427220D03*
X549268Y427417D03*
X552319Y427516D03*
X553402Y415212D03*
X550154Y415311D03*
X546906Y415212D03*
X564843Y418541D03*
Y422281D03*
Y426120D03*
X585119Y426021D03*
Y422281D03*
Y418443D03*
X597323Y426466D03*
X605296Y427647D03*
X606762Y422189D03*
X612360D03*
X618618D03*
X627900Y422423D03*
X632502D03*
X637338D03*
X637063Y428527D03*
X607757Y441722D03*
X607166Y473711D03*
X607363Y504911D03*
X564548Y488620D03*
X561629D03*
X557027Y488633D03*
X550178Y488620D03*
X547028D03*
X543328Y488420D03*
X541271Y472960D03*
X545471D03*
X537627Y468651D03*
X549391Y455636D03*
X549293Y452584D03*
X552836D03*
Y455832D03*
X564548Y485372D03*
X476598Y471326D03*
X475898Y464070D03*
X470780Y457124D03*
X465662Y453876D03*
X457788Y445215D03*
X454140Y445419D03*
X451590Y450333D03*
X453306Y437977D03*
X445051Y431927D03*
X444798Y427634D03*
X448369Y423802D03*
X446597Y419668D03*
X439019Y419523D03*
X434816Y419532D03*
X434688Y423854D03*
X439019D03*
X436980Y433108D03*
X432255Y432419D03*
X425197Y425639D03*
X425139Y420455D03*
X424873Y416081D03*
X416381Y414996D03*
X416490Y437665D03*
X416440Y445419D03*
X420088Y445215D03*
X414176Y450333D03*
X403156Y445510D03*
X400985Y440990D03*
X385408Y438360D03*
X382388Y445215D03*
X378740Y445419D03*
X376676Y450334D03*
X368656Y445510D03*
X366486Y440990D03*
X365241Y433727D03*
X372887Y437127D03*
X344663Y439527D03*
X344240Y445419D03*
X347888Y445215D03*
X355762Y453876D03*
X360880Y457124D03*
X365999Y464070D03*
X366699Y471326D03*
X354999Y473147D03*
X346421Y472647D03*
X380921D03*
X389499Y473147D03*
X401198Y471326D03*
X400498Y464070D03*
X395380Y457124D03*
X390262Y453876D03*
X427962D03*
X433080Y457124D03*
X438198Y464070D03*
X438898Y471326D03*
X427199Y473147D03*
X418621Y472647D03*
X456321D03*
X464899Y473147D03*
X478556Y445510D03*
X476385Y440990D03*
X474363Y425527D03*
X471315Y424151D03*
X471115Y427151D03*
X461815Y427251D03*
X461715Y424103D03*
X460626Y417821D03*
X464215Y417951D03*
X471615Y417803D03*
X438685Y440990D03*
X440856Y445510D03*
X437000Y544001D03*
X417000D03*
X397000D03*
X377000D03*
X357000D03*
X347000D03*
X457000D03*
X477000D03*
X327000D03*
X317000D03*
X297000D03*
X277000D03*
X257000D03*
X237000D03*
X217000D03*
X197000D03*
X177000D03*
X175900Y461490D03*
X180925Y461515D03*
X185862D03*
X190878Y461485D03*
X190263Y465127D03*
X195904Y461565D03*
X201463Y445327D03*
X205614D03*
X205500Y435853D03*
X209273Y435858D03*
X200663Y436027D03*
X201800Y431853D03*
X195848Y429401D03*
X184773Y438200D03*
X185700Y446838D03*
X182300Y416301D03*
X206615Y414920D03*
X226500Y423701D03*
X229700Y421701D03*
X241015Y416671D03*
X246730Y422960D03*
X230863Y438127D03*
X228291Y441427D03*
X328571Y421580D03*
X172385Y427564D03*
X165298Y433568D03*
X164764Y442717D03*
X161909D03*
X157800Y442153D03*
X163681Y447343D03*
X163298Y452600D03*
X170100Y447153D03*
X145663Y446627D03*
X149705Y451969D03*
X139496Y452769D03*
X139567Y461319D03*
X137795Y463977D03*
X131563Y468827D03*
X119244Y467462D03*
X119036Y454239D03*
X122731Y454540D03*
X122674Y445075D03*
X119036Y445183D03*
X117873Y440727D03*
X127573Y437339D03*
X129973Y435639D03*
X126163Y433327D03*
X123081Y430375D03*
X136100Y435653D03*
X138400Y437453D03*
Y440353D03*
X136000Y442053D03*
X129873Y442039D03*
X127163Y447227D03*
X145263Y437327D03*
X148928Y437308D03*
X145277Y430280D03*
X151130Y425104D03*
X132900Y415053D03*
X111379Y459749D03*
X105126Y464133D03*
X100262Y470965D03*
X89191D03*
X92129Y462243D03*
X76656Y460104D03*
X76699Y455931D03*
X68333Y462599D03*
X62848Y451999D03*
X62548Y448199D03*
X55563Y446827D03*
X55163Y438627D03*
X63846Y439452D03*
X47563Y440627D03*
X45198Y433101D03*
X41600Y429734D03*
X41400Y426034D03*
X41900Y422334D03*
X49200Y426034D03*
X56004Y415084D03*
X65740Y417126D03*
X33472Y433821D03*
X25158Y433757D03*
X18900Y430753D03*
X41163Y481827D03*
X54563Y474227D03*
X57162Y469326D03*
X48863Y531527D03*
X67463D03*
X71063Y526727D03*
X78563Y531727D03*
X77000Y544001D03*
X97000D03*
X97263Y531227D03*
X101163Y526727D03*
X117000Y544001D03*
X137000D03*
X157000D03*
X57000D03*
X37000D03*
X7000Y514001D03*
X4500Y479653D03*
X9078Y460935D03*
X10775Y439179D03*
X4800Y431953D03*
X10269Y425958D03*
X10334Y417386D03*
G54D12*
X70300Y336053D03*
X80300D03*
X90300D03*
X100300D03*
X110300D03*
Y346053D03*
X100300D03*
X90300D03*
X80300D03*
X70300D03*
Y373547D03*
X80300D03*
X90300D03*
X100300D03*
X110300D03*
Y383547D03*
X100300D03*
X90300D03*
X80300D03*
X70300D03*
X314476Y321639D03*
X324476D03*
Y311639D03*
X314476D03*
X334476D03*
X344476D03*
X354476D03*
Y321639D03*
X344476D03*
X334476D03*
X494587Y317264D03*
Y327264D03*
Y337264D03*
X504586D03*
Y327264D03*
Y317264D03*
Y307264D03*
X494587D03*
X501363Y286227D03*
Y276227D03*
X511363D03*
Y286227D03*
X521363D03*
Y276227D03*
X531363D03*
Y286227D03*
X541363D03*
Y276227D03*
X598912Y277778D03*
X608676D03*
X618676D03*
G54D13*
X11263Y274027D03*
Y284027D03*
Y294027D03*
X21263D03*
Y284027D03*
Y274027D03*
X35700Y390753D03*
X43600D03*
Y400674D03*
X35700D03*
G54D14*
X52307Y82457D03*
X131047Y82333D03*
X213724Y82457D03*
X296401D03*
X379079D03*
X457819Y82333D03*
X540496Y82457D03*
X623173D03*
Y121827D03*
X540496D03*
X457819Y121704D03*
X379079Y121827D03*
X296401D03*
X213724D03*
X131047Y121704D03*
X52307Y121827D03*
X261300Y352053D03*
X271300D03*
X293000D03*
X303000D03*
X324500D03*
X316750Y396653D03*
X306750D03*
X296750D03*
X275700D03*
X265700D03*
X255700D03*
X337800D03*
X347800D03*
X357800D03*
X379035D03*
X389035D03*
X399035D03*
X436023Y370473D03*
Y360473D03*
Y350473D03*
Y328898D03*
Y318898D03*
Y308898D03*
X459842D03*
Y318898D03*
Y328898D03*
Y350375D03*
Y360374D03*
Y370375D03*
X334500Y352053D03*
X337800Y420653D03*
X347800D03*
X357800D03*
X379035D03*
X389035D03*
X399035D03*
X316750D03*
X306750D03*
X296750D03*
X275700D03*
X265700D03*
X255700D03*
X244796Y489427D03*
X234796D03*
X224796D03*
X214796D03*
X204796D03*
X194796D03*
Y513727D03*
X204796D03*
X214796D03*
X224796D03*
X234796D03*
X244796D03*
X266863D03*
X276863D03*
X286863D03*
X296863D03*
X306863D03*
X316863D03*
Y489427D03*
X306863D03*
X296863D03*
X286863D03*
X276863D03*
X266863D03*
X172729D03*
X162730D03*
X152730D03*
X142730D03*
X132729D03*
X122729D03*
X100663D03*
X90663D03*
X80663D03*
X70663D03*
X60663D03*
X50663D03*
Y513727D03*
X60663D03*
X70663D03*
X80663D03*
X90663D03*
X100663D03*
X122729D03*
X132729D03*
X142730D03*
X152730D03*
X162730D03*
X172729D03*
X8600Y488153D03*
Y470353D03*
X58233Y37283D03*
Y49094D03*
X70044D03*
Y37283D03*
X138486D03*
X150297D03*
Y49094D03*
X138486D03*
X220013D03*
Y37283D03*
X231824D03*
Y49094D03*
X302068D03*
X313879D03*
Y37283D03*
X302068D03*
X383595D03*
Y49094D03*
X395406D03*
Y37283D03*
X465651D03*
X477462D03*
Y49094D03*
X465651D03*
X546951D03*
Y37283D03*
X558762D03*
Y49094D03*
X628251D03*
X640062D03*
Y37283D03*
X628251D03*
X586909Y319882D03*
Y331693D03*
X556201D03*
Y319882D03*
X525492D03*
Y331693D03*
G54D15*
X498560Y494912D03*
X512339D03*
Y514597D03*
X498560D03*
X474639D03*
X460860D03*
Y494912D03*
X474639D03*
X436940D03*
X423160D03*
Y514597D03*
X436940D03*
X399240D03*
X385460D03*
Y494912D03*
X399240D03*
X361540D03*
X347760D03*
Y514597D03*
X361540D03*
G54D16*
X18400Y465453D03*
Y493053D03*
G54D17*
X615519Y300722D03*
Y314123D03*
X668519D03*
Y300722D03*
X669100Y364953D03*
X655700D03*
Y417953D03*
X669100D03*
G54D18*
X692500Y168753D03*
Y201253D03*
Y233753D03*
Y266253D03*
Y298753D03*
Y331253D03*
Y363832D03*
Y396332D03*
Y428832D03*
Y461332D03*
G54D19*
X25000Y372053D03*
Y419375D03*
G54D20*
X19685Y19686D03*
X350394D03*
X728346D03*
Y531496D03*
X19685D03*
G54D21*
X99368Y260271D03*
Y315783D03*
G54D13*
X46422Y33582D03*
X81855D03*
X126675D03*
X162108D03*
X208202D03*
X243635D03*
X290257D03*
X325690D03*
X371784D03*
X407218D03*
X453840D03*
X489273D03*
X535140D03*
X570573D03*
X616440D03*
X651873D03*
X598720Y316182D03*
X575098D03*
X568012D03*
X544390D03*
X537303D03*
X513681D03*
G54D22*
X211573Y288027D03*
M02*
