G04 CAM350 V10.5 (Build 464) Date:  Wed Nov 01 10:35:12 2023 *
G04 Database: (Untitled) *
G04 Layer 3: gbo *
%FSLAX25Y25*%
%MOIN*%
%SFA1.000B1.000*%

%MIA0B0*%
%IPPOS*%
%ADD91C,0.00450*%
%ADD92C,0.00500*%
%ADD93C,0.00600*%
%ADD94C,0.00669*%
%ADD95C,0.00315*%
%ADD96C,0.00800*%
%ADD97C,0.00669*%
%ADD98C,0.00630*%
%LNgbo*%
%LPD*%
G36*
X54730Y404022D02*
G01X54732Y404050D01*
X54737Y404077*
G75*
G03X55192Y404011I678J3076*
G01X55413Y404003*
G03X56449Y404179I-2J3150*
G02X56513Y404022I-161J-157*
X56288Y403797I-225J0*
G01X55847*
G03X55846Y403796I0J-1*
G01Y402023*
G02X55671Y401804I-225J0*
X55396Y402023I-50J219*
G01Y403796*
G03X55395Y403797I-1J0*
G01X54955*
G02X54730Y404022I0J225*
G37*
G36*
X188427Y463261D02*
G01X188482Y463428D01*
X188527Y463598*
G02X188612Y463614I83J-209*
G01X189385*
G03X189386Y463615I0J1*
G01Y463722*
G02X189561Y463941I225J0*
X189836Y463722I50J-219*
G01Y463615*
G03X189837Y463614I1J0*
G01X190611*
G02X190836Y463389I0J-225*
X190770Y463230I-225J0*
G01X189770Y462230*
G02X189386Y462389I-159J159*
G01Y463163*
G03X189385Y463164I-1J0*
G01X188612*
G02X188427Y463261I1J227*
G37*
G36*
X188400Y465463D02*
G01X188422Y465508D01*
X188453Y465547*
X188786Y465881*
G02X188945Y465947I159J-159*
G01X189611*
X190278*
G02X190437Y465881I0J-225*
G01X190770Y465547*
G02X190836Y465388I-159J-159*
G01Y464722*
G02X190770Y464563I-225J0*
G01X190437Y464230*
G02X190278Y464164I-159J159*
G01X189945*
G02X189786Y464230I0J225*
G01X189452Y464563*
G02X189386Y464722I159J159*
G01Y465496*
G03X189385Y465497I-1J0*
G01X189039*
X189038*
Y465496*
X188837Y465295*
Y465294*
Y464816*
Y464815*
X189104Y464548*
G02X189170Y464389I-159J-159*
X188786Y464230I-225J0*
G01X188612Y464404*
Y464405*
G03X188400Y465463I-3149J-81*
G37*
G36*
X66226Y377701D02*
G01Y379367D01*
G02X66401Y379586I225J0*
X66676Y379367I50J-219*
G01Y377795*
Y377794*
X66877Y377593*
Y377592*
X66878*
X67357*
X67358*
X67558Y377793*
X67559Y377794*
Y379367*
G02X67734Y379586I225J0*
X68009Y379367I50J-219*
G01Y377701*
G02X67943Y377542I-225J0*
G01X67610Y377208*
G02X67497Y377147I-160J162*
G01X66737*
G02X66625Y377208I47J220*
G01X66292Y377542*
G02X66226Y377701I159J159*
G37*
G36*
X68225Y378034D02*
G01Y379367D01*
G02X68400Y379586I225J0*
X68675Y379367I50J-219*
G01Y378128*
Y378127*
X69116Y377686*
X69117*
X69557Y378126*
X69558Y378127*
Y378128*
Y379367*
G02X69733Y379586I225J0*
X70008Y379367I50J-219*
G01Y378034*
G02X69942Y377875I-225J0*
G01X69276Y377208*
G02X69163Y377147I-160J162*
G01X69070*
G02X68958Y377208I47J220*
G01X68291Y377875*
G02X68225Y378034I159J159*
G37*
G36*
X112961Y408446D02*
G01X112977Y408528D01*
X113059Y408632*
X113186Y408671*
X113852*
X114118*
G03X114744Y408443I1387J2835*
G02X114519Y408221I-225J3*
G01X114078*
G03X114077Y408220I0J-1*
G01Y406447*
G02X113902Y406228I-225J0*
X113627Y406447I-50J219*
G01Y408220*
G03X113626Y408221I-1J0*
G01X113186*
G02X112961Y408446J225*
G37*
G36*
X52731Y403022D02*
G01Y403689D01*
G02X52797Y403848I225J0*
G01X53130Y404181*
G02X53289Y404247I159J-159*
G01X54198*
G03X54476Y404146I1223J2934*
G01X54477*
G02X54514Y404022I-192J-125*
G01Y402689*
Y402023*
G02X54339Y401804I-225J0*
X54064Y402023I-50J219*
G01Y402463*
G03X54063Y402464I-1J0*
G01X53289*
G02X53130Y402530I0J225*
G01X52797Y402863*
G02X52731Y403022I159J159*
G37*
G36*
X464777Y315805D02*
G01X465213Y316125D01*
X465480Y316378*
X465481*
X466335*
G02X466560Y316153I0J-225*
X466335Y315928I-225J0*
G01X465228*
G03X465227Y315927I0J-1*
G01Y315913*
Y315912*
X466494Y314645*
G02X466560Y314486I-159J-159*
G01Y314153*
G02X466385Y313934I-225J0*
X466110Y314153I-50J219*
G01Y314392*
Y314393*
X466109Y314394*
X464843Y315660*
G02X464777Y315805I159J160*
G37*
G36*
X61279Y376316D02*
G01Y376549D01*
X61295Y376582*
X61345Y376736*
X61373Y376897*
X61379Y379541*
X61380Y379542*
X61578Y379548*
Y379549*
Y383886*
Y383887*
X61380Y383893*
G02X61379Y383894I0J1*
G01X61378Y386656*
G03X61279Y387088I-1145J-35*
G01Y387316*
G02X61584Y387616I300J0*
X61879Y387316I-5J-300*
G01Y376316*
G02X61574Y376016I-300J0*
X61279Y376316I5J300*
G37*
G36*
X53279D02*
G01Y387316D01*
G02X53584Y387616I300J0*
X53879Y387316I-5J-300*
G01Y387082*
X53864Y387051*
X53813Y386897*
X53785Y386736*
X53779Y383895*
G02X53778Y383894I-1J0*
G01X53734Y383888*
Y383887*
Y379548*
Y379547*
X53778Y379541*
G02X53779Y379540I0J-1*
G01X53780Y376990*
G03X53879Y376545I1142J20*
G01Y376316*
G02X53574Y376016I-300J0*
X53279Y376316I5J300*
G37*
G36*
X62212Y410816D02*
G01X62254Y410969D01*
X62363Y411077*
X62512Y411116*
X73512*
G02X73812Y410816I0J-300*
X73512Y410516I-300J0*
G01X72977*
G03X72609Y410569I-368J-1251*
G01X72533Y410567*
G03X72532Y410566I0J-1*
G01Y410564*
X72531Y410563*
X70282*
Y410564*
X70281Y410817*
Y410818*
X65939*
Y410817*
X65938Y410564*
Y410563*
X63493*
X63492Y410564*
Y410569*
G03X63491Y410570I-1J0*
G01X63401Y410573*
G03X63023Y410516I-1J-1278*
G01X62512*
G02X62212Y410816I0J300*
G37*
G36*
Y402816D02*
G01X62254Y402969D01*
X62363Y403077*
X62512Y403116*
X63037*
X63363Y403068*
X65937Y403062*
X65938Y403061*
X65939Y402972*
Y402971*
X70281*
Y402972*
X70282Y403061*
X72661Y403068*
G03X72945Y403116I-78J1328*
G01X73512*
G02X73812Y402816I0J-300*
X73512Y402516I-300J0*
G01X62512*
G02X62212Y402816I0J300*
G37*
G36*
X322365Y326017D02*
G01Y327017D01*
G02X322453Y327229I300J0*
G01X322953Y327728*
G02X323165Y327816I212J-212*
G01X325664*
G02X325964Y327516I0J-300*
X325664Y327216I-300J0*
G01X323289*
X323288Y327215*
X322965Y326893*
Y326892*
Y326142*
Y326141*
X323288Y325818*
X323289Y325817*
X323290*
X325664*
G02X325964Y325517I0J-300*
X325664Y325217I-300J0*
G01X324853*
G03X324189Y325225I-375J-3580*
G01X324099Y325217*
X323165*
G02X322953Y325305I0J300*
G01X322453Y325805*
G02X322365Y326017I212J212*
G37*
%LPC*%
G36*
X189836Y462934D02*
G01X189837D01*
X190065Y463162*
X190066*
X190065Y463163*
X189837Y463164*
G03X189836Y463163I0J-1*
G01Y462934*
G37*
G36*
Y464816D02*
G01Y464815D01*
X190037Y464615*
X190038Y464614*
X190184*
X190185*
X190385Y464814*
X190386Y464815*
Y464816*
Y465295*
X190385Y465296*
X190185Y465497*
X190184*
X189837*
G03X189836Y465496I0J-1*
G01Y464816*
G37*
G36*
X53181Y403116D02*
G01Y403115D01*
X53381Y402915*
X53382Y402914*
X53383*
X54063*
G03X54064Y402915I0J1*
G01Y403796*
G03X54063Y403797I-1J0*
G01X53383*
X53382*
X53381Y403796*
X53181Y403596*
Y403595*
Y403116*
G37*
%LPD*%
G54D97*
X95287Y447798D02*
G01X93384D01*
X95287Y443770D02*
G01X93384D01*
X95287Y445784D02*
G01X93859D01*
X95287Y447798D02*
G01Y443770D01*
X91744Y447798D02*
G01X89840D01*
X90792D02*
G01Y443770D01*
G54D98*
X96389Y448811D02*
G01X95945Y449313D01*
X95431Y449746*
X94860Y450098*
X94244Y450363*
X93595Y450534*
X92928Y450609*
X92257Y450585*
X91597Y450464*
X90962Y450247*
X90366Y449939*
X89821Y449548*
X89339Y449081*
X88931Y448548*
X88605Y447962*
X88369Y447333*
X88227Y446678*
X88182Y446008*
X88237Y445339*
X88388Y444686*
X88634Y444061*
X88968Y443479*
X89384Y442953*
X89873Y442493*
X90423Y442109*
X91024Y441810*
X91662Y441603*
X92324Y441491*
X92995Y441477*
X93661Y441562*
X94307Y441743*
X94919Y442017*
X95485Y442377*
X95992Y442817*
X96430Y443326*
X96788Y443893*
X97059Y444507*
X97237Y445154*
X97319Y445820*
X97302Y446491*
X97187Y447152*
X96976Y447789*
X96675Y448389*
X96389Y448811*
G54D91*
X363229Y345341D02*
G01X364562D01*
Y343341*
X363229*
X364562Y344341D02*
G01X363895D01*
X362562Y343341D02*
G01Y345341D01*
X361563*
X361230Y345007*
Y344341*
X361563Y344008*
X362562*
X361896D02*
G01X361230Y343341D01*
X360563D02*
G01Y344674D01*
X359897Y345341*
X359230Y344674*
Y343341*
Y344341*
X360563*
X357231Y345007D02*
G01X357564Y345341D01*
X358231*
X358564Y345007*
Y344674*
X358231Y344341*
X357564*
X357231Y344008*
Y343674*
X357564Y343341*
X358231*
X358564Y343674*
X355232Y345341D02*
G01X356564D01*
Y343341*
X355232*
X356564Y344341D02*
G01X355898D01*
X147764Y338343D02*
G01Y337010D01*
X147097Y336344*
X146431Y337010*
Y338343*
X145764D02*
G01Y336344D01*
X144765*
X144431Y336677*
Y338010*
X144765Y338343*
X145764*
X143765D02*
G01Y336344D01*
X142765*
X142432Y336677*
Y338010*
X142765Y338343*
X143765*
X139766Y336344D02*
G01Y337677D01*
X139100Y338343*
X138433Y337677*
Y336344*
Y337343*
X139766*
X137767Y336344D02*
G01Y338343D01*
X136434Y336344*
Y338343*
X135768Y336344D02*
G01Y337677D01*
X135101Y338343*
X134435Y337677*
Y336344*
Y337343*
X135768*
X492380Y466727D02*
G01X492713Y467060D01*
Y467727*
X492380Y468060*
X492047*
X491714Y467727*
Y467394*
Y467727*
X491380Y468060*
X491047*
X490714Y467727*
Y467060*
X491047Y466727*
X490714Y468727D02*
G01X491047D01*
Y469060*
X490714*
Y468727*
X492380Y470393D02*
G01X492713Y470726D01*
Y471392*
X492380Y471726*
X492047*
X491714Y471392*
Y471059*
Y471392*
X491380Y471726*
X491047*
X490714Y471392*
Y470726*
X491047Y470393*
X492713Y472392D02*
G01X491380D01*
X490714Y473059*
X491380Y473725*
X492713*
X492380Y475724D02*
G01X492713Y475391D01*
Y474725*
X492380Y474391*
X491047*
X490714Y474725*
Y475391*
X491047Y475724*
X492380Y477724D02*
G01X492713Y477390D01*
Y476724*
X492380Y476391*
X491047*
X490714Y476724*
Y477390*
X491047Y477724*
X547482Y451453D02*
G01X548815D01*
Y450453*
X548149Y450786*
X547815*
X547482Y450453*
Y449786*
X547815Y449453*
X548482*
X548815Y449786*
X546816Y451453D02*
G01Y450120D01*
X546149Y449453*
X545483Y450120*
Y451453*
X544816Y451119D02*
G01X544483Y451453D01*
X543817*
X543483Y451119*
Y449786*
X543817Y449453*
X544483*
X544816Y449786*
Y451119*
X542817Y449120D02*
G01X541484D01*
X540818Y449453D02*
G01Y450786D01*
X540151Y451453*
X539485Y450786*
Y449453*
Y450453*
X540818*
X538818Y451453D02*
G01Y449786D01*
X538485Y449453*
X537818*
X537485Y449786*
Y451453*
X536819D02*
G01X535486Y449453D01*
Y451453D02*
G01X536819Y449453D01*
X347271Y342674D02*
G01X345939D01*
X346605*
Y340674*
X343939Y342341D02*
G01X344272Y342674D01*
X344939*
X345272Y342341*
Y341008*
X344939Y340674*
X344272*
X343939Y341008*
X343273Y342341D02*
G01X342940Y342674D01*
X342273*
X341940Y342341*
Y342007*
X342273Y341674*
X342606*
X342273*
X341940Y341341*
Y341008*
X342273Y340674*
X342940*
X343273Y341008*
X282360Y344707D02*
G01X281027D01*
X281693*
Y342707*
X279028Y344373D02*
G01X279361Y344707D01*
X280027*
X280361Y344373*
Y343040*
X280027Y342707*
X279361*
X279028Y343040*
X278361Y342707D02*
G01X277695D01*
X278028*
Y344707*
X278361Y344373*
X317646Y344052D02*
G01X316313D01*
X316979*
Y342053*
X314313Y343719D02*
G01X314647Y344052D01*
X315313*
X315646Y343719*
Y342386*
X315313Y342053*
X314647*
X314313Y342386*
X312314Y342053D02*
G01X313647D01*
X312314Y343385*
Y343719*
X312647Y344052*
X313314*
X313647Y343719*
X269802Y331915D02*
G01X268469D01*
X269135*
Y329915*
X267803Y331915D02*
G01Y329915D01*
Y330915*
X266470*
Y331915*
Y329915*
X264470Y331915D02*
G01X265803D01*
Y329915*
X264470*
X265803Y330915D02*
G01X265137D01*
X263804Y329915D02*
G01Y331915D01*
X262804*
X262471Y331581*
Y330915*
X262804Y330582*
X263804*
X263137D02*
G01X262471Y329915D01*
X261804D02*
G01Y331915D01*
X261138Y331248*
X260471Y331915*
Y329915*
X259805D02*
G01X259139D01*
X259472*
Y331915*
X259805Y331581*
X240874Y332142D02*
G01X239541D01*
X240207*
Y330143*
X237542Y331809D02*
G01X237875Y332142D01*
X238541*
X238875Y331809*
Y330476*
X238541Y330143*
X237875*
X237542Y330476*
X235542Y330143D02*
G01X236875D01*
X235542Y331476*
Y331809*
X235875Y332142*
X236542*
X236875Y331809*
X297258Y332383D02*
G01X295925D01*
X296591*
Y330383*
X295258Y332383D02*
G01Y330383D01*
Y331383*
X293926*
Y332383*
Y330383*
X291926Y332383D02*
G01X293259D01*
Y330383*
X291926*
X293259Y331383D02*
G01X292593D01*
X291260Y330383D02*
G01Y332383D01*
X290260*
X289927Y332049*
Y331383*
X290260Y331050*
X291260*
X290593D02*
G01X289927Y330383D01*
X289260D02*
G01Y332383D01*
X288594Y331716*
X287928Y332383*
Y330383*
X287261Y332049D02*
G01X286928Y332383D01*
X286261*
X285928Y332049*
Y331716*
X286261Y331383*
X286595*
X286261*
X285928Y331050*
Y330716*
X286261Y330383*
X286928*
X287261Y330716*
X64452Y379034D02*
G01X64785Y379367D01*
X65451*
X65785Y379034*
Y378700*
X65451Y378367*
X64785*
X64452Y378034*
Y377701*
X64785Y377367*
X65451*
X65785Y377701*
X63785Y379367D02*
G01Y377367D01*
X62786*
X62452Y377701*
Y378034*
X62786Y378367*
X63785*
X62786*
X62452Y378700*
Y379034*
X62786Y379367*
X63785*
X66563Y351009D02*
G01Y353009D01*
X65896Y352342*
X65230Y353009*
Y351009*
X63231Y352675D02*
G01X63564Y353009D01*
X64230*
X64564Y352675*
Y351342*
X64230Y351009*
X63564*
X63231Y351342*
X61231Y352675D02*
G01X61564Y353009D01*
X62231*
X62564Y352675*
Y351342*
X62231Y351009*
X61564*
X61231Y351342*
X60565Y353009D02*
G01Y351009D01*
Y351676*
X59232Y353009*
X60232Y352009*
X59232Y351009*
X68433Y340281D02*
G01Y342280D01*
X67766Y341614*
X67100Y342280*
Y340281*
X65101Y341947D02*
G01X65434Y342280D01*
X66100*
X66434Y341947*
Y340614*
X66100Y340281*
X65434*
X65101Y340614*
X63101Y341947D02*
G01X63435Y342280D01*
X64101*
X64434Y341947*
Y340614*
X64101Y340281*
X63435*
X63101Y340614*
X62435Y342280D02*
G01Y340281D01*
X61435*
X61102Y340614*
Y341947*
X61435Y342280*
X62435*
X60435Y340281D02*
G01Y341614D01*
X59769Y342280*
X59103Y341614*
Y340281*
Y341281*
X60435*
X40382Y348155D02*
G01Y350154D01*
X39715Y349488*
X39049Y350154*
Y348155*
X37049Y349821D02*
G01X37383Y350154D01*
X38049*
X38382Y349821*
Y348488*
X38049Y348155*
X37383*
X37049Y348488*
X36383Y350154D02*
G01Y348155D01*
X35383*
X35050Y348488*
Y349821*
X35383Y350154*
X36383*
X34384Y348155D02*
G01Y349488D01*
X33717Y350154*
X33051Y349488*
Y348155*
Y349154*
X34384*
X32384Y348155D02*
G01X31718D01*
X32051*
Y350154*
X32384Y349821*
X41858Y337820D02*
G01Y339820D01*
X41192Y339153*
X40525Y339820*
Y337820*
X38526Y339486D02*
G01X38859Y339820D01*
X39526*
X39859Y339486*
Y338153*
X39526Y337820*
X38859*
X38526Y338153*
X37859Y339820D02*
G01Y337820D01*
X36860*
X36526Y338153*
Y339486*
X36860Y339820*
X37859*
X35860Y337820D02*
G01Y339153D01*
X35194Y339820*
X34527Y339153*
Y337820*
Y338820*
X35860*
X33861Y339486D02*
G01X33528Y339820D01*
X32861*
X32528Y339486*
Y338153*
X32861Y337820*
X33528*
X33861Y338153*
Y339486*
X51208Y330832D02*
G01Y332831D01*
X50542Y332165*
X49876Y332831*
Y330832*
X47876Y332498D02*
G01X48209Y332831D01*
X48876*
X49209Y332498*
Y331165*
X48876Y330832*
X48209*
X47876Y331165*
X47210Y332831D02*
G01Y330832D01*
X46210*
X45877Y331165*
Y332498*
X46210Y332831*
X47210*
X45210Y330832D02*
G01Y332165D01*
X44544Y332831*
X43878Y332165*
Y330832*
Y331832*
X45210*
X43211Y332498D02*
G01X42878Y332831D01*
X42211*
X41878Y332498*
Y332165*
X42211Y331832*
X42545*
X42211*
X41878Y331498*
Y331165*
X42211Y330832*
X42878*
X43211Y331165*
X68827Y319316D02*
G01Y321316D01*
X68160Y320649*
X67494Y321316*
Y319316*
X65494Y320982D02*
G01X65828Y321316D01*
X66494*
X66827Y320982*
Y319649*
X66494Y319316*
X65828*
X65494Y319649*
X64828Y321316D02*
G01Y319316D01*
X63828*
X63495Y319649*
Y320982*
X63828Y321316*
X64828*
X62829Y319316D02*
G01Y320649D01*
X62162Y321316*
X61496Y320649*
Y319316*
Y320316*
X62829*
X59496Y319316D02*
G01X60829D01*
X59496Y320649*
Y320982*
X59830Y321316*
X60496*
X60829Y320982*
X124106Y423029D02*
G01X123773Y423362D01*
X123106*
X122773Y423029*
Y422696*
X123106Y422362*
X123440*
X123106*
X122773Y422029*
Y421696*
X123106Y421363*
X123773*
X124106Y421696*
X122107Y421363D02*
G01Y421696D01*
X121774*
Y421363*
X122107*
X120441Y423029D02*
G01X120107Y423362D01*
X119441*
X119108Y423029*
Y422696*
X119441Y422362*
X119774*
X119441*
X119108Y422029*
Y421696*
X119441Y421363*
X120107*
X120441Y421696*
X118441Y423362D02*
G01Y422029D01*
X117775Y421363*
X117108Y422029*
Y423362*
X144291Y427163D02*
G01X143958Y427497D01*
X143292*
X142958Y427163*
Y426830*
X143292Y426497*
X143625*
X143292*
X142958Y426164*
Y425831*
X143292Y425497*
X143958*
X144291Y425831*
X142292Y425497D02*
G01Y425831D01*
X141959*
Y425497*
X142292*
X140626Y427163D02*
G01X140293Y427497D01*
X139626*
X139293Y427163*
Y426830*
X139626Y426497*
X139959*
X139626*
X139293Y426164*
Y425831*
X139626Y425497*
X140293*
X140626Y425831*
X138626Y427497D02*
G01Y426164D01*
X137960Y425497*
X137293Y426164*
Y427497*
X136627D02*
G01X135961D01*
X136294*
Y425497*
X136627*
X135961*
X133961Y427497D02*
G01X134628D01*
X134961Y427163*
Y425831*
X134628Y425497*
X133961*
X133628Y425831*
Y427163*
X133961Y427497*
X158889Y428647D02*
G01X157556D01*
X156890Y429313*
X157556Y429980*
X158889*
Y430646D02*
G01X156890D01*
Y431646*
X157223Y431979*
X158556*
X158889Y431646*
Y430646*
Y432646D02*
G01X156890D01*
Y433645*
X157223Y433979*
X158556*
X158889Y433645*
Y432646*
X156890Y434645D02*
G01X158889D01*
Y435645*
X158556Y435978*
X157889*
X157556Y435645*
Y434645*
X158889Y436644D02*
G01X156890D01*
Y437977*
X158889Y438644D02*
G01X156890D01*
Y439977*
X180570Y433471D02*
G01Y432138D01*
X179903Y431471*
X179237Y432138*
Y433471*
X178571D02*
G01Y431471D01*
X177571*
X177238Y431804*
Y433137*
X177571Y433471*
X178571*
X176571D02*
G01Y431471D01*
X175571*
X175238Y431804*
Y433137*
X175571Y433471*
X176571*
X173572D02*
G01X174239D01*
X174572Y433137*
Y431804*
X174239Y431471*
X173572*
X173239Y431804*
Y433137*
X173572Y433471*
X172572D02*
G01Y431804D01*
X172239Y431471*
X171573*
X171240Y431804*
Y433471*
X170573D02*
G01X169240D01*
X169907*
Y431471*
X330701Y403480D02*
G01X329368D01*
Y403147*
X330701Y401814*
Y401481*
X329368*
X328701D02*
G01Y402814D01*
X328368*
X328035Y402481*
Y401481*
Y402481*
X327702Y402814*
X327368Y402481*
Y401481*
X326369Y402814D02*
G01X325702D01*
X325369Y402481*
Y401481*
X326369*
X326702Y401814*
X326369Y402147*
X325369*
X324703Y402814D02*
G01X323370Y401481D01*
X324036Y402147*
X323370Y402814*
X324703Y401481*
X289890Y387064D02*
G01Y386730D01*
X289223Y386064*
X288557Y386730*
Y387064*
X289223Y386064D02*
G01Y385064D01*
X287890D02*
G01Y386397D01*
X287557*
X287224Y386064*
Y385064*
Y386064*
X286891Y386397*
X286557Y386064*
Y385064*
X285558Y386397D02*
G01X284891D01*
X284558Y386064*
Y385064*
X285558*
X285891Y385397*
X285558Y385731*
X284558*
X283892Y386397D02*
G01X282559Y385064D01*
X283225Y385731*
X282559Y386397*
X283892Y385064*
X321976Y436965D02*
G01Y436632D01*
X321310Y435966*
X320643Y436632*
Y436965*
X321310Y435966D02*
G01Y434966D01*
X319977D02*
G01Y436299D01*
X319644*
X319310Y435966*
Y434966*
Y435966*
X318977Y436299*
X318644Y435966*
Y434966*
X317978D02*
G01X317311D01*
X317644*
Y436299*
X317978*
X316311Y434966D02*
G01Y436299D01*
X315312*
X314979Y435966*
Y434966*
X268181Y381512D02*
G01X266848Y379513D01*
Y381512D02*
G01X268181Y379513D01*
X266181D02*
G01Y380846D01*
X265848*
X265515Y380512*
Y379513*
Y380512*
X265181Y380846*
X264848Y380512*
Y379513*
X263849Y380846D02*
G01X263182D01*
X262849Y380512*
Y379513*
X263849*
X264182Y379846*
X263849Y380179*
X262849*
X262182Y380846D02*
G01X260850Y379513D01*
X261516Y380179*
X260850Y380846*
X262182Y379513*
X289398Y408520D02*
G01X288065Y406521D01*
Y408520D02*
G01X289398Y406521D01*
X287398D02*
G01Y407854D01*
X287065*
X286732Y407521*
Y406521*
Y407521*
X286399Y407854*
X286065Y407521*
Y406521*
X285399D02*
G01X284732D01*
X285066*
Y407854*
X285399*
X283733Y406521D02*
G01Y407854D01*
X282733*
X282400Y407521*
Y406521*
X196464Y465155D02*
G01Y466488D01*
Y465822*
X194465*
Y467155D02*
G01X196464D01*
X195798Y467821*
X196464Y468487*
X194465*
X196131Y470487D02*
G01X196464Y470154D01*
Y469487*
X196131Y469154*
X195798*
X195464Y469487*
Y470154*
X195131Y470487*
X194798*
X194465Y470154*
Y469487*
X194798Y469154*
X194465Y471153D02*
G01X195798Y472486D01*
X196131Y474486D02*
G01X196464Y474152D01*
Y473486*
X196131Y473153*
X195798*
X195464Y473486*
Y474152*
X195131Y474486*
X194798*
X194465Y474152*
Y473486*
X194798Y473153*
X196464Y475152D02*
G01X194465D01*
X195131Y475818*
X194465Y476485*
X196464*
Y477151D02*
G01X194465D01*
Y478151*
X194798Y478484*
X196131*
X196464Y478151*
Y477151*
Y479151D02*
G01Y479817D01*
Y479484*
X194465*
Y479151*
Y479817*
X196464Y481816D02*
G01Y481150D01*
X196131Y480817*
X194798*
X194465Y481150*
Y481816*
X194798Y482150*
X196131*
X196464Y481816*
X733167Y52908D02*
G01X734500D01*
Y51909*
X733833*
X734500*
Y50909*
X732500Y52908D02*
G01Y50909D01*
X731501*
X731168Y51242*
Y52575*
X731501Y52908*
X732500*
X730501D02*
G01X729168D01*
Y52575*
X730501Y51242*
Y50909*
X708567Y530408D02*
G01X709900D01*
Y529409*
X709233*
X709900*
Y528409*
X707901Y530408D02*
G01Y528409D01*
X706901*
X706568Y528742*
Y530075*
X706901Y530408*
X707901*
X704568D02*
G01X705235Y530075D01*
X705901Y529409*
Y528742*
X705568Y528409*
X704902*
X704568Y528742*
Y529076*
X704902Y529409*
X705901*
X11111Y518342D02*
G01X12444D01*
Y517343*
X11778*
X12444*
Y516343*
X10444Y518342D02*
G01Y516343D01*
X9446*
X9113Y516676*
Y518009*
X9446Y518342*
X10444*
X7112D02*
G01X8446D01*
Y517343*
X7779Y517676*
X7446*
X7112Y517343*
Y516676*
X7446Y516343*
X8113*
X8446Y516676*
X494748Y503749D02*
G01X493415D01*
X494081*
Y501749*
X492749D02*
G01Y503749D01*
X491749*
X491416Y503415*
Y502749*
X491749Y502416*
X492749*
X489416Y501749D02*
G01X490749D01*
X489416Y503082*
Y503415*
X489750Y503749*
X490416*
X490749Y503415*
X487750Y501749D02*
G01Y503749D01*
X488750Y502749*
X487417*
X485417Y503749D02*
G01X486750D01*
Y501749*
X485417*
X486750Y502749D02*
G01X486084D01*
X457074Y508429D02*
G01X455741D01*
X456407*
Y506429*
X455075D02*
G01Y508429D01*
X454075*
X453742Y508095*
Y507429*
X454075Y507096*
X455075*
X451742Y506429D02*
G01X453075D01*
X451742Y507762*
Y508095*
X452075Y508429*
X452742*
X453075Y508095*
X450076Y506429D02*
G01Y508429D01*
X451076Y507429*
X449743*
X449076Y508429D02*
G01Y506429D01*
X448077*
X447744Y506762*
Y508095*
X448077Y508429*
X449076*
X419634Y504295D02*
G01X418301D01*
X418967*
Y502295*
X417634D02*
G01Y504295D01*
X416635*
X416302Y503961*
Y503295*
X416635Y502962*
X417634*
X414302Y502295D02*
G01X415635D01*
X414302Y503628*
Y503961*
X414635Y504295*
X415302*
X415635Y503961*
X412636Y502295D02*
G01Y504295D01*
X413636Y503295*
X412303*
X410303Y503961D02*
G01X410637Y504295D01*
X411303*
X411636Y503961*
Y502628*
X411303Y502295*
X410637*
X410303Y502628*
X382272Y507961D02*
G01X380939D01*
X381605*
Y505961*
X380273D02*
G01Y507961D01*
X379273*
X378940Y507627*
Y506961*
X379273Y506628*
X380273*
X376940Y505961D02*
G01X378273D01*
X376940Y507294*
Y507627*
X377273Y507961*
X377940*
X378273Y507627*
X375274Y505961D02*
G01Y507961D01*
X376274Y506961*
X374941*
X374274Y507961D02*
G01Y505961D01*
X373275*
X372941Y506294*
Y506628*
X373275Y506961*
X374274*
X373275*
X372941Y507294*
Y507627*
X373275Y507961*
X374274*
X343740Y503827D02*
G01X342407D01*
X343073*
Y501827*
X341740D02*
G01Y503827D01*
X340741*
X340408Y503493*
Y502827*
X340741Y502494*
X341740*
X338408Y501827D02*
G01X339741D01*
X338408Y503160*
Y503493*
X338741Y503827*
X339408*
X339741Y503493*
X336742Y501827D02*
G01Y503827D01*
X337742Y502827*
X336409*
X335742Y501827D02*
G01Y503160D01*
X335076Y503827*
X334410Y503160*
Y501827*
Y502827*
X335742*
X525792Y504139D02*
G01X524459D01*
X525125*
Y502139*
X523793D02*
G01Y504139D01*
X522793*
X522460Y503805*
Y503139*
X522793Y502806*
X523793*
X520460Y502139D02*
G01X521793D01*
X520460Y503472*
Y503805*
X520793Y504139*
X521460*
X521793Y503805*
X519794D02*
G01X519461Y504139D01*
X518794*
X518461Y503805*
Y503472*
X518794Y503139*
X519127*
X518794*
X518461Y502806*
Y502472*
X518794Y502139*
X519461*
X519794Y502472*
X516462Y504139D02*
G01X517794D01*
Y502139*
X516462*
X517794Y503139D02*
G01X517128D01*
X487182Y509053D02*
G01X485849D01*
X486515*
Y507053*
X485183D02*
G01Y509053D01*
X484183*
X483850Y508719*
Y508053*
X484183Y507720*
X485183*
X481850Y507053D02*
G01X483183D01*
X481850Y508386*
Y508719*
X482184Y509053*
X482850*
X483183Y508719*
X481184D02*
G01X480851Y509053D01*
X480184*
X479851Y508719*
Y508386*
X480184Y508053*
X480517*
X480184*
X479851Y507720*
Y507386*
X480184Y507053*
X480851*
X481184Y507386*
X479184Y509053D02*
G01Y507053D01*
X478185*
X477851Y507386*
Y508719*
X478185Y509053*
X479184*
X449976Y504217D02*
G01X448643D01*
X449309*
Y502217*
X447976D02*
G01Y504217D01*
X446977*
X446644Y503883*
Y503217*
X446977Y502884*
X447976*
X444644Y502217D02*
G01X445977D01*
X444644Y503550*
Y503883*
X444977Y504217*
X445644*
X445977Y503883*
X443978D02*
G01X443645Y504217D01*
X442978*
X442645Y503883*
Y503550*
X442978Y503217*
X443311*
X442978*
X442645Y502884*
Y502550*
X442978Y502217*
X443645*
X443978Y502550*
X440646Y503883D02*
G01X440979Y504217D01*
X441645*
X441978Y503883*
Y502550*
X441645Y502217*
X440979*
X440646Y502550*
X412146Y508273D02*
G01X410813D01*
X411479*
Y506273*
X410147D02*
G01Y508273D01*
X409147*
X408814Y507939*
Y507273*
X409147Y506940*
X410147*
X406814Y506273D02*
G01X408147D01*
X406814Y507606*
Y507939*
X407148Y508273*
X407814*
X408147Y507939*
X406148D02*
G01X405815Y508273D01*
X405148*
X404815Y507939*
Y507606*
X405148Y507273*
X405481*
X405148*
X404815Y506940*
Y506606*
X405148Y506273*
X405815*
X406148Y506606*
X404148Y508273D02*
G01Y506273D01*
X403149*
X402816Y506606*
Y506940*
X403149Y507273*
X404148*
X403149*
X402816Y507606*
Y507939*
X403149Y508273*
X404148*
X374550Y503983D02*
G01X373217D01*
X373883*
Y501983*
X372550D02*
G01Y503983D01*
X371551*
X371218Y503649*
Y502983*
X371551Y502650*
X372550*
X369218Y501983D02*
G01X370551D01*
X369218Y503316*
Y503649*
X369551Y503983*
X370218*
X370551Y503649*
X368552D02*
G01X368219Y503983D01*
X367552*
X367219Y503649*
Y503316*
X367552Y502983*
X367885*
X367552*
X367219Y502650*
Y502316*
X367552Y501983*
X368219*
X368552Y502316*
X366552Y501983D02*
G01Y503316D01*
X365886Y503983*
X365219Y503316*
Y501983*
Y502983*
X366552*
X510062Y443247D02*
G01X508729D01*
X509395*
Y441247*
X508063D02*
G01Y443247D01*
X507063*
X506730Y442913*
Y442247*
X507063Y441914*
X508063*
X506063Y441247D02*
G01X505397D01*
X505730*
Y443247*
X506063Y442913*
X504397Y441247D02*
G01X503731D01*
X504064*
Y443247*
X504397Y442913*
X501398Y443247D02*
G01X502731D01*
Y441247*
X501398*
X502731Y442247D02*
G01X502064D01*
X460480Y442379D02*
G01X459147D01*
X459813*
Y440379*
X458481D02*
G01Y442379D01*
X457481*
X457148Y442045*
Y441379*
X457481Y441046*
X458481*
X456481Y440379D02*
G01X455815D01*
X456148*
Y442379*
X456481Y442045*
X454815Y440379D02*
G01X454149D01*
X454482*
Y442379*
X454815Y442045*
X453149Y442379D02*
G01Y440379D01*
X452149*
X451816Y440712*
Y442045*
X452149Y442379*
X453149*
X422988Y441739D02*
G01X421655D01*
X422321*
Y439739*
X420988D02*
G01Y441739D01*
X419989*
X419656Y441405*
Y440739*
X419989Y440406*
X420988*
X418989Y439739D02*
G01X418323D01*
X418656*
Y441739*
X418989Y441405*
X417323Y439739D02*
G01X416657D01*
X416990*
Y441739*
X417323Y441405*
X414324D02*
G01X414657Y441739D01*
X415324*
X415657Y441405*
Y440072*
X415324Y439739*
X414657*
X414324Y440072*
X368111Y444561D02*
G01Y443228D01*
Y443895*
X370111*
Y442562D02*
G01X368111D01*
Y441562*
X368445Y441229*
X369111*
X369444Y441562*
Y442562*
X370111Y440562D02*
G01Y439896D01*
Y440229*
X368111*
X368445Y440562*
X370111Y438896D02*
G01Y438230D01*
Y438563*
X368111*
X368445Y438896*
X368111Y437230D02*
G01X370111D01*
Y436230*
X369778Y435897*
X369444*
X369111Y436230*
Y437230*
Y436230*
X368778Y435897*
X368445*
X368111Y436230*
Y437230*
X336347Y431886D02*
G01Y433219D01*
Y432552*
X334347*
Y433885D02*
G01X336347D01*
Y434885*
X336014Y435218*
X335347*
X335014Y434885*
Y433885*
X334347Y435885D02*
G01Y436551D01*
Y436218*
X336347*
X336014Y435885*
X334347Y437551D02*
G01Y438217D01*
Y437884*
X336347*
X336014Y437551*
X334347Y439217D02*
G01X335680D01*
X336347Y439883*
X335680Y440550*
X334347*
X335347*
Y439217*
X617000Y56908D02*
G01X615667D01*
X616333*
Y54909*
X615000D02*
G01Y56908D01*
X614001*
X613668Y56575*
Y55909*
X614001Y55576*
X615000*
X612002Y54909D02*
G01Y56908D01*
X613001Y55909*
X611668*
X611002Y54909D02*
G01X610335D01*
X610669*
Y56908*
X611002Y56575*
X609336Y56908D02*
G01Y54909D01*
Y55909*
X608003*
Y56908*
Y54909*
X534300Y56008D02*
G01X532967D01*
X533633*
Y54009*
X532300D02*
G01Y56008D01*
X531301*
X530968Y55675*
Y55009*
X531301Y54676*
X532300*
X529302Y54009D02*
G01Y56008D01*
X530301Y55009*
X528968*
X528302Y54009D02*
G01X527635D01*
X527969*
Y56008*
X528302Y55675*
X525303D02*
G01X525636Y56008D01*
X526302*
X526636Y55675*
Y54342*
X526302Y54009*
X525636*
X525303Y54342*
Y55009*
X525969*
X451986Y50898D02*
G01X450653D01*
X451319*
Y48899*
X449986D02*
G01Y50898D01*
X448987*
X448654Y50565*
Y49899*
X448987Y49566*
X449986*
X446987Y48899D02*
G01Y50898D01*
X447987Y49899*
X446654*
X445988Y48899D02*
G01X445321D01*
X445655*
Y50898*
X445988Y50565*
X442989Y50898D02*
G01X444322D01*
Y49899*
X443655*
X444322*
Y48899*
X367770Y62270D02*
G01X366438D01*
X367104*
Y60270*
X365771D02*
G01Y62270D01*
X364771*
X364438Y61936*
Y61270*
X364771Y60937*
X365771*
X362772Y60270D02*
G01Y62270D01*
X363772Y61270*
X362439*
X361772Y60270D02*
G01X361106D01*
X361439*
Y62270*
X361772Y61936*
X358773Y62270D02*
G01X360106D01*
Y60270*
X358773*
X360106Y61270D02*
G01X359440D01*
X292506Y56266D02*
G01X291173D01*
X291839*
Y54266*
X290506D02*
G01Y56266D01*
X289507*
X289173Y55933*
Y55266*
X289507Y54933*
X290506*
X287507Y54266D02*
G01Y56266D01*
X288507Y55266*
X287174*
X286507Y54266D02*
G01X285841D01*
X286174*
Y56266*
X286507Y55933*
X284841Y56266D02*
G01Y54266D01*
X283842*
X283508Y54600*
Y55933*
X283842Y56266*
X284841*
X207931Y55802D02*
G01X206598D01*
X207265*
Y53803*
X205932D02*
G01Y55802D01*
X204932*
X204599Y55469*
Y54802*
X204932Y54469*
X205932*
X202933Y53803D02*
G01Y55802D01*
X203932Y54802*
X202599*
X201933Y53803D02*
G01X201267D01*
X201600*
Y55802*
X201933Y55469*
X198934D02*
G01X199267Y55802D01*
X199934*
X200267Y55469*
Y54136*
X199934Y53803*
X199267*
X198934Y54136*
X129390Y56188D02*
G01X128057D01*
X128724*
Y54188*
X127391D02*
G01Y56188D01*
X126391*
X126058Y55855*
Y55188*
X126391Y54855*
X127391*
X124392Y54188D02*
G01Y56188D01*
X125391Y55188*
X124059*
X123392Y54188D02*
G01X122726D01*
X123059*
Y56188*
X123392Y55855*
X121726Y56188D02*
G01Y54188D01*
X120726*
X120393Y54522*
Y54855*
X120726Y55188*
X121726*
X120726*
X120393Y55521*
Y55855*
X120726Y56188*
X121726*
X48128Y68902D02*
G01X46795D01*
X47461*
Y66902*
X46128D02*
G01Y68902D01*
X45128*
X44795Y68569*
Y67902*
X45128Y67569*
X46128*
X43129Y66902D02*
G01Y68902D01*
X44129Y67902*
X42796*
X42130Y66902D02*
G01X41463D01*
X41796*
Y68902*
X42130Y68569*
X40463Y66902D02*
G01Y68235D01*
X39797Y68902*
X39130Y68235*
Y66902*
Y67902*
X40463*
X600300Y60808D02*
G01X598967D01*
X599633*
Y58809*
X598301D02*
G01Y60808D01*
X597301*
X596968Y60475*
Y59809*
X597301Y59476*
X598301*
X596301Y60475D02*
G01X595968Y60808D01*
X595301*
X594968Y60475*
Y60142*
X595301Y59809*
X595635*
X595301*
X594968Y59476*
Y59142*
X595301Y58809*
X595968*
X596301Y59142*
X593302Y58809D02*
G01Y60808D01*
X594302Y59809*
X592969*
X592302Y60808D02*
G01Y58809D01*
Y59809*
X590969*
Y60808*
Y58809*
X518900Y61108D02*
G01X517567D01*
X518233*
Y59109*
X516901D02*
G01Y61108D01*
X515901*
X515568Y60775*
Y60109*
X515901Y59776*
X516901*
X514901Y60775D02*
G01X514568Y61108D01*
X513901*
X513568Y60775*
Y60442*
X513901Y60109*
X514235*
X513901*
X513568Y59776*
Y59442*
X513901Y59109*
X514568*
X514901Y59442*
X511902Y59109D02*
G01Y61108D01*
X512902Y60109*
X511569*
X509570Y60775D02*
G01X509903Y61108D01*
X510569*
X510902Y60775*
Y59442*
X510569Y59109*
X509903*
X509570Y59442*
Y60109*
X510236*
X437400Y60308D02*
G01X436067D01*
X436733*
Y58309*
X435400D02*
G01Y60308D01*
X434401*
X434068Y59975*
Y59309*
X434401Y58976*
X435400*
X433401Y59975D02*
G01X433068Y60308D01*
X432402*
X432068Y59975*
Y59642*
X432402Y59309*
X432735*
X432402*
X432068Y58976*
Y58642*
X432402Y58309*
X433068*
X433401Y58642*
X430402Y58309D02*
G01Y60308D01*
X431402Y59309*
X430069*
X428069Y60308D02*
G01X429402D01*
Y59309*
X428736*
X429402*
Y58309*
X367752Y48044D02*
G01X366419D01*
X367085*
Y46044*
X365752D02*
G01Y48044D01*
X364753*
X364419Y47710*
Y47044*
X364753Y46711*
X365752*
X363753Y47710D02*
G01X363420Y48044D01*
X362753*
X362420Y47710*
Y47377*
X362753Y47044*
X363086*
X362753*
X362420Y46711*
Y46377*
X362753Y46044*
X363420*
X363753Y46377*
X360754Y46044D02*
G01Y48044D01*
X361753Y47044*
X360421*
X358421Y48044D02*
G01X359754D01*
Y46044*
X358421*
X359754Y47044D02*
G01X359088D01*
X275207Y61384D02*
G01X273874D01*
X274540*
Y59385*
X273207D02*
G01Y61384D01*
X272208*
X271874Y61051*
Y60384*
X272208Y60051*
X273207*
X271208Y61051D02*
G01X270875Y61384D01*
X270208*
X269875Y61051*
Y60717*
X270208Y60384*
X270542*
X270208*
X269875Y60051*
Y59718*
X270208Y59385*
X270875*
X271208Y59718*
X268209Y59385D02*
G01Y61384D01*
X269209Y60384*
X267876*
X267209Y61384D02*
G01Y59385D01*
X266210*
X265876Y59718*
Y61051*
X266210Y61384*
X267209*
X192390Y62168D02*
G01X191057D01*
X191724*
Y60169*
X190391D02*
G01Y62168D01*
X189391*
X189058Y61835*
Y61168*
X189391Y60835*
X190391*
X188391Y61835D02*
G01X188058Y62168D01*
X187392*
X187059Y61835*
Y61502*
X187392Y61168*
X187725*
X187392*
X187059Y60835*
Y60502*
X187392Y60169*
X188058*
X188391Y60502*
X185392Y60169D02*
G01Y62168D01*
X186392Y61168*
X185059*
X183060Y61835D02*
G01X183393Y62168D01*
X184060*
X184393Y61835*
Y60502*
X184060Y60169*
X183393*
X183060Y60502*
X113403Y61072D02*
G01X112070D01*
X112737*
Y59073*
X111404D02*
G01Y61072D01*
X110404*
X110071Y60739*
Y60072*
X110404Y59739*
X111404*
X109405Y60739D02*
G01X109071Y61072D01*
X108405*
X108072Y60739*
Y60405*
X108405Y60072*
X108738*
X108405*
X108072Y59739*
Y59406*
X108405Y59073*
X109071*
X109405Y59406*
X106406Y59073D02*
G01Y61072D01*
X107405Y60072*
X106072*
X105406Y61072D02*
G01Y59073D01*
X104406*
X104073Y59406*
Y59739*
X104406Y60072*
X105406*
X104406*
X104073Y60405*
Y60739*
X104406Y61072*
X105406*
X43663Y49762D02*
G01X42330D01*
X42996*
Y47763*
X41663D02*
G01Y49762D01*
X40664*
X40330Y49429*
Y48762*
X40664Y48429*
X41663*
X39664Y49429D02*
G01X39331Y49762D01*
X38664*
X38331Y49429*
Y49095*
X38664Y48762*
X38998*
X38664*
X38331Y48429*
Y48096*
X38664Y47763*
X39331*
X39664Y48096*
X36665Y47763D02*
G01Y49762D01*
X37665Y48762*
X36332*
X35665Y47763D02*
G01Y49095D01*
X34999Y49762*
X34332Y49095*
Y47763*
Y48762*
X35665*
X661641Y62086D02*
G01X660308D01*
X660975*
Y60087*
X659642D02*
G01Y62086D01*
X658642*
X658309Y61753*
Y61086*
X658642Y60753*
X659642*
X657642Y61753D02*
G01X657309Y62086D01*
X656643*
X656309Y61753*
Y61419*
X656643Y61086*
X656976*
X656643*
X656309Y60753*
Y60420*
X656643Y60087*
X657309*
X657642Y60420*
X655643Y62086D02*
G01Y60087D01*
Y61086*
X654310*
Y62086*
Y60087*
X577167Y59122D02*
G01X575834D01*
X576501*
Y57122*
X575168D02*
G01Y59122D01*
X574168*
X573835Y58789*
Y58122*
X574168Y57789*
X575168*
X573168Y58789D02*
G01X572835Y59122D01*
X572169*
X571836Y58789*
Y58455*
X572169Y58122*
X572502*
X572169*
X571836Y57789*
Y57456*
X572169Y57122*
X572835*
X573168Y57456*
X569836Y58789D02*
G01X570169Y59122D01*
X570836*
X571169Y58789*
Y57456*
X570836Y57122*
X570169*
X569836Y57456*
Y58122*
X570502*
X493317Y59512D02*
G01X491984D01*
X492651*
Y57512*
X491318D02*
G01Y59512D01*
X490318*
X489985Y59179*
Y58512*
X490318Y58179*
X491318*
X489318Y59179D02*
G01X488985Y59512D01*
X488319*
X487985Y59179*
Y58845*
X488319Y58512*
X488652*
X488319*
X487985Y58179*
Y57846*
X488319Y57512*
X488985*
X489318Y57846*
X485986Y59512D02*
G01X487319D01*
Y58512*
X486652*
X487319*
Y57512*
X414727Y61460D02*
G01X413394D01*
X414060*
Y59460*
X412727D02*
G01Y61460D01*
X411728*
X411394Y61126*
Y60460*
X411728Y60127*
X412727*
X410728Y61126D02*
G01X410395Y61460D01*
X409728*
X409395Y61126*
Y60793*
X409728Y60460*
X410062*
X409728*
X409395Y60127*
Y59793*
X409728Y59460*
X410395*
X410728Y59793*
X407396Y61460D02*
G01X408729D01*
Y59460*
X407396*
X408729Y60460D02*
G01X408062D01*
X335428Y62866D02*
G01X334095D01*
X334761*
Y60866*
X333428D02*
G01Y62866D01*
X332429*
X332096Y62533*
Y61866*
X332429Y61533*
X333428*
X331429Y62533D02*
G01X331096Y62866D01*
X330429*
X330096Y62533*
Y62199*
X330429Y61866*
X330763*
X330429*
X330096Y61533*
Y61200*
X330429Y60866*
X331096*
X331429Y61200*
X329430Y62866D02*
G01Y60866D01*
X328430*
X328097Y61200*
Y62533*
X328430Y62866*
X329430*
X247031Y63260D02*
G01X245698D01*
X246365*
Y61261*
X245032D02*
G01Y63260D01*
X244032*
X243699Y62927*
Y62260*
X244032Y61927*
X245032*
X243033Y62927D02*
G01X242699Y63260D01*
X242033*
X241700Y62927*
Y62594*
X242033Y62260*
X242366*
X242033*
X241700Y61927*
Y61594*
X242033Y61261*
X242699*
X243033Y61594*
X239700Y62927D02*
G01X240034Y63260D01*
X240700*
X241033Y62927*
Y61594*
X240700Y61261*
X240034*
X239700Y61594*
X167710Y62632D02*
G01X166377D01*
X167044*
Y60633*
X165711D02*
G01Y62632D01*
X164711*
X164378Y62299*
Y61632*
X164711Y61299*
X165711*
X163712Y62299D02*
G01X163378Y62632D01*
X162712*
X162379Y62299*
Y61965*
X162712Y61632*
X163045*
X162712*
X162379Y61299*
Y60966*
X162712Y60633*
X163378*
X163712Y60966*
X161712Y62632D02*
G01Y60633D01*
X160713*
X160380Y60966*
Y61299*
X160713Y61632*
X161712*
X160713*
X160380Y61965*
Y62299*
X160713Y62632*
X161712*
X84476Y61384D02*
G01X83143D01*
X83809*
Y59385*
X82476D02*
G01Y61384D01*
X81477*
X81144Y61051*
Y60384*
X81477Y60051*
X82476*
X80477Y61051D02*
G01X80144Y61384D01*
X79477*
X79144Y61051*
Y60717*
X79477Y60384*
X79811*
X79477*
X79144Y60051*
Y59718*
X79477Y59385*
X80144*
X80477Y59718*
X78478Y59385D02*
G01Y60717D01*
X77811Y61384*
X77145Y60717*
Y59385*
Y60384*
X78478*
X686634Y154621D02*
G01X685301D01*
X685967*
Y152621*
X684635D02*
G01Y154621D01*
X683635*
X683302Y154287*
Y153621*
X683635Y153288*
X684635*
X682635Y154287D02*
G01X682302Y154621D01*
X681636*
X681302Y154287*
Y153954*
X681636Y153621*
X681969*
X681636*
X681302Y153288*
Y152954*
X681636Y152621*
X682302*
X682635Y152954*
X680636Y154287D02*
G01X680303Y154621D01*
X679636*
X679303Y154287*
Y153954*
X679636Y153621*
X679969*
X679636*
X679303Y153288*
Y152954*
X679636Y152621*
X680303*
X680636Y152954*
X711421Y327809D02*
G01X710089D01*
X710755*
Y325810*
X709422D02*
G01Y327809D01*
X708422*
X708089Y327476*
Y326810*
X708422Y326476*
X709422*
X706090Y327809D02*
G01X707423D01*
Y326810*
X706756Y327143*
X706423*
X706090Y326810*
Y326143*
X706423Y325810*
X707089*
X707423Y326143*
X705423Y325810D02*
G01X704757D01*
X705090*
Y327809*
X705423Y327476*
X661795Y46514D02*
G01X660462D01*
X661128*
Y44515*
X659795D02*
G01Y46514D01*
X658796*
X658462Y46181*
Y45514*
X658796Y45181*
X659795*
X657796Y44515D02*
G01X657129D01*
X657463*
Y46514*
X657796Y46181*
X654797Y44515D02*
G01X656130D01*
X654797Y45848*
Y46181*
X655130Y46514*
X655796*
X656130Y46181*
X654130Y46514D02*
G01Y44515D01*
Y45514*
X652798*
Y46514*
Y44515*
X578413Y45968D02*
G01X577080D01*
X577746*
Y43969*
X576413D02*
G01Y45968D01*
X575413*
X575080Y45635*
Y44968*
X575413Y44635*
X576413*
X574414Y43969D02*
G01X573747D01*
X574081*
Y45968*
X574414Y45635*
X571415Y43969D02*
G01X572748D01*
X571415Y45302*
Y45635*
X571748Y45968*
X572415*
X572748Y45635*
X569415D02*
G01X569749Y45968D01*
X570415*
X570748Y45635*
Y44302*
X570415Y43969*
X569749*
X569415Y44302*
Y44968*
X570082*
X496747Y46358D02*
G01X495414D01*
X496080*
Y44359*
X494747D02*
G01Y46358D01*
X493747*
X493414Y46025*
Y45359*
X493747Y45025*
X494747*
X492748Y44359D02*
G01X492081D01*
X492415*
Y46358*
X492748Y46025*
X489749Y44359D02*
G01X491082D01*
X489749Y45692*
Y46025*
X490082Y46358*
X490749*
X491082Y46025*
X487749Y46358D02*
G01X489082D01*
Y45359*
X488416*
X489082*
Y44359*
X414802Y47058D02*
G01X413469D01*
X414136*
Y45059*
X412803D02*
G01Y47058D01*
X411803*
X411470Y46725*
Y46058*
X411803Y45725*
X412803*
X410803Y45059D02*
G01X410137D01*
X410470*
Y47058*
X410803Y46725*
X407804Y45059D02*
G01X409137D01*
X407804Y46391*
Y46725*
X408138Y47058*
X408804*
X409137Y46725*
X405805Y47058D02*
G01X407138D01*
Y45059*
X405805*
X407138Y46058D02*
G01X406471D01*
X337609Y46748D02*
G01X336276D01*
X336943*
Y44749*
X335610D02*
G01Y46748D01*
X334610*
X334277Y46415*
Y45749*
X334610Y45415*
X335610*
X333610Y44749D02*
G01X332944D01*
X333277*
Y46748*
X333610Y46415*
X330611Y44749D02*
G01X331944D01*
X330611Y46082*
Y46415*
X330945Y46748*
X331611*
X331944Y46415*
X329945Y46748D02*
G01Y44749D01*
X328945*
X328612Y45082*
Y46415*
X328945Y46748*
X329945*
X254049Y47220D02*
G01X252716D01*
X253382*
Y45221*
X252049D02*
G01Y47220D01*
X251050*
X250716Y46887*
Y46221*
X251050Y45887*
X252049*
X250050Y45221D02*
G01X249384D01*
X249717*
Y47220*
X250050Y46887*
X247051Y45221D02*
G01X248384D01*
X247051Y46554*
Y46887*
X247384Y47220*
X248051*
X248384Y46887*
X245052D02*
G01X245385Y47220D01*
X246051*
X246385Y46887*
Y45554*
X246051Y45221*
X245385*
X245052Y45554*
X171530Y47138D02*
G01X170197D01*
X170863*
Y45139*
X169531D02*
G01Y47138D01*
X168531*
X168198Y46805*
Y46139*
X168531Y45805*
X169531*
X167531Y45139D02*
G01X166865D01*
X167198*
Y47138*
X167531Y46805*
X164532Y45139D02*
G01X165865D01*
X164532Y46472*
Y46805*
X164865Y47138*
X165532*
X165865Y46805*
X163866Y47138D02*
G01Y45139D01*
X162866*
X162533Y45472*
Y45805*
X162866Y46139*
X163866*
X162866*
X162533Y46472*
Y46805*
X162866Y47138*
X163866*
X90557Y47840D02*
G01X89224D01*
X89891*
Y45841*
X88558D02*
G01Y47840D01*
X87558*
X87225Y47507*
Y46841*
X87558Y46507*
X88558*
X86559Y45841D02*
G01X85892D01*
X86225*
Y47840*
X86559Y47507*
X83560Y45841D02*
G01X84892D01*
X83560Y47174*
Y47507*
X83893Y47840*
X84559*
X84892Y47507*
X82893Y45841D02*
G01Y47174D01*
X82227Y47840*
X81560Y47174*
Y45841*
Y46841*
X82893*
X411528Y427309D02*
G01X410195D01*
X410861*
Y425309*
X409528D02*
G01Y427309D01*
X408529*
X408196Y426975*
Y426309*
X408529Y425976*
X409528*
X407529Y426975D02*
G01X407196Y427309D01*
X406529*
X406196Y426975*
Y426642*
X406529Y426309*
X406196Y425976*
Y425642*
X406529Y425309*
X407196*
X407529Y425642*
Y425976*
X407196Y426309*
X407529Y426642*
Y426975*
X407196Y426309D02*
G01X406529D01*
X404197Y425309D02*
G01X405530D01*
X404197Y426642*
Y426975*
X404530Y427309*
X405197*
X405530Y426975*
X384150Y380197D02*
G01X382817D01*
X383483*
Y378197*
X382151D02*
G01Y380197D01*
X381151*
X380818Y379863*
Y379197*
X381151Y378864*
X382151*
X380151Y378197D02*
G01X379485D01*
X379818*
Y380197*
X380151Y379863*
X378485Y378530D02*
G01X378152Y378197D01*
X377485*
X377152Y378530*
Y379863*
X377485Y380197*
X378152*
X378485Y379863*
Y379530*
X378152Y379197*
X377152*
X426900Y335953D02*
G01X425567D01*
X426233*
Y333953*
X424900D02*
G01Y335953D01*
X423901*
X423568Y335619*
Y334953*
X423901Y334620*
X424900*
X422901Y333953D02*
G01X422235D01*
X422568*
Y335953*
X422901Y335619*
X421235D02*
G01X420902Y335953D01*
X420235*
X419902Y335619*
Y335286*
X420235Y334953*
X419902Y334620*
Y334286*
X420235Y333953*
X420902*
X421235Y334286*
Y334620*
X420902Y334953*
X421235Y335286*
Y335619*
X420902Y334953D02*
G01X420235D01*
X472000Y316153D02*
G01X470667D01*
X471333*
Y314153*
X470000D02*
G01Y316153D01*
X469001*
X468668Y315819*
Y315153*
X469001Y314820*
X470000*
X468001Y314153D02*
G01X467335D01*
X467668*
Y316153*
X468001Y315819*
X438300Y386453D02*
G01X436967D01*
X437633*
Y384453*
X436301D02*
G01Y386453D01*
X435301*
X434968Y386119*
Y385453*
X435301Y385120*
X436301*
X434301Y386119D02*
G01X433968Y386453D01*
X433301*
X432968Y386119*
Y385786*
X433301Y385453*
X432968Y385120*
Y384786*
X433301Y384453*
X433968*
X434301Y384786*
Y385120*
X433968Y385453*
X434301Y385786*
Y386119*
X433968Y385453D02*
G01X433301D01*
X450500Y357453D02*
G01X449167D01*
X449833*
Y355453*
X448501D02*
G01Y357453D01*
X447501*
X447168Y357119*
Y356453*
X447501Y356120*
X448501*
X445168Y355453D02*
G01X446501D01*
X445168Y356786*
Y357119*
X445501Y357453*
X446168*
X446501Y357119*
X483800Y331953D02*
G01X482467D01*
X483133*
Y329953*
X481800D02*
G01Y331953D01*
X480801*
X480468Y331619*
Y330953*
X480801Y330620*
X481800*
X479801Y329953D02*
G01X479135D01*
X479468*
Y331953*
X479801Y331619*
X537127Y432677D02*
G01X535794D01*
X536461*
Y430678*
X535128D02*
G01Y432677D01*
X534128*
X533795Y432344*
Y431677*
X534128Y431344*
X535128*
X533129Y432677D02*
G01X531796D01*
Y432344*
X533129Y431011*
Y430678*
X47200Y423953D02*
G01X45867D01*
X46533*
Y421953*
X45200D02*
G01Y423953D01*
X44201*
X43868Y423619*
Y422953*
X44201Y422620*
X45200*
X41868Y423953D02*
G01X42535Y423619D01*
X43201Y422953*
Y422286*
X42868Y421953*
X42202*
X41868Y422286*
Y422620*
X42202Y422953*
X43201*
X40900Y416153D02*
G01X39567D01*
X40233*
Y414153*
X38901D02*
G01Y416153D01*
X37901*
X37568Y415819*
Y415153*
X37901Y414820*
X38901*
X35568Y416153D02*
G01X36901D01*
Y415153*
X36235Y415486*
X35902*
X35568Y415153*
Y414486*
X35902Y414153*
X36568*
X36901Y414486*
X599114Y430298D02*
G01X597781D01*
X598447*
Y428298*
X597114D02*
G01Y430298D01*
X596115*
X595782Y429964*
Y429298*
X596115Y428965*
X597114*
X593782Y430298D02*
G01X594449Y429964D01*
X595115Y429298*
Y428631*
X594782Y428298*
X594115*
X593782Y428631*
Y428965*
X594115Y429298*
X595115*
X593116Y428631D02*
G01X592782Y428298D01*
X592116*
X591783Y428631*
Y429964*
X592116Y430298*
X592782*
X593116Y429964*
Y429631*
X592782Y429298*
X591783*
X340625Y335226D02*
G01X339292D01*
X339959*
Y333226*
X338626D02*
G01Y335226D01*
X337626*
X337293Y334893*
Y334226*
X337626Y333893*
X338626*
X335627Y333226D02*
G01Y335226D01*
X336626Y334226*
X335293*
X285405Y328839D02*
G01X284072D01*
X284738*
Y326839*
X283405D02*
G01Y328839D01*
X282406*
X282073Y328506*
Y327839*
X282406Y327506*
X283405*
X281406Y326839D02*
G01X280740D01*
X281073*
Y328839*
X281406Y328506*
X279740D02*
G01X279407Y328839D01*
X278740*
X278407Y328506*
Y327173*
X278740Y326839*
X279407*
X279740Y327173*
Y328506*
X241071Y335882D02*
G01X239738D01*
X240404*
Y333883*
X239071D02*
G01Y335882D01*
X238072*
X237738Y335549*
Y334883*
X238072Y334550*
X239071*
X237072Y334216D02*
G01X236739Y333883D01*
X236072*
X235739Y334216*
Y335549*
X236072Y335882*
X236739*
X237072Y335549*
Y335216*
X236739Y334883*
X235739*
X706353Y434815D02*
G01X705020D01*
X705687*
Y432816*
X704354D02*
G01Y434815D01*
X703354*
X703021Y434482*
Y433815*
X703354Y433482*
X704354*
X701355Y432816D02*
G01Y434815D01*
X702355Y433815*
X701022*
X700355Y434482D02*
G01X700022Y434815D01*
X699355*
X699022Y434482*
Y434149*
X699355Y433815*
X699689*
X699355*
X699022Y433482*
Y433149*
X699355Y432816*
X700022*
X700355Y433149*
X706065Y305289D02*
G01X704732D01*
X705398*
Y303289*
X704066D02*
G01Y305289D01*
X703066*
X702733Y304955*
Y304289*
X703066Y303956*
X704066*
X701067Y303289D02*
G01Y305289D01*
X702066Y304289*
X700733*
X700067Y304955D02*
G01X699734Y305289D01*
X699067*
X698734Y304955*
Y304622*
X699067Y304289*
X698734Y303956*
Y303622*
X699067Y303289*
X699734*
X700067Y303622*
Y303956*
X699734Y304289*
X700067Y304622*
Y304955*
X699734Y304289D02*
G01X699067D01*
X709800Y359605D02*
G01X708467D01*
X709133*
Y357605*
X707800D02*
G01Y359605D01*
X706801*
X706468Y359271*
Y358605*
X706801Y358272*
X707800*
X704802Y357605D02*
G01Y359605D01*
X705801Y358605*
X704468*
X702802Y357605D02*
G01Y359605D01*
X703802Y358605*
X702469*
X48245Y383468D02*
G01X46912D01*
X47578*
Y381469*
X46246D02*
G01Y383468D01*
X45246*
X44913Y383135*
Y382469*
X45246Y382135*
X46246*
X42913Y383468D02*
G01X43580Y383135D01*
X44246Y382469*
Y381802*
X43913Y381469*
X43247*
X42913Y381802*
Y382135*
X43247Y382469*
X44246*
X42247Y383135D02*
G01X41914Y383468D01*
X41247*
X40914Y383135*
Y381802*
X41247Y381469*
X41914*
X42247Y381802*
Y383135*
X50956Y404022D02*
G01X51623Y403689D01*
X52289Y403022*
Y402356*
X51956Y402023*
X51290*
X50956Y402356*
Y402689*
X51290Y403022*
X52289*
X50290Y402023D02*
G01X49623D01*
X49957*
Y404022*
X50290Y403689*
X714168Y228955D02*
G01X712835D01*
X713501*
Y226955*
X712168D02*
G01Y228955D01*
X711169*
X710836Y228621*
Y227955*
X711169Y227622*
X712168*
X710169Y228955D02*
G01X708836D01*
Y228621*
X710169Y227288*
Y226955*
X708170Y227288D02*
G01X707837Y226955D01*
X707170*
X706837Y227288*
Y228621*
X707170Y228955*
X707837*
X708170Y228621*
Y228288*
X707837Y227955*
X706837*
X622598Y326168D02*
G01X621265D01*
X621931*
Y324169*
X620599D02*
G01Y326168D01*
X619599*
X619266Y325835*
Y325169*
X619599Y324835*
X620599*
X617599Y324169D02*
G01Y326168D01*
X618599Y325169*
X617266*
X615267Y326168D02*
G01X615933Y325835D01*
X616600Y325169*
Y324502*
X616267Y324169*
X615600*
X615267Y324502*
Y324835*
X615600Y325169*
X616600*
X482105Y417362D02*
G01X483438D01*
X482772*
Y419361*
X484105D02*
G01Y417362D01*
X485105*
X485438Y417695*
Y418362*
X485105Y418695*
X484105*
X487104Y419361D02*
G01Y417362D01*
X486104Y418362*
X487437*
X488104Y417362D02*
G01X489436D01*
Y417695*
X488104Y419028*
Y419361*
X558945Y463092D02*
G01Y461759D01*
Y462426*
X560945*
Y461093D02*
G01X558945D01*
Y460093*
X559279Y459760*
X559945*
X560278Y460093*
Y461093*
X559279Y459093D02*
G01X558945Y458760D01*
Y458094*
X559279Y457761*
X559612*
X559945Y458094*
Y458427*
Y458094*
X560278Y457761*
X560611*
X560945Y458094*
Y458760*
X560611Y459093*
X558945Y455761D02*
G01X559279Y456428D01*
X559945Y457094*
X560611*
X560945Y456761*
Y456094*
X560611Y455761*
X560278*
X559945Y456094*
Y457094*
X226096Y317079D02*
G01X224763D01*
X225429*
Y315080*
X224096D02*
G01Y317079D01*
X223097*
X222763Y316746*
Y316080*
X223097Y315746*
X224096*
X222097Y317079D02*
G01X220764D01*
Y316746*
X222097Y315413*
Y315080*
X220098Y316746D02*
G01X219765Y317079D01*
X219098*
X218765Y316746*
Y316413*
X219098Y316080*
X218765Y315746*
Y315413*
X219098Y315080*
X219765*
X220098Y315413*
Y315746*
X219765Y316080*
X220098Y316413*
Y316746*
X219765Y316080D02*
G01X219098D01*
X39589Y278016D02*
G01Y276683D01*
Y277350*
X41589*
Y276017D02*
G01X39589D01*
Y275017*
X39923Y274684*
X40589*
X40922Y275017*
Y276017*
X39589Y274017D02*
G01Y272684D01*
X39923*
X41256Y274017*
X41589*
Y271018D02*
G01X39589D01*
X40589Y272018*
Y270685*
X202586Y331707D02*
G01Y333040D01*
Y332374*
X200587*
Y333707D02*
G01X202586D01*
Y334707*
X202253Y335040*
X201586*
X201253Y334707*
Y333707*
X202586Y335706D02*
G01Y337039D01*
X202253*
X200920Y335706*
X200587*
X202586Y339039D02*
G01Y337706D01*
X201586*
X201920Y338372*
Y338705*
X201586Y339039*
X200920*
X200587Y338705*
Y338039*
X200920Y337706*
X202401Y319949D02*
G01Y321282D01*
Y320615*
X200401*
Y321948D02*
G01X202401D01*
Y322948*
X202068Y323281*
X201401*
X201068Y322948*
Y321948*
X202401Y323948D02*
G01Y325281D01*
X202068*
X200735Y323948*
X200401*
X202401Y327280D02*
G01X202068Y326613D01*
X201401Y325947*
X200735*
X200401Y326280*
Y326947*
X200735Y327280*
X201068*
X201401Y326947*
Y325947*
X230069Y319546D02*
G01Y320879D01*
Y320213*
X228070*
Y321546D02*
G01X230069D01*
Y322545*
X229736Y322878*
X229069*
X228736Y322545*
Y321546*
X230069Y323545D02*
G01Y324878D01*
X229736*
X228403Y323545*
X228070*
X230069Y325544D02*
G01Y326877D01*
X229736*
X228403Y325544*
X228070*
X497883Y364473D02*
G01X499216D01*
X498549*
Y366473*
X499882D02*
G01Y364473D01*
X500882*
X501215Y364806*
Y365473*
X500882Y365806*
X499882*
X502881Y366473D02*
G01Y364473D01*
X501881Y365473*
X503214*
X503881Y364806D02*
G01X504214Y364473D01*
X504880*
X505214Y364806*
Y366139*
X504880Y366473*
X504214*
X503881Y366139*
Y364806*
X545914Y368102D02*
G01X547247D01*
X546581*
Y370101*
X547914D02*
G01Y368102D01*
X548913*
X549247Y368435*
Y369101*
X548913Y369435*
X547914*
X549913Y368435D02*
G01X550246Y368102D01*
X550913*
X551246Y368435*
Y368768*
X550913Y369101*
X550580*
X550913*
X551246Y369435*
Y369768*
X550913Y370101*
X550246*
X549913Y369768*
X551912D02*
G01X552246Y370101D01*
X552912*
X553245Y369768*
Y368435*
X552912Y368102*
X552246*
X551912Y368435*
Y368768*
X552246Y369101*
X553245*
X591006Y362881D02*
G01X589673D01*
X590339*
Y360881*
X589007D02*
G01Y362881D01*
X588007*
X587674Y362547*
Y361881*
X588007Y361548*
X589007*
X587007Y362547D02*
G01X586674Y362881D01*
X586008*
X585674Y362547*
Y362214*
X586008Y361881*
X586341*
X586008*
X585674Y361548*
Y361214*
X586008Y360881*
X586674*
X587007Y361214*
X585008Y362547D02*
G01X584675Y362881D01*
X584008*
X583675Y362547*
Y362214*
X584008Y361881*
X583675Y361548*
Y361214*
X584008Y360881*
X584675*
X585008Y361214*
Y361548*
X584675Y361881*
X585008Y362214*
Y362547*
X584675Y361881D02*
G01X584008D01*
X709176Y475201D02*
G01X707843D01*
X708509*
Y473201*
X707177D02*
G01Y475201D01*
X706177*
X705844Y474867*
Y474201*
X706177Y473868*
X707177*
X705177Y474867D02*
G01X704844Y475201D01*
X704178*
X703844Y474867*
Y474534*
X704178Y474201*
X704511*
X704178*
X703844Y473868*
Y473534*
X704178Y473201*
X704844*
X705177Y473534*
X703178Y475201D02*
G01X701845D01*
Y474867*
X703178Y473534*
Y473201*
X716586Y388075D02*
G01X715253D01*
X715919*
Y386075*
X714586D02*
G01Y388075D01*
X713587*
X713254Y387741*
Y387075*
X713587Y386742*
X714586*
X711254Y388075D02*
G01X712587D01*
Y387075*
X711921Y387408*
X711588*
X711254Y387075*
Y386408*
X711588Y386075*
X712254*
X712587Y386408*
X709255Y388075D02*
G01X710588D01*
Y387075*
X709921Y387408*
X709588*
X709255Y387075*
Y386408*
X709588Y386075*
X710255*
X710588Y386408*
X268788Y326377D02*
G01X267455D01*
X268121*
Y324377*
X266789D02*
G01Y326377D01*
X265789*
X265456Y326043*
Y325377*
X265789Y325044*
X266789*
X264789Y324377D02*
G01X264123D01*
X264456*
Y326377*
X264789Y326043*
X263123D02*
G01X262790Y326377D01*
X262123*
X261790Y326043*
Y324710*
X262123Y324377*
X262790*
X263123Y324710*
Y326043*
X261124Y324377D02*
G01X260457D01*
X260790*
Y326377*
X261124Y326043*
X364026Y349075D02*
G01X362693D01*
X363359*
Y347075*
X362027D02*
G01Y349075D01*
X361027*
X360694Y348741*
Y348075*
X361027Y347742*
X362027*
X358694Y349075D02*
G01X360027D01*
Y348075*
X359361Y348408*
X359028*
X358694Y348075*
Y347408*
X359028Y347075*
X359694*
X360027Y347408*
X357028Y347075D02*
G01Y349075D01*
X358028Y348075*
X356695*
X164021Y410922D02*
G01Y412255D01*
Y411588*
X162022*
Y412921D02*
G01X164021D01*
Y413921*
X163688Y414254*
X163022*
X162688Y413921*
Y412921*
X164021Y416253D02*
G01Y414920D01*
X163022*
X163355Y415587*
Y415920*
X163022Y416253*
X162355*
X162022Y415920*
Y415254*
X162355Y414920*
X164021Y418253D02*
G01X163688Y417586D01*
X163022Y416920*
X162355*
X162022Y417253*
Y417920*
X162355Y418253*
X162688*
X163022Y417920*
Y416920*
X190611Y458391D02*
G01Y459723D01*
Y459057*
X188612*
Y460390D02*
G01X190611D01*
Y461390*
X190278Y461723*
X189611*
X189278Y461390*
Y460390*
X185772Y444040D02*
G01Y445373D01*
Y444706*
X183773*
Y446039D02*
G01X185772D01*
Y447039*
X185439Y447372*
X184773*
X184440Y447039*
Y446039*
X185772Y449371D02*
G01Y448039D01*
X184773*
X185106Y448705*
Y449038*
X184773Y449371*
X184106*
X183773Y449038*
Y448372*
X184106Y448039*
X183773Y451371D02*
G01Y450038D01*
X185106Y451371*
X185439*
X185772Y451038*
Y450371*
X185439Y450038*
X185908Y468057D02*
G01Y469390D01*
Y468723*
X183909*
Y470056D02*
G01X185908D01*
Y471056*
X185575Y471389*
X184908*
X184575Y471056*
Y470056*
X185908Y473388D02*
G01Y472055D01*
X184908*
X185242Y472722*
Y473055*
X184908Y473388*
X184242*
X183909Y473055*
Y472389*
X184242Y472055*
X185575Y474055D02*
G01X185908Y474388D01*
Y475054*
X185575Y475388*
X184242*
X183909Y475054*
Y474388*
X184242Y474055*
X185575*
X171796Y450339D02*
G01Y451672D01*
Y451006*
X169797*
Y452338D02*
G01X171796D01*
Y453338*
X171463Y453671*
X170796*
X170463Y453338*
Y452338*
X171796Y455671D02*
G01Y454338D01*
X170796*
X171130Y455004*
Y455337*
X170796Y455671*
X170130*
X169797Y455337*
Y454671*
X170130Y454338*
X171463Y456337D02*
G01X171796Y456670D01*
Y457337*
X171463Y457670*
X171130*
X170796Y457337*
Y457004*
Y457337*
X170463Y457670*
X170130*
X169797Y457337*
Y456670*
X170130Y456337*
X21171Y306221D02*
G01X19838D01*
X20504*
Y304222*
X19171D02*
G01Y306221D01*
X18172*
X17838Y305888*
Y305221*
X18172Y304888*
X19171*
X17172Y304222D02*
G01X16506D01*
X16839*
Y306221*
X17172Y305888*
X15506D02*
G01X15173Y306221D01*
X14506*
X14173Y305888*
Y305555*
X14506Y305221*
X14840*
X14506*
X14173Y304888*
Y304555*
X14506Y304222*
X15173*
X15506Y304555*
X40185Y344446D02*
G01X38852D01*
X39518*
Y342446*
X38186D02*
G01Y344446D01*
X37186*
X36853Y344112*
Y343446*
X37186Y343113*
X38186*
X36186Y342446D02*
G01X35520D01*
X35853*
Y344446*
X36186Y344112*
X33520Y342446D02*
G01Y344446D01*
X34520Y343446*
X33187*
X65677Y345627D02*
G01X64344D01*
X65011*
Y343627*
X63678D02*
G01Y345627D01*
X62678*
X62345Y345293*
Y344627*
X62678Y344294*
X63678*
X61678Y343627D02*
G01X61012D01*
X61345*
Y345627*
X61678Y345293*
X58679Y345627D02*
G01X60012D01*
Y344627*
X59346Y344960*
X59013*
X58679Y344627*
Y343960*
X59013Y343627*
X59679*
X60012Y343960*
X66760Y324465D02*
G01X65427D01*
X66093*
Y322466*
X64760D02*
G01Y324465D01*
X63761*
X63427Y324132*
Y323466*
X63761Y323132*
X64760*
X62761Y322466D02*
G01X62094D01*
X62428*
Y324465*
X62761Y324132*
X59762Y324465D02*
G01X60428Y324132D01*
X61095Y323466*
Y322799*
X60762Y322466*
X60095*
X59762Y322799*
Y323132*
X60095Y323466*
X61095*
X42165Y348474D02*
G01X40832D01*
X41499*
Y346474*
X40166D02*
G01Y348474D01*
X39166*
X38833Y348141*
Y347474*
X39166Y347141*
X40166*
X36834Y346474D02*
G01X38166D01*
X36834Y347807*
Y348141*
X37167Y348474*
X37833*
X38166Y348141*
X36167D02*
G01X35834Y348474D01*
X35168*
X34834Y348141*
Y346808*
X35168Y346474*
X35834*
X36167Y346808*
Y348141*
X66071Y355961D02*
G01X64738D01*
X65404*
Y353962*
X64071D02*
G01Y355961D01*
X63072*
X62739Y355628*
Y354962*
X63072Y354628*
X64071*
X60739Y353962D02*
G01X62072D01*
X60739Y355295*
Y355628*
X61072Y355961*
X61739*
X62072Y355628*
X60073Y353962D02*
G01X59406D01*
X59739*
Y355961*
X60073Y355628*
X52252Y335764D02*
G01X50919D01*
X51585*
Y333765*
X50252D02*
G01Y335764D01*
X49253*
X48920Y335431*
Y334765*
X49253Y334431*
X50252*
X46920Y333765D02*
G01X48253D01*
X46920Y335098*
Y335431*
X47253Y335764*
X47920*
X48253Y335431*
X44921Y333765D02*
G01X46254D01*
X44921Y335098*
Y335431*
X45254Y335764*
X45921*
X46254Y335431*
X181953Y437912D02*
G01X180620D01*
X181286*
Y435912*
X179953D02*
G01Y437912D01*
X178954*
X178620Y437579*
Y436912*
X178954Y436579*
X179953*
X176621Y435912D02*
G01X177954D01*
X176621Y437245*
Y437579*
X176954Y437912*
X177621*
X177954Y437579*
X174622Y437912D02*
G01X175288Y437579D01*
X175955Y436912*
Y436246*
X175621Y435912*
X174955*
X174622Y436246*
Y436579*
X174955Y436912*
X175955*
X140382Y341296D02*
G01X139049D01*
X139715*
Y339297*
X138382D02*
G01Y341296D01*
X137383*
X137049Y340963*
Y340296*
X137383Y339963*
X138382*
X135050Y339297D02*
G01X136383D01*
X135050Y340629*
Y340963*
X135383Y341296*
X136050*
X136383Y340963*
X134384Y341296D02*
G01X133051D01*
Y340963*
X134384Y339630*
Y339297*
X112519Y406447D02*
G01Y408446D01*
X111520*
X111187Y408113*
Y407446*
X111520Y407113*
X112519*
X109187Y406447D02*
G01X110520D01*
X109187Y407779*
Y408113*
X109520Y408446*
X110187*
X110520Y408113*
X108521Y406780D02*
G01X108187Y406447D01*
X107521*
X107188Y406780*
Y408113*
X107521Y408446*
X108187*
X108521Y408113*
Y407779*
X108187Y407446*
X107188*
X148376Y447360D02*
G01X147043D01*
X147709*
Y445361*
X146377D02*
G01Y447360D01*
X145377*
X145044Y447027*
Y446361*
X145377Y446027*
X146377*
X144377Y447027D02*
G01X144044Y447360D01*
X143377*
X143044Y447027*
Y446694*
X143377Y446361*
X143711*
X143377*
X143044Y446027*
Y445694*
X143377Y445361*
X144044*
X144377Y445694*
X142378Y447027D02*
G01X142045Y447360D01*
X141378*
X141045Y447027*
Y445694*
X141378Y445361*
X142045*
X142378Y445694*
Y447027*
X75556Y391232D02*
G01X74223D01*
X74890*
Y389232*
X73557D02*
G01Y391232D01*
X72557*
X72224Y390899*
Y390232*
X72557Y389899*
X73557*
X71558Y390899D02*
G01X71224Y391232D01*
X70558*
X70225Y390899*
Y390565*
X70558Y390232*
X70891*
X70558*
X70225Y389899*
Y389566*
X70558Y389232*
X71224*
X71558Y389566*
X69558Y389232D02*
G01X68892D01*
X69225*
Y391232*
X69558Y390899*
X146287Y417379D02*
G01X144954D01*
X145621*
Y415379*
X144288D02*
G01Y417379D01*
X143288*
X142955Y417045*
Y416379*
X143288Y416046*
X144288*
X142288Y417045D02*
G01X141955Y417379D01*
X141289*
X140956Y417045*
Y416712*
X141289Y416379*
X141622*
X141289*
X140956Y416046*
Y415712*
X141289Y415379*
X141955*
X142288Y415712*
X138956Y415379D02*
G01X140289D01*
X138956Y416712*
Y417045*
X139290Y417379*
X139956*
X140289Y417045*
X464269Y414995D02*
G01X462936D01*
X463602*
Y412995*
X462270D02*
G01Y414995D01*
X461270*
X460937Y414662*
Y413995*
X461270Y413662*
X462270*
X460270Y414662D02*
G01X459937Y414995D01*
X459271*
X458937Y414662*
Y414328*
X459271Y413995*
X459604*
X459271*
X458937Y413662*
Y413329*
X459271Y412995*
X459937*
X460270Y413329*
X456938Y414995D02*
G01X458271D01*
Y413995*
X457605Y414328*
X457271*
X456938Y413995*
Y413329*
X457271Y412995*
X457938*
X458271Y413329*
X493322Y388976D02*
G01X494655D01*
X493988*
Y390975*
X495321D02*
G01Y388976D01*
X496321*
X496654Y389309*
Y389975*
X496321Y390308*
X495321*
X498654Y388976D02*
G01X497321D01*
Y389975*
X497987Y389642*
X498320*
X498654Y389975*
Y390642*
X498320Y390975*
X497654*
X497321Y390642*
X499320Y389309D02*
G01X499653Y388976D01*
X500320*
X500653Y389309*
Y389642*
X500320Y389975*
X500653Y390308*
Y390642*
X500320Y390975*
X499653*
X499320Y390642*
Y390308*
X499653Y389975*
X499320Y389642*
Y389309*
X499653Y389975D02*
G01X500320D01*
X515070Y407978D02*
G01X513737D01*
X514404*
Y405978*
X513071D02*
G01Y407978D01*
X512071*
X511738Y407644*
Y406978*
X512071Y406645*
X513071*
X509739Y407978D02*
G01X511072D01*
Y406978*
X510405Y407311*
X510072*
X509739Y406978*
Y406312*
X510072Y405978*
X510738*
X511072Y406312*
X509072D02*
G01X508739Y405978D01*
X508072*
X507739Y406312*
Y407644*
X508072Y407978*
X508739*
X509072Y407644*
Y407311*
X508739Y406978*
X507739*
X539370Y400789D02*
G01X538037D01*
X538703*
Y398789*
X537370D02*
G01Y400789D01*
X536371*
X536038Y400455*
Y399789*
X536371Y399456*
X537370*
X534038Y400789D02*
G01X534705Y400455D01*
X535371Y399789*
Y399122*
X535038Y398789*
X534372*
X534038Y399122*
Y399456*
X534372Y399789*
X535371*
X532039Y398789D02*
G01X533372D01*
X532039Y400122*
Y400455*
X532372Y400789*
X533039*
X533372Y400455*
X555820Y401789D02*
G01X554487D01*
X555154*
Y399790*
X553821D02*
G01Y401789D01*
X552821*
X552488Y401456*
Y400789*
X552821Y400456*
X553821*
X550488Y401789D02*
G01X551155Y401456D01*
X551821Y400789*
Y400123*
X551488Y399790*
X550822*
X550488Y400123*
Y400456*
X550822Y400789*
X551821*
X549822Y401456D02*
G01X549489Y401789D01*
X548822*
X548489Y401456*
Y401123*
X548822Y400789*
X549156*
X548822*
X548489Y400456*
Y400123*
X548822Y399790*
X549489*
X549822Y400123*
X581490Y392287D02*
G01X580157D01*
X580823*
Y390287*
X579490D02*
G01Y392287D01*
X578491*
X578158Y391953*
Y391287*
X578491Y390954*
X579490*
X576158Y392287D02*
G01X576825Y391953D01*
X577491Y391287*
Y390620*
X577158Y390287*
X576492*
X576158Y390620*
Y390954*
X576492Y391287*
X577491*
X574492Y390287D02*
G01Y392287D01*
X575492Y391287*
X574159*
X644403Y497808D02*
G01Y499141D01*
Y498475*
X642404*
Y499808D02*
G01X644403D01*
Y500807*
X644070Y501141*
X643403*
X643070Y500807*
Y499808*
X644403Y503140D02*
G01X644070Y502473D01*
X643403Y501807*
X642737*
X642404Y502140*
Y502807*
X642737Y503140*
X643070*
X643403Y502807*
Y501807*
X644403Y505139D02*
G01Y503806D01*
X643403*
X643736Y504473*
Y504806*
X643403Y505139*
X642737*
X642404Y504806*
Y504140*
X642737Y503806*
X663602Y505106D02*
G01Y506439D01*
Y505773*
X661602*
Y507106D02*
G01X663602D01*
Y508105*
X663269Y508438*
X662602*
X662269Y508105*
Y507106*
X663602Y510438D02*
G01X663269Y509771D01*
X662602Y509105*
X661936*
X661602Y509438*
Y510105*
X661936Y510438*
X662269*
X662602Y510105*
Y509105*
X663602Y512437D02*
G01X663269Y511771D01*
X662602Y511104*
X661936*
X661602Y511437*
Y512104*
X661936Y512437*
X662269*
X662602Y512104*
Y511104*
X283920Y347593D02*
G01X282587D01*
X283253*
Y345593*
X281921D02*
G01Y347593D01*
X280921*
X280588Y347259*
Y346593*
X280921Y346260*
X281921*
X279921Y345593D02*
G01X279255D01*
X279588*
Y347593*
X279921Y347259*
X278255D02*
G01X277922Y347593D01*
X277255*
X276922Y347259*
Y345926*
X277255Y345593*
X277922*
X278255Y345926*
Y347259*
X274923Y347593D02*
G01X275589Y347259D01*
X276256Y346593*
Y345926*
X275922Y345593*
X275256*
X274923Y345926*
Y346260*
X275256Y346593*
X276256*
X317842Y347300D02*
G01X316510D01*
X317176*
Y345301*
X315843D02*
G01Y347300D01*
X314843*
X314510Y346967*
Y346300*
X314843Y345967*
X315843*
X313844Y345301D02*
G01X313177D01*
X313510*
Y347300*
X313844Y346967*
X312177D02*
G01X311844Y347300D01*
X311178*
X310845Y346967*
Y345634*
X311178Y345301*
X311844*
X312177Y345634*
Y346967*
X310178Y347300D02*
G01X308845D01*
Y346967*
X310178Y345634*
Y345301*
X346632Y346813D02*
G01X345299D01*
X345965*
Y344813*
X344633D02*
G01Y346813D01*
X343633*
X343300Y346479*
Y345813*
X343633Y345480*
X344633*
X342633Y344813D02*
G01X341967D01*
X342300*
Y346813*
X342633Y346479*
X340967D02*
G01X340634Y346813D01*
X339967*
X339634Y346479*
Y345146*
X339967Y344813*
X340634*
X340967Y345146*
Y346479*
X338968D02*
G01X338634Y346813D01*
X337968*
X337635Y346479*
Y346146*
X337968Y345813*
X337635Y345480*
Y345146*
X337968Y344813*
X338634*
X338968Y345146*
Y345480*
X338634Y345813*
X338968Y346146*
Y346479*
X338634Y345813D02*
G01X337968D01*
X149822Y430093D02*
G01X148489D01*
X149155*
Y428094*
X147822D02*
G01Y430093D01*
X146823*
X146490Y429760*
Y429094*
X146823Y428760*
X147822*
X145823Y428094D02*
G01X145157D01*
X145490*
Y430093*
X145823Y429760*
X142824Y428094D02*
G01X144157D01*
X142824Y429427*
Y429760*
X143157Y430093*
X143824*
X144157Y429760*
X142158D02*
G01X141824Y430093D01*
X141158*
X140825Y429760*
Y429427*
X141158Y429094*
X140825Y428760*
Y428427*
X141158Y428094*
X141824*
X142158Y428427*
Y428760*
X141824Y429094*
X142158Y429427*
Y429760*
X141824Y429094D02*
G01X141158D01*
X138555Y424626D02*
G01X137222D01*
X137888*
Y422627*
X136556D02*
G01Y424626D01*
X135556*
X135223Y424293*
Y423627*
X135556Y423293*
X136556*
X134556Y422627D02*
G01X133890D01*
X134223*
Y424626*
X134556Y424293*
X131557Y422627D02*
G01X132890D01*
X131557Y423960*
Y424293*
X131890Y424626*
X132557*
X132890Y424293*
X130891Y422960D02*
G01X130557Y422627D01*
X129891*
X129558Y422960*
Y424293*
X129891Y424626*
X130557*
X130891Y424293*
Y423960*
X130557Y423627*
X129558*
X73067Y415553D02*
G01X73733D01*
X73400*
Y413886*
X73733Y413553*
X74067*
X74400Y413886*
X72401Y413553D02*
G01Y415553D01*
X71401*
X71068Y415219*
Y414553*
X71401Y414220*
X72401*
X69068Y413553D02*
G01X70401D01*
X69068Y414886*
Y415219*
X69402Y415553*
X70068*
X70401Y415219*
G54D92*
X50233Y387870D02*
G01Y388703D01*
Y388286*
X52316*
X52733Y388703*
Y389119*
X52316Y389536*
X52733Y387037D02*
G01X50233D01*
Y385787*
X50650Y385370*
X51483*
X51899Y385787*
Y387037*
X52733Y384537D02*
G01Y383704D01*
Y384121*
X50233*
X50650Y384537*
G54D93*
X54579Y388316D02*
G01X53871Y388023D01*
X53579Y387316*
Y376316D02*
G01X53871Y375609D01*
X54579Y375316*
X60579D02*
G01X61286Y375609D01*
X61579Y376316*
Y387316D02*
G01X61286Y388023D01*
X60579Y388316*
X62512Y410816D02*
G01X61804Y410523D01*
X61512Y409816*
X74512D02*
G01X74219Y410523D01*
X73512Y410816*
Y402816D02*
G01X74219Y403109D01*
X74512Y403816*
X61512D02*
G01X61804Y403109D01*
X62512Y402816*
X54579Y375316D02*
G01X60579D01*
X54579Y388316D02*
G01X60579D01*
X61512Y403816D02*
G01Y409816D01*
X74512Y403816D02*
G01Y409816D01*
X729887Y290977D02*
G01Y293977D01*
X728888Y292977*
X727888Y293977*
Y290977*
X725389Y293977D02*
G01X726389D01*
X726888Y293477*
Y291477*
X726389Y290977*
X725389*
X724889Y291477*
Y293477*
X725389Y293977*
X721890Y293477D02*
G01X722390Y293977D01*
X723389*
X723889Y293477*
Y292977*
X723389Y292477*
X722390*
X721890Y291977*
Y291477*
X722390Y290977*
X723389*
X723889Y291477*
X718891Y293977D02*
G01X720890D01*
Y292477*
X719891*
X720890*
Y290977*
X715892Y293977D02*
G01X717891D01*
Y290977*
X715892*
X717891Y292477D02*
G01X716891D01*
X714892Y293977D02*
G01X712893D01*
X713892*
Y290977*
X709894Y293477D02*
G01X710394Y293977D01*
X711393*
X711893Y293477*
Y292977*
X711393Y292477*
X710394*
X709894Y291977*
Y291477*
X710394Y290977*
X711393*
X711893Y291477*
X708394Y290478D02*
G01X707894Y290977D01*
Y291477*
X708394*
Y290977*
X707894*
X708394Y290478*
X708894Y289978*
X738635Y288938D02*
G01X740634D01*
Y287438*
X739634*
X740634*
Y285939*
X737635D02*
G01Y287938D01*
X736635Y288938*
X735635Y287938*
Y285939*
Y287438*
X737635*
X734636Y285939D02*
G01Y288938D01*
X732636Y285939*
Y288938*
X729637Y288438D02*
G01X730137Y288938D01*
X731137*
X731637Y288438*
Y287938*
X731137Y287438*
X730137*
X729637Y286938*
Y286438*
X730137Y285939*
X731137*
X731637Y286438*
X728138Y285439D02*
G01X727638Y285939D01*
Y286438*
X728138*
Y285939*
X727638*
X728138Y285439*
X728638Y284939*
X722640Y285939D02*
G01Y287938D01*
X721640Y288938*
X720640Y287938*
Y285939*
Y287438*
X722640*
X719641Y285939D02*
G01Y288938D01*
X717641Y285939*
Y288938*
X716642D02*
G01Y285939D01*
X715142*
X714642Y286438*
Y288438*
X715142Y288938*
X716642*
X710644D02*
G01Y285939D01*
X708644*
X706145Y288938D02*
G01X707145D01*
X707644Y288438*
Y286438*
X707145Y285939*
X706145*
X705645Y286438*
Y288438*
X706145Y288938*
X702646Y288438D02*
G01X703146Y288938D01*
X704146*
X704645Y288438*
Y286438*
X704146Y285939*
X703146*
X702646Y286438*
Y287438*
X703646*
X701647Y288938D02*
G01X700647D01*
X701147*
Y285939*
X701647*
X700647*
X697148Y288438D02*
G01X697648Y288938D01*
X698647*
X699147Y288438*
Y286438*
X698647Y285939*
X697648*
X697148Y286438*
X742740Y463252D02*
G01Y460253D01*
Y461753*
X740740*
Y463252*
Y460253*
X739741Y463252D02*
G01X737741D01*
X738741*
Y460253*
X736742Y463252D02*
G01Y460253D01*
X735242*
X734742Y460753*
Y461253*
X735242Y461753*
X736742*
X735242*
X734742Y462253*
Y462752*
X735242Y463252*
X736742*
X733743D02*
G01Y460253D01*
X732243*
X731743Y460753*
Y462752*
X732243Y463252*
X733743*
X726245D02*
G01X727245D01*
X727745Y462752*
Y460753*
X727245Y460253*
X726245*
X725745Y460753*
Y462752*
X726245Y463252*
X724746D02*
G01Y460753D01*
X724246Y460253*
X723246*
X722746Y460753*
Y463252*
X721746D02*
G01X719747D01*
X720747*
Y460253*
X715749Y461753D02*
G01X713749D01*
X742740Y430258D02*
G01Y427259D01*
Y428759*
X740740*
Y430258*
Y427259*
X739741Y430258D02*
G01X737741D01*
X738741*
Y427259*
X736742Y430258D02*
G01Y427259D01*
X735242*
X734742Y427759*
Y428259*
X735242Y428759*
X736742*
X735242*
X734742Y429259*
Y429758*
X735242Y430258*
X736742*
X733743D02*
G01Y427259D01*
X732243*
X731743Y427759*
Y429758*
X732243Y430258*
X733743*
X726245D02*
G01X727245D01*
X727745Y429758*
Y427759*
X727245Y427259*
X726245*
X725745Y427759*
Y429758*
X726245Y430258*
X724746D02*
G01Y427759D01*
X724246Y427259*
X723246*
X722746Y427759*
Y430258*
X721746D02*
G01X719747D01*
X720747*
Y427259*
X715749Y428759D02*
G01X713749D01*
X714749Y429758D02*
G01Y427759D01*
X719747Y397389D02*
G01X720247Y397889D01*
X721247*
X721746Y397389*
Y395390*
X721247Y394890*
X720247*
X719747Y395390*
Y396390*
X720747*
X718747Y394890D02*
G01Y397889D01*
X716748Y394890*
Y397889*
X715749D02*
G01Y394890D01*
X714249*
X713749Y395390*
Y397389*
X714249Y397889*
X715749*
X733243Y365285D02*
G01Y363286D01*
X732243Y362286*
X731244Y363286*
Y365285*
X730244D02*
G01X729244D01*
X729744*
Y362286*
X730244*
X729244*
X727745D02*
G01Y365285D01*
X725745Y362286*
Y365285*
X721746D02*
G01Y362286D01*
X720247*
X719747Y362786*
Y363286*
X720247Y363785*
X721746*
X720247*
X719747Y364285*
Y364785*
X720247Y365285*
X721746*
X716748D02*
G01X718747D01*
Y362286*
X716748*
X718747Y363785D02*
G01X717748D01*
X715749Y365285D02*
G01Y362286D01*
X714249*
X713749Y362786*
Y364785*
X714249Y365285*
X715749*
X719747Y331946D02*
G01X720247Y332446D01*
X721247*
X721746Y331946*
Y329947*
X721247Y329447*
X720247*
X719747Y329947*
Y330947*
X720747*
X718747Y329447D02*
G01Y332446D01*
X716748Y329447*
Y332446*
X715749D02*
G01Y329447D01*
X714249*
X713749Y329947*
Y331946*
X714249Y332446*
X715749*
X734252Y299530D02*
G01Y297531D01*
X733252Y296531*
X732253Y297531*
Y299530*
X731253D02*
G01X730253D01*
X730753*
Y296531*
X731253*
X730253*
X728754D02*
G01Y299530D01*
X726754Y296531*
Y299530*
X722755D02*
G01Y297531D01*
X721756Y296531*
X720756Y297531*
Y299530*
X719756Y296531D02*
G01Y299530D01*
X718257*
X717757Y299030*
Y298031*
X718257Y297531*
X719756*
X716758Y299530D02*
G01Y296531D01*
X715758Y297531*
X714758Y296531*
Y299530*
X713758Y296531D02*
G01Y299530D01*
X712259*
X711759Y299030*
Y298031*
X712259Y297531*
X713758*
X712759D02*
G01X711759Y296531D01*
X719747Y267830D02*
G01X720247Y268330D01*
X721247*
X721746Y267830*
Y265831*
X721247Y265331*
X720247*
X719747Y265831*
Y266831*
X720747*
X718747Y265331D02*
G01Y268330D01*
X716748Y265331*
Y268330*
X715749D02*
G01Y265331D01*
X714249*
X713749Y265831*
Y267830*
X714249Y268330*
X715749*
X736242Y235336D02*
G01Y233337D01*
X735242Y232337*
X734243Y233337*
Y235336*
X733243D02*
G01X732243D01*
X732743*
Y232337*
X733243*
X732243*
X730744D02*
G01Y235336D01*
X728744Y232337*
Y235336*
X724746Y232337D02*
G01Y235336D01*
X723746Y234337*
X722746Y235336*
Y232337*
X720247Y235336D02*
G01X721247D01*
X721746Y234836*
Y232837*
X721247Y232337*
X720247*
X719747Y232837*
Y234836*
X720247Y235336*
X718747D02*
G01X716748D01*
X717748*
Y232337*
X715749D02*
G01X714749D01*
X715249*
Y235336*
X715749Y234836*
X736242Y170206D02*
G01Y168207D01*
X735242Y167207*
X734243Y168207*
Y170206*
X733243D02*
G01X732243D01*
X732743*
Y167207*
X733243*
X732243*
X730744D02*
G01Y170206D01*
X728744Y167207*
Y170206*
X724746Y167207D02*
G01Y170206D01*
X723746Y169207*
X722746Y170206*
Y167207*
X720247Y170206D02*
G01X721247D01*
X721746Y169706*
Y167707*
X721247Y167207*
X720247*
X719747Y167707*
Y169706*
X720247Y170206*
X718747D02*
G01X716748D01*
X717748*
Y167207*
X713749D02*
G01X715749D01*
X713749Y169207*
Y169706*
X714249Y170206*
X715249*
X715749Y169706*
X390156Y405235D02*
G01X387490D01*
X400218D02*
G01X397552D01*
X398885Y406567D02*
G01Y403902D01*
X346038Y294544D02*
G01Y292545D01*
X343039*
Y294544*
X344539Y292545D02*
G01Y293544D01*
X343039Y295544D02*
G01X346038D01*
Y297043*
X345538Y297543*
X344539*
X344039Y297043*
Y295544*
Y296543D02*
G01X343039Y297543D01*
Y298543D02*
G01X345039D01*
X346038Y299542*
X345039Y300542*
X343039*
X344539*
Y298543*
X345538Y303541D02*
G01X346038Y303041D01*
Y302042*
X345538Y301542*
X345039*
X344539Y302042*
Y303041*
X344039Y303541*
X343539*
X343039Y303041*
Y302042*
X343539Y301542*
X346038Y306540D02*
G01Y304541D01*
X343039*
Y306540*
X344539Y304541D02*
G01Y305540D01*
X315519Y301138D02*
G01X316019Y300639D01*
Y299639*
X315519Y299139*
X313519*
X313019Y299639*
Y300639*
X313519Y301138*
X314519*
Y300139*
X313019Y302138D02*
G01X316019D01*
X313019Y304137*
X316019*
Y305137D02*
G01X313019D01*
Y306637*
X313519Y307137*
X315519*
X316019Y306637*
Y305137*
X335302Y296777D02*
G01X335802Y297277D01*
Y298276*
X335302Y298776*
X334802*
X334302Y298276*
Y297777*
Y298276*
X333803Y298776*
X333303*
X332803Y298276*
Y297277*
X333303Y296777*
X332803Y299776D02*
G01X333303D01*
Y300276*
X332803*
Y299776*
X335302Y302275D02*
G01X335802Y302775D01*
Y303775*
X335302Y304275*
X334802*
X334302Y303775*
Y303275*
Y303775*
X333803Y304275*
X333303*
X332803Y303775*
Y302775*
X333303Y302275*
X335802Y305274D02*
G01X333803D01*
X332803Y306274*
X333803Y307274*
X335802*
X325763Y302418D02*
G01Y300419D01*
X324263*
X324763Y301418*
Y301918*
X324263Y302418*
X323264*
X322764Y301918*
Y300919*
X323264Y300419*
X325763Y303418D02*
G01X323763D01*
X322764Y304417*
X323763Y305417*
X325763*
X380406Y411709D02*
G01X377740D01*
X379073Y413041D02*
G01Y410376D01*
X390312Y411787D02*
G01X387646D01*
X332803Y326206D02*
G01X334802D01*
Y327705*
X334302Y328205*
X332803*
Y329205D02*
G01X335802D01*
Y330705*
X335302Y331204*
X334302*
X333803Y330705*
Y329205*
Y330205D02*
G01X332803Y331204D01*
X335302Y334203D02*
G01X335802Y333704D01*
Y332704*
X335302Y332204*
X334802*
X334302Y332704*
Y333704*
X333803Y334203*
X333303*
X332803Y333704*
Y332704*
X333303Y332204*
X335802Y335203D02*
G01Y337202D01*
Y336203*
X332803*
X284575Y431666D02*
G01X282575Y428667D01*
Y431666D02*
G01X284575Y428667D01*
X281576Y430166D02*
G01X279576D01*
X278577Y428667D02*
G01Y431666D01*
X277577Y430666*
X276577Y431666*
Y428667*
X275578Y431666D02*
G01X274578D01*
X275078*
Y428667*
X275578*
X274578*
X273078D02*
G01Y431666D01*
X271079Y428667*
Y431666*
X315723Y326206D02*
G01X313224D01*
X312724Y326706*
Y327705*
X313224Y328205*
X315723*
Y329205D02*
G01Y331204D01*
Y330205*
X312724*
X315723Y332204D02*
G01X312724Y334203D01*
X315723D02*
G01X312724Y332204D01*
X315723Y335203D02*
G01X312724D01*
Y336703*
X313224Y337202*
X315223*
X315723Y336703*
Y335203*
X719747Y202310D02*
G01X720247Y202810D01*
X721247*
X721746Y202310*
Y200311*
X721247Y199811*
X720247*
X719747Y200311*
Y201311*
X720747*
X718747Y199811D02*
G01Y202810D01*
X716748Y199811*
Y202810*
X715749D02*
G01Y199811D01*
X714249*
X713749Y200311*
Y202310*
X714249Y202810*
X715749*
X345662Y335611D02*
G01Y333612D01*
X344163*
X344662Y334611*
Y335111*
X344163Y335611*
X343163*
X342663Y335111*
Y334112*
X343163Y333612*
X345662Y336611D02*
G01X343663D01*
X342663Y337610*
X343663Y338610*
X345662*
X310975Y431524D02*
G01Y431023D01*
X309975Y430024*
X308975Y431023*
Y431524*
X309975Y430024D02*
G01Y428525D01*
X307976Y430024D02*
G01X305976D01*
X304977Y428525D02*
G01Y431524D01*
X303977Y430523*
X302977Y431524*
Y428525*
X301978Y431524D02*
G01X300978D01*
X301478*
Y428525*
X301978*
X300978*
X299478D02*
G01Y431524D01*
X297479Y428525*
Y431524*
X314567Y389225D02*
G01Y388725D01*
X313567Y387725*
X312567Y388725*
Y389225*
X313567Y387725D02*
G01Y386226D01*
X311568Y387725D02*
G01X309568D01*
X308569Y386226D02*
G01Y389225D01*
X307569Y388225*
X306569Y389225*
Y386226*
X305570D02*
G01Y388225D01*
X304570Y389225*
X303570Y388225*
Y386226*
Y387725*
X305570*
X302571Y389225D02*
G01X300571Y386226D01*
Y389225D02*
G01X302571Y386226D01*
X351370Y431940D02*
G01X349371D01*
Y431441*
X351370Y429441*
Y428941*
X349371*
X348371Y430441D02*
G01X346372D01*
X345372Y428941D02*
G01Y431940D01*
X344372Y430941*
X343372Y431940*
Y428941*
X342373Y431940D02*
G01X341373D01*
X341873*
Y428941*
X342373*
X341373*
X339874D02*
G01Y431940D01*
X337874Y428941*
Y431940*
X260728Y387940D02*
G01X258729Y384941D01*
Y387940D02*
G01X260728Y384941D01*
X257729Y386441D02*
G01X255730D01*
X254730Y384941D02*
G01Y387940D01*
X253730Y386941*
X252731Y387940*
Y384941*
X251731D02*
G01Y386941D01*
X250731Y387940*
X249732Y386941*
Y384941*
Y386441*
X251731*
X248732Y387940D02*
G01X246733Y384941D01*
Y387940D02*
G01X248732Y384941D01*
X355594Y388630D02*
G01X353595D01*
Y388130*
X355594Y386130*
Y385631*
X353595*
X352595Y387130D02*
G01X350596D01*
X349596Y385631D02*
G01Y388630D01*
X348597Y387630*
X347597Y388630*
Y385631*
X346597D02*
G01Y387630D01*
X345598Y388630*
X344598Y387630*
Y385631*
Y387130*
X346597*
X343598Y388630D02*
G01X341599Y385631D01*
Y388630D02*
G01X343598Y385631D01*
X322665Y328516D02*
G01X325664D01*
Y330016*
X325164Y330515*
X324165*
X323665Y330016*
Y328516*
Y329516D02*
G01X322665Y330515D01*
X325664Y331515D02*
G01X322665Y333514D01*
X325664D02*
G01X322665Y331515D01*
X325664Y334514D02*
G01X322665D01*
Y336014*
X323165Y336513*
X325164*
X325664Y336014*
Y334514*
X355282Y328402D02*
G01X355782Y327902D01*
Y326903*
X355282Y326403*
X353283*
X352783Y326903*
Y327902*
X353283Y328402*
X354283*
Y327403*
X352783Y329402D02*
G01X355782D01*
X352783Y331401*
X355782*
Y332401D02*
G01X352783D01*
Y333900*
X353283Y334400*
X355282*
X355782Y333900*
Y332401*
X169416Y408149D02*
G01X172415D01*
Y409649*
X171915Y410149*
X170915*
X170415Y409649*
Y408149*
Y409149D02*
G01X169416Y410149D01*
X172415Y413148D02*
G01Y411148D01*
X169416*
Y413148*
X170915Y411148D02*
G01Y412148D01*
X171915Y416147D02*
G01X172415Y415647D01*
Y414647*
X171915Y414147*
X171415*
X170915Y414647*
Y415647*
X170415Y416147*
X169916*
X169416Y415647*
Y414647*
X169916Y414147*
X172415Y419146D02*
G01Y417146D01*
X169416*
Y419146*
X170915Y417146D02*
G01Y418146D01*
X172415Y420145D02*
G01Y422145D01*
Y421145*
X169416*
X181353Y467089D02*
G01X181853Y466589D01*
Y465589*
X181353Y465089*
X180853*
X180353Y465589*
Y466589*
X179853Y467089*
X179354*
X178854Y466589*
Y465589*
X179354Y465089*
X181853Y468088D02*
G01X178854D01*
X179853Y469088*
X178854Y470088*
X181853*
Y472587D02*
G01Y471587D01*
X181353Y471087*
X179354*
X178854Y471587*
Y472587*
X179354Y473087*
X181353*
X181853Y472587*
X178854Y474086D02*
G01X180853Y476086D01*
X181853Y477085D02*
G01Y479085D01*
Y478085*
X178854*
X181853Y480084D02*
G01X178854D01*
Y481584*
X179354Y482084*
X181353*
X181853Y481584*
Y480084*
Y484583D02*
G01Y483583D01*
X181353Y483083*
X179354*
X178854Y483583*
Y484583*
X179354Y485083*
X181353*
X181853Y484583*
X167813Y452375D02*
G01Y454375D01*
Y453375*
X164814*
X167813Y455374D02*
G01X164814D01*
Y456874*
X165314Y457374*
X167313*
X167813Y456874*
Y455374*
Y458373D02*
G01Y459373D01*
Y458873*
X164814*
Y458373*
Y459373*
X192128Y426270D02*
G01Y428270D01*
Y427269*
X189129*
X191628Y431269D02*
G01X192128Y430769D01*
Y429769*
X191628Y429268*
X189629*
X189129Y429769*
Y430769*
X189629Y431269*
X192128Y432268D02*
G01X189129D01*
X190128*
X192128Y434268*
X190628Y432768*
X189129Y434268*
Y435267D02*
G01X191128Y437266D01*
X191628Y440266D02*
G01X192128Y439766D01*
Y438765*
X191628Y438266*
X191128*
X190628Y438765*
Y439766*
X190128Y440266*
X189629*
X189129Y439766*
Y438765*
X189629Y438266*
X192128Y441265D02*
G01X189129D01*
X190128Y442265*
X189129Y443265*
X192128*
X191628Y446263D02*
G01X192128Y445764D01*
Y444764*
X191628Y444264*
X189629*
X189129Y444764*
Y445764*
X189629Y446263*
X192128Y447263D02*
G01X189129D01*
Y449263*
X192128Y450261D02*
G01X189129D01*
X190128*
X192128Y452262*
X190628Y450762*
X189129Y452262*
G54D94*
X103002Y439283D02*
G01X104515Y435313D01*
X103002Y439283D02*
G01X101490Y435313D01*
X103948Y436636D02*
G01X102057D01*
X100345Y439283D02*
G01Y435313D01*
Y439283D02*
G01X98643D01*
X98076Y439094*
X97887Y438905*
X97698Y438527*
Y438148*
X97887Y437770*
X98076Y437581*
X98643Y437392*
X100345D02*
G01X98643D01*
X98076Y437203*
X97887Y437014*
X97698Y436636*
Y436069*
X97887Y435691*
X98076Y435502*
X98643Y435313*
X100345*
X96174Y439283D02*
G01Y435313D01*
X92004Y438716D02*
G01X92382Y439094D01*
X92949Y439283*
X93706*
X94273Y439094*
X94651Y438716*
Y438338*
X94462Y437959*
X94273Y437770*
X93895Y437581*
X92760Y437203*
X92382Y437014*
X92193Y436825*
X92004Y436447*
Y435880*
X92382Y435502*
X92949Y435313*
X93706*
X94273Y435502*
X94651Y435880*
X90681Y437014D02*
G01X87277D01*
X85765Y439283D02*
G01Y435313D01*
Y439283D02*
G01X84252Y435313D01*
X82740Y439283D02*
G01X84252Y435313D01*
X82740Y439283D02*
G01Y435313D01*
X94504Y431522D02*
G01X94693Y430955D01*
X95071Y430577*
X95638Y430388*
X95827*
X96394Y430577*
X96772Y430955*
X96962Y431522*
Y431711*
X96772Y432278*
X96394Y432657*
X95827Y432846*
X95638*
X95071Y432657*
X94693Y432278*
X94504Y431522*
Y430577*
X94693Y429632*
X95071Y429064*
X95638Y428875*
X96016*
X96583Y429064*
X96772Y429442*
X91290Y432846D02*
G01X93180Y430199D01*
X90344*
X91290Y432846D02*
G01Y428875D01*
X89777Y432846D02*
G01X88265Y428875D01*
X86752Y432846D02*
G01X88265Y428875D01*
X85807Y430577D02*
G01X82404D01*
X79946Y432846D02*
G01X80513Y432657D01*
X80891Y432089*
X81080Y431144*
Y430577*
X80891Y429632*
X80513Y429064*
X79946Y428875*
X79568*
X79001Y429064*
X78622Y429632*
X78433Y430577*
Y431144*
X78622Y432089*
X79001Y432657*
X79568Y432846*
X79946*
G54D95*
X103688Y428670D02*
G01X104535D01*
Y428912D02*
G01X103567D01*
Y429154D02*
G01X104414D01*
Y429396D02*
G01X103446D01*
X101873D02*
G01X101026D01*
X101147Y429638D02*
G01X101994D01*
X103446D02*
G01X104293D01*
Y429880D02*
G01X103325D01*
X101994D02*
G01X101147D01*
X101268Y430122D02*
G01X102115D01*
X103325D02*
G01X104172D01*
Y430243D02*
G01X103204D01*
X102236D02*
G01X101389D01*
X99453D02*
G01X98606D01*
Y430485D02*
G01X99453D01*
X101389D02*
G01X105745D01*
Y430727D02*
G01X101510D01*
X99574D02*
G01X98727D01*
X98848Y430969D02*
G01X99695D01*
X99816Y431211D02*
G01X98969D01*
Y431453D02*
G01X99816D01*
X99937Y431695D02*
G01X99090D01*
X99211Y431937D02*
G01X100058D01*
X100179Y432179D02*
G01X99332D01*
Y432421D02*
G01X100179D01*
X100300Y432663D02*
G01X99453D01*
X99574Y432905D02*
G01X100421D01*
X104656Y428428D02*
G01X103688D01*
X105503Y430364D02*
G01X102236D01*
X100542Y433147D02*
G01X99574D01*
X101026Y429275D02*
G01X99090D01*
X103204Y430243D02*
G01X103809Y428670D01*
X102236Y430243D02*
G01X101510Y428428D01*
X100421Y432905D02*
G01X98969Y429396D01*
X105382Y430243D02*
G01X105624Y430364D01*
X105745Y430485*
X101631Y430969D02*
G01X102720D01*
X105382D02*
G01X105866D01*
Y431211D02*
G01X105382D01*
X102720D02*
G01X101752D01*
Y431453D02*
G01X102720D01*
Y431695D02*
G01X101873D01*
X101994Y431937D02*
G01X102720D01*
Y432179D02*
G01X101994D01*
X102115Y432421D02*
G01X102720D01*
X102962Y432542D02*
G01X102599Y431816D01*
X105261Y431574D02*
G01X105019Y430969D01*
X105382Y432542D02*
G01X102841D01*
X105261Y430969D02*
G01X102720D01*
X105382Y431937D02*
G01X105140Y431211D01*
X100663Y433268D02*
G01X99574D01*
X97880Y428791*
X98243Y428307D02*
G01X101510D01*
X102357Y430243*
X103083*
X103688Y428307*
X104777*
X104293Y430243*
X105382*
X105745Y430485D02*
G01X106592Y432663D01*
X106229Y433268D02*
G01X102236D01*
X100905Y429396*
X99211*
X100663Y433268*
X101510Y428428D02*
G01X98001D01*
Y428670D02*
G01X101510D01*
X101631Y428912D02*
G01X98001D01*
X98122Y429154D02*
G01X101752D01*
X99090Y429396D02*
G01X98243D01*
Y429638D02*
G01X99090D01*
X99211Y429880D02*
G01X98364D01*
X98485Y430122D02*
G01X99332D01*
X106471Y432663D02*
G01X102236D01*
X102357Y432905D02*
G01X106471D01*
X106350Y433147D02*
G01X102357D01*
X106350Y432421D02*
G01X105745Y430848D01*
X97880Y428791D02*
G01Y428549D01*
X98001Y428428*
X98122Y428307*
X98243*
X106592Y432663D02*
G01Y432905D01*
X106471Y433147*
X106350Y433268*
X106229*
X105382Y431453D02*
G01X105987D01*
X106108Y431695D02*
G01X105382D01*
Y431937D02*
G01X106229D01*
Y432179D02*
G01X105382D01*
X106350Y432421D02*
G01X105382D01*
X103204*
X102599Y431090*
X104898*
X105382Y432421*
G54D96*
X98520Y425561D02*
G01Y423994D01*
X100978Y423241D02*
G01X99134D01*
X98520Y420784D02*
G01Y422627D01*
X96677Y425561D02*
G01Y423994D01*
X93605Y425561D02*
G01Y423994D01*
X96062Y423241D02*
G01X94219D01*
X93605Y420784D02*
G01Y422627D01*
X91147Y426313D02*
G01X89304D01*
X88690Y425561D02*
G01Y423994D01*
X91147Y423241D02*
G01X89304D01*
X91762Y422627D02*
G01Y420784D01*
X91147Y420169D02*
G01X89304D01*
X86232Y426313D02*
G01X84389D01*
X83774Y425561D02*
G01Y423994D01*
X86232Y423241D02*
G01X84389D01*
X86232Y420169D02*
G01X84389D01*
X83774Y420784D02*
G01Y422627D01*
X101592Y425561D02*
G01Y423994D01*
G54D93*
X84465Y443430D02*
G01Y447429D01*
X82466*
X81799Y446763*
Y445430*
X82466Y444763*
X84465*
X83132D02*
G01X81799Y443430D01*
X79800D02*
G01X78467D01*
X77801Y444097*
Y445430*
X78467Y446096*
X79800*
X80466Y445430*
Y444097*
X79800Y443430*
X76468Y447429D02*
G01Y443430D01*
Y445430*
X73802*
Y447429*
Y443430*
X69803Y446763D02*
G01X70469Y447429D01*
X71802*
X72469Y446763*
Y446096*
X71802Y445430*
X70469*
X69803Y444763*
Y444097*
X70469Y443430*
X71802*
X72469Y444097*
M02*
