G04 CAM350 V10.5 (Build 464) Date:  Wed Nov 01 10:35:12 2023 *
G04 Database: (Untitled) *
G04 Layer 4: gbs *
%FSLAX25Y25*%
%MOIN*%
%SFA1.000B1.000*%

%MIA0B0*%
%IPPOS*%
%AMA1gbs*
20,1,0.00000,0.04000,0.00000,-0.04000,0.00000,0.00000*
20,1,0.00000,0.00000,0.04000,0.00000,-0.04000,0.00000*
1,1,0.08000,0.00000,0.00000*
1,1,0.08000,0.00000,0.00000*
1,1,0.08000,0.00000,0.00000*
1,1,0.08000,0.00000,0.00000*
%
%AMA2gbs*
4,1,8,0.06850,0.02180,0.06850,-0.02180,0.04680,-0.04350,-0.04680,-0.04350,-0.06850,-0.02180,-0.06850,0.02180,-0.04680,0.04350,0.04680,0.04350,0.06850,0.02180,0.00000*
%
%AMA3gbs*
4,1,8,0.04350,0.04680,0.04350,-0.04680,0.02180,-0.06850,-0.02180,-0.06850,-0.04350,-0.04680,-0.04350,0.04680,-0.02180,0.06850,0.02180,0.06850,0.04350,0.04680,0.00000*
%
%AMA4gbs*
20,1,0.02300,-0.03350,0.00000,0.03350,0.00000,0.00000*
1,1,0.02700,-0.02000,0.01150*
1,1,0.02700,0.02000,0.01150*
20,1,0.02700,-0.02000,0.01150,0.02000,0.01150,0.00000*
1,1,0.02700,-0.02000,-0.01150*
1,1,0.02700,0.02000,-0.01150*
20,1,0.02700,-0.02000,-0.01150,0.02000,-0.01150,0.00000*
%
%AMA5gbs*
20,1,0.06700,-0.01150,0.00000,0.01150,0.00000,0.00000*
1,1,0.02700,-0.01150,-0.02000*
1,1,0.02700,-0.01150,0.02000*
20,1,0.02700,-0.01150,-0.02000,-0.01150,0.02000,0.00000*
1,1,0.02700,0.01150,-0.02000*
1,1,0.02700,0.01150,0.02000*
20,1,0.02700,0.01150,-0.02000,0.01150,0.02000,0.00000*
%
%AMA6gbs*
4,1,8,0.04400,0.04830,0.04400,-0.04830,0.02330,-0.06900,-0.02330,-0.06900,-0.04400,-0.04830,-0.04400,0.04830,-0.02330,0.06900,0.02330,0.06900,0.04400,0.04830,0.00000*
%
%AMA7gbs*
4,1,8,0.06900,0.02330,0.06900,-0.02330,0.04830,-0.04400,-0.04830,-0.04400,-0.06900,-0.02330,-0.06900,0.02330,-0.04830,0.04400,0.04830,0.04400,0.06900,0.02330,0.00000*
%
%AMA8gbs*
20,1,0.02800,-0.03400,0.00000,0.03400,0.00000,0.00000*
1,1,0.02300,-0.02250,0.01400*
1,1,0.02300,0.02250,0.01400*
20,1,0.02300,-0.02250,0.01400,0.02250,0.01400,0.00000*
1,1,0.02300,-0.02250,-0.01400*
1,1,0.02300,0.02250,-0.01400*
20,1,0.02300,-0.02250,-0.01400,0.02250,-0.01400,0.00000*
%
%ADD30C,0.03300*%
%ADD93C,0.00600*%
%ADD99A1gbs*%
%ADD100A2gbs*%
%ADD101A3gbs*%
%ADD102R,0.07045X0.03543*%
%ADD103R,0.03543X0.07045*%
%ADD104A4gbs*%
%ADD105A5gbs*%
%ADD106R,0.08500X0.08500*%
%ADD107R,0.06400X0.06400*%
%ADD108C,0.06400*%
%ADD109R,0.06700X0.06700*%
%ADD110O,0.06500X0.12500*%
%ADD111R,0.06500X0.12500*%
%ADD112C,0.28050*%
%ADD113C,0.08500*%
%ADD114O,0.14100X0.14100*%
%ADD115R,0.14100X0.14100*%
%ADD116O,0.12500X0.06500*%
%ADD117C,0.10500*%
%ADD118C,0.13550*%
%ADD119C,0.06300*%
%ADD120C,0.08375*%
%ADD121C,0.05500*%
%ADD122C,0.03350*%
%ADD123C,0.04525*%
%ADD124C,0.12400*%
%ADD128C,0.03753*%
%ADD129C,0.04934*%
%ADD130C,0.12808*%
%ADD131A6gbs*%
%ADD132A7gbs*%
%ADD133A8gbs*%
%LNgbs*%
%LPD*%
G36*
X745763Y551182D02*
G01X745804Y551335D01*
X745914Y551443*
X746063Y551482*
G75*
G02X748331Y549213I-1J-2269*
X748026Y548914I-300J1*
X747731Y549213I5J300*
G03X746063Y550882I-1669J0*
G02X745763Y551182J300*
G37*
G36*
Y0D02*
G01X745804Y153D01*
X745914Y261*
X746063Y300*
G03X747731Y1969I-1J1669*
G02X748036Y2268I300J-1*
X748331Y1969I-5J-300*
X746063Y-300I-2269J0*
X745763Y0J300*
G37*
G36*
X-300Y549213D02*
G01X-295Y549367D01*
X-226Y549787*
X-80Y550187*
X137Y550553*
X420Y550871*
X757Y551131*
X1136Y551324*
X1545Y551442*
X1969Y551482*
G02X2269Y551182I0J-300*
X1969Y550882I-300*
G03X300Y549213I0J-1669*
G02X-5Y548914I-300J1*
X-300Y549213I5J300*
G37*
G36*
Y1969D02*
G01X-255Y2126D01*
X-144Y2232*
X5Y2268*
G02X300Y1969I-5J-300*
G03X1969Y300I1669J0*
G02X2269Y0I0J-300*
X1969Y-300I-300*
X-300Y1969I0J2269*
G37*
G36*
X594101Y423179D02*
G01X594141Y423646D01*
X594260Y424099*
X594453Y424526*
X594717Y424913*
X595042Y425251*
X595420Y425528*
X595840Y425736*
X596289Y425871*
X596754Y425927*
G02X599594Y423373I97J-2748*
G01X599601Y423179*
G02X597142Y420444I-2750J0*
X594101Y423179I-291J2735*
G37*
G36*
X531226Y426826D02*
G01X531266Y427293D01*
X531385Y427746*
X531578Y428173*
X531842Y428560*
X532167Y428898*
X532545Y429175*
X532965Y429383*
X533414Y429518*
X533879Y429574*
G02X536719Y427020I97J-2748*
G01X536726Y426826*
G02X534267Y424091I-2750J0*
X531226Y426826I-291J2735*
G37*
G36*
X478718Y324841D02*
G01X478758Y325308D01*
X478877Y325761*
X479070Y326188*
X479334Y326575*
X479659Y326913*
X480037Y327190*
X480457Y327398*
X480906Y327533*
X481371Y327589*
G02X484211Y325035I97J-2748*
G01X484218Y324841*
G02X481759Y322106I-2750J0*
X478718Y324841I-291J2735*
G37*
G36*
X466907Y309093D02*
G01X466947Y309560D01*
X467066Y310013*
X467259Y310440*
X467523Y310827*
X467848Y311165*
X468226Y311442*
X468646Y311650*
X469095Y311785*
X469560Y311841*
G02X472400Y309287I97J-2748*
G01X472407Y309093*
G02X469948Y306358I-2750J0*
X466907Y309093I-291J2735*
G37*
G36*
X445450Y350333D02*
G01X445490Y350800D01*
X445609Y351253*
X445802Y351680*
X446066Y352067*
X446391Y352405*
X446769Y352682*
X447189Y352890*
X447638Y353025*
X448103Y353081*
G02X450943Y350527I97J-2748*
G01X450950Y350333*
G02X448491Y347598I-2750J0*
X445450Y350333I-291J2735*
G37*
G36*
X433273Y379368D02*
G01X433313Y379835D01*
X433432Y380288*
X433625Y380715*
X433889Y381102*
X434214Y381440*
X434592Y381717*
X435012Y381925*
X435461Y382060*
X435926Y382116*
G02X438766Y379562I97J-2748*
G01X438773Y379368*
G02X436314Y376633I-2750J0*
X433273Y379368I-291J2735*
G37*
G36*
X421828Y328876D02*
G01X421868Y329343D01*
X421987Y329796*
X422180Y330223*
X422444Y330610*
X422769Y330948*
X423147Y331225*
X423567Y331433*
X424016Y331568*
X424481Y331624*
G02X427321Y329070I97J-2748*
G01X427328Y328876*
G02X424869Y326141I-2750J0*
X421828Y328876I-291J2735*
G37*
G36*
X341726Y329860D02*
G01X341766Y330327D01*
X341885Y330780*
X342078Y331207*
X342342Y331594*
X342667Y331932*
X343045Y332209*
X343465Y332417*
X343914Y332552*
X344379Y332608*
G02X347219Y330054I97J-2748*
G01X347226Y329860*
G02X344767Y327125I-2750J0*
X341726Y329860I-291J2735*
G37*
G36*
X17913Y292640D02*
G01Y295414D01*
Y295415*
X19875Y297377*
X19876*
X22650*
X22651*
X24613Y295415*
Y295414*
Y292639*
X22651Y290677*
X22650*
X19875*
X17913Y292639*
Y292640*
G37*
G36*
Y282640D02*
G01Y285414D01*
Y285415*
X19875Y287377*
X19876*
X22650*
X22651*
X24613Y285415*
Y285414*
Y282639*
X22651Y280677*
X22650*
X19875*
X17913Y282639*
Y282640*
G37*
G36*
Y272640D02*
G01Y275414D01*
Y275415*
X19875Y277377*
X19876*
X22650*
X22651*
X24613Y275415*
Y275414*
Y272639*
X22651Y270677*
X22650*
X19875*
X17913Y272639*
Y272640*
G37*
G36*
X7913Y282640D02*
G01Y285414D01*
Y285415*
X9875Y287377*
X9876*
X12650*
X12651*
X14613Y285415*
Y285414*
Y282639*
X12651Y280677*
X12650*
X9875*
X7913Y282639*
Y282640*
G37*
G36*
Y272640D02*
G01Y275414D01*
Y275415*
X9875Y277377*
X9876*
X12650*
X12651*
X14613Y275415*
Y275414*
Y272639*
X12651Y270677*
X12650*
X9875*
X7913Y272639*
Y272640*
G37*
G36*
X4850Y486600D02*
G01Y489706D01*
X7047Y491903*
X10153*
X12350Y489706*
Y486600*
Y486599*
X10153Y484403*
X7047*
X7046*
X4850Y486600*
G37*
G36*
Y468800D02*
G01Y471906D01*
X7047Y474103*
X10153*
X12350Y471906*
Y468800*
Y468799*
X10153Y466603*
X7047*
X7046*
X4850Y468800*
G37*
G36*
X7384Y510550D02*
G01X7399Y510886D01*
X7487Y511445*
X7653Y511985*
X7894Y512497*
G03X8671Y513481I-894J1505*
G02X11383Y514542I2713J-2939*
G03X11384Y514543I0J1*
X11385Y514542I1J0*
G02X15384Y510550I-1J-4000*
X11385Y506558I-4000J8*
G03X11384Y506557I0J-1*
X11383Y506558I-1J0*
G02X7384Y510550I1J4000*
G37*
G36*
X48120Y82457D02*
G01X48159Y83030D01*
X48277Y83596*
X48473Y84140*
X48741Y84653*
X49078Y85123*
X49476Y85543*
X49928Y85903*
X50426Y86198*
X50959Y86422*
X51519Y86570*
G02X55949Y84523I788J-4113*
G01X56410Y83296*
G02X56494Y82457I-4105J-835*
X52097Y78275I-4187J0*
X48120Y82457I210J4182*
G37*
G36*
X661559Y302827D02*
G01Y311927D01*
X675459*
Y302827*
X661559*
G37*
G36*
X657805Y411014D02*
G01Y424914D01*
X666905*
Y411014*
X657805*
G37*
G36*
Y358014D02*
G01Y371914D01*
X666905*
Y358014*
X657805*
G37*
G36*
X608559Y302827D02*
G01Y311927D01*
X622459*
Y302827*
X608559*
G37*
G36*
X336369Y19686D02*
G01X336374Y20079D01*
X336444Y21135*
X336593Y22184*
X336821Y23218*
X337126Y24232*
X337507Y25221*
X337962Y26177*
X338487Y27097*
X339080Y27974*
X339738Y28804*
X340456Y29582*
X341231Y30304*
X342058Y30965*
X342933Y31562*
X343851Y32091*
X344806Y32549*
X345792Y32935*
X346805Y33244*
X347838Y33476*
X351012Y33697*
G02X364419Y19686I-618J-14011*
X350609Y5663I-14025J0*
X336369Y19686I-215J14023*
G37*
G36*
X640100Y443300D02*
G01Y490697D01*
Y494897*
X682944*
Y454226*
X673989*
G03X673988Y454225I0J-1*
G01Y443300*
X640100*
G37*
G54D99*
X732810Y44538D03*
X708162Y521976D03*
G54D100*
X615519Y300722D03*
Y314123D03*
X668519D03*
Y300722D03*
G54D101*
X655700Y417953D03*
X669100D03*
Y364953D03*
X655700D03*
G54D102*
X57656Y381718D03*
G54D103*
X68110Y406894D03*
G54D104*
X57579Y384816D03*
Y378816D03*
G54D105*
X71012Y406816D03*
X65012D03*
G54D106*
X556201Y331693D03*
X586909D03*
X525492D03*
X220013Y49094D03*
X302068D03*
X383595D03*
X465651D03*
X546951D03*
X628251D03*
X58233D03*
X138486D03*
G54D107*
X501363Y276227D03*
X314476Y311639D03*
X70300Y336053D03*
Y373547D03*
G54D108*
X501363Y286227D03*
X511363Y276227D03*
Y286227D03*
X521363Y276227D03*
Y286227D03*
X531363Y276227D03*
Y286227D03*
X541363Y276227D03*
Y286227D03*
X608676Y277778D03*
X598912D03*
X494587Y337264D03*
X504586D03*
X494587Y327264D03*
X504586D03*
X494587Y317264D03*
X504586D03*
X494587Y307264D03*
X354476Y321639D03*
Y311639D03*
X344476Y321639D03*
Y311639D03*
X334476Y321639D03*
Y311639D03*
X324476Y321639D03*
Y311639D03*
X314476Y321639D03*
X110300Y346053D03*
Y336053D03*
X100300Y346053D03*
Y336053D03*
X90300Y346053D03*
Y336053D03*
X80300Y346053D03*
Y336053D03*
X70300Y346053D03*
X110300Y383547D03*
Y373547D03*
X100300Y383547D03*
Y373547D03*
X90300Y383547D03*
Y373547D03*
X80300Y383547D03*
Y373547D03*
X70300Y383547D03*
G54D109*
X11263Y294027D03*
G54D110*
X70663Y513727D03*
X80663D03*
X90663D03*
X60663D03*
X50663D03*
X80663Y489427D03*
X70663D03*
X60663D03*
X90663D03*
X100663D03*
X142730Y513727D03*
X152730D03*
X162730D03*
X132729D03*
X122729D03*
X152730Y489427D03*
X142730D03*
X132729D03*
X162730D03*
X172729D03*
X214796Y513727D03*
X224796D03*
X234796D03*
X204796D03*
X194796D03*
X224796Y489427D03*
X214796D03*
X204796D03*
X234796D03*
X244796D03*
X286863Y513727D03*
X296863D03*
X306863D03*
X276863D03*
X266863D03*
X296863Y489427D03*
X286863D03*
X276863D03*
X306863D03*
X316863D03*
X379035Y420653D03*
X389035D03*
X399035D03*
X379035Y396653D03*
X389035D03*
X399035D03*
X303000Y352053D03*
X293000D03*
X275700Y396653D03*
X265700D03*
X255700D03*
X337800D03*
X347800D03*
X357800D03*
X296750D03*
X306750D03*
X316750D03*
X357800Y420653D03*
X347800D03*
X337800D03*
X316750D03*
X306750D03*
X296750D03*
X275700D03*
X265700D03*
X255700D03*
X334500Y352053D03*
X324500D03*
X271300D03*
X261300D03*
G54D111*
X100663Y513727D03*
X50663Y489427D03*
X172729Y513727D03*
X122729Y489427D03*
X244796Y513727D03*
X194796Y489427D03*
X316863Y513727D03*
X266863Y489427D03*
G54D112*
X728346Y19686D03*
X19685D03*
X728346Y531496D03*
X19685D03*
G54D113*
X556201Y319882D03*
X586909D03*
X525492D03*
X220013Y37283D03*
X231824Y49094D03*
Y37283D03*
X313879D03*
Y49094D03*
X302068Y37283D03*
X383595D03*
X395406Y49094D03*
Y37283D03*
X477462D03*
Y49094D03*
X465651Y37283D03*
X546951D03*
X558762Y49094D03*
Y37283D03*
X640062D03*
Y49094D03*
X628251Y37283D03*
X58233D03*
X70044Y49094D03*
Y37283D03*
X150297D03*
Y49094D03*
X138486Y37283D03*
X498560Y514597D03*
X512339D03*
Y494912D03*
X498560D03*
X460860D03*
X474639D03*
Y514597D03*
X460860D03*
X423160D03*
X436940D03*
Y494912D03*
X423160D03*
X385460D03*
X399240D03*
Y514597D03*
X385460D03*
X347760D03*
X361540D03*
Y494912D03*
X347760D03*
G54D114*
X692500Y461332D03*
Y428832D03*
Y396332D03*
Y363832D03*
Y201253D03*
Y233753D03*
Y266253D03*
Y298753D03*
Y331253D03*
G54D115*
Y168753D03*
G54D116*
X436023Y328898D03*
Y318898D03*
Y308898D03*
Y370473D03*
Y360473D03*
Y350473D03*
X459842Y308898D03*
Y318898D03*
Y328898D03*
Y350375D03*
Y360374D03*
Y370375D03*
G54D107*
X618676Y277778D03*
X504586Y307264D03*
G54D117*
X18400Y465453D03*
Y493053D03*
G54D118*
X25000Y372053D03*
Y419375D03*
G54D119*
X35700Y390753D03*
Y400674D03*
X43600D03*
Y390753D03*
G54D30*
X157800Y442153D03*
G54D120*
X52307Y121827D03*
X131047Y121704D03*
Y82333D03*
X213724Y121827D03*
Y82457D03*
X296401Y121827D03*
Y82457D03*
X379079Y121827D03*
Y82457D03*
X457819Y121704D03*
Y82333D03*
X540496Y121827D03*
Y82457D03*
X623173D03*
Y121827D03*
G54D121*
X339027Y444132D03*
X372763Y432627D03*
X411444Y437711D03*
X448728Y438101D03*
X498960Y438257D03*
X347874Y504323D03*
X361758D03*
X385626D03*
X399198D03*
X423222D03*
X436872D03*
X461052D03*
X474702D03*
X498648D03*
X512376D03*
X378838Y383997D03*
X691142Y150926D03*
X406960Y420653D03*
X88296Y40716D03*
X82212Y54289D03*
X41340Y42667D03*
X45786Y61777D03*
X659490Y39390D03*
X659334Y54990D03*
X598026Y53742D03*
X614718Y49843D03*
X576108Y38845D03*
X574860Y52026D03*
X516594Y53976D03*
X531960Y48906D03*
X494442Y39235D03*
X491010Y52416D03*
X435084Y53197D03*
X449670Y43836D03*
X412542Y39937D03*
X412464Y54366D03*
X365430Y40951D03*
Y55146D03*
X335322Y39624D03*
X333138Y55770D03*
X272858Y54289D03*
X290238Y49141D03*
X251706Y40092D03*
X244686Y56160D03*
X190086Y55068D03*
X205608Y48673D03*
X169260Y40014D03*
X127140Y49063D03*
X111072Y53976D03*
X165438Y55537D03*
X206697Y334401D03*
X289637Y325639D03*
X707928Y331631D03*
X38600Y409101D03*
X44900Y416853D03*
X285500Y401501D03*
X707928Y428819D03*
X264244Y385110D03*
X315500Y431501D03*
X285500Y391501D03*
X355500Y431501D03*
X328051Y396792D03*
X660863Y516027D03*
X512570Y400726D03*
X707928Y298871D03*
Y364235D03*
X38600Y379101D03*
X55413Y407151D03*
X707928Y234131D03*
X618540Y329837D03*
X474863Y416827D03*
X554568Y459770D03*
X214663Y319727D03*
X35763Y277627D03*
X509012Y365002D03*
X551212Y364602D03*
X595311Y364603D03*
X707928Y392003D03*
X254893Y327203D03*
X350886Y348662D03*
X165500Y421501D03*
X193463Y455527D03*
X185500Y455438D03*
X185463Y464327D03*
X207163Y323027D03*
X245500Y331501D03*
X223963Y321027D03*
X335500Y341501D03*
X315500Y351501D03*
X278614Y352793D03*
X135500Y331501D03*
X55709Y351501D03*
X55500Y331501D03*
X24616Y303237D03*
X55500Y341501D03*
Y321501D03*
X29500Y341501D03*
X45709Y344408D03*
X65500Y391501D03*
X115500Y411501D03*
X145500D03*
X175500Y441501D03*
X639308Y507927D03*
X137263Y431027D03*
X129063Y428927D03*
X467863Y414227D03*
X559063Y403627D03*
X585311Y394603D03*
X541212Y394602D03*
X499012Y395002D03*
X147112Y441840D03*
X175500Y455438D03*
X707928Y468097D03*
G54D122*
X99368Y260271D03*
Y315783D03*
G54D123*
X46422Y33582D03*
X81855D03*
X126675D03*
X162108D03*
X208202D03*
X243635D03*
X290257D03*
X325690D03*
X371784D03*
X407218D03*
X453840D03*
X489273D03*
X535140D03*
X570573D03*
X616440D03*
X651873D03*
X598720Y316182D03*
X575098D03*
X568012D03*
X544390D03*
X537303D03*
X513681D03*
G54D124*
X211573Y288027D03*
G54D128*
X99368Y260271D03*
Y315783D03*
G54D129*
X46422Y33582D03*
X81855D03*
X126675D03*
X162108D03*
X208202D03*
X243635D03*
X290257D03*
X325690D03*
X371784D03*
X407218D03*
X453840D03*
X489273D03*
X535140D03*
X570573D03*
X616440D03*
X651873D03*
X598720Y316182D03*
X575098D03*
X568012D03*
X544390D03*
X537303D03*
X513681D03*
G54D130*
X211573Y288027D03*
G54D131*
X655700Y417953D03*
X669100D03*
Y364953D03*
X655700D03*
G54D132*
X615519Y300722D03*
Y314123D03*
X668519D03*
Y300722D03*
G54D133*
X57579Y384816D03*
Y378816D03*
G54D93*
X1969Y0D02*
G01X746063D01*
X748031Y1969D02*
G01Y549214D01*
X746063Y551182D02*
G01X1969D01*
X0Y549214D02*
G01Y1969D01*
M02*
